<svg width="204" height="118" viewBox="0 0 204 118" fill="none" xmlns="http://www.w3.org/2000/svg">
<g id="Arrow">
<path id="Vector 21" d="M201 3C200.052 14.2773 198.781 22.9045 192.196 32.3351C183.145 45.2964 164.621 48.7962 149.978 46.3229C139.779 44.6002 120.498 37.7728 120.498 22.3182C120.741 15.4637 124.26 7.48879 132.807 4.99664C149.397 3.00292 153.681 5.84143 160.96 8.98408C171.015 14.9652 177.57 26.2902 176.283 37.7728C175.816 41.9379 175.375 45.6823 172.927 49.1491C168.869 54.8966 164.716 60.0775 159.576 64.9614C148.026 75.9352 132.551 83.8595 116.565 85.7464C89.7839 88.9073 62.2619 86.5194 35.3768 88.0002C30.8063 88.2519 25.5085 89.8616 21.2321 91.5777C14.1231 94.4305 9.38003 99.2337 4.59759 105.029C2.8721 107.12 4.04134 100.302 4.345 98.9472M7.44818 82.8487C5.11173 88.7339 4.59758 92.8179 4.05634 97.9455C3.62974 101.987 3.83848 106.14 3.22642 110.145C3.09284 111.019 2.48715 116.403 4.05664 114.652C5.16114 113.42 6.24194 110.207 7.73685 109.572C12.9432 107.36 18.1504 105.484 23.7579 104.385C25.8651 103.972 31.254 102.811 36.0263 102.811" stroke="#5080FF" stroke-width="6" stroke-linecap="round"/>
</g>
</svg>
