<svg width="24" height="24" viewBox="0 0 24 24" fill="none" xmlns="http://www.w3.org/2000/svg">
<g clip-path="url(#clip0_1689_42485)">
<path d="M12 24C18.6274 24 24 18.6274 24 12C24 5.37258 18.6274 0 12 0C5.37258 0 0 5.37258 0 12C0 18.6274 5.37258 24 12 24Z" fill="#F0F0F0"/>
<path d="M2.48056 4.69406C1.53796 5.92045 0.827189 7.33397 0.41333 8.86954H6.65605L2.48056 4.69406Z" fill="#0052B4"/>
<path d="M23.5866 8.86957C23.1728 7.33403 22.4619 5.92052 21.5194 4.69412L17.344 8.86957H23.5866Z" fill="#0052B4"/>
<path d="M0.41333 15.1303C0.827236 16.6658 1.538 18.0794 2.48056 19.3057L6.65591 15.1303H0.41333Z" fill="#0052B4"/>
<path d="M19.3058 2.48058C18.0794 1.53797 16.6659 0.827206 15.1304 0.4133V6.65597L19.3058 2.48058Z" fill="#0052B4"/>
<path d="M4.69409 21.5192C5.92048 22.4618 7.334 23.1726 8.86953 23.5865V17.3439L4.69409 21.5192Z" fill="#0052B4"/>
<path d="M8.86948 0.4133C7.33395 0.827206 5.92044 1.53797 4.69409 2.48053L8.86948 6.65592V0.4133Z" fill="#0052B4"/>
<path d="M15.1304 23.5865C16.6659 23.1726 18.0794 22.4618 19.3058 21.5193L15.1304 17.3439V23.5865Z" fill="#0052B4"/>
<path d="M17.344 15.1303L21.5194 19.3057C22.4619 18.0794 23.1728 16.6658 23.5866 15.1303H17.344Z" fill="#0052B4"/>
<path d="M23.8984 10.4348H13.5653H13.5653V0.101578C13.0529 0.034875 12.5305 0 12 0C11.4694 0 10.9471 0.034875 10.4348 0.101578V10.4347V10.4347H0.101578C0.034875 10.9471 0 11.4695 0 12C0 12.5306 0.034875 13.0529 0.101578 13.5652H10.4347H10.4347V23.8984C10.9471 23.9651 11.4694 24 12 24C12.5305 24 13.0529 23.9652 13.5652 23.8984V13.5653V13.5653H23.8984C23.9651 13.0529 24 12.5306 24 12C24 11.4695 23.9651 10.9471 23.8984 10.4348Z" fill="#D80027"/>
<path d="M15.1304 15.1305L20.4852 20.4854C20.7315 20.2392 20.9664 19.9818 21.1906 19.715L16.6061 15.1305H15.1304V15.1305Z" fill="#D80027"/>
<path d="M8.8695 15.1306H8.86941L3.51465 20.4853C3.76084 20.7316 4.01823 20.9665 4.28504 21.1907L8.8695 16.6061V15.1306Z" fill="#D80027"/>
<path d="M8.86951 8.86967V8.86958L3.5147 3.51471C3.26842 3.7609 3.03348 4.01829 2.80933 4.2851L7.39384 8.86962H8.86951V8.86967Z" fill="#D80027"/>
<path d="M15.1304 8.86956L20.4852 3.51465C20.239 3.26837 19.9817 3.03344 19.7148 2.80933L15.1304 7.39384V8.86956Z" fill="#D80027"/>
</g>
<defs>
<clipPath id="clip0_1689_42485">
<rect width="24" height="24" fill="white"/>
</clipPath>
</defs>
</svg>
