<svg width="58" height="38" viewBox="0 0 58 38" fill="none" xmlns="http://www.w3.org/2000/svg">
<g id="enerco 1" clip-path="url(#clip0_262_1274)">
<g id="Clip path group">
<mask id="mask0_262_1274" style="mask-type:luminance" maskUnits="userSpaceOnUse" x="0" y="0" width="37" height="38">
<g id="39ccae0eb9">
<path id="path952" d="M0.0797119 0.678345H36.5019V37.1833H0.0797119V0.678345Z" fill="white"/>
</g>
</mask>
<g mask="url(#mask0_262_1274)">
<g id="g1011">
<g id="Clip path group_2">
<mask id="mask1_262_1274" style="mask-type:luminance" maskUnits="userSpaceOnUse" x="0" y="0" width="37" height="38">
<g id="43b0221f6e">
<path id="path955" d="M2.27021 20.0192L2.28633 20.1817L2.27534 20.1015L2.27021 20.0192ZM17.1523 2.94112C16.8841 6.79459 15.2322 10.4274 12.4957 13.1712C9.75999 15.9149 6.14189 17.5762 2.30172 17.8476C2.85503 9.89942 9.23234 3.50076 17.1523 2.94112ZM2.28487 17.8792L3.55417 17.7372L2.71359 17.8512C2.28487 17.8814 2.28487 17.8792 2.28487 17.8792ZM35.3997 17.8005C34.8017 17.8005 34.315 18.2888 34.315 18.8896C34.315 27.7592 27.1235 34.9741 18.286 34.9741C9.90657 34.9741 2.8946 28.4122 2.30319 20.0324C11.8772 19.4389 19.3729 11.4408 19.3729 1.80568C19.3729 1.20339 18.884 0.715088 18.286 0.715088C13.4521 0.715088 8.89816 2.60284 5.46326 6.03125C2.02764 9.46039 0.118548 14.0147 0.0870349 18.8595V18.869L0.0855713 18.8837V18.9793L0.0870349 18.994L0.0892334 19.0087C0.120746 23.8594 2.0291 28.4137 5.46473 31.8391C8.90036 35.2639 13.4543 37.1546 18.2875 37.1546C28.324 37.1546 36.4887 28.9623 36.4887 18.8911C36.4887 18.291 35.9999 17.8027 35.4019 17.8027" fill="white"/>
</g>
</mask>
<g mask="url(#mask1_262_1274)">
<g id="g1009">
<path id="path1007" d="M-0.849487 -0.219482H58.8013V38.0886H-0.849487V-0.219482Z" fill="#1A1A1A"/>
</g>
</g>
</g>
</g>
</g>
</g>
<g id="Clip path group_3">
<mask id="mask2_262_1274" style="mask-type:luminance" maskUnits="userSpaceOnUse" x="27" y="0" width="10" height="10">
<g id="a7ca121166">
<path id="path964" d="M27.7994 0.678406H36.5028V9.32075H27.7994V0.678406Z" fill="white"/>
</g>
</mask>
<g mask="url(#mask2_262_1274)">
<g id="g1023">
<g id="Clip path group_4">
<mask id="mask3_262_1274" style="mask-type:luminance" maskUnits="userSpaceOnUse" x="27" y="0" width="10" height="10">
<g id="49de1545d4">
<path id="path967" d="M36.486 4.97449C36.486 7.33878 34.5755 9.25595 32.2193 9.25595C29.8632 9.25595 27.9504 7.34098 27.9504 4.97449V4.99729C27.9504 2.63299 29.861 0.715088 32.2171 0.715088C34.5733 0.715088 36.4838 2.63299 36.4838 4.99729" fill="white"/>
</g>
</mask>
<g mask="url(#mask3_262_1274)">
<g id="g1021">
<path id="path1019" d="M-0.849487 -0.219482H58.8013V38.0886H-0.849487V-0.219482Z" fill="#1A1A1A"/>
</g>
</g>
</g>
</g>
</g>
</g>
<g id="Clip path group_5">
<mask id="mask4_262_1274" style="mask-type:luminance" maskUnits="userSpaceOnUse" x="36" y="30" width="4" height="5">
<g id="daff7d1367">
<path id="path970" d="M36.485 30.8253H39.7286V31.7328H36.485V30.8253ZM36.485 31.7328H37.6429V32.4322H36.485V31.7328ZM36.485 32.4322H39.4809V33.3095H36.485V32.4322ZM36.485 33.3095H37.6429V34.0691H36.485V33.3095ZM36.485 34.0691H39.8048V34.9759H36.485V34.0691Z" fill="white"/>
</g>
</mask>
<g mask="url(#mask4_262_1274)">
<g id="g1027">
<path id="path1025" d="M-0.85022 -0.219116H58.8005V38.089H-0.85022V-0.219116Z" fill="#1A1A1A"/>
</g>
</g>
</g>
<g id="Clip path group_6">
<mask id="mask5_262_1274" style="mask-type:luminance" maskUnits="userSpaceOnUse" x="40" y="31" width="4" height="5">
<g id="0af603fd00">
<path id="path973" d="M40.3683 31.6537H43.9329V35.0954H40.3683V31.6537Z" fill="white"/>
</g>
</mask>
<g mask="url(#mask5_262_1274)">
<g id="g1033">
<g id="Clip path group_7">
<mask id="mask6_262_1274" style="mask-type:luminance" maskUnits="userSpaceOnUse" x="40" y="31" width="4" height="4">
<g id="0d19c70ad3">
<path id="path976" d="M43.4472 32.0638C43.6891 32.3013 43.8107 32.6587 43.8107 33.1375V34.9745H42.688V33.3206C42.688 32.8808 42.5128 32.6624 42.1625 32.6624C41.9705 32.6624 41.8159 32.7257 41.6986 32.8514C41.5814 32.9764 41.525 33.1676 41.525 33.4199V34.9723H40.403V31.7623H41.4707V32.1123C41.5975 31.9814 41.747 31.8822 41.92 31.813L42.4872 31.7101C42.8837 31.7101 43.2047 31.8277 43.4472 32.0653" fill="white"/>
</g>
</mask>
<g mask="url(#mask6_262_1274)">
<g id="g1031">
<path id="path1029" d="M-0.848999 -0.219177H58.8018V38.0889H-0.848999V-0.219177Z" fill="#1A1A1A"/>
</g>
</g>
</g>
</g>
</g>
</g>
<g id="Clip path group_8">
<mask id="mask7_262_1274" style="mask-type:luminance" maskUnits="userSpaceOnUse" x="44" y="31" width="4" height="5">
<g id="1249a0f096">
<path id="path979" d="M44.3086 31.654H47.8373V35.0956H44.3086V31.654Z" fill="white"/>
</g>
</mask>
<g mask="url(#mask7_262_1274)">
<g id="g1039">
<g id="Clip path group_9">
<mask id="mask8_262_1274" style="mask-type:luminance" maskUnits="userSpaceOnUse" x="44" y="31" width="4" height="5">
<g id="b5ed979d51">
<path id="path982" d="M45.691 32.6562C45.5752 32.7555 45.5012 32.8901 45.4689 33.0607H46.78C46.7478 32.8901 46.6737 32.7555 46.5579 32.6562C46.4421 32.557 46.297 32.5084 46.1234 32.5084C45.9504 32.5084 45.8046 32.5592 45.6895 32.6562M47.8126 33.6512H45.488C45.5341 33.8182 45.6257 33.9454 45.7621 34.0329C45.8976 34.1211 46.0677 34.166 46.2729 34.166L46.6715 34.1006C46.7837 34.0572 46.8973 33.9866 47.0108 33.8873L47.6015 34.5043C47.2901 34.8521 46.8357 35.0264 46.2369 35.0264C45.8625 35.0264 45.5341 34.9551 45.2513 34.8132C44.9676 34.6712 44.7478 34.4727 44.5932 34.2204C44.4385 33.9675 44.3601 33.6814 44.3601 33.36C44.3601 33.0438 44.4363 32.7592 44.5873 32.5084C44.7383 32.2577 44.9493 32.0613 45.2175 31.9194C45.4858 31.7775 45.7862 31.7061 46.1219 31.7061C46.4407 31.7061 46.7294 31.7716 46.9903 31.9047C47.2512 32.037 47.4564 32.2282 47.6074 32.479C47.7584 32.729 47.8346 33.0269 47.8346 33.371L47.8294 33.4718" fill="white"/>
</g>
</mask>
<g mask="url(#mask8_262_1274)">
<g id="g1037">
<path id="path1035" d="M-0.848877 -0.219421H58.8019V38.0887H-0.848877V-0.219421Z" fill="#1A1A1A"/>
</g>
</g>
</g>
</g>
</g>
</g>
<g id="Clip path group_10">
<mask id="mask9_262_1274" style="mask-type:luminance" maskUnits="userSpaceOnUse" x="48" y="31" width="3" height="5">
<g id="77e09f3684">
<path id="path985" d="M48.2476 31.654H50.4989V35.0956H48.2476V31.654Z" fill="white"/>
</g>
</mask>
<g mask="url(#mask9_262_1274)">
<g id="g1045">
<g id="Clip path group_11">
<mask id="mask10_262_1274" style="mask-type:luminance" maskUnits="userSpaceOnUse" x="48" y="31" width="3" height="4">
<g id="a5e9af2ec8">
<path id="path988" d="M49.8663 31.8181C50.0487 31.7446 50.2598 31.7078 50.4965 31.7078V32.7212C50.3939 32.7102 50.3104 32.7028 50.2429 32.7028C50.0026 32.7028 49.8142 32.7683 49.6779 32.8992C49.5423 33.0301 49.4749 33.2279 49.4749 33.4978V34.9737H48.3529V31.7615H49.4229V32.1469C49.5365 32.0012 49.6852 31.8909 49.8685 31.8181" fill="white"/>
</g>
</mask>
<g mask="url(#mask10_262_1274)">
<g id="g1043">
<path id="path1041" d="M-0.850586 -0.219727H58.8002V38.0884H-0.850586V-0.219727Z" fill="#1A1A1A"/>
</g>
</g>
</g>
</g>
</g>
</g>
<g id="Clip path group_12">
<mask id="mask11_262_1274" style="mask-type:luminance" maskUnits="userSpaceOnUse" x="50" y="31" width="5" height="5">
<g id="02962eafa2">
<path id="path991" d="M50.6873 31.6541H54.0643V35.0957H50.6873V31.6541Z" fill="white"/>
</g>
</mask>
<g mask="url(#mask11_262_1274)">
<g id="g1051">
<g id="Clip path group_13">
<mask id="mask12_262_1274" style="mask-type:luminance" maskUnits="userSpaceOnUse" x="50" y="31" width="5" height="5">
<g id="5830550ebe">
<path id="path994" d="M51.6139 34.8149C51.334 34.673 51.1163 34.4744 50.9617 34.2222C50.8071 33.9699 50.7286 33.6839 50.7286 33.364C50.7286 33.0441 50.8071 32.758 50.9617 32.5072C51.1163 32.2565 51.334 32.0601 51.6139 31.9197C51.8931 31.7792 52.2105 31.7101 52.5644 31.7101C52.9265 31.7101 53.2394 31.7888 53.504 31.9439C53.7685 32.0991 53.9554 32.316 54.0653 32.5933L53.1962 33.0382C53.0511 32.7499 52.8385 32.6058 52.5593 32.6058C52.3578 32.6058 52.1914 32.6734 52.0595 32.808C51.9269 32.9426 51.8616 33.1279 51.8616 33.3655C51.8616 33.6067 51.9269 33.7957 52.0595 33.9324C52.1914 34.0692 52.3578 34.1361 52.5593 34.1361C52.8385 34.1361 53.0511 33.992 53.1962 33.7045L54.0653 34.1494C53.9554 34.4259 53.7671 34.6428 53.504 34.7987C53.2409 34.9539 52.9265 35.0319 52.5644 35.0319C52.2105 35.0319 51.8931 34.9613 51.6139 34.8193" fill="white"/>
</g>
</mask>
<g mask="url(#mask12_262_1274)">
<g id="g1049">
<path id="path1047" d="M-0.848999 -0.219177H58.8018V38.0889H-0.848999V-0.219177Z" fill="#1A1A1A"/>
</g>
</g>
</g>
</g>
</g>
</g>
<g id="Clip path group_14">
<mask id="mask13_262_1274" style="mask-type:luminance" maskUnits="userSpaceOnUse" x="54" y="31" width="4" height="5">
<g id="9962da63aa">
<path id="path997" d="M54.2509 31.6536H57.8712V35.0953H54.2509V31.6536Z" fill="white"/>
</g>
</mask>
<g mask="url(#mask13_262_1274)">
<g id="g1057">
<g id="Clip path group_15">
<mask id="mask14_262_1274" style="mask-type:luminance" maskUnits="userSpaceOnUse" x="54" y="31" width="4" height="5">
<g id="8f2a478308">
<path id="path1000" d="M56.5454 33.9286C56.6722 33.7919 56.7338 33.6029 56.7338 33.3616C56.7338 33.1241 56.67 32.9388 56.5454 32.8042C56.4201 32.6696 56.2581 32.602 56.0603 32.602C55.8631 32.602 55.7026 32.6696 55.5759 32.8042C55.4491 32.9388 55.3875 33.1241 55.3875 33.3616C55.3875 33.6029 55.4513 33.7919 55.5759 33.9286C55.7004 34.0647 55.8631 34.1323 56.0603 34.1323C56.2581 34.1323 56.4186 34.0647 56.5454 33.9286ZM55.1339 34.8148C54.8584 34.6729 54.6422 34.4743 54.4876 34.2221C54.3329 33.9698 54.2545 33.6837 54.2545 33.3639C54.2545 33.0476 54.3329 32.763 54.4876 32.5108C54.6422 32.2578 54.8584 32.0615 55.1303 31.9217C55.4029 31.7813 55.7136 31.7122 56.0603 31.7122C56.4069 31.7122 56.7184 31.7828 56.9947 31.9217C57.2702 32.06 57.4849 32.2578 57.6374 32.5086C57.7905 32.7594 57.869 33.0454 57.869 33.3653C57.869 33.6852 57.792 33.9713 57.6374 34.2243C57.4827 34.4765 57.2702 34.6751 56.9947 34.817C56.7184 34.9589 56.4069 35.0303 56.0603 35.0303C55.7173 35.0303 55.408 34.9589 55.1325 34.817" fill="white"/>
</g>
</mask>
<g mask="url(#mask14_262_1274)">
<g id="g1055">
<path id="path1053" d="M-0.850708 -0.219543H58.8001V38.0886H-0.850708V-0.219543Z" fill="#1A1A1A"/>
</g>
</g>
</g>
</g>
</g>
</g>
</g>
<defs>
<clipPath id="clip0_262_1274">
<rect width="57.8311" height="36.5697" fill="white" transform="translate(0.0844727 0.715149)"/>
</clipPath>
</defs>
</svg>
