<svg width="56" height="50" viewBox="0 0 56 50" fill="none" xmlns="http://www.w3.org/2000/svg">
<g id="enercogrid 1" clip-path="url(#clip0_262_1000)">
<g id="Warstwa 1">
<g id="Group">
<path id="Vector" d="M55.3635 27.6272C55.3553 28.0144 55.3504 28.4016 55.3374 28.7889C55.3267 29.105 55.3015 29.4204 55.2917 29.7357C55.2884 29.8571 55.3112 29.98 55.3227 30.1022C55.2982 30.1429 55.2737 30.1836 55.2492 30.2244C55.2598 30.3433 55.2705 30.4623 55.2811 30.5812C55.2566 30.6339 55.2321 30.6874 55.2068 30.7401C55.1791 30.9964 55.1628 31.2543 55.1211 31.5082C55.0502 31.9401 54.9653 32.3704 54.8837 32.8007C54.8413 33.0235 54.794 33.2454 54.7483 33.4674C54.5794 33.5001 54.6553 33.6055 54.6773 33.6949C54.448 34.4079 54.2179 35.12 53.9903 35.833C53.9764 35.8761 53.9805 35.924 53.9764 35.9703C53.9618 35.9959 53.9479 36.0214 53.9332 36.047C53.7194 36.5276 53.5049 37.009 53.2911 37.4896C53.2797 37.5024 53.2674 37.5152 53.256 37.5272C53.0569 37.9304 52.9378 38.3727 52.6351 38.7239C52.6221 38.7639 52.6098 38.8046 52.5968 38.8445C52.4099 39.1279 52.2206 39.4098 52.0371 39.6948C51.8266 40.0221 51.6201 40.3518 51.4121 40.6808C51.399 40.692 51.386 40.7031 51.3729 40.7135C51.1535 40.9906 50.9332 41.2676 50.7153 41.5462C50.6941 41.5734 50.6827 41.6085 50.6672 41.6396C50.6582 41.6484 50.6484 41.658 50.6394 41.6668C50.5717 41.7506 50.5032 41.8344 50.4355 41.9183C50.4216 41.9287 50.4085 41.9398 50.3947 41.9502C50.2666 42.1059 50.1442 42.2664 50.0096 42.4165C49.8905 42.5482 49.7583 42.6688 49.6318 42.7941C49.6016 42.8236 49.5706 42.8524 49.5404 42.8819C49.1521 43.2723 48.7898 43.6923 48.3713 44.0476C47.0324 45.1845 45.6119 46.2112 44.0389 47.0247C43.9695 47.0607 43.8969 47.0894 43.8251 47.1213C43.812 47.1309 43.7998 47.1397 43.7868 47.1493C43.7721 47.1541 43.7582 47.1581 43.7435 47.1629C43.7313 47.1716 43.719 47.1804 43.706 47.1892C43.555 47.2603 43.4041 47.3313 43.2532 47.4024C43.2401 47.4112 43.2279 47.4199 43.2148 47.4287C42.7881 47.6147 42.3655 47.8104 41.9347 47.986C40.7737 48.4586 39.5727 48.8067 38.3431 49.0558C37.794 49.1676 37.2376 49.2482 36.6852 49.3424C36.6583 49.3536 36.6314 49.3648 36.6044 49.376H35.8628C35.8652 49.3832 35.8669 49.3904 35.8693 49.3975C35.7331 49.4183 35.5968 49.4542 35.4606 49.4574C34.6014 49.4766 33.7415 49.5029 32.8815 49.4965C32.4336 49.4933 31.9849 49.4303 31.5377 49.388C31.16 49.352 30.7822 49.3137 30.4061 49.2626C30.0855 49.2187 29.7648 49.1692 29.4499 49.0973C28.9865 48.9912 28.532 48.8435 28.0661 48.7485C27.1564 48.5632 26.3332 48.1481 25.4634 47.8599C25.0563 47.7249 24.7055 47.491 24.3081 47.3433C24.0071 47.2307 23.7468 47.016 23.449 46.8946C23.0582 46.7349 22.7367 46.4747 22.3826 46.2631C22.0179 46.0459 21.6646 45.8072 21.3244 45.5549C20.7769 45.1501 20.2384 44.7326 19.7073 44.3078C19.3956 44.0587 19.0799 43.8073 18.8147 43.5143C18.614 43.2931 18.4622 43.0169 18.3399 42.743C18.2093 42.4524 18.2599 42.1386 18.4712 41.8991C18.791 41.5351 19.1354 41.1902 19.4886 40.8556C19.7758 40.5834 20.0802 40.3271 20.3935 40.0844C20.8226 39.7523 21.2616 39.4313 21.7071 39.1199C21.9681 38.9379 22.2496 38.7838 22.5213 38.6162C22.6331 38.5467 22.7441 38.4748 22.855 38.4046C22.8697 38.3966 22.8836 38.3886 22.8983 38.3798C22.9521 38.3479 23.006 38.3168 23.0598 38.2848C23.0737 38.2776 23.0875 38.2697 23.1014 38.2625C23.1161 38.2569 23.1316 38.2521 23.1463 38.2465L23.1838 38.2178C23.2156 38.1874 23.2483 38.1571 23.2801 38.1268C23.316 38.1156 23.3527 38.1052 23.3886 38.094C23.4 38.0876 23.4123 38.0844 23.4253 38.0844C23.44 38.0765 23.4547 38.0685 23.4694 38.0597C23.5379 38.015 23.6065 37.9703 23.675 37.9264C23.7019 37.916 23.7297 37.9056 23.7566 37.8952C23.8251 37.8657 23.8936 37.8369 23.9622 37.8074C23.9744 37.7986 23.9875 37.7898 23.9997 37.7811C24.0144 37.7763 24.0283 37.7723 24.043 37.7675C24.056 37.7587 24.0691 37.7491 24.0821 37.7403C24.2053 37.6829 24.3277 37.6254 24.4509 37.5679C24.464 37.5591 24.477 37.5503 24.4901 37.5415L24.8572 37.3427L24.8809 37.3867C24.8874 37.3707 24.8931 37.3547 24.8996 37.338C24.9665 37.3076 25.0326 37.2781 25.0995 37.2477C25.155 37.2246 25.2113 37.2014 25.2668 37.1783C25.2962 37.1759 25.3255 37.1735 25.3549 37.1719C25.3933 37.1471 25.4316 37.1216 25.47 37.0968C25.771 36.9883 26.0721 36.8805 26.3731 36.7719C26.4531 36.7336 26.5322 36.6953 26.6122 36.6569C26.777 36.6138 26.9418 36.5731 27.1058 36.5284C27.7398 36.3535 28.3729 36.1779 29.0068 36.0015C29.0248 35.9967 29.0395 35.9799 29.0566 35.9687C29.0852 35.9583 29.1137 35.948 29.1423 35.9384C29.3536 35.8969 29.5649 35.8522 29.7771 35.8138C29.95 35.7827 30.1238 35.754 30.2984 35.7332C30.4689 35.7132 30.6411 35.7037 30.8124 35.6901C30.854 35.6661 30.8956 35.6422 30.9364 35.619C32.2704 35.4881 33.6101 35.4594 34.9482 35.4945C35.5797 35.5112 36.2079 35.6246 36.8394 35.6837C36.9218 35.6917 37.0108 35.6414 37.0964 35.6174C37.1234 35.6422 37.1511 35.6661 37.178 35.6909C37.5688 35.7691 37.9637 35.8322 38.3505 35.928C39.0032 36.0885 39.651 36.2657 40.2988 36.4422C40.688 36.5476 41.0739 36.6641 41.4615 36.7759C41.4884 36.7998 41.5153 36.8246 41.5422 36.8485C41.787 36.9316 42.0326 37.0154 42.2774 37.0984C42.3043 37.1216 42.3304 37.1447 42.3573 37.1679L42.4813 37.1831C42.5238 37.2046 42.5662 37.2254 42.6086 37.2469C42.771 37.3268 42.9333 37.4066 43.0957 37.4865C43.1087 37.4952 43.1218 37.504 43.134 37.5128C43.1487 37.5176 43.1634 37.5216 43.1781 37.5264L43.2164 37.5599C43.3943 37.6421 43.5714 37.7236 43.7492 37.8058L43.7876 37.8322C43.8014 37.8369 43.8161 37.8409 43.83 37.8457C43.8431 37.8545 43.8561 37.8641 43.8692 37.8729C44.3456 38.1331 44.8221 38.3942 45.2986 38.6545C45.3133 38.6641 45.328 38.6728 45.3435 38.6824C45.6299 38.8756 45.9162 39.0681 46.2026 39.2613C46.2271 39.2684 46.2516 39.2764 46.276 39.2836H46.2769C46.2883 39.2972 46.2997 39.31 46.3111 39.3227C46.3821 39.3682 46.4531 39.4145 46.5241 39.4601C46.529 39.472 46.5379 39.4792 46.551 39.4816C46.9769 39.801 47.4028 40.1211 47.8279 40.4405L47.9397 40.561C47.9756 40.6001 48.0114 40.6385 48.071 40.7031C48.5198 40.3095 48.8273 39.8121 49.1945 39.3643C49.2002 39.3371 49.2067 39.31 49.2124 39.2828C49.2165 39.27 49.2206 39.2573 49.2247 39.2445C49.2622 39.2173 49.2997 39.191 49.3373 39.1639C49.4597 39.001 49.582 38.8381 49.7052 38.6752C49.7142 38.6649 49.7232 38.6537 49.7322 38.6433C50.1524 37.8968 50.5831 37.1559 50.987 36.4007C51.1624 36.0717 51.2824 35.7148 51.4276 35.3707C51.4382 35.358 51.4488 35.3452 51.4594 35.3324C51.6797 34.6626 51.9057 33.9951 52.1187 33.3237C52.2255 32.9852 52.3088 32.6395 52.4026 32.2978C52.414 32.257 52.4254 32.2163 52.4369 32.1756C52.4768 31.9497 52.5168 31.7237 52.556 31.4978C52.5682 31.4714 52.5805 31.4451 52.5927 31.4187C52.6082 31.2591 52.6237 31.0994 52.64 30.9389C52.6514 30.9126 52.6629 30.8862 52.6751 30.8599C52.6645 30.6235 52.6441 30.3872 52.649 30.1509C52.6514 30.0248 52.7175 29.901 52.7224 29.7741C52.7493 29.1521 52.7738 28.5294 52.7812 27.9074C52.7844 27.6376 52.7493 27.3669 52.7216 27.0979C52.7126 27.0069 52.6718 26.919 52.6457 26.8272C52.658 26.7402 52.693 26.6364 52.6824 26.5382C52.6539 26.27 52.6041 26.0041 52.569 25.7366C52.5625 25.6895 52.5854 25.6392 52.5943 25.5905C52.5698 25.5498 52.5454 25.5099 52.5217 25.4692C52.4475 25.0971 52.374 24.7251 52.2982 24.3538C52.268 24.2061 52.2304 24.0592 52.175 23.9091C51.6952 25.8029 50.8646 27.5106 49.5021 28.9477C49.4915 28.9597 49.4809 28.9709 49.4703 28.9829C48.9228 29.5825 48.328 30.1309 47.6467 30.5828C47.2812 30.8247 46.8986 31.0427 46.5233 31.271C46.5102 31.2806 46.498 31.2902 46.4849 31.2998C46.4702 31.3046 46.4555 31.3094 46.4409 31.3141C46.4262 31.3221 46.4115 31.3301 46.3968 31.3381C46.2614 31.3668 46.1414 31.3868 46.0264 31.5058C45.9105 31.6255 45.7074 31.6638 45.5417 31.7381C45.5148 31.7628 45.4887 31.7868 45.4618 31.8115C44.8384 32.0008 44.2167 32.1932 43.5918 32.376C43.3307 32.4526 43.0631 32.5101 42.7987 32.5772C42.7889 32.5772 42.7791 32.5772 42.7693 32.5772C42.4446 32.6035 42.1199 32.6371 41.7943 32.6522C41.6312 32.6602 41.4655 32.6339 41.3015 32.6235C41.2738 32.6339 41.2461 32.6443 41.2191 32.6546C40.6758 32.6395 40.1324 32.6243 39.5882 32.6091C39.5621 32.5956 39.536 32.582 39.509 32.5692C39.274 32.5357 39.0391 32.5021 38.8041 32.4694C38.7527 32.4622 38.7013 32.4574 38.6499 32.451C38.6132 32.4303 38.5765 32.4095 38.5397 32.3888C38.2982 32.3321 38.0559 32.2826 37.8169 32.2179C37.5354 32.1421 37.2572 32.0542 36.9773 31.9712C36.9365 31.9473 36.8965 31.9225 36.8557 31.8986C36.828 31.8962 36.8003 31.8946 36.7725 31.8922C36.7595 31.881 36.7464 31.8698 36.7342 31.8586C36.6616 31.8371 36.5889 31.8155 36.5163 31.7948C36.522 31.7844 36.5269 31.7748 36.5326 31.7644C36.5261 31.774 36.5196 31.7828 36.5131 31.7924L36.4967 31.7964L36.487 31.7828C36.4486 31.7541 36.4103 31.7261 36.3719 31.6974C36.0154 31.5217 35.6556 31.3525 35.3039 31.1688C35.0934 31.0595 34.8952 30.9285 34.6912 30.8072C34.6806 30.7984 34.67 30.7904 34.6594 30.7816C34.0727 30.3098 33.4804 29.8443 32.9036 29.3613C32.7167 29.2048 32.5715 29.0012 32.4075 28.8192C32.3969 28.808 32.3855 28.7968 32.3749 28.7849C32.0208 28.309 31.6667 27.8324 31.3126 27.3566C31.2799 27.2999 31.2473 27.244 31.2147 27.1873C31.0613 26.9478 30.8826 26.7194 30.7602 26.4648C30.6125 26.1574 30.5089 25.8293 30.3914 25.5083C30.2845 25.2185 30.185 24.9263 30.0822 24.6357L30.0577 24.5942C29.9924 24.3283 29.9223 24.064 29.8644 23.7974C29.8236 23.6105 29.7999 23.4197 29.7689 23.2313L29.7126 23.1579C29.6865 22.8481 29.6457 22.5391 29.6383 22.2285C29.6261 21.6984 29.6204 21.1675 29.6441 20.6382C29.6506 20.4913 29.7012 20.3483 29.6424 20.2022C29.68 20.1615 29.7183 20.1208 29.7558 20.0801C29.7713 19.9124 29.7648 19.7392 29.8056 19.5771C29.9582 18.9711 30.083 18.354 30.3009 17.7704C30.526 17.166 30.8467 16.5959 31.1257 16.0107C31.16 15.9477 31.1943 15.8838 31.2285 15.8207L32.4972 14.1329L32.5299 14.0994C32.7746 13.8551 33.0202 13.6116 33.265 13.3673C33.278 13.3569 33.2911 13.3457 33.305 13.3353C33.7839 12.9625 34.2628 12.5897 34.7418 12.2168C34.7524 12.2088 34.763 12.2 34.7736 12.1921C34.8234 12.1481 34.8731 12.1034 34.9237 12.0595C34.9833 12.0356 35.0428 12.0124 35.1016 11.9885C35.1277 11.9717 35.1538 11.9541 35.1799 11.9374C35.1938 11.9302 35.2076 11.9222 35.2215 11.915C35.3561 11.8432 35.4899 11.7705 35.6246 11.6987C35.6401 11.6899 35.6556 11.6819 35.6711 11.6731C35.6857 11.6683 35.7004 11.6635 35.7151 11.6587C35.7274 11.65 35.7404 11.6412 35.7527 11.6324C35.7673 11.6276 35.7812 11.6236 35.7959 11.6188C35.809 11.61 35.822 11.6005 35.8342 11.5917C35.8481 11.5877 35.8628 11.5829 35.8767 11.5789C35.8897 11.5701 35.9028 11.5613 35.9158 11.5518C35.9305 11.5478 35.9452 11.543 35.9591 11.539C35.9721 11.5302 35.9844 11.5214 35.9974 11.5126C36.163 11.4424 36.3254 11.3657 36.4935 11.3027C36.8884 11.1534 37.2857 11.0105 37.6822 10.8643C37.719 10.8508 37.754 10.834 37.7891 10.818C37.8177 10.8077 37.8462 10.7973 37.8748 10.7869C38.0673 10.7502 38.2599 10.7135 38.4524 10.6759C38.4777 10.6592 38.5022 10.6432 38.5275 10.6264C38.7764 10.5873 39.0244 10.5442 39.274 10.5107C39.4503 10.4867 39.6281 10.4699 39.806 10.4604C40.1617 10.4404 40.5183 10.4276 40.874 10.4125C41.109 10.4021 41.3448 10.3973 41.5798 10.3789C41.8392 10.359 42.0979 10.3334 42.3549 10.2975C42.5621 10.2688 42.7661 10.2201 42.9717 10.1801C43.0272 10.1594 43.0818 10.1378 43.1373 10.1171C43.3486 10.0556 43.5591 9.99331 43.7704 9.93183C43.7819 9.93583 43.7925 9.93982 43.8039 9.94461C43.7941 9.93902 43.7843 9.93263 43.7753 9.92704C43.7794 9.91507 43.7819 9.89191 43.7868 9.89112C44.335 9.83204 44.7797 9.52705 45.2586 9.30351C45.3867 9.35859 45.3753 9.26598 45.381 9.19253C45.461 9.16299 45.5401 9.13345 45.6201 9.10391C45.6348 9.09513 45.6503 9.08714 45.6649 9.07836C45.6919 9.06 45.7196 9.04164 45.7465 9.02327C45.7743 9.00172 45.802 8.97936 45.8298 8.95781C45.9391 8.88675 46.0492 8.81569 46.1586 8.74544C46.1847 8.72308 46.2116 8.70073 46.2377 8.67837C46.653 8.32469 47.0675 7.971 47.4827 7.61812C47.4942 7.62211 47.5048 7.6253 47.5162 7.6293L47.486 7.61413C47.5366 7.55185 47.588 7.48958 47.6386 7.4281C47.6884 7.37541 47.7381 7.32272 47.7879 7.27082C48.1608 6.85566 48.4904 6.41176 48.7335 5.91117C48.7564 5.89441 48.7784 5.87684 48.8012 5.86008C48.7784 5.83692 48.7555 5.81377 48.7327 5.79142C48.8991 5.6988 49.0256 5.43055 48.9775 5.27326C49.0199 5.25251 49.1325 5.32516 49.0892 5.19183C49.2271 4.82138 49.3748 4.45332 49.5005 4.07888C49.5812 3.83857 49.6359 3.58947 49.6897 3.34118C49.7052 3.27092 49.6791 3.19108 49.6718 3.11603C49.6824 3.10645 49.6922 3.09767 49.7028 3.08809C49.7305 2.99228 49.7542 2.89568 49.786 2.80147C49.8733 2.5388 49.8203 2.27054 49.8276 2.00388C49.8317 1.85618 49.8513 1.70848 49.8635 1.56078C49.866 1.53443 49.8692 1.50809 49.8717 1.48094C50.0185 1.24063 50.1654 0.999517 50.3115 0.759203C50.3351 0.724074 50.3588 0.688147 50.3832 0.653018C50.4167 0.649825 50.4583 0.657808 50.482 0.641042C50.7577 0.442245 51.0751 0.511704 51.3737 0.527672C51.8453 0.55322 52.3471 1.05141 52.3969 1.54481C52.4238 1.81227 52.4295 2.08213 52.4303 2.35118C52.4303 2.52603 52.4042 2.70167 52.3895 2.87652C52.3757 2.90207 52.361 2.92761 52.3471 2.95316C52.2443 3.45934 52.1284 3.96312 52.0411 4.47169C51.9498 5.00022 51.7368 5.48643 51.5516 5.98383C51.5263 6.05089 51.5116 6.12115 51.4912 6.18981C51.4676 6.21775 51.4431 6.2457 51.4194 6.27364C51.2938 6.52513 51.1681 6.77662 51.0425 7.02891C51.0327 7.05606 51.0221 7.0824 51.0123 7.10955C51.0107 7.12312 51.0099 7.13589 51.009 7.14947C50.996 7.16224 50.9821 7.17501 50.9691 7.18779C50.6492 7.70754 50.3172 8.2193 49.9141 8.68316C49.8652 8.73905 49.8293 8.80532 49.7868 8.86679C49.773 8.87717 49.7599 8.88755 49.746 8.89873C49.6571 8.99054 49.569 9.08315 49.4801 9.17497C49.4801 9.16539 49.4792 9.15581 49.4784 9.14543C49.4784 9.15581 49.4784 9.16539 49.4784 9.17577C48.5605 10.1793 47.4942 10.9993 46.2499 11.634C46.4547 11.737 46.6326 11.8264 46.8105 11.9158C46.8243 11.9238 46.839 11.9318 46.8529 11.9398C46.9051 11.9709 46.9581 12.002 47.0103 12.0332C47.0226 12.0428 47.0348 12.0515 47.0471 12.0611C47.4566 12.3453 47.867 12.6288 48.2766 12.913C48.3019 12.9362 48.3264 12.9593 48.3517 12.9833L48.3566 12.9864C48.3672 12.9976 48.3778 13.0088 48.3884 13.02C48.4463 13.0639 48.5043 13.1086 48.5622 13.1525C48.5858 13.1765 48.6087 13.1996 48.6323 13.2236C48.935 13.519 49.2369 13.8144 49.5396 14.1098C49.5772 14.1465 49.6139 14.1832 49.6514 14.2192C49.7493 14.3301 49.848 14.4403 49.9459 14.5513C49.9574 14.572 49.9688 14.5936 49.981 14.6144C50.0642 14.7014 50.1475 14.7892 50.2307 14.8762C50.2543 14.897 50.2788 14.9169 50.3025 14.9377C50.3596 15.0135 50.4175 15.0902 50.4746 15.166C50.4877 15.1828 50.5007 15.1996 50.5146 15.2163C50.6394 15.3656 50.7643 15.5157 50.8891 15.665C50.9013 15.6762 50.9128 15.6866 50.925 15.6978L50.9266 15.701C50.9666 15.7528 51.0066 15.8055 51.0466 15.8574C51.1159 15.9373 51.1853 16.0171 51.2546 16.097L51.3264 16.2159L51.4594 16.4227C51.4717 16.4339 51.4847 16.445 51.4969 16.4554C51.5108 16.4602 51.5255 16.4642 51.5394 16.469C51.5565 16.5177 51.5728 16.5664 51.59 16.6151C51.7091 16.7652 51.8282 16.9145 51.9481 17.0646C51.9742 17.1141 52.0012 17.1628 52.0273 17.2123C52.2321 17.5588 52.4369 17.9045 52.6425 18.251C52.6571 18.2909 52.671 18.3316 52.6857 18.3715C52.9794 18.9144 53.2984 19.4438 53.5383 20.013C53.5383 20.0242 53.5391 20.0354 53.5399 20.0466C53.7309 20.5104 53.9316 20.9703 54.1086 21.4389C54.2481 21.8078 54.3567 22.187 54.479 22.5615C54.4872 22.575 54.4945 22.5878 54.5027 22.6014C54.6161 23.0413 54.7295 23.482 54.8421 23.9219C54.8584 23.9618 54.8739 24.0017 54.8902 24.0417C54.9188 24.2484 54.9449 24.4552 54.9767 24.662C54.9963 24.7874 55.0338 24.9095 55.0461 25.0357C55.1317 25.8604 55.2125 26.6859 55.2949 27.5114C55.3194 27.5522 55.3439 27.5937 55.3684 27.6344L55.3635 27.6272ZM40.4555 30.1764C40.8136 30.1725 41.171 30.1693 41.5292 30.1653C41.6573 30.2539 41.7919 30.1397 41.8931 30.1581C42.1607 30.2052 42.3736 30.0591 42.6151 30.028C42.9276 29.988 43.2328 29.8946 43.5412 29.8236C43.5665 29.8156 43.5918 29.8076 43.617 29.7988C44.0274 29.6399 44.4468 29.501 44.845 29.3182C45.5899 28.9765 46.2646 28.5254 46.8782 27.9873C46.8937 27.9761 46.9092 27.9649 46.9247 27.9545C47.0911 27.7925 47.2584 27.6296 47.4248 27.4675C47.4493 27.442 47.473 27.4164 47.4974 27.3909C47.5635 27.3278 47.6402 27.2719 47.6949 27.2001C47.9813 26.8264 48.2897 26.4648 48.541 26.0696C49.2084 25.0189 49.6359 23.8804 49.7868 22.6437C49.8635 22.0154 49.8937 21.3902 49.8252 20.7611C49.7974 20.5064 49.7697 20.2509 49.742 19.9963C49.733 19.9723 49.724 19.9492 49.715 19.9252C49.7101 19.8821 49.7061 19.8382 49.7012 19.7951L49.6726 19.7248C49.516 19.0869 49.3308 18.4602 49.0411 17.8646C48.6911 17.1436 48.2481 16.4826 47.7136 15.883C47.4534 15.5908 47.1629 15.3257 46.8855 15.0487C46.8594 15.0231 46.8325 14.9968 46.8064 14.9712C46.44 14.6878 46.0745 14.402 45.7057 14.121C45.6331 14.0651 45.5515 14.0156 45.4667 13.9804C45.3092 13.915 45.1436 13.8679 44.9853 13.8048C44.5912 13.6483 44.2061 13.4663 43.8039 13.3337C43.3968 13.1996 42.9741 13.1126 42.558 13.0056C42.5189 12.9952 42.4789 12.9849 42.4397 12.9745C42.0848 12.9449 41.7299 12.9154 41.375 12.8859C41.3472 12.8763 41.3195 12.8667 41.2918 12.8571C41.1033 12.8571 40.9156 12.8571 40.7272 12.8571C40.6994 12.8667 40.6717 12.8771 40.6439 12.8867C40.4938 12.8898 40.3429 12.8922 40.1927 12.8954C40.1528 12.9058 40.1128 12.9162 40.0728 12.9258C40.0043 12.929 39.9349 12.9322 39.8664 12.9362C39.8264 12.9457 39.7864 12.9553 39.7465 12.9657C39.4258 13.0304 39.106 13.1054 38.7829 13.1565C38.2917 13.2347 37.8626 13.5238 37.3567 13.5461C37.3232 13.5477 37.289 13.5836 37.2588 13.6076C37.169 13.6771 37.0907 13.7681 36.9912 13.8168C36.1573 14.2176 35.423 14.7541 34.7711 15.3952C34.4472 15.7129 34.147 16.0562 33.8614 16.4075C33.6362 16.6838 33.3915 16.9664 33.2601 17.2873C33.1296 17.6067 32.9142 17.8821 32.8309 18.2286C32.7004 18.7755 32.5103 19.3081 32.3447 19.847C32.3373 19.8589 32.3292 19.8709 32.3218 19.8829C32.2329 20.2637 32.3014 20.6765 32.0836 21.0326C32.0689 21.0573 32.0762 21.098 32.0803 21.1308C32.1187 21.4278 32.179 21.724 32.1937 22.0218C32.2304 22.7698 32.3594 23.4956 32.6025 24.2085C32.8603 24.9662 33.2014 25.6855 33.6517 26.3426C34.1062 27.0061 34.6577 27.5969 35.2827 28.1222C36.0447 28.7633 36.8957 29.2631 37.825 29.6104C38.6352 29.913 39.4805 30.1262 40.36 30.1541C40.3918 30.1621 40.4236 30.1693 40.4563 30.1772L40.4555 30.1764ZM37.1356 38.2425C36.8802 38.2002 36.6265 38.1483 36.3703 38.1172C36.0031 38.0725 35.6352 38.0333 35.2664 38.0102C34.7654 37.9791 34.2628 37.9375 33.7627 37.9519C33.0684 37.9719 32.3749 38.0373 31.6822 38.0884C31.4358 38.1068 31.1877 38.1252 30.9462 38.1715C30.4591 38.2657 29.9753 38.3751 29.4923 38.486C29.0656 38.5842 28.6381 38.6824 28.2179 38.8022C27.9054 38.8908 27.6011 39.0074 27.2976 39.1247C26.7256 39.3459 26.152 39.5622 25.5907 39.8066C25.2089 39.9726 24.8425 40.1746 24.4786 40.3758C24.2583 40.498 24.056 40.652 23.8439 40.7886C23.3862 41.084 22.9203 41.3666 22.4724 41.6756C22.1566 41.8935 21.8637 42.1442 21.5659 42.3869C21.5357 42.4109 21.5202 42.5059 21.5406 42.5259C21.6116 42.5945 21.7079 42.6368 21.7821 42.7023C21.9298 42.8332 22.0579 42.9857 22.2137 43.1055C22.4144 43.2604 22.6347 43.3913 22.846 43.5334C23.2483 43.8041 23.6456 44.0827 24.0552 44.343C24.2061 44.4388 24.4542 44.4484 24.5358 44.5737C24.6785 44.7933 24.9249 44.7949 25.1061 44.9146C25.4757 45.1589 25.9081 45.3162 26.3226 45.4918C26.7109 45.6571 27.1042 45.8136 27.5048 45.9493C27.9421 46.0978 28.3884 46.2232 28.8331 46.3517C29.1227 46.4355 29.4115 46.5289 29.7077 46.5808C30.4028 46.703 31.0996 46.8132 31.7988 46.9066C32.2574 46.9673 32.72 47.0152 33.1818 47.0247C34.0931 47.0439 35.0061 47.0383 35.9118 46.909C36.6191 46.8076 37.3347 46.7333 38.0298 46.576C40.3771 46.0451 42.5686 45.1485 44.5561 43.7993C44.6761 43.7178 44.8254 43.6779 44.9421 43.5933C45.1191 43.4647 45.2758 43.3107 45.4463 43.1725C45.7253 42.9458 46.0084 42.7238 46.3111 42.4827C45.9856 42.2265 45.6992 41.9893 45.4006 41.7666C44.0381 40.7518 42.5686 39.9207 40.9793 39.2932C40.7639 39.2078 40.5689 39.0696 40.351 38.993C40.1275 38.914 39.8819 38.8964 39.6543 38.8245C38.8563 38.5746 38.0437 38.3918 37.2147 38.2753C37.1878 38.2641 37.1609 38.2529 37.134 38.2417L37.1356 38.2425Z" fill="#1A1A1A"/>
<path id="Vector_2" d="M24.2403 26.5086C24.2436 26.0296 24.2477 25.5505 24.2509 25.0715C24.2615 25.0595 24.2721 25.0468 24.2828 25.0348C24.7021 25.0348 25.1223 25.0348 25.5555 25.0348V30.059H24.286V29.7868C24.113 29.8826 23.9621 29.9951 23.7916 30.0534C23.3567 30.2035 22.9194 30.1916 22.4853 30.0223C22.0072 29.8363 21.6654 29.5129 21.4851 29.0483C21.2835 28.5309 21.2868 28.004 21.4712 27.4739C21.5928 27.1242 21.7763 26.8304 22.0994 26.6308C22.5555 26.3489 23.0589 26.2938 23.5762 26.3689C23.7622 26.396 23.9376 26.4942 24.1179 26.5597C24.1563 26.61 24.1938 26.6595 24.2322 26.7098C24.2501 26.7002 24.2681 26.6906 24.2868 26.6803C24.2713 26.6228 24.2558 26.5661 24.2403 26.5086ZM24.2501 28.2132C24.242 28.115 24.2493 27.9992 24.2207 27.8922C24.1318 27.5585 23.8879 27.3836 23.4897 27.3501C23.2009 27.3254 22.8753 27.5106 22.7758 27.802C22.7138 27.9832 22.6983 28.1876 22.7007 28.3808C22.7048 28.7497 23.0132 29.069 23.3836 29.0978C23.8218 29.1313 24.122 28.9173 24.2248 28.5429C24.2526 28.4431 24.2428 28.3329 24.2509 28.2132H24.2501Z" fill="#1A1A1A"/>
<path id="Vector_3" d="M15.2683 29.7302C14.8954 29.8539 14.5275 29.9984 14.1473 30.0958C13.7467 30.1988 13.333 30.2276 12.9202 30.1429C12.8745 30.1334 12.8263 30.1357 12.779 30.1326C12.7562 30.1126 12.7333 30.0918 12.7105 30.0719C12.5579 30.0359 12.3947 30.0224 12.2544 29.9601C11.7094 29.7174 11.277 29.3589 11.0257 28.8072C10.9123 28.5581 10.829 28.313 10.7736 28.0416C10.5908 27.1402 11.1415 25.9682 11.999 25.5586C12.1891 25.4676 12.4004 25.4173 12.602 25.351C12.7651 25.2975 12.9267 25.2225 13.0948 25.2025C13.2628 25.1826 13.4399 25.2089 13.6104 25.2337C13.9319 25.2792 14.2525 25.3319 14.5715 25.3941C14.6719 25.4133 14.7641 25.4708 14.8595 25.5115C14.8726 25.5203 14.8857 25.5299 14.8987 25.5387C15.0545 25.6456 15.2177 25.7446 15.3638 25.8628C15.5898 26.0448 15.562 26.2756 15.2871 26.373C15.168 26.4153 15.0872 26.4416 15.0594 26.5694C15.0513 26.6077 14.9958 26.6356 14.9623 26.6684C14.822 26.8052 14.6768 26.8134 14.5267 26.6931C14.4891 26.6716 14.4516 26.65 14.4141 26.6284C13.8576 26.1973 13.28 26.2883 12.6958 26.563C12.6811 26.5718 12.6656 26.5813 12.6509 26.5901C12.5848 26.6572 12.5187 26.7235 12.4527 26.7905C12.4151 26.8169 12.3776 26.8432 12.3401 26.8704C12.318 26.9446 12.2976 27.0197 12.2748 27.0939C12.2234 27.2632 12.1924 27.426 12.1883 27.6121C12.1826 27.9186 12.2479 28.1989 12.3605 28.4655C12.4119 28.5877 12.5808 28.6627 12.6966 28.7593C12.7244 28.7817 12.7513 28.804 12.779 28.8256C13.085 29.0843 13.612 29.0875 14.0126 28.9789C14.3284 28.8935 14.2884 28.725 14.2884 28.5214C14.2884 28.2172 14.2884 27.9138 14.2884 27.5937H15.4706C15.4813 27.6057 15.4927 27.6168 15.5033 27.6288C15.5049 28.242 15.5033 28.8551 15.5106 29.4683C15.5123 29.6136 15.4527 29.6863 15.3124 29.7046C15.2977 29.7134 15.283 29.7214 15.2683 29.7302Z" fill="#1A1A1A"/>
<path id="Vector_4" d="M0.636108 18.6263H4.44062V19.6506H1.97662V20.4626H4.14608V21.4677H1.97825V22.334H4.52466V23.3735H0.636108V18.6263Z" fill="#1A1A1A"/>
<path id="Vector_5" d="M5.24768 19.6993H6.48539C6.49192 19.7991 6.49763 19.8949 6.50252 19.9724C6.72526 19.879 6.94392 19.7824 7.16666 19.6969C7.24336 19.6674 7.33147 19.6618 7.41551 19.653C8.0209 19.5907 8.57163 19.6921 8.95918 20.2031C9.14112 20.4426 9.24474 20.7141 9.24148 21.0254C9.2325 21.8023 9.23903 22.5799 9.23903 23.3711H7.92871C7.92871 23.0374 7.92871 22.7068 7.92871 22.3763C7.92871 22.0633 7.95318 21.7488 7.92299 21.439C7.89852 21.1939 7.84467 20.94 7.58195 20.7987C7.3845 20.6925 6.97329 20.7867 6.8044 20.928C6.55637 21.1348 6.57922 21.4079 6.57106 21.6641C6.55148 22.2278 6.56535 22.7931 6.56535 23.3719H5.24931V19.6993H5.24768Z" fill="#1A1A1A"/>
<path id="Vector_6" d="M23.6123 23.4324C23.1219 23.4843 22.6585 23.3438 22.2857 23.0348C22.018 22.8128 21.8239 22.5023 21.615 22.2188C21.5595 22.143 21.5734 22.02 21.5505 21.9194C21.3971 21.2408 21.7268 20.456 22.3175 20.0257C22.6936 19.7518 23.1154 19.6624 23.5658 19.6416C23.8195 19.6297 24.0676 19.6896 24.3148 19.7063C24.7219 19.7343 24.9544 20.0025 25.2465 20.2029C25.5492 20.4105 25.6732 20.7434 25.7614 21.042C25.8495 21.3406 25.7826 21.6959 25.7328 22.0184C25.6447 22.5869 25.2661 22.9693 24.7709 23.2256C24.4208 23.4068 24.0268 23.4723 23.6115 23.4332L23.6123 23.4324ZM24.4625 21.5346C24.4567 21.5346 24.451 21.533 24.4461 21.5322C24.4461 21.5123 24.4437 21.4923 24.4461 21.4723C24.4926 21.1155 24.2462 20.7714 23.8954 20.6883C23.4679 20.5869 23.1187 20.7458 22.9498 21.1482C22.8217 21.4532 22.8486 21.7741 23.0208 22.0647C23.2052 22.3761 23.5079 22.4456 23.844 22.3937C24.1304 22.3498 24.3205 22.1733 24.4062 21.9051C24.4437 21.7877 24.4445 21.6584 24.4625 21.5346Z" fill="#1A1A1A"/>
<path id="Vector_7" d="M13.3055 23.1555C13.0403 23.3208 12.7531 23.4318 12.4366 23.4318C12.0678 23.4318 11.6794 23.4741 11.3351 23.3783C10.8896 23.2537 10.458 23.0302 10.2108 22.6047C10.0754 22.3715 9.94158 22.1272 9.87386 21.8701C9.82246 21.6753 9.85102 21.4502 9.88773 21.2458C9.96524 20.8163 10.1766 20.4418 10.4988 20.144C10.7175 19.942 10.9533 19.7744 11.2805 19.7129C11.5807 19.657 11.8777 19.6203 12.1714 19.6506C12.4317 19.6778 12.7009 19.7201 12.9424 19.8415C12.9547 19.8502 12.9677 19.859 12.98 19.8686C13.4344 20.077 13.72 20.4402 13.8913 20.8841C13.955 21.0486 13.9452 21.2426 13.9582 21.4246C13.968 21.5636 13.9599 21.7033 13.9599 21.8701H11.2046C11.3776 22.2637 11.6917 22.4186 12.0466 22.4705C12.4088 22.5232 12.7295 22.3604 13.0314 22.164C13.2231 22.3604 13.4173 22.548 13.5943 22.7508C13.6262 22.7875 13.6082 22.9017 13.5723 22.9496C13.516 23.0246 13.4238 23.0733 13.3471 23.1332C13.3324 23.1412 13.3186 23.1492 13.3039 23.1571L13.3055 23.1555ZM11.1874 21.174H12.7646C12.665 20.8099 12.3787 20.5776 12.0066 20.5568C11.6215 20.5352 11.3873 20.7061 11.1874 21.174Z" fill="#1A1A1A"/>
<path id="Vector_8" d="M21.4036 22.6055C21.1687 22.8003 20.9565 23.0294 20.6954 23.1763C20.4629 23.3065 20.1814 23.3831 19.913 23.4166C19.3884 23.4813 18.867 23.4502 18.3816 23.1987C18.0707 23.0382 17.8529 22.7979 17.6636 22.5129C17.17 21.7672 17.3495 20.7197 17.9679 20.1672C18.0968 20.0522 18.2339 19.9652 18.3816 19.8742C18.8205 19.6027 19.306 19.6538 19.7678 19.6339C20.068 19.6203 20.4074 19.7449 20.6734 19.8997C20.9206 20.0435 21.0977 20.3061 21.2943 20.5257C21.3122 20.5456 21.2633 20.6654 21.2184 20.6901C20.9541 20.8363 20.6799 20.9648 20.4131 21.1053C20.2932 21.1684 20.2181 21.1149 20.1651 21.0239C19.9146 20.5904 19.2619 20.5792 18.9861 20.8682C18.6908 21.178 18.548 21.9316 19.0889 22.2566C19.4398 22.4674 19.5173 22.4889 19.8746 22.2837C19.9995 22.2119 20.1431 22.1815 20.1855 22.0131C20.1937 21.9803 20.3226 21.9396 20.3683 21.9604C20.6742 22.1001 20.9737 22.2534 21.2715 22.4083C21.3065 22.4266 21.322 22.4817 21.4028 22.6063L21.4036 22.6055Z" fill="#1A1A1A"/>
<path id="Vector_9" d="M15.9163 20.0362C16.2541 19.7328 16.6457 19.5907 17.1173 19.6498V20.7995C16.9664 20.7995 16.8252 20.7923 16.6849 20.8011C16.2778 20.8266 15.9335 21.118 15.9277 21.5308C15.9196 22.1416 15.9253 22.7515 15.9253 23.3743H14.6199V19.7033H15.8568C15.8568 19.8159 15.8568 19.9324 15.8568 20.0498C15.8568 20.0689 15.8584 20.0889 15.8584 20.1081C15.8772 20.0841 15.8967 20.0602 15.9155 20.0362H15.9163Z" fill="#1A1A1A"/>
<path id="Vector_10" d="M17.6376 30.0637H16.337V26.3959H17.5478V26.7983C17.928 26.4263 18.3564 26.3217 18.8353 26.3352V27.4666C18.7431 27.4666 18.6623 27.4674 18.5824 27.4666C17.9598 27.4562 17.6425 27.758 17.6384 28.3719C17.6351 28.8637 17.6384 29.3555 17.6384 29.8473V30.0629L17.6376 30.0637Z" fill="#1A1A1A"/>
<path id="Vector_11" d="M19.3965 26.3937H20.6929V30.0551H19.3965V26.3937Z" fill="#1A1A1A"/>
<path id="Vector_12" d="M20.8156 25.2849C20.8964 25.8422 20.136 26.1296 19.6644 25.9284C19.3894 25.811 19.103 25.328 19.2695 25.0534C19.3462 24.9272 19.4555 24.809 19.5771 24.7252C19.6782 24.655 19.7802 24.5488 19.9532 24.6246C20.0862 24.6829 20.2592 24.6462 20.4003 24.6933C20.7299 24.8035 20.8148 24.9416 20.8148 25.2849H20.8156Z" fill="#1A1A1A"/>
<path id="Vector_13" d="M24.2407 26.5085C24.2562 26.5659 24.2717 26.6224 24.2871 26.6798C24.2692 26.6894 24.2513 26.6989 24.2326 26.7093C24.1944 26.6591 24.1569 26.6097 24.1187 26.5595C24.1594 26.5428 24.2 26.5261 24.2399 26.5085H24.2407Z" fill="#1A1A1A"/>
<path id="Vector_14" d="M54.6768 33.6955C54.6547 33.6062 54.5784 33.5001 54.7482 33.4682C54.7244 33.544 54.7006 33.6197 54.6768 33.6955Z" fill="#1A1A1A"/>
<path id="Vector_15" d="M31.2086 27.1875C31.2411 27.2441 31.2737 27.2998 31.3063 27.3564C31.2477 27.3149 31.084 27.3309 31.2086 27.1875Z" fill="#1A1A1A"/>
<path id="Vector_16" d="M47.7825 7.26825C47.733 7.3207 47.6834 7.37314 47.6339 7.42479C47.6834 7.37235 47.733 7.3199 47.7825 7.26825Z" fill="#1A1A1A"/>
<path id="Vector_17" d="M35.0944 11.9871C35.035 12.011 34.9756 12.0341 34.917 12.0579C34.9764 12.0341 35.0358 12.011 35.0944 11.9871Z" fill="#1A1A1A"/>
<path id="Vector_18" d="M49.6459 14.2126C49.6085 14.1759 49.5719 14.1393 49.5344 14.1035C49.5719 14.1401 49.6085 14.1767 49.6459 14.2126Z" fill="#1A1A1A"/>
<path id="Vector_19" d="M45.3758 9.19098C45.3692 9.26426 45.3806 9.35665 45.2537 9.30169C45.2944 9.26505 45.3351 9.22762 45.3758 9.19098Z" fill="#1A1A1A"/>
<path id="Vector_20" d="M55.207 30.7394C55.2316 30.687 55.2561 30.6337 55.2814 30.5813C55.2569 30.6337 55.2324 30.687 55.207 30.7394Z" fill="#1A1A1A"/>
<path id="Vector_21" d="M49.0843 5.18848C49.1274 5.32149 49.0151 5.24901 48.9728 5.26972C49.0102 5.24264 49.0477 5.21556 49.0843 5.18848Z" fill="#1A1A1A"/>
<path id="Vector_22" d="M48.7279 5.78809C48.7509 5.81119 48.7738 5.83429 48.7968 5.85659C48.7738 5.87331 48.7517 5.89084 48.7287 5.90756C48.7287 5.86774 48.7287 5.82712 48.7287 5.78729L48.7279 5.78809Z" fill="#1A1A1A"/>
<path id="Vector_23" d="M30.9334 35.6199C30.8919 35.6438 30.8504 35.6677 30.8097 35.6908C30.8512 35.6669 30.8927 35.643 30.9334 35.6199Z" fill="#1A1A1A"/>
<path id="Vector_24" d="M12.3396 26.8686C12.377 26.8423 12.4145 26.816 12.4519 26.7889C12.4145 26.8152 12.377 26.8415 12.3396 26.8686Z" fill="#1A1A1A"/>
<path id="Vector_25" d="M52.5155 25.4697C52.5401 25.5103 52.5647 25.5502 52.5885 25.5908C52.5639 25.5502 52.5393 25.5103 52.5155 25.4697Z" fill="#1A1A1A"/>
<path id="Vector_26" d="M49.8685 1.47766C49.8661 1.50407 49.8628 1.53048 49.8603 1.55769C49.8373 1.53848 49.815 1.51847 49.7812 1.48967C49.8208 1.48406 49.8447 1.48086 49.8685 1.47766Z" fill="#1A1A1A"/>
<path id="Vector_27" d="M50.3794 0.649963C50.3556 0.68501 50.3318 0.720853 50.3073 0.755899C50.331 0.720853 50.3548 0.68501 50.3794 0.649963Z" fill="#1A1A1A"/>
<path id="Vector_28" d="M49.2084 39.2845C49.2027 39.3117 49.1961 39.3389 49.1903 39.3661C49.1961 39.3389 49.2018 39.3117 49.2084 39.2845Z" fill="#1A1A1A"/>
<path id="Vector_29" d="M15.9165 20.0363C15.8975 20.0603 15.8778 20.0843 15.8588 20.1083C15.8588 20.0891 15.8572 20.0691 15.8572 20.0499C15.8769 20.0459 15.8967 20.0411 15.9165 20.0371V20.0363Z" fill="#1A1A1A"/>
<path id="Vector_30" d="M46.2721 39.2861C46.2474 39.2789 46.2227 39.2709 46.198 39.2637C46.2153 39.2477 46.2334 39.2317 46.2507 39.2149C46.2581 39.2389 46.2647 39.2621 46.2721 39.2861Z" fill="#1A1A1A"/>
<path id="Vector_31" d="M12.7096 30.0717L12.7783 30.132C12.7554 30.1122 12.7325 30.0915 12.7096 30.0717Z" fill="#1A1A1A"/>
<path id="Vector_32" d="M39.5033 32.5692C39.5296 32.5828 39.556 32.5964 39.5832 32.6092C39.5568 32.5956 39.5305 32.582 39.5033 32.5692Z" fill="#1A1A1A"/>
<path id="Vector_33" d="M49.9745 14.6084C49.963 14.5877 49.9516 14.5663 49.9393 14.5456C49.9622 14.5496 49.9843 14.5527 50.0072 14.5567C49.9966 14.5742 49.9851 14.5917 49.9745 14.6092V14.6084Z" fill="#1A1A1A"/>
<path id="Vector_34" d="M41.2129 32.6556C41.2409 32.6452 41.2689 32.6348 41.2961 32.6244C41.2681 32.6348 41.2401 32.6452 41.2129 32.6556Z" fill="#1A1A1A"/>
<path id="Vector_35" d="M12.7787 28.825C12.7507 28.8026 12.7236 28.7802 12.6956 28.7586C12.7236 28.781 12.7507 28.8034 12.7787 28.825Z" fill="#1A1A1A"/>
<path id="Vector_36" d="M52.6705 30.8607C52.659 30.8871 52.6475 30.9135 52.6351 30.9399C52.6467 30.9135 52.6582 30.8871 52.6705 30.8607Z" fill="#1A1A1A"/>
<path id="Vector_37" d="M48.3469 12.9778C48.3214 12.9546 48.2966 12.9314 48.2711 12.9073C48.2966 12.9306 48.3214 12.9538 48.3469 12.9778Z" fill="#1A1A1A"/>
<path id="Vector_38" d="M29.1383 35.9393C29.1095 35.9497 29.0807 35.9601 29.0519 35.9697C29.0807 35.9593 29.1095 35.9489 29.1383 35.9393Z" fill="#1A1A1A"/>
<path id="Vector_39" d="M24.8969 37.3377C24.8901 37.3541 24.8842 37.3705 24.8775 37.3878C24.8691 37.373 24.8615 37.3574 24.853 37.3426C24.8674 37.341 24.8817 37.3393 24.8969 37.3377Z" fill="#1A1A1A"/>
<path id="Vector_40" d="M50.9641 7.18398C50.9773 7.17118 50.9913 7.15837 51.0045 7.14557C51.0119 7.15277 51.0201 7.15997 51.0275 7.16718C51.0061 7.17278 50.9855 7.17838 50.9641 7.18398Z" fill="#1A1A1A"/>
<path id="Vector_41" d="M50.5102 15.2105C50.4969 15.1936 50.4837 15.1767 50.4696 15.1598C50.4829 15.1767 50.4961 15.1936 50.5102 15.2105Z" fill="#1A1A1A"/>
<path id="Vector_42" d="M35.8296 11.5909C35.8161 11.5999 35.8026 11.6098 35.7899 11.6188C35.8034 11.6098 35.8169 11.5999 35.8296 11.5909Z" fill="#1A1A1A"/>
<path id="Vector_43" d="M36.7285 31.8587L36.7682 31.8932C36.7547 31.8817 36.7412 31.8702 36.7285 31.8587Z" fill="#1A1A1A"/>
<path id="Vector_44" d="M35.9109 11.5508C35.8974 11.5598 35.8839 11.5688 35.8704 11.5787C35.8839 11.5697 35.8974 11.5606 35.9109 11.5508Z" fill="#1A1A1A"/>
<path id="Vector_45" d="M42.7643 32.5781C42.7743 32.5781 42.7843 32.5781 42.7944 32.5781C42.791 32.5895 42.7877 32.6001 42.7852 32.6114C42.7785 32.6009 42.771 32.5895 42.7643 32.5789V32.5781Z" fill="#1A1A1A"/>
<path id="Vector_46" d="M32.3688 28.7857C32.3797 28.7971 32.3914 28.8086 32.4024 28.8208C32.3914 28.8094 32.3797 28.7979 32.3688 28.7857Z" fill="#1A1A1A"/>
<path id="Vector_47" d="M49.473 9.17274C49.473 9.16198 49.473 9.15205 49.473 9.1413C49.473 9.15123 49.4739 9.16115 49.4747 9.17191L49.4722 9.17274H49.473Z" fill="#1A1A1A"/>
<path id="Vector_48" d="M49.7407 8.89448C49.7549 8.88393 49.7683 8.87337 49.7825 8.862C49.7683 8.87256 49.7549 8.88311 49.7407 8.89448Z" fill="#1A1A1A"/>
<path id="Vector_49" d="M43.132 37.5149C43.1185 37.5059 43.105 37.4969 43.0923 37.4879C43.1058 37.4969 43.1193 37.5059 43.132 37.5149Z" fill="#1A1A1A"/>
<path id="Vector_50" d="M53.2556 37.5288C53.2674 37.5157 53.2801 37.5025 53.2919 37.4902C53.2801 37.5034 53.2674 37.5165 53.2556 37.5288Z" fill="#1A1A1A"/>
<path id="Vector_51" d="M23.4663 38.0612C23.4515 38.0692 23.4367 38.0772 23.4219 38.086C23.4367 38.078 23.4515 38.07 23.4663 38.0612Z" fill="#1A1A1A"/>
<path id="Vector_52" d="M33.3007 13.3337C33.2871 13.3443 33.2736 13.3558 33.2593 13.3665C33.2728 13.3558 33.2863 13.3443 33.3007 13.3337Z" fill="#1A1A1A"/>
<path id="Vector_53" d="M22.8948 38.3813C22.88 38.3893 22.866 38.3973 22.8512 38.4061C22.866 38.3981 22.88 38.3901 22.8948 38.3813Z" fill="#1A1A1A"/>
<path id="Vector_54" d="M45.3394 38.6849C45.3246 38.6753 45.3098 38.6665 45.2942 38.6569C45.309 38.6665 45.3238 38.6753 45.3394 38.6849Z" fill="#1A1A1A"/>
<path id="Vector_55" d="M53.5349 20.0407C53.5349 20.0293 53.5349 20.0179 53.5332 20.0065C53.545 20.0114 53.5559 20.0163 53.5676 20.0212C53.5567 20.0277 53.5458 20.0342 53.534 20.0407H53.5349Z" fill="#1A1A1A"/>
<path id="Vector_56" d="M46.5473 39.4855C46.5333 39.4829 46.5236 39.4752 46.5183 39.4623C46.528 39.4701 46.5377 39.4778 46.5473 39.4855Z" fill="#1A1A1A"/>
<path id="Vector_57" d="M51.3726 40.7158C51.3861 40.7043 51.3996 40.6928 51.4131 40.6821C51.3996 40.6936 51.3861 40.7051 51.3726 40.7158Z" fill="#1A1A1A"/>
<path id="Vector_58" d="M51.4939 16.4499C51.4813 16.4384 51.4677 16.4269 51.4551 16.4163C51.4677 16.4277 51.4813 16.4392 51.4939 16.4499Z" fill="#1A1A1A"/>
<path id="Vector_59" d="M43.7057 47.1915C43.7184 47.1824 43.731 47.1734 43.7445 47.1644C43.7319 47.1734 43.7192 47.1824 43.7057 47.1915Z" fill="#1A1A1A"/>
<path id="Vector_60" d="M12.9828 19.8685C12.9701 19.8595 12.9566 19.8504 12.944 19.8406C12.9566 19.8496 12.9701 19.8586 12.9828 19.8685Z" fill="#1A1A1A"/>
<path id="Vector_61" d="M42.5586 13.0049C42.9747 13.1127 43.3973 13.1989 43.8045 13.333C44.2067 13.4656 44.5918 13.6476 44.9859 13.8041C45.145 13.8671 45.3098 13.915 45.4672 13.9797C45.5521 14.0148 45.6329 14.0643 45.7063 14.1202C46.0751 14.4013 46.4398 14.6863 46.8069 14.9705C46.8331 14.9961 46.86 15.0224 46.8861 15.048C47.1635 15.325 47.454 15.5909 47.7142 15.8823C48.2486 16.4818 48.6917 17.1429 49.0417 17.8639C49.3313 18.4594 49.5165 19.087 49.6732 19.7241C49.683 19.7472 49.6919 19.7704 49.7017 19.7943C49.7066 19.8375 49.7107 19.8814 49.7156 19.9245C49.7246 19.9484 49.7336 19.9716 49.7425 19.9955C49.7703 20.2502 49.798 20.5057 49.8258 20.7604C49.8943 21.3895 49.8641 22.0146 49.7874 22.643C49.6365 23.8797 49.2089 25.0182 48.5415 26.0688C48.2902 26.4648 47.9827 26.8257 47.6955 27.1994C47.6408 27.2712 47.5641 27.3271 47.498 27.3902C47.4735 27.4157 47.4499 27.4413 47.4254 27.4668C47.259 27.6289 47.0917 27.7918 46.9253 27.9538C46.9098 27.965 46.8943 27.9762 46.8787 27.9866C46.2652 28.5247 45.5905 28.9758 44.8455 29.3175C44.4474 29.5003 44.0272 29.6392 43.6176 29.7981C43.5923 29.8061 43.567 29.8141 43.5417 29.8228C43.2333 29.8931 42.9282 29.9865 42.6157 30.0272C42.3742 30.0584 42.1613 30.2045 41.8936 30.1574C41.7917 30.1398 41.6578 30.2532 41.5298 30.1645C41.1699 30.159 40.8101 30.1534 40.4503 30.1486C40.4201 30.1502 40.3908 30.151 40.3606 30.1526C39.481 30.1246 38.635 29.9115 37.8256 29.6089C36.8963 29.2616 36.0461 28.761 35.2833 28.1207C34.6583 27.5953 34.1068 27.0045 33.6523 26.3411C33.2019 25.6832 32.8609 24.9647 32.6031 24.207C32.3607 23.4941 32.231 22.7683 32.1943 22.0202C32.1796 21.7224 32.1192 21.4262 32.0809 21.1292C32.0768 21.0965 32.0687 21.0558 32.0842 21.031C32.302 20.675 32.2335 20.2622 32.3224 19.8814C32.3297 19.8694 32.3379 19.8574 32.3452 19.8454C32.5101 19.3065 32.701 18.774 32.8315 18.2271C32.9139 17.8806 33.1301 17.6052 33.2607 17.2858C33.392 16.9649 33.6368 16.6814 33.862 16.406C34.1484 16.0555 34.4486 15.7114 34.7717 15.3937C35.4244 14.7533 36.1579 14.216 36.9918 13.8152C37.0921 13.7673 37.1696 13.6763 37.2594 13.6061C37.2896 13.5821 37.3238 13.5462 37.3573 13.5446C37.8639 13.5222 38.2931 13.2324 38.7835 13.155C39.1065 13.1039 39.4256 13.0288 39.747 12.9642C39.787 12.9546 39.827 12.945 39.867 12.9346C39.9355 12.9314 40.0048 12.9282 40.0734 12.9243C40.1134 12.9139 40.1533 12.9035 40.1933 12.8939C40.3434 12.8907 40.4944 12.8883 40.6445 12.8851L40.7277 12.8556C40.9162 12.8556 41.1039 12.8556 41.2923 12.8556C41.3201 12.8652 41.3478 12.8748 41.3755 12.8843C41.7305 12.9139 42.0854 12.9434 42.4403 12.973C42.4795 12.9833 42.5194 12.9937 42.5586 13.0041V13.0049Z" fill="white"/>
<path id="Vector_62" d="M37.2161 38.2761C38.045 38.3927 38.8577 38.5755 39.6556 38.8254C39.8832 38.8965 40.128 38.9148 40.3524 38.9939C40.5702 39.0705 40.7652 39.2086 40.9806 39.294C42.57 39.9216 44.0394 40.7527 45.402 41.7674C45.7006 41.9894 45.9869 42.2273 46.3125 42.4836C46.0098 42.7247 45.7267 42.9467 45.4476 43.1734C45.2779 43.3115 45.1205 43.4656 44.9434 43.5941C44.8267 43.6788 44.6774 43.7195 44.5575 43.8001C42.57 45.1494 40.3785 46.0452 38.0312 46.5769C37.336 46.7342 36.6205 46.8084 35.9131 46.9098C35.0075 47.0392 34.0945 47.0448 33.1831 47.0256C32.7213 47.016 32.2579 46.9689 31.8002 46.9074C31.101 46.814 30.4034 46.703 29.7091 46.5817C29.4129 46.5298 29.1241 46.4364 28.8344 46.3526C28.3898 46.224 27.9435 46.0995 27.5061 45.9502C27.1064 45.8144 26.7131 45.658 26.3239 45.4927C25.9094 45.3171 25.477 45.1598 25.1074 44.9155C24.9263 44.7957 24.6807 44.7941 24.5371 44.5746C24.4555 44.4492 24.2075 44.4396 24.0566 44.3438C23.647 44.0835 23.2496 43.8049 22.8474 43.5343C22.6361 43.3922 22.4166 43.2612 22.2151 43.1063C22.0592 42.9866 21.9312 42.8333 21.7835 42.7031C21.7092 42.6377 21.613 42.5946 21.542 42.5267C21.5216 42.5067 21.5371 42.4125 21.5673 42.3878C21.8651 42.1451 22.158 41.8944 22.4737 41.6764C22.9208 41.3674 23.3875 41.0848 23.8452 40.7894C24.0574 40.6521 24.2597 40.4988 24.48 40.3767C24.8439 40.1747 25.2102 39.9735 25.5921 39.8074C26.1534 39.5631 26.727 39.3467 27.2989 39.1256C27.6016 39.0082 27.9068 38.8925 28.2192 38.803C28.6394 38.6833 29.067 38.5851 29.4937 38.4869C29.9767 38.3759 30.4605 38.2665 30.9476 38.1723C31.1891 38.126 31.4371 38.1076 31.6835 38.0893C32.377 38.0382 33.0697 37.9727 33.764 37.9528C34.2642 37.9384 34.7668 37.9799 35.2677 38.011C35.6365 38.0342 36.0045 38.0733 36.3716 38.118C36.6278 38.1492 36.8824 38.2011 37.137 38.2434C37.1639 38.2546 37.1908 38.2657 37.2177 38.2769L37.2161 38.2761Z" fill="white"/>
<path id="Vector_63" d="M40.4492 30.1484C40.809 30.154 41.1688 30.1596 41.5286 30.1644C41.1704 30.1684 40.8131 30.1716 40.4549 30.1756C40.45 30.1668 40.4484 30.158 40.4492 30.1484Z" fill="#1A1A1A"/>
<path id="Vector_64" d="M40.1924 12.8947C40.1525 12.905 40.1126 12.9154 40.0728 12.9249C40.1126 12.9146 40.1525 12.9042 40.1924 12.8947Z" fill="#1A1A1A"/>
<path id="Vector_65" d="M39.8671 12.9354C39.8272 12.945 39.7873 12.9545 39.7474 12.9649C39.7873 12.9553 39.8272 12.9458 39.8671 12.9354Z" fill="#1A1A1A"/>
<path id="Vector_66" d="M40.7282 12.8563L40.6442 12.8859C40.6722 12.8763 40.7002 12.8659 40.7282 12.8563Z" fill="#1A1A1A"/>
<path id="Vector_67" d="M43.5406 29.823C43.5662 29.815 43.5917 29.807 43.6172 29.7982C43.5917 29.8062 43.5662 29.8142 43.5406 29.823Z" fill="#1A1A1A"/>
<path id="Vector_68" d="M49.7001 19.7947C49.6903 19.7716 49.6813 19.7486 49.6715 19.7247C49.6813 19.7478 49.6903 19.7708 49.7001 19.7947Z" fill="#1A1A1A"/>
<path id="Vector_69" d="M40.4497 30.1484C40.4497 30.158 40.4513 30.1676 40.4554 30.1755C40.4234 30.1676 40.3915 30.1604 40.3595 30.1524C40.3898 30.1508 40.4193 30.15 40.4497 30.1484Z" fill="#1A1A1A"/>
<path id="Vector_70" d="M36.5068 31.7924C36.5136 31.7825 36.5205 31.7734 36.5273 31.7634C36.5213 31.7742 36.5162 31.7841 36.5102 31.7949L36.5068 31.7924Z" fill="#1A1A1A"/>
<path id="Vector_71" d="M46.8785 27.9873C46.8942 27.9762 46.9098 27.965 46.9254 27.9546C46.9098 27.9658 46.8942 27.977 46.8785 27.9873Z" fill="#1A1A1A"/>
<path id="Vector_72" d="M43.7695 9.92548C43.7796 9.93116 43.7896 9.93766 43.7988 9.94334C43.7879 9.93928 43.7762 9.93522 43.7645 9.93035L43.7687 9.92548H43.7695Z" fill="#1A1A1A"/>
<path id="Vector_73" d="M47.4814 7.61237L47.5123 7.6278C47.5006 7.62374 47.4897 7.62049 47.478 7.61643L47.4814 7.61237Z" fill="#1A1A1A"/>
</g>
</g>
</g>
<defs>
<clipPath id="clip0_262_1000">
<rect width="55" height="49" fill="white" transform="translate(0.5 0.5)"/>
</clipPath>
</defs>
</svg>
