<svg width="192" height="99" viewBox="0 0 192 99" fill="none" xmlns="http://www.w3.org/2000/svg">
<path id="Vector 23" d="M2 62.0079C52.1704 84.2762 102.465 86.6439 123.289 65.3343C129.602 56.7725 130.806 42.3622 131.138 31.8665C131.373 24.4136 131.839 16.4621 130.169 9.19142C129.129 4.66217 127.026 2.71793 122.65 2.1318C120.919 1.89993 119.611 1.90392 118.023 2.72736C115.427 4.07385 115.016 6.75231 115.016 9.48194C115.016 11.9125 114.629 17.4077 117.358 18.7786C121.382 20.7995 119.998 15.045 118.862 13.1134C117.867 11.421 116.573 10.4479 114.669 10.092C113.039 9.78731 112.116 11.4843 111.372 12.6486C107.968 17.9804 108.327 24.6761 109.03 30.6753C109.226 32.3541 109.587 35.2392 110.75 36.5874C112.001 38.0367 113.722 37.9158 115.522 37.735C119.539 37.3314 117.022 32.3276 115.334 30.6318C112.603 27.8883 108.59 29.8036 106.687 32.5347C105.52 34.2107 104.535 37.3123 104.143 39.3183C103.601 42.0878 103.788 44.8857 103.825 47.6852C103.859 50.2942 103.734 57.2707 108.394 55.9941C109.981 55.5592 109.666 50.6551 108.885 49.6463C108.053 48.5718 106.009 48.7725 104.866 49.1378C102.654 49.8449 100.957 51.1333 99.4001 52.7839C96.904 55.4308 94.1406 57.7472 90.9849 59.5965C86.8874 61.9979 82.5169 63.3948 78.0585 64.9421C71.846 67.0982 64.5079 66.5605 58.1339 65.3343C52.6696 64.2831 46.9835 63.9832 41.4337 63.6348C37.4869 63.3869 33.3471 63.005 29.4038 63.5186C28.0199 63.6988 25.6812 63.905 25.7457 65.7846C25.8084 67.6113 26.6419 69.2144 27.3386 70.862C27.4948 71.2314 27.682 71.584 27.9164 71.9094C34.4078 80.9196 45.5713 91.9822 49.5 91C52.7411 89.7846 52.3742 86.3593 53.1252 84.766C53.4396 84.0992 54.2812 84.0414 55.0112 84.1436C71.3003 86.425 81.0484 95.7366 86.705 96.5C96.4777 97.8188 105.558 94.9188 114.611 91.2632C118.891 89.5346 121.793 87.0431 124.111 83.1141C125.382 80.9592 126.366 78.6429 127.39 76.358C127.545 76.0112 127.733 75.6832 127.986 75.3995C133.537 69.1704 153.629 65.7846 156.447 65.7846C158.01 65.7846 161.404 65.9269 164.32 66.0669C166.464 66.1698 168.362 64.4918 166.683 63.1545C166.055 62.654 165.32 62.2637 164.726 62.0079C162.603 61.094 160.568 60.8263 158.616 59.6317C158.309 59.4435 158.035 59.197 157.787 58.9358C149.668 50.4064 142.439 50.5227 138.5 52C134 54 133.105 55.6608 130.256 56.7059C128.5 57.3499 126.91 58.3181 125.166 58.9865C123.371 59.6746 121.501 60.1414 119.701 60.8167C116.982 61.8365 114.088 62.3272 111.285 63.1118C109.741 63.5442 108.082 63.3733 106.485 63.3733C105.118 63.3733 103.758 62.4556 102.465 62.0079C99.3219 60.9189 97.0279 58.4533 95.1347 55.8198C92.8617 52.658 90.5604 49.6163 89.1197 45.9421C88.2146 43.6339 87.5445 41.2393 86.705 38.9116C85.7904 36.3754 84.7146 33.9469 84.0446 31.329C83.0756 27.5433 81.4996 23.9204 80.5597 20.1273C80.4908 19.8489 80.3983 19.5644 80.2834 19.3016C68.5217 -7.61406 41.8305 4.42887 54.7528 20.1577C54.9078 20.3463 55.0856 20.5278 55.2702 20.6876C61.9572 26.4757 73.5341 33.8736 70.5993 20.7377C70.5093 20.3348 70.3562 19.9283 70.1554 19.5675C67.804 15.3446 65.4552 13.5303 62.0002 13C59.2618 12.5797 54.8966 13.44 52.5238 15.1616C50.0074 16.9875 49.361 20.2045 49.0392 23.0492C48.4966 27.8465 51.2181 33.5586 53.8974 37.5171C55.4522 39.8141 57.5749 42.2316 59.8835 43.7778C62.4919 45.5248 68.6428 46.5811 68.5734 41.7005C68.5148 37.5789 64.6035 34.6999 61.4017 32.8397C57.9617 30.8411 53.0948 30.6923 49.2272 30.9513C47.8886 31.041 46.2105 32.3103 46.0606 33.7403C45.6457 37.7002 48.5132 41.3156 50.7309 44.2862C54.0141 48.684 57.5213 53.0618 61.3294 57.0109C64.1285 59.9137 67.5861 61.966 70.8579 64.2739C77.0973 68.6751 83.7258 73.0495 90.5222 76.5629C94.4688 78.6031 98.1465 80.833 102.35 82.3442C105.586 83.5079 109.362 84.439 112.789 84.7555C116.101 85.0615 119.569 84.8558 122.838 84.2762C127.144 83.5128 131.099 81.7278 135.273 80.5139C141.246 78.777 147.376 79.1597 153.564 79.3373C158.325 79.474 163.03 79.8457 167.806 79.8457C173.672 79.8457 180.041 79.8027 185.576 77.6378C190.733 75.6208 194.699 71.3056 198.04 66.9757C200.517 63.765 203.045 60.4288 205.096 56.9238C207.317 53.1276 208.761 48.7307 209.983 44.5186C211.694 38.6231 212.539 32.8893 212.499 26.7388C212.465 21.5826 210.599 17.8533 208.19 13.433" stroke="#5080FF" stroke-width="3" stroke-linecap="round"/>
</svg>
