<svg width="130" height="100" viewBox="0 0 130 100" fill="none" xmlns="http://www.w3.org/2000/svg">
<path id="Line 2" d="M8.7988 99.2988L0.164651 77.8795L23.0314 81.1118L8.7988 99.2988ZM125.05 5.00297C123.958 5.16933 122.938 4.41898 122.771 3.32701C122.605 2.23504 123.355 1.21496 124.447 1.0486L125.05 5.00297ZM116.212 2.45311C117.298 2.24762 118.344 2.96083 118.55 4.04612C118.755 5.13141 118.042 6.17779 116.957 6.38328L116.212 2.45311ZM108.935 8.06166C107.858 8.30904 106.785 7.63689 106.538 6.56038C106.29 5.48386 106.962 4.41064 108.039 4.16326L108.935 8.06166ZM99.8886 6.21526C100.954 5.92282 102.054 6.54922 102.347 7.61438C102.639 8.67953 102.013 9.78008 100.948 10.0725L99.8886 6.21526ZM93.0635 12.4284C92.0127 12.7689 90.8849 12.1932 90.5444 11.1424C90.2039 10.0916 90.7796 8.96375 91.8304 8.62324L93.0635 12.4284ZM83.8972 11.4077C84.93 11.0162 86.0847 11.5361 86.4762 12.5689C86.8677 13.6018 86.3478 14.7565 85.315 15.148L83.8972 11.4077ZM77.7273 18.2522C76.7165 18.6976 75.5361 18.2392 75.0907 17.2284C74.6454 16.2176 75.1038 15.0371 76.1146 14.5918L77.7273 18.2522ZM68.5159 18.1963C69.4999 17.6946 70.7044 18.0856 71.2061 19.0696C71.7078 20.0537 71.3168 21.2581 70.3327 21.7598L68.5159 18.1963ZM63.1696 25.6854C62.2176 26.2456 60.9918 25.9279 60.4316 24.9759C59.8715 24.0238 60.1892 22.798 61.1412 22.2379L63.1696 25.6854ZM53.9974 26.7538C54.9114 26.1335 56.1552 26.3716 56.7754 27.2856C57.3956 28.1996 57.1575 29.4433 56.2435 30.0636L53.9974 26.7538ZM49.6302 34.885C48.7605 35.5659 47.5034 35.4129 46.8225 34.5431C46.1415 33.6734 46.2946 32.4164 47.1643 31.7354L49.6302 34.885ZM40.7053 37.1708C41.5245 36.4298 42.7892 36.4932 43.5302 37.3123C44.2712 38.1315 44.2078 39.3962 43.3887 40.1372L40.7053 37.1708ZM37.554 45.8177C36.7917 46.6171 35.5257 46.6471 34.7264 45.8848C33.927 45.1225 33.897 43.8565 34.6593 43.0572L37.554 45.8177ZM29.047 49.4085C29.7462 48.5534 31.0062 48.427 31.8613 49.1262C32.7164 49.8254 32.8427 51.0854 32.1435 51.9405L29.047 49.4085ZM27.2399 58.4348C26.6091 59.3415 25.3627 59.5652 24.456 58.9344C23.5492 58.3036 23.3255 57.0572 23.9563 56.1505L27.2399 58.4348ZM19.401 63.282C19.9583 62.3283 21.1832 62.007 22.1369 62.5644C23.0905 63.1217 23.4118 64.3466 22.8545 65.3002L19.401 63.282ZM19.0243 72.5006C18.5452 73.4959 17.35 73.9143 16.3547 73.4352C15.3595 72.9561 14.9411 71.7609 15.4202 70.7656L19.0243 72.5006ZM12.0622 78.5365C12.4582 77.5054 13.6151 76.9906 14.6463 77.3866C15.6774 77.7826 16.1922 78.9396 15.7962 79.9707L12.0622 78.5365ZM13.204 87.689C12.8986 88.7506 11.7905 89.3635 10.729 89.0581C9.66748 88.7528 9.05451 87.6447 9.3599 86.5831L13.204 87.689ZM7.406 94.8726C7.6016 93.7855 8.64144 93.0627 9.72854 93.2584C10.8157 93.4539 11.5384 94.4938 11.3428 95.5809L7.406 94.8726ZM129.193 4.40854C127.796 4.59681 126.414 4.79505 125.05 5.00297L124.447 1.0486C125.835 0.837168 127.239 0.635658 128.659 0.444336L129.193 4.40854ZM116.957 6.38328C114.212 6.90295 111.539 7.4633 108.935 8.06166L108.039 4.16326C110.694 3.55315 113.418 2.98223 116.212 2.45311L116.957 6.38328ZM100.948 10.0725C98.2386 10.8163 95.6114 11.6028 93.0635 12.4284L91.8304 8.62324C94.4367 7.77863 97.122 6.97482 99.8886 6.21526L100.948 10.0725ZM85.315 15.148C82.6943 16.1414 80.1662 17.1777 77.7273 18.2522L76.1146 14.5918C78.6184 13.4886 81.2116 12.4257 83.8972 11.4077L85.315 15.148ZM70.3327 21.7598C67.842 23.0297 65.4557 24.3403 63.1696 25.6854L61.1412 22.2379C63.4971 20.8517 65.9539 19.5025 68.5159 18.1963L70.3327 21.7598ZM56.2435 30.0636C53.9226 31.6387 51.7201 33.2487 49.6302 34.885L47.1643 31.7354C49.3255 30.0433 51.6013 28.3798 53.9974 26.7538L56.2435 30.0636ZM43.3887 40.1372C41.3151 42.0129 39.373 43.9104 37.554 45.8177L34.6593 43.0572C36.5454 41.0795 38.5579 39.1133 40.7053 37.1708L43.3887 40.1372ZM32.1435 51.9405C30.3662 54.1141 28.7357 56.2846 27.2399 58.4348L23.9563 56.1505C25.5097 53.9176 27.2024 51.6643 29.047 49.4085L32.1435 51.9405ZM22.8545 65.3002C21.4146 67.7641 20.1444 70.1738 19.0243 72.5006L15.4202 70.7656C16.5848 68.3464 17.9049 65.842 19.401 63.282L22.8545 65.3002ZM15.7962 79.9707C14.7212 82.7695 13.8726 85.3648 13.204 87.689L9.3599 86.5831C10.0584 84.1552 10.9431 81.45 12.0622 78.5365L15.7962 79.9707Z" fill="#74A991"/>
</svg>
