<svg width="130" height="100" viewBox="0 0 130 100" fill="none" xmlns="http://www.w3.org/2000/svg">
<path id="Line 3" d="M121.128 99.2988L129.762 77.8795L106.895 81.1118L121.128 99.2988ZM4.87676 5.00297C5.96873 5.16933 6.98881 4.41898 7.15517 3.32701C7.32153 2.23504 6.57118 1.21496 5.47921 1.0486L4.87676 5.00297ZM13.7141 2.45311C12.6288 2.24762 11.5824 2.96083 11.3769 4.04612C11.1714 5.13141 11.8846 6.17779 12.9699 6.38328L13.7141 2.45311ZM20.9918 8.06166C22.0683 8.30904 23.1415 7.63689 23.3889 6.56038C23.6363 5.48386 22.9641 4.41064 21.8876 4.16326L20.9918 8.06166ZM30.0379 6.21526C28.9727 5.92282 27.8722 6.54922 27.5798 7.61438C27.2873 8.67953 27.9137 9.78008 28.9789 10.0725L30.0379 6.21526ZM36.8629 12.4284C37.9137 12.7689 39.0416 12.1932 39.3821 11.1424C39.7226 10.0916 39.1468 8.96375 38.096 8.62324L36.8629 12.4284ZM46.0293 11.4077C44.9964 11.0162 43.8417 11.5361 43.4502 12.5689C43.0587 13.6018 43.5786 14.7565 44.6115 15.148L46.0293 11.4077ZM52.1991 18.2522C53.2099 18.6976 54.3904 18.2392 54.8357 17.2284C55.2811 16.2176 54.8227 15.0371 53.8119 14.5918L52.1991 18.2522ZM61.4106 18.1963C60.4266 17.6946 59.2221 18.0856 58.7204 19.0696C58.2187 20.0537 58.6097 21.2581 59.5937 21.7598L61.4106 18.1963ZM66.7568 25.6854C67.7088 26.2456 68.9347 25.9279 69.4948 24.9759C70.0549 24.0238 69.7373 22.798 68.7852 22.2379L66.7568 25.6854ZM75.929 26.7538C75.015 26.1335 73.7713 26.3716 73.1511 27.2856C72.5308 28.1996 72.7689 29.4433 73.6829 30.0636L75.929 26.7538ZM80.2963 34.885C81.166 35.5659 82.423 35.4129 83.104 34.5431C83.7849 33.6734 83.6319 32.4164 82.7622 31.7354L80.2963 34.885ZM89.2211 37.1708C88.402 36.4298 87.1373 36.4932 86.3963 37.3123C85.6553 38.1315 85.7186 39.3962 86.5378 40.1372L89.2211 37.1708ZM92.3724 45.8177C93.1347 46.6171 94.4007 46.6471 95.2001 45.8848C95.9994 45.1225 96.0294 43.8565 95.2671 43.0572L92.3724 45.8177ZM100.88 49.4085C100.18 48.5534 98.9203 48.427 98.0652 49.1262C97.2101 49.8254 97.0837 51.0854 97.7829 51.9405L100.88 49.4085ZM102.687 58.4348C103.317 59.3415 104.564 59.5652 105.47 58.9344C106.377 58.3036 106.601 57.0572 105.97 56.1505L102.687 58.4348ZM110.525 63.282C109.968 62.3283 108.743 62.007 107.79 62.5644C106.836 63.1217 106.515 64.3466 107.072 65.3002L110.525 63.282ZM110.902 72.5006C111.381 73.4959 112.576 73.9143 113.572 73.4352C114.567 72.9561 114.985 71.7609 114.506 70.7656L110.902 72.5006ZM117.864 78.5365C117.468 77.5054 116.311 76.9906 115.28 77.3866C114.249 77.7826 113.734 78.9396 114.13 79.9707L117.864 78.5365ZM116.722 87.689C117.028 88.7506 118.136 89.3635 119.197 89.0581C120.259 88.7528 120.872 87.6447 120.567 86.5831L116.722 87.689ZM122.52 94.8726C122.325 93.7855 121.285 93.0627 120.198 93.2584C119.111 93.4539 118.388 94.4938 118.584 95.5809L122.52 94.8726ZM0.733037 4.40854C2.13078 4.59681 3.51196 4.79505 4.87676 5.00297L5.47921 1.0486C4.09141 0.837168 2.6874 0.635658 1.26699 0.444336L0.733037 4.40854ZM12.9699 6.38328C15.7146 6.90295 18.3879 7.4633 20.9918 8.06166L21.8876 4.16326C19.2326 3.55315 16.5086 2.98223 13.7141 2.45311L12.9699 6.38328ZM28.9789 10.0725C31.6879 10.8163 34.3151 11.6028 36.8629 12.4284L38.096 8.62324C35.4897 7.77863 32.8044 6.97482 30.0379 6.21526L28.9789 10.0725ZM44.6115 15.148C47.2322 16.1414 49.7603 17.1777 52.1991 18.2522L53.8119 14.5918C51.308 13.4886 48.7149 12.4257 46.0293 11.4077L44.6115 15.148ZM59.5937 21.7598C62.0845 23.0297 64.4707 24.3403 66.7568 25.6854L68.7852 22.2379C66.4294 20.8517 63.9726 19.5025 61.4106 18.1963L59.5937 21.7598ZM73.6829 30.0636C76.0039 31.6387 78.2063 33.2487 80.2963 34.885L82.7622 31.7354C80.6009 30.0433 78.3252 28.3798 75.929 26.7538L73.6829 30.0636ZM86.5378 40.1372C88.6113 42.0129 90.5534 43.9104 92.3724 45.8177L95.2671 43.0572C93.3811 41.0795 91.3685 39.1133 89.2211 37.1708L86.5378 40.1372ZM97.7829 51.9405C99.5602 54.1141 101.191 56.2846 102.687 58.4348L105.97 56.1505C104.417 53.9176 102.724 51.6643 100.88 49.4085L97.7829 51.9405ZM107.072 65.3002C108.512 67.7641 109.782 70.1738 110.902 72.5006L114.506 70.7656C113.342 68.3464 112.022 65.842 110.525 63.282L107.072 65.3002ZM114.13 79.9707C115.205 82.7695 116.054 85.3648 116.722 87.689L120.567 86.5831C119.868 84.1552 118.983 81.45 117.864 78.5365L114.13 79.9707Z" fill="#74A991"/>
</svg>
