<svg width="74" height="26" viewBox="0 0 74 26" fill="none" xmlns="http://www.w3.org/2000/svg">
<g id="mcx 1" clip-path="url(#clip0_262_1194)">
<path id="Vector" d="M64.773 12.2758L72.6442 0.500244H63.6L59.5889 7.40579L55.5013 0.500244H45.5339C49.9124 1.55914 52.2795 4.46505 53.4937 7.13309L46.9092 10.0767C46.2657 8.18714 44.2985 6.5519 41.8388 6.5519C38.3573 6.5519 35.8986 9.24123 35.8986 12.621C35.8986 16.0007 38.3583 18.691 41.8388 18.691C44.2985 18.691 46.2688 17.0558 46.9092 15.1652L53.4937 18.073C52.3097 20.6696 49.9044 23.6615 45.4805 24.7455H55.0553L59.5859 17.3314L64.2021 24.7455H73.208L64.773 12.2758ZM38.1167 0.500244H19.9125L15.4826 9.63767L11.0526 0.500244H0.500244V24.7427H8.14395V9.44138L13.4095 19.0149H17.5617L22.8273 9.44138V24.7427L38.0613 24.7262C32.254 23.3521 28.1392 18.8012 28.1392 12.621C28.1392 6.39138 32.2802 1.85118 38.1177 0.500244" fill="#1A1A1A"/>
</g>
<defs>
<clipPath id="clip0_262_1194">
<rect width="73" height="25" fill="white" transform="translate(0.5 0.5)"/>
</clipPath>
</defs>
</svg>
