<svg width="140" height="52" viewBox="0 0 140 52" fill="none" xmlns="http://www.w3.org/2000/svg">
<g clip-path="url(#clip0_68_655)">
<g clip-path="url(#clip1_68_655)">
<g clip-path="url(#clip2_68_655)">
<path d="M126.269 24.2321C118.812 24.2321 112.746 30.359 112.746 37.8881C112.742 40.5509 113.514 43.1558 114.968 45.3771C108.693 41.6744 104.346 34.9909 103.848 27.2641C117.186 26.4415 127.792 15.2182 127.792 1.5444C127.792 1.34238 127.753 1.14122 127.676 0.954552C127.599 0.767881 127.487 0.598258 127.345 0.455058C127.204 0.312711 127.036 0.198493 126.851 0.120926C126.666 0.0433598 126.467 0.00415039 126.266 0.00415039C112.678 0.00415039 101.54 10.7816 100.79 24.3165C97.2681 24.7095 94.0401 26.4833 91.8018 29.2569V25.7732C91.8018 25.365 91.6415 24.9729 91.3551 24.6839C91.0696 24.3949 90.6826 24.233 90.2769 24.233C89.8728 24.233 89.4833 24.3949 89.1986 24.6839C88.9122 24.9729 88.752 25.3641 88.752 25.7732V37.8898C88.752 38.2981 88.9122 38.6893 89.1986 38.9791C89.4833 39.2672 89.8728 39.4292 90.2769 39.4292C90.6826 39.4292 91.0696 39.2672 91.3551 38.9791C91.6415 38.6893 91.8018 38.2981 91.8018 37.8898C91.8018 32.5624 95.721 28.142 100.801 27.4192C101.638 40.7913 112.622 51.4273 126.046 51.5423C126.119 51.5423 126.194 51.5423 126.268 51.5423C126.292 51.5423 126.321 51.5423 126.344 51.5423C133.764 51.5006 139.788 45.3933 139.788 37.8898C139.789 30.3582 133.723 24.2321 126.269 24.2321ZM124.691 3.13834C123.914 14.3804 114.989 23.3925 103.859 24.1767C104.631 12.9339 113.556 3.92253 124.691 3.13834ZM126.27 48.4618C120.497 48.4618 115.799 43.7192 115.799 37.8881C115.799 32.057 120.497 27.3126 126.27 27.3126C132.043 27.3126 136.743 32.057 136.743 37.8881C136.743 43.7192 132.041 48.4618 126.269 48.4618H126.27Z" fill="#201B55"/>
<path d="M124.691 3.13745C123.914 14.3795 114.989 23.3917 103.859 24.1758C104.631 12.9338 113.556 3.92164 124.691 3.13745Z" fill="#A9E8CB"/>
<path d="M136.743 37.8872C136.743 43.7183 132.043 48.461 126.27 48.461C120.497 48.461 115.799 43.7183 115.799 37.8872C115.799 32.0561 120.497 27.3118 126.27 27.3118C132.043 27.3118 136.743 32.0561 136.743 37.8872Z" fill="#1D71B8"/>
<path d="M5.80299 26.1833C6.7014 25.8193 7.66288 25.642 8.63033 25.6608V29.4172C8.18283 29.3831 7.88279 29.3652 7.72681 29.3652C6.57269 29.3652 5.66917 29.6908 5.01539 30.342C4.36162 30.995 4.0326 31.9735 4.02919 33.2776V39.9023H0V25.8705H3.84763V27.721C4.34372 27.034 5.02136 26.5012 5.80299 26.1833Z" fill="#201B55"/>
<path d="M24.4412 34.0345H13.9263C14.0933 34.8715 14.5749 35.6105 15.2705 36.0972C15.9737 36.595 16.8516 36.8439 17.9043 36.8439C18.5607 36.8567 19.2119 36.7459 19.8281 36.5192C20.412 36.2856 20.9439 35.9344 21.3905 35.4895L23.5351 37.8369C22.2199 39.3482 20.3072 40.1043 17.7995 40.106C16.3598 40.1341 14.9346 39.817 13.6407 39.1794C12.4875 38.6092 11.52 37.7185 10.8526 36.6104C10.1877 35.4827 9.84594 34.1905 9.86554 32.8787C9.84764 31.5737 10.1826 30.2891 10.8347 29.1623C11.4672 28.0678 12.3877 27.1703 13.495 26.5719C14.6499 25.9701 15.9302 25.6522 17.2301 25.6454C18.53 25.6386 19.8136 25.9429 20.9746 26.5327C22.0639 27.1106 22.964 27.9945 23.5692 29.0762C24.2162 30.2516 24.5418 31.5805 24.5128 32.9238C24.5162 32.9869 24.4924 33.3568 24.4412 34.0345ZM15.0122 29.5228C14.3797 30.0658 13.974 30.8295 13.876 31.6615H20.7223C20.6166 30.8347 20.2117 30.0777 19.5861 29.5356C18.9485 28.9986 18.1404 28.7156 17.3111 28.7378C16.4757 28.7122 15.66 28.991 15.0122 29.5228Z" fill="#201B55"/>
<path d="M29.8792 39.1872C28.7524 38.6024 27.808 37.7134 27.1525 36.6181C26.5098 35.4819 26.1714 34.1956 26.1714 32.8872C26.1714 31.5788 26.5098 30.2926 27.1525 29.1564C27.808 28.0611 28.7515 27.172 29.8792 26.5873C31.1024 25.977 32.4483 25.6599 33.8121 25.6599C35.1759 25.6599 36.5218 25.977 37.7441 26.5873C38.8659 27.1737 39.8052 28.0628 40.4572 29.1564C41.0999 30.2926 41.4375 31.5788 41.4375 32.8872C41.4375 34.1956 41.0999 35.4819 40.4572 36.6181C39.8043 37.7108 38.8659 38.599 37.7441 39.1872C36.521 39.7975 35.1759 40.1145 33.8121 40.1145C32.4483 40.1145 31.1024 39.7975 29.8792 39.1872ZM36.3633 35.7171C37.0205 35.0122 37.3495 34.0686 37.3495 32.8864C37.3495 31.7041 37.0205 30.7614 36.3633 30.0573C36.0368 29.7096 35.6413 29.4359 35.2023 29.2535C34.7634 29.072 34.292 28.9859 33.8172 29.0012C33.3399 28.985 32.8651 29.0711 32.4236 29.2535C31.9812 29.4351 31.5823 29.7096 31.2524 30.0573C30.5816 30.7614 30.2458 31.7041 30.244 32.8864C30.2423 34.0695 30.579 35.0122 31.2524 35.7171C31.5823 36.0657 31.9812 36.3394 32.4236 36.5209C32.866 36.7033 33.3407 36.7886 33.8172 36.7732C34.2911 36.7894 34.7634 36.7033 35.2023 36.5209C35.6413 36.3402 36.0368 36.0657 36.3633 35.7171Z" fill="#201B55"/>
<path d="M43.6851 39.3815C43.4482 39.1437 43.2615 38.859 43.1371 38.5453C43.0126 38.2316 42.9538 37.8949 42.9632 37.5574C42.9504 37.2207 43.0075 36.8849 43.132 36.5729C43.2564 36.2609 43.4448 35.9779 43.6851 35.7444C44.1744 35.2994 44.8094 35.0522 45.4675 35.0522C46.1255 35.0522 46.7614 35.2986 47.2498 35.7444C47.4902 35.9771 47.6794 36.2601 47.8038 36.5729C47.9283 36.8849 47.9871 37.2215 47.9743 37.5574C47.9837 37.8949 47.9232 38.2316 47.7987 38.5453C47.6743 38.859 47.4876 39.1437 47.2498 39.3815C46.7716 39.8494 46.1323 40.1094 45.4675 40.1094C44.8026 40.1094 44.1633 39.8494 43.6851 39.3815Z" fill="#201B55"/>
<path d="M62.4539 26.5617C63.5032 27.1524 64.3666 28.0295 64.9454 29.0924C65.5395 30.2678 65.8498 31.5677 65.8498 32.8872C65.8498 34.2067 65.5404 35.5074 64.9454 36.682C64.3658 37.7449 63.5032 38.622 62.4539 39.2135C61.3756 39.8179 60.1593 40.1281 58.9259 40.1145C57.1513 40.1145 55.7568 39.5485 54.7433 38.4183V44.9662H50.7124V25.8704H54.5626V27.478C55.5607 26.2625 57.0157 25.6539 58.9268 25.653C60.1602 25.6411 61.3756 25.9539 62.4539 26.5617ZM60.7747 35.7273C61.4328 35.0224 61.7618 34.0779 61.7618 32.8965C61.7618 31.7134 61.4328 30.7716 60.7747 30.0675C60.0971 29.3907 59.1825 29.0114 58.2295 29.0114C57.2766 29.0114 56.362 29.3907 55.6843 30.0675C55.0271 30.7716 54.6981 31.7143 54.6981 32.8965C54.6981 34.0788 55.0271 35.0224 55.6843 35.7273C56.362 36.4049 57.2766 36.7834 58.2295 36.7834C59.1825 36.7834 60.0971 36.4049 60.7747 35.7273Z" fill="#201B55"/>
<path d="M68.5347 20.5482H72.5604V39.904H68.5347V20.5482Z" fill="#201B55"/>
</g>
</g>
</g>
<defs>
<clipPath id="clip0_68_655">
<rect width="139.79" height="52" fill="white"/>
</clipPath>
<clipPath id="clip1_68_655">
<rect width="139.79" height="52" fill="white"/>
</clipPath>
<clipPath id="clip2_68_655">
<rect width="139.79" height="51.9951" fill="white" transform="translate(0 0.00244141)"/>
</clipPath>
</defs>
</svg>
