<svg width="257" height="235" viewBox="0 0 257 235" fill="none" xmlns="http://www.w3.org/2000/svg">
<g id="Group 6536">
<g id="freepik--background-simple--inject-160">
<path id="Vector" d="M238.774 103.462C236.871 80.7389 229.184 58.8783 216.442 39.955C196.03 9.81937 162.716 -6.45853 126.473 2.41309C92.2027 10.8073 83.5039 47.8586 54.9507 64.2757C33.0378 76.8737 -0.163604 97.4283 5.14862 133.896C6.88173 145.785 14.7637 154.451 25.5741 159.337C40.3554 166.001 61.0266 163.316 74.2075 173.016C89.4802 184.288 102.097 200.201 135.298 212.136C161.56 221.578 191.176 210.279 210.997 192.41C235.447 170.417 241.543 134.95 238.774 103.462Z" fill="#A9E8CB"/>
<path id="Vector_2" opacity="0.7" d="M238.774 103.462C236.871 80.7389 229.184 58.8783 216.442 39.955C196.03 9.81937 162.716 -6.45853 126.473 2.41309C92.2027 10.8073 83.5039 47.8586 54.9507 64.2757C33.0378 76.8737 -0.163604 97.4283 5.14862 133.896C6.88173 145.785 14.7637 154.451 25.5741 159.337C40.3554 166.001 61.0266 163.316 74.2075 173.016C89.4802 184.288 102.097 200.201 135.298 212.136C161.56 221.578 191.176 210.279 210.997 192.41C235.447 170.417 241.543 134.95 238.774 103.462Z" fill="white"/>
</g>
<g id="freepik--Shadow--inject-160">
<path id="Vector_3" d="M248.476 223.09L243.96 218.634C247.719 213.197 246.098 209.192 242.871 205.506C240.926 203.284 235.839 203.623 229.591 204.425L195.061 170.364L189.749 172.353C189.749 172.353 204.118 189.824 217.578 205.89C211.987 206.387 206.363 206.394 201.701 204.843C187.757 200.201 176.468 190.255 176.468 190.255C160.532 191.582 184.437 217.441 193.733 224.734C212.326 239.321 222.207 236.669 235.407 226.843C237.778 229.548 239.491 231.411 240.215 232.028L240.354 232.147C246.304 237.08 253.974 228.52 248.476 223.09Z" fill="#A9E8CB"/>
<path id="Vector_4" opacity="0.5" d="M248.475 223.09L243.96 218.634C247.718 213.197 246.098 209.192 242.871 205.506C240.925 203.284 235.839 203.623 229.59 204.425L195.061 170.364L189.749 172.353C189.749 172.353 204.118 189.825 217.578 205.89C211.987 206.388 206.363 206.394 201.701 204.843C187.757 200.201 176.468 190.256 176.468 190.256C160.532 191.582 183.932 218.137 193.733 224.734C215.646 239.467 222.206 236.669 235.407 226.843C237.778 229.548 239.491 231.411 240.215 232.028L240.354 232.147C246.304 237.08 253.974 228.52 248.475 223.09Z" fill="white"/>
</g>
<g id="freepik--Plants--inject-160">
<path id="Vector_5" d="M37.4935 102.938C37.4935 102.938 54.9575 123.095 55.0504 148.065C55.1434 173.036 37.8388 193.358 37.8388 193.358C37.8388 193.358 20.3749 173.202 20.2819 148.238C20.189 123.274 37.4935 102.938 37.4935 102.938Z" fill="#A9E8CB"/>
<path id="Vector_6" d="M75.8679 160.053C75.8679 160.053 75.9742 176.464 67.1493 186.894C58.3243 197.324 43.9083 197.827 43.9083 197.827C43.9083 197.827 43.7954 181.417 52.627 170.987C61.4585 160.557 75.8679 160.053 75.8679 160.053Z" fill="#A9E8CB"/>
<path id="Vector_7" d="M0.0159454 158.535C0.0159454 158.535 -0.714485 174.926 7.71203 185.773C16.1385 196.621 30.528 197.827 30.528 197.827C30.528 197.827 31.2518 181.437 22.8253 170.589C14.3988 159.742 0.0159454 158.535 0.0159454 158.535Z" fill="#A9E8CB"/>
<g id="Group" opacity="0.5">
<path id="Vector_8" d="M37.4935 102.938C37.4935 102.938 54.9575 123.095 55.0504 148.065C55.1434 173.036 37.8388 193.358 37.8388 193.358C37.8388 193.358 20.3749 173.202 20.2819 148.238C20.189 123.274 37.4935 102.938 37.4935 102.938Z" fill="white"/>
<path id="Vector_9" d="M75.8679 160.053C75.8679 160.053 75.9742 176.464 67.1493 186.894C58.3243 197.324 43.9083 197.827 43.9083 197.827C43.9083 197.827 43.7954 181.417 52.627 170.987C61.4585 160.557 75.8679 160.053 75.8679 160.053Z" fill="white"/>
<path id="Vector_10" d="M0.0159454 158.535C0.0159454 158.535 -0.714485 174.926 7.71203 185.773C16.1385 196.621 30.528 197.827 30.528 197.827C30.528 197.827 31.2518 181.437 22.8253 170.589C14.3988 159.742 0.0159454 158.535 0.0159454 158.535Z" fill="white"/>
</g>
<path id="Vector_11" d="M26.7764 170.291C26.8073 170.233 26.8515 170.184 26.9054 170.147C26.9593 170.11 27.0213 170.086 27.0862 170.077C27.1511 170.069 27.2171 170.076 27.2787 170.098C27.3403 170.12 27.3957 170.157 27.4404 170.205L36.6173 178.393C36.6883 178.449 36.7741 178.482 36.864 178.489C36.9538 178.496 37.0437 178.476 37.1223 178.432C37.201 178.388 37.265 178.322 37.3062 178.242C37.3475 178.162 37.3642 178.072 37.3543 177.982L37.2547 159.092C37.2538 158.949 37.1993 158.812 37.102 158.707L23.3234 144.843C23.2311 144.746 23.1764 144.619 23.1691 144.486C23.1618 144.352 23.2024 144.22 23.2836 144.114C23.3189 144.06 23.3662 144.015 23.4218 143.982C23.4774 143.95 23.5398 143.931 23.6041 143.926C23.6683 143.922 23.7328 143.932 23.7924 143.957C23.852 143.981 23.9051 144.019 23.9476 144.067L36.5176 156.718C36.5844 156.783 36.6699 156.826 36.762 156.839C36.8542 156.853 36.9483 156.838 37.0313 156.795C37.1142 156.753 37.1816 156.685 37.2241 156.603C37.2666 156.52 37.2819 156.426 37.268 156.334L37.1883 135.547C37.1901 135.404 37.1353 135.266 37.0356 135.162L27.8919 126.185C27.7987 126.089 27.7428 125.962 27.7342 125.829C27.7257 125.695 27.7651 125.563 27.8454 125.455C27.8802 125.401 27.9271 125.356 27.9824 125.323C28.0378 125.289 28.1 125.27 28.1643 125.264C28.2286 125.259 28.2932 125.269 28.3531 125.293C28.4129 125.317 28.4665 125.354 28.5095 125.402L36.4048 133.233C36.6969 133.525 37.1551 133.286 37.1551 132.842L37.0223 103.455C37.015 103.327 37.0581 103.202 37.1425 103.105C37.2269 103.008 37.3458 102.948 37.4738 102.938C37.5375 102.942 37.5999 102.958 37.6575 102.985C37.715 103.013 37.7665 103.051 37.8091 103.099C37.8516 103.146 37.8844 103.201 37.9055 103.261C37.9266 103.322 37.9356 103.385 37.932 103.449L38.098 146.958C38.0867 147.059 38.11 147.162 38.1643 147.248C38.2185 147.334 38.3005 147.4 38.3968 147.434C38.4932 147.468 38.5981 147.468 38.6946 147.434C38.7911 147.401 38.8734 147.336 38.9281 147.25L49.1541 130.229C49.1836 130.176 49.2243 130.129 49.2735 130.093C49.3227 130.056 49.3791 130.031 49.439 130.018C49.4989 130.006 49.5609 130.006 49.6206 130.02C49.6803 130.033 49.7363 130.06 49.7849 130.097C49.8862 130.183 49.9537 130.302 49.9755 130.433C49.9974 130.564 49.9722 130.699 49.9045 130.813L38.1844 150.313L38.1113 150.254L38.1777 168.083C38.1662 168.175 38.1834 168.268 38.227 168.35C38.2705 168.432 38.3383 168.499 38.421 168.541C38.5038 168.583 38.5975 168.598 38.6894 168.585C38.7813 168.572 38.867 168.531 38.9347 168.468L51.4052 155.71C51.4464 155.66 51.4989 155.621 51.5584 155.595C51.6179 155.569 51.6826 155.558 51.7473 155.562C51.812 155.566 51.8749 155.585 51.9308 155.618C51.9868 155.65 52.0342 155.696 52.0692 155.75C52.1504 155.857 52.1909 155.989 52.1836 156.122C52.1763 156.256 52.1216 156.383 52.0293 156.48L38.2109 170.622L38.2972 192.848C38.3018 192.911 38.2936 192.975 38.2734 193.036C38.2531 193.096 38.2211 193.152 38.1791 193.2C38.1371 193.248 38.0861 193.288 38.0289 193.316C37.9717 193.344 37.9094 193.361 37.8457 193.365C37.7817 193.363 37.7189 193.347 37.6609 193.32C37.603 193.293 37.5511 193.254 37.5084 193.207C37.4657 193.159 37.4329 193.103 37.4122 193.043C37.3914 192.982 37.383 192.918 37.3875 192.855L37.341 180.628C37.3421 180.552 37.3272 180.477 37.2975 180.407C37.2678 180.338 37.2238 180.275 37.1684 180.223L26.856 171.027C26.756 170.934 26.6929 170.809 26.6782 170.674C26.6636 170.539 26.6984 170.403 26.7764 170.291Z" fill="white"/>
<path id="Vector_12" d="M0.500215 159.616C0.542732 159.567 0.595856 159.53 0.655444 159.505C0.715032 159.481 0.779474 159.47 0.843745 159.475C0.908016 159.479 0.970378 159.498 1.02597 159.531C1.08156 159.564 1.12889 159.608 1.16424 159.662L15.0159 177.26C15.308 177.637 15.8592 177.359 15.7994 176.855L14.6639 166.591C14.6405 166.463 14.6684 166.331 14.7417 166.223C14.8149 166.115 14.9277 166.04 15.0557 166.014C15.1184 166.009 15.1815 166.016 15.2412 166.036C15.301 166.055 15.3561 166.087 15.4033 166.128C15.4505 166.17 15.4887 166.221 15.5157 166.277C15.5427 166.334 15.5579 166.396 15.5604 166.458L17.0478 179.832L22.4131 186.708C22.4714 186.78 22.5504 186.831 22.6394 186.856C22.7284 186.881 22.8228 186.877 22.9097 186.846C22.9965 186.814 23.0714 186.757 23.124 186.681C23.1767 186.605 23.2044 186.515 23.2033 186.423L24.1795 176.61C24.182 176.546 24.1971 176.484 24.224 176.427C24.2508 176.37 24.2888 176.318 24.3358 176.275C24.3828 176.233 24.4378 176.2 24.4976 176.179C24.5574 176.158 24.6208 176.149 24.6841 176.152C24.812 176.176 24.9253 176.25 24.9997 176.356C25.0742 176.463 25.1039 176.594 25.0825 176.722L23.9205 188.366C23.9045 188.51 23.945 188.655 24.0334 188.77L31.2646 197.967C31.3454 198.073 31.3863 198.204 31.3803 198.337C31.3742 198.471 31.3215 198.597 31.2314 198.696C31.1894 198.745 31.1367 198.783 31.0774 198.808C31.0181 198.833 30.9538 198.844 30.8896 198.84C30.8253 198.836 30.7628 198.818 30.7069 198.786C30.6511 198.754 30.6033 198.71 30.5674 198.656L26.6629 193.69C26.6207 193.634 26.5654 193.589 26.5018 193.558C26.4381 193.528 26.368 193.514 26.2977 193.518L19.093 194.015C19.0293 194.015 18.9663 194.002 18.9075 193.978C18.8487 193.954 18.7952 193.918 18.7502 193.873C18.7052 193.828 18.6695 193.775 18.6452 193.716C18.6208 193.657 18.6083 193.594 18.6083 193.531C18.595 193.401 18.6325 193.271 18.713 193.169C18.7935 193.066 18.9106 192.999 19.0399 192.98L24.8103 192.583C24.9005 192.565 24.9846 192.525 25.0545 192.466C25.1244 192.406 25.1777 192.329 25.2092 192.243C25.2406 192.157 25.2491 192.064 25.2339 191.974C25.2187 191.883 25.1803 191.799 25.1224 191.727L19.3387 184.374C19.2985 184.323 19.2471 184.281 19.1885 184.252C19.1298 184.224 19.0654 184.209 19 184.208H8.69432C8.5663 184.198 8.44736 184.138 8.36297 184.042C8.27858 183.945 8.23544 183.819 8.24279 183.691C8.23827 183.628 8.24639 183.564 8.26666 183.503C8.28694 183.443 8.31897 183.387 8.36093 183.339C8.40288 183.291 8.45393 183.251 8.51115 183.223C8.56836 183.195 8.63061 183.178 8.69432 183.174H17.3798C17.4798 183.171 17.5767 183.139 17.6595 183.083C17.7423 183.027 17.8076 182.949 17.8479 182.857C17.8881 182.766 17.9017 182.665 17.887 182.566C17.8723 182.467 17.83 182.375 17.7649 182.299L11.3903 174.19C11.3501 174.136 11.2979 174.093 11.238 174.063C11.1781 174.033 11.112 174.017 11.045 174.017L4.4047 174.11C4.34101 174.107 4.27862 174.091 4.2211 174.063C4.16358 174.036 4.11206 173.997 4.06949 173.95C4.02693 173.902 3.99416 173.847 3.97305 173.787C3.95195 173.727 3.94294 173.663 3.94652 173.6C3.94107 173.536 3.94827 173.472 3.96771 173.411C3.98716 173.35 4.01845 173.294 4.05981 173.245C4.10116 173.196 4.15175 173.156 4.20866 173.127C4.26557 173.098 4.32769 173.081 4.39142 173.076L9.43803 173.009C9.53108 172.996 9.61879 172.957 9.6922 172.899C9.76561 172.84 9.82208 172.763 9.85585 172.675C9.88962 172.587 9.89947 172.492 9.88439 172.4C9.86932 172.307 9.82986 172.22 9.77005 172.147L0.500215 160.345C0.414884 160.243 0.368164 160.114 0.368164 159.98C0.368164 159.847 0.414884 159.718 0.500215 159.616Z" fill="white"/>
<path id="Vector_13" d="M47.4936 183.147C47.5565 183.143 47.6196 183.151 47.6793 183.171C47.739 183.191 47.7942 183.222 47.8418 183.263C47.8893 183.305 47.9281 183.355 47.9561 183.411C47.9842 183.468 48.0007 183.529 48.0049 183.592L48.7819 190.109C48.7827 190.199 48.8106 190.287 48.8621 190.36C48.9135 190.434 48.9861 190.49 49.0701 190.521C49.1542 190.553 49.2459 190.558 49.3331 190.537C49.4203 190.515 49.499 190.468 49.5588 190.401L55.5682 183.3C55.6579 183.188 55.7008 183.045 55.6878 182.902L54.9507 171.206C54.9336 171.078 54.968 170.948 55.0464 170.845C55.1248 170.742 55.2407 170.674 55.369 170.656C55.432 170.654 55.4948 170.665 55.5535 170.688C55.6123 170.71 55.6658 170.745 55.711 170.789C55.7562 170.833 55.7921 170.885 55.8166 170.943C55.8412 171.001 55.8538 171.063 55.8538 171.126L56.5178 180.986C56.5152 181.078 56.5407 181.168 56.5909 181.245C56.6412 181.322 56.7138 181.382 56.799 181.416C56.8842 181.451 56.978 181.459 57.0678 181.439C57.1575 181.419 57.239 181.372 57.3013 181.304L63.9416 173.46C64.0312 173.345 64.0761 173.201 64.0678 173.056L63.4901 165.55C63.4743 165.422 63.5081 165.292 63.5845 165.187C63.6609 165.082 63.7744 165.011 63.9018 164.986C63.9651 164.985 64.0282 164.996 64.0873 165.018C64.1464 165.041 64.2004 165.075 64.2461 165.119C64.2918 165.163 64.3284 165.215 64.3536 165.273C64.3789 165.332 64.3923 165.394 64.3932 165.457L64.8314 171.173C64.8281 171.264 64.853 171.354 64.9029 171.431C64.9528 171.508 65.0252 171.567 65.1102 171.601C65.1952 171.635 65.2886 171.642 65.3778 171.621C65.4669 171.601 65.5474 171.553 65.6083 171.484L75.2699 160.067C75.309 160.016 75.3593 159.975 75.4168 159.946C75.4744 159.918 75.5378 159.903 75.602 159.903C75.6662 159.903 75.7295 159.918 75.7871 159.946C75.8447 159.975 75.8949 160.016 75.934 160.067C76.0193 160.169 76.066 160.298 76.066 160.431C76.066 160.565 76.0193 160.694 75.934 160.796L61.5378 177.817C61.2257 178.181 61.5378 178.778 61.9495 178.678L70.8674 176.616C70.9292 176.606 70.9924 176.609 71.0531 176.624C71.1139 176.639 71.1709 176.666 71.2207 176.704C71.2705 176.742 71.3119 176.789 71.3425 176.844C71.3732 176.898 71.3923 176.959 71.3987 177.021C71.428 177.148 71.408 177.282 71.3427 177.395C71.2774 177.508 71.1717 177.592 71.0467 177.631L59.3797 180.31L53.7554 186.94C53.6924 187.011 53.6496 187.098 53.6316 187.191C53.6135 187.284 53.6208 187.38 53.6526 187.47C53.6845 187.559 53.7398 187.638 53.8128 187.699C53.8858 187.76 53.9737 187.8 54.0675 187.815L62.7397 188.193C62.8035 188.199 62.8655 188.217 62.9221 188.247C62.9787 188.277 63.0288 188.318 63.0696 188.367C63.1103 188.417 63.1409 188.473 63.1595 188.535C63.1781 188.596 63.1844 188.66 63.178 188.724C63.1807 188.787 63.1705 188.851 63.148 188.91C63.1255 188.969 63.0912 189.024 63.0471 189.07C63.0031 189.115 62.9502 189.152 62.8917 189.177C62.8331 189.202 62.7701 189.214 62.7065 189.214L52.4141 188.77C52.3481 188.768 52.2826 188.781 52.2226 188.809C52.1627 188.837 52.11 188.878 52.0688 188.929L44.552 197.814C44.5129 197.865 44.4627 197.906 44.4051 197.935C44.3475 197.963 44.2842 197.978 44.22 197.978C44.1558 197.978 44.0924 197.963 44.0349 197.935C43.9773 197.906 43.927 197.865 43.888 197.814C43.8026 197.712 43.7559 197.583 43.7559 197.449C43.7559 197.316 43.8026 197.187 43.888 197.085L47.9518 192.284C47.9993 192.225 48.0343 192.157 48.0549 192.084C48.0754 192.011 48.081 191.935 48.0713 191.86L47.1019 183.718C47.0836 183.591 47.1138 183.462 47.1864 183.356C47.2589 183.251 47.3686 183.176 47.4936 183.147Z" fill="white"/>
</g>
<g id="freepik--Checklist--inject-160">
<path id="Vector_14" d="M213.122 169.323L114.481 197.045C113.416 197.307 112.295 197.223 111.282 196.805C110.268 196.388 109.414 195.659 108.843 194.724L34.0402 60.2975C33.7865 59.8981 33.6336 59.4431 33.5948 58.9717C33.5559 58.5003 33.6321 58.0265 33.8169 57.591C34.0017 57.1554 34.2895 56.7712 34.6557 56.4711C35.0219 56.1711 35.4555 55.9643 35.9194 55.8683L134.561 28.1462C135.624 27.8835 136.743 27.9662 137.756 28.3824C138.768 28.7985 139.622 29.5264 140.192 30.4602L214.981 164.887C215.235 165.286 215.388 165.74 215.428 166.21C215.468 166.681 215.393 167.154 215.211 167.59C215.028 168.025 214.743 168.41 214.379 168.712C214.016 169.014 213.584 169.223 213.122 169.323Z" fill="#443D78" stroke="black" stroke-width="0.664242" stroke-miterlimit="10"/>
<path id="Vector_15" d="M113.093 191.151C113.093 191.151 170.093 177.611 208.461 164.343L113.093 191.151Z" fill="#884849"/>
<path id="Vector_16" d="M208.46 164.343L113.093 191.15L39.3256 58.5934L134.693 31.7928L208.46 164.343Z" fill="white" stroke="#443D78" stroke-width="0.664242" stroke-miterlimit="10"/>
<path id="Vector_17" d="M106.446 59.8664L113.85 57.7844" stroke="#443D78" stroke-width="0.664242" stroke-miterlimit="10"/>
<path id="Vector_18" d="M55.0901 74.3011L100.715 61.4777" stroke="#443D78" stroke-width="0.664242" stroke-miterlimit="10"/>
<path id="Vector_19" d="M98.3246 68.1016L116.718 62.9298" stroke="#443D78" stroke-width="0.664242" stroke-miterlimit="10"/>
<path id="Vector_20" d="M70.137 76.025L93.3049 69.5138" stroke="#443D78" stroke-width="0.664242" stroke-miterlimit="10"/>
<path id="Vector_21" d="M57.9519 79.4463L65.8339 77.2317" stroke="#443D78" stroke-width="0.664242" stroke-miterlimit="10"/>
<path id="Vector_22" d="M83.7498 78.1534L119.587 68.0817" stroke="#443D78" stroke-width="0.664242" stroke-miterlimit="10"/>
<path id="Vector_23" d="M60.8206 84.5982L75.8675 80.3679" stroke="#443D78" stroke-width="0.664242" stroke-miterlimit="10"/>
<path id="Vector_24" d="M139.654 55.9876C138.711 54.4479 137.302 53.2471 135.632 52.5584C133.961 51.8696 132.114 51.7284 130.358 52.1552C126.925 53.1232 125.537 56.3987 127.25 59.4819C128.191 61.0238 129.599 62.2265 131.271 62.9155C132.942 63.6046 134.79 63.7443 136.547 63.3143C139.946 62.3529 141.367 59.0708 139.654 55.9876Z" fill="white" stroke="#443D78" stroke-width="0.664242" stroke-miterlimit="10"/>
<path id="Vector_25" d="M75.2696 95.174L67.8657 97.2559" stroke="#443D78" stroke-width="0.664242" stroke-miterlimit="10"/>
<path id="Vector_26" d="M126.626 80.7393L81.0002 93.5627" stroke="#443D78" stroke-width="0.664242" stroke-miterlimit="10"/>
<path id="Vector_27" d="M89.1217 97.2361L70.7281 102.408" stroke="#443D78" stroke-width="0.664242" stroke-miterlimit="10"/>
<path id="Vector_28" d="M117.309 89.3125L94.1414 95.8237" stroke="#443D78" stroke-width="0.664242" stroke-miterlimit="10"/>
<path id="Vector_29" d="M129.494 85.8914L121.612 88.1059" stroke="#443D78" stroke-width="0.664242" stroke-miterlimit="10"/>
<path id="Vector_30" d="M109.428 97.4813L73.5968 107.553" stroke="#443D78" stroke-width="0.664242" stroke-miterlimit="10"/>
<path id="Vector_31" d="M132.363 91.0366L117.309 95.2669" stroke="#443D78" stroke-width="0.664242" stroke-miterlimit="10"/>
<path id="Vector_32" d="M152.43 78.9491C151.489 77.4072 150.081 76.2045 148.409 75.5155C146.738 74.8264 144.89 74.6867 143.133 75.1167C139.7 76.0781 138.313 79.3602 140.026 82.4102C140.966 83.9529 142.374 85.1562 144.046 85.8453C145.718 86.5345 147.566 86.6737 149.322 86.2427C152.749 85.3078 154.143 82.0257 152.43 78.9491Z" fill="white" stroke="#443D78" stroke-width="0.664242" stroke-miterlimit="10"/>
<path id="Vector_33" d="M131.998 105.776L139.402 103.694" stroke="#443D78" stroke-width="0.664242" stroke-miterlimit="10"/>
<path id="Vector_34" d="M80.6419 120.211L126.267 107.387" stroke="#443D78" stroke-width="0.664242" stroke-miterlimit="10"/>
<path id="Vector_35" d="M123.876 114.018L142.27 108.846" stroke="#443D78" stroke-width="0.664242" stroke-miterlimit="10"/>
<path id="Vector_36" d="M95.6888 121.941L118.857 115.423" stroke="#443D78" stroke-width="0.664242" stroke-miterlimit="10"/>
<path id="Vector_37" d="M83.5038 125.363L91.3858 123.148" stroke="#443D78" stroke-width="0.664242" stroke-miterlimit="10"/>
<path id="Vector_38" d="M109.302 124.063L145.133 113.998" stroke="#443D78" stroke-width="0.664242" stroke-miterlimit="10"/>
<path id="Vector_39" d="M86.3725 130.514L101.419 126.284" stroke="#443D78" stroke-width="0.664242" stroke-miterlimit="10"/>
<path id="Vector_40" d="M165.617 106.246C166.755 103.356 164.708 99.848 161.046 98.4104C157.384 96.9729 153.493 98.1504 152.355 101.04C151.217 103.93 153.264 107.439 156.926 108.876C160.588 110.314 164.479 109.136 165.617 106.246Z" fill="white" stroke="#443D78" stroke-width="0.664242" stroke-miterlimit="10"/>
<path id="Vector_41" d="M100.821 141.09L93.4175 143.172" stroke="#443D78" stroke-width="0.664242" stroke-miterlimit="10"/>
<path id="Vector_42" d="M152.177 126.656L106.552 139.479" stroke="#443D78" stroke-width="0.664242" stroke-miterlimit="10"/>
<path id="Vector_43" d="M114.673 143.152L96.2799 148.317" stroke="#443D78" stroke-width="0.664242" stroke-miterlimit="10"/>
<path id="Vector_44" d="M142.861 135.229L119.693 141.74" stroke="#443D78" stroke-width="0.664242" stroke-miterlimit="10"/>
<path id="Vector_45" d="M155.046 131.801L147.164 134.015" stroke="#443D78" stroke-width="0.664242" stroke-miterlimit="10"/>
<path id="Vector_46" d="M134.98 143.398L99.1486 153.469" stroke="#443D78" stroke-width="0.664242" stroke-miterlimit="10"/>
<path id="Vector_47" d="M157.908 136.953L142.861 141.183" stroke="#443D78" stroke-width="0.664242" stroke-miterlimit="10"/>
<path id="Vector_48" d="M177.975 124.859C177.034 123.318 175.625 122.115 173.954 121.427C172.283 120.738 170.435 120.597 168.679 121.026C165.246 121.994 163.858 125.27 165.571 128.353C166.512 129.895 167.921 131.098 169.592 131.787C171.264 132.476 173.111 132.615 174.868 132.185C178.301 131.244 179.695 127.929 177.975 124.859Z" fill="white" stroke="#443D78" stroke-width="0.664242" stroke-miterlimit="10"/>
<path id="Vector_49" d="M157.55 151.692L164.954 149.61" stroke="#443D78" stroke-width="0.664242" stroke-miterlimit="10"/>
<path id="Vector_50" d="M106.194 166.127L151.819 153.304" stroke="#443D78" stroke-width="0.664242" stroke-miterlimit="10"/>
<path id="Vector_51" d="M149.428 159.928L167.822 154.762" stroke="#443D78" stroke-width="0.664242" stroke-miterlimit="10"/>
<path id="Vector_52" d="M121.241 167.851L144.409 161.34" stroke="#443D78" stroke-width="0.664242" stroke-miterlimit="10"/>
<path id="Vector_53" d="M109.056 171.279L116.938 169.058" stroke="#443D78" stroke-width="0.664242" stroke-miterlimit="10"/>
<path id="Vector_54" d="M134.853 169.979L170.684 159.908" stroke="#443D78" stroke-width="0.664242" stroke-miterlimit="10"/>
<path id="Vector_55" d="M111.924 176.424L126.971 172.194" stroke="#443D78" stroke-width="0.664242" stroke-miterlimit="10"/>
<path id="Vector_56" d="M191.167 152.158C192.305 149.268 190.258 145.76 186.596 144.322C182.934 142.885 179.042 144.062 177.905 146.952C176.767 149.842 178.813 153.35 182.476 154.788C186.138 156.225 190.029 155.048 191.167 152.158Z" fill="white" stroke="#443D78" stroke-width="0.664242" stroke-miterlimit="10"/>
<path id="Vector_57" d="M102.409 34.0407L89.8719 37.5615C88.9223 37.6012 87.8798 37.5283 87.5876 37.0443C86.9236 35.7977 87.7736 34.6308 88.0392 33.5301C88.3466 32.2615 88.149 30.9232 87.488 29.7971C86.5203 28.213 85.0724 26.978 83.3543 26.271C81.6361 25.564 79.7371 25.4219 77.9327 25.8652C74.4133 26.8598 72.9923 30.2215 74.7453 33.3776C75.6054 34.8354 76.8946 35.9931 78.4373 36.6929C78.4373 36.6929 80.9806 37.8267 81.4919 38.7417C81.7641 39.2257 81.0536 39.7959 80.3298 40.2269L66.8168 44.0262C66.3073 44.1332 65.8313 44.3616 65.4294 44.6921C65.0275 45.0225 64.7116 45.4452 64.5087 45.924C64.3058 46.4028 64.222 46.9234 64.2643 47.4416C64.3066 47.9598 64.4738 48.46 64.7517 48.8996L66.5778 52.1751L110.45 39.849L108.624 36.5669C107.993 35.5394 107.049 34.7402 105.931 34.2858C104.813 33.8313 103.579 33.7455 102.409 34.0407ZM80.0775 29.7574C80.6556 29.6144 81.2643 29.6594 81.8149 29.8861C82.3656 30.1127 82.8293 30.5089 83.1387 31.0171C83.2761 31.2339 83.3588 31.4808 83.3796 31.7365C83.4004 31.9922 83.3588 32.2491 83.2582 32.4852C83.1576 32.7213 83.0011 32.9295 82.8022 33.0919C82.6032 33.2542 82.3678 33.3659 82.1161 33.4174C81.5396 33.5605 80.9325 33.5162 80.3831 33.2908C79.8337 33.0654 79.3707 32.6707 79.0615 32.1642C78.9242 31.9474 78.8415 31.7006 78.8204 31.4449C78.7992 31.1893 78.8403 30.9323 78.9401 30.6959C79.0398 30.4595 79.1954 30.2507 79.3934 30.0873C79.5915 29.9238 79.8262 29.8107 80.0775 29.7574Z" fill="#A9E8CB" stroke="#443D78" stroke-width="0.664242" stroke-miterlimit="10"/>
<path id="Vector_58" d="M129.461 56.3722L134.873 60.1449L140.451 47.6597" stroke="#A9E8CB" stroke-width="3.98545" stroke-linecap="round" stroke-linejoin="round"/>
<path id="Vector_59" d="M142.038 78.9757L147.45 82.7418L153.028 70.2632" stroke="#A9E8CB" stroke-width="3.98545" stroke-linecap="round" stroke-linejoin="round"/>
</g>
<g id="freepik--Character--inject-160">
<path id="Vector_60" d="M230.799 75.8857C230.799 75.8857 232.24 72.8225 231.337 70.4753C230.434 68.1281 213.813 64.342 213.813 64.342C213.813 64.342 210.021 64.342 210.201 66.5102C210.38 68.6784 224.112 76.9732 225.194 77.6892C226.277 78.4053 230.434 80.0364 230.799 75.8857Z" fill="white" stroke="#443D78" stroke-width="0.664242" stroke-linecap="round" stroke-linejoin="round"/>
<path id="Vector_61" d="M215.187 61.3118C214.164 60.9335 213.16 60.5042 212.179 60.0255C210.745 59.3094 212.319 62.6048 212.896 62.744C213.474 62.8833 214.888 63.175 214.888 63.175L215.187 61.3118Z" fill="white" stroke="#443D78" stroke-width="0.664242" stroke-linecap="round" stroke-linejoin="round"/>
<path id="Vector_62" d="M165.584 93.3837L157.277 103.482L157.995 104.927L169.741 102.07L252.419 54.0117C253.245 53.5294 253.965 52.8869 254.538 52.1222C255.111 51.3575 255.525 50.4859 255.755 49.559C255.985 48.6321 256.027 47.6685 255.879 46.7251C255.73 45.7817 255.394 44.8776 254.89 44.066C254.386 43.2622 253.727 42.5664 252.952 42.0193C252.176 41.4722 251.299 41.0846 250.372 40.8791C249.445 40.6736 248.487 40.6543 247.552 40.8224C246.618 40.9905 245.726 41.3425 244.929 41.858L165.584 93.3837Z" fill="#A9E8CB" stroke="#443D78" stroke-width="0.664242" stroke-linecap="round" stroke-linejoin="round"/>
<path id="Vector_63" d="M207.126 74.6659L204.43 76.4031" stroke="#443D78" stroke-width="0.664242" stroke-linecap="round" stroke-linejoin="round"/>
<path id="Vector_64" d="M230.334 59.7603L210.419 72.5571" stroke="#443D78" stroke-width="0.664242" stroke-linecap="round" stroke-linejoin="round"/>
<path id="Vector_65" d="M158.047 103.27C158.047 103.27 155.982 104.132 156.301 105C156.62 105.869 159.581 103.767 159.581 103.767L158.047 103.27Z" fill="#A9E8CB" stroke="#443D78" stroke-width="0.664242" stroke-linecap="round" stroke-linejoin="round"/>
<path id="Vector_66" d="M157.277 103.482L157.995 104.927L169.741 102.07C163.234 99.5434 165.584 93.4102 165.584 93.4102L157.277 103.482Z" fill="white" stroke="#443D78" stroke-width="0.664242" stroke-linecap="round" stroke-linejoin="round"/>
<path id="Vector_67" d="M254.889 44.0196C254.386 43.2158 253.727 42.5201 252.952 41.9729C252.176 41.4258 251.299 41.0382 250.372 40.8327C249.445 40.6272 248.487 40.608 247.552 40.776C246.618 40.9441 245.726 41.2961 244.929 41.8116L230.506 51.1872C230.118 52.1756 229.92 53.2284 229.922 54.2902C229.881 56.4191 230.686 58.4776 232.16 60.0157C233.635 61.5539 235.659 62.4466 237.791 62.4988L252.446 53.9852C253.272 53.5007 253.992 52.8558 254.564 52.0884C255.136 51.3211 255.548 50.447 255.776 49.5179C256.004 48.5888 256.043 47.6235 255.891 46.6791C255.738 45.7347 255.398 44.8303 254.889 44.0196Z" fill="white" stroke="#443D78" stroke-width="0.664242" stroke-linecap="round" stroke-linejoin="round"/>
<path id="Vector_68" d="M254.89 44.0196C254.386 43.2158 253.727 42.5201 252.952 41.9729C252.176 41.4258 251.299 41.0382 250.372 40.8327C249.445 40.6272 248.487 40.608 247.552 40.776C246.618 40.9441 245.726 41.2961 244.929 41.8116L233.973 48.9394C233.443 50.0306 233.168 51.2277 233.169 52.4403C233.155 53.4724 233.345 54.4971 233.728 55.4558C234.111 56.4145 234.68 57.2884 235.401 58.0274C236.123 58.7664 236.983 59.3561 237.933 59.7627C238.884 60.1693 239.905 60.3848 240.938 60.3969C241.118 60.3969 241.303 60.3969 241.476 60.3969L252.446 54.025C253.277 53.5406 254.003 52.8939 254.578 52.1234C255.154 51.3529 255.568 50.4745 255.796 49.5406C256.024 48.6067 256.061 47.6365 255.906 46.6879C255.75 45.7394 255.404 44.8318 254.89 44.0196Z" fill="#443D78" stroke="#443D78" stroke-width="0.664242" stroke-linecap="round" stroke-linejoin="round"/>
<path id="Vector_69" d="M206.017 64.6073C206.017 64.6073 204.41 64.6073 204.41 65.3367C204.41 66.066 203.985 68.6519 204.915 68.579C205.845 68.506 205.765 66.8816 205.845 66.3113C205.924 65.7411 206.017 64.6073 206.017 64.6073Z" fill="white" stroke="#443D78" stroke-width="0.664242" stroke-linecap="round" stroke-linejoin="round"/>
<path id="Vector_70" d="M207.771 61.9683C207.771 61.9683 206.336 61.5241 206.004 62.4059C205.672 63.2878 205.34 67.4783 206.336 67.3656C207.333 67.2529 207.552 63.5133 207.771 61.9683Z" fill="white" stroke="#443D78" stroke-width="0.664242" stroke-linecap="round" stroke-linejoin="round"/>
<path id="Vector_71" d="M209.982 62.1871C209.982 62.1871 208.322 60.755 207.77 61.9683C207.219 63.1817 207.106 66.6097 207.77 66.6097C208.435 66.6097 209.431 65.1775 209.65 64.4084C209.815 63.6771 209.926 62.9347 209.982 62.1871Z" fill="white" stroke="#443D78" stroke-width="0.664242" stroke-linecap="round" stroke-linejoin="round"/>
<path id="Vector_72" d="M212.325 62.8502C212.325 62.8502 210.227 61.0864 209.895 61.418C209.563 61.7495 208.235 65.1443 209.231 65.8272C210.227 66.5102 211.488 63.4602 211.488 63.4602L212.325 62.8502Z" fill="white" stroke="#443D78" stroke-width="0.664242" stroke-linecap="round" stroke-linejoin="round"/>
<path id="Vector_73" d="M182 73.3132C182 73.3132 182.232 76.8472 183.175 77.676C183.745 78.1689 184.259 78.7225 184.709 79.327C184.839 80.2258 184.919 81.1312 184.948 82.0389C184.948 83.0998 185.658 82.9804 186.276 82.9804C186.893 82.9804 187.929 84.9696 188.52 85.9244C189.646 87.3134 190.992 88.5094 192.504 89.4651C193.567 90.0552 195.34 87.8141 195.34 87.8141L196.163 90.1745L204.55 84.7508L200.42 76.7279C200.176 73.9467 199.328 71.252 197.936 68.8309C195.572 64.5874 192.385 62.2004 187.073 63.7586C181.76 65.3168 182 73.3132 182 73.3132Z" fill="white" stroke="#443D78" stroke-width="0.664242" stroke-linecap="round" stroke-linejoin="round"/>
<path id="Vector_74" d="M191.701 57.5989C189.72 57.6854 187.765 58.0768 185.904 58.7592C182.803 59.8532 182.039 64.1631 179.336 65.708C176.634 67.2529 177.789 64.3819 176.435 65.1245C175.08 65.8671 173.732 72.6501 176.627 74.5796C179.522 76.5091 183.779 74.0027 183.779 74.0027C183.779 74.0027 183.394 75.3288 184.549 75.7399C185.248 75.9715 185.96 76.1641 186.68 76.3168C186.68 76.3168 186.481 78.6375 188.221 78.4386C189.961 78.2396 188.42 75.5476 188.42 75.5476C188.42 75.5476 191.707 81.9129 194.224 82.6887C196.74 83.4645 200.406 79.9835 201.369 78.4386C202.332 76.8936 201.561 65.9003 199.436 61.6567C197.312 57.4132 191.701 57.5989 191.701 57.5989Z" fill="#443D78" stroke="#443D78" stroke-width="0.664242" stroke-linecap="round" stroke-linejoin="round"/>
<g id="Vector_75">
<path d="M188.493 79.6784C188.493 79.6784 187.312 75.1962 189.197 75.7863C191.083 76.3764 192.152 80.3879 192.033 80.8587C191.913 81.3294 190.97 81.5615 190.499 81.4488" fill="white"/>
<path d="M188.493 79.6784C188.493 79.6784 187.312 75.1962 189.197 75.7863C191.083 76.3764 192.152 80.3879 192.033 80.8587C191.913 81.3294 190.97 81.5615 190.499 81.4488" stroke="#443D78" stroke-width="0.664242" stroke-linecap="round" stroke-linejoin="round"/>
</g>
<path id="Vector_76" d="M202.139 81.3029C199.937 82.5383 197.833 83.9392 195.844 85.4934C193.852 87.2637 192.065 92.5681 192.065 92.5681C192.065 92.5681 204.23 84.3131 206.355 83.1395C208.48 81.9659 208.952 81.3692 208.952 81.3692C208.952 81.3692 204.503 80.7128 202.139 81.3029Z" fill="white" stroke="#443D78" stroke-width="0.664242" stroke-linecap="round" stroke-linejoin="round"/>
<path id="Vector_77" d="M218.514 74.0822C219.028 73.1735 219.727 72.3828 220.567 71.7615C221.407 71.1401 222.368 70.7019 223.388 70.4753C226.821 69.7525 231.356 72.0997 231.881 75.8857C232.405 79.6718 229.53 81.4819 227.724 81.4819C225.918 81.4819 224.291 78.9557 224.291 78.9557C224.291 78.9557 218.514 76.7875 218.514 74.0822Z" fill="white" stroke="#443D78" stroke-width="0.664242" stroke-linecap="round" stroke-linejoin="round"/>
<path id="Vector_78" d="M170.1 114.31L175.884 98.9731C175.237 99.5508 174.401 99.8716 173.533 99.8749C172.085 99.8749 168.659 99.3378 169.549 98.7941C170.439 98.2504 173.878 95.9099 173.878 95.9099C173.878 95.9099 171.355 96.4536 170.631 95.9099C169.907 95.3662 169.549 94.6434 170.087 94.4644C170.624 94.2854 171.713 94.4644 173.699 93.7417C175.684 93.019 176.587 92.3029 178.214 92.3029C179.841 92.3029 181.289 95.1871 181.289 96.0889C181.289 96.9906 180.02 114.124 180.02 114.847C180.02 115.569 180.02 116.292 175.326 116.836C170.631 117.379 169.921 116.292 170.1 114.31Z" fill="white" stroke="#443D78" stroke-width="0.664242" stroke-linecap="round" stroke-linejoin="round"/>
<path id="Vector_79" d="M175.883 98.9733L176.74 95.605" stroke="#443D78" stroke-width="0.664242" stroke-linecap="round" stroke-linejoin="round"/>
<path id="Vector_80" d="M175.697 110.517C175.697 110.517 169.92 112.141 168.838 114.668C167.755 117.194 167.935 120.98 170.099 123.148C172.264 125.316 173.174 125.853 175.518 124.951C177.862 124.05 178.413 122.604 178.592 121.159C178.772 119.713 180.033 114.847 175.697 110.517Z" fill="white" stroke="#443D78" stroke-width="0.664242" stroke-linecap="round" stroke-linejoin="round"/>
<path id="Vector_81" d="M173.353 187C173.353 187 168.294 184.653 166.308 185.554C164.323 186.456 164.316 187.358 166.846 191.33C169.376 195.301 176.421 200.168 178.799 199.081C181.176 197.993 178.978 190.786 178.978 190.786L173.353 187Z" fill="white" stroke="#443D78" stroke-width="0.664242" stroke-linecap="round" stroke-linejoin="round"/>
<path id="Vector_82" d="M169.741 192.589C167.986 190.649 166.511 188.473 165.359 186.125C164.429 186.947 164.827 188.153 166.846 191.329C169.376 195.308 176.421 200.168 178.798 199.081C179.1 198.887 179.349 198.621 179.522 198.308C179.695 197.994 179.786 197.642 179.788 197.284C176.468 198.683 173.035 196.223 169.741 192.589Z" fill="white" stroke="#443D78" stroke-width="0.664242" stroke-linecap="round" stroke-linejoin="round"/>
<path id="Vector_83" d="M199.364 131.801L199.543 137.218C199.543 137.218 188.527 141.362 183.108 145.175C177.69 148.987 174.077 151.845 173.533 155.452C172.988 159.059 173.354 187.02 173.354 187.02C173.354 187.02 171.727 187.378 172.271 188.459C172.816 189.539 173.891 193.511 175.339 193.869C176.787 194.227 178.593 194.956 178.951 194.055C179.31 193.153 180.399 187.742 181.123 185.939C181.847 184.135 183.108 175.668 184.191 169.701C184.825 166.37 185.187 162.992 185.273 159.603C189.087 159.072 192.84 158.166 196.475 156.897C202.797 154.729 212.007 150.764 212.007 150.764C212.007 150.764 219.417 169.329 221.044 172.95C222.671 176.57 229.012 184.672 230.254 187.02C231.496 189.367 239.464 199.465 239.464 199.465C239.464 199.465 242.539 196.76 244.524 196.76H247.233C247.233 196.76 243.98 187.742 241.257 182.325C238.535 176.908 232.95 168.076 232.95 168.076C232.95 168.076 227.897 136.522 227.711 134.347C227.359 130.183 224.69 123.897 224.69 123.897C224.69 123.897 215.984 122.061 199.364 131.801Z" fill="#443D78" stroke="#443D78" stroke-width="0.664242" stroke-linecap="round" stroke-linejoin="round"/>
<path id="Vector_84" d="M239.464 199.445C239 200.201 238.579 200.983 238.203 201.786C238.023 202.33 234.046 202.873 234.59 204.677C235.135 206.48 239.285 207.919 241.27 208.105C243.256 208.29 247.247 205.578 247.957 204.856C248.382 204.431 249.02 201.627 248.681 199.445C248.46 198.426 247.959 197.489 247.233 196.74C247.233 196.74 243.8 191.509 239.464 199.445Z" fill="white" stroke="#443D78" stroke-width="0.664242" stroke-linecap="round" stroke-linejoin="round"/>
<path id="Vector_85" d="M248.68 199.445C248.496 198.529 248.072 197.679 247.452 196.979C246.704 196.985 245.965 197.142 245.281 197.442C244.596 197.742 243.979 198.177 243.468 198.723C241.662 200.884 242.565 205.758 240.393 206.48C238.78 207.017 235.958 205.048 234.63 204.014C234.556 204.229 234.556 204.462 234.63 204.677C235.167 206.48 239.324 207.919 241.31 208.105C243.295 208.29 247.286 205.579 247.997 204.856C248.382 204.431 249.019 201.627 248.68 199.445Z" fill="white" stroke="#443D78" stroke-width="0.664242" stroke-linecap="round" stroke-linejoin="round"/>
<path id="Vector_86" d="M243.979 200.705C243.262 203.954 244.165 206.116 241.27 208.105C243.262 208.284 247.246 205.579 247.957 204.856C248.382 204.431 249.019 201.627 248.68 199.445C248.603 198.993 248.453 198.557 248.235 198.152H247.957C247.957 198.152 244.703 197.463 243.979 200.705Z" fill="#443D78" stroke="#443D78" stroke-width="0.664242" stroke-linecap="round" stroke-linejoin="round"/>
<path id="Vector_87" d="M213.812 150.379L224.47 145.155" stroke="white" stroke-width="0.664242" stroke-linecap="round" stroke-linejoin="round"/>
<path id="Vector_88" d="M218.694 148.039L227.904 146.773" stroke="white" stroke-width="0.664242" stroke-linecap="round" stroke-linejoin="round"/>
<path id="Vector_89" d="M222.285 72.8225C219.218 73.1806 211.269 78.5911 210.725 79.1348C210.18 79.6785 208.015 80.9383 207.112 81.661C207.112 81.661 188.52 93.2047 186.879 94.259C185.239 95.3132 182.005 97.5079 182.185 98.2373C182.364 98.9666 172.61 114.814 172.61 114.814C172.61 114.814 169.721 118.606 172.43 122.028C175.139 125.449 177.669 123.115 178.931 122.392C180.193 121.669 190.133 112.287 190.133 112.287L199.297 134.168C199.297 134.168 211.986 125.674 225.539 126.211L216.502 90.8575C216.502 90.8575 228.972 81.482 229.331 78.2595C229.689 75.0371 225.373 72.4579 222.285 72.8225Z" fill="white"/>
<g id="Clip path group">
<mask id="mask0_643_6949" style="mask-type:luminance" maskUnits="userSpaceOnUse" x="171" y="72" width="59" height="63">
<g id="freepik--clip-path--inject-160">
<path id="Vector_90" d="M222.285 72.8225C219.218 73.1806 211.269 78.5911 210.725 79.1348C210.18 79.6785 208.015 80.9383 207.112 81.661C207.112 81.661 188.52 93.2047 186.879 94.259C185.239 95.3132 182.005 97.5079 182.185 98.2373C182.364 98.9666 172.61 114.814 172.61 114.814C172.61 114.814 169.721 118.606 172.43 122.028C175.139 125.449 177.669 123.115 178.931 122.392C180.193 121.669 190.133 112.287 190.133 112.287L199.297 134.168C199.297 134.168 211.986 125.674 225.539 126.211L216.502 90.8575C216.502 90.8575 228.972 81.482 229.331 78.2595C229.689 75.0371 225.373 72.4579 222.285 72.8225Z" fill="white"/>
</g>
</mask>
<g mask="url(#mask0_643_6949)">
<g id="Group_2">
<path id="Vector_91" d="M222.285 72.8225C221.057 72.9684 219.045 73.9232 217.033 75.0504C217.491 74.9621 217.966 75.0107 218.397 75.1899C218.828 75.3691 219.196 75.6711 219.457 76.0582C220.951 77.9744 217.75 84.1474 217.75 84.1474C217.75 84.1474 216.422 75.6206 216.475 78.18C216.528 80.7394 215.811 88.6098 215.811 88.6098C215.811 88.6098 211.548 83.5043 211.76 84.7773C211.973 86.0504 214.742 97.972 216.449 102.441C218.155 106.91 215.167 119.462 213.467 123.075C211.767 126.689 212.803 107.759 210.904 112.466C209.005 117.174 202.597 130.123 201.103 131.403C199.609 132.683 201.581 114.051 202.112 111.624C201.448 113.653 197.059 126.51 197.059 126.51L191.083 111.187C191.083 111.187 180.857 102.892 181.919 104.377C182.982 105.862 185.545 110.55 185.545 110.55C185.545 110.55 179.363 109.27 180.432 109.701C181.501 110.132 186.182 112.466 186.182 112.466C186.182 112.466 176.594 119.276 173.825 120.125C173.08 120.343 172.314 120.483 171.54 120.542C171.74 121.098 172.029 121.618 172.397 122.081C175.106 125.509 177.636 123.168 178.898 122.445C180.159 121.723 190.1 112.34 190.1 112.34L199.263 134.221C199.263 134.221 211.953 125.727 225.506 126.264L216.468 90.9106C216.468 90.9106 228.939 81.535 229.297 78.3126C229.656 75.0902 225.373 72.4578 222.285 72.8225Z" fill="#A9E8CB"/>
<path id="Vector_92" opacity="0.5" d="M222.285 72.8225C221.057 72.9684 219.045 73.9232 217.033 75.0504C217.491 74.9621 217.966 75.0107 218.397 75.1899C218.828 75.3691 219.196 75.6711 219.457 76.0582C220.951 77.9744 217.75 84.1474 217.75 84.1474C217.75 84.1474 216.422 75.6206 216.475 78.18C216.528 80.7394 215.811 88.6098 215.811 88.6098C215.811 88.6098 211.548 83.5043 211.76 84.7773C211.973 86.0504 214.742 97.972 216.449 102.441C218.155 106.91 215.167 119.462 213.467 123.075C211.767 126.689 212.803 107.759 210.904 112.466C209.005 117.174 202.597 130.123 201.103 131.403C199.609 132.683 201.581 114.051 202.112 111.624C201.448 113.653 197.059 126.51 197.059 126.51L191.083 111.187C191.083 111.187 180.857 102.892 181.919 104.377C182.982 105.862 185.545 110.55 185.545 110.55C185.545 110.55 179.363 109.27 180.432 109.701C181.501 110.132 186.182 112.466 186.182 112.466C186.182 112.466 176.594 119.276 173.825 120.125C173.08 120.343 172.314 120.483 171.54 120.542C171.74 121.098 172.029 121.618 172.397 122.081C175.106 125.509 177.636 123.168 178.898 122.445C180.159 121.723 190.1 112.34 190.1 112.34L199.263 134.221C199.263 134.221 211.953 125.727 225.506 126.264L216.468 90.9106C216.468 90.9106 228.939 81.535 229.297 78.3126C229.656 75.0902 225.373 72.4578 222.285 72.8225Z" fill="white"/>
</g>
</g>
</g>
<path id="Vector_93" d="M222.285 72.8225C219.218 73.1806 211.269 78.5911 210.725 79.1348C210.18 79.6785 208.015 80.9383 207.112 81.661C207.112 81.661 188.52 93.2047 186.879 94.259C185.239 95.3132 182.005 97.5079 182.185 98.2373C182.364 98.9666 172.61 114.814 172.61 114.814C172.61 114.814 169.721 118.606 172.43 122.028C175.139 125.449 177.669 123.115 178.931 122.392C180.193 121.669 190.133 112.287 190.133 112.287L199.297 134.168C199.297 134.168 211.986 125.674 225.539 126.211L216.502 90.8575C216.502 90.8575 228.972 81.482 229.331 78.2595C229.689 75.0371 225.373 72.4579 222.285 72.8225Z" stroke="#443D78" stroke-width="0.664242" stroke-linecap="round" stroke-linejoin="round"/>
<g id="Vector_94">
<path d="M199.317 134.168C198.788 129.206 199.046 124.191 200.081 119.309L199.317 134.168Z" fill="white"/>
<path d="M199.317 134.168C198.788 129.206 199.046 124.191 200.081 119.309" stroke="#443D78" stroke-width="0.664242" stroke-linecap="round" stroke-linejoin="round"/>
</g>
<g id="Vector_95">
<path d="M197.604 123.115C197.604 123.115 197.604 120.065 201.037 110.517L197.604 123.115Z" fill="white"/>
<path d="M197.604 123.115C197.604 123.115 197.604 120.065 201.037 110.517" stroke="#443D78" stroke-width="0.664242" stroke-linecap="round" stroke-linejoin="round"/>
</g>
<g id="Vector_96">
<path d="M183.108 104.39L190.153 112.32L182.929 107.089" fill="white"/>
<path d="M183.108 104.39L190.153 112.32L182.929 107.089" stroke="#443D78" stroke-width="0.664242" stroke-linecap="round" stroke-linejoin="round"/>
</g>
<g id="Vector_97">
<path d="M216.521 80.7593V90.8575L218.873 77.875" fill="white"/>
<path d="M216.521 80.7593V90.8575L218.873 77.875" stroke="#443D78" stroke-width="0.664242" stroke-linecap="round" stroke-linejoin="round"/>
</g>
<path id="Vector_98" d="M202.219 111.353C202.192 111.426 202.172 111.501 202.159 111.578C202.239 111.352 202.265 111.266 202.219 111.353Z" fill="#443D78"/>
</g>
</g>
</svg>
