<svg width="240" height="235" viewBox="0 0 240 235" fill="none" xmlns="http://www.w3.org/2000/svg">
<g id="Group 6537">
<g id="freepik--background-simple--inject-36">
<path id="Vector" d="M210.047 159.983C210.047 159.983 243.186 121.501 234.674 72.2874C226.161 23.0737 182.254 -2.6927 152.803 0.222989C123.351 3.13868 94.0274 32.0582 65.2505 35.6313C36.4735 39.2044 -6.90454 64.6421 1.86344 113.04C10.6314 161.438 37.2756 166.174 80.4046 167.951C123.534 169.729 184.563 191.892 210.047 159.983Z" fill="#A9E8CB"/>
<path id="Vector_2" opacity="0.7" d="M210.047 159.983C210.047 159.983 243.186 121.501 234.674 72.2874C226.161 23.0737 182.254 -2.6927 152.803 0.222989C123.351 3.13868 94.0274 32.0582 65.2505 35.6313C36.4735 39.2044 -6.90454 64.6421 1.86344 113.04C10.6314 161.438 37.2756 166.174 80.4046 167.951C123.534 169.729 184.563 191.892 210.047 159.983Z" fill="white"/>
</g>
<g id="freepik--Desk--inject-36">
<path id="Vector_3" d="M6.52991 116.869H236.818" stroke="#443D78" stroke-width="0.607621" stroke-linecap="round" stroke-linejoin="round"/>
</g>
<g id="freepik--Plant--inject-36">
<path id="Vector_4" d="M35.1974 138.423C46.003 138.423 54.7628 135.166 54.7628 131.149C54.7628 127.132 46.003 123.875 35.1974 123.875C24.3917 123.875 15.632 127.132 15.632 131.149C15.632 135.166 24.3917 138.423 35.1974 138.423Z" fill="#443D78"/>
<path id="Vector_5" d="M23.774 108.231L26.5023 130.412C26.5023 133.967 33.1253 136.853 41.2978 136.853C49.4704 136.853 56.0934 133.967 56.0934 130.412L58.8216 108.231H23.774Z" fill="white"/>
<g id="Clip path group">
<mask id="mask0_643_6632" style="mask-type:luminance" maskUnits="userSpaceOnUse" x="23" y="108" width="36" height="29">
<g id="freepik--clip-path--inject-36">
<path id="Vector_6" d="M23.774 108.231L26.5023 130.412C26.5023 133.967 33.1253 136.853 41.2978 136.853C49.4704 136.853 56.0934 133.967 56.0934 130.412L58.8216 108.231H23.774Z" fill="white"/>
</g>
</mask>
<g mask="url(#mask0_643_6632)">
<g id="Group">
<path id="Vector_7" d="M38.7337 108.231H23.774L26.5023 130.412C26.5023 133.967 33.1253 136.853 41.2978 136.853C41.8285 136.853 42.3511 136.84 42.8655 136.816C38.2051 128.538 38.1261 116.388 38.7337 108.231Z" fill="#A9E8CB"/>
<path id="Vector_8" opacity="0.4" d="M38.7337 108.231H23.774L26.5023 130.412C26.5023 133.967 33.1253 136.853 41.2978 136.853C41.8285 136.853 42.3511 136.84 42.8655 136.816C38.2051 128.538 38.1261 116.388 38.7337 108.231Z" fill="white"/>
</g>
</g>
</g>
<path id="Vector_9" d="M23.774 108.231L26.5023 130.412C26.5023 133.967 33.1253 136.853 41.2978 136.853C49.4704 136.853 56.0934 133.967 56.0934 130.412L58.8216 108.231H23.774Z" stroke="#443D78" stroke-width="0.607621" stroke-linecap="round" stroke-linejoin="round"/>
<path id="Vector_10" d="M41.2978 115.858C50.976 115.858 58.8216 112.444 58.8216 108.231C58.8216 104.019 50.976 100.604 41.2978 100.604C31.6197 100.604 23.774 104.019 23.774 108.231C23.774 112.444 31.6197 115.858 41.2978 115.858Z" fill="white" stroke="#443D78" stroke-width="0.607621" stroke-linecap="round" stroke-linejoin="round"/>
<path id="Vector_11" d="M41.2977 114.665C49.9456 114.665 56.9561 111.695 56.9561 108.03C56.9561 104.366 49.9456 101.396 41.2977 101.396C32.6498 101.396 25.6393 104.366 25.6393 108.03C25.6393 111.695 32.6498 114.665 41.2977 114.665Z" fill="#443D78" stroke="#443D78" stroke-width="0.607621" stroke-linecap="round" stroke-linejoin="round"/>
<path id="Vector_12" d="M42.489 108.718C42.489 108.718 41.0915 95.8016 32.3843 86.0258C23.6771 76.25 25.8098 77.4492 25.8098 77.4492" stroke="#443D78" stroke-width="0.607621" stroke-linecap="round" stroke-linejoin="round"/>
<path id="Vector_13" d="M58.1777 70.3152C58.1777 70.3152 47.7266 80.791 45.9827 92.6608C44.2389 104.53 45.3751 106.448 45.3751 106.448" stroke="#443D78" stroke-width="0.607621" stroke-linecap="round" stroke-linejoin="round"/>
<path id="Vector_14" d="M44.202 108.006C44.202 108.006 42.1604 100.702 40.0702 86.0258C37.98 71.35 39.0251 63.6864 39.0251 63.6864" stroke="#443D78" stroke-width="0.607621" stroke-linecap="round" stroke-linejoin="round"/>
<path id="Vector_15" d="M26.7154 81.4423C26.7154 81.4423 23.7927 84.6198 19.2963 78.3988C14.7999 72.1779 16.2947 64.9221 16.2947 64.9221C16.2947 64.9221 18.5854 68.4222 22.0549 69.8952C25.5244 71.3683 30.592 79.738 26.7154 81.4423Z" fill="#A9E8CB"/>
<path id="Vector_16" d="M39.001 67.1743C39.001 67.1743 34.8205 68.2212 34.4742 60.5455C34.1278 52.8697 39.3352 47.6288 39.3352 47.6288C39.3352 47.6288 39.3352 51.8167 41.4254 54.9332C43.5156 58.0498 43.1875 67.8743 39.001 67.1743Z" fill="#A9E8CB"/>
<path id="Vector_17" d="M56.2517 74.1926C56.2517 74.1926 52.1806 72.7744 56.0876 66.1638C59.9946 59.5533 67.2314 58.0316 67.2314 58.0316C67.2314 58.0316 64.9406 61.5377 64.971 65.336C65.0014 69.1343 59.3931 77.0718 56.2517 74.1926Z" fill="#A9E8CB"/>
<path id="Vector_18" d="M43.8802 106.971C43.8802 106.971 46.6692 94.4016 52.5935 88.4729C56.1078 84.9477 60.8607 82.9418 65.8336 82.8849C65.8336 82.8849 58.8642 85.6789 56.7739 91.2607C54.6837 96.8425 51.1838 109.065 51.1838 109.065H33.7816C33.7816 109.065 31.6853 104.53 25.761 99.2895C19.8366 94.0486 10.0782 90.5668 10.0782 90.5668C10.0782 90.5668 20.8818 86.7259 28.5499 89.8668C36.2181 93.0077 41.79 106.302 41.79 106.302L43.8802 106.971Z" fill="#A9E8CB"/>
<path id="Vector_19" d="M46.5662 106.941C46.5662 106.941 39.6514 102.187 32.1048 102.978C24.5581 103.77 23.9323 109.911 23.5981 111.695C23.413 112.742 23.3094 113.803 23.2882 114.866C23.2882 114.866 33.0101 111.896 39.0013 110.904C44.9924 109.911 47.508 112.687 46.5662 106.941Z" fill="#A9E8CB"/>
<path id="Vector_20" d="M43.9898 106.941C43.9898 106.941 48.3404 102.187 53.1041 102.978C57.8679 103.77 58.2446 109.911 58.439 111.695C58.559 112.748 58.626 113.806 58.6395 114.866C58.6395 114.866 52.5087 111.896 48.7536 110.904C44.9985 109.911 43.3943 112.687 43.9898 106.941Z" fill="#A9E8CB"/>
</g>
<g id="freepik--Device--inject-36">
<path id="Vector_21" d="M70.0932 30.5059H201.619C202.931 30.5059 204.189 31.0279 205.116 31.9572C206.044 32.8864 206.565 34.1467 206.565 35.4608V127.57H65.1472V35.4547C65.1488 34.1416 65.6706 32.8829 66.598 31.955C67.5254 31.0271 68.7825 30.5059 70.0932 30.5059Z" fill="#443D78" stroke="#443D78" stroke-width="0.607621" stroke-linecap="round" stroke-linejoin="round"/>
<path id="Vector_22" d="M227.771 170.477H43.9352L65.1472 127.57H206.559L227.771 170.477Z" fill="white" stroke="#443D78" stroke-width="0.607621" stroke-linecap="round" stroke-linejoin="round"/>
<path id="Vector_23" d="M197.997 38.1879H73.7145V119.882H197.997V38.1879Z" fill="#949494" stroke="#443D78" stroke-width="0.607621" stroke-linecap="round" stroke-linejoin="round"/>
<path id="Vector_24" d="M174.075 38.4589H101.375V119.769H174.075V38.4589Z" fill="#EDEDED" stroke="#443D78" stroke-width="0.351684" stroke-miterlimit="10"/>
<path id="Vector_25" d="M135.186 82.7019C136.256 82.7019 137.124 81.8328 137.124 80.7607C137.124 79.6886 136.256 78.8195 135.186 78.8195C134.116 78.8195 133.248 79.6886 133.248 80.7607C133.248 81.8328 134.116 82.7019 135.186 82.7019Z" fill="white" stroke="#443D78" stroke-width="0.351684" stroke-linecap="round" stroke-linejoin="round"/>
<path id="Vector_26" d="M143.422 82.7019C144.492 82.7019 145.36 81.8328 145.36 80.7607C145.36 79.6886 144.492 78.8195 143.422 78.8195C142.352 78.8195 141.484 79.6886 141.484 80.7607C141.484 81.8328 142.352 82.7019 143.422 82.7019Z" fill="white" stroke="#443D78" stroke-width="0.351684" stroke-linecap="round" stroke-linejoin="round"/>
<path id="Vector_27" d="M151.659 82.7019C152.729 82.7019 153.597 81.8328 153.597 80.7607C153.597 79.6886 152.729 78.8195 151.659 78.8195C150.589 78.8195 149.721 79.6886 149.721 80.7607C149.721 81.8328 150.589 82.7019 151.659 82.7019Z" fill="white" stroke="#443D78" stroke-width="0.351684" stroke-linecap="round" stroke-linejoin="round"/>
<path id="Vector_28" d="M159.895 82.7019C160.966 82.7019 161.833 81.8328 161.833 80.7607C161.833 79.6886 160.966 78.8195 159.895 78.8195C158.825 78.8195 157.958 79.6886 157.958 80.7607C157.958 81.8328 158.825 82.7019 159.895 82.7019Z" fill="white" stroke="#443D78" stroke-width="0.351684" stroke-linecap="round" stroke-linejoin="round"/>
<path id="Vector_29" d="M174.118 38.3461H101.319V67.2356H174.118V38.3461Z" fill="#A9E8CB" stroke="#443D78" stroke-width="0.351684" stroke-linecap="round" stroke-linejoin="round"/>
<path id="Vector_30" d="M115.355 52.6183H155.183" stroke="#443D78" stroke-width="0.351684" stroke-linecap="round" stroke-linejoin="round"/>
<path id="Vector_31" d="M115.355 56.3773H142.607" stroke="#443D78" stroke-width="0.351684" stroke-linecap="round" stroke-linejoin="round"/>
<path id="Vector_32" d="M115.355 62.483H169.51" stroke="#443D78" stroke-width="0.351684" stroke-linecap="round" stroke-linejoin="round"/>
<path id="Vector_33" d="M114.908 87.0002H166.883" stroke="#443D78" stroke-width="0.351684" stroke-linecap="round" stroke-linejoin="round"/>
<path id="Vector_34" d="M114.908 91.154H166.883" stroke="#443D78" stroke-width="0.351684" stroke-linecap="round" stroke-linejoin="round"/>
<path id="Vector_35" d="M114.908 95.3113H166.883" stroke="#443D78" stroke-width="0.351684" stroke-linecap="round" stroke-linejoin="round"/>
<path id="Vector_36" d="M114.908 107.533H166.883" stroke="#443D78" stroke-width="0.351684" stroke-linecap="round" stroke-linejoin="round"/>
<path id="Vector_37" d="M114.908 111.687H166.883" stroke="#443D78" stroke-width="0.351684" stroke-linecap="round" stroke-linejoin="round"/>
<path id="Vector_38" d="M114.908 115.844H166.883" stroke="#443D78" stroke-width="0.351684" stroke-linecap="round" stroke-linejoin="round"/>
<path id="Vector_39" d="M129.956 141.156L130.199 135.927H122.732L122.233 141.156H129.956Z" fill="#443D78" stroke="white" stroke-width="0.607621" stroke-linecap="round" stroke-linejoin="round"/>
<path id="Vector_40" d="M145.402 141.156L145.147 135.927H137.673L137.679 141.156H145.402Z" fill="#443D78" stroke="white" stroke-width="0.607621" stroke-linecap="round" stroke-linejoin="round"/>
<path id="Vector_41" d="M185.62 146.744H193.604L191.733 141.156H184.01L185.62 146.744Z" fill="#443D78" stroke="white" stroke-width="0.607621" stroke-linecap="round" stroke-linejoin="round"/>
<path id="Vector_42" d="M122.233 141.156L122.731 135.927H115.258L114.516 141.156H122.233Z" fill="#443D78" stroke="white" stroke-width="0.607621" stroke-linecap="round" stroke-linejoin="round"/>
<path id="Vector_43" d="M106.793 141.156L107.784 135.927H100.316L99.0704 141.156H106.793Z" fill="#443D78" stroke="white" stroke-width="0.607621" stroke-linecap="round" stroke-linejoin="round"/>
<path id="Vector_44" d="M176.287 141.156L175.035 135.927H167.562L168.564 141.156H176.287Z" fill="#443D78" stroke="white" stroke-width="0.607621" stroke-linecap="round" stroke-linejoin="round"/>
<path id="Vector_45" d="M184.01 141.156L182.503 135.927H175.035L176.287 141.156H184.01Z" fill="#443D78" stroke="white" stroke-width="0.607621" stroke-linecap="round" stroke-linejoin="round"/>
<path id="Vector_46" d="M99.0706 141.156L100.316 135.927H92.8425L91.3478 141.156H99.0706Z" fill="#443D78" stroke="white" stroke-width="0.607621" stroke-linecap="round" stroke-linejoin="round"/>
<path id="Vector_47" d="M153.125 141.156L152.62 135.927H145.147L145.402 141.156H153.125Z" fill="#443D78" stroke="white" stroke-width="0.607621" stroke-linecap="round" stroke-linejoin="round"/>
<path id="Vector_48" d="M191.733 141.156L189.977 135.927H182.503L184.01 141.156H191.733Z" fill="#443D78" stroke="white" stroke-width="0.607621" stroke-linecap="round" stroke-linejoin="round"/>
<path id="Vector_49" d="M168.564 141.156L167.562 135.927H160.088L160.841 141.156H168.564Z" fill="#443D78" stroke="white" stroke-width="0.607621" stroke-linecap="round" stroke-linejoin="round"/>
<path id="Vector_50" d="M160.841 141.156L160.088 135.927H152.62L153.125 141.156H160.841Z" fill="#443D78" stroke="white" stroke-width="0.607621" stroke-linecap="round" stroke-linejoin="round"/>
<path id="Vector_51" d="M137.679 141.156L137.673 135.927H130.199L129.956 141.156H137.679Z" fill="#443D78" stroke="white" stroke-width="0.607621" stroke-linecap="round" stroke-linejoin="round"/>
<path id="Vector_52" d="M83.6248 141.156H75.9019L73.7692 146.744H81.7594L83.6248 141.156Z" fill="#443D78" stroke="white" stroke-width="0.607621" stroke-linecap="round" stroke-linejoin="round"/>
<path id="Vector_53" d="M85.3687 135.927H77.9011L75.902 141.156H83.6248L85.3687 135.927Z" fill="#443D78" stroke="white" stroke-width="0.607621" stroke-linecap="round" stroke-linejoin="round"/>
<path id="Vector_54" d="M91.348 141.156L92.8427 135.927H85.369L83.6251 141.156H91.348Z" fill="#443D78" stroke="white" stroke-width="0.607621" stroke-linecap="round" stroke-linejoin="round"/>
<path id="Vector_55" d="M71.4847 152.734L69.0299 159.174H77.6156L79.7605 152.734H71.4847Z" fill="#443D78" stroke="white" stroke-width="0.607621" stroke-linecap="round" stroke-linejoin="round"/>
<path id="Vector_56" d="M81.7594 146.744H73.7692L71.4845 152.734H79.7603L81.7594 146.744Z" fill="#443D78" stroke="white" stroke-width="0.607621" stroke-linecap="round" stroke-linejoin="round"/>
<path id="Vector_57" d="M79.7607 152.734L77.6158 159.174H86.2015L88.0365 152.734H79.7607Z" fill="#443D78" stroke="white" stroke-width="0.607621" stroke-linecap="round" stroke-linejoin="round"/>
<path id="Vector_58" d="M114.516 141.156L115.258 135.927H107.784L106.794 141.156H114.516Z" fill="#443D78" stroke="white" stroke-width="0.607621" stroke-linecap="round" stroke-linejoin="round"/>
<path id="Vector_59" d="M113.714 146.744L114.516 141.156H106.793L105.73 146.744H113.714Z" fill="#443D78" stroke="white" stroke-width="0.607621" stroke-linecap="round" stroke-linejoin="round"/>
<path id="Vector_60" d="M105.73 146.744L106.793 141.156H99.0706L97.7399 146.744H105.73Z" fill="#443D78" stroke="white" stroke-width="0.607621" stroke-linecap="round" stroke-linejoin="round"/>
<path id="Vector_61" d="M121.705 146.744L122.233 141.156H114.517L113.714 146.744H121.705Z" fill="#443D78" stroke="white" stroke-width="0.607621" stroke-linecap="round" stroke-linejoin="round"/>
<path id="Vector_62" d="M91.3477 141.156H83.6248L81.7594 146.744H89.7496L91.3477 141.156Z" fill="#443D78" stroke="white" stroke-width="0.607621" stroke-linecap="round" stroke-linejoin="round"/>
<path id="Vector_63" d="M187.34 152.734H195.616L193.604 146.744H185.62L187.34 152.734Z" fill="#443D78" stroke="white" stroke-width="0.607621" stroke-linecap="round" stroke-linejoin="round"/>
<path id="Vector_64" d="M97.7399 146.744L99.0705 141.156H91.3477L89.7496 146.744H97.7399Z" fill="#443D78" stroke="white" stroke-width="0.607621" stroke-linecap="round" stroke-linejoin="round"/>
<path id="Vector_65" d="M81.7594 146.744L79.7604 152.734H88.0362L89.7497 146.744H81.7594Z" fill="#443D78" stroke="white" stroke-width="0.607621" stroke-linecap="round" stroke-linejoin="round"/>
<path id="Vector_66" d="M169.64 146.744L168.564 141.156H160.841L161.65 146.744H169.64Z" fill="#443D78" stroke="white" stroke-width="0.607621" stroke-linecap="round" stroke-linejoin="round"/>
<path id="Vector_67" d="M161.65 146.744L160.841 141.156H153.125L153.659 146.744H161.65Z" fill="#443D78" stroke="white" stroke-width="0.607621" stroke-linecap="round" stroke-linejoin="round"/>
<path id="Vector_68" d="M185.62 146.744L184.01 141.156H176.287L177.63 146.744H185.62Z" fill="#443D78" stroke="white" stroke-width="0.607621" stroke-linecap="round" stroke-linejoin="round"/>
<path id="Vector_69" d="M137.685 146.744L137.679 141.156H129.956L129.695 146.744H137.685Z" fill="#443D78" stroke="white" stroke-width="0.607621" stroke-linecap="round" stroke-linejoin="round"/>
<path id="Vector_70" d="M153.659 146.744L153.125 141.156H145.402L145.675 146.744H153.659Z" fill="#443D78" stroke="white" stroke-width="0.607621" stroke-linecap="round" stroke-linejoin="round"/>
<path id="Vector_71" d="M145.675 146.744L145.402 141.156H137.679L137.685 146.744H145.675Z" fill="#443D78" stroke="white" stroke-width="0.607621" stroke-linecap="round" stroke-linejoin="round"/>
<path id="Vector_72" d="M129.695 146.744L129.956 141.156H122.233L121.704 146.744H129.695Z" fill="#443D78" stroke="white" stroke-width="0.607621" stroke-linecap="round" stroke-linejoin="round"/>
<path id="Vector_73" d="M153.66 146.744L154.243 152.734H162.513L161.65 146.744H153.66Z" fill="#443D78" stroke="white" stroke-width="0.607621" stroke-linecap="round" stroke-linejoin="round"/>
<path id="Vector_74" d="M161.65 146.744L162.512 152.734H170.788L169.64 146.744H161.65Z" fill="#443D78" stroke="white" stroke-width="0.607621" stroke-linecap="round" stroke-linejoin="round"/>
<path id="Vector_75" d="M89.7498 146.744L88.0363 152.734H96.3121L97.74 146.744H89.7498Z" fill="#443D78" stroke="white" stroke-width="0.607621" stroke-linecap="round" stroke-linejoin="round"/>
<path id="Vector_76" d="M169.64 146.744L170.788 152.734H179.064L177.63 146.744H169.64Z" fill="#443D78" stroke="white" stroke-width="0.607621" stroke-linecap="round" stroke-linejoin="round"/>
<path id="Vector_77" d="M137.685 146.744L137.691 152.734H145.967L145.675 146.744H137.685Z" fill="#443D78" stroke="white" stroke-width="0.607621" stroke-linecap="round" stroke-linejoin="round"/>
<path id="Vector_78" d="M177.63 146.744L179.064 152.734H187.34L185.62 146.744H177.63Z" fill="#443D78" stroke="white" stroke-width="0.607621" stroke-linecap="round" stroke-linejoin="round"/>
<path id="Vector_79" d="M145.675 146.744L145.967 152.734H154.243L153.659 146.744H145.675Z" fill="#443D78" stroke="white" stroke-width="0.607621" stroke-linecap="round" stroke-linejoin="round"/>
<path id="Vector_80" d="M105.73 146.744L104.588 152.734H112.864L113.714 146.744H105.73Z" fill="#443D78" stroke="white" stroke-width="0.607621" stroke-linecap="round" stroke-linejoin="round"/>
<path id="Vector_81" d="M97.74 146.744L96.3121 152.734H104.588L105.73 146.744H97.74Z" fill="#443D78" stroke="white" stroke-width="0.607621" stroke-linecap="round" stroke-linejoin="round"/>
<path id="Vector_82" d="M129.695 146.744L129.415 152.734H137.691L137.685 146.744H129.695Z" fill="#443D78" stroke="white" stroke-width="0.607621" stroke-linecap="round" stroke-linejoin="round"/>
<path id="Vector_83" d="M121.705 146.744L121.14 152.734H129.415L129.695 146.744H121.705Z" fill="#443D78" stroke="white" stroke-width="0.607621" stroke-linecap="round" stroke-linejoin="round"/>
<path id="Vector_84" d="M113.714 146.744L112.864 152.734H121.139L121.705 146.744H113.714Z" fill="#443D78" stroke="white" stroke-width="0.607621" stroke-linecap="round" stroke-linejoin="round"/>
<path id="Vector_85" d="M177.63 146.744L176.287 141.156H168.564L169.64 146.744H177.63Z" fill="#443D78" stroke="white" stroke-width="0.607621" stroke-linecap="round" stroke-linejoin="round"/>
<path id="Vector_86" d="M85.3687 135.927L87.1551 130.571H79.9365L77.901 135.927H85.3687Z" fill="#443D78" stroke="white" stroke-width="0.607621" stroke-linecap="round" stroke-linejoin="round"/>
<path id="Vector_87" d="M77.901 135.927H70.9984L68.7745 141.156H75.9019L77.901 135.927Z" fill="#443D78" stroke="white" stroke-width="0.607621" stroke-linecap="round" stroke-linejoin="round"/>
<path id="Vector_88" d="M79.9368 130.571H73.2772L70.9987 135.927H77.9012L79.9368 130.571Z" fill="#443D78" stroke="white" stroke-width="0.607621" stroke-linecap="round" stroke-linejoin="round"/>
<path id="Vector_89" d="M75.9022 141.156H68.7748L66.399 146.744H73.7695L75.9022 141.156Z" fill="#443D78" stroke="white" stroke-width="0.607621" stroke-linecap="round" stroke-linejoin="round"/>
<path id="Vector_90" d="M73.7693 146.744H66.3988L63.8468 152.734H71.4846L73.7693 146.744Z" fill="#443D78" stroke="white" stroke-width="0.607621" stroke-linecap="round" stroke-linejoin="round"/>
<path id="Vector_91" d="M71.4847 152.734H63.8469L61.1066 159.174H69.0299L71.4847 152.734Z" fill="#443D78" stroke="white" stroke-width="0.607621" stroke-linecap="round" stroke-linejoin="round"/>
<path id="Vector_92" d="M199.45 141.156L201.594 146.744H208.661L206.285 141.156H199.45Z" fill="#443D78" stroke="white" stroke-width="0.607621" stroke-linecap="round" stroke-linejoin="round"/>
<path id="Vector_93" d="M203.891 152.734H211.213L208.661 146.744H201.595L203.891 152.734Z" fill="#443D78" stroke="white" stroke-width="0.607621" stroke-linecap="round" stroke-linejoin="round"/>
<path id="Vector_94" d="M206.358 159.174H213.954L211.213 152.734H203.891L206.358 159.174Z" fill="#443D78" stroke="white" stroke-width="0.607621" stroke-linecap="round" stroke-linejoin="round"/>
<path id="Vector_95" d="M145.146 135.927L144.885 130.571H137.667L137.673 135.927H145.146Z" fill="#443D78" stroke="white" stroke-width="0.607621" stroke-linecap="round" stroke-linejoin="round"/>
<path id="Vector_96" d="M199.45 141.156H206.285L204.061 135.927H197.451L199.45 141.156Z" fill="#443D78" stroke="white" stroke-width="0.607621" stroke-linecap="round" stroke-linejoin="round"/>
<path id="Vector_97" d="M195.616 152.734H203.891L201.595 146.744H193.604L195.616 152.734Z" fill="#443D78" stroke="white" stroke-width="0.607621" stroke-linecap="round" stroke-linejoin="round"/>
<path id="Vector_98" d="M92.8425 135.927L94.3737 130.571H87.1552L85.3688 135.927H92.8425Z" fill="#443D78" stroke="white" stroke-width="0.607621" stroke-linecap="round" stroke-linejoin="round"/>
<path id="Vector_99" d="M189.977 135.927L191.733 141.156H199.45L197.451 135.927H189.977Z" fill="#443D78" stroke="white" stroke-width="0.607621" stroke-linecap="round" stroke-linejoin="round"/>
<path id="Vector_100" d="M204.062 135.927L201.783 130.571H195.397L197.451 135.927H204.062Z" fill="#443D78" stroke="white" stroke-width="0.607621" stroke-linecap="round" stroke-linejoin="round"/>
<path id="Vector_101" d="M197.45 135.927L195.397 130.571H188.184L189.977 135.927H197.45Z" fill="#443D78" stroke="white" stroke-width="0.607621" stroke-linecap="round" stroke-linejoin="round"/>
<path id="Vector_102" d="M170.788 152.734L172.028 159.174H180.607L179.064 152.734H170.788Z" fill="#443D78" stroke="white" stroke-width="0.607621" stroke-linecap="round" stroke-linejoin="round"/>
<path id="Vector_103" d="M197.772 159.174H206.358L203.891 152.734H195.615L197.772 159.174Z" fill="#443D78" stroke="white" stroke-width="0.607621" stroke-linecap="round" stroke-linejoin="round"/>
<path id="Vector_104" d="M189.977 135.927L188.184 130.571H180.966L182.503 135.927H189.977Z" fill="#443D78" stroke="white" stroke-width="0.607621" stroke-linecap="round" stroke-linejoin="round"/>
<path id="Vector_105" d="M187.34 152.734L189.193 159.174H197.773L195.616 152.734H187.34Z" fill="#443D78" stroke="white" stroke-width="0.607621" stroke-linecap="round" stroke-linejoin="round"/>
<path id="Vector_106" d="M179.064 152.734L180.607 159.174H189.193L187.34 152.734H179.064Z" fill="#443D78" stroke="white" stroke-width="0.607621" stroke-linecap="round" stroke-linejoin="round"/>
<path id="Vector_107" d="M193.604 146.744H201.594L199.45 141.156H191.733L193.604 146.744Z" fill="#443D78" stroke="white" stroke-width="0.607621" stroke-linecap="round" stroke-linejoin="round"/>
<path id="Vector_108" d="M122.731 135.927L123.236 130.571H116.017L115.257 135.927H122.731Z" fill="#443D78" stroke="white" stroke-width="0.607621" stroke-linecap="round" stroke-linejoin="round"/>
<path id="Vector_109" d="M182.503 135.927L180.966 130.571H173.747L175.036 135.927H182.503Z" fill="#443D78" stroke="white" stroke-width="0.607621" stroke-linecap="round" stroke-linejoin="round"/>
<path id="Vector_110" d="M115.258 135.927L116.017 130.571H108.805L107.784 135.927H115.258Z" fill="#443D78" stroke="white" stroke-width="0.607621" stroke-linecap="round" stroke-linejoin="round"/>
<path id="Vector_111" d="M137.673 135.927L137.667 130.571H130.454L130.199 135.927H137.673Z" fill="#443D78" stroke="white" stroke-width="0.607621" stroke-linecap="round" stroke-linejoin="round"/>
<path id="Vector_112" d="M107.784 135.927L108.805 130.571H101.586L100.317 135.927H107.784Z" fill="#443D78" stroke="white" stroke-width="0.607621" stroke-linecap="round" stroke-linejoin="round"/>
<path id="Vector_113" d="M100.316 135.927L101.586 130.571H94.3736L92.8424 135.927H100.316Z" fill="#443D78" stroke="white" stroke-width="0.607621" stroke-linecap="round" stroke-linejoin="round"/>
<path id="Vector_114" d="M130.199 135.927L130.454 130.571H123.236L122.732 135.927H130.199Z" fill="#443D78" stroke="white" stroke-width="0.607621" stroke-linecap="round" stroke-linejoin="round"/>
<path id="Vector_115" d="M175.036 135.927L173.748 130.571H166.535L167.562 135.927H175.036Z" fill="#443D78" stroke="white" stroke-width="0.607621" stroke-linecap="round" stroke-linejoin="round"/>
<path id="Vector_116" d="M167.562 135.927L166.535 130.571H159.317L160.088 135.927H167.562Z" fill="#443D78" stroke="white" stroke-width="0.607621" stroke-linecap="round" stroke-linejoin="round"/>
<path id="Vector_117" d="M152.62 135.927L152.098 130.571H144.885L145.147 135.927H152.62Z" fill="#443D78" stroke="white" stroke-width="0.607621" stroke-linecap="round" stroke-linejoin="round"/>
<path id="Vector_118" d="M170.788 152.734H162.512H154.243H145.967H137.691H129.415H121.14H112.864H104.588H96.3121H88.0363L86.2013 159.174H94.7809H103.367H111.946H120.532H129.112H137.697H146.277H154.862H163.442H172.028L170.788 152.734Z" fill="#443D78" stroke="white" stroke-width="0.607621" stroke-linecap="round" stroke-linejoin="round"/>
<path id="Vector_119" d="M160.088 135.927L159.316 130.571H152.098L152.62 135.927H160.088Z" fill="#443D78" stroke="white" stroke-width="0.607621" stroke-linecap="round" stroke-linejoin="round"/>
<path id="Vector_120" d="M227.856 170.477H43.9352V173.095H227.856V170.477Z" fill="#443D78" stroke="#443D78" stroke-width="0.607621" stroke-linecap="round" stroke-linejoin="round"/>
</g>
<g id="freepik--Hands--inject-36">
<g id="Vector_121">
<path d="M60.1765 235C60.1765 235 73.763 206.464 75.8532 200.967C77.9434 195.471 107.213 181.592 108.78 178.957C110.348 176.321 112.426 168.225 114.012 164.823C115.598 161.42 114.273 160.105 115.318 157.226C116.363 154.347 118.192 150.944 115.579 150.944C112.967 150.944 109.57 153.823 108.258 158.535C106.945 163.246 101.726 167.178 101.726 167.178L101.987 164.037C102.248 160.89 105.384 151.206 106.69 149.112C107.996 147.018 115.841 138.642 116.886 138.38C117.931 138.119 120.282 140.474 122.634 140.474C124.985 140.474 125.508 138.648 124.202 137.595C122.895 136.542 121.85 133.14 118.733 131.046C115.616 128.952 112.201 131.046 112.201 131.046C111.329 129.592 110.369 128.194 109.327 126.858C108.015 125.287 105.402 122.67 102.005 121.885C101.01 121.657 99.9773 121.657 98.9824 121.883C97.9874 122.11 97.056 122.557 96.2571 123.193C95.0539 122.943 93.8363 122.768 92.6114 122.67C89.9986 122.408 88.1697 123.979 85.5569 128.148C82.9441 132.318 78.7576 140.456 78.7576 140.456C78.7576 140.456 79.8027 132.86 79.8027 129.719C79.8027 126.578 80.064 123.175 78.7576 121.866C77.4512 120.558 76.1448 122.128 75.6223 126.839C75.0997 131.551 69.0904 148.047 68.3308 152.496C67.5713 156.946 59.1861 181.556 54.7383 187.844C50.2905 194.132 26.2531 221.615 26.2531 221.615M97.8065 142.325C97.8065 142.325 101.452 131.849 102.51 131.849C103.567 131.849 107.474 134.728 107.474 134.728L97.8065 142.325Z" fill="white"/>
<path d="M60.1765 235C60.1765 235 73.763 206.464 75.8532 200.967C77.9434 195.471 107.213 181.592 108.78 178.957C110.348 176.321 112.426 168.225 114.012 164.823C115.598 161.42 114.273 160.105 115.318 157.226C116.363 154.347 118.192 150.944 115.579 150.944C112.967 150.944 109.57 153.823 108.258 158.535C106.945 163.246 101.726 167.178 101.726 167.178L101.987 164.037C102.248 160.89 105.384 151.206 106.69 149.112C107.996 147.018 115.841 138.642 116.886 138.38C117.931 138.119 120.282 140.474 122.634 140.474C124.985 140.474 125.508 138.648 124.202 137.595C122.895 136.542 121.85 133.14 118.733 131.046C115.616 128.952 112.201 131.046 112.201 131.046C111.329 129.592 110.369 128.194 109.327 126.858C108.015 125.287 105.402 122.67 102.005 121.885C101.01 121.657 99.9773 121.657 98.9824 121.883C97.9874 122.11 97.056 122.557 96.2571 123.193C95.0539 122.943 93.8363 122.768 92.6114 122.67C89.9986 122.408 88.1697 123.979 85.5569 128.148C82.9441 132.318 78.7576 140.456 78.7576 140.456C78.7576 140.456 79.8027 132.86 79.8027 129.719C79.8027 126.578 80.064 123.175 78.7576 121.866C77.4512 120.558 76.1448 122.128 75.6223 126.839C75.0997 131.551 69.0904 148.047 68.3308 152.496C67.5713 156.946 59.1861 181.556 54.7383 187.844C50.2905 194.132 26.2531 221.615 26.2531 221.615M97.8065 142.325C97.8065 142.325 101.452 131.849 102.51 131.849C103.567 131.849 107.474 134.728 107.474 134.728L97.8065 142.325Z" stroke="#443D78" stroke-width="0.607621" stroke-linecap="round" stroke-linejoin="round"/>
</g>
<path id="Vector_122" d="M66.1738 163.873C66.1738 163.873 70.6276 149.915 71.3689 146.324C71.8976 143.792 73.769 146.744 73.769 146.744C73.769 146.744 77.4148 144.133 77.4148 146.324C77.4563 147.716 77.9347 149.06 78.7819 150.165C78.7819 150.165 77.9616 146.324 81.82 145.228C85.6784 144.133 87.2886 145.776 86.4744 150.165C85.6602 154.554 87.0213 152.904 87.8415 151.808C88.6618 150.713 87.5681 147.967 92.4959 146.05C97.4237 144.133 100.164 146.05 99.3377 150.165C98.5114 154.28 97.1503 157.841 97.1503 163.873C97.1503 169.905 98.244 175.39 99.3377 175.39C100.431 175.39 106.459 169.083 107.553 173.198C108.646 177.313 106.459 177.313 100.711 182.244C94.9629 187.174 79.906 191.295 77.4451 196.244C74.9843 201.193 73.3376 204.193 71.697 204.467C70.0565 204.741 67.3161 194.874 59.3745 195.946C51.4329 197.017 43.2239 204.997 45.144 201.704C47.0641 198.411 54.1732 193.182 58.2808 183.881C62.3883 174.58 66.1738 163.873 66.1738 163.873Z" fill="#A9E8CB"/>
<path id="Vector_123" opacity="0.4" d="M66.1738 163.873C66.1738 163.873 70.6276 149.915 71.3689 146.324C71.8976 143.792 73.769 146.744 73.769 146.744C73.769 146.744 77.4148 144.133 77.4148 146.324C77.4563 147.716 77.9347 149.06 78.7819 150.165C78.7819 150.165 77.9616 146.324 81.82 145.228C85.6784 144.133 87.2886 145.776 86.4744 150.165C85.6602 154.554 87.0213 152.904 87.8415 151.808C88.6618 150.713 87.5681 147.967 92.4959 146.05C97.4237 144.133 100.164 146.05 99.3377 150.165C98.5114 154.28 97.1503 157.841 97.1503 163.873C97.1503 169.905 98.244 175.39 99.3377 175.39C100.431 175.39 106.459 169.083 107.553 173.198C108.646 177.313 106.459 177.313 100.711 182.244C94.9629 187.174 79.906 191.295 77.4451 196.244C74.9843 201.193 73.3376 204.193 71.697 204.467C70.0565 204.741 67.3161 194.874 59.3745 195.946C51.4329 197.017 43.2239 204.997 45.144 201.704C47.0641 198.411 54.1732 193.182 58.2808 183.881C62.3883 174.58 66.1738 163.873 66.1738 163.873Z" fill="white"/>
<g id="Vector_124">
<path d="M96.2388 123.211C96.2388 123.211 88.9474 135.781 87.3554 138.399C85.7634 141.016 84.4814 143.372 82.6464 144.419C80.8113 145.466 79.511 147.821 80.0336 148.607" fill="white"/>
<path d="M96.2388 123.211C96.2388 123.211 88.9474 135.781 87.3554 138.399C85.7634 141.016 84.4814 143.372 82.6464 144.419C80.8113 145.466 79.511 147.821 80.0336 148.607" stroke="#443D78" stroke-width="0.607621" stroke-linecap="round" stroke-linejoin="round"/>
</g>
<g id="Vector_125">
<path d="M78.7273 140.493C77.9194 141.975 76.8582 143.304 75.5919 144.419C73.5017 146.245 71.1502 147.821 70.6277 149.897C70.2698 151.224 69.6499 152.466 68.8048 153.549" fill="white"/>
<path d="M78.7273 140.493C77.9194 141.975 76.8582 143.304 75.5919 144.419C73.5017 146.245 71.1502 147.821 70.6277 149.897C70.2698 151.224 69.6499 152.466 68.8048 153.549" stroke="#443D78" stroke-width="0.607621" stroke-linecap="round" stroke-linejoin="round"/>
</g>
<g id="Vector_126">
<path d="M97.8071 142.325C97.8071 142.325 92.5815 145.727 91.2751 146.774C89.9687 147.821 89.4523 150.177 89.4523 150.177" fill="white"/>
<path d="M97.8071 142.325C97.8071 142.325 92.5815 145.727 91.2751 146.774C89.9687 147.821 89.4523 150.177 89.4523 150.177" stroke="#443D78" stroke-width="0.607621" stroke-linecap="round" stroke-linejoin="round"/>
</g>
<path id="Vector_127" d="M112.183 131.064L107.474 134.728" stroke="#443D78" stroke-width="0.607621" stroke-linecap="round" stroke-linejoin="round"/>
<g id="Vector_128">
<path d="M239.285 218.589C239.285 218.589 215.503 195.294 213.674 190.589C211.845 185.884 212.368 184.831 210.8 181.458C209.232 178.086 204.529 172.261 204.268 168.067C204.007 163.873 201.917 153.927 201.917 150.524C201.917 147.121 201.133 142.148 200.094 141.363C199.055 140.578 193.294 139.263 193.294 139.263C193.294 139.263 190.159 129.317 187.826 128.793C185.493 128.27 180.747 130.869 180.747 130.869C180.747 130.869 179.702 129.043 178.396 126.158C177.089 123.272 174.75 123.279 171.864 124.332C168.977 125.385 163.235 127.734 163.235 127.734C163.235 127.734 156.703 122.761 154.613 125.908C152.523 129.055 149.91 134.807 149.388 136.901C148.865 138.995 152.48 138.922 153.264 138.399C154.048 137.875 156.989 135.708 156.989 135.708C156.989 135.708 162.713 140.042 163.758 142.404C164.803 144.766 166.893 155.753 167.155 157.847C167.416 159.941 166.371 166.484 166.371 166.484C166.371 166.484 161.406 157.585 159.079 154.968C156.752 152.35 153.331 150.78 150.718 150.78C148.106 150.78 146.277 153.659 148.367 154.968C150.457 156.276 152.809 157.847 153.331 159.679C153.854 161.511 159.079 170.94 159.602 174.343C160.124 177.745 163.782 184.551 167.179 186.645C170.575 188.739 183.123 191.356 185.474 193.718C187.826 196.079 204.554 229.321 204.554 229.321M167.938 132.695H172.125L176.567 141.339L167.938 132.695Z" fill="white"/>
<path d="M239.285 218.589C239.285 218.589 215.503 195.294 213.674 190.589C211.845 185.884 212.368 184.831 210.8 181.458C209.232 178.086 204.529 172.261 204.268 168.067C204.007 163.873 201.917 153.927 201.917 150.524C201.917 147.121 201.133 142.148 200.094 141.363C199.055 140.578 193.294 139.263 193.294 139.263C193.294 139.263 190.159 129.317 187.826 128.793C185.493 128.27 180.747 130.869 180.747 130.869C180.747 130.869 179.702 129.043 178.396 126.158C177.089 123.272 174.75 123.279 171.864 124.332C168.977 125.385 163.235 127.734 163.235 127.734C163.235 127.734 156.703 122.761 154.613 125.908C152.523 129.055 149.91 134.807 149.388 136.901C148.865 138.995 152.48 138.922 153.264 138.399C154.048 137.875 156.989 135.708 156.989 135.708C156.989 135.708 162.713 140.042 163.758 142.404C164.803 144.766 166.893 155.753 167.155 157.847C167.416 159.941 166.371 166.484 166.371 166.484C166.371 166.484 161.406 157.585 159.079 154.968C156.752 152.35 153.331 150.78 150.718 150.78C148.106 150.78 146.277 153.659 148.367 154.968C150.457 156.276 152.809 157.847 153.331 159.679C153.854 161.511 159.079 170.94 159.602 174.343C160.124 177.745 163.782 184.551 167.179 186.645C170.575 188.739 183.123 191.356 185.474 193.718C187.826 196.079 204.554 229.321 204.554 229.321M167.938 132.695H172.125L176.567 141.339L167.938 132.695Z" stroke="#443D78" stroke-width="0.607621" stroke-linecap="round" stroke-linejoin="round"/>
</g>
<path id="Vector_129" d="M201.121 154.274C201.121 154.274 198.083 145.752 194.552 147.42C191.022 149.088 190.445 149.891 190.445 149.891C190.445 149.891 188.525 146.847 185.244 147.967C181.962 149.088 180.863 146.872 180.863 146.872C180.863 146.872 176.482 144.133 173.747 146.324C171.013 148.515 173.201 154.548 174.294 159.484C175.388 164.421 172.927 174.02 172.38 174.842C171.833 175.664 164.439 172.377 163.618 175.39C162.798 178.403 166.079 184.989 172.654 187.18C179.228 189.372 184.15 190.473 186.629 192.939C189.108 195.404 195.391 213.233 200.866 214.602C206.34 215.972 212.362 208.022 218.11 208.57C223.858 209.118 231.247 213.233 228.239 209.666C225.231 206.099 212.635 193.231 211.833 188.556C211.031 183.881 207.999 180.6 206.632 178.409C205.265 176.217 202.792 163.051 201.941 159.478C201.496 157.775 201.221 156.031 201.121 154.274Z" fill="#A9E8CB"/>
<path id="Vector_130" opacity="0.4" d="M201.121 154.274C201.121 154.274 198.083 145.752 194.552 147.42C191.022 149.088 190.445 149.891 190.445 149.891C190.445 149.891 188.525 146.847 185.244 147.967C181.962 149.088 180.863 146.872 180.863 146.872C180.863 146.872 176.482 144.133 173.747 146.324C171.013 148.515 173.201 154.548 174.294 159.484C175.388 164.421 172.927 174.02 172.38 174.842C171.833 175.664 164.439 172.377 163.618 175.39C162.798 178.403 166.079 184.989 172.654 187.18C179.228 189.372 184.15 190.473 186.629 192.939C189.108 195.404 195.391 213.233 200.866 214.602C206.34 215.972 212.362 208.022 218.11 208.57C223.858 209.118 231.247 213.233 228.239 209.666C225.231 206.099 212.635 193.231 211.833 188.556C211.031 183.881 207.999 180.6 206.632 178.409C205.265 176.217 202.792 163.051 201.941 159.478C201.496 157.775 201.221 156.031 201.121 154.274Z" fill="white"/>
<g id="Vector_131">
<path d="M180.747 130.869L184.393 137.674C184.393 137.674 185.882 141.247 187.388 142.751C188.895 144.254 190.208 145.387 190.773 147.274C191.338 149.161 191.52 150.098 191.52 150.098" fill="white"/>
<path d="M180.747 130.869L184.393 137.674C184.393 137.674 185.882 141.247 187.388 142.751C188.895 144.254 190.208 145.387 190.773 147.274C191.338 149.161 191.52 150.098 191.52 150.098" stroke="#443D78" stroke-width="0.607621" stroke-linecap="round" stroke-linejoin="round"/>
</g>
<path id="Vector_132" d="M193.288 139.263L196.952 146.86" stroke="#443D78" stroke-width="0.607621" stroke-linecap="round" stroke-linejoin="round"/>
<path id="Vector_133" d="M163.235 127.746L167.938 132.719" stroke="#443D78" stroke-width="0.607621" stroke-linecap="round" stroke-linejoin="round"/>
<g id="Vector_134">
<path d="M197.931 148.607C198.011 150.188 198.199 151.762 198.496 153.318L197.931 148.607Z" fill="white"/>
<path d="M197.931 148.607C198.011 150.188 198.199 151.762 198.496 153.318" stroke="#443D78" stroke-width="0.607621" stroke-linecap="round" stroke-linejoin="round"/>
</g>
<g id="Vector_135">
<path d="M179.131 144.261C179.131 144.261 181.385 145.953 181.762 148.211L179.131 144.261Z" fill="white"/>
<path d="M179.131 144.261C179.131 144.261 181.385 145.953 181.762 148.211" stroke="#443D78" stroke-width="0.607621" stroke-linecap="round" stroke-linejoin="round"/>
</g>
<g id="Vector_136">
<path d="M156.989 135.739C156.989 135.739 154.923 134.911 154.923 133.255L156.989 135.739Z" fill="white"/>
<path d="M156.989 135.739C156.989 135.739 154.923 134.911 154.923 133.255" stroke="#443D78" stroke-width="0.607621" stroke-linecap="round" stroke-linejoin="round"/>
</g>
<g id="Vector_137">
<path d="M172.125 132.695C172.125 132.695 170.63 131.545 170.63 130.096L172.125 132.695Z" fill="white"/>
<path d="M172.125 132.695C172.125 132.695 170.63 131.545 170.63 130.096" stroke="#443D78" stroke-width="0.607621" stroke-linecap="round" stroke-linejoin="round"/>
</g>
</g>
</g>
</svg>
