<svg width="185" height="148" viewBox="0 0 185 148" fill="none" xmlns="http://www.w3.org/2000/svg">
<path id="Vector 22" d="M1 131.552C4.05933 131.807 7.27739 132.447 10.2957 132.531C21.4358 136.191 46.7191 142.413 58.7312 138.021C60.1267 137.401 61.0686 136.701 62.3734 135.955C64.5083 134.736 64.5845 128.665 63.8683 126.66C62.5707 123.027 61.6542 119.805 57.7527 117.854C52.8424 115.399 47.8065 115.214 42.5588 115.87C39.6835 116.23 34.919 116.224 34.7581 120.409C34.6749 122.572 33.734 126.502 36.2258 127.747C39.74 129.504 43.7606 130.53 47.7775 130.058C54.8325 129.228 66.0699 127.712 66.0699 118.615C66.0699 115.325 65.5725 112.331 62.8898 110.244C59.1166 107.31 52.9256 106.113 48.2395 106.113C40.6619 106.113 31.3333 103.888 31.3333 114.919C31.3333 124.625 49.6638 123.224 55.986 121.279C60.5273 119.882 62.8438 116.379 64.2216 112.092C65.8069 107.161 64.5649 104.317 62.6452 99.9977C60.9635 96.2141 53.8649 95.8393 50.3596 95.8393C45.3879 95.8393 40.6717 95.5796 35.7366 95.8393C32.98 95.9844 31.6284 98.9512 32.339 101.438C33.0348 103.873 38.8166 107.942 41.1183 108.07C42.2477 108.133 44.4931 108.256 45.5215 108.668C47.8836 109.613 50.0441 108.628 52.371 108.559C57.1077 108.42 59.7846 107.506 63.3247 103.966C65.1735 102.117 67.172 100.212 68.2715 97.769C69.3945 95.2735 69.1126 93.4147 69.6033 90.8384C70.1088 88.1849 69.9839 85.2199 69.9839 82.5216C69.6033 74.4543 77.5699 70.9904 80.0406 64.2846C83.3631 55.2669 86.8443 47.9517 86.7367 38.383C88.1491 -3.92921 25.6818 -9.1129 12.5245 21.6679C8.66287 29.6482 7.54537 44.0762 12.5245 52.1899C16.58 58.7986 23.4496 65.7273 28.7129 70.9904C34.9257 77.2029 36.5071 78.7842 39.6505 88.9902C39.6505 92.4191 41.0918 97.2975 44.543 98.53C51.4992 101.014 55.2178 99.0087 59.601 92.904C63.8099 87.0419 60.6228 77.3233 55.9044 72.9546C53.0887 70.3476 43.7523 67.5241 41.6347 72.1121C38.9178 77.9983 46.5388 77.1425 49.816 76.651C52.7783 76.2067 57.4372 74.7779 58.7312 71.7588C59.9977 68.8036 61.0492 65.6757 61.9113 62.5723C63.1398 58.1498 63.1344 53.7137 63.1344 49.1187C63.1344 47.2757 63.0725 42.1023 64.2216 40.666C65.8332 38.6517 67.2652 36.5147 70.2013 38.383C74.0439 40.8281 70.5487 44.9393 67.5376 46.3193C61.5765 49.0513 52.663 47.5808 46.7174 45.4495C41.2325 43.4833 40.9617 38.9083 41.6347 34.1974C42.0911 31.0031 44.8382 26.9896 47.9677 30.2837C51.5875 34.0937 51.9567 40.6303 48.9462 44.7157C47.0169 47.334 44.0406 48.1657 40.8737 48.3577C36.4054 48.6285 31.8364 48.8741 27.365 48.8741C22.8113 48.8741 12.1677 48.4104 15.7861 41.5358C17.747 37.8103 26.0761 41.6774 28.4794 42.7588C33.909 45.202 39.6246 48.0297 43.945 52.1899C53.1283 61.0326 51.8817 75.7798 51.8817 87.441C51.8817 95.0552 50.9032 102.565 50.9032 110.19C50.9032 116.871 50.1197 124.193 53.3495 130.329C56.6751 136.648 64.4575 141.321 71.1798 143.049C83.2103 146.143 97.4743 147.205 109.667 144.272C115.979 142.754 122.605 141.037 128.585 138.51C137.728 134.647 145.344 127.981 151.715 120.463C161.178 109.298 168.866 96.5486 175.145 83.3642C178.067 77.2286 183 69.1911 183 62.0831" stroke="#5080FF" stroke-width="4" stroke-linecap="round"/>
</svg>
