<svg width="254" height="235" viewBox="0 0 254 235" fill="none" xmlns="http://www.w3.org/2000/svg">
<g id="Group 6525">
<g id="freepik--background-simple--inject-2">
<path id="Vector" d="M246.09 139.582C238.077 161.1 221.694 184.412 198.646 191.291C163.82 201.714 159.661 229.855 97.2823 227.245C88.1747 226.907 79.1307 225.577 70.3096 223.28C65.9967 222.143 61.7606 220.731 57.6272 219.053C21.188 204.286 2.19637 171.694 0.59909 137.623C-1.4827 92.7933 29.7068 71.4458 49.9763 58.9468C70.2457 46.4479 94.7001 -2.01633 156.025 0.0650567C165.394 0.352442 174.699 1.72423 183.754 4.15311C204.396 9.75149 225.379 22.1384 237.571 40.2411C238.487 41.6038 239.362 42.9949 240.196 44.4145C256.504 72.1343 257.021 110.24 246.09 139.582Z" fill="#A9E8CB"/>
<path id="Vector_2" opacity="0.7" d="M246.09 139.582C238.077 161.1 221.694 184.412 198.646 191.291C163.82 201.714 159.661 229.855 97.2823 227.245C88.1747 226.907 79.1307 225.577 70.3096 223.28C65.9967 222.143 61.7606 220.731 57.6272 219.053C21.188 204.286 2.19637 171.694 0.59909 137.623C-1.4827 92.7933 29.7068 71.4458 49.9763 58.9468C70.2457 46.4479 94.7001 -2.01633 156.025 0.0650567C165.394 0.352442 174.699 1.72423 183.754 4.15311C204.396 9.75149 225.379 22.1384 237.571 40.2411C238.487 41.6038 239.362 42.9949 240.196 44.4145C256.504 72.1343 257.021 110.24 246.09 139.582Z" fill="white"/>
</g>
<g id="freepik--Plant--inject-2">
<path id="Vector_3" d="M233.583 212.489C232.763 212.793 230.809 212.627 230.809 212.627C230.809 212.627 231.304 211.373 231.342 211.298C231.826 210.423 233.269 209.025 234.366 209.238C234.546 209.279 234.716 209.358 234.865 209.469C235.013 209.58 235.136 209.722 235.226 209.884C235.316 210.046 235.371 210.226 235.387 210.41C235.403 210.595 235.379 210.782 235.319 210.957C235.158 211.323 234.919 211.65 234.619 211.914C234.319 212.179 233.966 212.375 233.583 212.489Z" fill="#A9E8CB"/>
<path id="Vector_4" d="M208.394 204.286C209.507 204.233 210.731 205.834 211.083 206.768C211.109 206.848 211.439 208.166 211.418 208.161C211.61 208.412 211.817 208.694 212.036 208.983C212.44 209.516 212.887 210.178 213.324 210.904C213.808 211.679 214.247 212.48 214.639 213.306C215.079 214.231 215.435 215.193 215.704 216.182C215.707 216.193 215.707 216.204 215.704 216.214C215.704 215.889 215.789 214.976 215.805 214.907C215.992 213.925 216.929 212.142 218.031 212.003C218.215 211.986 218.401 212.008 218.577 212.067C218.753 212.127 218.914 212.222 219.05 212.348C219.187 212.474 219.295 212.627 219.369 212.797C219.443 212.968 219.48 213.152 219.479 213.338C219.438 213.737 219.312 214.123 219.108 214.469C218.904 214.814 218.627 215.111 218.297 215.339C217.637 215.873 215.874 216.3 215.731 216.332C215.975 217.343 216.153 218.37 216.263 219.406C216.332 220.009 216.386 220.622 216.428 221.231C216.428 220.948 216.471 220.697 216.476 220.665C216.662 219.683 217.599 217.901 218.707 217.762C218.891 217.745 219.077 217.766 219.252 217.826C219.428 217.885 219.589 217.981 219.725 218.107C219.861 218.233 219.969 218.386 220.042 218.556C220.115 218.727 220.152 218.911 220.15 219.096C220.11 219.496 219.984 219.882 219.78 220.228C219.576 220.574 219.299 220.87 218.968 221.097C218.194 221.548 217.355 221.875 216.481 222.069L216.529 222.773C216.593 223.905 216.657 225.031 216.748 226.13C216.78 226.52 216.827 226.899 216.875 227.283C216.875 227.032 216.913 226.819 216.918 226.787C217.104 225.81 218.041 224.022 219.143 223.889C219.328 223.871 219.515 223.892 219.691 223.951C219.867 224.01 220.028 224.106 220.165 224.231C220.302 224.357 220.41 224.511 220.484 224.682C220.557 224.852 220.594 225.037 220.592 225.223C220.592 226.007 219.99 226.76 219.41 227.224C218.658 227.666 217.843 227.989 216.992 228.179C217.051 228.569 217.11 228.959 217.184 229.332C217.237 229.588 217.275 229.834 217.344 230.09L217.536 230.837C217.679 231.307 217.818 231.793 217.967 232.246C218.068 232.566 218.169 232.865 218.27 233.169C218.233 232.785 218.174 232.027 218.174 231.963C218.241 231.087 218.529 230.243 219.01 229.508C219.015 229.411 219.027 229.315 219.048 229.22C219.082 229.038 219.155 228.865 219.26 228.713C219.366 228.56 219.502 228.432 219.66 228.335C219.818 228.239 219.994 228.177 220.177 228.152C220.361 228.128 220.547 228.143 220.725 228.195C221.79 228.548 222.354 230.485 222.322 231.483C222.322 231.542 222.242 232.177 222.189 232.577C222.258 232.348 222.322 232.123 222.397 231.883C222.535 231.414 222.689 230.949 222.854 230.448C222.945 230.213 223.03 229.967 223.121 229.727C223.211 229.487 223.328 229.236 223.43 228.985C223.674 228.42 223.962 227.854 224.249 227.288C223.39 227.06 222.571 226.7 221.822 226.221C221.507 225.977 221.249 225.667 221.065 225.313C220.881 224.959 220.776 224.57 220.757 224.171C220.762 223.986 220.807 223.803 220.888 223.636C220.968 223.469 221.083 223.321 221.225 223.201C221.367 223.081 221.532 222.992 221.71 222.941C221.888 222.889 222.075 222.876 222.258 222.901C223.36 223.088 224.212 224.913 224.356 225.901C224.356 225.965 224.388 226.685 224.388 227.08C224.569 226.744 224.745 226.408 224.92 226.071C225.479 225.1 226.07 224.139 226.656 223.173L227.188 222.288C227.045 222.245 225.309 221.754 224.675 221.183C224.361 220.937 224.103 220.626 223.919 220.272C223.736 219.917 223.63 219.527 223.611 219.128C223.616 218.943 223.661 218.76 223.741 218.593C223.822 218.426 223.937 218.278 224.079 218.159C224.221 218.04 224.386 217.951 224.564 217.901C224.742 217.85 224.929 217.837 225.112 217.863C226.214 218.05 227.066 219.875 227.21 220.863C227.21 220.937 227.247 221.973 227.247 222.234C227.636 221.583 228.014 220.932 228.365 220.27C228.843 219.384 229.262 218.468 229.622 217.527C229.552 217.527 227.737 216.993 227.093 216.412C226.777 216.167 226.518 215.857 226.334 215.502C226.15 215.147 226.045 214.756 226.028 214.357C226.035 214.171 226.081 213.99 226.162 213.823C226.244 213.656 226.359 213.509 226.501 213.39C226.643 213.27 226.809 213.182 226.986 213.131C227.164 213.08 227.351 213.067 227.535 213.092C228.631 213.279 229.483 215.104 229.627 216.091C229.627 216.171 229.67 217.287 229.664 217.49C229.664 217.436 229.712 217.378 229.728 217.324C230.062 216.37 230.311 215.387 230.474 214.389C230.569 213.855 230.628 213.322 230.676 212.788C229.782 212.65 228.914 212.375 228.104 211.971C227.759 211.766 227.463 211.488 227.237 211.156C227.011 210.824 226.86 210.447 226.794 210.05C226.781 209.865 226.806 209.679 226.869 209.505C226.932 209.331 227.03 209.171 227.158 209.037C227.286 208.904 227.441 208.798 227.612 208.728C227.783 208.658 227.967 208.625 228.152 208.63C229.265 208.694 230.314 210.413 230.559 211.379C230.559 211.432 230.655 211.982 230.708 212.382C230.708 212.147 230.745 211.907 230.761 211.683C230.809 210.84 230.804 210.082 230.788 209.378C230.788 208.983 230.761 208.63 230.745 208.31C230.02 207.774 229.379 207.132 228.844 206.405C228.634 206.063 228.501 205.679 228.454 205.28C228.407 204.88 228.448 204.476 228.573 204.094C228.644 203.923 228.751 203.769 228.886 203.643C229.021 203.516 229.182 203.419 229.357 203.359C229.532 203.299 229.718 203.277 229.902 203.294C230.086 203.312 230.265 203.368 230.426 203.459C231.384 204.03 231.528 206.037 231.304 207.013C231.304 207.093 230.83 208.374 230.814 208.364C230.814 208.684 230.862 209.02 230.878 209.394C230.905 210.082 230.926 210.861 230.878 211.71C230.853 212.623 230.775 213.533 230.644 214.437C230.504 215.452 230.274 216.452 229.957 217.426C229.959 217.438 229.959 217.451 229.957 217.463C230.149 217.196 230.708 216.47 230.756 216.422C231.453 215.707 233.216 214.736 234.216 215.237C234.38 215.325 234.523 215.446 234.636 215.593C234.75 215.739 234.831 215.908 234.875 216.088C234.919 216.268 234.925 216.456 234.892 216.638C234.86 216.821 234.789 216.995 234.685 217.148C234.431 217.459 234.113 217.71 233.753 217.885C233.392 218.06 232.998 218.155 232.598 218.162C231.762 218.237 230.048 217.628 229.936 217.575C229.588 218.557 229.175 219.514 228.701 220.441C228.429 220.975 228.136 221.508 227.838 222.042C228.008 221.818 228.168 221.615 228.189 221.594C228.887 220.879 230.649 219.907 231.645 220.404C231.808 220.491 231.952 220.611 232.066 220.758C232.18 220.904 232.262 221.073 232.307 221.253C232.351 221.433 232.358 221.621 232.325 221.804C232.293 221.986 232.223 222.16 232.119 222.314C231.865 222.625 231.547 222.878 231.187 223.054C230.827 223.23 230.432 223.325 230.032 223.334C229.136 223.282 228.254 223.091 227.417 222.768L227.071 223.382C226.507 224.358 225.937 225.33 225.41 226.301C225.224 226.642 225.053 226.989 224.878 227.331L225.187 226.941C225.884 226.231 227.646 225.26 228.642 225.757C228.806 225.844 228.949 225.964 229.063 226.111C229.177 226.257 229.259 226.426 229.304 226.606C229.348 226.786 229.355 226.974 229.322 227.157C229.29 227.339 229.22 227.513 229.116 227.667C228.862 227.979 228.543 228.232 228.182 228.408C227.82 228.584 227.425 228.679 227.023 228.686C226.155 228.64 225.298 228.46 224.484 228.153C224.319 228.51 224.154 228.868 224.01 229.22C223.914 229.466 223.808 229.695 223.728 229.946C223.648 230.197 223.557 230.432 223.477 230.672C223.334 231.141 223.185 231.627 223.057 232.091C222.966 232.412 222.886 232.716 222.801 233.025C222.982 232.684 223.334 232.022 223.387 231.958C223.967 231.147 225.565 229.919 226.624 230.261C226.799 230.322 226.959 230.419 227.094 230.546C227.229 230.673 227.336 230.827 227.407 230.998C227.479 231.17 227.513 231.354 227.508 231.54C227.504 231.725 227.46 231.908 227.38 232.075C227.177 232.422 226.9 232.72 226.57 232.949C226.24 233.177 225.864 233.331 225.469 233.399C224.675 233.591 222.956 233.265 222.743 233.228C222.61 233.735 222.482 234.237 222.37 234.712L222.306 235H221.555C221.593 234.851 221.63 234.701 221.673 234.552C221.806 234.018 221.96 233.484 222.125 232.908C221.616 232.669 221.122 232.4 220.645 232.102C219.945 232.627 219.176 233.055 218.361 233.372C218.531 233.874 218.702 234.36 218.867 234.819L218.931 234.973H218.228C218.057 234.482 217.887 233.959 217.695 233.42C217.482 233.452 215.747 233.692 214.964 233.468C214.572 233.383 214.203 233.213 213.884 232.969C213.565 232.726 213.303 232.415 213.116 232.059C213.044 231.888 213.009 231.704 213.013 231.518C213.016 231.332 213.059 231.149 213.138 230.981C213.217 230.813 213.33 230.663 213.47 230.542C213.611 230.421 213.775 230.33 213.952 230.277C215.017 229.983 216.567 231.286 217.11 232.123C217.142 232.171 217.424 232.748 217.599 233.111C217.53 232.881 217.461 232.657 217.392 232.417C217.248 231.947 217.126 231.478 216.987 230.965C216.927 230.72 216.868 230.469 216.811 230.213C216.748 229.967 216.71 229.679 216.657 229.428C216.551 228.82 216.471 228.19 216.407 227.56C215.561 227.84 214.678 227.987 213.787 227.998C213.387 227.972 212.998 227.859 212.646 227.667C212.294 227.476 211.988 227.21 211.748 226.888C211.651 226.731 211.587 226.555 211.562 226.373C211.536 226.19 211.548 226.003 211.598 225.826C211.649 225.648 211.735 225.482 211.853 225.34C211.97 225.198 212.116 225.081 212.281 224.999C213.303 224.55 215.017 225.596 215.677 226.344C215.72 226.392 216.135 226.979 216.359 227.304C216.322 226.925 216.284 226.546 216.258 226.162C216.189 225.047 216.151 223.915 216.109 222.789C216.109 222.442 216.109 222.101 216.066 221.754C215.917 221.802 214.187 222.33 213.356 222.223C212.957 222.196 212.568 222.083 212.217 221.89C211.866 221.697 211.56 221.431 211.322 221.108C211.224 220.952 211.16 220.777 211.134 220.594C211.108 220.411 211.12 220.225 211.17 220.047C211.221 219.87 211.307 219.705 211.425 219.563C211.543 219.421 211.689 219.306 211.855 219.224C212.877 218.771 214.591 219.822 215.257 220.564C215.305 220.622 215.901 221.471 216.039 221.69C216.008 220.932 215.965 220.179 215.896 219.438C215.806 218.432 215.651 217.434 215.432 216.449C215.363 216.449 213.558 217.031 212.712 216.924C211.972 216.823 211.061 216.497 210.673 215.809C210.575 215.652 210.51 215.477 210.484 215.294C210.458 215.112 210.471 214.925 210.521 214.748C210.571 214.57 210.658 214.405 210.776 214.263C210.894 214.122 211.04 214.006 211.205 213.925C212.227 213.471 213.942 214.522 214.607 215.264C214.655 215.323 215.299 216.236 215.401 216.412L215.369 216.236C215.121 215.256 214.787 214.301 214.373 213.38C214.149 212.847 213.904 212.393 213.66 211.934C212.838 212.312 211.963 212.562 211.067 212.676C210.669 212.69 210.274 212.619 209.906 212.467C209.539 212.315 209.208 212.086 208.937 211.795C208.823 211.648 208.742 211.479 208.698 211.299C208.654 211.118 208.649 210.931 208.682 210.748C208.715 210.565 208.786 210.392 208.891 210.238C208.995 210.085 209.131 209.955 209.288 209.858C210.252 209.298 212.073 210.151 212.813 210.819C212.85 210.856 213.218 211.267 213.484 211.576C213.367 211.368 213.255 211.155 213.143 210.963C212.717 210.232 212.286 209.586 211.897 209.02C211.674 208.7 211.466 208.417 211.269 208.15C210.37 208.108 209.483 207.928 208.639 207.616C208.275 207.448 207.952 207.202 207.693 206.896C207.434 206.59 207.244 206.232 207.137 205.845C207.104 205.657 207.11 205.465 207.157 205.281C207.204 205.097 207.29 204.925 207.41 204.777C207.529 204.629 207.679 204.509 207.848 204.424C208.018 204.339 208.204 204.292 208.394 204.286Z" fill="#A9E8CB"/>
<path id="Vector_5" d="M213.797 211.726C213.797 211.726 213.52 210.403 213.515 210.317C213.435 209.325 213.871 207.355 214.899 206.934C215.072 206.867 215.257 206.838 215.443 206.848C215.628 206.858 215.809 206.907 215.974 206.992C216.139 207.077 216.284 207.197 216.4 207.342C216.515 207.487 216.599 207.656 216.645 207.836C216.712 208.231 216.692 208.637 216.587 209.024C216.481 209.412 216.292 209.771 216.033 210.077C215.517 210.782 213.797 211.726 213.797 211.726Z" fill="#A9E8CB"/>
</g>
<g id="freepik--money-icons--inject-2">
<path id="Vector_6" d="M31.5853 86.1956V79.1029H43.8311V86.1956C54.4476 88.3784 59.889 96.5651 59.889 109.523V112.528H45.7371V108.573C45.7371 101.747 43.0164 99.1589 38.2512 99.1589C33.486 99.1589 30.7653 101.747 30.7653 108.573C30.7653 128.218 60.0487 129.173 60.0487 156.461C60.0487 169.419 54.4689 177.744 43.8523 179.943V186.881H31.6066V179.943C20.8515 177.76 15.4102 169.435 15.4102 156.461V149.913H29.5407V157.416C29.5407 164.237 32.5383 166.692 37.3035 166.692C42.0687 166.692 45.061 164.237 45.061 157.416C45.061 137.766 15.7775 136.811 15.7775 109.523C15.7935 96.6986 21.1018 88.5118 31.5853 86.1956Z" stroke="#443D78" stroke-width="0.376" stroke-miterlimit="10"/>
<path id="Vector_7" d="M217.396 60.4451V57.5525H222.396V60.4451C226.73 61.3363 228.955 64.6772 228.955 69.9661V71.1936H223.152V69.5925C223.152 66.812 222.044 65.7499 220.101 65.7499C218.158 65.7499 217.045 66.8173 217.045 69.5925C217.045 77.5978 228.987 78.0034 228.987 89.1415C228.987 94.4303 226.708 97.8299 222.374 98.7212V101.56H217.375V98.7212C212.988 97.8299 210.768 94.4517 210.768 89.1415V86.473H216.544V89.5418C216.544 92.3276 217.764 93.3256 219.712 93.3256C221.661 93.3256 222.875 92.3276 222.875 89.5418C222.875 81.5364 210.933 81.1308 210.933 69.9928C210.954 64.7359 213.121 61.395 217.396 60.4451Z" stroke="#443D78" stroke-width="0.376" stroke-miterlimit="10"/>
<path id="Vector_8" d="M183.753 180.851V178.993H186.947V180.851C189.727 181.427 191.153 183.567 191.153 186.961V187.741H187.426V186.7C187.426 184.917 186.713 184.234 185.467 184.234C184.221 184.234 183.508 184.917 183.508 186.7C183.508 191.85 191.169 192.095 191.169 199.242C191.169 202.636 189.705 204.819 186.91 205.39V207.21H183.715V205.39C180.899 204.819 179.456 202.636 179.456 199.242V197.528H183.183V199.482C183.183 201.27 183.971 201.915 185.217 201.915C186.463 201.915 187.251 201.27 187.251 199.482C187.251 194.337 179.584 194.086 179.584 186.94C179.637 183.604 181.027 181.459 183.753 180.851Z" stroke="#443D78" stroke-width="0.376" stroke-miterlimit="10"/>
<path id="Vector_9" d="M122.091 175.188V172.295H127.091V175.188C131.425 176.079 133.65 179.42 133.65 184.709V185.936H127.847V184.335C127.847 181.555 126.739 180.493 124.796 180.493C122.852 180.493 121.74 181.56 121.74 184.335C121.74 192.34 133.682 192.746 133.682 203.884C133.682 209.173 131.403 212.573 127.069 213.464V216.303H122.07V213.464C117.683 212.573 115.462 209.194 115.462 203.884V201.216H121.239V204.284C121.239 207.07 122.458 208.068 124.434 208.068C126.409 208.068 127.596 207.07 127.596 204.284C127.596 196.279 115.654 195.874 115.654 184.735C115.649 179.479 117.816 176.138 122.091 175.188Z" stroke="#443D78" stroke-width="0.376" stroke-miterlimit="10"/>
</g>
<g id="freepik--Clouds--inject-2">
<path id="Vector_10" d="M242.204 44.9267C242.678 42.2583 243.354 35.6139 239.329 32.3584C234.212 28.2223 230.581 35.6672 226.13 29.8767C221.679 24.0862 220.353 11.5232 207.181 11.6886C194.008 11.8541 192.965 19.2937 192.965 21.7647C192.965 24.2356 189.009 26.0342 188.173 26.0342C187.337 26.0342 182.726 23.8994 181.076 28.7026C179.425 33.5058 180.543 36.2756 177.924 36.377C175.304 36.4784 172.067 32.8921 168.479 34.6852C164.89 36.4784 164.906 40.2783 163.426 41.6232C161.946 42.9681 159.465 40.6305 156.164 41.9541C154.167 42.7546 153.56 44.0408 153.395 44.9321L242.204 44.9267Z" fill="white" stroke="#443D78" stroke-width="0.376" stroke-miterlimit="10"/>
<path id="Vector_11" d="M237.346 49.1585C237.58 47.8083 237.927 44.4621 235.893 42.8183C233.316 40.7316 231.484 44.4888 229.237 41.5695C226.99 38.6502 226.325 32.31 219.654 32.3954C212.982 32.4808 212.503 36.2273 212.503 37.4814C212.503 38.7356 210.507 39.6482 210.091 39.6482C209.676 39.6482 207.344 38.5808 206.513 40.9824C205.683 43.384 206.247 44.8036 204.916 44.8517C203.585 44.8997 201.95 43.0958 200.151 43.9978C198.351 44.8997 198.351 46.821 197.606 47.4881C196.861 48.1552 195.609 46.9864 193.943 47.6535C193.598 47.7587 193.288 47.9533 193.043 48.2176C192.798 48.4819 192.627 48.8066 192.548 49.1585H237.346Z" fill="white" stroke="#443D78" stroke-width="0.376" stroke-miterlimit="10"/>
<path id="Vector_12" d="M86.6757 21.765C86.9047 20.4788 87.2082 17.282 85.2914 15.7129C82.8316 13.7223 81.0853 17.314 78.9396 14.5175C76.7939 11.7209 76.1603 5.66892 69.8138 5.75431C63.4673 5.8397 62.9828 9.42075 62.9828 10.6109C62.9828 11.801 61.066 12.6923 60.672 12.6923C60.278 12.6923 58.0472 11.6569 57.2539 13.9678C56.4606 16.2786 56.9983 17.6129 55.7365 17.6609C54.4746 17.7089 52.9039 15.9851 51.1895 16.8443C49.4751 17.7036 49.4698 19.5128 48.7563 20.1799C48.0429 20.847 46.8503 19.6996 45.2583 20.3347C44.9306 20.4348 44.635 20.6197 44.4013 20.8708C44.1676 21.1219 44.0041 21.4303 43.9272 21.765H86.6757Z" fill="white" stroke="#443D78" stroke-width="0.376" stroke-miterlimit="10"/>
<path id="Vector_13" d="M42.5586 52.0249C42.6917 51.2671 42.8833 49.3565 41.7386 48.4545C40.2851 47.2751 39.2522 49.3938 38.0116 47.7501C36.7711 46.1063 36.3718 42.5253 32.6182 42.5733C28.8646 42.6213 28.5824 44.7401 28.5824 45.4445C28.5824 46.149 27.4536 46.6667 27.2194 46.6667C26.9851 46.6667 25.6753 46.0529 25.2015 47.4192C24.7276 48.7854 25.0524 49.5539 24.307 49.602C23.5616 49.65 22.6352 48.6093 21.6449 49.1216C20.6546 49.634 20.6279 50.7227 20.2073 51.0856C19.7867 51.4485 19.0786 50.8028 18.1415 51.1817C17.9475 51.2398 17.7723 51.3485 17.6339 51.4966C17.4955 51.6448 17.3987 51.8271 17.3535 52.0249H42.5586Z" fill="white" stroke="#443D78" stroke-width="0.376" stroke-miterlimit="10"/>
</g>
<g id="freepik--Character--inject-2">
<path id="Vector_14" d="M195.849 152.443C195.849 152.443 199.235 151.247 201.03 151.247C202.282 151.313 203.506 151.654 204.613 152.245L204.81 156.835L202.622 157.636C202.622 157.636 202.425 159.632 203.218 160.229C203.766 160.714 204.179 161.334 204.416 162.028C205.481 165.23 202.888 169.676 201.344 172.328C198.836 176.635 197.143 177.158 196.355 171.64C196.041 169.457 195.711 167.018 196.051 164.819C196.306 163.328 196.098 161.795 195.455 160.427L194.459 153.441L195.849 152.443Z" fill="#443D78" stroke="#443D78" stroke-width="0.376" stroke-miterlimit="10"/>
<path id="Vector_15" d="M143.676 130.888C143.676 130.888 153.036 162.029 154.031 165.044C154.698 166.981 155.558 168.846 156.598 170.61L196.429 162.226L195.827 152.444L167.779 153.052L169.376 128.903L143.287 129.5L143.676 130.888Z" fill="#443D78" stroke="#443D78" stroke-width="0.376" stroke-miterlimit="10"/>
<path id="Vector_16" d="M124.061 103.419C124.061 103.419 126.749 107.31 128.852 108.81C130.955 110.309 135.124 107.011 135.124 107.011L127.67 86.0532C127.67 86.0532 124.359 98.9525 124.061 103.419Z" fill="#A9E8CB" stroke="#443D78" stroke-width="0.376" stroke-miterlimit="10"/>
<path id="Vector_17" d="M125.754 85.9727L132.324 108.329C132.324 108.329 132.526 110.928 136.706 112.326C140.885 113.724 161.996 114.717 164.983 114.119C167.97 113.522 170.558 110.127 169.562 108.532C168.566 106.936 162.592 92.7452 162.592 92.7452L161.389 69.2096C161.389 69.2096 153.823 64.0168 150.235 63.8193C146.646 63.6219 140.081 64.6199 139.485 64.6199C138.889 64.6199 126.936 66.8133 126.542 70.8053C126.148 74.7973 125.754 85.9727 125.754 85.9727Z" fill="white" stroke="#443D78" stroke-width="0.376" stroke-miterlimit="10"/>
<path id="Vector_18" d="M135.381 77.1669L131.872 83.79L129.977 75.1336L131.324 69.5939L141.158 62.4318L143.75 62.2664C144.597 63.0549 145.235 64.0414 145.609 65.1376C146.285 67.0269 146.141 68.6493 146.285 69.1936C146.429 69.738 143.452 84.0622 143.452 84.0622L135.381 77.1669Z" fill="white" stroke="#443D78" stroke-width="0.376" stroke-miterlimit="10"/>
<path id="Vector_19" d="M132.724 68.4094C132.724 68.4094 127.746 86.7736 127.149 92.5642C126.553 98.3547 126.75 108.329 126.75 108.329C126.75 108.329 121.958 104.14 121.373 101.146C120.787 98.1519 121.176 88.3694 120.776 87.3714C120.377 86.3734 116.794 83.5822 116.794 83.5822C116.794 83.5822 104.447 88.5722 103.052 89.5702C101.657 90.5682 97.4774 93.7596 94.4905 92.7723C91.5036 91.785 88.2717 87.5849 89.9702 82.9898C91.1788 79.7236 102.259 77.2046 102.259 77.2046L112.811 71.6169C112.811 71.6169 118.785 63.4301 121.176 62.2347C123.566 61.0392 132.724 68.4094 132.724 68.4094Z" fill="#A9E8CB" stroke="#443D78" stroke-width="0.376" stroke-miterlimit="10"/>
<path id="Vector_20" d="M103.888 82.6418C104.326 83.1079 104.708 83.6238 105.027 84.1789" stroke="#443D78" stroke-width="0.376" stroke-miterlimit="10"/>
<path id="Vector_21" d="M97.0771 80.3852C98.1442 80.228 99.2318 80.2863 100.276 80.5567C101.32 80.8271 102.3 81.3041 103.157 81.9596" stroke="#443D78" stroke-width="0.376" stroke-miterlimit="10"/>
<path id="Vector_22" d="M132.724 68.4088C132.724 68.4088 131.382 67.3414 129.593 66.0605L124.759 74.3968L126.154 77.5989L123.763 81.7883L126.553 104.945L126.718 105.26C126.718 101.844 126.761 96.326 127.149 92.5688C127.746 86.773 132.724 68.4088 132.724 68.4088Z" fill="#A9E8CB" stroke="#443D78" stroke-width="0.376" stroke-miterlimit="10"/>
<path id="Vector_23" d="M113.12 79.7448L112.013 78.592" stroke="#443D78" stroke-width="0.376" stroke-miterlimit="10"/>
<path id="Vector_24" d="M116.795 83.5813L114.324 80.9983" stroke="#443D78" stroke-width="0.376" stroke-miterlimit="10"/>
<path id="Vector_25" d="M125.244 42.3863C125.244 42.3863 122.337 49.3243 122.614 50.1568C122.891 50.9894 121.368 53.3589 121.506 55.1575C121.645 56.956 120.814 65.7085 121.368 66.4023C121.922 67.0961 121.783 67.2348 123.583 67.3736C125.382 67.5124 129.12 67.5124 129.12 67.5124L136.185 79.0347L143.107 65.431L143.522 62.6558C143.522 62.6558 147.398 56.6838 147.813 54.7412C148.229 52.7986 148.921 46.1328 147.398 43.7739C145.875 41.415 142.276 38.2182 137.011 36.9694C133.839 36.2186 130.522 36.3627 127.427 37.3857C127.427 37.3857 128.534 34.4717 126.735 35.5818C124.935 36.6919 123.998 41.2762 125.244 42.3863Z" fill="white" stroke="#443D78" stroke-width="0.376" stroke-miterlimit="10"/>
<path id="Vector_26" d="M123.056 48.6526C123.056 48.6526 124.147 48.77 125.393 50.1576" stroke="#443D78" stroke-width="0.376" stroke-miterlimit="10"/>
<path id="Vector_27" d="M125.934 51.2664L123.304 58.4872L125.934 58.7647" stroke="#443D78" stroke-width="0.376" stroke-miterlimit="10"/>
<path id="Vector_28" d="M130.913 53.1614C130.817 53.8445 130.46 54.3622 130.119 54.3088C129.779 54.2554 129.587 53.6684 129.683 52.9853C129.779 52.3021 130.135 51.7898 130.476 51.8378C130.817 51.8859 131.041 52.4783 130.913 53.1614Z" fill="#443D78"/>
<path id="Vector_29" d="M124.268 52.0404C124.183 52.7235 123.842 53.2465 123.496 53.2038C123.15 53.1611 122.964 52.5741 123.033 51.8856C123.102 51.1972 123.459 50.6795 123.8 50.7222C124.14 50.7649 124.353 51.3519 124.268 52.0404Z" fill="#443D78"/>
<path id="Vector_30" d="M129.12 67.5126L136.046 66.2638L138.677 63.3499L133.416 74.1784L129.12 67.5126Z" fill="#443D78" stroke="#443D78" stroke-width="0.376" stroke-miterlimit="10"/>
<path id="Vector_31" d="M127.799 50.6154C127.799 50.6154 130.78 49.3239 133.693 50.434" stroke="#443D78" stroke-width="0.376" stroke-miterlimit="10"/>
<path id="Vector_32" d="M123.581 60.291L126.349 60.5685" stroke="#443D78" stroke-width="0.376" stroke-miterlimit="10"/>
<path id="Vector_33" d="M129.12 55.1577L131.617 55.2965" stroke="#443D78" stroke-width="0.376" stroke-miterlimit="10"/>
<path id="Vector_34" d="M123.583 53.9085L122.475 53.4922" stroke="#443D78" stroke-width="0.376" stroke-miterlimit="10"/>
<path id="Vector_35" d="M147.818 54.7412C148.233 52.7986 148.926 46.1328 147.403 43.7739C145.88 41.415 142.281 38.2182 137.015 36.9694C133.844 36.2186 130.526 36.3627 127.432 37.3857C127.432 37.3857 128.539 34.4717 126.739 35.5818C124.94 36.6919 123.971 41.2762 125.217 42.3863C125.217 42.3863 127.57 44.884 128.816 44.884C130.062 44.884 133.805 44.3503 135.737 44.3503C137.67 44.3503 138.506 45.5991 138.644 46.2929C138.783 46.9867 136.153 49.495 136.568 50.872C136.983 52.2489 139.198 52.4036 139.198 52.4036C139.198 52.4036 137.814 56.8439 138.783 56.8439C139.752 56.8439 140.029 57.2602 140.444 56.1501C140.859 55.0401 142.664 52.8199 143.495 53.7912C144.325 54.7625 144.187 57.399 143.772 58.509C143.356 59.6191 140.721 59.8966 140.721 60.3129C140.721 60.7292 142.941 62.5384 142.941 62.5384L143.74 62.2875C144.634 60.9106 147.467 56.385 147.818 54.7412Z" fill="#443D78" stroke="#443D78" stroke-width="0.376" stroke-miterlimit="10"/>
<path id="Vector_36" d="M105.66 87.7443C105.66 87.7443 107.614 90.3753 108.04 91.0585C108.334 91.6361 108.394 92.3058 108.205 92.9264C108.12 93.2679 105.069 94.7996 104.223 95.1412C103.376 95.4827 103.456 93.2679 104.052 92.6755C104.648 92.0831 105.154 90.3753 105.154 90.3753C105.154 90.3753 104.728 88.0805 104.728 87.5735C104.728 87.0665 105.66 87.7443 105.66 87.7443Z" fill="white" stroke="#443D78" stroke-width="0.376" stroke-miterlimit="10"/>
<path id="Vector_37" d="M103.851 84.5802C103.851 84.5802 95.29 88.5722 95.29 89.7677C95.29 90.9631 95.684 93.5622 96.8873 94.3574C98.0906 95.1526 106.045 92.7563 106.444 91.5662C106.844 90.3761 105.044 84.3774 103.851 84.5802Z" fill="white" stroke="#443D78" stroke-width="0.376" stroke-miterlimit="10"/>
<path id="Vector_38" d="M101.759 85.8079C101.759 85.8079 103.963 89.7198 104.469 92.6124" stroke="#443D78" stroke-width="0.376" stroke-miterlimit="10"/>
<path id="Vector_39" d="M99.0469 87.1472C99.0469 87.1472 101.251 91.1445 101.847 93.5515" stroke="#443D78" stroke-width="0.376" stroke-miterlimit="10"/>
<path id="Vector_40" d="M96.5874 88.5076L99.0472 94.1166" stroke="#443D78" stroke-width="0.376" stroke-miterlimit="10"/>
<path id="Vector_41" d="M204.711 112.868L190.408 116.429L192.568 125.146L206.871 121.585L204.711 112.868Z" stroke="#443D78" stroke-width="1.128" stroke-miterlimit="10"/>
<path id="Vector_42" d="M219.335 115.073L177.617 124.835C175.902 125.236 174.836 126.955 175.237 128.675L181.067 153.709C181.467 155.429 183.183 156.497 184.898 156.096L226.615 146.334C228.33 145.933 229.396 144.213 228.996 142.494L223.166 117.459C222.765 115.74 221.05 114.672 219.335 115.073Z" fill="#A6A6A6" stroke="#443D78" stroke-width="0.376" stroke-miterlimit="10"/>
<path id="Vector_43" d="M195.252 108.531L193.063 114.716L195.252 120.309L198.835 120.107L199.234 118.708L203.419 115.517L201.625 107.335L195.252 108.531Z" fill="white" stroke="#443D78" stroke-width="0.376" stroke-miterlimit="10"/>
<path id="Vector_44" d="M192.862 105.938L194.46 109.93L201.626 107.336L200.231 103.739L192.862 105.938Z" fill="white" stroke="#443D78" stroke-width="0.376" stroke-miterlimit="10"/>
<path id="Vector_45" d="M209.942 230.991H97.7866V234.759H209.942V230.991Z" fill="white" stroke="#443D78" stroke-width="0.376" stroke-miterlimit="10"/>
<path id="Vector_46" d="M169.462 150.074H166.427V233.58H169.462V150.074Z" fill="white" stroke="#443D78" stroke-width="0.376" stroke-miterlimit="10"/>
<path id="Vector_47" d="M177.628 139.069H50.8838V150.287H177.628V139.069Z" fill="white" stroke="#443D78" stroke-width="0.376" stroke-miterlimit="10"/>
<path id="Vector_48" d="M175.323 139.069H48.5791V150.287H175.323V139.069Z" fill="white" stroke="#443D78" stroke-width="0.376" stroke-miterlimit="10"/>
<path id="Vector_49" d="M101.658 139.069H94.4917V150.287H101.658V139.069Z" fill="#A9E8CB" stroke="#443D78" stroke-width="0.376" stroke-miterlimit="10"/>
<path id="Vector_50" d="M71.789 139.069H64.6226V150.287H71.789V139.069Z" fill="#A9E8CB" stroke="#443D78" stroke-width="0.376" stroke-miterlimit="10"/>
<path id="Vector_51" d="M131.527 139.069H124.36V150.287H131.527V139.069Z" fill="#A9E8CB" stroke="#443D78" stroke-width="0.376" stroke-miterlimit="10"/>
<path id="Vector_52" d="M161.395 139.069H154.229V150.287H161.395V139.069Z" fill="#A9E8CB" stroke="#443D78" stroke-width="0.376" stroke-miterlimit="10"/>
<path id="Vector_53" d="M171.086 151.584H164.809L165.437 143.397H170.458L171.086 151.584Z" fill="#443D78" stroke="#443D78" stroke-width="0.376" stroke-miterlimit="10"/>
<path id="Vector_54" d="M60.7926 150.074H57.7578V233.58H60.7926V150.074Z" fill="white" stroke="#443D78" stroke-width="0.376" stroke-miterlimit="10"/>
<path id="Vector_55" d="M169.679 230.991H57.5239V234.759H169.679V230.991Z" fill="white" stroke="#443D78" stroke-width="0.376" stroke-miterlimit="10"/>
<path id="Vector_56" d="M62.4165 151.584H56.1392L56.7674 143.397H61.7882L62.4165 151.584Z" fill="#443D78" stroke="#443D78" stroke-width="0.376" stroke-miterlimit="10"/>
<path id="Vector_57" d="M93.7724 149.951L92.1751 152.545C92.1751 152.545 72.8587 148.553 73.0557 150.549C73.2527 152.545 81.8194 158.554 85.0033 160.727C86.8901 162.034 88.8893 163.169 90.9772 164.121L90.3808 165.119L95.1727 168.321C95.1727 168.321 98.3672 165.327 99.3522 162.931C100.337 160.534 100.151 155.544 100.151 155.544L93.7724 149.951Z" fill="#443D78" stroke="#443D78" stroke-width="0.376" stroke-miterlimit="10"/>
<path id="Vector_58" d="M169.961 112.923L159.206 112.721C159.206 112.721 140.289 108.729 131.52 106.935C122.75 105.142 115.786 104.737 114.791 105.735C113.795 106.733 92.3862 150.746 92.3862 150.746L101.347 157.534L124.651 123.202C124.651 123.202 146.481 135.877 156.597 135.877C166.713 135.877 170.339 133.284 172.926 127.093C175.514 120.902 173.725 114.519 173.725 114.519L169.961 112.923Z" fill="#443D78" stroke="#443D78" stroke-width="0.376" stroke-miterlimit="10"/>
<path id="Vector_59" d="M145.268 63.019C145.268 63.019 148.463 90.7708 149.65 95.9582C150.837 101.146 152.844 104.337 153.632 104.94C154.42 105.543 172.156 114.12 172.156 114.12C172.156 114.12 165.766 98.7494 166.182 97.7514C166.597 96.7534 166.379 81.9809 166.379 81.9809L182.687 84.2064L192.047 107.358L201.008 104.156L191.813 75.6034C191.515 74.6728 191.008 73.8229 190.331 73.119C189.655 72.415 188.827 71.8756 187.91 71.542L167.949 64.2358L163.589 61.6101C162.544 60.9838 161.317 60.7352 160.112 60.9056L145.268 63.019Z" fill="#A9E8CB" stroke="#443D78" stroke-width="0.376" stroke-miterlimit="10"/>
<path id="Vector_60" d="M160.246 80.8281L166.38 81.9809L161.002 83.107" stroke="#443D78" stroke-width="0.376" stroke-miterlimit="10"/>
<path id="Vector_61" d="M163.271 62.6399C162.712 63.4266 162.323 64.321 162.128 65.2663C161.933 66.2117 161.936 67.1874 162.137 68.1315C162.893 71.1682 162.893 66.4291 164.974 64.3424" stroke="#443D78" stroke-width="0.376" stroke-miterlimit="10"/>
<path id="Vector_62" d="M148.654 77.3912L153.632 74.1891L149.996 62.3252L145.268 62.9976C145.268 62.9976 148.463 90.7494 149.65 95.9369C150.837 101.124 152.844 104.316 153.632 104.919L154.032 79.5687L148.654 77.3912Z" fill="#A9E8CB" stroke="#443D78" stroke-width="0.376" stroke-miterlimit="10"/>
<path id="Vector_63" d="M155.028 106.136C155.028 106.136 184.897 107.935 186.691 107.935C188.485 107.935 187.687 109.931 186.691 113.522C185.696 117.114 182.309 121.309 182.309 121.309L155.028 106.136Z" fill="#A9E8CB" stroke="#443D78" stroke-width="0.376" stroke-miterlimit="10"/>
<path id="Vector_64" d="M174.801 91.9768C174.801 91.9768 160.857 93.8127 155.974 94.6026C151.092 95.3924 143.302 91.3578 142.078 89.8741C141.023 88.4552 140.067 86.9644 139.219 85.4125L140.347 81.3991L135.38 77.167L133.666 80.4065L137.446 85.4125C137.446 85.4125 138.676 93.2524 144.665 97.4418C150.655 101.631 152.024 102.442 159.515 100.687C167.006 98.9308 176.978 99.4111 176.978 99.4111L179.838 94.5439L174.801 91.9768Z" fill="#443D78" stroke="#443D78" stroke-width="0.376" stroke-miterlimit="10"/>
</g>
<g id="freepik--speech-bubble--inject-2">
<path id="Vector_65" d="M95.6302 63.5625C105.532 59.2919 110.106 47.7835 105.845 37.8578C101.585 27.9321 90.1038 23.3477 80.2016 27.6183C70.2993 31.8888 65.7258 43.3972 69.9863 53.3229C74.2467 63.2487 85.7279 67.8331 95.6302 63.5625Z" fill="white" stroke="#443D78" stroke-width="0.376" stroke-miterlimit="10"/>
<path id="Vector_66" d="M86.7747 33.287V31.4031H90.0438V33.287C92.8656 33.8687 94.3032 36.0462 94.3032 39.4885V40.289H90.5389V39.2216C90.5389 37.4071 89.8148 36.7186 88.5476 36.7186C87.2805 36.7186 86.5617 37.4071 86.5617 39.2216C86.5617 44.4411 94.3404 44.6972 94.3404 51.9501C94.3404 55.3977 92.855 57.6072 90.0331 58.1889V60.0408H86.7747V58.1889C83.9155 57.6072 82.4727 55.3977 82.4727 51.9501V50.2102H86.2316V52.2062C86.2316 54.0154 87.0302 54.6719 88.2974 54.6719C89.5646 54.6719 90.3579 54.0154 90.3579 52.2062C90.3579 46.9814 82.5791 46.7253 82.5791 39.4724C82.5898 36.0782 83.9901 33.9061 86.7747 33.287Z" fill="#443D78"/>
<path id="Vector_67" d="M112.73 46.6834C112.686 47.0318 112.542 47.3602 112.317 47.629C112.091 47.8977 111.793 48.0956 111.458 48.1987C111.123 48.3018 110.765 48.3058 110.428 48.2103C110.091 48.1147 109.788 47.9237 109.557 47.6601C109.325 47.3964 109.174 47.0714 109.123 46.724C109.071 46.3766 109.12 46.0216 109.264 45.7016C109.409 45.3815 109.642 45.1101 109.937 44.9198C110.231 44.7294 110.575 44.6284 110.925 44.6287C111.436 44.6616 111.913 44.8965 112.252 45.2817C112.59 45.667 112.762 46.1711 112.73 46.6834Z" fill="white" stroke="#443D78" stroke-width="0.376" stroke-miterlimit="10"/>
<path id="Vector_68" d="M116.831 47.6484C116.808 47.9294 116.704 48.1976 116.532 48.4204C116.359 48.6432 116.126 48.8109 115.86 48.903C115.594 48.995 115.308 49.0076 115.035 48.939C114.762 48.8704 114.515 48.7237 114.324 48.5168C114.133 48.3099 114.006 48.0517 113.959 47.7737C113.912 47.4958 113.947 47.2102 114.059 46.9517C114.172 46.6932 114.356 46.4731 114.591 46.3182C114.826 46.1633 115.101 46.0803 115.382 46.0793C115.782 46.096 116.158 46.2704 116.429 46.5644C116.701 46.8584 116.845 47.2481 116.831 47.6484Z" fill="white" stroke="#443D78" stroke-width="0.376" stroke-miterlimit="10"/>
</g>
<g id="freepik--Floor--inject-2">
<path id="Vector_69" d="M234.865 234.973H251.37" stroke="#443D78" stroke-width="0.376" stroke-miterlimit="10"/>
<path id="Vector_70" d="M4.32471 234.973H230.073" stroke="#443D78" stroke-width="0.376" stroke-miterlimit="10"/>
</g>
</g>
</svg>
