<svg width="216" height="235" viewBox="0 0 216 235" fill="none" xmlns="http://www.w3.org/2000/svg">
<g id="Group 6523">
<g id="freepik--background-simple--inject-304">
<path id="Vector" opacity="0.7" d="M16.9941 75.006C16.9941 75.006 3.05896 111.905 22.6421 149.06C42.2252 186.215 82.5611 205.844 114.845 222.627C147.128 239.411 180.652 231.237 196.581 203.747C212.51 176.258 190.663 156.635 190.633 117.435C190.603 78.2347 196.356 67.8568 175.638 34.74C154.921 1.62319 104.133 -5.71047 65.727 18.853C27.3204 43.4164 16.9941 75.006 16.9941 75.006Z" fill="white"/>
<path id="Vector_2" d="M80.0071 1.88493C63.013 4.74972 46.7837 11.0635 32.9786 21.9744C12.8956 37.8614 1.75952 61.5741 0.594931 87.3778C-0.1698 104.413 3.79381 121.022 8.59212 137.197C14.75 157.983 18.7286 181.706 31.5991 199.494C51.642 227.168 90.3734 238.843 122.767 233.892C143.695 230.689 165.807 218.518 172.25 196.481C174.634 188.327 175.793 179.569 179.867 172.03C184.75 163 193.602 157.727 200.325 150.373C208.632 141.291 211.976 129.976 214.045 118.009C218.573 91.8108 212.391 64.0597 197.461 42.3252C181.881 19.6528 158.769 7.47615 132.529 2.69978C129.65 2.18729 126.756 1.73118 123.852 1.35707C109.437 -0.503257 94.452 -0.564754 80.0071 1.88493Z" fill="#92E3A9"/>
<path id="Vector_3" opacity="0.7" d="M80.0071 1.88493C63.013 4.74972 46.7837 11.0635 32.9786 21.9744C12.8956 37.8614 1.75952 61.5741 0.594931 87.3778C-0.1698 104.413 3.79381 121.022 8.59212 137.197C14.75 157.983 18.7286 181.706 31.5991 199.494C51.642 227.168 90.3734 238.843 122.767 233.892C143.695 230.689 165.807 218.518 172.25 196.481C174.634 188.327 175.793 179.569 179.867 172.03C184.75 163 193.602 157.727 200.325 150.373C208.632 141.291 211.976 129.976 214.045 118.009C218.573 91.8108 212.391 64.0597 197.461 42.3252C181.881 19.6528 158.769 7.47615 132.529 2.69978C129.65 2.18729 126.756 1.73118 123.852 1.35707C109.437 -0.503257 94.452 -0.564754 80.0071 1.88493Z" fill="white"/>
</g>
<g id="freepik--Note--inject-304">
<path id="Vector_4" opacity="0.2" d="M83.6465 185.482L125.492 177.483C125.492 177.483 134.958 208.109 136.868 212.07L135.868 214.474L136.498 218.497L94.9125 228.193L91.5787 225.497L83.6465 185.482Z" fill="black" fill-opacity="0.7"/>
<path id="Vector_5" d="M122.452 174.203L81.999 184.02L91.5796 225.496L132.032 215.679L122.452 174.203Z" fill="#92E3A9"/>
<g id="Clip path group">
<mask id="mask0_493_5774" style="mask-type:luminance" maskUnits="userSpaceOnUse" x="81" y="174" width="52" height="52">
<g id="freepik--clip-path--inject-304">
<path id="Vector_6" d="M122.45 174.202L81.9971 184.019L91.5776 225.495L132.031 215.679L122.45 174.202Z" fill="white"/>
</g>
</mask>
<g mask="url(#mask0_493_5774)">
<g id="Group">
<path id="Vector_7" opacity="0.2" d="M125.036 185.389L131.748 214.452L93.1719 223.816C88.5235 211.89 84.9697 196.874 84.9697 196.874L125.036 185.389Z" fill="black" fill-opacity="0.7"/>
</g>
</g>
</g>
<path id="Vector_8" d="M122.452 174.203L81.999 184.02L91.5796 225.496L132.032 215.679L122.452 174.203Z" stroke="#443D78" stroke-width="0.467641" stroke-linecap="round" stroke-linejoin="round"/>
<path id="Vector_9" d="M133.294 213.034C123.182 215.488 108.862 217.795 100.225 219.096C95.7269 219.773 92.7279 220.173 92.7279 220.173C88.8993 212.998 81.9917 184.022 81.9917 184.022L122.442 174.203C122.522 174.556 122.592 174.91 122.667 175.258C127.491 197.669 133.294 213.034 133.294 213.034Z" fill="white"/>
<g id="Clip path group_2">
<mask id="mask1_493_5774" style="mask-type:luminance" maskUnits="userSpaceOnUse" x="81" y="174" width="53" height="47">
<g id="freepik--clip-path-2--inject-304">
<path id="Vector_10" d="M133.295 213.034C123.184 215.488 108.864 217.795 100.227 219.096C95.7283 219.773 92.7294 220.173 92.7294 220.173C88.9007 212.998 81.9932 184.022 81.9932 184.022L122.444 174.203C122.524 174.556 122.594 174.91 122.669 175.258C127.492 197.669 133.295 213.034 133.295 213.034Z" fill="white"/>
</g>
</mask>
<g mask="url(#mask1_493_5774)">
<g id="Group_2">
<path id="Vector_11" opacity="0.4" d="M133.294 213.034C123.183 215.489 108.863 217.795 100.226 219.097C93.7283 214.674 92.1739 210.338 92.2539 206.202C92.3388 201.293 113.202 206.09 117.56 201.226C120.669 197.757 120.559 183.033 122.678 175.259C127.491 197.67 133.294 213.034 133.294 213.034Z" fill="#92E3A9"/>
</g>
</g>
</g>
<path id="Vector_12" d="M133.294 213.034C123.182 215.488 108.862 217.795 100.225 219.096C95.7269 219.773 92.7279 220.173 92.7279 220.173C88.8993 212.998 81.9917 184.022 81.9917 184.022L122.442 174.203C122.522 174.556 122.592 174.91 122.667 175.258C127.491 197.669 133.294 213.034 133.294 213.034Z" stroke="#443D78" stroke-width="0.467641" stroke-linecap="round" stroke-linejoin="round"/>
<path id="Vector_13" d="M88.8291 190.295C89.3779 189.639 90.0363 189.089 90.7734 188.67L91.3732 190.249L93.4675 189.47C94.1672 189.208 94.9669 188.87 95.2119 188.158C95.5967 189.096 96.9263 188.937 97.8709 188.629C104.412 186.47 111.092 184.787 117.864 183.592" stroke="#443D78" stroke-width="0.467641" stroke-linecap="round" stroke-linejoin="round"/>
<path id="Vector_14" d="M89.8436 196.035C89.4087 195.804 89.7686 195.01 90.2584 195.04C90.7483 195.071 91.0632 195.625 91.1031 196.127C91.3198 196.103 91.5234 196.009 91.685 195.859C91.8466 195.709 91.9578 195.51 92.0028 195.292L92.6976 195.804C92.6397 195.716 92.6001 195.616 92.5813 195.512C92.5624 195.407 92.5646 195.299 92.5878 195.196C92.611 195.092 92.6547 194.994 92.7162 194.908C92.7777 194.823 92.8556 194.751 92.9452 194.697C93.0348 194.644 93.1342 194.609 93.2373 194.596C93.3403 194.584 93.4448 194.593 93.5443 194.623C93.6438 194.653 93.7362 194.704 93.8158 194.772C93.8954 194.841 93.9605 194.925 94.0071 195.02C93.9571 194.436 94.1771 193.595 94.7319 193.728C94.9048 193.801 95.0626 193.908 95.1967 194.041C95.3661 194.147 95.5574 194.21 95.7551 194.226C95.9528 194.241 96.1513 194.209 96.3345 194.131C96.5176 194.053 96.6802 193.932 96.8091 193.777C96.938 193.623 97.0294 193.439 97.076 193.242C97.6208 193.877 98.5755 193.79 99.4102 193.646L106.688 192.376C106.758 191.904 106.988 191.299 107.447 191.351C107.712 191.392 107.887 191.653 108.117 191.796C108.471 191.949 108.868 191.963 109.232 191.837C112.51 191.109 115.727 190.117 118.853 188.87" stroke="#443D78" stroke-width="0.467641" stroke-linecap="round" stroke-linejoin="round"/>
<path id="Vector_15" d="M92.353 202.569C93.3252 202.656 94.3041 202.518 95.217 202.164C95.0555 201.814 95.0146 201.418 95.1008 201.041C95.1871 200.664 95.3954 200.328 95.6919 200.089L96.5715 200.668C100.114 200.581 103.635 200.083 107.068 199.181C108.602 198.782 110.122 198.295 111.636 197.808L120.263 195.051" stroke="#443D78" stroke-width="0.467641" stroke-linecap="round" stroke-linejoin="round"/>
</g>
<g id="freepik--Glasses--inject-304">
<path id="Vector_16" opacity="0.2" d="M159.199 20.8984L158.395 20.9497C158.024 20.9938 157.65 20.9001 157.341 20.6857C157.032 20.4713 156.808 20.1504 156.71 19.7812C155.481 15.1945 150.982 12.6167 145.789 12.9498C141.101 13.247 136.157 16.2809 133.293 20.4731C132.941 21.0226 132.475 21.4854 131.928 21.8283C131.381 22.1712 130.767 22.3857 130.129 22.4564L126.131 22.7126C125.585 22.7644 125.037 22.6349 124.568 22.3434C124.099 22.0518 123.734 21.6135 123.527 21.0932C121.912 17.1829 117.819 14.7281 113.125 15.0253C107.922 15.3533 102.544 18.5564 99.87 23.3942C99.6587 23.7836 99.3589 24.115 98.996 24.3603C98.6332 24.6056 98.2181 24.7577 97.7858 24.8036L96.9811 24.8548C96.7923 24.8761 96.6152 24.9595 96.4765 25.0926C96.3378 25.2256 96.2447 25.4011 96.2113 25.5928L95.8964 27.6427C95.8771 27.7115 95.8721 27.7836 95.8816 27.8545C95.8912 27.9253 95.9151 27.9934 95.9518 28.0542C95.9885 28.115 96.0373 28.1673 96.0949 28.2076C96.1525 28.248 96.2177 28.2755 96.2863 28.2885L97.256 28.5908C97.632 28.7055 97.9574 28.9509 98.1763 29.2847C98.3951 29.6185 98.4939 30.0201 98.4555 30.4204C98.1157 36.9854 102.634 41.8078 109.067 41.403C115.27 41.0084 121.173 35.8733 123.102 29.5441C123.265 29.0317 123.549 28.5687 123.93 28.1967C124.31 27.8246 124.774 27.555 125.281 27.4121C126.656 27.0407 128.087 26.9364 129.5 27.1046C129.95 27.1584 130.364 27.3838 130.659 27.7361C130.954 28.0883 131.11 28.5417 131.094 29.006C131.094 35.2327 135.508 39.722 141.72 39.3274C148.163 38.9277 154.271 33.4492 155.98 26.7869C156.103 26.3257 156.33 25.9002 156.641 25.5444C156.953 25.1885 157.341 24.9121 157.775 24.7369L158.859 24.3116C159.011 24.2586 159.146 24.1652 159.25 24.0408C159.355 23.9165 159.425 23.7658 159.454 23.6044L159.774 21.5544C159.8 21.4695 159.804 21.3791 159.786 21.2922C159.767 21.2052 159.727 21.1247 159.669 21.0585C159.611 20.9923 159.537 20.9427 159.455 20.9147C159.372 20.8866 159.284 20.881 159.199 20.8984ZM109.342 39.6708C103.344 40.05 99.2903 35.2224 100.26 28.9086C101.23 22.5948 106.888 17.1214 112.87 16.7678C118.853 16.4142 122.922 21.2162 121.947 27.53C120.973 33.8438 115.325 39.2915 109.342 39.6708ZM123.732 26.1975C123.755 25.8559 123.765 25.5023 123.762 25.1367C123.768 24.9906 123.825 24.8516 123.922 24.7445C124.019 24.6375 124.15 24.5694 124.291 24.5525L131.449 24.1015C131.511 24.0954 131.574 24.106 131.631 24.1323C131.688 24.1586 131.737 24.1996 131.774 24.2512C131.81 24.3029 131.833 24.3636 131.841 24.4271C131.848 24.4907 131.838 24.5551 131.814 24.614C131.704 24.9676 131.604 25.3212 131.514 25.6799C128.435 24.7626 125.361 25.5877 123.732 26.1975ZM141.985 37.5952C135.987 37.9745 131.934 33.1468 132.908 26.833C133.883 20.5192 139.531 15.0458 145.514 14.6922C151.497 14.3386 155.566 19.1406 154.596 25.4544C153.626 31.7683 147.983 37.216 141.985 37.5952Z" fill="black" fill-opacity="0.7"/>
<path id="Vector_17" d="M154.067 22.1746L108.203 28.4166C107.12 28.5641 106.079 28.9426 105.148 29.5279C104.216 30.1131 103.415 30.892 102.795 31.8144L96.0822 41.8284C96.0207 41.9215 95.9804 42.0276 95.9644 42.1388C95.9484 42.2501 95.957 42.3636 95.9896 42.4709C96.0223 42.5783 96.0781 42.6767 96.153 42.7589C96.2279 42.8411 96.3198 42.9049 96.4221 42.9456C96.8717 43.1229 97.3665 43.1394 97.8264 42.9924C98.2863 42.8455 98.6844 42.5437 98.9562 42.1359L105.164 32.9111C105.533 32.3589 106.011 31.8914 106.566 31.5385C107.121 31.1856 107.741 30.9549 108.388 30.8612L154.232 24.1989L154.067 22.1746Z" fill="#443D78"/>
<path id="Vector_18" d="M92.1929 26.131L138.447 25.3469C139.54 25.3311 140.625 25.5511 141.631 25.9925C142.637 26.4339 143.541 27.0869 144.285 27.9094L152.372 36.7958C152.446 36.8781 152.502 36.9767 152.534 37.0841C152.566 37.1915 152.574 37.3049 152.557 37.4159C152.54 37.5269 152.499 37.6325 152.437 37.7248C152.374 37.8171 152.292 37.8938 152.197 37.9489C151.778 38.1935 151.291 38.2861 150.815 38.2117C150.339 38.1373 149.901 37.9003 149.573 37.539L142.1 29.3392C141.653 28.8478 141.111 28.4573 140.509 28.1926C139.907 27.9279 139.257 27.7948 138.602 27.8017L92.2978 28.1605L92.1929 26.131Z" fill="#443D78"/>
<path id="Vector_19" d="M120.228 29.1491C120.798 29.2567 120.773 33.249 119.484 34.5968C118.194 35.9447 116.875 32.6647 117.209 31.486C117.544 30.3073 118.444 28.8006 120.228 29.1491Z" fill="#92E3A9" stroke="#443D78" stroke-width="0.467641" stroke-linecap="round" stroke-linejoin="round"/>
<path id="Vector_20" d="M128.265 28.6369C127.716 28.8214 128.221 32.7368 129.66 33.9514C131.099 35.166 132.019 31.7016 131.544 30.5793C131.069 29.4569 129.99 28.0681 128.265 28.6369Z" fill="#92E3A9" stroke="#443D78" stroke-width="0.467641" stroke-linecap="round" stroke-linejoin="round"/>
<path id="Vector_21" opacity="0.5" d="M99.61 19.8071C102.029 17.6854 107.152 14.0724 112.76 17.5111C118.368 20.9499 120.303 24.6859 119.153 29.7442C118.004 34.8024 114.47 41.5672 106.158 40.3885C97.8456 39.2098 92.0977 26.3976 99.61 19.8071Z" fill="#92E3A9"/>
<path id="Vector_22" opacity="0.5" d="M132.314 18.1717C134.733 16.05 139.852 12.4319 145.46 15.8707C151.068 19.3094 153.007 23.0455 151.852 28.1037C150.698 33.1619 147.174 39.9267 138.857 38.748C130.54 37.5693 124.797 24.7367 132.314 18.1717Z" fill="#92E3A9"/>
<path id="Vector_23" d="M155.021 21.4572L154.216 21.5085C153.818 21.5355 153.42 21.4427 153.072 21.2416C152.724 21.0404 152.441 20.7396 152.257 20.3759C150.028 15.9275 144.925 13.4368 139.721 13.7648C137.423 13.9185 135.202 14.6726 133.268 15.9554C131.335 17.2382 129.754 19.0069 128.675 21.0934C128.416 21.6358 128.024 22.0995 127.536 22.4384C127.049 22.7773 126.483 22.9797 125.896 23.0254L121.898 23.2766C121.308 23.3083 120.721 23.1806 120.194 22.9063C119.668 22.632 119.221 22.2206 118.899 21.7135C117.577 19.7794 115.795 18.2244 113.721 17.1964C111.648 16.1683 109.352 15.7015 107.053 15.8404C101.85 16.1735 97.0863 19.2894 95.4119 23.9889C95.2727 24.3726 95.0273 24.7064 94.706 24.9494C94.3847 25.1924 94.0012 25.3341 93.6025 25.3572L92.7978 25.4085C92.6223 25.4203 92.4585 25.5031 92.3423 25.6385C92.2262 25.7739 92.1671 25.9511 92.1781 26.1311L92.298 28.1349C92.3082 28.2848 92.366 28.427 92.4626 28.54C92.5592 28.6529 92.6893 28.7302 92.8328 28.7601L93.8824 29.0471C94.2896 29.1528 94.6586 29.3761 94.9456 29.6904C95.2327 30.0047 95.4258 30.3969 95.5019 30.8203C95.9786 33.9108 97.5418 36.7156 99.8966 38.7056C102.251 40.6957 105.235 41.7334 108.285 41.6231C111.334 41.5128 114.239 40.262 116.451 38.1067C118.664 35.9515 120.03 33.0407 120.293 29.9235C120.348 29.4395 120.545 28.9842 120.859 28.618C121.172 28.2518 121.587 27.9921 122.048 27.8735C123.419 27.5022 124.847 27.3979 126.256 27.5661C126.733 27.6288 127.179 27.839 127.537 28.1686C127.894 28.4982 128.144 28.9316 128.255 29.411C128.877 32.4867 130.579 35.221 133.038 37.0944C135.497 38.9678 138.541 39.8498 141.593 39.5728C144.644 39.2958 147.49 37.879 149.59 35.5918C151.69 33.3045 152.897 30.3061 152.982 27.1663C153.004 26.7381 153.146 26.3254 153.391 25.9775C153.635 25.6295 153.972 25.3609 154.361 25.2035L155.361 24.7833C155.499 24.7354 155.619 24.6423 155.701 24.5183C155.783 24.3943 155.823 24.2462 155.816 24.0965L155.691 22.0927C155.682 21.9183 155.607 21.7543 155.482 21.6356C155.357 21.517 155.191 21.453 155.021 21.4572ZM108.497 39.7683C106.351 39.9053 104.214 39.3865 102.356 38.2774C100.497 37.1683 99.0017 35.5188 98.0581 33.5378C97.1145 31.5568 96.7654 29.3333 97.0548 27.1488C97.3442 24.9642 98.2592 22.9168 99.684 21.2656C101.109 19.6145 102.979 18.4339 105.059 17.8733C107.138 17.3126 109.333 17.3972 111.366 18.1162C113.398 18.8352 115.177 20.1563 116.477 21.9124C117.777 23.6684 118.54 25.7805 118.669 27.9812C118.837 30.9254 117.862 33.8182 115.956 36.027C114.049 38.2359 111.368 39.581 108.497 39.7683ZM120.193 26.6692C120.138 26.3207 120.073 25.9773 119.993 25.6442C119.978 25.5783 119.977 25.5097 119.99 25.4432C120.003 25.3768 120.031 25.3142 120.07 25.2598C120.11 25.2055 120.161 25.1608 120.219 25.1289C120.278 25.097 120.342 25.0788 120.408 25.0754L127.566 24.6193C127.633 24.611 127.702 24.6186 127.766 24.6415C127.83 24.6643 127.889 24.7018 127.937 24.7511C127.985 24.8005 128.022 24.8604 128.044 24.9263C128.066 24.9922 128.073 25.0625 128.065 25.1317C128.03 25.47 128.005 25.8185 127.99 26.1567C125.407 25.4969 122.688 25.676 120.208 26.6692H120.193ZM141.156 37.6928C139.01 37.8298 136.872 37.3109 135.014 36.2018C133.156 35.0927 131.66 33.4433 130.717 31.4623C129.773 29.4813 129.424 27.2578 129.713 25.0732C130.003 22.8886 130.918 20.8412 132.343 19.1901C133.767 17.5389 135.638 16.3583 137.717 15.7977C139.797 15.2371 141.992 15.3216 144.024 16.0406C146.057 16.7596 147.836 18.0807 149.136 19.8368C150.436 21.5929 151.199 23.7049 151.327 25.9056C151.497 28.8477 150.524 31.739 148.621 33.9477C146.718 36.1564 144.039 37.5029 141.171 37.6928H141.156Z" fill="#757575" stroke="#443D78" stroke-width="0.467641" stroke-linecap="round" stroke-linejoin="round"/>
<path id="Vector_24" opacity="0.4" d="M100.5 35.8272C100.5 35.8272 96.5018 30.4 99.3208 24.0964C101.865 18.4283 107.818 17.7826 110.642 18.9716L104.499 30.0003C105.064 27.3064 105.91 24.6827 107.023 22.1746C107.023 22.1746 101.595 27.8119 100.5 35.8272Z" fill="white"/>
<path id="Vector_25" opacity="0.4" d="M133.078 33.4491C133.078 33.4491 129.08 28.027 131.899 21.7234C134.443 16.0502 140.396 15.4045 143.215 16.5986L137.052 27.6068C137.517 23.6555 139.601 19.7914 139.601 19.7914C139.601 19.7914 134.168 25.4236 133.078 33.4491Z" fill="white"/>
</g>
<g id="freepik--Pen--inject-304">
<path id="Vector_26" opacity="0.2" d="M15.8286 129.202L17.2781 135.879L18.9325 128.32L14.5841 52.8158H11.6201L15.8286 129.202Z" fill="black" fill-opacity="0.7"/>
<path id="Vector_27" d="M13.18 51.8986L17.2786 127.849L15.7791 134.096L13.6098 128.059L9.50128 52.1036C9.49178 51.9771 9.50698 51.85 9.54601 51.7296C9.58504 51.6093 9.6471 51.4981 9.72856 51.4026C9.81002 51.3072 9.90924 51.2294 10.0204 51.1737C10.1316 51.1181 10.2525 51.0858 10.376 51.0786L12.2003 50.9761C12.3241 50.9692 12.4479 50.9878 12.5646 51.0307C12.6812 51.0736 12.7883 51.1399 12.8796 51.2259C12.9709 51.3118 13.0445 51.4156 13.0961 51.5311C13.1476 51.6467 13.1762 51.7716 13.18 51.8986Z" fill="#92E3A9"/>
<g id="Clip path group_3">
<mask id="mask2_493_5774" style="mask-type:luminance" maskUnits="userSpaceOnUse" x="9" y="50" width="9" height="85">
<g id="freepik--clip-path-3--inject-304">
<path id="Vector_28" d="M13.1793 51.8985L17.2778 127.849L15.7783 134.096L13.6091 128.059L9.50055 52.1035C9.49105 51.977 9.50625 51.8499 9.54528 51.7295C9.5843 51.6092 9.64636 51.498 9.72783 51.4025C9.80929 51.3071 9.90851 51.2292 10.0197 51.1736C10.1309 51.118 10.2517 51.0856 10.3752 51.0785L12.1996 50.976C12.3233 50.9691 12.4472 50.9877 12.5638 51.0306C12.6805 51.0734 12.7876 51.1398 12.8789 51.2258C12.9701 51.3117 13.0437 51.4155 13.0953 51.531C13.1469 51.6465 13.1754 51.7715 13.1793 51.8985Z" fill="white"/>
</g>
</mask>
<g mask="url(#mask2_493_5774)">
<g id="Group_3">
<path id="Vector_29" opacity="0.2" d="M15.7684 134.096L13.5991 128.059L9.50055 52.1036C9.49105 51.9771 9.50625 51.85 9.54528 51.7296C9.5843 51.6093 9.64636 51.4981 9.72783 51.4027C9.80929 51.3072 9.90851 51.2294 10.0197 51.1737C10.1309 51.1181 10.2517 51.0858 10.3752 51.0786H10.6302L14.7587 127.588L15.7684 134.096Z" fill="black" fill-opacity="0.7"/>
</g>
</g>
</g>
<path id="Vector_30" d="M13.18 51.8986L17.2786 127.849L15.7791 134.096L13.6098 128.059L9.50128 52.1036C9.49178 51.9771 9.50698 51.85 9.54601 51.7296C9.58504 51.6093 9.6471 51.4981 9.72856 51.4026C9.81002 51.3072 9.90924 51.2294 10.0204 51.1737C10.1316 51.1181 10.2525 51.0858 10.376 51.0786L12.2003 50.9761C12.3241 50.9692 12.4479 50.9878 12.5646 51.0307C12.6812 51.0736 12.7883 51.1399 12.8796 51.2259C12.9709 51.3118 13.0445 51.4156 13.0961 51.5311C13.1476 51.6467 13.1762 51.7716 13.18 51.8986Z" stroke="#443D78" stroke-width="0.467641" stroke-linecap="round" stroke-linejoin="round"/>
<g id="Vector_31">
<path d="M10.7009 52.4109L14.6995 126.972C14.704 127.057 14.7247 127.14 14.7606 127.217C14.7965 127.294 14.8467 127.362 14.9085 127.419C14.9702 127.475 15.0423 127.519 15.1205 127.547C15.1987 127.575 15.2816 127.587 15.3643 127.582H15.8041" fill="#92E3A9"/>
<path d="M10.7009 52.4109L14.6995 126.972C14.704 127.057 14.7247 127.14 14.7606 127.217C14.7965 127.294 14.8467 127.362 14.9085 127.419C14.9702 127.475 15.0423 127.519 15.1205 127.547C15.1987 127.575 15.2816 127.587 15.3643 127.582H15.8041" stroke="#443D78" stroke-width="0.467641" stroke-linecap="round" stroke-linejoin="round"/>
</g>
</g>
<g id="freepik--Device--inject-304">
<path id="Vector_32" opacity="0.2" d="M28.8996 143.356L42.4499 52.5795C42.8675 49.7888 44.3488 47.2822 46.5683 45.611C48.7878 43.9398 51.5636 43.2407 54.2857 43.6674L184.395 64.0899C185.743 64.3007 187.037 64.7818 188.204 65.5055C189.37 66.2292 190.387 67.1816 191.194 68.308C192.002 69.4345 192.585 70.7131 192.911 72.0707C193.236 73.4283 193.298 74.8384 193.092 76.2205L179.537 166.997C179.332 168.38 178.864 169.708 178.159 170.905C177.453 172.102 176.524 173.145 175.426 173.973C174.327 174.802 173.079 175.401 171.755 175.735C170.43 176.068 169.054 176.131 167.706 175.919L37.5916 155.492C34.8697 155.064 32.4251 153.545 30.7952 151.269C29.1653 148.993 28.4835 146.147 28.8996 143.356Z" fill="black" fill-opacity="0.7"/>
<path id="Vector_33" d="M39.3419 55.9948L40.3709 49.1001C40.391 48.9658 40.4622 48.8451 40.5691 48.7646C40.6759 48.6842 40.8095 48.6505 40.9406 48.6711L43.7766 49.116L42.5971 57.0188L39.7612 56.5739C39.631 56.5534 39.5139 56.4812 39.4354 56.3727C39.3569 56.2643 39.3233 56.1285 39.3419 55.9948Z" fill="#92E3A9" stroke="#443D78" stroke-width="0.467641" stroke-linecap="round" stroke-linejoin="round"/>
<path id="Vector_34" d="M56.9584 41.4736L63.6827 42.5286C63.8138 42.5492 63.9315 42.6223 64.0099 42.7318C64.0884 42.8414 64.1212 42.9784 64.1012 43.1127L63.6672 46.0206L55.9597 44.8113L56.3936 41.9034C56.4135 41.77 56.484 41.6499 56.5898 41.5694C56.6955 41.4889 56.828 41.4545 56.9584 41.4736Z" fill="#92E3A9" stroke="#443D78" stroke-width="0.467641" stroke-linecap="round" stroke-linejoin="round"/>
<path id="Vector_35" d="M66.1234 42.9087L72.8478 43.9637C72.9788 43.9842 73.0965 44.0573 73.175 44.1669C73.2535 44.2764 73.2863 44.4134 73.2662 44.5478L72.8323 47.4556L65.1247 46.2463L65.5587 43.3385C65.5786 43.205 65.6491 43.085 65.7548 43.0045C65.8606 42.924 65.993 42.8896 66.1234 42.9087Z" fill="#92E3A9" stroke="#443D78" stroke-width="0.467641" stroke-linecap="round" stroke-linejoin="round"/>
<path id="Vector_36" d="M27.4006 141.306L40.9508 50.5295C41.3684 47.7388 42.8498 45.2323 45.0693 43.561C47.2887 41.8898 50.0646 41.1907 52.7867 41.6174L182.896 62.04C184.244 62.2508 185.538 62.7318 186.705 63.4555C187.871 64.1793 188.888 65.1316 189.695 66.258C190.503 67.3845 191.086 68.6631 191.412 70.0207C191.737 71.3783 191.799 72.7885 191.593 74.1705L178.038 164.947C177.833 166.33 177.365 167.658 176.66 168.855C175.954 170.052 175.025 171.095 173.927 171.924C172.828 172.752 171.58 173.351 170.256 173.685C168.931 174.018 167.555 174.081 166.207 173.869L36.0925 153.442C33.3707 153.014 30.9261 151.495 29.2962 149.219C27.6663 146.943 26.9844 144.097 27.4006 141.306Z" fill="#92E3A9" stroke="#443D78" stroke-width="0.467641" stroke-linecap="round" stroke-linejoin="round"/>
<path id="Vector_37" d="M166.717 172.737L35.9331 152.212C34.7799 152.032 33.6726 151.62 32.6746 151.001C31.6766 150.382 30.8074 149.567 30.1166 148.604C29.4259 147.64 28.9272 146.546 28.6491 145.384C28.371 144.223 28.3188 143.016 28.4957 141.834L42.1509 50.3606C42.5069 47.9732 43.7733 45.8286 45.6714 44.3985C47.5695 42.9684 49.9439 42.37 52.2723 42.7348L183.061 63.2598C185.39 63.6274 187.48 64.9272 188.875 66.8739C190.269 68.8205 190.853 71.255 190.499 73.6428L176.844 165.111C176.667 166.294 176.266 167.429 175.661 168.453C175.057 169.476 174.262 170.367 173.321 171.075C172.381 171.783 171.314 172.295 170.18 172.58C169.047 172.865 167.87 172.918 166.717 172.737Z" fill="#757575" stroke="#443D78" stroke-width="0.467641" stroke-linecap="round" stroke-linejoin="round"/>
<path id="Vector_38" d="M37.5226 96.4433C37.506 96.5425 37.4612 96.6345 37.394 96.7077C37.3267 96.781 37.2399 96.8324 37.1443 96.8555C37.0488 96.8785 36.9487 96.8722 36.8566 96.8374C36.7645 96.8025 36.6845 96.7407 36.6265 96.6595C36.5684 96.5784 36.535 96.4815 36.5304 96.381C36.5257 96.2805 36.55 96.1808 36.6002 96.0943C36.6504 96.0079 36.7244 95.9385 36.8128 95.8949C36.9013 95.8512 37.0003 95.8352 37.0976 95.8488C37.164 95.8582 37.228 95.8811 37.2857 95.9163C37.3433 95.9515 37.3934 95.9982 37.4331 96.0537C37.4728 96.1092 37.5011 96.1722 37.5165 96.2392C37.5319 96.3061 37.5339 96.3756 37.5226 96.4433Z" fill="#999999" stroke="#443D78" stroke-width="0.467641" stroke-linecap="round" stroke-linejoin="round"/>
<path id="Vector_39" d="M37.2776 101.215C37.2272 101.465 37.0847 101.687 36.8795 101.833C36.6743 101.98 36.4221 102.04 36.175 102.001C35.9279 101.962 35.7047 101.827 35.5517 101.625C35.3987 101.422 35.3274 101.167 35.3526 100.912C35.403 100.661 35.5456 100.44 35.7508 100.293C35.956 100.147 36.2082 100.087 36.4553 100.126C36.7024 100.165 36.9255 100.299 37.0786 100.502C37.2316 100.704 37.3029 100.96 37.2776 101.215Z" fill="#443D78"/>
<path id="Vector_40" d="M38.992 89.7295C38.9416 89.9805 38.7991 90.202 38.5939 90.3484C38.3887 90.4947 38.1364 90.5547 37.8893 90.5158C37.6422 90.477 37.4191 90.3424 37.2661 90.1398C37.113 89.9372 37.0418 89.6821 37.067 89.4271C37.0803 89.2923 37.1203 89.1617 37.1845 89.0432C37.2486 88.9247 37.3356 88.8208 37.4402 88.7378C37.5447 88.6549 37.6646 88.5946 37.7926 88.5606C37.9206 88.5266 38.054 88.5197 38.1847 88.5402C38.3154 88.5607 38.4407 88.6083 38.5528 88.68C38.665 88.7517 38.7618 88.846 38.8374 88.9573C38.9129 89.0685 38.9655 89.1943 38.9921 89.3271C39.0187 89.4598 39.0187 89.5968 38.992 89.7295Z" fill="#443D78"/>
<path id="Vector_41" d="M36.5231 104.438C36.5017 104.58 36.4397 104.712 36.3449 104.819C36.2501 104.925 36.1267 105 35.9904 105.034C35.854 105.068 35.7108 105.06 35.5789 105.011C35.447 104.962 35.3322 104.874 35.2491 104.758C35.166 104.642 35.1183 104.503 35.112 104.36C35.1058 104.216 35.1412 104.073 35.2138 103.95C35.2865 103.827 35.3931 103.729 35.5202 103.668C35.6474 103.607 35.7893 103.586 35.9281 103.608C36.0203 103.622 36.109 103.655 36.1888 103.704C36.2687 103.754 36.3383 103.819 36.3935 103.896C36.4488 103.973 36.4887 104.061 36.5109 104.154C36.5331 104.247 36.5373 104.343 36.5231 104.438Z" fill="#443D78"/>
<path id="Vector_42" d="M187.215 72.069L173.254 165.608C173.078 166.787 172.453 167.846 171.516 168.552C170.578 169.258 169.406 169.554 168.256 169.375L58.6897 152.181L56.3155 151.832L47.3836 150.428L43.0602 149.752L36.8124 148.757L35.4478 148.542C34.2981 148.361 33.2654 147.72 32.5765 146.759C31.8877 145.798 31.5991 144.596 31.7741 143.417L45.7392 49.8476C45.8258 49.2638 46.0239 48.7032 46.3221 48.198C46.6203 47.6928 47.0128 47.2529 47.4771 46.9035C47.9414 46.554 48.4684 46.302 49.0279 46.1617C49.5873 46.0214 50.1683 45.9957 50.7375 46.086L91.6381 52.5023L97.8259 53.476L103.739 54.4036L111.336 55.5926L114.085 56.0231L183.561 66.9237C184.13 67.0154 184.677 67.2213 185.168 67.5296C185.66 67.8378 186.088 68.2424 186.427 68.7202C186.767 69.1981 187.011 69.7397 187.146 70.3143C187.281 70.8889 187.304 71.4852 187.215 72.069Z" fill="#443D78"/>
<g id="Group_4" opacity="0.1">
<path id="Vector_43" d="M84.5049 151.32L38.0212 144.027C37.7192 143.979 37.448 143.81 37.2672 143.558C37.0864 143.305 37.0106 142.989 37.0566 142.679L41.67 111.761C41.718 111.451 41.8837 111.173 42.1309 110.987C42.3781 110.802 42.6867 110.725 42.9895 110.772L89.4732 118.064C89.623 118.088 89.7669 118.141 89.8966 118.221C90.0263 118.302 90.1392 118.407 90.2289 118.533C90.3185 118.658 90.3832 118.8 90.419 118.951C90.4549 119.102 90.4613 119.259 90.4378 119.412L85.8245 150.331C85.8013 150.484 85.7488 150.632 85.6699 150.765C85.591 150.898 85.4874 151.014 85.3648 151.106C85.2422 151.198 85.1032 151.264 84.9556 151.301C84.8081 151.337 84.6549 151.344 84.5049 151.32ZM42.9445 111.182C42.847 111.167 42.7476 111.171 42.6518 111.195C42.556 111.22 42.4659 111.263 42.3865 111.323C42.3071 111.383 42.24 111.458 42.1891 111.545C42.1382 111.631 42.1045 111.728 42.0898 111.828L37.4764 142.741C37.4615 142.841 37.466 142.943 37.4896 143.041C37.5132 143.139 37.5555 143.231 37.614 143.313C37.6725 143.394 37.7461 143.463 37.8305 143.515C37.915 143.567 38.0087 143.602 38.1062 143.617L84.5649 150.91C84.6624 150.925 84.7619 150.92 84.8576 150.896C84.9534 150.872 85.0435 150.829 85.1229 150.769C85.2023 150.709 85.2694 150.633 85.3203 150.547C85.3712 150.46 85.405 150.364 85.4196 150.264L90.038 119.351C90.0668 119.149 90.0169 118.943 89.8991 118.778C89.7813 118.613 89.605 118.502 89.4082 118.469L42.9445 111.182Z" fill="white"/>
</g>
<path id="Vector_44" opacity="0.4" d="M56.9653 129.893L67.3717 135.946C68.4736 133.874 68.9857 131.526 68.8496 129.17C68.7135 126.814 67.9347 124.545 66.6019 122.621L56.9653 129.893Z" fill="#92E3A9"/>
<path id="Vector_45" opacity="0.6" d="M57.0649 129.283L66.3617 122.277C65.1053 120.58 63.4491 119.238 61.5484 118.377L59.714 122.836L57.0649 129.283Z" fill="#92E3A9"/>
<path id="Vector_46" d="M58.65 117.496L57.0405 128.258L61.1791 118.198C60.3627 117.873 59.5149 117.638 58.65 117.496Z" fill="#92E3A9"/>
<path id="Vector_47" opacity="0.1" d="M56.4152 129.765L58.2496 117.465C56.1429 117.17 53.9974 117.441 52.0237 118.252C50.05 119.063 48.3156 120.386 46.9907 122.091C45.6658 123.797 44.7957 125.825 44.4659 127.979C44.1361 130.133 44.3578 132.338 45.1092 134.377L56.4152 129.765Z" fill="white"/>
<path id="Vector_48" opacity="0.2" d="M54.7366 142.351C57.1619 142.731 59.6427 142.358 61.8592 141.279C64.0757 140.201 65.9262 138.466 67.1722 136.299L56.5809 130.149L45.2549 134.736C46.0635 136.734 47.3608 138.484 49.0217 139.818C50.6826 141.152 52.6509 142.025 54.7366 142.351Z" fill="#92E3A9"/>
<path id="Vector_49" d="M75.889 122.491L74.5101 122.275C74.3381 122.248 74.1774 122.369 74.1511 122.545L73.9402 123.959C73.9139 124.135 74.0319 124.3 74.2039 124.327L75.5828 124.543C75.7548 124.57 75.9155 124.449 75.9418 124.273L76.1528 122.859C76.1791 122.683 76.061 122.518 75.889 122.491Z" fill="#92E3A9"/>
<path id="Vector_50" d="M83.381 124.44L77.3581 123.492C77.3278 123.488 77.2986 123.477 77.2723 123.461C77.246 123.445 77.2231 123.424 77.2049 123.398C77.1867 123.373 77.1737 123.344 77.1665 123.314C77.1594 123.283 77.1582 123.252 77.1632 123.221C77.1674 123.189 77.1777 123.16 77.1934 123.133C77.2091 123.106 77.2299 123.082 77.2546 123.063C77.2793 123.045 77.3074 123.031 77.3371 123.024C77.3669 123.017 77.3979 123.016 77.4281 123.021L83.426 123.969C83.4563 123.973 83.4855 123.984 83.5118 124C83.5382 124.016 83.5611 124.037 83.5792 124.063C83.5974 124.088 83.6104 124.117 83.6176 124.147C83.6248 124.178 83.6259 124.209 83.6209 124.24C83.6103 124.297 83.5804 124.349 83.5365 124.385C83.4927 124.422 83.4376 124.441 83.381 124.44Z" fill="#92E3A9"/>
<path id="Vector_51" d="M81.3869 125.183L77.2033 124.527C77.173 124.523 77.1438 124.512 77.1175 124.496C77.0912 124.48 77.0683 124.459 77.0501 124.434C77.0319 124.408 77.0189 124.38 77.0117 124.349C77.0046 124.318 77.0034 124.287 77.0084 124.256C77.0183 124.193 77.0515 124.138 77.1011 124.1C77.1506 124.063 77.2124 124.047 77.2733 124.056L81.4568 124.712C81.4872 124.716 81.5164 124.727 81.5427 124.743C81.569 124.759 81.5919 124.78 81.6101 124.806C81.6282 124.831 81.6413 124.86 81.6484 124.89C81.6556 124.921 81.6567 124.952 81.6518 124.983C81.6475 125.015 81.6372 125.044 81.6215 125.071C81.6058 125.098 81.585 125.122 81.5604 125.141C81.5357 125.159 81.5076 125.173 81.4778 125.18C81.448 125.187 81.4171 125.188 81.3869 125.183Z" fill="#92E3A9"/>
<path id="Vector_52" opacity="0.6" d="M75.2054 127.083L73.8265 126.866C73.6545 126.839 73.4938 126.96 73.4675 127.137L73.2566 128.55C73.2303 128.726 73.3483 128.891 73.5203 128.918L74.8992 129.134C75.0712 129.161 75.2319 129.04 75.2583 128.864L75.4692 127.451C75.4955 127.274 75.3774 127.11 75.2054 127.083Z" fill="#92E3A9"/>
<path id="Vector_53" d="M82.6958 129.027L76.6679 128.084C76.6078 128.073 76.5541 128.038 76.5179 127.988C76.4817 127.937 76.4656 127.874 76.4729 127.812C76.4828 127.75 76.5161 127.694 76.5656 127.657C76.6151 127.619 76.677 127.604 76.7379 127.612L82.7657 128.56C82.7956 128.565 82.8243 128.576 82.8501 128.592C82.8759 128.608 82.8984 128.629 82.9163 128.654C82.9342 128.679 82.9471 128.707 82.9542 128.738C82.9614 128.768 82.9628 128.799 82.9582 128.83C82.9536 128.86 82.9431 128.89 82.9275 128.916C82.9118 128.943 82.8912 128.966 82.8668 128.984C82.8424 129.002 82.8148 129.015 82.7855 129.023C82.7561 129.03 82.7256 129.032 82.6958 129.027Z" fill="#92E3A9"/>
<path id="Vector_54" d="M80.7015 129.765L76.508 129.109C76.4538 129.092 76.4074 129.056 76.3772 129.007C76.3469 128.958 76.335 128.899 76.3435 128.842C76.352 128.784 76.3804 128.732 76.4235 128.695C76.4665 128.657 76.5214 128.637 76.5779 128.637L80.7615 129.293C80.7918 129.297 80.821 129.308 80.8473 129.324C80.8736 129.34 80.8966 129.362 80.9147 129.387C80.9329 129.412 80.9459 129.441 80.9531 129.471C80.9602 129.502 80.9614 129.534 80.9564 129.565C80.9477 129.626 80.9162 129.68 80.8686 129.718C80.821 129.755 80.761 129.772 80.7015 129.765Z" fill="#92E3A9"/>
<path id="Vector_55" opacity="0.4" d="M74.833 131.771L73.452 131.556C73.2798 131.53 73.119 131.651 73.0929 131.827L72.8837 133.243C72.8576 133.42 72.9761 133.584 73.1483 133.611L74.5294 133.826C74.7016 133.852 74.8624 133.731 74.8885 133.554L75.0976 132.139C75.1237 131.962 75.0053 131.798 74.833 131.771Z" fill="#92E3A9"/>
<path id="Vector_56" d="M82.0068 133.619L76.0089 132.676C75.9548 132.659 75.9083 132.623 75.8781 132.574C75.8479 132.525 75.836 132.466 75.8445 132.409C75.853 132.351 75.8814 132.299 75.9244 132.262C75.9675 132.224 76.0224 132.204 76.0789 132.204L82.0768 133.147C82.1072 133.151 82.1364 133.162 82.1627 133.178C82.189 133.194 82.2119 133.216 82.23 133.241C82.2482 133.266 82.2613 133.295 82.2684 133.325C82.2756 133.356 82.2767 133.388 82.2717 133.419C82.2675 133.45 82.2572 133.48 82.2415 133.507C82.2258 133.534 82.205 133.557 82.1803 133.576C82.1556 133.594 82.1276 133.608 82.0978 133.615C82.068 133.622 82.0371 133.624 82.0068 133.619Z" fill="#92E3A9"/>
<path id="Vector_57" d="M80.0069 134.357L75.8234 133.701C75.7692 133.684 75.7228 133.648 75.6926 133.599C75.6624 133.55 75.6504 133.491 75.6589 133.434C75.6674 133.376 75.6958 133.324 75.7389 133.287C75.782 133.249 75.8368 133.229 75.8934 133.229L80.0769 133.885C80.1311 133.902 80.1775 133.938 80.2077 133.987C80.2379 134.036 80.2499 134.095 80.2414 134.152C80.2329 134.209 80.2045 134.262 80.1614 134.299C80.1183 134.337 80.0635 134.357 80.0069 134.357Z" fill="#92E3A9"/>
<path id="Vector_58" opacity="0.2" d="M73.8358 136.266L72.4569 136.05C72.2849 136.023 72.1242 136.144 72.0979 136.32L71.8869 137.734C71.8606 137.91 71.9787 138.075 72.1507 138.102L73.5296 138.318C73.7016 138.345 73.8623 138.224 73.8886 138.048L74.0996 136.634C74.1259 136.458 74.0078 136.293 73.8358 136.266Z" fill="#92E3A9"/>
<path id="Vector_59" d="M81.3211 138.211L75.3232 137.268C75.2625 137.258 75.2081 137.223 75.1717 137.173C75.1352 137.122 75.1197 137.058 75.1283 136.996C75.1326 136.965 75.1429 136.935 75.1586 136.908C75.1742 136.881 75.195 136.858 75.2197 136.839C75.2444 136.82 75.2725 136.807 75.3023 136.8C75.3321 136.792 75.363 136.791 75.3932 136.796L81.4161 137.739C81.4464 137.744 81.4756 137.754 81.5019 137.77C81.5283 137.786 81.5512 137.808 81.5693 137.833C81.5875 137.858 81.6005 137.887 81.6077 137.918C81.6149 137.948 81.616 137.98 81.611 138.011C81.6072 138.045 81.5963 138.077 81.579 138.106C81.5617 138.135 81.5385 138.16 81.511 138.179C81.4834 138.198 81.4522 138.211 81.4194 138.216C81.3866 138.222 81.3531 138.22 81.3211 138.211Z" fill="#92E3A9"/>
<path id="Vector_60" d="M79.3327 138.949L75.1491 138.293C75.1188 138.288 75.0896 138.278 75.0633 138.262C75.037 138.246 75.0141 138.224 74.9959 138.199C74.9777 138.174 74.9647 138.145 74.9575 138.114C74.9504 138.084 74.9492 138.052 74.9542 138.021C74.9585 137.99 74.9687 137.96 74.9844 137.933C75.0001 137.906 75.0209 137.883 75.0456 137.864C75.0703 137.845 75.0984 137.832 75.1282 137.825C75.1579 137.817 75.1889 137.816 75.2191 137.821L79.4026 138.477C79.4633 138.487 79.5178 138.521 79.5542 138.572C79.5907 138.623 79.6062 138.686 79.5976 138.749C79.5933 138.78 79.583 138.81 79.5673 138.837C79.5516 138.864 79.5308 138.887 79.5062 138.906C79.4815 138.925 79.4534 138.938 79.4236 138.945C79.3938 138.953 79.3629 138.954 79.3327 138.949Z" fill="#92E3A9"/>
<path id="Vector_61" opacity="0.1" d="M73.1512 140.863L71.7723 140.647C71.6003 140.62 71.4396 140.741 71.4133 140.917L71.2024 142.33C71.1761 142.507 71.2941 142.671 71.4661 142.698L72.845 142.915C73.017 142.942 73.1777 142.821 73.2041 142.645L73.415 141.231C73.4413 141.055 73.3232 140.89 73.1512 140.863Z" fill="white"/>
<path id="Vector_62" d="M80.6366 142.803L74.6387 141.86C74.578 141.85 74.5236 141.816 74.4871 141.765C74.4507 141.714 74.4351 141.651 74.4437 141.588C74.448 141.557 74.4583 141.527 74.474 141.5C74.4897 141.473 74.5105 141.45 74.5352 141.431C74.5598 141.412 74.5879 141.399 74.6177 141.392C74.6475 141.384 74.6784 141.383 74.7086 141.388L80.7315 142.331C80.7619 142.336 80.7911 142.346 80.8174 142.362C80.8437 142.378 80.8666 142.4 80.8848 142.425C80.9029 142.45 80.916 142.479 80.9231 142.51C80.9303 142.54 80.9314 142.572 80.9265 142.603C80.9226 142.637 80.9117 142.669 80.8944 142.698C80.8771 142.727 80.8539 142.752 80.8264 142.771C80.7988 142.79 80.7676 142.803 80.7348 142.808C80.7021 142.814 80.6686 142.812 80.6366 142.803Z" fill="#92E3A9"/>
<path id="Vector_63" d="M78.6477 143.54L74.4592 142.885C74.4293 142.88 74.4007 142.869 74.3749 142.852C74.3492 142.836 74.3268 142.814 74.3092 142.789C74.2915 142.764 74.2789 142.735 74.2721 142.705C74.2652 142.675 74.2643 142.644 74.2693 142.613C74.2729 142.581 74.2827 142.551 74.2982 142.524C74.3137 142.496 74.3345 142.473 74.3594 142.454C74.3842 142.435 74.4125 142.422 74.4426 142.415C74.4727 142.408 74.5039 142.407 74.5342 142.413L78.7177 143.069C78.7514 143.069 78.7845 143.077 78.815 143.092C78.8455 143.106 78.8726 143.127 78.8944 143.154C78.9162 143.18 78.9322 143.211 78.9414 143.244C78.9507 143.277 78.9528 143.312 78.9477 143.346C78.9427 143.38 78.9305 143.413 78.9121 143.442C78.8937 143.471 78.8694 143.495 78.841 143.513C78.8125 143.532 78.7806 143.544 78.7472 143.549C78.7139 143.553 78.6799 143.55 78.6477 143.54Z" fill="#92E3A9"/>
<g id="Group_5" opacity="0.1">
<path id="Vector_64" d="M172.054 131.015L96.501 119.161C96.1982 119.114 95.8896 119.191 95.6424 119.377C95.3951 119.562 95.2295 119.84 95.1815 120.15L94.8616 122.282L94.8016 122.692L94.3717 125.567L94.3118 125.977L93.8819 128.847L93.8219 129.252L93.3921 132.127L93.3321 132.532L92.9023 135.407L92.8423 135.817L92.4124 138.687L92.3524 139.097L91.9226 141.967L91.8626 142.377L91.4328 145.247L91.3728 145.657L90.9429 148.527L90.883 148.937L90.5681 151.068C90.5446 151.222 90.551 151.379 90.5868 151.531C90.6226 151.682 90.6871 151.824 90.7767 151.95C90.8663 152.076 90.9792 152.182 91.1089 152.263C91.2387 152.344 91.3827 152.398 91.5327 152.421L167.071 164.275C167.373 164.321 167.681 164.242 167.926 164.055C168.172 163.869 168.335 163.591 168.381 163.281L168.701 161.149L168.761 160.739L169.19 157.869L169.25 157.459L169.68 154.584L169.74 154.179L170.17 151.309L170.23 150.899L170.66 148.029L170.72 147.619L171.15 144.744L171.21 144.34L171.64 141.464L171.7 141.06L172.129 138.19L172.189 137.78L172.619 134.905L172.679 134.495L172.999 132.363C173.045 132.056 172.972 131.743 172.796 131.491C172.619 131.239 172.353 131.068 172.054 131.015ZM168.006 163.219C167.975 163.421 167.868 163.602 167.708 163.722C167.548 163.843 167.348 163.895 167.151 163.865L91.6177 152.011C91.42 151.98 91.2425 151.869 91.1236 151.704C91.0048 151.539 90.9542 151.333 90.9829 151.13L91.3028 148.998L168.321 161.088L168.006 163.219ZM168.386 160.657L91.3628 148.573L91.7926 145.698L168.811 157.787L168.386 160.657ZM168.886 157.377L91.8526 145.313L92.2825 142.438L169.3 154.523L168.886 157.377ZM169.385 154.097L92.3624 142.008L92.7923 139.138L169.81 151.222L169.385 154.097ZM169.885 150.817L92.8623 138.728L93.2921 135.858L170.31 147.947L169.885 150.817ZM170.385 147.537L93.3621 135.448L93.7919 132.573L170.81 144.662L170.385 147.537ZM170.885 144.252L93.8619 132.168L94.2918 129.298L171.31 141.382L170.885 144.252ZM171.385 140.972L94.3018 128.909L94.7316 126.039L171.75 138.123L171.385 140.972ZM171.885 137.698L94.7916 125.629L95.2214 122.754L172.239 134.843L171.885 137.698ZM95.3564 122.323L95.6763 120.196C95.6909 120.096 95.7247 120 95.7756 119.914C95.8265 119.827 95.8936 119.752 95.973 119.692C96.0524 119.632 96.1425 119.588 96.2383 119.564C96.334 119.54 96.4335 119.535 96.531 119.551L171.974 131.425C172.171 131.456 172.346 131.566 172.464 131.731C172.581 131.895 172.629 132.1 172.599 132.301L172.279 134.433L95.3564 122.323Z" fill="white"/>
</g>
<g id="Group_6" opacity="0.1">
<path id="Vector_65" d="M180.123 75.8416L51.4077 55.6394C51.2367 55.6125 51.0622 55.6204 50.8942 55.6628C50.7262 55.7052 50.568 55.7812 50.4286 55.8864C50.2893 55.9917 50.1717 56.1241 50.0824 56.276C49.9931 56.428 49.9339 56.5965 49.9083 56.772L42.6958 105.084C42.6441 105.437 42.7306 105.797 42.9366 106.085C43.1426 106.373 43.4513 106.566 43.7954 106.621L172.515 126.824C172.86 126.877 173.211 126.788 173.492 126.577C173.772 126.366 173.961 126.049 174.015 125.696L181.227 77.379C181.253 77.2037 181.246 77.0247 181.204 76.8524C181.163 76.6802 181.089 76.518 180.986 76.3751C180.884 76.2323 180.755 76.1116 180.606 76.0201C180.458 75.9285 180.294 75.8678 180.123 75.8416ZM75.1594 82.7857L84.0963 84.1848L83.3165 89.3917L74.3647 87.9875L75.1594 82.7857ZM73.9848 87.9106L65.013 86.532L65.7927 81.32L74.7446 82.7242L73.9848 87.9106ZM84.5061 84.2566L93.463 85.6608L92.6833 90.8728L83.7314 89.4686L84.5061 84.2566ZM130.93 91.1239L121.978 89.7197L122.753 84.5077L131.71 85.9119L130.93 91.1239ZM132.104 85.999L141.061 87.4032L140.282 92.6152L131.33 91.211L132.104 85.999ZM103.21 87.2187L112.166 88.623L111.387 93.8349L102.42 92.3846L103.21 87.2187ZM102.035 92.3436L93.0831 90.9394L93.8428 85.7223L102.8 87.1265L102.035 92.3436ZM112.561 88.664L121.493 90.063L120.713 95.275L111.762 93.8708L112.561 88.664ZM121.913 90.1297L130.87 91.5339L130.09 96.7458L121.138 95.3416L121.913 90.1297ZM121.578 89.6582L112.626 88.254L113.401 83.042L122.358 84.4513L121.578 89.6582ZM112.226 88.1925L103.275 86.7883L104.049 81.5763L112.996 82.9754L112.226 88.1925ZM102.86 86.7473L93.9078 85.3379L94.6826 80.0849L103.639 81.4892L102.86 86.7473ZM93.503 85.2508L84.5511 83.8466L85.3258 78.6346L94.2827 80.0388L93.503 85.2508ZM92.6033 91.2828L91.8286 96.4845L82.8767 95.0803L83.6564 89.8683L92.6033 91.2828ZM93.0031 91.3443L101.955 92.7485L101.175 97.9604L92.2234 96.5562L93.0031 91.3443ZM102.355 92.81L111.307 94.2142L110.527 99.4262L101.58 98.0219L102.355 92.81ZM111.707 94.2757L120.658 95.685L119.879 100.892L110.927 99.4877L111.707 94.2757ZM121.058 95.7465L130.01 97.1507L129.23 102.363L120.279 100.958L121.058 95.7465ZM130.41 97.2122L139.362 98.6164L138.582 103.828L129.63 102.424L130.41 97.2122ZM130.47 96.8074L131.245 91.5954L140.202 92.9996L139.422 98.2116L130.47 96.8074ZM140.596 93.0611L149.553 94.4653L148.774 99.6773L139.822 98.2731L140.596 93.0611ZM149.948 94.5268L158.905 95.9361L158.125 101.143L149.173 99.7388L149.948 94.5268ZM150.013 94.1219L150.788 88.91L159.75 90.3347L158.98 95.5261L150.013 94.1219ZM149.613 94.0604L140.661 92.6511L141.436 87.4391L150.393 88.8485L149.613 94.0604ZM141.486 87.0343L142.266 81.8223L151.218 83.2265L150.483 88.4385L141.486 87.0343ZM141.091 86.9728L132.139 85.5634L132.914 80.3566L141.866 81.7608L141.091 86.9728ZM131.74 85.5019L122.783 84.0977L123.562 78.8857L132.514 80.2899L131.74 85.5019ZM122.388 84.0362L113.446 82.6474L114.226 77.4354L123.178 78.8396L122.388 84.0362ZM113.036 82.5654L104.099 81.1612L104.874 75.9492L113.826 77.3585L113.036 82.5654ZM103.699 81.1099L94.7475 79.7057L95.5023 74.4835L104.499 75.8877L103.699 81.1099ZM94.3477 79.6442L85.3908 78.24L86.1705 73.028L95.1224 74.4476L94.3477 79.6442ZM85.006 78.1631L76.0541 76.7589L76.8288 71.5469L85.7807 72.9563L85.006 78.1631ZM84.946 78.5731L84.1663 83.7851L75.2144 82.3809L75.9891 77.1689L84.946 78.5731ZM74.8145 82.3194L65.8627 80.91L66.6374 75.6981L75.5943 77.1074L74.8145 82.3194ZM65.4628 80.8486L56.5159 79.4443L57.2907 74.2324L66.2475 75.6366L65.4628 80.8486ZM65.4028 81.2585L64.6231 86.4705L55.6712 85.0663L56.451 79.8543L65.4028 81.2585ZM64.5631 86.8959L63.7834 92.1079L54.8315 90.7036L55.6113 85.4917L64.5631 86.8959ZM64.963 86.9625L73.9148 88.3667L73.1351 93.5787L64.1833 92.1694L64.963 86.9625ZM74.3147 88.4282L83.2566 89.8222L82.4768 95.0342L73.51 93.6197L74.3147 88.4282ZM82.4169 95.4595L81.6371 100.671L72.6853 99.2622L73.465 94.0502L82.4169 95.4595ZM82.8167 95.521L91.7686 96.9252L91.0038 102.122L82.047 100.718L82.8167 95.521ZM92.1684 96.9867L101.12 98.3909L100.341 103.603L91.3887 102.199L92.1684 96.9867ZM101.5 98.4319L110.497 99.8361L109.717 105.048L100.74 103.659L101.5 98.4319ZM110.852 99.8976L119.804 101.302L119.024 106.514L110.072 105.11L110.852 99.8976ZM120.204 101.363L129.155 102.773L128.376 107.98L119.424 106.575L120.204 101.363ZM129.555 102.834L138.507 104.238L137.727 109.45L128.776 108.046L129.555 102.834ZM138.907 104.3L147.879 105.709L147.099 110.921L138.147 109.517L138.907 104.3ZM138.967 103.89L139.747 98.683L148.719 100.072L147.939 105.284L138.967 103.89ZM149.098 100.149L158.05 101.553L157.271 106.765L148.319 105.361L149.098 100.149ZM158.48 101.609L167.432 103.014L166.652 108.226L157.7 106.821L158.48 101.609ZM158.54 101.204L159.315 95.9925L168.272 97.3967L167.477 102.634L158.54 101.204ZM159.38 95.5671L160.155 90.3552L169.111 91.7594L168.322 96.997L159.38 95.5671ZM160.215 89.9298L160.979 84.7588L169.931 86.163L169.161 91.3596L160.215 89.9298ZM159.82 89.8632L150.863 88.459L151.643 83.247L160.584 84.6973L159.82 89.8632ZM151.703 82.8421L152.482 77.6711L161.424 79.06L160.649 84.272L151.703 82.8421ZM151.308 82.7755L142.351 81.3713L143.131 76.1593L152.082 77.5686L151.308 82.7755ZM141.956 81.3098L132.989 79.9466L133.769 74.7346L142.721 76.1388L141.956 81.3098ZM132.604 79.8441L123.647 78.4399L124.427 73.2279L133.379 74.6321L132.604 79.8441ZM123.253 78.3732L114.286 77.01L115.065 71.7981L124.017 73.2023L123.253 78.3732ZM113.901 76.9075L104.944 75.5033L105.714 70.3477L114.666 71.7519L113.901 76.9075ZM104.539 75.4726L95.5822 74.0632L96.362 68.8564L105.314 70.2606L104.539 75.4726ZM95.1874 74.0017L86.2305 72.5975L87.0053 67.3958L95.9621 68.8103L95.1874 74.0017ZM85.8357 72.536L76.8788 71.1318L77.6585 65.9198L86.6104 67.3241L85.8357 72.536ZM76.5089 71.0754L67.5121 69.6712L68.2918 64.4593L77.2437 65.8686L76.5089 71.0754ZM76.444 71.4854L75.6692 76.6974L66.7174 75.2932L67.4921 70.0812L76.444 71.4854ZM66.3175 75.2317L57.3656 73.8224L58.1404 68.6155L67.0922 70.0197L66.3175 75.2317ZM56.9658 73.7609L48.0139 72.3567L48.7887 67.1447L57.7455 68.5489L56.9658 73.7609ZM56.9058 74.1709L56.1261 79.3828L47.1742 77.9786L47.949 72.7667L56.9058 74.1709ZM56.0661 79.8082L55.2864 85.0202L46.3345 83.616L47.1142 78.404L56.0661 79.8082ZM55.2264 85.4455L54.4467 90.6575L45.4948 89.2533L46.2745 84.0413L55.2264 85.4455ZM54.3867 91.0829L53.612 96.2897L44.6551 94.8855L45.4348 89.6736L54.3867 91.0829ZM54.7866 91.1444L63.7384 92.5486L62.9637 97.7606L54.0068 96.3564L54.7866 91.1444ZM64.1383 92.6101L73.0901 94.0143L72.3104 99.2263L63.3585 97.8221L64.1383 92.6101ZM72.2504 99.6363L71.4757 104.848L62.5138 103.393L63.2936 98.1808L72.2504 99.6363ZM72.6503 99.6978L81.6021 101.102L80.8274 106.314L71.8706 104.91L72.6503 99.6978ZM81.977 101.097L90.9289 102.506L90.1541 107.713L81.1973 106.309L81.977 101.097ZM91.3287 102.568L100.281 103.972L99.5009 109.199L90.544 107.795L91.3287 102.568ZM100.68 104.033L109.632 105.438L108.858 110.65L99.9007 109.245L100.68 104.033ZM110.032 105.504L118.994 106.924L118.219 112.136L109.262 110.726L110.032 105.504ZM119.384 106.97L128.336 108.374L127.561 113.586L118.604 112.182L119.384 106.97ZM128.736 108.436L137.687 109.84L136.913 115.052L127.956 113.648L128.736 108.436ZM138.087 109.906L147.039 111.347L146.264 116.559L137.308 115.154L138.087 109.906ZM147.439 111.372L156.391 112.776L155.616 118.009L146.659 116.605L147.439 111.372ZM147.499 110.962L148.279 105.75L157.231 107.16L156.451 112.372L147.499 110.962ZM157.63 107.247L166.582 108.651L165.803 113.863L156.851 112.459L157.63 107.247ZM166.977 108.702L175.929 110.106L175.149 115.318L166.202 113.909L166.977 108.702ZM167.037 108.297L167.817 103.085L176.769 104.49L175.974 109.701L167.037 108.297ZM167.877 102.66L168.652 97.448L177.608 98.8522L176.829 104.064L167.877 102.66ZM168.717 97.0226L169.476 91.8721L178.473 93.2507L177.698 98.4627L168.717 97.0226ZM169.551 91.3853L170.336 86.2348L179.288 87.639L178.513 92.851L169.551 91.3853ZM170.391 85.7479L171.176 80.5974L180.128 82.0016L179.353 87.2136L170.391 85.7479ZM169.996 85.6864L161.039 84.2822L161.819 79.0702L170.771 80.4744L169.996 85.6864ZM161.879 78.6602L162.659 73.4534L171.611 74.8576L170.831 80.0696L161.879 78.6602ZM161.479 78.5987L152.527 77.1945L153.307 71.9825L162.259 73.3868L161.479 78.5987ZM152.127 77.133L143.176 75.7288L143.985 70.5835L152.937 71.9877L152.127 77.133ZM142.776 75.6673L133.824 74.258L134.604 69.0511L143.555 70.4553L142.776 75.6673ZM133.424 74.1965L124.492 72.8589L125.272 67.6469L134.224 69.0511L133.424 74.1965ZM124.072 72.7308L115.125 71.3727L115.905 66.1607L124.857 67.5649L124.072 72.7308ZM114.721 71.2599L105.769 69.8557L106.553 64.7104L115.495 66.1197L114.721 71.2599ZM105.374 69.7942L96.417 68.39L97.1967 63.178L106.149 64.5823L105.374 69.7942ZM96.0221 68.3285L87.0652 66.9192L87.845 61.7123L96.8018 63.1729L96.0221 68.3285ZM86.6654 66.8577L77.7135 65.4535L78.5082 60.3081L87.4601 61.7123L86.6654 66.8577ZM77.3186 65.392L68.3618 63.9878L69.1415 58.7758L78.0934 60.18L77.3186 65.392ZM67.9669 63.9263L59.0151 62.5836L59.7948 57.3767L68.7467 58.7809L67.9669 63.9263ZM67.902 64.3311L67.1272 69.5431L58.1704 68.1389L58.9501 62.9269L67.902 64.3311ZM57.7755 68.0774L48.8236 66.7603L49.6034 61.5483L58.5552 62.9526L57.7755 68.0774ZM44.5701 95.2443L53.517 96.6485L52.7423 101.86L43.7854 100.456L44.5701 95.2443ZM53.9219 96.71L62.8737 98.1142L62.099 103.326L53.1421 101.922L53.9219 96.71ZM62.014 103.736L61.2393 108.948L52.2874 107.544L53.0622 102.332L62.014 103.736ZM62.4139 103.798L71.3857 105.197L70.611 110.409L61.6591 109.005L62.4139 103.798ZM71.7656 105.268L80.7175 106.673L79.9427 111.885L71.0109 110.475L71.7656 105.268ZM81.1373 106.734L90.0892 108.138L89.3144 113.35L80.3576 111.946L81.1373 106.734ZM90.504 108.2L99.4559 109.609L98.6812 114.816L89.7143 113.397L90.504 108.2ZM99.8557 109.671L108.808 111.075L107.998 116.287L99.046 114.883L99.8557 109.671ZM109.207 111.136L118.159 112.541L117.385 117.753L108.428 116.348L109.207 111.136ZM118.559 112.602L127.491 114.011L126.716 119.218L117.759 117.814L118.559 112.602ZM127.911 114.073L136.863 115.477L136.088 120.689L127.131 119.285L127.911 114.073ZM137.263 115.539L146.214 116.943L145.44 122.155L136.488 120.751L137.263 115.539ZM146.614 117.01L155.566 118.414L154.776 123.646L145.82 122.237L146.614 117.01ZM155.966 118.475L164.918 119.879L164.143 125.091L155.186 123.687L155.966 118.475ZM156.026 118.065L156.806 112.853L165.758 114.263L164.978 119.469L156.026 118.065ZM166.157 114.324L175.109 115.728L174.335 120.94L165.363 119.546L166.157 114.324ZM180.842 77.3175L180.188 81.6224L171.236 80.2182L172.015 75.0062L180.063 76.2669C180.299 76.3049 180.511 76.4361 180.654 76.6325C180.797 76.8288 180.859 77.0747 180.827 77.3175H180.842ZM51.3877 56.0494L59.4349 57.3101L58.6602 62.5221L49.6633 61.123L50.3031 56.8386C50.3208 56.7163 50.3619 56.5988 50.4241 56.4928C50.4863 56.3868 50.5682 56.2945 50.6653 56.2212C50.7624 56.1478 50.8727 56.0949 50.9898 56.0654C51.1069 56.0359 51.2286 56.0305 51.3478 56.0494H51.3877ZM43.1306 105.145L43.7704 100.861L52.7223 102.27L51.9476 107.477L43.8554 106.222C43.615 106.183 43.3994 106.047 43.2561 105.846C43.1128 105.644 43.0533 105.392 43.0907 105.145H43.1306ZM172.575 126.419L164.523 125.153L165.303 119.941L174.255 121.345L173.615 125.635C173.578 125.88 173.448 126.1 173.253 126.247C173.058 126.394 172.814 126.456 172.575 126.419Z" fill="white"/>
</g>
<path id="Vector_66" opacity="0.5" d="M175.873 110.516L173.614 125.624C173.597 125.741 173.557 125.853 173.498 125.954C173.438 126.056 173.36 126.144 173.267 126.214C173.174 126.284 173.068 126.334 172.956 126.362C172.844 126.39 172.728 126.395 172.614 126.377L43.8243 106.165C43.7107 106.147 43.6017 106.106 43.5035 106.045C43.4054 105.983 43.32 105.903 43.2522 105.807C43.1844 105.712 43.1356 105.604 43.1086 105.49C43.0815 105.375 43.0767 105.256 43.0945 105.14L43.3944 103.121C43.3944 103.121 49.4473 98.1188 53.236 98.7133C57.7094 99.4154 58.5141 102.019 62.5127 102.634C66.5113 103.249 70.8898 93.7678 74.5085 94.3316C76.4628 94.639 76.9626 96.1816 77.9173 97.5961C78.327 98.2463 78.8702 98.797 79.5091 99.2095C80.148 99.622 80.8671 99.8864 81.616 99.9843L81.7659 100.01C86.6642 100.779 93.2919 74.1191 100.03 75.1748C103.028 75.6412 104.213 81.5245 105.108 88.0229C106.242 96.2226 106.882 105.447 110.006 105.914C115.594 106.79 117.503 95.1515 122.692 95.9869C125.955 96.4994 127.145 102.7 129.894 107.615C131.518 110.521 133.693 112.981 137.172 113.524C140.335 114.037 142.45 113.268 144.094 112.084C147.318 109.773 148.757 105.827 152.786 106.447C155.175 106.821 156.045 108.707 156.935 110.485C157.709 112.023 158.499 113.509 160.338 113.796C162.503 114.139 164.337 110.962 166.301 108.158C167.906 105.842 169.58 103.761 171.569 104.059C173.559 104.356 174.808 106.882 175.413 108.671C175.602 109.276 175.755 109.892 175.873 110.516Z" fill="#92E3A9"/>
<path id="Vector_67" opacity="0.5" d="M178.972 89.7552L173.614 125.629C173.597 125.746 173.557 125.858 173.498 125.96C173.438 126.061 173.36 126.149 173.267 126.219C173.174 126.289 173.068 126.34 172.956 126.368C172.844 126.396 172.728 126.401 172.614 126.383L43.8243 106.165C43.7107 106.147 43.6017 106.106 43.5035 106.045C43.4054 105.983 43.32 105.903 43.2522 105.808C43.1844 105.712 43.1356 105.604 43.1086 105.49C43.0815 105.375 43.0767 105.256 43.0945 105.14L43.3944 103.121C48.7425 103.961 51.5965 99.8563 55.1853 100.42C58.774 100.984 60.6334 103.551 63.9922 104.079C67.351 104.607 72.5342 96.5457 76.2079 97.1248C76.784 97.2106 77.3468 97.3725 77.8823 97.6065C79.2968 98.2113 80.2715 99.185 81.581 99.9947C82.6116 100.635 83.7572 101.057 84.9498 101.235C89.2533 101.906 97.8653 85.9372 102.859 86.7213C103.723 86.8815 104.506 87.3454 105.073 88.0333C108.022 91.3286 108.781 99.5693 112.94 100.22C117.983 101.015 120.682 92.6047 125.576 93.3683C130.469 94.1319 131.908 102.783 137.571 103.669C143.234 104.556 149.377 88.6893 155.26 89.6117C161.143 90.5342 162.823 98.6879 167.936 99.4873C173.549 100.369 178.972 89.7552 178.972 89.7552Z" fill="#92E3A9"/>
<path id="Vector_68" d="M176.473 106.431L173.604 125.624C173.587 125.741 173.547 125.853 173.488 125.954C173.428 126.055 173.35 126.144 173.257 126.214C173.164 126.284 173.058 126.334 172.946 126.362C172.834 126.39 172.718 126.395 172.604 126.377L43.8243 106.165C43.7107 106.147 43.6017 106.106 43.5035 106.044C43.4054 105.983 43.32 105.902 43.2522 105.807C43.1844 105.712 43.1356 105.604 43.1086 105.49C43.0815 105.375 43.0767 105.256 43.0945 105.14L43.2395 104.151C43.4244 103.971 46.4583 101.035 49.5373 101.516C52.7211 102.029 52.7311 104.94 57.1696 105.616C61.608 106.293 62.9026 102.711 69.2004 103.7C75.4981 104.689 75.4782 109.204 81.9909 110.229C88.5036 111.254 89.8481 105.837 94.4865 106.564C99.1249 107.292 98.8 110.054 101.429 110.464C104.058 110.874 105.588 106.652 108.821 107.159C112.055 107.666 114.529 114.616 118.173 115.19C120.732 115.589 125.256 110.393 129.874 107.605C131.823 106.426 133.798 105.678 135.637 105.97C139.441 106.564 141.66 109.609 144.074 112.074C145.574 113.611 147.188 114.944 149.297 115.277C152.296 115.748 154.6 112.95 156.915 110.49C158.794 108.486 160.688 106.703 162.992 107.062C164.145 107.212 165.26 107.58 166.281 108.148C168.281 109.296 168.805 110.844 171.195 111.223C174.069 111.689 176.473 106.431 176.473 106.431Z" fill="#92E3A9"/>
<path id="Vector_69" d="M59.039 54.0812L52.1214 52.9947C51.9615 52.9697 51.8079 52.9126 51.6695 52.8266C51.5312 52.7407 51.4107 52.6275 51.3151 52.4938C51.2194 52.36 51.1505 52.2082 51.1121 52.047C51.0738 51.8858 51.0669 51.7185 51.0918 51.5546C51.1411 51.2231 51.3167 50.9252 51.58 50.7263C51.8433 50.5274 52.1729 50.4438 52.4963 50.4938L59.4088 51.5802C59.7316 51.6321 60.0213 51.8124 60.215 52.0821C60.4088 52.3517 60.4909 52.6889 60.4435 53.0203C60.3929 53.3512 60.217 53.6483 59.954 53.8469C59.691 54.0456 59.3622 54.1298 59.039 54.0812Z" fill="#92E3A9"/>
<path id="Vector_70" d="M62.8579 52.6509H62.9679L69.8855 53.7374C69.9839 53.7503 70.0788 53.7833 70.1646 53.8343C70.2505 53.8853 70.3255 53.9535 70.3853 54.0346C70.4986 54.1961 70.547 54.3962 70.5202 54.5933C70.4921 54.7703 70.404 54.9316 70.2715 55.0487C70.139 55.1658 69.9705 55.2314 69.7955 55.2339H69.6805L62.768 54.1474C62.6691 54.1362 62.5735 54.1041 62.4874 54.0529C62.4014 54.0017 62.3267 53.9326 62.2681 53.8501C62.1874 53.7386 62.1385 53.6061 62.127 53.4677C62.1156 53.3292 62.1419 53.1902 62.2031 53.0662C62.2644 52.9423 62.3581 52.8382 62.4737 52.7658C62.5894 52.6933 62.7224 52.6553 62.8579 52.6561M62.8579 52.1436C62.5425 52.1352 62.236 52.2516 62.0019 52.4685C61.7678 52.6854 61.6239 52.9863 61.6002 53.3089C61.5764 53.6316 61.6745 53.9512 61.8742 54.2017C62.0739 54.4522 62.3599 54.6144 62.673 54.6547L69.5856 55.7412C69.6488 55.7463 69.7123 55.7463 69.7755 55.7412C70.0857 55.7395 70.3839 55.6181 70.6107 55.4011C70.8376 55.1842 70.9765 54.8877 70.9998 54.5705C71.0231 54.2534 70.9291 53.9388 70.7365 53.6895C70.544 53.4402 70.2669 53.2743 69.9604 53.2249L63.0429 52.1436C62.9813 52.1385 62.9195 52.1385 62.8579 52.1436Z" fill="#92E3A9"/>
<path id="Vector_71" d="M73.404 54.3065H73.509L80.4216 55.3929C80.6026 55.4238 80.7658 55.5229 80.8792 55.6709C80.9925 55.8189 81.0477 56.0051 81.0339 56.1927C81.0201 56.3803 80.9383 56.5559 80.8047 56.6848C80.671 56.8138 80.4951 56.8867 80.3116 56.8894H80.2016L73.2841 55.8029C73.1856 55.7903 73.0906 55.7575 73.0047 55.7064C72.9188 55.6553 72.8438 55.5871 72.7842 55.5057C72.7275 55.4261 72.6868 55.3357 72.6645 55.2398C72.6422 55.1439 72.6387 55.0444 72.6543 54.9471C72.6815 54.7709 72.7688 54.6104 72.9006 54.494C73.0323 54.3777 73.2001 54.313 73.374 54.3116M73.374 53.7991C73.0586 53.7908 72.7521 53.9071 72.518 54.124C72.2839 54.3409 72.14 54.6418 72.1163 54.9645C72.0925 55.2871 72.1906 55.6067 72.3903 55.8572C72.59 56.1078 72.876 56.27 73.1891 56.3103L80.1067 57.3967C80.1682 57.4018 80.2301 57.4018 80.2916 57.3967C80.6018 57.395 80.9 57.2736 81.1268 57.0567C81.3537 56.8397 81.4926 56.5432 81.5159 56.2261C81.5392 55.9089 81.4452 55.5944 81.2526 55.345C81.0601 55.0957 80.783 54.9298 80.4766 54.8804L73.564 53.7991C73.5008 53.794 73.4373 53.794 73.374 53.7991Z" fill="#92E3A9"/>
<path id="Vector_72" d="M181.102 72.0946L181.187 71.5411L180.787 71.4438C180.778 71.3522 180.756 71.2625 180.722 71.1773L181.032 70.9005L180.712 70.4495L180.357 70.6699C180.288 70.6132 180.212 70.5651 180.132 70.5264L180.157 70.1062L179.617 70.0242L179.522 70.4342C179.435 70.4437 179.349 70.4644 179.267 70.4957L178.992 70.1779L178.553 70.511L178.767 70.8698C178.712 70.9415 178.667 71.0209 178.633 71.1055L178.223 71.0748L178.138 71.6283L178.538 71.7307C178.547 71.8206 178.569 71.9087 178.603 71.9921L178.293 72.2689L178.618 72.7198L178.967 72.4995C179.037 72.555 179.113 72.6031 179.192 72.643L179.167 73.0632L179.707 73.1452L179.802 72.7403C179.891 72.7261 179.977 72.7038 180.062 72.6737L180.332 72.9915L180.772 72.6583L180.557 72.2996C180.611 72.2289 180.657 72.1514 180.692 72.069L181.102 72.0946ZM179.567 72.2279C179.443 72.2081 179.328 72.1511 179.235 72.0639C179.143 71.9768 179.078 71.8636 179.048 71.7385C179.018 71.6134 179.025 71.4821 179.069 71.3612C179.112 71.2403 179.189 71.1353 179.29 71.0593C179.391 70.9833 179.512 70.9399 179.638 70.9344C179.763 70.929 179.888 70.9618 179.995 71.0288C180.102 71.0957 180.187 71.1937 180.24 71.3105C180.293 71.4272 180.311 71.5574 180.292 71.6846C180.279 71.7691 180.25 71.8501 180.207 71.9232C180.164 71.9962 180.107 72.0597 180.039 72.1102C179.972 72.1606 179.896 72.197 179.815 72.2172C179.734 72.2373 179.65 72.241 179.567 72.2279Z" fill="#92E3A9"/>
<path id="Vector_73" opacity="0.2" d="M103.362 133.079L101.89 132.848L100.272 143.689L101.745 143.921L103.362 133.079Z" fill="#92E3A9"/>
<path id="Vector_74" d="M103.12 134.708L101.647 134.477L100.886 139.579L102.358 139.81L103.12 134.708Z" fill="#92E3A9"/>
<path id="Vector_75" opacity="0.2" d="M99.6501 135.291L98.1772 135.06L96.5593 145.901L98.0322 146.132L99.6501 135.291Z" fill="#92E3A9"/>
<path id="Vector_76" d="M97.7372 137.915L96.9751 143.022L98.4479 143.253L99.21 138.146L97.7372 137.915Z" fill="#92E3A9"/>
<path id="Vector_77" opacity="0.2" d="M96.9897 132.761L95.5146 132.532L93.9102 143.39L95.3853 143.619L96.9897 132.761Z" fill="#92E3A9"/>
<path id="Vector_78" d="M96.0339 136.773L94.561 136.542L93.7989 141.648L95.2718 141.879L96.0339 136.773Z" fill="#92E3A9"/>
<path id="Vector_79" opacity="0.2" d="M106.354 135.736L104.881 135.505L103.263 146.346L104.736 146.577L106.354 135.736Z" fill="#92E3A9"/>
<path id="Vector_80" d="M106.117 137.365L104.644 137.134L103.882 142.241L105.355 142.472L106.117 137.365Z" fill="#92E3A9"/>
<path id="Vector_81" opacity="0.2" d="M110.141 133.049L108.668 132.818L107.051 143.659L108.523 143.89L110.141 133.049Z" fill="#92E3A9"/>
<path id="Vector_82" d="M109.958 134.272L108.485 134.041L107.723 139.147L109.196 139.379L109.958 134.272Z" fill="#92E3A9"/>
<path id="Vector_83" opacity="0.2" d="M113.037 136.366L111.564 136.135L109.947 146.976L111.419 147.207L113.037 136.366Z" fill="#92E3A9"/>
<path id="Vector_84" d="M112.973 136.776L111.5 136.545L110.738 141.652L112.211 141.883L112.973 136.776Z" fill="#92E3A9"/>
<path id="Vector_85" opacity="0.2" d="M117.189 131.216L115.716 130.985L114.098 141.826L115.571 142.058L117.189 131.216Z" fill="#92E3A9"/>
<path id="Vector_86" d="M117.133 131.628L115.661 131.396L114.899 136.498L116.372 136.729L117.133 131.628Z" fill="#92E3A9"/>
<path id="Vector_87" opacity="0.2" d="M119.482 138.565L118.009 138.334L116.391 149.175L117.864 149.406L119.482 138.565Z" fill="#92E3A9"/>
<path id="Vector_88" d="M119.239 140.199L117.766 139.968L117.004 145.074L118.477 145.305L119.239 140.199Z" fill="#92E3A9"/>
<path id="Vector_89" opacity="0.2" d="M122.698 139.717L121.226 139.486L119.608 150.327L121.08 150.558L122.698 139.717Z" fill="#92E3A9"/>
<path id="Vector_90" d="M122.088 143.802L120.615 143.571L119.853 148.677L121.326 148.908L122.088 143.802Z" fill="#92E3A9"/>
<path id="Vector_91" opacity="0.2" d="M127.03 133.423L125.558 133.192L123.94 144.033L125.413 144.264L127.03 133.423Z" fill="#92E3A9"/>
<path id="Vector_92" d="M126.355 137.921L124.882 137.69L124.12 142.791L125.593 143.022L126.355 137.921Z" fill="#92E3A9"/>
<path id="Vector_93" opacity="0.2" d="M129.624 138.716L128.151 138.485L126.533 149.326L128.006 149.557L129.624 138.716Z" fill="#92E3A9"/>
<path id="Vector_94" d="M129.316 140.761L127.843 140.53L127.082 145.632L128.555 145.863L129.316 140.761Z" fill="#92E3A9"/>
<path id="Vector_95" opacity="0.2" d="M133.355 136.406L131.882 136.175L130.264 147.016L131.737 147.247L133.355 136.406Z" fill="#92E3A9"/>
<path id="Vector_96" d="M133.52 138.07L132.045 137.841L131.29 142.955L132.765 143.184L133.52 138.07Z" fill="#92E3A9"/>
<path id="Vector_97" opacity="0.2" d="M137.395 132.054L135.922 131.823L134.304 142.664L135.777 142.896L137.395 132.054Z" fill="#92E3A9"/>
<path id="Vector_98" d="M137.39 132.059L135.917 131.828L135.155 136.934L136.628 137.165L137.39 132.059Z" fill="#92E3A9"/>
<path id="Vector_99" opacity="0.2" d="M139.682 139.443L138.209 139.211L136.592 150.053L138.064 150.284L139.682 139.443Z" fill="#92E3A9"/>
<path id="Vector_100" d="M139.494 140.67L138.021 140.439L137.259 145.546L138.732 145.777L139.494 140.67Z" fill="#92E3A9"/>
<path id="Vector_101" opacity="0.2" d="M142.276 144.73L140.803 144.499L139.185 155.34L140.658 155.571L142.276 144.73Z" fill="#92E3A9"/>
<path id="Vector_102" d="M142.093 145.953L140.621 145.722L139.859 150.828L141.331 151.059L142.093 145.953Z" fill="#92E3A9"/>
<path id="Vector_103" opacity="0.2" d="M146.442 139.511L144.969 139.28L143.351 150.121L144.824 150.353L146.442 139.511Z" fill="#92E3A9"/>
<path id="Vector_104" d="M145.837 143.587L144.364 143.356L143.602 148.463L145.075 148.694L145.837 143.587Z" fill="#92E3A9"/>
<path id="Vector_105" opacity="0.2" d="M150.67 133.903L149.197 133.672L147.579 144.513L149.052 144.744L150.67 133.903Z" fill="#92E3A9"/>
<path id="Vector_106" d="M149.936 138.8L148.463 138.569L147.701 143.676L149.174 143.907L149.936 138.8Z" fill="#92E3A9"/>
<path id="Vector_107" opacity="0.2" d="M153.065 140.547L151.592 140.316L149.974 151.157L151.447 151.388L153.065 140.547Z" fill="#92E3A9"/>
<path id="Vector_108" d="M153.27 142.187L151.795 141.958L151.039 147.072L152.514 147.302L153.27 142.187Z" fill="#92E3A9"/>
<path id="Vector_109" opacity="0.2" d="M156.101 142.873L154.628 142.641L153.01 153.483L154.483 153.714L156.101 142.873Z" fill="#92E3A9"/>
<path id="Vector_110" d="M155.436 147.365L153.963 147.134L153.201 152.24L154.674 152.471L155.436 147.365Z" fill="#92E3A9"/>
<path id="Vector_111" opacity="0.2" d="M159.919 140.007L158.446 139.776L156.828 150.617L158.301 150.848L159.919 140.007Z" fill="#92E3A9"/>
<path id="Vector_112" d="M159.918 140.012L158.445 139.781L157.683 144.887L159.156 145.118L159.918 140.012Z" fill="#92E3A9"/>
<path id="Vector_113" opacity="0.2" d="M162.724 143.909L161.251 143.677L159.634 154.519L161.106 154.75L162.724 143.909Z" fill="#92E3A9"/>
<path id="Vector_114" d="M162.601 144.725L161.128 144.494L160.366 149.6L161.839 149.831L162.601 144.725Z" fill="#92E3A9"/>
<path id="Vector_115" opacity="0.2" d="M166.258 142.965L164.785 142.734L163.167 153.575L164.64 153.806L166.258 142.965Z" fill="#92E3A9"/>
<path id="Vector_116" d="M166.193 143.375L164.72 143.144L163.958 148.251L165.431 148.482L166.193 143.375Z" fill="#92E3A9"/>
<path id="Vector_117" opacity="0.2" d="M169.353 144.879L167.88 144.648L166.262 155.489L167.735 155.72L169.353 144.879Z" fill="#92E3A9"/>
<path id="Vector_118" d="M169.045 150.185L167.57 149.956L166.815 155.071L168.29 155.3L169.045 150.185Z" fill="#92E3A9"/>
<path id="Vector_119" d="M115.894 159.936L88.1665 155.585L88.035 156.467L115.762 160.817L115.894 159.936Z" fill="#999999" stroke="#443D78" stroke-width="0.467641" stroke-linecap="round" stroke-linejoin="round"/>
</g>
<g id="freepik--right-hand--inject-304">
<path id="Vector_120" opacity="0.2" d="M133.519 97.9599C133.519 97.9599 129.76 100.097 132.155 105.888C134.549 111.679 149.109 121.201 148.814 126.039C148.814 126.039 133.864 116.486 129.71 122.001C129.71 122.001 141.001 133.229 142.176 141.675C143.351 150.121 147.174 153.867 156.011 158.684C164.848 163.502 184.061 188.921 184.061 188.921L181.187 146.231L153.197 113.842L139.362 105.755L133.519 97.9599Z" fill="black" fill-opacity="0.7"/>
<path id="Vector_121" d="M209.462 174.075L184.821 190.669H184.781C184.758 190.668 184.736 190.66 184.718 190.646C184.699 190.633 184.685 190.614 184.676 190.592C184.566 190.295 173.68 160.463 171.056 158.136C169.578 156.767 168.502 155.003 167.947 153.042C167.947 153.042 167.947 153.017 167.947 153.001C167.852 152.673 167.807 152.458 167.797 152.402C166.348 149.379 164.124 146.818 161.364 144.991C159.519 143.845 157.571 142.884 155.546 142.121C152.447 140.835 149.259 139.507 147.004 137.053C146.618 136.633 146.265 136.182 145.95 135.705C142.366 130.324 136.833 124.384 134.989 123.164C133.144 121.945 129.75 122.109 129.72 122.109C129.693 122.112 129.665 122.104 129.643 122.087C129.62 122.07 129.605 122.044 129.6 122.016C129.54 121.547 129.582 121.07 129.722 120.62C129.862 120.169 130.097 119.755 130.41 119.408C130.881 118.843 131.466 118.39 132.125 118.081C132.783 117.771 133.499 117.612 134.224 117.614C137.073 117.614 140.996 119.152 142.976 121.084C144.955 123.016 149.533 124.435 150.058 124.599C150.803 124.148 152.557 125.112 153.202 125.527C152.437 122.734 152.747 121.658 152.867 121.386C151.228 119.208 142.691 112.761 138.157 109.527C136.908 108.63 135.968 107.99 135.558 107.738C133.444 106.462 131.695 102.47 132.035 99.6822C132.051 99.3036 132.149 98.9335 132.322 98.5985C132.495 98.2635 132.738 97.972 133.034 97.745C133.459 97.4711 133.957 97.3403 134.459 97.3709C134.662 97.3763 134.865 97.402 135.063 97.4477C135.084 97.4566 135.102 97.4687 135.118 97.4836C135.158 97.54 139.402 102.701 140.871 103.51C141.591 103.905 145.42 105.888 149.059 107.733L150.698 108.564C150.688 106.939 150.772 105.315 150.948 103.7C151.088 103.065 152.078 102.163 153.202 101.65C153.727 101.404 154.702 101.051 155.416 101.44C155.691 101.599 156.341 102.009 157.241 102.583L158.74 103.536C159.059 103.033 159.45 102.582 159.9 102.198C160.275 101.973 162.349 101.578 163.089 101.845C163.733 102.086 165.803 103.434 167.992 104.858L168.937 105.468C169.052 105.248 169.321 104.787 169.576 104.684C170.657 104.275 171.833 104.211 172.95 104.5C173.69 104.776 176.229 106.698 178.688 108.558C180.038 109.583 181.332 110.562 182.187 111.152C182.216 111.159 182.241 111.177 182.257 111.203C182.502 111.372 182.707 111.505 182.862 111.597C184.671 112.658 189.12 136.581 189.165 136.822C189.454 138.426 190.514 140.081 191.634 141.834C192.901 143.659 193.937 145.641 194.718 147.733C196.142 152.002 199.386 158.249 204.139 165.885C204.569 166.568 205.012 167.27 205.469 167.991C206.753 169.985 208.123 172.066 209.462 174.075Z" fill="white"/>
<path id="Vector_122" opacity="0.4" d="M154.552 128.258C153.597 129.032 146.669 128.299 145.82 130.688C145.32 132.097 145.69 134.229 146.989 137.042C146.603 136.623 146.25 136.172 145.935 135.695C142.351 130.313 136.818 124.374 134.974 123.154C133.129 121.934 129.75 122.109 129.72 122.109C129.693 122.112 129.665 122.104 129.643 122.087C129.62 122.07 129.605 122.044 129.6 122.016C129.54 121.547 129.582 121.07 129.722 120.62C129.862 120.169 130.097 119.755 130.41 119.408C130.881 118.843 131.466 118.39 132.125 118.081C132.783 117.771 133.499 117.612 134.224 117.614C137.073 117.614 140.996 119.152 142.976 121.084C144.955 123.016 149.533 124.435 150.058 124.599C150.803 124.148 152.557 125.112 153.202 125.527C152.437 122.734 152.747 121.658 152.867 121.386C151.228 119.208 142.691 112.761 138.157 109.527C136.908 108.63 135.968 107.99 135.558 107.738C133.444 106.462 131.695 102.47 132.035 99.6822C132.051 99.3036 132.149 98.9335 132.322 98.5985C132.495 98.2635 132.738 97.972 133.034 97.745C133.459 97.4711 133.957 97.3403 134.459 97.3709C134.115 97.5086 133.797 97.7062 133.519 97.9551C132.13 99.1697 135.443 105.581 137.308 107.354C139.257 109.204 148.024 113.796 151.173 116.533C152.902 118.034 155.171 120.31 155.171 120.31C153.787 122.729 155.481 127.5 154.552 128.258Z" fill="#92E3A9"/>
<path id="Vector_123" d="M186.741 89.068C186.741 89.0223 186.741 89.0121 186.741 89.0324C186.744 89.0376 186.746 89.0439 186.746 89.0502C186.746 89.0566 186.744 89.0628 186.741 89.068Z" fill="#92E3A9"/>
<path id="Vector_124" opacity="0.4" d="M204.139 165.859C200.426 162.236 194.898 156.593 193.863 154.118C192.283 150.326 191.229 146.825 189.264 144.273C187.3 141.721 183.317 114.523 182.172 114.447C181.027 114.37 183.611 125.209 183.746 125.762C183.636 125.419 182.207 120.801 180.837 115.538C179.418 110.07 177.983 109.773 177.983 109.773C176.079 110.162 176.069 111.551 175.094 111.531C174.12 111.51 170.776 109.076 170.776 109.076C167.532 109.558 155.361 101.522 155.361 101.522C152.592 101.906 151.943 104.387 154.307 106.713C156.671 109.04 160.205 111.859 160.205 111.859C157.925 112.996 149.558 108.184 149.558 108.184L149.059 107.723L150.698 108.553C150.688 106.928 150.772 105.304 150.948 103.69C151.088 103.054 152.078 102.152 153.202 101.64C153.727 101.394 154.702 101.04 155.416 101.429C155.691 101.588 156.341 101.998 157.241 102.572L158.74 103.526C159.059 103.023 159.45 102.572 159.9 102.188C160.275 101.962 162.349 101.568 163.089 101.834C163.733 102.075 165.803 103.423 167.992 104.848L168.937 105.458C169.052 105.237 169.321 104.776 169.576 104.674C170.657 104.264 171.833 104.2 172.95 104.489C173.69 104.766 176.229 106.688 178.688 108.548C180.038 109.573 181.332 110.552 182.187 111.141C182.216 111.149 182.241 111.167 182.257 111.192C182.502 111.361 182.707 111.495 182.862 111.587C184.671 112.648 189.12 136.571 189.165 136.811C189.454 138.416 190.514 140.071 191.634 141.824C192.901 143.652 193.938 145.637 194.718 147.733C196.142 151.976 199.386 158.223 204.139 165.859Z" fill="#92E3A9"/>
<path id="Vector_125" d="M184.781 190.566C184.781 190.566 173.785 160.432 171.131 158.065C169.497 156.55 168.364 154.551 167.892 152.345C166.432 149.293 164.185 146.709 161.394 144.873C156.651 141.67 149.478 140.84 146.009 135.648C142.541 130.457 136.983 124.374 135.013 123.072C133.044 121.77 129.69 122.006 129.69 122.006C129.345 119.987 131.539 117.737 134.189 117.737C136.838 117.737 140.781 119.157 142.865 121.176C144.95 123.195 150.038 124.732 150.038 124.732C150.848 124.138 153.352 125.788 153.352 125.788C152.352 122.319 152.957 121.381 152.957 121.381C150.993 118.654 137.542 108.84 135.578 107.651C133.614 106.462 131.759 102.552 132.104 99.7027C132.113 99.3488 132.201 99.0017 132.363 98.6887C132.524 98.3757 132.754 98.1053 133.034 97.8987C133.315 97.6922 133.638 97.5551 133.979 97.4982C134.319 97.4412 134.668 97.4661 134.998 97.5707C134.998 97.5707 139.277 102.788 140.781 103.618C142.286 104.448 154.087 110.501 155.821 111.208C156.303 111.419 156.827 111.507 157.349 111.466C157.871 111.425 158.375 111.256 158.82 110.972" stroke="#443D78" stroke-width="0.467641" stroke-linecap="round" stroke-linejoin="round"/>
<path id="Vector_126" d="M150.808 108.748C150.808 108.748 150.808 104.802 151.058 103.731C151.308 102.66 154.092 100.815 155.362 101.522C156.631 102.229 166.008 108.553 168.452 108.835" stroke="#443D78" stroke-width="0.467641" stroke-linecap="round" stroke-linejoin="round"/>
<path id="Vector_127" d="M158.775 103.659C159.107 103.139 159.507 102.668 159.964 102.26C160.309 102.05 162.364 101.66 163.058 101.917C164.448 102.429 172.635 108.22 174.02 108.579" stroke="#443D78" stroke-width="0.467641" stroke-linecap="round" stroke-linejoin="round"/>
<path id="Vector_128" d="M168.976 105.617C168.976 105.617 169.331 104.889 169.616 104.771C170.671 104.37 171.819 104.308 172.91 104.592C174.184 105.068 181.182 110.742 182.801 111.68C184.421 112.617 188.474 133.624 189.049 136.827C189.624 140.03 193.103 143.233 194.602 147.743C196.102 152.253 199.695 159.131 205.363 168.027C206.363 169.565 207.403 171.189 208.447 172.758" stroke="#443D78" stroke-width="0.467641" stroke-linecap="round" stroke-linejoin="round"/>
<path id="Vector_129" d="M157.94 117.106C157.94 117.106 158.44 114.703 159.849 113.637C161.259 112.571 163.148 114.262 164.533 114.436" stroke="#443D78" stroke-width="0.467641" stroke-linecap="round" stroke-linejoin="round"/>
<path id="Vector_130" d="M167.396 113.283C167.396 113.283 168.176 110.521 169.566 109.901C170.955 109.281 173.094 111.146 174.019 111.233" stroke="#443D78" stroke-width="0.467641" stroke-linecap="round" stroke-linejoin="round"/>
<path id="Vector_131" d="M176.509 110.787C176.509 110.787 177.548 109.762 177.983 109.762C178.418 109.762 180.237 111.715 180.632 111.848C181.027 111.981 181.497 111.249 182.172 111.238" stroke="#443D78" stroke-width="0.467641" stroke-linecap="round" stroke-linejoin="round"/>
<path id="Vector_132" d="M173.345 108.271C174.105 108.213 174.863 108.405 175.51 108.819" stroke="#443D78" stroke-width="0.467641" stroke-linecap="round" stroke-linejoin="round"/>
<path id="Vector_133" d="M152.982 121.376C152.982 121.376 152.292 119.551 152.637 118.618" stroke="#443D78" stroke-width="0.467641" stroke-linecap="round" stroke-linejoin="round"/>
<path id="Vector_134" d="M154.337 107.989C154.337 107.989 155.162 108.978 155.207 109.773C155.252 110.567 157.206 111.531 157.206 111.531" stroke="#443D78" stroke-width="0.467641" stroke-linecap="round" stroke-linejoin="round"/>
<path id="Vector_135" d="M167.567 108.594C167.567 108.594 168.702 108.179 169.307 108.594" stroke="#443D78" stroke-width="0.467641" stroke-linecap="round" stroke-linejoin="round"/>
<path id="Vector_136" d="M152.983 123.779C152.944 123.193 153.046 122.606 153.281 122.07C153.515 121.534 153.875 121.065 154.328 120.704" stroke="#443D78" stroke-width="0.467641" stroke-linecap="round" stroke-linejoin="round"/>
<path id="Vector_137" d="M153.387 125.783C153.387 125.783 152.097 126.921 152.097 127.633" stroke="#443D78" stroke-width="0.467641" stroke-linecap="round" stroke-linejoin="round"/>
<path id="Vector_138" d="M147.449 123.779C148.979 124.364 150.248 126.803 151.173 127.218" stroke="#443D78" stroke-width="0.467641" stroke-linecap="round" stroke-linejoin="round"/>
<path id="Vector_139" d="M165.977 116.01C166.902 117.373 168.976 127.285 171.065 130.421" stroke="#443D78" stroke-width="0.467641" stroke-linecap="round" stroke-linejoin="round"/>
<path id="Vector_140" d="M173.735 113.211C173.91 113.329 175.125 117.183 175.125 117.183" stroke="#443D78" stroke-width="0.467641" stroke-linecap="round" stroke-linejoin="round"/>
<path id="Vector_141" d="M189.265 137.632C189.569 139.604 190.124 141.526 190.915 143.351" stroke="#443D78" stroke-width="0.467641" stroke-linecap="round" stroke-linejoin="round"/>
<path id="Vector_142" d="M168.048 153.016C167.893 152.365 167.223 148.096 166.398 146.672" stroke="#443D78" stroke-width="0.467641" stroke-linecap="round" stroke-linejoin="round"/>
</g>
<g id="freepik--left-hand--inject-304">
<path id="Vector_143" opacity="0.2" d="M27.9702 219.63C27.9702 219.63 44.2345 197.208 56.5002 193.103C68.7659 188.998 69.3707 183.428 68.8709 173.034C68.371 162.641 68.7409 152.166 65.3721 150.915C62.0033 149.665 69.4107 136.094 65.8719 130.718L42.6651 168.099L27.9702 219.63Z" fill="black" fill-opacity="0.7"/>
<path id="Vector_144" d="M24.0262 225.877L23.7813 225.795L24.1311 225.994L24.0262 225.877ZM63.5623 157.096C61.563 156.138 57.5944 151.643 57.0996 151.079C59.5987 146.764 62.0678 142.603 62.9225 141.603C64.6969 139.554 66.8611 133.573 65.9815 130.682C65.1767 128.028 62.5427 128.453 62.1828 128.525H62.1428C62.1293 128.527 62.1164 128.532 62.1051 128.54C62.0938 128.548 62.0845 128.559 62.0778 128.571C62.0228 128.668 56.6597 137.939 54.9953 140.158C54.2006 141.214 52.3712 143.618 50.4969 146.026L49.9421 145.939C48.7795 145.754 47.5936 145.788 46.4433 146.042L46.3284 146.083C45.7334 146.346 45.1601 146.658 44.614 147.015L44.2191 146.846C43.4294 146.508 41.7949 145.857 41.0202 145.821C40.0755 145.77 36.7467 147.359 34.7574 148.64C33.386 148.213 31.9567 148.014 30.5239 148.051C28.9994 148.117 25.8905 149.414 23.3914 150.454C22.2818 150.915 21.3221 151.315 20.7623 151.479L20.2625 151.633C18.763 152.089 17.9533 152.345 16.9137 154.477C15.8341 156.691 14.6695 164.947 14.1097 168.914L14.0347 169.452C13.8198 170.989 13.8547 173.685 13.8897 176.56C13.9447 180.558 13.9997 184.688 13.4199 186.297C12.6367 188.325 11.6019 190.24 10.341 191.996C10.176 192.237 10.0261 192.463 9.88614 192.678C9.10579 193.926 8.48272 195.271 8.03179 196.68C7.61194 197.818 7.08712 199.068 6.5773 200.211C5.63763 202.328 4.76294 204.075 4.76294 204.075C4.76294 204.075 22.4817 224.119 24.0262 225.877C24.1094 225.909 24.1945 225.937 24.2811 225.959C24.3411 225.856 27.6099 220.127 31.0737 214.474C34.0727 209.595 37.1866 204.772 38.5211 203.665C40.3511 202.056 41.682 199.932 42.3498 197.557C43.0695 195.184 47.6629 192.258 52.1063 189.429C57.0196 186.302 62.1028 183.069 62.2728 180.394C62.3677 179.01 62.6776 176.719 63.0375 174.059C64.0121 166.854 65.2217 157.88 63.5623 157.096ZM55.1453 168.617L52.961 170.795C52.6511 169.001 50.5269 166.618 50.192 166.254C50.3599 165.392 50.4685 164.518 50.5169 163.64C50.5969 162.641 50.6818 161.59 50.9217 161.421C51.1617 161.252 52.2663 159.371 54.0656 156.296C54.2156 158.464 56.0649 160.852 56.3148 161.196L55.1453 168.617Z" fill="white"/>
<path id="Vector_145" opacity="0.4" d="M29.2096 161.959C28.5649 167.863 22.9218 182.51 22.9218 182.51L21.9222 167.756C21.9222 167.756 17.5287 187.778 16.3242 188.501C15.1196 189.224 13.0053 193.052 11.8257 196.091C11.031 198.141 8.32696 199.535 6.62256 200.237C7.12238 199.094 7.6572 197.844 8.07705 196.706C8.52798 195.297 9.15105 193.952 9.9314 192.703C10.0713 192.488 10.2213 192.263 10.3862 192.022C11.6471 190.266 12.6819 188.35 13.4652 186.323C14.045 184.704 13.965 180.573 13.935 176.586C13.9 173.711 13.865 170.995 14.0799 169.478L14.1549 168.94C14.7147 164.973 15.8793 156.717 16.9589 154.503C17.9986 152.371 18.8183 152.115 20.3078 151.659L20.8076 151.505C21.3674 151.325 22.3071 150.926 23.4367 150.48C25.9358 149.455 29.0447 148.143 30.5692 148.076C31.9942 148.046 33.4148 148.248 34.7777 148.676C36.777 147.39 40.0958 145.806 41.0405 145.857C41.8152 145.893 43.4496 146.544 44.2394 146.882C40.9205 148.635 35.3375 152.858 35.3375 152.858C29.0247 154.262 29.2096 161.959 29.2096 161.959Z" fill="#92E3A9"/>
<path id="Vector_146" opacity="0.4" d="M40.395 154.118C42.0291 152.958 43.7226 151.889 45.4682 150.915C47.0877 150.136 47.6075 147.031 46.4679 146.154C46.4253 146.122 46.3755 146.1 46.3229 146.093L46.4379 146.052C47.5882 145.798 48.7741 145.764 49.9367 145.949C47.8424 149.173 46.203 151.643 45.7681 152.176C44.3286 153.97 40.395 154.118 40.395 154.118Z" fill="#92E3A9"/>
<path id="Vector_147" opacity="0.4" d="M48.6572 174.346L49.4222 174.685C48.9572 176.586 48.6572 174.346 48.6572 174.346Z" fill="#92E3A9"/>
<path id="Vector_148" opacity="0.4" d="M63.5628 157.096C61.5635 156.138 57.5949 151.643 57.1001 151.079C59.5992 146.764 62.0683 142.603 62.923 141.603C64.6974 139.554 66.8617 133.573 65.982 130.682C65.1773 128.028 62.5432 128.453 62.1833 128.525V128.638C62.1833 128.638 65.0323 129.001 65.0273 133.224C65.0223 137.447 57.6249 145.816 57.6249 145.816C57.6249 145.816 50.0176 160.448 49.5177 160.227C49.0179 160.007 47.9033 170.005 47.9033 170.005C47.9033 170.005 50.0226 171.856 49.5177 174.346C49.4911 174.469 49.4661 174.582 49.4428 174.684L52.7016 176.125C52.7016 176.125 55.9705 173.772 57.6299 177.231C59.2893 180.691 41.6755 193.052 40.291 194.881C40.291 194.881 40.0961 201.774 37.527 202.789C35.8625 203.445 32.9286 209.964 31.0742 214.479C34.0732 209.6 37.1871 204.778 38.5216 203.671C40.3516 202.061 41.6825 199.937 42.3503 197.562C43.07 195.189 47.6634 192.263 52.1068 189.434C57.0201 186.308 62.1033 183.074 62.2733 180.399C62.3682 179.015 62.6781 176.724 63.038 174.064C64.0127 166.854 65.2222 157.88 63.5628 157.096ZM55.1458 168.617L52.9615 170.795C52.6516 169.001 50.5274 166.618 50.1925 166.254C50.3604 165.392 50.469 164.518 50.5174 163.64C50.5974 162.641 50.6823 161.59 50.9223 161.421C51.1622 161.252 52.2668 159.371 54.0662 156.296C54.2161 158.464 56.0655 160.852 56.3154 161.196L55.1458 168.617Z" fill="#92E3A9"/>
<path id="Vector_149" d="M42.2495 154.252C43.6115 153.952 44.8495 153.227 45.7933 152.176C47.2927 150.449 53.3906 142.485 55.08 140.235C56.7694 137.985 62.1675 128.637 62.1675 128.637C62.1675 128.637 65.0365 127.946 65.8812 130.718C66.7259 133.491 64.7016 139.369 62.8423 141.532C60.9829 143.694 51.5313 160.832 50.8465 161.349C50.1617 161.867 50.6816 166.72 49.347 167.756" stroke="#443D78" stroke-width="0.467641" stroke-linecap="round" stroke-linejoin="round"/>
<path id="Vector_150" d="M50.0718 166.3C50.0718 166.3 52.7159 169.139 52.8858 171.041L55.245 168.673L56.4295 161.175C56.4295 161.175 54.0954 158.295 54.1653 155.927" stroke="#443D78" stroke-width="0.467641" stroke-linecap="round" stroke-linejoin="round"/>
<path id="Vector_151" d="M56.97 151.095C56.97 151.095 61.3235 156.158 63.5177 157.198C65.7119 158.239 62.5181 175.371 62.1682 180.388C61.8183 185.406 43.7697 192.493 42.2502 197.521C41.5921 199.879 40.2708 201.986 38.4515 203.578C35.5225 206.013 24.1865 225.907 24.1865 225.907" stroke="#443D78" stroke-width="0.467641" stroke-linecap="round" stroke-linejoin="round"/>
<path id="Vector_152" d="M50.562 146.154C50.562 146.154 47.9879 145.667 46.4684 146.154C44.949 146.641 38.5212 151.32 37.0217 152.176C35.5223 153.032 33.308 153.201 32.8032 154.252" stroke="#443D78" stroke-width="0.467641" stroke-linecap="round" stroke-linejoin="round"/>
<path id="Vector_153" d="M44.6192 147.149C44.6192 147.149 42.0201 145.991 41.0204 145.939C40.0208 145.888 35.9572 147.851 34.1029 149.235C32.6771 150.307 31.0757 151.108 29.3745 151.602" stroke="#443D78" stroke-width="0.467641" stroke-linecap="round" stroke-linejoin="round"/>
<path id="Vector_154" d="M34.7624 148.758C33.3995 148.321 31.9763 148.115 30.5488 148.148C28.3496 148.245 22.6116 151.013 20.8123 151.592C19.0129 152.171 18.1682 152.222 17.0436 154.534C15.919 156.845 14.6794 165.895 14.1746 169.473C13.6698 173.05 14.5694 183.52 13.5548 186.349C12.5402 189.178 10.9757 191.294 10.031 192.765C8.10672 195.696 8.32164 197.89 4.81787 204.101" stroke="#443D78" stroke-width="0.467641" stroke-linecap="round" stroke-linejoin="round"/>
<path id="Vector_155" d="M30.6889 155.031C28.4947 157.024 28.8995 160.832 29.1894 161.959C29.4793 163.087 28.1348 167.597 27.6899 170.005" stroke="#443D78" stroke-width="0.467641" stroke-linecap="round" stroke-linejoin="round"/>
<path id="Vector_156" d="M44.6192 156.958C40.6206 157.045 39.381 159.812 39.1211 161.632" stroke="#443D78" stroke-width="0.467641" stroke-linecap="round" stroke-linejoin="round"/>
<path id="Vector_157" d="M27.7352 152.858C26.5506 152.77 23.5117 154.677 22.9219 157.793" stroke="#443D78" stroke-width="0.467641" stroke-linecap="round" stroke-linejoin="round"/>
<path id="Vector_158" d="M56.4302 161.176C56.4302 161.176 57.0202 159.448 57.6102 159.274" stroke="#443D78" stroke-width="0.467641" stroke-linecap="round" stroke-linejoin="round"/>
<path id="Vector_159" d="M55.2461 168.673C54.9548 169.689 54.5939 170.682 54.1661 171.645C53.6661 172.67 54.1661 174.305 54.1661 174.305" stroke="#443D78" stroke-width="0.467641" stroke-linecap="round" stroke-linejoin="round"/>
<path id="Vector_160" d="M52.8865 171.04C52.8015 172.773 50.9415 174.628 50.5615 174.305" stroke="#443D78" stroke-width="0.467641" stroke-linecap="round" stroke-linejoin="round"/>
<path id="Vector_161" d="M36.9909 168.099C36.9309 170.005 33.5571 183.935 33.5571 183.935" stroke="#443D78" stroke-width="0.467641" stroke-linecap="round" stroke-linejoin="round"/>
</g>
</g>
</svg>
