<svg width="230" height="235" viewBox="0 0 230 235" fill="none" xmlns="http://www.w3.org/2000/svg">
<g id="Group 6527">
<g id="freepik--background-simple--inject-334">
<path id="Vector" d="M212.314 112.455C220.508 60.0086 176.772 7.14855 119.38 0.579238C118.666 0.500386 117.947 0.421534 117.233 0.352539C77.1217 -3.63439 40.4575 27.024 29.9729 50.4133C19.4883 73.8026 -7.94705 96.0535 2.22239 139.392C12.3918 182.731 40.0192 205.834 104.793 212.67C169.568 219.505 181.515 200.965 198.707 160.47C205.159 145.072 209.728 128.95 212.314 112.455Z" fill="#A9E8CB"/>
<path id="Vector_2" opacity="0.8" d="M212.314 112.455C220.508 60.0086 176.772 7.14855 119.38 0.579238C118.666 0.500386 117.947 0.421534 117.233 0.352539C77.1217 -3.63439 40.4575 27.024 29.9729 50.4133C19.4883 73.8026 -7.94705 96.0535 2.22239 139.392C12.3918 182.731 40.0192 205.834 104.793 212.67C169.568 219.505 181.515 200.965 198.707 160.47C205.159 145.072 209.728 128.95 212.314 112.455Z" fill="white"/>
</g>
<g id="freepik--Floor--inject-334">
<path id="Vector_3" d="M161.305 131.399C161.258 131.397 161.212 131.384 161.172 131.359C120.297 105.777 84.2436 104.254 61.201 107.512C36.2083 111.021 20.6759 120.705 20.5233 120.818C20.496 120.836 20.4654 120.848 20.4333 120.854C20.4012 120.859 20.3683 120.859 20.3365 120.851C20.3048 120.844 20.2748 120.83 20.2485 120.811C20.2222 120.792 20.2001 120.767 20.1835 120.739C20.1483 120.684 20.1363 120.618 20.1502 120.554C20.164 120.49 20.2025 120.434 20.2573 120.399C20.4149 120.305 36.0163 110.543 61.1321 107.039C76.0387 104.973 91.1853 105.415 105.947 108.345C124.695 112.016 143.374 119.625 161.477 130.955C161.505 130.972 161.53 130.994 161.549 131.02C161.568 131.047 161.582 131.077 161.589 131.109C161.597 131.14 161.597 131.173 161.592 131.205C161.586 131.237 161.574 131.268 161.556 131.295C161.529 131.335 161.491 131.367 161.446 131.385C161.401 131.403 161.352 131.408 161.305 131.399Z" fill="#443D78"/>
<path id="Vector_4" d="M94.2734 125.022C90.0431 121.543 102.645 108.138 102.645 108.138C97.1297 107.152 97.8783 107.35 97.8783 107.35C97.8783 107.35 83.5376 121.188 83.3899 129.073C83.2422 136.958 105.251 144.301 105.251 144.301L113.509 140.674L120.724 137.998C120.724 137.998 98.5086 128.501 94.2734 125.022Z" fill="#A9E8CB"/>
<path id="Vector_5" d="M105.251 144.538H105.172C104.266 144.237 83.0112 137.027 83.1442 129.073C83.287 121.454 96.2093 108.635 97.5981 107.285C97.6227 107.182 97.6473 107.118 97.928 107.127C98.4205 107.127 99.6024 107.364 102.67 107.911C102.713 107.92 102.753 107.941 102.786 107.971C102.818 108 102.843 108.038 102.856 108.08C102.87 108.122 102.872 108.166 102.863 108.209C102.853 108.252 102.833 108.292 102.803 108.325C102.71 108.424 93.3432 118.452 93.6485 123.218C93.654 123.529 93.7259 123.834 93.8593 124.115C93.9926 124.395 94.1844 124.644 94.4217 124.844C98.5781 128.265 120.586 137.658 120.808 137.776C120.854 137.795 120.893 137.827 120.92 137.868C120.947 137.91 120.961 137.958 120.961 138.008C120.958 138.057 120.941 138.104 120.912 138.145C120.883 138.185 120.844 138.216 120.798 138.234L113.598 140.901L105.369 144.518C105.332 144.535 105.291 144.542 105.251 144.538ZM97.9724 107.576C96.9086 108.621 83.7795 121.651 83.6366 129.053C83.4938 136.455 103.715 143.488 105.241 144.01L113.411 140.422L120.06 137.958C116.489 136.426 98.0019 128.393 94.1213 125.204C93.8318 124.962 93.5972 124.661 93.4333 124.321C93.2694 123.981 93.1799 123.61 93.1708 123.233C92.8753 118.704 100.484 110.124 102.148 108.305C99.1986 107.778 98.2678 107.63 97.9822 107.591L97.9724 107.576Z" fill="#443D78"/>
<path id="Vector_6" d="M82.5431 159.445C82.5101 159.445 82.4773 159.439 82.4468 159.426C82.4163 159.413 82.3887 159.394 82.3658 159.371C82.3427 159.348 82.3244 159.32 82.3119 159.29C82.2994 159.26 82.293 159.228 82.293 159.196C82.293 159.163 82.2994 159.131 82.3119 159.101C82.3244 159.071 82.3427 159.044 82.3658 159.021C82.4988 158.898 95.9136 146.311 119.838 137.962C134.056 133.032 148.999 130.517 164.046 130.521H164.406C183.4 130.521 203.084 134.345 222.916 141.89C222.977 141.913 223.027 141.959 223.054 142.019C223.082 142.079 223.084 142.147 223.061 142.208C223.038 142.27 222.992 142.319 222.932 142.347C222.873 142.374 222.805 142.376 222.744 142.354C177.688 125.213 142.018 130.757 120.025 138.411C96.1894 146.72 82.8386 159.243 82.7056 159.371C82.6632 159.416 82.6048 159.442 82.5431 159.445Z" fill="#443D78"/>
<path id="Vector_7" d="M225.038 206.446C224.972 206.446 224.908 206.419 224.861 206.372C224.61 206.111 199.075 180.035 157.206 165.408C113.238 150.057 42.5791 162.19 13.4054 182.475C13.3512 182.512 13.2844 182.526 13.2197 182.514C13.1551 182.502 13.0979 182.465 13.0606 182.411C13.0234 182.357 13.0093 182.29 13.0213 182.225C13.0333 182.16 13.0705 182.103 13.1247 182.066C27.9873 171.717 53.3149 163.457 80.8783 159.914C109.722 156.203 137.61 158.041 157.383 164.945C199.371 179.607 224.974 205.766 225.23 206.027C225.253 206.05 225.272 206.077 225.284 206.107C225.297 206.137 225.303 206.169 225.303 206.202C225.303 206.234 225.297 206.267 225.284 206.297C225.272 206.327 225.253 206.354 225.23 206.377C225.205 206.401 225.174 206.419 225.141 206.431C225.108 206.443 225.073 206.448 225.038 206.446Z" fill="#443D78"/>
<path id="Vector_8" d="M62.3135 194.125C57.1623 195.939 52.5922 197.501 48.5244 198.852C63.1113 205.677 81.569 210.221 104.813 212.675C109.945 213.217 114.742 213.597 119.238 213.824C148.904 192.139 162.481 167.006 162.481 167.006C163.491 167.336 145.959 159.613 126.182 158.933C126.167 158.938 101.43 180.371 62.3135 194.125Z" fill="#A9E8CB"/>
<path id="Vector_9" d="M80.2882 235C80.238 235.001 80.1888 234.986 80.1473 234.958C80.1058 234.93 80.0742 234.889 80.0567 234.842C80.0449 234.812 80.0392 234.779 80.0399 234.747C80.0407 234.714 80.0479 234.682 80.0612 234.652C80.0745 234.622 80.0936 234.596 80.1173 234.573C80.1411 234.551 80.169 234.533 80.1996 234.522C109.556 223.68 130.303 205.884 142.536 192.849C154.769 179.814 161.181 168.794 162.126 167.114C160.009 166.212 144.24 159.83 126.255 159.189C124.719 160.49 100.066 181.115 62.3969 194.357C24.0829 207.826 17.6365 207.663 9.4813 207.417C8.40279 207.387 7.28982 207.358 6.0685 207.358C6.00319 207.358 5.94056 207.332 5.89439 207.285C5.84821 207.239 5.82227 207.177 5.82227 207.111C5.82227 207.046 5.84821 206.983 5.89439 206.937C5.94056 206.891 6.00319 206.865 6.0685 206.865C7.29474 206.865 8.41264 206.894 9.51577 206.924C17.6267 207.151 24.0288 207.328 62.259 193.889C100.883 180.312 125.787 158.967 126.029 158.756C126.076 158.714 126.138 158.691 126.201 158.692C144.245 159.317 160.25 165.645 162.491 166.764H162.565C162.688 166.828 162.757 166.872 162.762 166.892C162.781 166.935 162.786 166.983 162.778 167.029C162.771 167.076 162.749 167.119 162.717 167.153C162.7 167.173 162.678 167.189 162.653 167.198C161.988 168.39 155.562 179.686 142.925 193.15C130.653 206.229 109.846 224.099 80.3818 234.951L80.2882 235Z" fill="#443D78"/>
<path id="Vector_10" d="M174.649 172.082C183.868 175.812 194.235 166.764 193.496 157.124C192.782 147.761 181.061 142.69 173.704 139.595C154.187 131.389 141.462 132.804 141.462 132.804C141.462 132.804 161.254 129.127 181.903 131.67C199.775 133.873 218.375 144.695 225.94 161.599C230.007 170.687 230.17 180.78 229.387 190.543C228.51 201.587 225.034 206.185 225.034 206.185C225.034 206.185 200.134 186.137 174.649 172.082Z" fill="#A9E8CB"/>
<path id="Vector_11" d="M225.04 206.445C224.984 206.444 224.931 206.425 224.887 206.391C224.636 206.189 199.707 186.185 174.532 172.312C174.478 172.282 174.438 172.231 174.419 172.172C174.401 172.112 174.405 172.048 174.432 171.992C174.459 171.936 174.506 171.892 174.564 171.869C174.622 171.846 174.686 171.846 174.744 171.869C178.684 173.466 183.116 172.776 186.957 169.981C191.207 166.867 193.62 161.953 193.256 157.168C192.537 147.799 180.718 142.802 173.612 139.826C154.405 131.738 141.601 133.034 141.488 133.049C141.424 133.055 141.361 133.036 141.311 132.997C141.26 132.958 141.227 132.9 141.217 132.837C141.209 132.774 141.225 132.71 141.262 132.659C141.3 132.607 141.356 132.572 141.419 132.561C141.616 132.522 161.487 128.905 181.934 131.428C191.194 132.607 200.073 135.844 207.922 140.9C216.259 146.321 222.568 153.437 226.168 161.48C230.521 171.213 230.309 182.124 229.615 190.557C228.738 201.546 225.355 206.14 225.212 206.327C225.192 206.354 225.167 206.376 225.139 206.393C225.11 206.41 225.078 206.421 225.045 206.425L225.04 206.445ZM176.729 172.978C200.042 186.121 222.587 203.932 224.991 205.839C225.651 204.824 228.394 200.093 229.152 190.537C229.822 182.159 230.034 171.341 225.705 161.712C218.81 146.281 201.175 134.311 181.875 131.931C166.648 130.053 151.731 131.595 145.098 132.507C150.239 132.66 160.497 133.784 173.809 139.382C180.989 142.403 193.015 147.464 193.749 157.124C194.128 162.091 191.641 167.172 187.253 170.38C183.973 172.761 180.225 173.658 176.729 172.963V172.978Z" fill="#443D78"/>
</g>
<g id="freepik--Flags--inject-334">
<path id="Vector_12" d="M141.809 136.41C141.615 136.41 141.43 136.334 141.292 136.198C141.153 136.063 141.074 135.879 141.07 135.685L139.169 41.0141C139.165 40.818 139.239 40.6284 139.375 40.487C139.511 40.3456 139.697 40.264 139.893 40.26C140.089 40.2561 140.278 40.3302 140.42 40.4661C140.561 40.602 140.643 40.7884 140.646 40.9845L142.547 135.655C142.55 135.753 142.533 135.85 142.498 135.94C142.463 136.031 142.41 136.114 142.343 136.184C142.276 136.254 142.195 136.31 142.106 136.349C142.017 136.388 141.921 136.408 141.823 136.41H141.809Z" fill="#443D78"/>
<path id="Vector_13" d="M152.489 53.0184L161.329 58.0452L158.315 62.3525L160.516 67.9312L148.751 64.24L152.489 53.0184Z" fill="#A9E8CB"/>
<path id="Vector_14" d="M160.522 68.1771C160.498 68.1819 160.473 68.1819 160.449 68.1771L148.703 64.476C148.672 64.4664 148.644 64.4505 148.619 64.4293C148.594 64.4081 148.575 64.382 148.56 64.3528C148.546 64.3228 148.539 64.29 148.539 64.2567C148.539 64.2234 148.546 64.1906 148.56 64.1606L152.298 52.9391C152.31 52.905 152.329 52.8738 152.353 52.8474C152.378 52.8211 152.408 52.8003 152.441 52.7863C152.475 52.7718 152.511 52.7643 152.547 52.7643C152.583 52.7643 152.619 52.7718 152.653 52.7863L161.493 57.8131C161.522 57.8306 161.548 57.8541 161.569 57.882C161.589 57.91 161.603 57.9419 161.611 57.9757C161.618 58.0087 161.618 58.0429 161.612 58.076C161.605 58.1091 161.591 58.1404 161.571 58.1679L158.617 62.3667L160.769 67.8272C160.785 67.8702 160.789 67.9171 160.781 67.9624C160.772 68.0077 160.751 68.0496 160.719 68.0835C160.696 68.1134 160.666 68.1376 160.632 68.1538C160.598 68.1701 160.56 68.1781 160.522 68.1771ZM149.073 64.0818L160.104 67.5315L158.095 62.4308C158.08 62.393 158.075 62.3523 158.079 62.312C158.083 62.2718 158.097 62.2331 158.119 62.1992L160.98 58.1137L152.643 53.3777L149.073 64.0818Z" fill="#443D78"/>
<path id="Vector_15" d="M152.046 63.003L148.751 64.24L152.489 53.0184L152.046 63.003Z" fill="#443D78"/>
<path id="Vector_16" d="M148.752 64.5115C148.713 64.5123 148.674 64.5035 148.639 64.4859C148.604 64.4682 148.573 64.4422 148.551 64.4101C148.528 64.3781 148.513 64.3409 148.508 64.3019C148.503 64.2629 148.507 64.2231 148.521 64.1862L152.259 52.9647C152.265 52.9323 152.277 52.9014 152.294 52.8738C152.312 52.8461 152.335 52.8222 152.362 52.8034C152.389 52.7847 152.42 52.7714 152.452 52.7644C152.484 52.7574 152.517 52.7568 152.549 52.7626C152.582 52.7685 152.612 52.7806 152.64 52.7984C152.668 52.8161 152.692 52.8392 152.71 52.8662C152.729 52.8932 152.742 52.9236 152.749 52.9557C152.756 52.9878 152.757 53.021 152.751 53.0534L152.308 63.0429C152.306 63.0906 152.29 63.1366 152.262 63.1752C152.234 63.2138 152.195 63.2432 152.15 63.2597L148.856 64.4967C148.823 64.5081 148.787 64.5131 148.752 64.5115ZM152.15 54.7684L149.136 63.8314L151.796 62.8457L152.15 54.7684Z" fill="#443D78"/>
<path id="Vector_17" d="M140.257 42.512L153.111 47.9872L152.047 63.0035L140.577 58.849L140.257 42.512Z" fill="#A9E8CB"/>
<path id="Vector_18" d="M152.046 63.2491H151.962L140.488 59.0897C140.442 59.0717 140.402 59.0407 140.373 59.0004C140.344 58.9602 140.328 58.9125 140.325 58.863L140.01 42.526C140.01 42.4852 140.019 42.4449 140.038 42.4088C140.057 42.3727 140.085 42.3418 140.119 42.319C140.155 42.2996 140.196 42.2894 140.237 42.2894C140.278 42.2894 140.319 42.2996 140.355 42.319L153.208 47.7548C153.257 47.774 153.297 47.8085 153.324 47.853C153.351 47.8975 153.362 47.9496 153.356 48.0012L152.292 63.0323C152.291 63.07 152.28 63.1067 152.261 63.1394C152.243 63.172 152.216 63.1995 152.184 63.2196C152.142 63.2432 152.094 63.2535 152.046 63.2491ZM140.823 58.6708L151.829 62.6627L152.859 48.1441L140.513 42.8907L140.823 58.6708Z" fill="#443D78"/>
<path id="Vector_19" d="M93.675 109.571C93.5444 109.571 93.4191 109.519 93.3268 109.426C93.2344 109.334 93.1825 109.209 93.1825 109.078L92.0696 69.3516C92.0656 69.2209 92.1138 69.094 92.2034 68.9988C92.2929 68.9036 92.4166 68.8479 92.5473 68.844C92.6779 68.8401 92.8047 68.8882 92.8998 68.9779C92.9949 69.0675 93.0506 69.1913 93.0545 69.322L94.1576 109.063C94.1576 109.194 94.1057 109.319 94.0134 109.412C93.921 109.504 93.7958 109.556 93.6652 109.556L93.675 109.571Z" fill="#443D78"/>
<path id="Vector_20" d="M97.9002 74.3439L101.727 76.9016L100.377 78.2421L101.781 80.3563L96.3687 79.0651L97.9002 74.3439Z" fill="#A9E8CB"/>
<path id="Vector_21" d="M101.785 80.6022H101.726L96.3088 79.3159C96.2758 79.3081 96.2447 79.2934 96.2176 79.273C96.1905 79.2525 96.1679 79.2266 96.1513 79.197C96.1346 79.1674 96.1243 79.1347 96.1209 79.1008C96.1175 79.067 96.1211 79.0329 96.1315 79.0005L97.6631 74.2744C97.6746 74.2386 97.6944 74.2061 97.721 74.1795C97.7475 74.1529 97.78 74.1331 97.8158 74.1216C97.8515 74.1095 97.8894 74.1054 97.9269 74.1097C97.9643 74.1139 98.0004 74.1264 98.0325 74.1462L101.854 76.704C101.884 76.7246 101.909 76.7514 101.927 76.7826C101.946 76.8138 101.957 76.8486 101.961 76.8846C101.965 76.9207 101.961 76.9571 101.949 76.9914C101.937 77.0257 101.918 77.0571 101.893 77.0834L100.692 78.281L101.982 80.2523C102.01 80.293 102.024 80.3411 102.024 80.3903C102.024 80.4395 102.01 80.4875 101.982 80.5283C101.957 80.5544 101.926 80.5746 101.892 80.5873C101.858 80.6001 101.821 80.6052 101.785 80.6022ZM96.688 78.8872L101.233 79.9714L100.175 78.3796C100.142 78.3319 100.127 78.2742 100.132 78.2165C100.138 78.1588 100.163 78.1049 100.204 78.0642L101.337 76.9356L98.0374 74.7278L96.688 78.8872Z" fill="#443D78"/>
<path id="Vector_22" d="M97.7476 78.5378L96.3687 79.0651L97.9002 74.3439L97.7476 78.5378Z" fill="#443D78"/>
<path id="Vector_23" d="M96.3668 79.296C96.3048 79.2975 96.2446 79.2745 96.1994 79.232C96.166 79.1994 96.1423 79.1582 96.131 79.1129C96.1197 79.0677 96.1212 79.0201 96.1354 78.9757L97.667 74.2495C97.686 74.194 97.7243 74.1471 97.7748 74.1173C97.8254 74.0874 97.8849 74.0767 97.9427 74.0869C98.0014 74.0965 98.0545 74.1275 98.0918 74.1739C98.129 74.2203 98.1479 74.2788 98.1446 74.3382L97.992 78.5321C97.991 78.5807 97.9755 78.6278 97.9474 78.6674C97.9193 78.7069 97.8799 78.7371 97.8344 78.7539L96.4555 79.2812C96.4269 79.2909 96.397 79.2959 96.3668 79.296ZM97.5882 76.0828L96.7608 78.6356L97.5094 78.3498L97.5882 76.0828Z" fill="#443D78"/>
<path id="Vector_24" d="M92.7339 69.972L98.1904 72.3425L97.7472 78.5373L92.9161 76.8272L92.7339 69.972Z" fill="#A9E8CB"/>
<path id="Vector_25" d="M97.7466 78.8035C97.7206 78.8083 97.6939 78.8083 97.6678 78.8035L92.8367 77.0935C92.7899 77.0781 92.7491 77.0484 92.7199 77.0086C92.6908 76.9689 92.6748 76.921 92.6742 76.8717L92.4871 70.0116C92.4852 69.9706 92.4942 69.9298 92.5132 69.8935C92.5323 69.8571 92.5606 69.8264 92.5954 69.8046C92.6315 69.7843 92.6722 69.7737 92.7136 69.7737C92.755 69.7737 92.7957 69.7843 92.8318 69.8046L98.2883 72.1751C98.3357 72.194 98.3757 72.2278 98.4023 72.2713C98.4289 72.3148 98.4408 72.3658 98.4361 72.4166L97.9928 78.6113C97.9906 78.6495 97.9796 78.6867 97.9609 78.72C97.9421 78.7533 97.916 78.7819 97.8845 78.8035C97.8393 78.8157 97.7918 78.8157 97.7466 78.8035ZM93.1617 76.6746L97.525 78.2171L97.9337 72.5201L93.0091 70.3714L93.1617 76.6746Z" fill="#443D78"/>
<path id="Vector_26" d="M126.845 114.587C126.781 114.586 126.72 114.56 126.674 114.515C126.628 114.47 126.601 114.409 126.599 114.345L125.786 88.5807C125.784 88.5161 125.808 88.4536 125.853 88.4066C125.897 88.3596 125.958 88.3319 126.022 88.3293C126.055 88.3266 126.088 88.3307 126.119 88.3413C126.15 88.352 126.178 88.369 126.202 88.3912C126.227 88.4135 126.246 88.4405 126.259 88.4705C126.272 88.5006 126.279 88.5331 126.279 88.5659L127.092 114.331C127.093 114.363 127.088 114.395 127.077 114.426C127.066 114.456 127.049 114.484 127.027 114.508C127.005 114.532 126.978 114.551 126.949 114.564C126.919 114.578 126.887 114.586 126.855 114.587H126.845Z" fill="#443D78"/>
<path id="Vector_27" d="M129.954 92.2631L132.766 94.1456L131.776 95.1313L132.81 96.6837L128.826 95.7375L129.954 92.2631Z" fill="#A9E8CB"/>
<path id="Vector_28" d="M132.812 96.9348H132.758L128.769 95.9886C128.703 95.9704 128.647 95.9282 128.611 95.8703C128.598 95.8392 128.591 95.8056 128.591 95.7718C128.591 95.7379 128.598 95.7044 128.611 95.6732L129.739 92.1939C129.751 92.1572 129.772 92.1239 129.799 92.0966C129.826 92.0692 129.86 92.0486 129.896 92.0362C129.932 92.0241 129.97 92.0204 130.008 92.0256C130.046 92.0307 130.082 92.0445 130.113 92.0658L132.925 93.9483C132.956 93.9679 132.982 93.9946 133.001 94.0264C133.02 94.0581 133.031 94.0938 133.033 94.1307C133.036 94.1665 133.031 94.2025 133.019 94.2364C133.008 94.2704 132.989 94.3015 132.964 94.3278L132.117 95.1705L133.038 96.5603C133.066 96.601 133.08 96.6491 133.08 96.6983C133.08 96.7475 133.066 96.7955 133.038 96.8363C133.013 96.8716 132.978 96.8994 132.939 96.9168C132.899 96.9341 132.855 96.9403 132.812 96.9348ZM129.143 95.5599L132.26 96.2991L131.571 95.2691C131.539 95.2206 131.526 95.1627 131.532 95.1053C131.538 95.0478 131.564 94.9943 131.605 94.9537L132.383 94.18L130.088 92.6473L129.143 95.5599Z" fill="#443D78"/>
<path id="Vector_29" d="M129.841 95.3481L128.826 95.7375L129.955 92.2631L129.841 95.3481Z" fill="#A9E8CB"/>
<path id="Vector_30" d="M128.828 95.9832C128.763 95.9826 128.702 95.9579 128.655 95.9142C128.622 95.8827 128.598 95.8424 128.587 95.7978C128.575 95.7533 128.577 95.7065 128.591 95.6628L129.719 92.1835C129.73 92.1182 129.767 92.0599 129.821 92.0216C129.875 91.9832 129.942 91.9679 130.007 91.979C130.072 91.9901 130.131 92.0267 130.169 92.0808C130.207 92.1349 130.222 92.202 130.211 92.2673L130.098 95.3573C130.096 95.4055 130.08 95.452 130.052 95.4914C130.024 95.5307 129.985 95.5611 129.941 95.5791L128.926 95.9684L128.828 95.9832ZM129.645 94.0168L129.222 95.3228L129.601 95.1749L129.645 94.0168Z" fill="#443D78"/>
<path id="Vector_31" d="M126.147 89.0437L130.166 90.7883L129.841 95.3469L126.285 94.0902L126.147 89.0437Z" fill="#A9E8CB"/>
<path id="Vector_32" d="M129.842 95.5934H129.758L126.203 94.3367C126.153 94.3159 126.112 94.2798 126.084 94.2337C126.057 94.1876 126.045 94.1339 126.05 94.0805L125.912 89.034C125.912 88.9926 125.922 88.9518 125.941 88.9149C125.96 88.8781 125.987 88.8463 126.02 88.822C126.057 88.8026 126.097 88.7925 126.139 88.7925C126.18 88.7925 126.22 88.8026 126.257 88.822L130.275 90.5666C130.323 90.5856 130.363 90.6193 130.389 90.6628C130.416 90.7063 130.428 90.7573 130.423 90.8081L130.098 95.3716C130.095 95.409 130.084 95.4454 130.066 95.4778C130.047 95.5103 130.021 95.538 129.99 95.5589C129.945 95.5838 129.893 95.5957 129.842 95.5934ZM126.542 93.9129L129.635 95.007L129.926 90.9412L126.419 89.4233L126.542 93.9129Z" fill="#443D78"/>
<path id="Vector_33" d="M164.867 175.253C164.606 175.253 164.355 175.15 164.17 174.965C163.986 174.78 163.882 174.529 163.882 174.268L164.985 16.5895C164.985 16.3281 165.089 16.0774 165.273 15.8926C165.458 15.7077 165.709 15.6039 165.97 15.6039C166.231 15.6039 166.482 15.7077 166.666 15.8926C166.851 16.0774 166.955 16.3281 166.955 16.5895L165.852 174.292C165.845 174.549 165.739 174.794 165.555 174.973C165.371 175.153 165.124 175.253 164.867 175.253Z" fill="#443D78"/>
<path id="Vector_34" d="M182.487 33.1827L194.434 41.7775L189.982 45.9222L194.247 52.8365L179.084 50.8701L182.487 33.1827Z" fill="#A9E8CB"/>
<path id="Vector_35" d="M194.247 53.0784H194.217L179.054 51.1071C179.021 51.1038 178.988 51.0933 178.959 51.0763C178.931 51.0593 178.906 51.0362 178.887 51.0086C178.847 50.9528 178.831 50.8838 178.842 50.8164L182.24 33.129C182.249 33.0884 182.267 33.0504 182.294 33.0186C182.32 32.9868 182.354 32.9621 182.393 32.9467C182.432 32.9316 182.474 32.9265 182.515 32.9316C182.556 32.9368 182.595 32.9521 182.629 32.9762L194.577 41.576C194.606 41.5966 194.631 41.6238 194.649 41.6553C194.667 41.6869 194.678 41.7221 194.68 41.7583C194.682 41.795 194.676 41.8317 194.663 41.8658C194.649 41.8999 194.628 41.9305 194.601 41.9555L190.297 45.9621L194.458 52.6842C194.484 52.7239 194.497 52.7701 194.497 52.8172C194.497 52.8644 194.484 52.9106 194.458 52.9503C194.437 52.9885 194.407 53.0204 194.37 53.0429C194.333 53.0654 194.29 53.0777 194.247 53.0784ZM179.379 50.6587L193.769 52.5215L189.775 46.0508C189.745 46.0025 189.732 45.9451 189.739 45.8885C189.746 45.8319 189.773 45.7795 189.814 45.7403L194.045 41.7977L182.654 33.6071L179.379 50.6587Z" fill="#443D78"/>
<path id="Vector_36" d="M187.589 50.0865L179.084 50.8701L182.487 33.1827L187.589 50.0865Z" fill="#443D78"/>
<path id="Vector_37" d="M179.083 51.1168C179.048 51.1165 179.014 51.1088 178.983 51.0944C178.951 51.0799 178.923 51.059 178.9 51.0331C178.875 51.0047 178.856 50.9708 178.846 50.9341C178.836 50.8973 178.834 50.8586 178.841 50.8211L182.239 33.1338C182.251 33.0801 182.28 33.0318 182.322 32.9962C182.364 32.9606 182.416 32.9397 182.471 32.9367C182.525 32.9342 182.579 32.9497 182.623 32.9809C182.668 33.0121 182.701 33.0572 182.717 33.1091L187.824 50.0129C187.834 50.0486 187.836 50.0861 187.83 50.1227C187.825 50.1594 187.811 50.1943 187.789 50.2248C187.768 50.2547 187.741 50.2797 187.71 50.2984C187.678 50.3171 187.644 50.3289 187.607 50.3333L179.107 51.1168H179.083ZM182.53 34.2081L179.383 50.5945L187.263 49.87L182.53 34.2081Z" fill="#443D78"/>
<path id="Vector_38" d="M166.415 18.6392L189.162 30.043L187.586 50.0861L166.268 40.5944L166.415 18.6392Z" fill="#A9E8CB"/>
<path id="Vector_39" d="M187.609 50.3324C187.575 50.3392 187.54 50.3392 187.506 50.3324L166.172 40.816C166.128 40.7963 166.091 40.7644 166.065 40.7243C166.039 40.6841 166.025 40.6373 166.024 40.5893L166.172 18.6391C166.172 18.5965 166.183 18.5547 166.203 18.5175C166.224 18.4804 166.254 18.4493 166.29 18.4272C166.327 18.4077 166.367 18.3976 166.409 18.3976C166.45 18.3976 166.49 18.4077 166.527 18.4272L189.279 29.831C189.323 29.8529 189.359 29.8878 189.383 29.9309C189.407 29.9741 189.417 30.0235 189.412 30.0725L187.836 50.1156C187.831 50.1547 187.817 50.1923 187.796 50.2255C187.775 50.2588 187.746 50.2869 187.713 50.3078C187.68 50.3227 187.645 50.3311 187.609 50.3324ZM166.522 40.4316L187.368 49.7262L188.909 30.1957L166.66 19.0383L166.522 40.4316Z" fill="#443D78"/>
</g>
<g id="freepik--Clouds--inject-334">
<path id="Vector_40" d="M106.244 23.0869H61.8288C61.7856 23.0877 61.7431 23.0766 61.7057 23.0549C61.6684 23.0332 61.6377 23.0016 61.617 22.9637C61.5963 22.9268 61.5854 22.8853 61.5854 22.843C61.5854 22.8007 61.5963 22.7591 61.617 22.7222C61.7008 22.5744 63.6312 19.1345 66.389 17.5575C68.0881 16.5718 70.8557 17.316 73.0718 17.9024C74.3818 18.2474 75.7361 18.6022 76.1202 18.346C76.4528 17.9974 76.702 17.5778 76.849 17.1189C77.5779 15.4827 78.8189 12.7426 83.5811 11.343C86.1173 10.6038 88.0576 11.4268 89.6138 12.0871C91.17 12.7475 92.1894 13.1763 93.2334 12.1364C93.7152 11.6221 94.1674 11.0808 94.5877 10.515C95.3718 9.46398 96.2362 8.47537 97.1732 7.55812C97.1968 7.53579 97.2245 7.51833 97.2549 7.50674C97.2852 7.49516 97.3176 7.48966 97.35 7.49058C97.3825 7.49149 97.4145 7.4988 97.4441 7.51208C97.4738 7.52536 97.5005 7.54435 97.5228 7.56797C97.5451 7.5916 97.5626 7.61938 97.5741 7.64975C97.5857 7.68012 97.5912 7.71247 97.5903 7.74497C97.5894 7.77746 97.5821 7.80945 97.5688 7.83912C97.5555 7.86879 97.5366 7.89555 97.513 7.91788C96.5927 8.8191 95.7447 9.79131 94.9767 10.8255C94.5437 11.4078 94.0767 11.964 93.5781 12.4913C92.3076 13.7627 90.9681 13.2009 89.4217 12.5455C87.8754 11.89 86.0877 11.1311 83.719 11.821C79.1538 13.1566 78.0408 15.665 77.3169 17.3258C77.1434 17.8752 76.8293 18.3696 76.4058 18.7599C75.8395 19.1394 74.6329 18.824 72.9586 18.3805C70.8262 17.8187 68.1668 17.1139 66.6451 17.9911C64.5226 19.2035 62.8531 21.6676 62.2769 22.599H106.259C106.324 22.599 106.387 22.625 106.433 22.6712C106.479 22.7174 106.505 22.7801 106.505 22.8454C106.505 22.8787 106.497 22.9114 106.484 22.9417C106.47 22.9721 106.451 22.9993 106.426 23.0219C106.402 23.0444 106.373 23.0618 106.342 23.073C106.311 23.0842 106.278 23.0889 106.244 23.0869Z" fill="#443D78"/>
<path id="Vector_41" d="M138.614 23.0874H111.238C111.173 23.0874 111.11 23.0614 111.064 23.0152C111.018 22.969 110.992 22.9063 110.992 22.841C110.992 22.7756 111.018 22.713 111.064 22.6667C111.11 22.6205 111.173 22.5946 111.238 22.5946H138.294C137.925 21.2935 136.28 16.1879 132.68 14.8819C129.76 13.8174 128.248 15.4881 127.12 16.7103C126.772 17.1711 126.329 17.551 125.82 17.8241C125.617 17.9241 125.394 17.9761 125.168 17.9761C124.941 17.9761 124.718 17.9241 124.515 17.8241C124.372 17.7386 124.247 17.6244 124.15 17.4888C124.052 17.3531 123.984 17.1988 123.949 17.0355C123.904 16.9419 118.039 2.8275 108.229 3.58645C105.516 3.72351 102.867 4.45535 100.468 5.73022C100.411 5.76214 100.344 5.77021 100.281 5.75266C100.218 5.73511 100.165 5.69337 100.133 5.63659C100.116 5.60859 100.106 5.57755 100.102 5.54534C100.097 5.51313 100.1 5.4804 100.109 5.44911C100.117 5.41782 100.132 5.38862 100.152 5.36325C100.173 5.33788 100.198 5.31687 100.227 5.30147C102.687 3.99115 105.406 3.23746 108.19 3.09363C118.394 2.31497 124.362 16.7546 124.441 16.8926C124.462 16.9932 124.503 17.0886 124.561 17.1733C124.62 17.2579 124.694 17.33 124.781 17.3854C124.923 17.4429 125.075 17.4696 125.228 17.4636C125.381 17.4577 125.531 17.4193 125.667 17.351C126.097 17.096 126.475 16.7615 126.78 16.3653C127.918 15.1185 129.637 13.231 132.872 14.394C137.231 15.9809 138.806 22.4862 138.87 22.772C138.879 22.8076 138.88 22.8447 138.872 22.8806C138.864 22.9165 138.849 22.9501 138.826 22.979C138.803 23.0131 138.771 23.0409 138.734 23.0599C138.697 23.0788 138.656 23.0882 138.614 23.0874Z" fill="#443D78"/>
<path id="Vector_42" d="M204.755 84.4689H176.222C176.179 84.4686 176.137 84.4571 176.1 84.4355C176.062 84.4139 176.032 84.3829 176.01 84.3457C175.989 84.3088 175.979 84.2672 175.979 84.2249C175.979 84.1826 175.989 84.141 176.01 84.1042C176.059 84.0204 177.138 82.0935 178.689 81.2064C179.674 80.6495 181.215 81.0585 182.466 81.3887C183.097 81.5563 183.885 81.7633 184.057 81.6499C184.219 81.466 184.343 81.2516 184.421 81.0191C184.83 80.0975 185.52 78.555 188.209 77.7665C189.647 77.3476 190.74 77.8108 191.616 78.1805C192.493 78.5501 192.995 78.7324 193.493 78.2297C193.756 77.9507 194.003 77.6562 194.231 77.3476C194.747 76.6444 195.335 75.9969 195.985 75.4157C196.031 75.3703 196.094 75.3448 196.159 75.3448C196.225 75.3448 196.287 75.3703 196.334 75.4157C196.357 75.4382 196.375 75.4651 196.388 75.4947C196.4 75.5243 196.407 75.5561 196.407 75.5882C196.407 75.6203 196.4 75.6522 196.388 75.6818C196.375 75.7114 196.357 75.7382 196.334 75.7607C195.709 76.3224 195.143 76.9466 194.645 77.6236C194.404 77.9489 194.144 78.2599 193.867 78.555C193.109 79.314 192.301 78.969 191.449 78.6092C190.597 78.2495 189.642 77.8453 188.371 78.215C185.909 78.9345 185.293 80.2947 184.894 81.1719C184.796 81.4979 184.608 81.7898 184.352 82.0146C183.998 82.2512 183.313 82.0688 182.383 81.8175C181.225 81.5119 179.782 81.1325 178.98 81.5908C178.062 82.1946 177.288 82.994 176.714 83.9317H204.785C204.85 83.9317 204.913 83.9576 204.959 84.0039C205.005 84.0501 205.031 84.1127 205.031 84.1781C205.031 84.2434 205.005 84.3061 204.959 84.3523C204.913 84.3985 204.85 84.4245 204.785 84.4245L204.755 84.4689Z" fill="#443D78"/>
<path id="Vector_43" d="M218.636 84.4687H207.087C207.022 84.4687 206.96 84.4428 206.913 84.3966C206.867 84.3504 206.841 84.2877 206.841 84.2223C206.841 84.157 206.867 84.0943 206.913 84.0481C206.96 84.0019 207.022 83.9759 207.087 83.9759H218.316C218.05 83.1036 217.153 80.5952 215.326 79.9299C213.775 79.368 212.997 80.2206 212.372 80.9155C212.168 81.1845 211.907 81.405 211.608 81.5611C211.482 81.6226 211.343 81.6545 211.202 81.6545C211.061 81.6545 210.922 81.6226 210.796 81.5611C210.705 81.5079 210.626 81.4368 210.563 81.3521C210.5 81.2674 210.456 81.1708 210.431 81.0683C210.431 81.0338 207.23 73.3014 201.862 73.7252C200.718 73.7993 199.592 74.0486 198.523 74.4645C198.494 74.4773 198.462 74.484 198.429 74.4842C198.397 74.4845 198.365 74.4782 198.335 74.4658C198.305 74.4534 198.278 74.4351 198.256 74.412C198.233 74.3889 198.215 74.3615 198.203 74.3314C198.191 74.3017 198.184 74.2697 198.184 74.2374C198.183 74.205 198.19 74.1729 198.202 74.1431C198.214 74.1132 198.233 74.0861 198.256 74.0634C198.279 74.0408 198.306 74.023 198.336 74.0111C199.454 73.5745 200.631 73.3119 201.828 73.2324C207.521 72.7938 210.766 80.5952 210.899 80.9303C210.917 81.0196 210.968 81.0989 211.042 81.1521C211.172 81.1937 211.313 81.1831 211.436 81.1225C211.655 80.9952 211.849 80.8281 212.007 80.6297C212.657 79.92 213.637 78.8457 215.494 79.5208C217.956 80.4178 218.843 84.0646 218.877 84.2223C218.886 84.2579 218.887 84.2951 218.879 84.3309C218.871 84.3668 218.855 84.4005 218.833 84.4293C218.804 84.4491 218.772 84.4628 218.738 84.4696C218.705 84.4764 218.67 84.4761 218.636 84.4687Z" fill="#443D78"/>
<path id="Vector_44" d="M122.332 97.2915H97.487C97.4434 97.2912 97.4006 97.2797 97.3627 97.2581C97.3247 97.2365 97.2929 97.2056 97.2703 97.1683C97.2487 97.1309 97.2373 97.0884 97.2373 97.0451C97.2373 97.0019 97.2487 96.9594 97.2703 96.9219C97.6617 96.2254 98.2117 95.6311 98.8757 95.1872C99.4864 94.8373 100.417 95.0837 101.166 95.2808C101.444 95.3766 101.734 95.4314 102.028 95.4435C102.096 95.3439 102.152 95.2364 102.195 95.1231C102.381 94.6296 102.687 94.1905 103.086 93.8461C103.486 93.5017 103.965 93.263 104.48 93.1518C105.174 92.9698 105.912 93.0579 106.543 93.3983C107.085 93.625 107.297 93.6841 107.528 93.4475C107.68 93.2927 107.822 93.128 107.952 92.9547C108.457 92.214 109.13 91.6042 109.917 91.1757C110.704 90.7472 111.582 90.5124 112.478 90.4906C115.925 90.2294 117.821 94.8669 117.895 95.064V95.1083C117.934 95.1527 117.979 95.1576 118.067 95.1083C118.179 95.0313 118.278 94.9383 118.363 94.8324C118.737 94.4233 119.348 93.7334 120.515 94.1523C121.992 94.6993 122.539 96.8874 122.563 96.9811C122.572 97.0178 122.571 97.056 122.563 97.0926C122.554 97.1293 122.538 97.1636 122.514 97.193C122.493 97.2219 122.466 97.2458 122.434 97.2628C122.403 97.2799 122.368 97.2897 122.332 97.2915ZM97.9204 96.7987H122.002C121.815 96.2172 121.303 94.9704 120.357 94.6204C119.515 94.3149 119.101 94.7683 118.737 95.1675C118.605 95.3382 118.437 95.4778 118.244 95.5765C118.157 95.6182 118.061 95.6398 117.964 95.6398C117.867 95.6398 117.771 95.6182 117.683 95.5765C117.557 95.4995 117.464 95.3783 117.422 95.2365C117.309 94.9605 115.452 90.7617 112.497 90.9834C111.67 90.9988 110.858 91.2138 110.131 91.6102C109.404 92.0065 108.783 92.5726 108.321 93.2603C108.179 93.4556 108.024 93.6416 107.858 93.8172C107.366 94.31 106.839 94.0882 106.327 93.8714C105.798 93.5812 105.179 93.5003 104.593 93.6447C104.149 93.7377 103.736 93.9413 103.392 94.2368C103.047 94.5323 102.783 94.9101 102.623 95.335C102.56 95.5433 102.436 95.7284 102.269 95.8673C102.023 96.0348 101.624 95.9264 101.023 95.7687C100.422 95.611 99.5455 95.3794 99.1023 95.6258C98.6302 95.9291 98.2274 96.3288 97.9204 96.7987Z" fill="#443D78"/>
<path id="Vector_45" d="M36.2495 60.1378H11.3849C11.3421 60.1366 11.3003 60.1247 11.2633 60.1032C11.2263 60.0817 11.1953 60.0512 11.1731 60.0146C11.1515 59.9772 11.1401 59.9347 11.1401 59.8914C11.1401 59.8482 11.1515 59.8057 11.1731 59.7682C11.5659 59.0711 12.1177 58.4768 12.7835 58.0335C13.3942 57.6836 14.3249 57.93 15.0735 58.1271C15.3513 58.2229 15.6416 58.2777 15.9353 58.2898C16.004 58.1902 16.0602 58.0827 16.1027 57.9694C16.2885 57.4759 16.595 57.0368 16.9942 56.6924C17.3934 56.348 17.8726 56.1093 18.3878 55.9981C19.082 55.8161 19.8193 55.9042 20.4512 56.2446C20.9929 56.4713 21.2047 56.5304 21.4361 56.2938C21.5877 56.1388 21.7291 55.9742 21.8597 55.801C22.3644 55.0603 23.0382 54.4505 23.8252 54.022C24.6121 53.5935 25.4898 53.3587 26.3854 53.3369C29.8327 53.0757 31.7287 57.7132 31.8026 57.9103C31.8049 57.925 31.8049 57.94 31.8026 57.9546C31.842 57.999 31.8912 58.0039 31.9749 57.9546C32.0885 57.8802 32.1884 57.7869 32.2704 57.6787C32.6447 57.2696 33.2553 56.5797 34.4274 57.0035C35.9048 57.5456 36.4515 59.7337 36.4761 59.8274C36.4843 59.8641 36.4841 59.9023 36.4756 59.9389C36.467 59.9756 36.4504 60.0099 36.4268 60.0393C36.4062 60.0676 36.3797 60.0911 36.349 60.1081C36.3184 60.1251 36.2845 60.1353 36.2495 60.1378ZM11.838 59.645H35.9294C35.7423 59.0635 35.2301 57.8167 34.2797 57.4668C33.4376 57.1612 33.0239 57.6146 32.6595 58.0138C32.5291 58.1864 32.3605 58.3264 32.167 58.4228C32.0783 58.4642 31.9817 58.4857 31.8838 58.4857C31.786 58.4857 31.6893 58.4642 31.6007 58.4228C31.474 58.3475 31.382 58.2254 31.3446 58.0828C31.2264 57.8068 29.4141 53.608 26.4199 53.8297C25.592 53.8443 24.7798 54.0589 24.0527 54.4554C23.3255 54.8518 22.7049 55.4183 22.2438 56.1066C22.092 56.3028 21.9275 56.4888 21.7513 56.6635C21.2589 57.1563 20.7368 56.9345 20.2247 56.7177C19.6955 56.4279 19.077 56.3471 18.4912 56.491C18.0472 56.584 17.6338 56.7876 17.2895 57.0831C16.9451 57.3787 16.6809 57.7564 16.5213 58.1813C16.4577 58.3896 16.3344 58.5747 16.1667 58.7136C15.9205 58.8811 15.5216 58.7727 14.9159 58.615C14.3101 58.4573 13.4385 58.2208 13.0002 58.4721C12.5352 58.7776 12.1393 59.1771 11.838 59.645Z" fill="#443D78"/>
</g>
<g id="freepik--Character--inject-334">
<path id="Vector_46" d="M65.3706 44.3056C65.9312 45.7699 66.3822 47.2739 66.7199 48.8051C66.9415 50.323 67.5768 51.146 67.4045 51.5945C67.2321 52.0429 66.6756 53.0729 66.6756 53.3933C67.0584 54.742 67.5424 56.06 68.1235 57.3358C68.5716 58.2919 67.2813 58.5728 66.8874 59.1346C66.4934 59.6965 66.3949 60.9926 66.2127 62.6238C66.0305 64.2551 66.5476 65.1569 66.1585 65.9996C65.7695 66.8424 63.2333 66.9557 62.1646 66.6748C61.583 66.5443 61.042 66.2737 60.5887 65.8863L60.2538 67.2958C58.5989 66.0121 56.8089 64.9132 54.9155 64.0185C52.5844 63.0884 50.1999 62.2985 47.7747 61.653L48.0554 58.5038C48.0554 58.5038 45.076 54.0684 43.8941 50.3476C42.7122 46.6268 44.8495 42.4132 46.0856 40.782C47.3217 39.1507 53.4726 37.9138 56.5997 37.8595C59.7269 37.8053 64.7501 40.2202 64.9717 40.2744C65.1933 40.3286 67.109 39.8259 67.1632 40.5602C67.1426 41.1486 66.9894 41.7248 66.715 42.2457C66.715 42.2457 69.133 41.122 68.9065 42.4132C68.68 43.7044 65.8729 44.4486 65.3706 44.3056Z" fill="white"/>
<path id="Vector_47" d="M60.2529 67.5374C60.1974 67.5367 60.1437 67.5177 60.1002 67.4832C58.458 66.2191 56.6848 65.1352 54.8111 64.2503C52.4926 63.328 50.1213 62.5446 47.7097 61.9045C47.6539 61.8887 47.6052 61.8541 47.572 61.8065C47.5388 61.7588 47.5231 61.7012 47.5275 61.6433L47.8033 58.5779C47.4093 57.9816 44.7549 53.8764 43.6567 50.4316C42.4453 46.6172 44.5875 42.3592 45.8925 40.6442C47.1976 38.9292 53.5898 37.6872 56.5938 37.6232C59.3221 37.569 63.3653 39.3234 64.69 39.9C64.8771 39.9838 65.0002 40.038 65.0396 40.0479L65.3844 40.0035C66.1329 39.9049 66.8322 39.8409 67.1967 40.1366C67.2594 40.1868 67.3111 40.2496 67.3484 40.3208C67.3857 40.3921 67.4078 40.4703 67.4133 40.5505C67.4208 40.9791 67.3421 41.4048 67.1819 41.8023C67.7384 41.6052 68.5263 41.413 68.9203 41.7185C69.0287 41.8064 69.1085 41.9245 69.1497 42.0579C69.1909 42.1912 69.1916 42.3338 69.1517 42.4676C69.0743 42.7513 68.9365 43.0148 68.7478 43.2403C68.5591 43.4657 68.324 43.6476 68.0585 43.7736C67.343 44.1873 66.5501 44.449 65.7291 44.5424C66.2456 45.9082 66.6556 47.312 66.9553 48.7412C67.0579 49.3384 67.223 49.9232 67.4478 50.4858C67.6452 50.8411 67.7148 51.2534 67.6448 51.6538C67.5857 51.8115 67.4774 52.0431 67.3641 52.2846C67.1797 52.6287 67.0344 52.9924 66.9307 53.3688C67.3169 54.6844 67.7924 55.972 68.3539 57.2227C68.7479 58.0556 68.0929 58.509 67.6103 58.8391C67.4262 58.9574 67.2603 59.1018 67.1179 59.2679C66.783 59.7607 66.6599 60.9583 66.517 62.3628L66.4875 62.6388C66.4336 63.2363 66.4468 63.8381 66.5269 64.4327C66.6473 64.9862 66.6063 65.5626 66.4087 66.0935C65.9162 67.1481 63.1633 67.1777 62.1292 66.9017C61.6458 66.7808 61.1863 66.5792 60.77 66.3054L60.5237 67.3403C60.5132 67.3809 60.4929 67.4184 60.4646 67.4493C60.4362 67.4802 60.4007 67.5037 60.3612 67.5177C60.3273 67.5333 60.2901 67.5401 60.2529 67.5374ZM48.0348 61.4807C50.4054 62.1131 52.7358 62.8882 55.013 63.8018C56.8115 64.6422 58.5167 65.6696 60.1002 66.8672L60.3514 65.8273C60.3606 65.7841 60.3816 65.7442 60.412 65.712C60.4424 65.6798 60.4811 65.6567 60.5237 65.645C60.566 65.6332 60.6107 65.6329 60.6531 65.6442C60.6955 65.6554 60.7342 65.6778 60.765 65.7091C61.1936 66.0636 61.6998 66.3118 62.2424 66.4335C63.316 66.7144 65.6405 66.5469 65.9458 65.8914C66.1005 65.4411 66.1278 64.9567 66.0246 64.4918C65.9395 63.863 65.9246 63.2266 65.9803 62.5944L66.0098 62.3135C66.1723 60.7217 66.2905 59.5734 66.6993 58.9919C66.8774 58.7706 67.0943 58.5835 67.3395 58.4399C67.8861 58.0605 68.1077 57.8486 67.9157 57.4543C67.4971 56.5672 66.4382 53.8124 66.4382 53.3885C66.5259 52.9327 66.6926 52.4957 66.9307 52.0973C67.0391 51.8657 67.1425 51.6489 67.1967 51.501C67.2011 51.2129 67.1334 50.9283 66.9997 50.6731C66.772 50.0775 66.6069 49.4598 66.5072 48.8299C66.1724 47.3205 65.7263 45.838 65.1726 44.3945C65.1556 44.3504 65.1517 44.3023 65.1613 44.256C65.1709 44.2097 65.1937 44.1671 65.2268 44.1333C65.2596 44.1004 65.3008 44.077 65.3459 44.0658C65.3911 44.0545 65.4384 44.0557 65.4829 44.0693C66.3169 44.0516 67.1312 43.8117 67.8418 43.3744C68.0437 43.2757 68.224 43.1377 68.372 42.9685C68.5199 42.7993 68.6327 42.6022 68.7036 42.3888C68.7282 42.2458 68.7036 42.1571 68.6593 42.1128C68.4229 41.9354 67.5414 42.167 66.8568 42.4824C66.8103 42.5046 66.758 42.5117 66.7073 42.5026C66.6566 42.4935 66.61 42.4687 66.5741 42.4316C66.5382 42.3946 66.5148 42.3473 66.5072 42.2963C66.4996 42.2452 66.5082 42.1931 66.5318 42.1473C66.7865 41.666 66.9312 41.1341 66.9553 40.59C66.956 40.5765 66.9531 40.563 66.9471 40.551C66.9411 40.5389 66.932 40.5285 66.9209 40.521C66.6943 40.3386 65.8768 40.447 65.4829 40.521C65.3083 40.5594 65.1287 40.5694 64.951 40.5505C64.7947 40.4975 64.6417 40.435 64.493 40.3633C63.1929 39.7965 59.2335 38.0618 56.6135 38.1259C53.3386 38.1801 47.4143 39.4713 46.2717 40.9497C45.2868 42.2754 42.9229 46.5334 44.1196 50.3133C45.2868 53.9159 48.2416 58.3315 48.2416 58.3759C48.2747 58.4215 48.2904 58.4774 48.2859 58.5336L48.0348 61.4807Z" fill="#443D78"/>
<path id="Vector_48" d="M65.9463 54.3645C66.1232 54.3645 66.2666 53.9343 66.2666 53.4035C66.2666 52.8728 66.1232 52.4425 65.9463 52.4425C65.7694 52.4425 65.626 52.8728 65.626 53.4035C65.626 53.9343 65.7694 54.3645 65.9463 54.3645Z" fill="#443D78"/>
<path id="Vector_49" d="M65.5884 51.7568C65.5264 51.7583 65.4662 51.7353 65.421 51.6928C65.3979 51.6699 65.3796 51.6426 65.3671 51.6126C65.3546 51.5826 65.3481 51.5504 65.3481 51.5178C65.3481 51.4853 65.3546 51.4531 65.3671 51.4231C65.3796 51.393 65.3979 51.3658 65.421 51.3429C65.5425 51.1791 65.7007 51.0461 65.8829 50.9545C66.065 50.863 66.2661 50.8154 66.4699 50.8156C66.5941 50.8279 66.714 50.8674 66.8213 50.9313C66.9285 50.9952 67.0204 51.0818 67.0904 51.1852C67.1256 51.2401 67.1376 51.3067 67.1237 51.3705C67.1099 51.4342 67.0714 51.4899 67.0166 51.5252C66.9619 51.5596 66.8961 51.5717 66.8329 51.5588C66.7696 51.546 66.7137 51.5092 66.6768 51.4562C66.6477 51.4137 66.6098 51.378 66.5656 51.3516C66.5213 51.3252 66.4719 51.3088 66.4207 51.3034C66.2939 51.3183 66.1716 51.3593 66.0615 51.4238C65.9513 51.4882 65.8556 51.5748 65.7805 51.678C65.7571 51.7055 65.7274 51.727 65.694 51.7407C65.6606 51.7544 65.6244 51.76 65.5884 51.7568Z" fill="#443D78"/>
<path id="Vector_50" d="M66.1575 65.9896C66.5466 65.1469 66.0442 64.245 66.2117 62.6138C66.3791 60.9825 66.4924 59.6913 66.8864 59.1246C65.7635 58.7353 63.4391 60.4207 63.1781 60.0264C62.9171 59.6322 62.6856 52.5996 62.8383 51.5302C62.9909 50.4608 64.4683 50.4657 65.0889 49.1154C65.7094 47.7651 63.6114 46.2422 63.513 45.3453C63.4145 44.4484 65.3696 44.2759 65.3696 44.2759C65.862 44.4434 68.6839 43.7141 68.9104 42.4179C69.1369 41.1218 66.7189 42.2504 66.7189 42.2504C66.9933 41.7295 67.1465 41.1534 67.1671 40.5649C67.1129 39.8306 65.1972 40.3382 64.9756 40.2791C64.754 40.22 59.7456 37.815 56.6036 37.8643C53.4617 37.9136 47.3256 39.1555 46.0895 40.7867C44.8534 42.4179 42.7161 46.6365 43.898 50.3524C44.8829 53.5163 47.2123 57.2026 47.8722 58.2375C48.0679 58.3773 48.2816 58.49 48.5075 58.5726C50.4928 59.1702 52.5884 59.3051 54.6338 58.9669C57.4458 58.4741 59.6963 57.449 59.3024 56.6605C58.9084 55.872 58.6819 52.6095 59.5831 51.0916C60.4843 49.5737 61.4938 51.8801 61.2673 54.635C61.0408 57.3899 60.4252 59.1344 60.2577 60.879C60.0903 62.6236 60.5926 65.8861 60.5926 65.8861C61.0459 66.2735 61.5869 66.5441 62.1685 66.6746C63.2322 66.9752 65.7635 66.8372 66.1575 65.9896Z" fill="#443D78"/>
<path id="Vector_51" d="M63.5081 67.0545C63.0295 67.0616 62.5518 67.012 62.0848 66.9067C61.4632 66.7647 60.8852 66.4738 60.4006 66.059C60.3662 66.0197 60.3425 65.9721 60.3317 65.921C60.3317 65.7879 59.8392 62.6092 59.9919 60.8548C60.0837 60.068 60.2169 59.2867 60.3908 58.5139C60.6828 57.2281 60.8885 55.9241 61.0063 54.6108C61.1738 52.5606 60.6321 50.9934 60.2036 50.8604C60.0362 50.8062 59.849 51.0871 59.7752 51.2152C58.938 52.6247 59.135 55.8083 59.5043 56.5475C59.5552 56.644 59.5818 56.7514 59.5818 56.8605C59.5818 56.9696 59.5552 57.077 59.5043 57.1734C59.0118 58.1147 56.6086 58.8589 54.6732 59.2038C52.6158 59.5456 50.5076 59.4159 48.5075 58.8244H48.4386C48.188 58.732 47.9511 58.606 47.7344 58.4498C47.7042 58.4337 47.6787 58.4099 47.6605 58.3808C46.9809 57.3213 44.6712 53.6251 43.6567 50.4464C42.4453 46.632 44.5875 42.374 45.8925 40.659C47.1976 38.944 53.5898 37.7021 56.5938 37.638C59.3418 37.5986 63.3653 39.3382 64.69 39.9148C64.8771 39.9986 65.0002 40.0528 65.0396 40.0627L65.3844 40.0183C66.1329 39.9198 66.8322 39.8557 67.1967 40.1514C67.2594 40.2016 67.3111 40.2644 67.3484 40.3356C67.3857 40.4069 67.4078 40.4851 67.4133 40.5653C67.4208 40.9939 67.3421 41.4196 67.1819 41.8171C67.7384 41.62 68.5263 41.4278 68.9203 41.7333C69.0287 41.8212 69.1085 41.9393 69.1497 42.0727C69.1909 42.2061 69.1916 42.3487 69.1517 42.4824C69.0743 42.7661 68.9365 43.0297 68.7478 43.2551C68.5591 43.4805 68.324 43.6624 68.0585 43.7884C67.1523 44.3305 65.8374 44.6459 65.3499 44.5473C64.9855 44.5818 64.1138 44.7395 63.8331 45.0894C63.8024 45.1219 63.7797 45.1611 63.7669 45.2039C63.7541 45.2467 63.7514 45.2919 63.7592 45.3359C63.8997 45.7397 64.119 46.1116 64.4044 46.4299C65.0101 47.2431 65.7636 48.2534 65.3105 49.2341C65.0019 49.8337 64.5219 50.3278 63.9316 50.6534C63.4933 50.9392 63.1486 51.1462 63.0796 51.5898C62.9122 52.6789 63.1338 59.0215 63.3653 59.8593C63.6945 59.7704 64.0145 59.6499 64.3206 59.4995C65.1726 59.125 66.2413 58.6568 66.9652 58.9131C67.0018 58.9255 67.0351 58.9461 67.0624 58.9735C67.0898 59.0008 67.1104 59.0341 67.1228 59.0708C67.1331 59.1073 67.1354 59.1456 67.1294 59.183C67.1235 59.2205 67.1094 59.2562 67.0883 59.2876C66.7534 59.7805 66.6303 60.978 66.4875 62.3825L66.458 62.6585C66.4041 63.2561 66.4173 63.8578 66.4974 64.4524C66.6177 65.0059 66.5767 65.5824 66.3792 66.1132C66.0492 66.813 64.6851 67.0545 63.5081 67.0545ZM60.8044 65.7584C61.2199 66.0822 61.7003 66.3125 62.2129 66.4335C63.2865 66.7144 65.6109 66.5469 65.9162 65.8914C66.071 65.4411 66.0982 64.9567 65.995 64.4918C65.9099 63.863 65.895 63.2266 65.9507 62.5945L65.9803 62.3136C66.0187 61.2981 66.1842 60.2915 66.4727 59.3172C65.7829 59.3985 65.1146 59.6091 64.5029 59.9382C63.6903 60.293 63.1978 60.5098 62.9614 60.1747C62.5872 59.6819 62.4296 52.4621 62.5822 51.5011C62.6807 50.8555 63.1732 50.5154 63.6509 50.2246C64.163 49.953 64.5803 49.5319 64.8476 49.0172C65.1775 48.2977 64.5521 47.455 63.9956 46.7059C63.649 46.3273 63.3944 45.8736 63.252 45.3802C63.2387 45.2705 63.248 45.1593 63.2793 45.0533C63.3106 44.9473 63.3634 44.8489 63.4342 44.7642C63.9267 44.1728 65.1874 44.0496 65.3302 44.0348C65.3643 44.0275 65.3995 44.0275 65.4336 44.0348C66.2677 44.0171 67.0819 43.7772 67.7925 43.3399C67.9945 43.2413 68.1747 43.1033 68.3227 42.934C68.4707 42.7648 68.5834 42.5677 68.6544 42.3543C68.679 42.2114 68.6544 42.1227 68.61 42.0783C68.3736 41.9009 67.4921 42.1325 66.8076 42.4479C66.7611 42.4701 66.7088 42.4772 66.658 42.4681C66.6073 42.459 66.5607 42.4342 66.5248 42.3972C66.4889 42.3602 66.4655 42.3128 66.458 42.2618C66.4504 42.2108 66.459 42.1587 66.4826 42.1128C66.7373 41.6315 66.8819 41.0996 66.9061 40.5555C66.9067 40.542 66.9039 40.5286 66.8979 40.5165C66.8918 40.5044 66.8828 40.4941 66.8716 40.4865C66.6451 40.3042 65.8276 40.4126 65.4336 40.4865C65.2591 40.5249 65.0795 40.5349 64.9018 40.5161C64.7629 40.4725 64.6264 40.4215 64.493 40.3633C63.1929 39.7965 59.2335 38.0618 56.6135 38.1259C53.3386 38.1801 47.4143 39.4713 46.2717 40.9497C45.2868 42.2754 42.9229 46.5334 44.1196 50.3134C45.1046 53.3886 47.3305 56.9812 48.0594 58.0802C48.2099 58.196 48.3756 58.2905 48.5518 58.3611H48.6159C50.5481 58.9364 52.5857 59.0645 54.5747 58.7357C57.1355 58.2724 58.7952 57.479 59.0512 56.9664C59.0672 56.9387 59.0757 56.9073 59.0757 56.8753C59.0757 56.8433 59.0672 56.8118 59.0512 56.7841C58.6474 55.9709 58.3766 52.605 59.3418 50.9787C59.7308 50.3232 60.1347 50.338 60.3267 50.4021C61.1295 50.6583 61.6416 52.5705 61.4693 54.665C61.3502 55.9915 61.1429 57.3086 60.8488 58.6075C60.6775 59.3621 60.5476 60.1255 60.4597 60.8942C60.4295 62.5232 60.5498 64.1515 60.8192 65.7584H60.8044Z" fill="#443D78"/>
<path id="Vector_52" d="M60.9738 66.7677C60.9738 66.7677 61.2299 65.6145 56.7484 63.5002C52.267 61.386 47.5245 60.4842 46.9483 60.7405C46.3721 60.9967 45.7319 62.2189 45.7319 62.2189C48.7241 62.7509 51.6322 63.6789 54.3797 64.9787C58.2849 66.95 61.614 68.6946 61.614 68.6946L60.9738 66.7677Z" fill="white"/>
<path id="Vector_53" d="M61.6124 68.9474C61.575 68.9543 61.5366 68.9543 61.4992 68.9474C61.4696 68.9474 58.1258 67.193 54.2648 65.2266C51.5398 63.942 48.6568 63.0239 45.691 62.4964C45.6525 62.4896 45.616 62.4741 45.5844 62.451C45.5529 62.4279 45.527 62.3979 45.5088 62.3633C45.4917 62.328 45.4829 62.2892 45.4829 62.25C45.4829 62.2107 45.4917 62.172 45.5088 62.1366C45.5777 62.0036 46.2081 60.8356 46.8434 60.5547C47.5624 60.2343 52.3885 61.2052 56.8503 63.3095C60.8984 65.2217 61.2332 66.4094 61.2234 66.7593L61.8488 68.632C61.8638 68.6787 61.8648 68.7288 61.8517 68.7761C61.8386 68.8234 61.8119 68.8658 61.775 68.8981C61.7283 68.9333 61.6707 68.9508 61.6124 68.9474ZM46.1145 62.0479C49.0105 62.588 51.8245 63.5007 54.4864 64.7634C57.4412 66.2418 60.0907 67.6365 61.1889 68.2131L60.7408 66.8677C60.7312 66.8305 60.7312 66.7915 60.7408 66.7544C60.7408 66.7001 60.6669 65.6356 56.6484 63.7432C52.1325 61.6093 47.5574 60.7863 47.0551 60.9883C46.6629 61.2629 46.3407 61.6258 46.1145 62.0479Z" fill="#443D78"/>
<path id="Vector_54" d="M63.4743 69.9323C62.9106 68.8219 61.982 67.9395 60.8446 67.4337C58.7959 66.4087 56.6438 64.1565 48.2916 62.3035C46.7058 61.9536 46.1789 62.0472 45.7308 62.2394C44.8211 62.856 44.0373 63.6405 43.4211 64.5507L42.8252 65.423C42.8252 65.423 48.2719 65.359 52.0491 66.5122C55.8263 67.6654 64.607 71.0609 64.607 71.0609L63.4743 69.9323Z" fill="#A9E8CB"/>
<path id="Vector_55" d="M64.626 71.307C64.5966 71.3117 64.5667 71.3117 64.5373 71.307C64.4487 71.2725 55.7271 67.9016 51.9991 66.7631C48.2712 65.6247 42.8984 65.6839 42.8491 65.6839C42.8052 65.6821 42.7625 65.6694 42.7247 65.6471C42.6868 65.6247 42.6552 65.5933 42.6324 65.5557C42.6094 65.5179 42.5972 65.4744 42.5972 65.4301C42.5972 65.3857 42.6094 65.3422 42.6324 65.3044L43.2086 64.4075C43.8461 63.4537 44.6684 62.6376 45.6266 62.0074C46.1634 61.7758 46.779 61.7117 48.3401 62.0567C54.9441 63.5352 57.7315 65.2502 59.5782 66.3985C60.0707 66.7139 60.5188 66.9898 60.9522 67.2018C62.1239 67.7322 63.0832 68.6418 63.6755 69.7841L64.7934 70.9028C64.8333 70.9431 64.8585 70.9957 64.8647 71.0521C64.871 71.1084 64.858 71.1653 64.8279 71.2133C64.8035 71.2431 64.7726 71.267 64.7376 71.2832C64.7027 71.2994 64.6645 71.3076 64.626 71.307ZM43.3169 65.1763C44.7106 65.1763 49.0246 65.3192 52.1814 66.2752C55.1362 67.1771 61.1984 69.4737 63.6706 70.4199L63.3357 70.0848C63.3132 70.06 63.2949 70.0317 63.2816 70.001C62.7398 68.9485 61.8556 68.1123 60.7749 67.6305C60.3218 67.4038 59.8786 67.1377 59.3615 66.8026C57.5443 65.674 54.7964 63.9639 48.2761 62.52C46.6953 62.17 46.2324 62.2834 45.863 62.4411C45.0037 63.0423 44.2597 63.7935 43.6666 64.6588L43.3169 65.1763Z" fill="#443D78"/>
<path id="Vector_56" d="M81.7298 133.339C81.7298 133.339 79.7599 135.009 80.2868 136.296C80.7819 137.388 81.3393 138.451 81.9563 139.479L82.7886 138.568C82.7886 138.568 81.651 135.99 81.8775 135.611C82.104 135.231 87.5606 132.048 87.5606 132.048L89.1562 135.384L89.9884 134.699C89.9884 134.699 88.6243 131.215 88.0924 130.909C87.5606 130.604 83.0693 131.826 81.7298 133.339Z" fill="#443D78"/>
<path id="Vector_57" d="M81.9309 139.731C81.8928 139.727 81.8563 139.714 81.8239 139.693C81.7915 139.673 81.7641 139.646 81.7437 139.613C81.1186 138.575 80.5562 137.5 80.0595 136.395C79.4833 135 81.3645 133.33 81.5369 133.167C82.965 131.59 87.5302 130.318 88.1951 130.703C88.7565 131.023 89.8694 133.778 90.1945 134.616C90.2133 134.664 90.2168 134.717 90.2044 134.767C90.1921 134.818 90.1645 134.863 90.1255 134.897L89.2883 135.582C89.2596 135.605 89.226 135.621 89.1902 135.629C89.1543 135.637 89.1171 135.638 89.0812 135.63C89.0453 135.622 89.0116 135.606 88.9827 135.583C88.9538 135.56 88.9303 135.531 88.9141 135.498L87.4366 132.398C84.9497 133.877 82.2805 135.488 82.0638 135.754C82.0097 135.976 82.4972 137.351 82.9946 138.475C83.0133 138.519 83.019 138.567 83.0111 138.614C83.0033 138.661 82.9822 138.705 82.9503 138.741L82.118 139.653C82.0938 139.678 82.0648 139.698 82.0326 139.711C82.0004 139.725 81.9658 139.732 81.9309 139.731ZM87.7912 131.107C86.9097 131.107 83.1325 132.122 81.8816 133.507V133.532C81.3892 133.96 80.1334 135.286 80.5076 136.208C80.946 137.189 81.4392 138.145 81.985 139.071L82.4775 138.524C81.9555 137.321 81.4138 135.877 81.6502 135.488C81.8865 135.099 85.7623 132.807 87.417 131.841C87.4464 131.824 87.479 131.813 87.5129 131.809C87.5468 131.804 87.5812 131.807 87.6139 131.817C87.6468 131.826 87.6773 131.843 87.7035 131.865C87.7298 131.887 87.7512 131.914 87.7666 131.945L89.2194 135L89.6725 134.631C89.0421 133.039 88.2246 131.289 87.9488 131.127C87.8977 131.112 87.8445 131.105 87.7912 131.107Z" fill="#443D78"/>
<path id="Vector_58" d="M82.917 125.074L88.2209 130.308C88.4096 130.61 88.5341 130.947 88.5866 131.299C88.6392 131.651 88.6186 132.01 88.5262 132.353C88.2948 132.964 84.0546 136.296 83.2174 136.68C82.3803 137.065 81.9321 135.921 81.8533 135.616C81.7745 135.31 81.4002 134.477 81.3264 134.251C81.2525 134.024 79.2038 131.747 78.5981 130.002C78.2955 129.217 78.0663 128.405 77.9136 127.578L82.917 125.074Z" fill="white"/>
<path id="Vector_59" d="M82.8926 137.001C82.7525 137.002 82.6143 136.97 82.4888 136.907C82.0529 136.622 81.7414 136.182 81.6171 135.675C81.5728 135.508 81.4053 135.104 81.2822 134.808C81.1985 134.601 81.1197 134.419 81.0902 134.315C81.0606 134.212 80.8882 134.039 80.711 133.822C80.051 132.975 78.8199 131.398 78.3668 130.082C78.0545 129.285 77.8219 128.46 77.6724 127.618C77.6659 127.567 77.6752 127.516 77.699 127.471C77.7228 127.426 77.76 127.389 77.8054 127.366L82.8039 124.863C82.851 124.841 82.9034 124.834 82.9544 124.843C83.0054 124.852 83.0525 124.876 83.0896 124.912C83.0896 124.912 88.093 129.84 88.3934 130.146C88.6175 130.481 88.7658 130.861 88.8279 131.259C88.89 131.658 88.8644 132.065 88.7529 132.452C88.4722 133.206 84.0499 136.582 83.3358 136.912C83.1961 136.973 83.045 137.004 82.8926 137.001ZM78.1895 127.716C78.3501 128.466 78.564 129.204 78.8297 129.924C79.2582 131.161 80.4549 132.699 81.1 133.527C81.2788 133.722 81.4326 133.939 81.558 134.172C81.5875 134.256 81.6565 134.424 81.7353 134.616C81.871 134.923 81.9909 135.237 82.0948 135.557C82.1863 135.924 82.4065 136.246 82.7153 136.464C82.7802 136.497 82.8519 136.514 82.9246 136.514C82.9973 136.514 83.069 136.497 83.1339 136.464C84.0548 136.045 88.1177 132.758 88.3097 132.28C88.463 131.674 88.3747 131.032 88.0635 130.491L82.868 125.375L78.1895 127.716Z" fill="#443D78"/>
<path id="Vector_60" d="M23.1819 128.578C23.5519 129.472 23.9728 130.344 24.4426 131.19C24.6839 131.427 26.9739 133.881 27.2103 134.512C27.4467 135.143 27.2103 137.281 28.0819 138.863C28.9536 140.445 28.3971 141.076 27.4467 140.761C26.4962 140.445 25.7871 138.548 25.7871 138.548C25.7871 138.548 26.6587 141.712 26.8163 142.264C26.9739 142.816 29.3476 143.452 28.9487 144.004C28.5498 144.556 24.3638 144.797 23.4183 144.718C22.4727 144.639 20.7294 142.422 20.1778 142.106C19.6263 141.791 18.208 135.778 17.8042 134.67C17.4003 133.561 16.7749 128.756 16.7749 128.756L23.1819 128.578Z" fill="white"/>
<path id="Vector_61" d="M23.8172 144.993H23.3986C22.7387 144.934 21.9212 144.156 20.9362 143.145C20.6712 142.856 20.383 142.589 20.0744 142.347C19.6706 142.12 19.1683 140.479 18.1932 136.891C17.9371 135.94 17.7007 135.117 17.5924 134.782C17.1935 133.664 16.5779 128.997 16.5533 128.799C16.5484 128.765 16.5507 128.731 16.56 128.698C16.5694 128.664 16.5855 128.634 16.6074 128.607C16.6544 128.555 16.7197 128.523 16.7897 128.518L23.1917 128.361C23.2407 128.359 23.2892 128.372 23.3305 128.399C23.3719 128.425 23.4042 128.463 23.4232 128.509C23.7675 129.375 24.1622 130.221 24.6051 131.042C24.6051 131.066 27.1512 133.713 27.4269 134.452C27.5248 134.822 27.5761 135.203 27.5796 135.586C27.5878 136.685 27.8278 137.769 28.2838 138.769C28.929 139.952 28.7763 140.538 28.5448 140.824C28.3903 140.975 28.1932 141.075 27.98 141.111C27.7668 141.146 27.548 141.115 27.3531 141.021C27.0468 140.884 26.7794 140.672 26.575 140.405C26.7917 141.184 27.0034 141.968 27.0674 142.214C27.1118 142.362 27.6781 142.653 28.0179 142.83C28.6286 143.145 29.1555 143.421 29.2441 143.786C29.2595 143.851 29.2604 143.919 29.2468 143.985C29.2332 144.05 29.2054 144.112 29.1654 144.166C28.6877 144.841 25.137 144.993 23.8172 144.993ZM17.0556 128.997C17.1984 130.027 17.7056 133.688 18.0405 134.605C18.1686 134.96 18.3803 135.753 18.6561 136.754C19.119 138.459 19.9759 141.628 20.3157 141.918C20.6618 142.175 20.9803 142.468 21.2662 142.791C21.9212 143.451 22.911 144.446 23.4429 144.491C24.5854 144.584 28.4217 144.284 28.7566 143.88C28.4621 143.626 28.1298 143.42 27.7717 143.269C27.1807 142.963 26.6735 142.697 26.575 142.352C26.4174 141.795 25.5457 138.631 25.5457 138.631C25.5255 138.566 25.532 138.495 25.5639 138.435C25.5957 138.374 25.6503 138.329 25.7156 138.308C25.7809 138.288 25.8516 138.295 25.9121 138.327C25.9726 138.358 26.0179 138.413 26.0382 138.478C26.2253 138.971 26.8606 140.317 27.5451 140.548C27.8505 140.647 28.0967 140.632 28.2001 140.504C28.3035 140.376 28.3429 139.839 27.8849 139.001C27.3916 137.94 27.1313 136.785 27.1216 135.615C27.1166 135.283 27.0753 134.953 26.9985 134.629C26.8015 134.092 24.6642 131.771 24.2899 131.392C23.8085 130.581 23.3903 129.734 23.0391 128.859L17.0556 128.997Z" fill="#443D78"/>
<path id="Vector_62" d="M26.0826 143.796C26.0423 143.796 26.0026 143.786 25.9671 143.767C25.9316 143.748 25.9014 143.72 25.879 143.686C25.8566 143.653 25.8428 143.614 25.8388 143.574C25.8348 143.534 25.8408 143.494 25.8561 143.456C25.2474 143.248 24.6185 143.104 23.9798 143.027C23.5369 142.997 23.1024 142.892 22.6945 142.717C22.3596 142.466 21.7095 140.844 21.4288 140.159C21.4236 140.133 21.4236 140.106 21.4288 140.08C21.3914 139.133 21.53 138.187 21.8376 137.291C22.2857 136.093 22.0641 133.708 22.0592 133.684C22.0563 133.651 22.0598 133.619 22.0694 133.588C22.0791 133.557 22.0948 133.528 22.1156 133.503C22.1364 133.478 22.162 133.457 22.1907 133.442C22.2195 133.427 22.2509 133.418 22.2833 133.415C22.3156 133.412 22.3482 133.416 22.3792 133.425C22.4102 133.435 22.4389 133.451 22.4639 133.471C22.4888 133.492 22.5094 133.518 22.5244 133.547C22.5395 133.575 22.5487 133.607 22.5516 133.639C22.5516 133.743 22.788 136.162 22.3005 137.468C22.0238 138.288 21.8938 139.151 21.9164 140.016C22.2016 140.822 22.5679 141.596 23.0096 142.328C23.3611 142.42 23.718 142.491 24.0783 142.54C25.5557 142.786 26.2698 142.944 26.388 143.323C26.4086 143.394 26.4089 143.468 26.3889 143.539C26.3689 143.61 26.3293 143.673 26.2747 143.722C26.2497 143.747 26.2197 143.767 26.1866 143.78C26.1535 143.793 26.1181 143.798 26.0826 143.796Z" fill="#443D78"/>
<path id="Vector_63" d="M61.5889 211.993C61.5889 211.993 63.6376 213.551 64.6127 214.137C65.5878 214.724 69.7737 215.123 70.0692 215.892C70.3647 216.66 69.626 217.405 69.2172 217.769C68.8085 218.134 65.8783 219.248 63.6376 219.011C62.8526 218.972 62.0658 219.038 61.2984 219.208C60.6188 219.307 55.8418 219.888 53.7981 220.085C51.7544 220.283 51.2619 218.607 51.1634 216.577C51.0649 214.546 51.1634 212.186 51.1634 212.186L59.3482 211.018L61.5889 211.993Z" fill="white"/>
<path id="Vector_64" d="M53.4822 220.347C52.9459 220.37 52.4197 220.195 52.0048 219.854C51.3449 219.282 51.0199 218.282 50.9312 216.601C50.8377 214.566 50.9312 212.215 50.9312 212.191C50.9341 212.133 50.9568 212.079 50.9955 212.037C51.0341 211.994 51.0863 211.967 51.143 211.959L59.3278 210.786C59.3713 210.774 59.4173 210.774 59.4608 210.786L61.7015 211.772L61.7557 211.801C61.7557 211.801 63.7994 213.359 64.7548 213.93C65.5012 214.232 66.2793 214.449 67.0743 214.576C68.9555 214.985 70.1079 215.271 70.3147 215.813C70.6841 216.798 69.7139 217.676 69.3938 217.961C68.9014 218.4 65.9466 219.509 63.627 219.263C63.012 219.216 62.3935 219.258 61.7901 219.386L61.3469 219.455C60.6181 219.563 55.8313 220.145 53.8319 220.337L53.4822 220.347ZM51.404 212.402C51.404 213.014 51.3301 214.896 51.404 216.562C51.4779 218.075 51.7635 218.996 52.3052 219.47C52.5109 219.633 52.7491 219.751 53.004 219.814C53.2588 219.878 53.5243 219.887 53.7826 219.839C55.7771 219.652 60.5491 219.065 61.273 218.962C61.4109 218.962 61.5538 218.922 61.7015 218.893C62.3489 218.758 63.0122 218.717 63.6714 218.77C65.9022 219.006 68.7093 217.902 69.0639 217.587C69.7632 216.961 70.0193 216.439 69.8469 215.98C69.7238 215.65 67.9952 215.281 66.966 215.054C66.1198 214.919 65.293 214.683 64.5036 214.349C63.5729 213.792 61.7261 212.378 61.4848 212.205L59.3327 211.269L51.404 212.402Z" fill="#443D78"/>
<path id="Vector_65" d="M64.33 217.715C62.5719 217.602 61.321 218.055 56.4949 218.282C54.78 218.411 53.0563 218.355 51.3535 218.114C51.6391 219.381 52.2991 220.229 53.8159 220.086C55.8596 219.888 60.6365 219.307 61.3161 219.208C62.0836 219.038 62.8703 218.972 63.6553 219.011C65.8961 219.253 68.7868 218.173 69.235 217.769C69.684 217.424 70.0018 216.935 70.1362 216.385C68.5997 217.39 65.7336 217.804 64.33 217.715Z" fill="white"/>
<path id="Vector_66" d="M53.474 220.346C52.2182 220.346 51.445 219.631 51.1151 218.168C51.1054 218.128 51.1063 218.087 51.1175 218.048C51.1287 218.009 51.15 217.974 51.1791 217.946C51.2063 217.916 51.2403 217.894 51.2781 217.881C51.3159 217.869 51.3564 217.865 51.3958 217.872C53.0824 218.108 54.7896 218.163 56.4879 218.034C58.901 217.921 60.4276 217.749 61.5504 217.62C62.4777 217.483 63.4158 217.431 64.3526 217.468C65.7216 217.551 68.5188 217.147 69.9864 216.181C70.0253 216.156 70.0707 216.142 70.1171 216.142C70.1636 216.141 70.2093 216.153 70.2489 216.178C70.2886 216.202 70.3206 216.237 70.3412 216.279C70.3619 216.32 70.3703 216.367 70.3656 216.413C70.2357 217.03 69.8855 217.578 69.3807 217.956C68.8882 218.394 65.9334 219.503 63.6139 219.257C62.9988 219.211 62.3804 219.252 61.777 219.38L61.3337 219.449C60.6049 219.557 55.8181 220.139 53.8187 220.331L53.474 220.346ZM51.6912 218.419C52.031 219.503 52.6762 219.947 53.7744 219.838C55.7689 219.651 60.5409 219.064 61.2648 218.961C61.4027 218.961 61.5455 218.922 61.6932 218.892C62.3406 218.757 63.004 218.716 63.6631 218.769C65.894 219.005 68.7011 217.901 69.0556 217.586C69.2768 217.394 69.4736 217.175 69.6417 216.935C67.9612 217.656 66.1456 218.005 64.3181 217.961C63.4108 217.925 62.5022 217.976 61.6046 218.113C60.4818 218.241 58.9404 218.414 56.5125 218.527C54.9054 218.634 53.292 218.598 51.6912 218.419Z" fill="#443D78"/>
<path id="Vector_67" d="M29.7271 131.776C29.7271 131.776 31.8693 139.578 34.504 146.403C37.1387 153.229 40.5416 163.465 40.5416 163.465L43.004 178.289C43.004 178.289 43.393 185.681 44.7571 191.157C46.1213 196.632 51.3857 213.161 51.3857 213.161C52.7424 213.664 54.1851 213.894 55.6308 213.836C58.0636 213.738 61.57 211.983 61.57 211.983C61.57 211.983 61.8654 209.741 61.6685 208.765C61.4715 207.789 60.3043 207.287 60.0138 206.523C59.7232 205.759 56.0149 182.956 56.0149 182.956C56.0149 182.956 54.8478 166.772 54.4587 163.652C54.0697 160.533 53.0946 134.206 53.0946 134.206L29.7271 131.776Z" fill="#443D78"/>
<path id="Vector_68" d="M55.2202 214.102C53.8741 214.11 52.5383 213.867 51.2805 213.388C51.2469 213.374 51.2167 213.354 51.192 213.327C51.1674 213.301 51.1488 213.269 51.1376 213.235C51.0884 213.072 45.8584 196.622 44.509 191.221C43.1597 185.819 42.7509 178.373 42.746 178.299L40.3132 163.514C40.2886 163.445 36.8659 153.239 34.2854 146.497C31.7049 139.755 29.5282 131.919 29.4888 131.841C29.4782 131.802 29.4771 131.762 29.4857 131.723C29.4943 131.685 29.5123 131.649 29.538 131.619C29.5634 131.588 29.5962 131.564 29.6332 131.55C29.6702 131.535 29.7103 131.53 29.7498 131.535L53.1371 133.969C53.1963 133.975 53.2515 134.003 53.2922 134.046C53.333 134.09 53.3566 134.146 53.3587 134.206C53.3587 134.467 54.3436 160.557 54.7179 163.632C55.0921 166.708 56.2691 182.788 56.279 182.951C57.7564 192.068 60.0513 205.877 60.2631 206.444C60.4283 206.771 60.6618 207.058 60.9476 207.287C61.4175 207.652 61.7617 208.155 61.9325 208.726C62.1344 209.711 61.8488 211.929 61.839 212.023C61.8344 212.063 61.8199 212.102 61.7967 212.135C61.7735 212.169 61.7423 212.196 61.706 212.215C61.5582 212.284 58.1208 213.994 55.6634 214.092L55.2202 214.102ZM51.5562 212.974C52.865 213.44 54.2506 213.652 55.6388 213.6C57.7465 213.516 60.7358 212.121 61.3613 211.83C61.5021 210.835 61.5302 209.826 61.445 208.824C61.2907 208.355 60.999 207.943 60.6078 207.641C60.2645 207.365 59.9884 207.015 59.8001 206.616C59.5096 205.838 56.1707 185.341 55.7915 183.01C55.7915 182.823 54.6145 166.772 54.2303 163.692C53.8561 160.71 52.9745 137.124 52.8711 134.438L30.0601 132.062C30.5131 133.649 32.4485 140.406 34.7286 146.32C37.3338 153.071 40.7417 163.292 40.7761 163.396L43.2385 178.254C43.2385 178.353 43.6472 185.731 44.9917 191.102C46.2721 196.252 51.0933 211.51 51.5562 212.974Z" fill="#443D78"/>
<path id="Vector_69" d="M12.8934 199.659C12.8934 199.659 5.46209 201.098 3.60549 201.689C1.74889 202.28 1.74889 203.375 2.17241 205.405C2.59594 207.435 3.43805 208.446 3.77786 208.697C4.11766 208.948 4.36882 212.147 5.29466 214.187C6.22049 216.227 8.35288 220.273 10.2735 221.284C12.1941 222.294 14.3265 222.299 14.5826 221.959C14.8387 221.619 14.0901 219.258 14.0901 219.258L12.1498 213.004C12.1498 213.004 14.4102 206.839 14.7549 206.504C15.0997 206.169 16.779 204.39 16.779 204.39L12.8934 199.659Z" fill="white"/>
<path id="Vector_70" d="M13.6222 222.407C12.4199 222.371 11.2415 222.062 10.175 221.506C7.99825 220.367 5.74275 215.695 5.08777 214.291C4.58185 213.02 4.21528 211.698 3.9945 210.348C3.92106 209.844 3.79733 209.349 3.62515 208.87C3.21147 208.559 2.36936 207.47 1.94583 205.445C1.54694 203.527 1.42874 202.118 3.54635 201.443C5.39803 200.851 12.5585 199.472 12.8589 199.407C12.9022 199.399 12.947 199.402 12.9886 199.417C13.0301 199.432 13.067 199.457 13.0953 199.491L16.9809 204.222C17.0203 204.267 17.0421 204.325 17.0421 204.385C17.0421 204.445 17.0203 204.503 16.9809 204.548C16.907 204.621 15.2868 206.332 14.947 206.667C14.7007 206.967 13.2775 210.678 12.4157 213.004L14.3363 219.175C14.6958 220.308 15.075 221.737 14.8041 222.097C14.6376 222.225 14.4473 222.318 14.2444 222.371C14.0415 222.424 13.83 222.437 13.6222 222.407ZM12.785 199.93C11.741 200.132 5.3537 201.408 3.66947 201.901C2.0788 202.394 1.96061 203.202 2.40383 205.351C2.7978 207.238 3.56113 208.234 3.9157 208.495C4.11761 208.648 4.21118 209.052 4.45249 210.254C4.66841 211.565 5.02335 212.849 5.51129 214.084C6.80156 216.903 8.75665 220.214 10.3818 221.062C12.3024 222.048 14.1738 221.979 14.3806 221.801C14.4545 221.599 14.159 220.352 13.8291 219.337L11.8986 213.078C11.8813 213.027 11.8813 212.972 11.8986 212.921C12.4354 211.442 14.223 206.677 14.5727 206.327C14.8435 206.056 16.0205 204.819 16.4441 204.38L12.785 199.93Z" fill="#443D78"/>
<path id="Vector_71" d="M10.2726 221.283C12.2424 222.298 14.3256 222.298 14.5817 221.958C14.6507 221.73 14.6507 221.486 14.5817 221.258C12.858 221.175 9.94753 220.766 8.75084 218.917C7.22912 216.552 5.71232 211.486 5.03764 208.696C4.5107 206.528 3.93451 203.078 3.70305 201.654L3.59963 201.688C1.74303 202.28 1.74303 203.374 2.16656 205.404C2.59008 207.435 3.4322 208.445 3.772 208.696C4.1118 208.948 4.36296 212.146 5.2888 214.186C6.21463 216.227 8.35194 220.273 10.2726 221.283Z" fill="white"/>
<path id="Vector_72" d="M13.6222 222.407C12.4199 222.37 11.2415 222.062 10.175 221.505C7.99825 220.367 5.74275 215.695 5.08777 214.29C4.58185 213.02 4.21528 211.698 3.9945 210.348C3.92106 209.844 3.79733 209.349 3.62515 208.869C3.21147 208.559 2.36936 207.47 1.94583 205.444C1.54694 203.527 1.42874 202.118 3.54635 201.443L3.65469 201.408C3.68846 201.398 3.72404 201.395 3.75893 201.4C3.79381 201.406 3.82715 201.418 3.85661 201.438C3.91493 201.476 3.95563 201.537 3.96987 201.605C4.19148 202.995 4.77259 206.464 5.29461 208.628C5.89049 211.092 7.42207 216.355 8.97826 218.775C10.0469 220.441 12.6324 220.904 14.6121 221.003C14.6685 221.005 14.7224 221.027 14.7645 221.065C14.8067 221.103 14.8346 221.154 14.8435 221.21C14.9223 221.702 14.9076 221.944 14.7943 222.097C14.681 222.249 14.2083 222.407 13.6222 222.407ZM3.51188 201.98C2.08372 202.473 1.98523 203.3 2.41368 205.356C2.80765 207.243 3.57097 208.239 3.92555 208.5C4.12746 208.653 4.22103 209.057 4.46234 210.259C4.67826 211.57 5.0332 212.853 5.52114 214.088C6.81141 216.907 8.7665 220.219 10.3916 221.067C12.3024 222.052 14.1639 221.983 14.3905 221.806C14.3905 221.806 14.3905 221.727 14.3905 221.495C12.3221 221.367 9.71204 220.835 8.56951 219.031C6.97885 216.567 5.42265 211.215 4.82184 208.736C4.30475 206.711 3.76304 203.517 3.51188 201.98Z" fill="#443D78"/>
<path id="Vector_73" d="M37.3251 133.921C37.3251 133.921 40.1518 137.627 40.4473 138.115C40.7428 138.603 42.7816 157.128 42.9786 158.981C43.0875 160.474 43.0875 161.972 42.9786 163.465C42.9786 163.465 36.1284 170.306 31.6469 175.889C27.1655 181.473 12.5786 199.407 12.5786 199.407L18.9807 209.382C18.9807 209.382 26.9833 202.975 32.7205 197.49C41.8016 188.831 50.3459 179.674 50.9418 179.186C51.5377 178.698 55.4676 174.519 55.7581 173.351C56.0487 172.183 59.1758 155.787 60.2494 150.524C61.323 145.261 62.7807 131.023 62.7807 131.023L35.9856 131.703" fill="#443D78"/>
<path id="Vector_74" d="M18.9675 209.603H18.9281C18.8595 209.589 18.7994 209.548 18.7606 209.49L12.3586 199.515C12.3274 199.474 12.3105 199.424 12.3105 199.372C12.3105 199.321 12.3274 199.27 12.3586 199.229C12.5063 199.047 26.9947 181.202 31.4269 175.707C35.6326 170.493 41.9952 164.076 42.7093 163.357C42.8162 161.91 42.8162 160.457 42.7093 159.01C42.3744 155.812 40.4883 138.962 40.2026 138.223C39.986 137.868 38.085 135.35 37.11 134.073C37.0878 134.048 37.0711 134.018 37.0608 133.986C37.0505 133.954 37.0469 133.921 37.0501 133.887C37.0534 133.854 37.0635 133.821 37.0797 133.792C37.096 133.762 37.1181 133.736 37.1447 133.716C37.1713 133.695 37.2019 133.68 37.2344 133.672C37.267 133.664 37.3009 133.662 37.3341 133.668C37.3673 133.673 37.3991 133.685 37.4274 133.703C37.4558 133.721 37.4801 133.745 37.499 133.773C37.6172 133.925 40.3356 137.493 40.6311 137.991C40.9857 138.578 43.1772 158.754 43.2018 158.956C43.3092 160.464 43.3092 161.977 43.2018 163.485C43.1972 163.545 43.1709 163.601 43.1279 163.643C43.059 163.712 36.2334 170.542 31.8012 176.017C27.5758 181.256 14.2102 197.701 12.8412 199.402L18.9872 208.992C20.2971 207.932 27.3591 202.186 32.4955 197.283C39.001 191.088 45.147 184.716 48.4515 181.29C49.8008 179.891 50.5445 179.122 50.7217 178.974C51.4112 178.398 55.1933 174.317 55.4593 173.267C55.6119 172.646 56.5821 167.654 57.6064 162.366C58.5126 157.714 59.4483 152.899 59.9456 150.45C60.9306 145.664 62.2356 133.27 62.4474 131.23L35.933 131.905C35.9006 131.906 35.8683 131.901 35.838 131.89C35.8076 131.879 35.7797 131.862 35.7559 131.84C35.7321 131.818 35.7129 131.791 35.6993 131.762C35.6858 131.732 35.6781 131.701 35.6769 131.668C35.6768 131.603 35.7017 131.54 35.7466 131.492C35.7915 131.444 35.8529 131.416 35.9182 131.412L62.7133 130.732C62.7485 130.73 62.7837 130.736 62.8162 130.749C62.8487 130.763 62.8775 130.784 62.9004 130.811C62.925 130.836 62.9435 130.866 62.9546 130.9C62.9657 130.933 62.9691 130.968 62.9645 131.003C62.9645 131.146 61.4871 145.295 60.4283 150.529C59.9358 152.993 58.9952 157.788 58.094 162.44C57.0647 167.733 56.0946 172.735 55.932 173.366C55.6119 174.652 51.4998 178.94 51.0369 179.334C50.8793 179.462 50.0077 180.364 48.806 181.611C45.5016 185.061 39.3458 191.418 32.8353 197.623C27.1572 203.044 19.1645 209.45 19.0807 209.529C19.0518 209.565 19.0121 209.591 18.9675 209.603Z" fill="#443D78"/>
<path id="Vector_75" d="M43.4233 64.5117C43.4233 64.5117 38.6858 67.0103 36.189 68.2276C33.6922 69.4449 25.3547 71.9484 24.5274 73.2938C23.7 74.6392 23.8231 76.7435 23.8231 76.7435C23.8231 76.7435 15.6482 99.2655 15.4512 103.193C15.2542 107.121 16.052 129.471 16.052 129.471C16.052 129.471 16.6577 130.372 19.8785 130.274C23.0992 130.175 24.4043 129.569 24.4043 129.569C24.4043 129.569 26.0146 107.018 26.315 105.707C26.5112 104.879 26.7815 104.071 27.1227 103.292L30.6389 96.2445C30.6389 96.2445 31.8504 103.494 31.8504 103.795C31.8504 104.095 25.207 131.279 25.207 131.279C25.207 131.279 25.207 133.093 36.9769 134.729C48.7469 136.365 59.0099 137.346 59.5122 137.346C60.0145 137.346 62.733 132.817 62.733 132.817C62.733 132.817 63.4372 135.33 63.2254 135.636C63.0137 135.941 65.2396 135.143 65.7419 134.729L67.7512 133.117C67.7512 133.117 64.6339 115.8 64.6339 114.494C64.6339 113.188 65.4415 108.452 65.4415 108.452L77.1081 129.796C77.1081 129.796 77.1081 130.096 79.925 128.485C81.4872 127.631 82.9117 126.546 84.1504 125.267L74.695 102.01C74.695 102.01 72.4838 76.3345 72.2819 75.0285C72.08 73.7225 72.5823 73.417 71.3758 72.8108C70.1692 72.2047 64.624 71.0613 64.624 71.0613C64.624 71.0613 55.4937 67.5623 52.0661 66.5126C48.6386 65.4629 43.4233 64.5117 43.4233 64.5117Z" fill="#A9E8CB"/>
<path id="Vector_76" d="M59.5056 137.591C58.9196 137.591 48.3907 136.537 36.9408 134.969C25.4909 133.402 24.9542 131.643 24.9542 131.303C24.9518 131.283 24.9518 131.263 24.9542 131.244C27.2146 121.984 31.5138 104.321 31.5877 103.799C31.5877 103.572 30.977 99.8806 30.5043 97.0567L27.3328 103.444C27.0127 104.202 26.7589 104.987 26.5744 105.789C26.2789 107.061 24.6833 129.386 24.6685 129.608C24.666 129.652 24.6514 129.695 24.6262 129.731C24.601 129.768 24.5662 129.797 24.5257 129.815C24.4715 129.844 23.137 130.44 19.9014 130.544C16.6659 130.647 15.9617 129.731 15.8681 129.627C15.8426 129.589 15.8273 129.545 15.8238 129.499C15.8238 129.277 15.0211 107.095 15.223 103.202C15.4249 99.3089 23.0779 78.1669 23.5949 76.7328C23.5949 76.3829 23.5358 74.4707 24.3386 73.1746C24.8803 72.2974 27.8302 71.1639 31.9324 69.6558C33.6314 69.03 35.2369 68.4386 36.0987 68.0197C38.561 66.8172 43.2789 64.3334 43.3281 64.3038C43.3789 64.2845 43.4349 64.2845 43.4857 64.3038C43.5399 64.3038 48.76 65.2549 52.163 66.2751C55.5659 67.2952 64.6421 70.7992 64.7356 70.8337C64.9228 70.8682 70.2857 71.982 71.5071 72.5931C72.4526 73.0859 72.492 73.4358 72.492 74.106C72.4865 74.401 72.5047 74.696 72.5462 74.9882C72.7432 76.2794 74.8312 100.462 74.9593 101.95L84.4048 125.172C84.421 125.214 84.4255 125.26 84.4177 125.304C84.4099 125.348 84.3901 125.39 84.3605 125.424C83.1062 126.729 81.6596 127.834 80.0711 128.701C77.3871 130.233 77.1557 130.1 77.0178 130.022C76.9765 129.994 76.9427 129.957 76.9193 129.913L65.5925 109.215C65.3709 110.58 64.908 113.537 64.908 114.512C64.908 115.488 66.9468 127.109 68.0253 133.092C68.0322 133.136 68.0277 133.18 68.0122 133.222C67.9966 133.263 67.9706 133.3 67.9367 133.328L65.9225 134.94C65.6319 135.172 63.4602 136.211 63.081 135.886C63.0486 135.865 63.021 135.836 63 135.804C62.979 135.771 62.9651 135.734 62.9591 135.696C62.9531 135.657 62.9551 135.618 62.9651 135.58C62.975 135.543 62.9927 135.507 63.0169 135.477C62.9616 134.778 62.8312 134.088 62.6279 133.417C60.9633 136.197 59.9095 137.591 59.5056 137.591ZM25.4515 131.313C25.5254 131.451 26.53 133.047 37.0048 134.482C48.8782 136.108 59.0526 137.098 59.5056 137.098C59.806 136.951 61.2884 134.738 62.5146 132.663C62.5399 132.622 62.5766 132.588 62.6203 132.567C62.664 132.547 62.7128 132.539 62.7608 132.545C62.8083 132.551 62.8528 132.571 62.8888 132.603C62.9247 132.634 62.9505 132.676 62.9628 132.722C63.2448 133.589 63.4265 134.485 63.5045 135.393C64.236 135.192 64.938 134.895 65.5925 134.511L67.4885 132.988C67.1684 131.204 64.3909 115.74 64.3909 114.468C64.3909 113.197 65.169 108.579 65.1986 108.387C65.2071 108.336 65.2311 108.29 65.2673 108.253C65.3034 108.217 65.35 108.193 65.4005 108.185C65.4507 108.175 65.5029 108.181 65.5491 108.203C65.5953 108.226 65.633 108.262 65.6566 108.308L77.2591 129.563C78.1474 129.22 79.0001 128.791 79.8051 128.282C81.2939 127.454 82.6612 126.424 83.868 125.221L74.4717 102.108C74.4689 102.085 74.4689 102.062 74.4717 102.039C74.4717 101.783 72.2556 76.3582 72.0586 75.0769C72.0128 74.7504 71.993 74.4208 71.9995 74.0912C71.9995 73.5294 71.9995 73.3816 71.2904 73.0218C70.1232 72.4403 64.6519 71.3068 64.5978 71.292C64.4648 71.2476 55.3985 67.7733 52.0201 66.7383C48.8782 65.7773 44.1653 64.8952 43.4808 64.7671C42.8652 65.0923 38.6152 67.3248 36.3104 68.4484C35.4289 68.8821 33.8136 69.4735 32.0999 70.1043C29.2091 71.1639 25.2546 72.6177 24.7572 73.421C23.9741 74.6875 24.0874 76.718 24.0874 76.7377C24.0926 76.7703 24.0926 76.8036 24.0874 76.8362C24.0086 77.0629 15.9223 99.368 15.7155 103.212C15.5234 106.957 16.2621 127.828 16.3163 129.381C16.4886 129.534 17.3012 130.12 19.8867 130.036C21.3432 130.043 22.7925 129.83 24.1859 129.406C24.3435 127.247 25.8012 106.933 26.0918 105.661C26.2921 104.817 26.5673 103.993 26.9142 103.197L30.4402 96.1401C30.4635 96.0937 30.5008 96.0559 30.5468 96.0321C30.5927 96.0082 30.6451 95.9994 30.6963 96.007C30.7474 96.0153 30.7947 96.0391 30.8317 96.0753C30.8687 96.1114 30.8937 96.1582 30.9032 96.2091C31.1051 97.4214 32.1146 103.493 32.1146 103.799C32.1146 104.104 27.0274 124.872 25.4515 131.313Z" fill="#443D78"/>
<path id="Vector_77" d="M30.6352 96.2689L27.311 78.4485L28.7195 99.694L30.6352 96.2689Z" fill="#443D78"/>
<path id="Vector_78" d="M28.7209 99.9401H28.6667C28.6151 99.927 28.5689 99.8981 28.5345 99.8574C28.5001 99.8168 28.4792 99.7665 28.4747 99.7134L27.0662 78.4679C27.0632 78.4051 27.0837 78.3435 27.1238 78.2951C27.1639 78.2468 27.2207 78.2152 27.2829 78.2067C27.3452 78.1991 27.408 78.2152 27.459 78.2517C27.5101 78.2881 27.5456 78.3424 27.5587 78.4038L30.8779 96.2242C30.8878 96.2818 30.8774 96.341 30.8484 96.3918L28.9376 99.8119C28.9159 99.8505 28.8845 99.8826 28.8464 99.9051C28.8084 99.9276 28.7651 99.9397 28.7209 99.9401ZM27.8345 82.5928L28.913 98.8559L30.3904 96.239L27.8345 82.5928Z" fill="#443D78"/>
<path id="Vector_79" d="M47.5322 91.2825C47.4964 91.2826 47.461 91.2746 47.4286 91.2593C47.3963 91.2439 47.3677 91.2216 47.3451 91.1938C46.8149 90.5557 46.3559 89.8616 45.976 89.124C45.9546 89.0676 45.9546 89.0053 45.976 88.9489C45.9974 88.8926 46.0387 88.846 46.0921 88.8181C46.1455 88.7901 46.2073 88.7828 46.2658 88.7974C46.3243 88.812 46.3753 88.8475 46.4094 88.8973C46.7743 89.5994 47.2134 90.2603 47.7193 90.8685C47.7423 90.891 47.7605 90.9179 47.7729 90.9475C47.7854 90.9771 47.7918 91.0089 47.7918 91.041C47.7918 91.0732 47.7854 91.105 47.7729 91.1346C47.7605 91.1642 47.7423 91.191 47.7193 91.2135C47.6944 91.237 47.6649 91.2551 47.6328 91.267C47.6006 91.2788 47.5664 91.2841 47.5322 91.2825Z" fill="#443D78"/>
<path id="Vector_80" d="M45.7232 88.2706C45.6751 88.2708 45.6281 88.2569 45.5878 88.2306C45.5476 88.2044 45.5159 88.1669 45.4967 88.1228C43.1968 82.9235 42.9654 75.61 42.9654 75.5361C42.9647 75.5038 42.9705 75.4716 42.9822 75.4415C42.994 75.4113 43.0116 75.3838 43.034 75.3604C43.0564 75.3371 43.0832 75.3184 43.1128 75.3054C43.1425 75.2924 43.1744 75.2854 43.2067 75.2848C43.2713 75.2859 43.333 75.3114 43.3796 75.3562C43.4262 75.401 43.4541 75.4617 43.4578 75.5263C43.4578 75.5953 43.6893 82.8102 45.9202 87.9257C45.9341 87.955 45.9419 87.9869 45.9432 88.0193C45.9445 88.0517 45.9392 88.0841 45.9277 88.1145C45.9162 88.1448 45.8987 88.1726 45.8763 88.196C45.8538 88.2195 45.8269 88.2381 45.7971 88.2509C45.7736 88.2612 45.7487 88.2679 45.7232 88.2706Z" fill="#443D78"/>
<path id="Vector_81" d="M44.2161 87.9598C44.1732 87.9595 44.131 87.948 44.0939 87.9264C44.0567 87.9048 44.0259 87.8738 44.0044 87.8366C42.869 85.8271 42.014 83.6715 41.4633 81.4299C41.456 81.3982 41.4551 81.3653 41.4606 81.3333C41.4661 81.3012 41.4778 81.2705 41.4952 81.243C41.5126 81.2155 41.5353 81.1918 41.5619 81.1731C41.5886 81.1544 41.6186 81.1412 41.6504 81.1342C41.6818 81.127 41.7143 81.1261 41.746 81.1317C41.7778 81.1372 41.808 81.1491 41.8351 81.1665C41.8622 81.184 41.8855 81.2067 41.9037 81.2333C41.9219 81.2599 41.9345 81.2899 41.9409 81.3215C42.4817 83.5166 43.3201 85.6274 44.4328 87.5951C44.4634 87.6522 44.4708 87.719 44.4534 87.7815C44.4359 87.8439 44.395 87.8972 44.3393 87.9302C44.302 87.9518 44.2592 87.9621 44.2161 87.9598Z" fill="#443D78"/>
<path id="Vector_82" d="M41.7757 111.847C41.7207 111.846 41.6676 111.827 41.6241 111.793C41.5807 111.76 41.5492 111.713 41.5344 111.66C41.5195 111.596 41.5302 111.528 41.5642 111.472C41.5983 111.416 41.653 111.375 41.7166 111.359C45.6219 110.373 50.6204 109.161 53.3389 108.575C52.0732 108.634 50.3053 108.762 48.6604 108.9C48.5951 108.905 48.5304 108.884 48.4805 108.842C48.4307 108.799 48.3997 108.739 48.3945 108.673C48.3893 108.608 48.4102 108.543 48.4527 108.493C48.4952 108.443 48.5557 108.412 48.621 108.407C55.3383 107.84 55.3678 108.057 55.4072 108.328C55.4466 108.599 55.2053 108.698 54.2253 108.895C51.8122 109.388 46.1538 110.763 41.8348 111.852L41.7757 111.847Z" fill="#443D78"/>
<path id="Vector_83" d="M37.073 113.025C37.0406 113.029 37.0078 113.027 36.9765 113.018C36.9451 113.009 36.9158 112.994 36.8902 112.974C36.8646 112.954 36.8432 112.929 36.8272 112.9C36.8113 112.872 36.8011 112.841 36.7972 112.808C36.7933 112.776 36.7958 112.743 36.8046 112.712C36.8134 112.68 36.8283 112.651 36.8484 112.625C36.8685 112.6 36.8935 112.578 36.9219 112.562C36.9503 112.547 36.9815 112.536 37.0139 112.532L39.1364 111.995C39.1997 111.98 39.2663 111.991 39.3217 112.025C39.3771 112.06 39.4167 112.114 39.4319 112.178C39.44 112.209 39.4418 112.241 39.4372 112.273C39.4326 112.305 39.4218 112.335 39.4053 112.363C39.3888 112.39 39.3669 112.414 39.3411 112.433C39.3152 112.452 39.2858 112.466 39.2546 112.473L37.1321 113.01L37.073 113.025Z" fill="#443D78"/>
<path id="Vector_84" d="M65.4445 108.452C65.4445 108.452 63.1299 104.628 62.928 103.721C62.7261 102.814 61.1157 92.9479 61.1157 92.9479C61.1157 92.9479 62.2238 108.654 62.6276 110.768C62.9555 112.166 63.649 113.452 64.6369 114.494L65.4445 108.452Z" fill="#443D78"/>
<path id="Vector_85" d="M64.6358 114.741C64.6035 114.741 64.5715 114.735 64.5418 114.722C64.5122 114.709 64.4855 114.69 64.4635 114.667C63.4375 113.592 62.7196 112.261 62.3853 110.813C61.9814 108.708 60.9079 93.6084 60.8685 92.9677C60.8646 92.9353 60.8671 92.9025 60.8759 92.8711C60.8847 92.8398 60.8996 92.8104 60.9197 92.7848C60.9398 92.7592 60.9648 92.7378 60.9932 92.7218C61.0216 92.7058 61.0528 92.6956 61.0852 92.6917C61.1175 92.6878 61.1503 92.6904 61.1816 92.6992C61.213 92.7079 61.2423 92.7228 61.2679 92.743C61.2935 92.7631 61.3149 92.7881 61.3309 92.8165C61.3468 92.8449 61.3571 92.8762 61.3609 92.9086C61.3609 93.0071 62.9713 102.765 63.1683 103.667C63.3259 104.377 65.015 107.269 65.6306 108.324C65.6614 108.372 65.6736 108.43 65.6651 108.487L64.8624 114.524C64.8558 114.57 64.8367 114.613 64.8071 114.648C64.7776 114.684 64.7387 114.711 64.6949 114.726C64.6761 114.734 64.6562 114.739 64.6358 114.741ZM61.7598 98.3887C62.1193 103.14 62.6266 109.453 62.8679 110.709C63.1353 111.888 63.6826 112.985 64.4635 113.908L65.1874 108.487C64.8525 107.93 62.8827 104.628 62.6857 103.756C62.5872 103.337 62.1735 100.858 61.7598 98.3887Z" fill="#443D78"/>
<path id="Vector_86" d="M60.5164 90.9811C60.4602 90.9813 60.4057 90.9624 60.3618 90.9275C60.3179 90.8925 60.2872 90.8436 60.2749 90.7889C60.2749 90.7889 60.0827 89.956 59.8658 88.6993C59.8603 88.6669 59.8613 88.6338 59.8686 88.6018C59.8759 88.5698 59.8894 88.5396 59.9084 88.5128C59.9274 88.486 59.9515 88.4633 59.9792 88.4458C60.007 88.4283 60.038 88.4165 60.0704 88.411C60.1027 88.4055 60.1358 88.4064 60.1678 88.4137C60.1998 88.421 60.2301 88.4346 60.2569 88.4536C60.2836 88.4726 60.3064 88.4966 60.3239 88.5244C60.3413 88.5522 60.3532 88.5832 60.3587 88.6155C60.5755 89.8574 60.7628 90.6706 60.7628 90.6755C60.7708 90.7069 60.7724 90.7396 60.7675 90.7717C60.7627 90.8037 60.7514 90.8345 60.7344 90.8621C60.7173 90.8897 60.6949 90.9135 60.6685 90.9323C60.6421 90.951 60.6121 90.9643 60.5804 90.9712L60.5164 90.9811Z" fill="#443D78"/>
<path id="Vector_87" d="M59.8696 87.4181C59.8101 87.4177 59.7527 87.3961 59.7076 87.3573C59.6626 87.3185 59.6327 87.265 59.6234 87.2062C59.197 84.571 59.0764 81.8953 59.2639 79.2323C59.7563 74.1858 63.829 73.0869 63.8734 73.077C63.9047 73.0688 63.9374 73.067 63.9695 73.0715C64.0016 73.076 64.0325 73.0868 64.0604 73.1033C64.0883 73.1198 64.1127 73.1416 64.1321 73.1675C64.1516 73.1935 64.1657 73.223 64.1738 73.2544C64.1889 73.3177 64.1788 73.3845 64.1458 73.4405C64.1127 73.4966 64.0592 73.5377 63.9965 73.555C63.8438 73.5945 60.2291 74.585 59.7514 79.2816C59.5716 81.9053 59.6923 84.5409 60.1109 87.1372C60.1195 87.2017 60.1027 87.267 60.0641 87.3194C60.0256 87.3718 59.9682 87.4072 59.9041 87.4181H59.8696Z" fill="#443D78"/>
<path id="Vector_88" d="M59.3045 86.3484C59.256 86.3475 59.2089 86.3326 59.1687 86.3055C59.1285 86.2784 59.097 86.2402 59.078 86.1956C58.4862 83.8683 58.146 81.4842 58.0635 79.0842C58.0635 79.0188 58.0894 78.9561 58.1356 78.9099C58.1818 78.8637 58.2444 78.8378 58.3097 78.8378C58.375 78.8378 58.4376 78.8637 58.4838 78.9099C58.53 78.9561 58.5559 79.0188 58.5559 79.0842C58.6348 81.4404 58.965 83.7814 59.5409 86.0675C59.5506 86.0985 59.554 86.1312 59.5508 86.1636C59.5476 86.196 59.5379 86.2274 59.5222 86.256C59.5066 86.2845 59.4854 86.3096 59.4598 86.3297C59.4342 86.3498 59.4048 86.3645 59.3734 86.373L59.3045 86.3484Z" fill="#443D78"/>
<path id="Vector_89" d="M95.8011 131.367C95.8011 131.367 75.9448 141.761 75.3292 142.515C74.7136 143.269 75.1027 144.486 75.2554 145.018C75.408 145.551 80.18 165.042 80.7858 165.342C81.3915 165.643 83.2875 164.662 83.2875 164.662C83.2875 164.662 85.41 165.948 85.937 165.722C86.4639 165.495 104.429 154.347 105.414 153.436C106.399 152.524 106.325 151.844 106.02 151.164C105.714 150.484 101.095 140.09 101.095 140.09C101.239 139.868 101.334 139.618 101.373 139.356C101.412 139.094 101.394 138.827 101.322 138.572C101.021 137.892 98.5195 132.885 97.9876 132.126C97.4558 131.367 97.771 130.549 95.8011 131.367Z" fill="#969696"/>
<path id="Vector_90" d="M85.804 165.993C85.1391 165.993 83.9227 165.322 83.2875 164.943C82.795 165.199 81.3176 165.874 80.6872 165.564C80.377 165.406 79.7023 163.814 75.408 146.605C75.1913 145.728 75.0485 145.171 75.0288 145.087V145.028C74.8564 144.432 74.5018 143.195 75.1667 142.362C75.8315 141.529 93.6687 132.215 95.7075 131.15C97.2194 130.514 97.6084 130.741 97.963 131.535C98.0277 131.697 98.1085 131.852 98.2043 131.998C98.7509 132.777 101.253 137.789 101.563 138.483C101.652 138.752 101.683 139.037 101.652 139.318C101.621 139.6 101.531 139.871 101.386 140.115L106.261 151.07C106.561 151.75 106.719 152.588 105.596 153.628C104.611 154.525 86.7495 165.658 86.0502 165.948C85.972 165.98 85.8882 165.995 85.804 165.993ZM83.2973 164.416C83.3424 164.415 83.3868 164.427 83.4253 164.45C84.4989 165.101 85.6316 165.594 85.8532 165.495C86.5821 165.165 104.37 154.076 105.256 153.258C106.143 152.44 106.054 151.819 105.803 151.262C105.503 150.577 100.878 140.189 100.878 140.189C100.859 140.153 100.849 140.113 100.849 140.073C100.849 140.032 100.859 139.992 100.878 139.957C100.999 139.769 101.08 139.559 101.116 139.338C101.152 139.117 101.141 138.892 101.085 138.676C100.785 137.996 98.2929 133.008 97.7758 132.269C97.6604 132.099 97.563 131.917 97.4853 131.727C97.2784 131.259 97.1849 131.042 95.8848 131.594C87.9807 135.729 76.0433 142.086 75.5114 142.672C74.9795 143.259 75.3144 144.378 75.4622 144.89V144.949C75.4868 145.038 75.6247 145.6 75.8463 146.482C78.8011 158.236 80.4853 164.509 80.899 165.135C81.2437 165.249 82.3124 164.874 83.1446 164.44C83.1911 164.414 83.2451 164.406 83.2973 164.416Z" fill="#443D78"/>
<path id="Vector_91" d="M75.2638 145.018C75.4116 145.551 80.1885 165.042 80.7942 165.342C81.4 165.643 83.296 164.662 83.296 164.662C83.296 164.662 85.3101 165.884 85.9011 165.732C84.4237 161.838 78.6865 146.566 77.6868 144.048C76.8397 141.899 75.9483 142.111 75.5494 142.357L75.3869 142.485H75.3623C74.732 143.274 75.1112 144.486 75.2638 145.018Z" fill="#443D78"/>
<path id="Vector_92" d="M85.799 165.989C85.1244 165.989 83.8292 165.269 83.2875 164.944C82.795 165.2 81.3176 165.875 80.6872 165.565C80.377 165.407 79.7023 163.815 75.408 146.606C75.1913 145.729 75.0485 145.172 75.0288 145.088V145.029C74.8564 144.433 74.5018 143.196 75.1667 142.363L75.2061 142.318L75.2455 142.284C75.2898 142.244 75.3538 142.2 75.4326 142.141C75.5762 142.046 75.7393 141.985 75.9099 141.962C76.0804 141.939 76.254 141.954 76.4175 142.008C76.9888 142.195 77.501 142.846 77.9343 143.945C78.545 145.492 80.9187 151.795 83.0166 157.359C84.3512 160.898 85.5676 164.131 86.1487 165.644C86.1601 165.677 86.1646 165.711 86.162 165.746C86.1594 165.781 86.1497 165.815 86.1336 165.846C86.1175 165.877 86.0952 165.904 86.0681 165.926C86.0411 165.948 86.0099 165.964 85.9763 165.974C85.9179 165.985 85.8585 165.99 85.799 165.989ZM83.2973 164.416C83.3424 164.415 83.3868 164.427 83.4253 164.451C84.0874 164.86 84.7947 165.191 85.5331 165.437C84.9175 163.81 83.775 160.789 82.5389 157.507C80.4459 151.948 78.0673 145.645 77.4616 144.097C76.9691 142.91 76.5407 142.545 76.2501 142.446C76.1555 142.417 76.0554 142.409 75.9573 142.423C75.8592 142.438 75.7657 142.474 75.6838 142.53C75.6361 142.56 75.5915 142.595 75.5508 142.634C75.0288 143.279 75.3341 144.354 75.4819 144.866V144.925C75.5065 145.014 75.6444 145.576 75.866 146.458C78.8208 158.212 80.505 164.485 80.9187 165.111C81.2634 165.225 82.3321 164.85 83.1643 164.416C83.2077 164.403 83.254 164.403 83.2973 164.416Z" fill="#443D78"/>
<path id="Vector_93" d="M81.3286 153.077C81.2755 153.077 81.2239 153.06 81.1814 153.028C81.1389 152.996 81.1079 152.951 81.093 152.9C81.078 152.849 81.0799 152.795 81.0984 152.745C81.1169 152.695 81.151 152.653 81.1956 152.624L100.52 140.49C100.547 140.473 100.578 140.46 100.61 140.455C100.642 140.449 100.675 140.45 100.707 140.457C100.739 140.465 100.768 140.478 100.795 140.498C100.821 140.517 100.843 140.541 100.86 140.569C100.878 140.596 100.89 140.626 100.895 140.658C100.901 140.69 100.9 140.722 100.893 140.754C100.885 140.785 100.872 140.815 100.852 140.841C100.833 140.867 100.809 140.888 100.781 140.904L81.4566 153.038C81.4195 153.065 81.3745 153.079 81.3286 153.077Z" fill="#443D78"/>
<path id="Vector_94" d="M90.2642 146.157L91.6283 148.508L93.5982 147.069L92.3128 144.866L90.2642 146.157Z" fill="white"/>
<path id="Vector_95" d="M91.6288 148.754H91.5795C91.5458 148.746 91.5139 148.732 91.486 148.711C91.458 148.691 91.4345 148.665 91.417 148.635L90.0529 146.285C90.0217 146.229 90.013 146.164 90.0286 146.103C90.0442 146.041 90.0829 145.988 90.1366 145.954L92.1804 144.663C92.2384 144.629 92.307 144.619 92.3724 144.634C92.4043 144.641 92.4344 144.655 92.4606 144.674C92.4869 144.694 92.5089 144.718 92.5251 144.747L93.8153 146.945C93.8465 146.998 93.8567 147.061 93.844 147.121C93.8312 147.181 93.7964 147.234 93.7464 147.27L91.7765 148.709C91.7338 148.74 91.6817 148.756 91.6288 148.754ZM90.5995 146.24L91.7076 148.147L93.2786 146.999L92.2296 145.21L90.5995 146.24Z" fill="#443D78"/>
</g>
</g>
</svg>
