<svg width="304" height="235" viewBox="0 0 304 235" fill="none" xmlns="http://www.w3.org/2000/svg">
<g clip-path="url(#clip0_711_2494)">
<path d="M196.643 17.5503C189.03 8.35825 179.906 1.22157 164.83 0.115379C137.972 -1.85435 123.587 21.8609 104.099 35.7203C79.7922 53.0054 47.9581 48.7805 25.4048 69.4269C0.770103 91.9788 9.2169 113.118 26.1176 125.093C43.0183 137.068 46.5254 156.102 58.4934 180.046C70.4615 203.989 99.3161 227.255 123.245 229.367C138.998 230.759 155.229 223.622 169.578 217.949C192.68 208.849 216.067 204.239 239.861 197.795C259.477 192.478 280.028 183.643 288.667 163.81C300.628 136.326 291.482 97.5669 271.068 80.6601C250.653 63.7532 233.061 61.6336 218.983 46.8321C210.158 37.6329 204.135 26.5925 196.643 17.5503Z" fill="#A9E8CB"/>
<path opacity="0.7" d="M196.643 17.5503C189.03 8.35825 179.906 1.22157 164.83 0.115379C137.972 -1.85435 123.587 21.8609 104.099 35.7203C79.7922 53.0054 47.9581 48.7805 25.4048 69.4269C0.770103 91.9788 9.2169 113.118 26.1176 125.093C43.0183 137.068 46.5254 156.102 58.4934 180.046C70.4615 203.989 99.3161 227.255 123.245 229.367C138.998 230.759 155.229 223.622 169.578 217.949C192.68 208.849 216.067 204.239 239.861 197.795C259.477 192.478 280.028 183.643 288.667 163.81C300.628 136.326 291.482 97.5669 271.068 80.6601C250.653 63.7532 233.061 61.6336 218.983 46.8321C210.158 37.6329 204.135 26.5925 196.643 17.5503Z" fill="white"/>
<path d="M43.3598 153.583L34.3784 146.924C32.0871 145.227 29.9412 143.341 27.9631 141.286C26.401 139.706 24.9302 138.038 23.5579 136.291L22.1323 134.242L35.2765 128.604C35.2765 128.604 35.8539 145.59 43.3598 153.583Z" fill="#443D78"/>
<path d="M24.1138 127.441C24.1138 127.441 26.965 142.243 47.3442 156.701C67.7235 171.16 169.805 232.45 175.436 234.213C181.067 235.976 183.876 234.213 186.342 232.45C188.808 230.688 282.408 152.812 282.408 152.812C282.408 152.812 240.181 131.316 208.161 112.647C176.142 93.9771 152.911 80.9384 146.225 74.9364C139.539 68.9345 131.798 62.9611 131.798 62.9611C131.798 62.9611 77.9594 98.8943 58.5995 109.114C39.2396 119.334 24.1138 127.441 24.1138 127.441Z" fill="#A9E8CB" stroke="#443D78" stroke-linecap="round" stroke-linejoin="round"/>
<path d="M97.897 108.208L135.804 82.4728" stroke="white" stroke-linecap="round" stroke-linejoin="round"/>
<path d="M61.0664 133.215L93.6204 111.112" stroke="white" stroke-linecap="round" stroke-linejoin="round"/>
<path d="M90.2842 127.484L145.805 89.795" stroke="white" stroke-linecap="round" stroke-linejoin="round"/>
<path d="M71.0596 140.537L84.5887 131.352" stroke="white" stroke-linecap="round" stroke-linejoin="round"/>
<path d="M81.0605 147.852L155.799 97.1101" stroke="white" stroke-linecap="round" stroke-linejoin="round"/>
<path d="M100.456 148.787L165.799 104.432" stroke="white" stroke-linecap="round" stroke-linejoin="round"/>
<path d="M91.0542 155.174L97.0204 151.121" stroke="white" stroke-linecap="round" stroke-linejoin="round"/>
<path d="M101.055 162.489L175.793 111.747" stroke="white" stroke-linecap="round" stroke-linejoin="round"/>
<path d="M111.049 169.812L185.787 119.07" stroke="white" stroke-linecap="round" stroke-linejoin="round"/>
<path d="M158.571 151.649L195.787 126.385" stroke="white" stroke-linecap="round" stroke-linejoin="round"/>
<path d="M121.049 177.127L153.047 155.403" stroke="white" stroke-linecap="round" stroke-linejoin="round"/>
<path d="M179.542 151.52L205.781 133.7" stroke="white" stroke-linecap="round" stroke-linejoin="round"/>
<path d="M150.381 171.317L175.265 154.425" stroke="white" stroke-linecap="round" stroke-linejoin="round"/>
<path d="M131.042 184.442L146.104 174.222" stroke="white" stroke-linecap="round" stroke-linejoin="round"/>
<path d="M210.393 144.683L215.781 141.022" stroke="white" stroke-linecap="round" stroke-linejoin="round"/>
<path d="M141.043 191.764L205.781 147.809" stroke="white" stroke-linecap="round" stroke-linejoin="round"/>
<path d="M160.375 192.742L225.775 148.337" stroke="white" stroke-linecap="round" stroke-linejoin="round"/>
<path d="M151.037 199.079L156.44 195.418" stroke="white" stroke-linecap="round" stroke-linejoin="round"/>
<path d="M174.731 210.241C173.696 211.175 172.876 212.323 172.329 213.606C171.781 214.889 171.518 216.276 171.559 217.67C171.559 222.609 177.19 225.428 179.656 224.721C182.123 224.015 189.864 215.208 189.864 215.208C189.864 215.208 187.725 208.514 183.527 208.164C179.328 207.814 174.731 210.241 174.731 210.241Z" fill="#443D78" stroke="#443D78" stroke-linecap="round" stroke-linejoin="round"/>
<path d="M180.041 234.977C180.041 234.977 185.993 232.786 186.692 227.84C187.39 222.894 183.527 215.865 180.362 213.395C178.685 212.017 176.779 210.945 174.731 210.227C174.731 210.227 223.644 177.105 236.311 165.829C248.977 154.553 272.557 136.94 272.557 136.94C272.557 136.94 277.482 134.478 281.353 136.94C285.224 139.402 287.768 141.886 288.039 147.509C288.203 150.699 281.709 155.26 281.709 155.26L193.734 228.211C193.734 228.211 183.249 235.462 180.041 234.977Z" fill="white"/>
<mask id="mask0_711_2494" style="mask-type:luminance" maskUnits="userSpaceOnUse" x="174" y="135" width="115" height="100">
<path d="M180.041 234.977C180.041 234.977 185.993 232.786 186.692 227.84C187.39 222.894 183.527 215.865 180.362 213.395C178.685 212.017 176.779 210.945 174.731 210.227C174.731 210.227 223.644 177.105 236.311 165.829C248.977 154.553 272.557 136.94 272.557 136.94C272.557 136.94 277.482 134.478 281.353 136.94C285.224 139.402 287.768 141.886 288.039 147.509C288.203 150.699 281.709 155.26 281.709 155.26L193.734 228.211C193.734 228.211 183.249 235.462 180.041 234.977Z" fill="white"/>
</mask>
<g mask="url(#mask0_711_2494)">
<path d="M288.039 147.524C288.002 146.698 287.9 145.878 287.732 145.069C284.938 147.495 279.892 151.77 270.682 159.271C251.679 174.772 236.546 186.048 236.546 186.048C236.546 186.048 253.083 173.715 247.102 176.534C241.122 179.353 228.099 190.629 216.508 200.143C209.152 206.166 196.158 218.263 186.713 227.854C186 232.786 180.062 234.991 180.062 234.991C183.27 235.476 193.756 228.225 193.756 228.225L281.731 155.288C281.731 155.288 288.203 150.714 288.039 147.524Z" fill="#A9E8CB"/>
<path opacity="0.5" d="M288.039 147.524C288.002 146.698 287.9 145.878 287.732 145.069C284.938 147.495 279.892 151.77 270.682 159.271C251.679 174.772 236.546 186.048 236.546 186.048C236.546 186.048 253.083 173.715 247.102 176.534C241.122 179.353 228.099 190.629 216.508 200.143C209.152 206.166 196.158 218.263 186.713 227.854C186 232.786 180.062 234.991 180.062 234.991C183.27 235.476 193.756 228.225 193.756 228.225L281.731 155.288C281.731 155.288 288.203 150.714 288.039 147.524Z" fill="white"/>
</g>
<path d="M180.041 234.977C180.041 234.977 185.993 232.786 186.692 227.84C187.39 222.894 183.527 215.865 180.362 213.395C178.685 212.017 176.779 210.945 174.731 210.227C174.731 210.227 223.644 177.105 236.311 165.829C248.977 154.553 272.557 136.94 272.557 136.94C272.557 136.94 277.482 134.478 281.353 136.94C285.224 139.402 287.768 141.886 288.039 147.509C288.203 150.699 281.709 155.26 281.709 155.26L193.734 228.211C193.734 228.211 183.249 235.462 180.041 234.977Z" stroke="#443D78" stroke-linecap="round" stroke-linejoin="round"/>
<path d="M218.341 48.5949C218.341 48.5949 221.769 45.9615 222.667 44.2487C223.43 42.8213 223.993 40.7303 223.252 39.1531C223.089 38.7774 222.849 38.4402 222.548 38.1634C222.246 37.8866 221.89 37.6764 221.502 37.5465C221.114 37.4166 220.703 37.3699 220.296 37.4094C219.889 37.4488 219.495 37.5737 219.139 37.7757C217.036 39.046 216.751 43.485 217.25 45.6261C217.293 45.8045 218.305 48.6235 218.341 48.5949Z" fill="#443D78"/>
<path d="M186.642 70.5117C186.785 70.6401 189.18 72.4314 189.194 72.3886C189.208 72.3458 190.619 68.2922 190.406 66.3795C190.242 64.7381 189.572 62.7041 188.089 61.8049C187.747 61.5797 187.362 61.4292 186.958 61.3634C186.554 61.2975 186.14 61.3178 185.745 61.4229C185.349 61.528 184.98 61.7155 184.662 61.9732C184.343 62.2309 184.083 62.5529 183.898 62.9182C182.843 65.1449 185.045 68.9987 186.642 70.5117Z" fill="#443D78"/>
<path d="M258.023 53.2266C258.023 53.2266 245.413 65.8871 245.256 81.6663C245.1 97.4455 257.46 110.349 257.46 110.349C257.46 110.349 270.069 97.6811 270.219 81.909C270.369 66.1369 258.023 53.2266 258.023 53.2266Z" fill="#443D78"/>
<path d="M239.768 91.0368C239.935 90.8618 240.088 90.6732 240.224 90.473C241.151 89.117 241.949 87.1259 241.393 85.4773C241.275 85.0854 241.075 84.7228 240.807 84.4132C240.539 84.1036 240.21 83.8539 239.839 83.6802C239.469 83.5065 239.066 83.4129 238.657 83.4053C238.248 83.3977 237.842 83.4763 237.466 83.6361C235.769 84.4068 234.907 87.1045 234.693 89.3454C234.023 89.1813 233.417 89.0528 232.896 88.96L232.248 87.4328C232.005 86.9047 231.849 86.3766 231.635 85.8413C231.35 85.0491 231.093 84.2141 230.836 83.3863C231.827 82.9652 234.707 81.6592 235.79 80.4959C236.874 79.3326 238 77.4486 237.701 75.7357C237.643 75.3305 237.501 74.9418 237.284 74.5951C237.066 74.2484 236.779 73.9513 236.439 73.7231C236.1 73.4949 235.716 73.3408 235.313 73.2708C234.911 73.2007 234.498 73.2163 234.101 73.3164C231.735 73.9873 230.288 78.1836 230.209 80.3889C230.209 80.4602 230.209 80.9241 230.273 81.4737C230.052 80.6601 229.824 79.8465 229.618 79.0115C229.047 76.6421 228.534 74.2085 228.014 71.7677C227.907 71.261 227.793 70.7615 227.679 70.2548C228.513 69.8979 231.649 68.5205 232.782 67.293C233.916 66.0655 234.992 64.2528 234.686 62.5329C234.628 62.131 234.488 61.7454 234.273 61.4011C234.058 61.0568 233.774 60.7612 233.438 60.5334C233.103 60.3055 232.723 60.1505 232.324 60.0782C231.925 60.0059 231.516 60.0179 231.122 60.1135C228.755 60.7844 227.308 64.9879 227.222 67.186C227.222 67.2645 227.258 67.8212 227.308 68.442C227.009 67.1218 226.688 65.8158 226.331 64.524C225.736 62.3047 224.993 60.1279 224.107 58.0082C224.4 57.8869 228.106 56.3382 229.368 54.9823C230.487 53.7761 231.578 51.9349 231.278 50.2221C231.221 49.8168 231.079 49.4282 230.861 49.0814C230.644 48.7347 230.356 48.4376 230.017 48.2094C229.677 47.9813 229.294 47.8272 228.891 47.7571C228.488 47.687 228.075 47.7026 227.679 47.8027C225.312 48.4736 223.865 52.67 223.78 54.8752C223.78 55.0251 223.929 57.0162 224.008 57.7299C224.01 57.7037 224.01 57.6775 224.008 57.6514C223.085 55.5936 221.983 53.621 220.715 51.7565C219.584 50.0861 218.359 48.4824 217.044 46.9535C215.839 45.5261 214.648 44.2915 213.586 43.2067C213.009 42.6215 212.467 42.1005 211.961 41.6224H212.011C212.054 41.6224 210.899 38.8605 210.806 38.6892C209.73 36.7694 206.53 33.6935 204.113 34.1859C203.715 34.2783 203.341 34.4536 203.016 34.7002C202.69 34.9469 202.42 35.2595 202.223 35.6177C202.026 35.9759 201.906 36.3716 201.872 36.7791C201.838 37.1865 201.89 37.5966 202.025 37.9827C202.538 39.6455 204.348 40.7874 205.888 41.344C207.428 41.9007 210.949 41.7009 211.812 41.6366C212.332 42.1505 212.881 42.7 213.472 43.3209C214.513 44.4271 215.668 45.6831 216.837 47.1319C217.15 47.5173 217.471 47.9455 217.785 48.3594C217.108 47.7813 216.167 47.0034 216.067 46.9321C214.228 45.726 209.972 44.4771 208.055 46.0257C207.744 46.2913 207.492 46.6195 207.316 46.9889C207.14 47.3583 207.043 47.7606 207.032 48.1698C207.022 48.579 207.097 48.9859 207.254 49.3641C207.41 49.7422 207.644 50.0832 207.941 50.3648C209.167 51.5995 211.298 51.7922 212.931 51.5566C214.563 51.3211 217.685 49.4799 218.348 49.0659C219.061 49.9866 219.724 50.9429 220.387 51.9848C221.602 53.8534 222.649 55.8261 223.516 57.8798C223.566 57.9939 223.601 58.1224 223.644 58.2437C223.359 57.9012 221.655 56.1027 221.506 56.0171C219.809 54.5897 215.711 52.9055 213.665 54.2329C213.331 54.4639 213.048 54.7621 212.835 55.1085C212.623 55.4549 212.484 55.8419 212.429 56.2448C212.374 56.6477 212.404 57.0577 212.516 57.4486C212.628 57.8394 212.82 58.2026 213.08 58.5149C214.164 59.878 216.259 60.2848 217.899 60.2491C219.795 60.2063 223.544 58.3793 223.687 58.308C224.49 60.3807 225.161 62.5021 225.697 64.6596C226.096 66.2511 226.41 67.8854 226.766 69.5268C226.388 69.0915 224.806 67.4429 224.678 67.3359C222.981 65.9085 218.883 64.2243 216.837 65.5517C216.502 65.782 216.218 66.0799 216.005 66.4263C215.792 66.7727 215.653 67.1599 215.598 67.5632C215.543 67.9664 215.573 68.3767 215.685 68.7677C215.798 69.1587 215.991 69.5218 216.252 69.8337C217.336 71.1968 219.431 71.6107 221.071 71.5751C222.917 71.5322 226.524 69.798 226.823 69.6482C226.973 70.3975 227.123 71.1397 227.265 71.8891C227.736 74.3298 228.192 76.7777 228.691 79.1828C228.876 80.0178 229.083 80.8313 229.29 81.6521C228.698 81.0098 227.593 79.8679 227.486 79.7822C225.797 78.3549 221.698 76.6635 219.645 77.9909C219.311 78.2219 219.028 78.5202 218.816 78.8666C218.603 79.213 218.465 79.6 218.41 80.0029C218.355 80.4058 218.384 80.8157 218.496 81.2066C218.608 81.5975 218.801 81.9606 219.061 82.273C220.137 83.6361 222.24 84.0429 223.879 84.0072C225.519 83.9715 228.591 82.5798 229.446 82.173C229.803 83.529 230.159 84.8636 230.623 86.1625C230.822 86.7191 230.993 87.3043 231.214 87.8253C231.328 88.1036 231.435 88.382 231.549 88.6532L231.072 88.6032C231.072 88.6032 231.029 89.374 231.072 90.63C229.282 89.3097 226.688 88.1607 224.984 88.9172C224.615 89.0931 224.287 89.3447 224.021 89.6557C223.756 89.9667 223.558 90.3302 223.442 90.7226C223.326 91.1149 223.293 91.5274 223.346 91.9331C223.4 92.3389 223.538 92.7289 223.751 93.0779C223.858 93.2667 223.985 93.4438 224.129 93.606C224.417 95.5205 225.196 97.3277 226.388 98.8515C226.481 98.9657 227.693 100.115 228.327 100.693C227.714 100.343 227.101 99.9791 226.467 99.6365C225.547 99.1084 224.599 98.5232 223.673 97.9665L222.211 97.0602C221.727 96.7533 221.292 96.4036 220.829 96.0682C220.151 95.5686 219.481 95.0191 218.811 94.4696C219.396 93.5632 221.085 90.9012 221.349 89.3169C221.613 87.7325 221.513 85.5558 220.315 84.3212C220.042 84.0171 219.708 83.7739 219.334 83.6074C218.961 83.441 218.557 83.355 218.148 83.355C217.74 83.355 217.336 83.441 216.962 83.6074C216.589 83.7739 216.255 84.0171 215.981 84.3212C214.371 86.1839 215.482 90.4873 216.63 92.3714C216.666 92.4285 216.944 92.7996 217.286 93.242C216.651 92.6854 216.01 92.1287 215.383 91.5435C213.594 89.8807 211.819 88.1393 210.051 86.3908L208.939 85.3132C209.438 84.5567 211.291 81.6735 211.562 80.032C211.833 78.3906 211.726 76.271 210.528 75.0364C210.256 74.7312 209.922 74.4872 209.548 74.3201C209.175 74.153 208.771 74.0666 208.362 74.0666C207.953 74.0666 207.548 74.153 207.175 74.3201C206.801 74.4872 206.467 74.7312 206.195 75.0364C204.591 76.9062 205.696 81.2096 206.843 83.0865C206.886 83.1508 207.221 83.5933 207.606 84.0857C206.629 83.1579 205.639 82.2373 204.634 81.3595C202.912 79.8359 201.09 78.4292 199.181 77.1488C199.366 76.8848 201.604 73.5805 201.911 71.7249C202.174 70.1049 202.067 67.9639 200.877 66.7292C200.606 66.4229 200.274 66.1769 199.902 66.0074C199.53 65.8379 199.127 65.7485 198.718 65.7452C198.309 65.7418 197.905 65.8245 197.53 65.9879C197.155 66.1513 196.819 66.3917 196.543 66.6936C194.932 68.5634 196.044 72.8668 197.185 74.7437C197.27 74.8793 198.51 76.4708 198.967 77.0275L198.903 76.9775C196.997 75.7708 194.988 74.7343 192.901 73.8802C191.04 73.1102 189.136 72.4501 187.198 71.9033C185.402 71.3752 183.734 71.0041 182.251 70.683C181.446 70.5188 180.704 70.3832 180.013 70.2619H180.056C180.091 70.2619 177.604 68.5705 177.44 68.4849C175.487 67.4786 171.117 66.6864 169.371 68.4206C169.09 68.7186 168.875 69.0723 168.739 69.4588C168.603 69.8453 168.55 70.256 168.583 70.6644C168.616 71.0728 168.734 71.4697 168.93 71.8294C169.126 72.1891 169.395 72.5036 169.72 72.7526C171.067 73.8517 173.206 73.8017 174.802 73.4163C176.399 73.0309 179.215 70.9185 179.899 70.3904C180.612 70.526 181.375 70.683 182.216 70.8757C183.684 71.2254 185.345 71.6322 187.12 72.196C187.59 72.3458 188.096 72.5242 188.588 72.6884C187.704 72.5813 186.485 72.4529 186.364 72.4529C184.169 72.4529 179.949 73.7732 179.179 76.1211C179.067 76.515 179.039 76.928 179.096 77.3334C179.154 77.7388 179.296 78.1277 179.513 78.4748C179.73 78.8219 180.017 79.1195 180.356 79.3484C180.695 79.5773 181.079 79.7324 181.481 79.8037C183.178 80.1605 185.045 79.09 186.293 78.048C187.54 77.0061 189.144 73.6875 189.436 72.981C190.52 73.3664 191.618 73.7803 192.744 74.287C194.787 75.1731 196.748 76.2382 198.603 77.47C198.71 77.5485 198.81 77.6341 198.917 77.7055C198.489 77.577 196.066 77.0418 195.916 76.9918C193.735 76.7634 189.372 77.5984 188.374 79.8465C188.219 80.2252 188.145 80.6324 188.157 81.0416C188.169 81.4509 188.267 81.8529 188.445 82.2218C188.622 82.5906 188.875 82.9179 189.187 83.1825C189.499 83.447 189.864 83.6429 190.256 83.7574C191.91 84.2998 193.884 83.4791 195.246 82.5442C196.8 81.4665 198.924 77.8696 199.002 77.734C200.817 79.0135 202.545 80.4106 204.177 81.9161C205.396 83.0223 206.579 84.1999 207.741 85.3846C207.178 85.2275 204.954 84.7351 204.79 84.7137C202.602 84.4782 198.247 85.3132 197.242 87.5684C197.086 87.9471 197.012 88.3543 197.025 88.7635C197.037 89.1727 197.135 89.5748 197.312 89.9437C197.49 90.3125 197.743 90.6398 198.055 90.9044C198.367 91.1689 198.731 91.3648 199.123 91.4793C200.777 92.0217 202.752 91.201 204.113 90.266C205.624 89.2098 207.677 85.7771 207.848 85.4845C208.383 86.0269 208.917 86.5621 209.445 87.1045C211.184 88.8815 212.916 90.6728 214.684 92.3928C215.29 92.9851 215.917 93.5489 216.537 94.1127C215.689 93.9058 214.142 93.5632 214.007 93.5489C211.819 93.3134 207.463 94.1484 206.465 96.4036C206.31 96.7819 206.236 97.1886 206.247 97.5974C206.259 98.0063 206.357 98.4081 206.533 98.7768C206.71 99.1456 206.962 99.473 207.274 99.7379C207.585 100.003 207.948 100.199 208.34 100.315C209.994 100.857 211.975 100.036 213.33 99.1013C214.684 98.1664 216.466 95.3046 216.958 94.4981C217.999 95.433 219.054 96.3394 220.137 97.1744C220.608 97.5312 221.071 97.888 221.563 98.2306L222.988 99.2012C223.965 99.8221 224.877 100.407 225.84 100.971C226.303 101.257 226.752 101.513 227.208 101.785C226.374 101.449 225.07 100.935 224.934 100.907C222.796 100.343 218.369 100.507 217.044 102.577C216.832 102.928 216.697 103.319 216.647 103.726C216.597 104.133 216.633 104.545 216.753 104.937C216.872 105.329 217.073 105.691 217.342 106C217.611 106.309 217.941 106.558 218.312 106.73C219.859 107.515 221.941 107.009 223.416 106.288C225.041 105.489 227.515 102.513 227.814 102.149C228.933 102.805 230.031 103.44 231.065 104.011C233.837 105.546 236.254 106.773 238.128 107.687C244.187 113.089 252.819 113.796 252.819 113.796C252.819 113.796 253.418 103.44 247.423 96.5392C245.314 94.1563 242.698 92.2762 239.768 91.0368ZM228.669 100.978C228.869 100.557 230.38 97.2886 230.509 95.433C230.851 95.3759 231.221 95.3046 231.528 95.2332C232.105 98.5159 233.36 101.642 235.213 104.411C234.101 103.859 232.913 103.25 231.649 102.584C230.68 102.092 229.689 101.549 228.669 100.978Z" fill="#443D78"/>
<path d="M285.053 89.6951C285.053 89.6951 274.703 89.8664 268.273 96.3679C261.843 102.869 261.779 113.232 261.779 113.232C261.779 113.232 272.129 113.061 278.559 106.559C284.988 100.058 285.053 89.6951 285.053 89.6951Z" fill="#443D78"/>
<path d="M257.93 95.9897L268.223 86.9832L267.796 86.4907L257.937 95.1119L258.051 83.1222L258.108 83.1579L266.883 70.6901L266.349 70.319L258.066 82.0874L258.344 53.2266L257.695 53.2195L257.503 72.8097L251.109 67.1075L250.674 67.5928L257.495 73.6732L257.353 87.6754L247.666 78.8473L247.231 79.3326L257.346 88.5532L257.225 101.306L249.933 95.4116L249.519 95.9183L257.217 102.134L257.132 110.349H257.788L257.93 95.9825V95.9897Z" fill="white"/>
<path d="M248.514 99.3867L247.865 99.3011L246.946 106.538L242.647 101.592H242.655L241.671 92.8067L241.029 92.878L241.906 100.736L231.228 88.439L230.736 88.8672L237.978 97.21L233.317 97.2029V97.8523L238.549 97.8666L243.631 103.712L236.339 103.619L236.332 104.275L244.201 104.375L248.82 109.692L243.674 109.935L243.702 110.584L249.369 110.32L252.441 113.867L252.933 113.439L247.516 107.201L248.514 99.3867Z" fill="white"/>
<path d="M273.042 102.32L281.716 100.678L281.595 100.036L273.833 101.499L285.288 89.9235L284.824 89.4667L277.055 97.3242L276.713 92.664L276.064 92.7139L276.442 97.938L270.996 103.448L270.547 96.161L269.898 96.2038L270.383 104.068L265.429 109.078L264.809 103.954L264.16 104.033L264.844 109.664L261.544 113.004L262.007 113.46L267.817 107.587L275.672 108.001L275.707 107.344L268.43 106.966L273.034 102.306L273.042 102.32Z" fill="white"/>
<path d="M72.9558 50.5575C72.9558 50.5575 70.3041 49.1301 69.4987 48.081C68.7859 47.1675 68.1871 45.8187 68.515 44.6554C68.5822 44.3793 68.7067 44.1203 68.8804 43.8955C69.0541 43.6706 69.2731 43.4848 69.5232 43.3502C69.7732 43.2156 70.0488 43.1352 70.3319 43.1141C70.6151 43.0931 70.8995 43.1319 71.1666 43.2281C72.7562 43.8561 73.4619 46.8607 73.3621 48.3879C73.355 48.5307 72.9843 50.5717 72.9558 50.5575Z" fill="#443D78"/>
<path d="M97.163 61.9119C97.0846 62.019 95.6518 63.5177 95.6376 63.4963C95.6233 63.4749 94.212 60.8557 94.1193 59.514C94.0409 58.3793 94.269 56.9091 95.1814 56.1169C95.3898 55.924 95.6366 55.7773 95.9055 55.6864C96.1744 55.5955 96.4595 55.5624 96.7421 55.5894C97.0246 55.6163 97.2983 55.7026 97.5453 55.8427C97.7923 55.9828 98.0069 56.1736 98.1752 56.4024C99.1518 57.8083 98.0897 60.6987 97.163 61.9119Z" fill="#443D78"/>
<path d="M46.3255 58.2794C46.3255 58.2794 56.4047 65.5017 58.3221 76.2852C60.2396 87.0688 53.2754 97.3242 53.2754 97.3242C53.2754 97.3242 43.1963 90.1019 41.2788 79.3183C39.3614 68.5348 46.3255 58.2794 46.3255 58.2794Z" fill="#443D78"/>
<path d="M63.1544 82.0731C63.0178 81.974 62.8913 81.8616 62.7766 81.7377C61.9854 80.9169 61.2085 79.6466 61.4009 78.4548C61.4362 78.1728 61.5305 77.9014 61.6777 77.6584C61.8249 77.4154 62.0216 77.2062 62.2551 77.0446C62.4885 76.8829 62.7534 76.7724 63.0325 76.7202C63.3115 76.6681 63.5984 76.6755 63.8744 76.742C65.1289 77.0774 66.0128 78.8187 66.4262 80.3103C66.8682 80.1248 67.2673 79.9678 67.6095 79.8393L67.8875 78.7188C67.9873 78.3335 68.0372 77.9481 68.1156 77.5627C68.2225 76.9846 68.3009 76.3851 68.3865 75.7928C67.6736 75.6144 65.5352 75.0791 64.6656 74.3655C63.796 73.6518 62.8052 72.5313 62.8123 71.3252C62.8043 71.0414 62.8562 70.7591 62.9646 70.4968C63.0729 70.2344 63.2353 69.9979 63.4411 69.8026C63.6469 69.6073 63.8916 69.4576 64.1591 69.3634C64.4265 69.2691 64.7109 69.2324 64.9935 69.2556C66.6971 69.4411 68.1655 72.1531 68.472 73.6446C68.472 73.6946 68.5148 74.0158 68.5504 74.4011C68.6146 73.8159 68.6716 73.2307 68.7144 72.6384C68.8355 70.947 68.9068 69.227 68.9852 67.5C68.9852 67.136 69.0209 66.7863 69.0422 66.4223C68.4292 66.2725 66.1269 65.7087 65.2073 64.995C64.2878 64.2813 63.3469 63.168 63.3612 61.9547C63.3532 61.671 63.4051 61.3887 63.5134 61.1263C63.6218 60.8639 63.7842 60.6274 63.99 60.4321C64.1958 60.2368 64.4404 60.0872 64.7079 59.9929C64.9754 59.8987 65.2597 59.8619 65.5424 59.8851C67.2388 60.0707 68.7143 62.7826 69.0209 64.2813C69.0209 64.3313 69.0708 64.7166 69.1064 65.152C69.1634 64.2099 69.2276 63.275 69.3274 62.3544C69.4803 60.7663 69.7399 59.1903 70.1043 57.6371C69.8905 57.5871 67.1747 56.9591 66.1554 56.2097C65.2501 55.496 64.2949 54.3756 64.3021 53.1695C64.294 52.885 64.3461 52.6021 64.4548 52.3392C64.5636 52.0763 64.7267 51.8394 64.9333 51.644C65.1399 51.4486 65.3854 51.2991 65.6538 51.2053C65.9221 51.1115 66.2072 51.0756 66.4904 51.0999C68.1869 51.2854 69.6553 53.9545 69.9618 55.4889C69.9618 55.596 70.1115 56.9948 70.14 57.4943C70.14 57.4943 70.14 57.4943 70.14 57.4372C70.5333 55.9199 71.063 54.4414 71.7224 53.0196C72.3028 51.7453 72.9574 50.5061 73.6826 49.3085C74.3384 48.1952 75.0156 47.2104 75.6143 46.3468C75.9422 45.8829 76.2559 45.4619 76.5481 45.0765C76.5481 45.0765 76.9901 43.0568 77.04 42.9355C77.5532 41.5081 79.3922 39.0246 81.103 39.0817C81.3861 39.0996 81.6624 39.177 81.9137 39.3088C82.1651 39.4406 82.386 39.6237 82.5621 39.8465C82.7382 40.0692 82.8655 40.3265 82.9359 40.6017C83.0063 40.8769 83.0181 41.1639 82.9706 41.4439C82.8066 42.6357 81.7017 43.6277 80.7038 44.1844C79.7059 44.7411 77.2823 45.0122 76.6836 45.0693C76.3913 45.4761 76.0777 45.9186 75.7427 46.411C75.1582 47.2889 74.5095 48.2808 73.8751 49.4084C73.704 49.7082 73.5401 50.0365 73.369 50.3505C73.7682 49.8795 74.317 49.2372 74.3812 49.1801C75.5003 48.1453 78.2731 46.7964 79.7629 47.6386C80.0063 47.7844 80.2162 47.98 80.3789 48.2126C80.5417 48.4451 80.6536 48.7095 80.7074 48.9883C80.7612 49.2671 80.7557 49.5541 80.6912 49.8307C80.6267 50.1072 80.5047 50.367 80.3332 50.5931C79.6203 51.578 78.1947 51.9491 77.0614 51.9848C75.928 52.0205 73.5686 51.107 73.0696 50.9C72.699 51.6137 72.3568 52.3274 72.0075 53.1338C71.3906 54.5534 70.8993 56.0244 70.5391 57.53L70.4964 57.7941C70.6532 57.5229 71.6155 56.1169 71.6939 56.0242C72.6918 54.8752 75.3007 53.2266 76.8689 53.8832C77.124 54.0018 77.3515 54.1724 77.5371 54.384C77.7226 54.5956 77.8621 54.8437 77.9466 55.1122C78.0311 55.3808 78.0588 55.6641 78.0279 55.944C77.9969 56.2239 77.9081 56.4942 77.767 56.7378C77.1825 57.8012 75.7925 58.3222 74.6663 58.4863C73.3619 58.6719 70.589 57.8512 70.4821 57.8226C70.1683 59.332 69.9517 60.86 69.8335 62.3972C69.7408 63.5391 69.6909 64.6952 69.6553 65.8514C69.8691 65.5088 70.7672 64.2028 70.8385 64.1172C71.8365 62.961 74.4453 61.3196 76.0207 61.9762C76.2759 62.0947 76.5035 62.2653 76.6889 62.4771C76.8744 62.6889 77.0135 62.9372 77.0974 63.206C77.1813 63.4748 77.2081 63.7583 77.1762 64.0381C77.1442 64.3179 77.0541 64.5879 76.9117 64.8308C76.3272 65.8871 74.9372 66.408 73.8109 66.5722C72.5421 66.7577 69.8762 65.9798 69.6553 65.9156C69.6553 66.4437 69.6553 66.9718 69.6054 67.5C69.6054 69.227 69.5341 70.9541 69.4485 72.6598C69.4485 73.2521 69.3701 73.8302 69.3202 74.4154C69.6553 73.9087 70.2754 72.9881 70.3396 72.931C71.3375 71.7748 73.9464 70.1334 75.5217 70.79C75.7769 70.9085 76.0045 71.0791 76.19 71.2909C76.3754 71.5027 76.5145 71.751 76.5985 72.0198C76.6824 72.2886 76.7092 72.5721 76.6772 72.8519C76.6452 73.1317 76.5551 73.4018 76.4127 73.6446C75.8282 74.7009 74.4382 75.2219 73.312 75.386C72.1857 75.5501 69.9261 74.9507 69.2917 74.7722C69.2062 75.7357 69.0993 76.6992 68.9496 77.6269C68.8712 78.0266 68.8213 78.4405 68.7286 78.8259C68.6858 79.0328 68.6431 79.2327 68.5932 79.4325L68.9139 79.3469C68.9139 79.3469 69.0351 79.8678 69.142 80.7314C70.2112 79.6252 71.8578 78.5404 73.1124 78.8616C73.3856 78.9398 73.6393 79.0748 73.857 79.2576C74.0747 79.4405 74.2515 79.6673 74.3759 79.9231C74.5003 80.1789 74.5695 80.4581 74.579 80.7424C74.5885 81.0268 74.5381 81.3099 74.4311 81.5735C74.3771 81.7114 74.3128 81.845 74.2386 81.9732C74.2541 83.3175 73.9278 84.6436 73.2906 85.827C73.2407 85.9126 72.5421 86.8404 72.1715 87.3043C72.5564 86.9974 72.9342 86.6977 73.3262 86.3694C73.8894 85.9055 74.4739 85.3916 75.0441 84.942L75.9066 84.1356C76.206 83.8715 76.4626 83.5789 76.7406 83.2935C77.1469 82.8724 77.5461 82.4228 77.9381 81.966C77.432 81.4165 75.9708 79.7822 75.6143 78.7331C75.2579 77.684 75.0726 76.1782 75.7427 75.1648C75.8932 74.9237 76.0926 74.7171 76.3281 74.5582C76.5635 74.3994 76.8297 74.2919 77.1094 74.2428C77.389 74.1936 77.6758 74.204 77.9513 74.273C78.2267 74.3421 78.4845 74.4684 78.7079 74.6438C80.0195 75.7357 79.7558 78.8116 79.1855 80.2247C79.1855 80.2746 79.0145 80.5601 78.8363 80.8955C79.2069 80.4459 79.5491 79.9892 79.9482 79.5181C80.9747 78.1764 81.9869 76.7777 83.0062 75.3789C83.2129 75.0863 83.4339 74.8008 83.6406 74.5082C83.2129 74.0514 81.6162 72.2887 81.2384 71.1968C80.8606 70.1048 80.6967 68.6418 81.3667 67.6284C81.5165 67.3865 81.7156 67.179 81.951 67.0195C82.1864 66.86 82.4528 66.7521 82.7328 66.7029C83.0128 66.6537 83.3 66.6643 83.5756 66.7341C83.8512 66.8038 84.109 66.931 84.332 67.1074C85.6507 68.1994 85.3798 71.2681 84.8167 72.6883C84.8167 72.7383 84.61 73.0809 84.4033 73.4662C84.9664 72.7097 85.5367 71.9675 86.1283 71.2539C87.1301 70.0125 88.2161 68.8416 89.3787 67.7497C89.2219 67.5856 87.3116 65.5588 86.891 64.3455C86.5203 63.2679 86.3493 61.7906 87.0193 60.7772C87.1706 60.537 87.3704 60.3312 87.6058 60.173C87.8413 60.0148 88.1073 59.9077 88.3866 59.8587C88.6659 59.8096 88.9524 59.8196 89.2276 59.8881C89.5029 59.9566 89.7607 60.082 89.9846 60.2562C91.2962 61.3553 91.0324 64.424 90.4622 65.8442C90.4622 65.9442 89.7494 67.1788 89.507 67.607H89.5498C90.7132 66.5596 91.968 65.6185 93.2992 64.7951C94.4853 64.0536 95.7134 63.3816 96.9773 62.7826C98.1463 62.2188 99.244 61.7692 100.228 61.3553C100.755 61.1483 101.247 60.9699 101.703 60.8057C101.703 60.8057 103.186 59.3784 103.293 59.2856C104.512 58.3721 107.413 57.323 108.803 58.315C109.03 58.4859 109.219 58.7027 109.357 58.9513C109.495 59.2 109.579 59.475 109.604 59.7584C109.629 60.0418 109.594 60.3273 109.501 60.5963C109.409 60.8653 109.261 61.1117 109.067 61.3196C108.268 62.2259 106.8 62.44 105.659 62.3544C104.519 62.2688 102.352 61.1554 101.824 60.87C101.354 61.0484 100.848 61.2411 100.292 61.4695C99.3295 61.8763 98.2389 62.3473 97.0913 62.9396L96.1433 63.4463C96.7349 63.2679 97.5689 63.0395 97.633 63.0324C99.1371 62.7826 102.195 63.1894 102.972 64.7095C103.095 64.9655 103.163 65.2446 103.172 65.5287C103.18 65.8128 103.128 66.0954 103.02 66.3581C102.912 66.6208 102.749 66.8577 102.543 67.0532C102.337 67.2488 102.092 67.3986 101.824 67.4928C100.698 67.9353 99.2939 67.4429 98.3245 66.8505C97.355 66.2582 95.8938 64.1885 95.5873 63.7389C94.8745 64.1314 94.1617 64.5382 93.4489 65.0164C92.151 65.8557 90.9318 66.8112 89.8064 67.8711L89.6139 68.0638C89.8919 67.9282 91.4744 67.2859 91.5884 67.2502C93.0568 66.8434 96.1362 66.9147 97.0842 68.3421C97.2343 68.5832 97.332 68.8533 97.3707 69.1348C97.4095 69.4163 97.3885 69.7028 97.3091 69.9756C97.2297 70.2483 97.0937 70.5013 96.91 70.7179C96.7263 70.9345 96.4991 71.1098 96.2431 71.2324C95.1739 71.7962 93.7268 71.4608 92.679 70.9755C91.4958 70.4117 89.6282 68.1922 89.5569 68.1208C88.4647 69.2054 87.4433 70.3592 86.499 71.575C85.7861 72.4742 85.1161 73.4163 84.4461 74.3655C84.8096 74.1942 86.278 73.5947 86.392 73.5661C87.8604 73.1522 90.9398 73.2236 91.8807 74.6509C92.0247 74.8907 92.1174 75.1579 92.1529 75.4355C92.1884 75.713 92.1659 75.995 92.0868 76.2634C92.0077 76.5318 91.8738 76.7808 91.6935 76.9946C91.5132 77.2085 91.2905 77.3825 91.0396 77.5056C89.9703 78.0694 88.5233 77.734 87.4755 77.2487C86.3136 76.7063 84.5173 74.5867 84.3677 74.394C84.0611 74.8222 83.7546 75.2504 83.4553 75.6857C82.4716 77.1131 81.4879 78.5404 80.4828 79.9035C80.1264 80.3817 79.77 80.8384 79.4065 81.3309C79.9625 81.0882 80.9818 80.6743 81.0745 80.6529C82.5429 80.2389 85.6222 80.3103 86.5631 81.7377C86.7135 81.9783 86.8115 82.248 86.8507 82.5292C86.89 82.8103 86.8696 83.0966 86.7909 83.3693C86.7122 83.6421 86.577 83.8951 86.394 84.112C86.2111 84.3289 85.9845 84.5047 85.7291 84.628C84.6599 85.1918 83.2129 84.8564 82.1651 84.3711C81.1172 83.8858 79.5847 82.1373 79.1499 81.6377C78.544 82.3942 77.931 83.1364 77.2823 83.8358C76.9972 84.1356 76.7263 84.4567 76.4412 84.7208L75.6215 85.6414C75.0227 86.1838 74.4667 86.6905 73.8965 87.1758L73.0554 87.8895C73.5828 87.5612 74.4311 87.0616 74.481 87.0259C75.9066 86.3908 78.9289 85.9983 80.0765 87.2615C80.2614 87.4775 80.3988 87.73 80.4798 88.0027C80.5608 88.2754 80.5835 88.5621 80.5465 88.8441C80.5096 89.1262 80.4137 89.3973 80.2652 89.6398C80.1167 89.8823 79.9188 90.0908 79.6845 90.2517C78.7079 90.9654 77.2324 90.8584 76.1204 90.5301C74.9158 90.1732 72.8843 88.389 72.6348 88.2035C71.922 88.7887 71.2662 89.3454 70.6247 89.8592C68.9068 91.2223 67.3885 92.3428 66.2124 93.1849C62.6483 97.574 56.8532 99.0513 56.8532 99.0513C56.8532 99.0513 55.2565 92.0359 58.5711 86.6192C59.7435 84.7825 61.3091 83.2297 63.1544 82.0731ZM71.8935 87.604C71.1009 86.5061 70.4607 85.3058 69.9903 84.0357C69.7551 84.0357 69.5127 84.0357 69.2775 84.0357C69.2622 86.3478 68.7619 88.6309 67.8091 90.737C68.5219 90.2375 69.2347 89.6808 70.0544 89.0813C70.6389 88.596 71.2591 88.1107 71.8935 87.604Z" fill="#443D78"/>
<path d="M31.998 86.3551C31.998 86.3551 39.1261 85.2846 44.2512 88.9957C49.3763 92.7068 50.6665 99.7935 50.6665 99.7935C50.6665 99.7935 43.5384 100.871 38.4133 97.1601C33.2882 93.449 31.998 86.3551 31.998 86.3551Z" fill="#443D78"/>
<path d="M51.2864 87.547L43.2102 82.5656L43.4455 82.1802L51.1795 86.9475L49.7253 78.7546L49.6968 78.7831L42.2622 71.261L42.583 70.9399L49.6041 78.048L46.0971 58.3222L46.5462 58.2437L48.9198 71.6321L52.6407 66.9933L52.9971 67.2788L49.0268 72.2245L50.7233 81.7948L56.3473 74.6367L56.7037 74.915L50.8302 82.3871L52.377 91.1082L56.6966 86.2338L57.0316 86.5336L52.4839 91.672L53.4747 97.2814L53.0328 97.367L51.2864 87.547Z" fill="white"/>
<path d="M58.1226 88.7887L58.5574 88.6603L60.0187 93.5061L62.3923 89.6309H62.3852L62.0502 83.5005L62.4992 83.479L62.7986 88.96L68.7007 79.3112L69.0856 79.5467L65.0868 86.0911L68.273 85.5487L68.3514 85.9983L64.7731 86.6049L61.9646 91.1938L66.9401 90.2946L67.0185 90.7371L61.6439 91.7148L59.092 95.8826L62.6418 95.4544L62.6988 95.904L58.7926 96.375L57.089 99.1584L56.7041 98.9157L59.6979 94.0271L58.1226 88.7887Z" fill="white"/>
<path d="M41.6706 93.6203L35.5404 93.4918L35.5475 93.0422L41.029 93.1492L31.8623 86.5407L32.126 86.1696L38.3489 90.6585L38.0495 87.4327L38.4986 87.3899L38.8336 91.0082L43.196 94.1555L42.6685 89.117L43.1176 89.067L43.6878 94.5123L47.651 97.367L47.4942 93.7915L47.9433 93.7701L48.1215 97.7096L50.7589 99.6079L50.4952 99.979L45.8476 96.6248L40.5158 97.8095L40.416 97.367L45.3558 96.268L41.6706 93.6131V93.6203Z" fill="white"/>
<path d="M162.899 90.366C162.899 90.366 160.496 92.0145 160.19 92.2358C159.883 92.457 159.285 97.9451 159.285 98.2092C159.285 98.4733 163.562 98.1307 164.346 97.3028C165.13 96.475 165.172 93.8986 165.172 93.8986C165.073 93.1798 164.817 92.4913 164.425 91.8813C164.032 91.2712 163.511 90.7541 162.899 90.366Z" fill="white" stroke="#443D78" stroke-linecap="round" stroke-linejoin="round"/>
<path d="M169.464 64.3384L169.064 82.3586L162.87 90.3659C162.87 90.3659 165.265 92.1644 165.066 94.1626L171.866 89.9591C171.866 89.9591 171.866 71.9461 171.467 67.343C171.067 62.7398 169.891 62.7398 169.464 64.3384Z" fill="white" stroke="#443D78" stroke-linecap="round" stroke-linejoin="round"/>
<path d="M158.899 98.3662C158.899 98.3662 160.097 94.5694 160.325 93.9628C160.553 93.3562 166.74 93.3633 166.74 93.3633C166.868 93.8893 166.937 94.4279 166.947 94.9691C166.947 95.7684 165.521 96.5677 165.521 96.5677C165.546 97.0664 165.45 97.5637 165.242 98.0173C165.033 98.4708 164.718 98.8672 164.324 99.1726C163.203 100.035 161.986 100.764 160.696 101.342L158.293 100.543L158.899 98.3662Z" fill="white" stroke="#443D78" stroke-linecap="round" stroke-linejoin="round"/>
<path d="M162.378 90.9512C162.378 90.9512 161.024 90.9512 160.795 91.3294C160.567 91.7077 160.945 95.1119 161.401 95.1119C161.858 95.1119 162.756 95.4116 162.905 94.5052C163.055 93.5989 163.362 90.8013 162.378 90.9512Z" fill="white" stroke="#443D78" stroke-linecap="round" stroke-linejoin="round"/>
<path d="M128.163 188.274C128.163 188.274 126.46 192.214 126.93 193.62C127.401 195.025 128.121 195.925 131.328 194.854C134.536 193.784 142.02 188.046 142.02 186.633C142.02 185.22 133.103 187.104 133.103 187.104C133.103 187.104 132.619 188.51 128.163 188.274Z" fill="white" stroke="#443D78" stroke-linecap="round" stroke-linejoin="round"/>
<path d="M108.369 175.064C108.369 175.064 107.913 178.525 108.219 179.061C108.499 179.451 108.868 179.767 109.297 179.982C109.725 180.197 110.199 180.304 110.678 180.295C111.755 180.217 112.446 180.217 112.674 179.368C112.902 178.518 113.059 177.676 113.287 176.984C113.493 176.447 113.572 175.869 113.519 175.296C113.466 174.723 113.282 174.17 112.981 173.68C112.133 172.217 109.132 172.659 108.176 175.364" fill="white"/>
<path d="M108.369 175.064C108.369 175.064 107.913 178.525 108.219 179.061C108.499 179.451 108.868 179.767 109.297 179.982C109.725 180.197 110.199 180.304 110.678 180.295C111.755 180.217 112.446 180.217 112.674 179.368C112.902 178.518 113.059 177.676 113.287 176.984C113.493 176.447 113.572 175.869 113.519 175.296C113.466 174.723 113.282 174.17 112.981 173.68C112.133 172.217 109.132 172.659 108.176 175.364" stroke="#443D78" stroke-linecap="round" stroke-linejoin="round"/>
<path d="M115.49 129.789C115.49 129.789 115.725 140.123 115.725 141.3C115.725 142.478 111.505 150.7 111.505 152.812C111.505 154.924 108.176 175.364 108.176 175.364C108.439 175.759 108.785 176.092 109.191 176.338C109.596 176.585 110.05 176.739 110.521 176.791C111.357 176.793 112.174 176.545 112.867 176.078C112.867 176.078 119.282 155.174 121.121 153.062C122.96 150.949 126.282 142.492 126.282 142.492C126.282 142.492 128.42 155.174 128.163 156.816C127.907 158.457 125.818 165.508 126.025 169.034C126.232 172.559 127.9 189.23 127.9 189.23C128.279 189.719 128.79 190.089 129.372 190.297C129.954 190.506 130.583 190.544 131.186 190.408C132.565 189.993 133.737 189.07 134.465 187.825C134.465 187.825 137.28 165.273 137.516 162.925C137.751 160.577 140.331 146.246 140.566 141.315C140.802 136.383 140.802 129.568 140.802 129.568C136.122 130.496 131.286 130.251 126.724 128.854C122.979 127.685 119.371 126.118 115.96 124.18L115.49 129.789Z" fill="#443D78" stroke="#443D78" stroke-linecap="round" stroke-linejoin="round"/>
<path d="M134.465 61.2839C134.813 62.4819 135.089 63.6997 135.292 64.9308C135.269 65.5398 135.214 66.1473 135.128 66.7506C135.128 66.7506 136.453 67.4143 136.453 68.2422C136.453 69.07 135.292 70.5616 135.292 70.5616L134.8 74.5367C134.629 75.857 133.638 77.3486 132.661 77.6769C131.74 77.8812 130.792 77.939 129.853 77.8482L129.354 83.3077L119.923 79.8322L120.586 74.8365C120.586 74.8365 118.448 69.0415 119.432 65.7301C120.415 62.4187 124.557 61.5908 127.037 60.7344C129.518 59.878 134.465 61.2839 134.465 61.2839Z" fill="white" stroke="#443D78" stroke-linecap="round" stroke-linejoin="round"/>
<path d="M120.08 76.3638C120.08 76.3638 115.09 70.5688 114.784 65.1021C114.477 59.6354 116.438 56.1598 119.773 55.0037C123.109 53.8475 124.899 54.1687 124.899 54.1687C124.899 54.1687 122.418 53.6762 125.07 52.5129C127.721 51.3497 130.694 53.3408 130.694 53.3408C130.694 53.3408 129.04 52.0205 131.022 52.1847C133.003 52.3488 133.83 53.3408 135.655 57.4872C137.48 61.6336 132.511 63.1109 131.685 63.4464C130.858 63.7818 133.174 64.7738 132.839 65.5874C132.504 66.4009 130.701 67.7284 130.701 67.7284L131.193 71.3752C131.193 71.3752 130.366 72.6955 129.874 71.8676C129.382 71.0398 129.211 69.3841 127.736 70.3761C126.26 71.3681 128.063 74.6581 128.562 74.6581C129.061 74.6581 127.401 76.4779 125.255 77.1417C124.142 77.5534 122.93 77.6107 121.784 77.3058C121.449 77.2778 121.125 77.1794 120.831 77.017C120.538 76.8547 120.282 76.6321 120.08 76.3638Z" fill="#443D78" stroke="#443D78" stroke-linecap="round" stroke-linejoin="round"/>
<path d="M117.928 79.8322C118.214 79.2711 118.677 78.8206 119.246 78.5508C119.814 78.281 120.456 78.2071 121.071 78.3406C123.21 78.8402 127.686 80.66 128.677 81.9874C129.668 83.3149 130.815 87.2829 130.815 87.2829L118.576 81.8162C118.576 81.8162 116.766 80.9883 117.928 79.8322Z" fill="white" stroke="#443D78" stroke-linecap="round" stroke-linejoin="round"/>
<path d="M108.611 124.451L108.96 126.199V129.889L108.432 131.316L107.563 131.666V130.788L108.083 134.121L107.035 134.992C107.035 134.992 104.761 131.316 104.234 130.267C103.706 129.218 104.234 124.422 104.234 124.422C104.234 124.422 105.111 125.329 108.611 124.451Z" fill="white" stroke="#443D78" stroke-linecap="round" stroke-linejoin="round"/>
<path d="M139.889 91.9788C139.889 91.9788 135.199 89.6237 130.273 86.5764C125.347 83.529 118.305 80.2318 116.43 79.0543C114.556 77.8767 112.994 76.2995 109.63 78.5904C103.129 83.0009 106.814 95.7185 106.814 97.3742C106.814 99.0299 103.293 109.828 103.528 111.94C103.764 114.053 104.241 124.387 104.241 124.387C104.241 124.387 105.175 126.271 108.696 125.329C108.696 125.329 111.041 114.524 111.277 111.469C111.628 108.693 112.176 105.946 112.916 103.248L115.268 116.636L112.916 127.677C112.916 127.677 114.563 133.079 119.959 134.956C125.355 136.833 130.972 138.453 137.544 136.134C140.124 135.213 144.351 131.673 144.351 131.673C144.351 131.673 142.213 107.715 142.213 106.538C142.213 105.36 141.771 97.1458 139.889 91.9788Z" fill="white"/>
<mask id="mask1_711_2494" style="mask-type:luminance" maskUnits="userSpaceOnUse" x="103" y="77" width="42" height="61">
<path d="M139.889 91.9788C139.889 91.9788 135.199 89.6237 130.273 86.5764C125.347 83.529 118.305 80.2318 116.43 79.0543C114.556 77.8767 112.994 76.2995 109.63 78.5904C103.129 83.0009 106.814 95.7185 106.814 97.3742C106.814 99.0299 103.293 109.828 103.528 111.94C103.764 114.053 104.241 124.387 104.241 124.387C104.241 124.387 105.175 126.271 108.696 125.329C108.696 125.329 111.041 114.524 111.277 111.469C111.628 108.693 112.176 105.946 112.916 103.248L115.268 116.636L112.916 127.677C112.916 127.677 114.563 133.079 119.959 134.956C125.355 136.833 130.972 138.453 137.544 136.134C140.124 135.213 144.351 131.673 144.351 131.673C144.351 131.673 142.213 107.715 142.213 106.538C142.213 105.36 141.771 97.1458 139.889 91.9788Z" fill="white"/>
</mask>
<g mask="url(#mask1_711_2494)">
<path d="M137.544 136.134C140.124 135.213 144.351 131.673 144.351 131.673C144.351 131.673 143.439 121.325 142.811 113.903C142.658 113.838 142.489 113.819 142.325 113.846C142.161 113.874 142.008 113.948 141.885 114.06C140.267 115.409 140.808 127.305 139.746 126.77C138.684 126.235 133.538 111.619 129.482 105.674C125.426 99.7293 130.836 109.185 129.753 112.433C128.669 115.68 117.635 93.7701 111.654 91.0653C105.674 88.3605 110.571 95.9326 110.571 95.9326L111.661 108.821C112.16 106.102 112.93 103.248 112.93 103.248L115.283 116.636L112.93 127.677C112.93 127.677 114.577 133.079 119.973 134.956C125.369 136.833 130.971 138.453 137.544 136.134Z" fill="#A9E8CB"/>
<path opacity="0.5" d="M137.544 136.134C140.124 135.213 144.351 131.673 144.351 131.673C144.351 131.673 143.439 121.325 142.811 113.903C142.658 113.838 142.489 113.819 142.325 113.846C142.161 113.874 142.008 113.948 141.885 114.06C140.267 115.409 140.808 127.305 139.746 126.77C138.684 126.235 133.538 111.619 129.482 105.674C125.426 99.7293 130.836 109.185 129.753 112.433C128.669 115.68 117.635 93.7701 111.654 91.0653C105.674 88.3605 110.571 95.9326 110.571 95.9326L111.661 108.821C112.16 106.102 112.93 103.248 112.93 103.248L115.283 116.636L112.93 127.677C112.93 127.677 114.577 133.079 119.973 134.956C125.369 136.833 130.971 138.453 137.544 136.134Z" fill="white"/>
</g>
<path d="M139.889 91.9788C139.889 91.9788 135.199 89.6237 130.273 86.5764C125.347 83.529 118.305 80.2318 116.43 79.0543C114.556 77.8767 112.994 76.2995 109.63 78.5904C103.129 83.0009 106.814 95.7185 106.814 97.3742C106.814 99.0299 103.293 109.828 103.528 111.94C103.764 114.053 104.241 124.387 104.241 124.387C104.241 124.387 105.175 126.271 108.696 125.329C108.696 125.329 111.041 114.524 111.277 111.469C111.628 108.693 112.176 105.946 112.916 103.248L115.268 116.636L112.916 127.677C112.916 127.677 114.563 133.079 119.959 134.956C125.355 136.833 130.972 138.453 137.544 136.134C140.124 135.213 144.351 131.673 144.351 131.673C144.351 131.673 142.213 107.715 142.213 106.538C142.213 105.36 141.771 97.1458 139.889 91.9788Z" stroke="#443D78" stroke-linecap="round" stroke-linejoin="round"/>
<path d="M112.909 103.248C112.909 103.248 110.77 97.4027 109.081 92.7282" stroke="#443D78" stroke-linecap="round" stroke-linejoin="round"/>
<path d="M134.963 92.4427C134.963 92.4427 138.484 91.5078 139.889 91.9788C141.293 92.4498 148.335 111.248 148.335 111.248L157.723 99.7435C157.723 99.7435 159.149 97.8594 161.943 101.885L149.982 124.429C149.982 124.429 148.556 126.57 146.225 124.665C143.895 122.759 132.147 104.197 132.147 104.197" fill="white"/>
<path d="M134.963 92.4427C134.963 92.4427 138.484 91.5078 139.889 91.9788C141.293 92.4498 148.335 111.248 148.335 111.248L157.723 99.7435C157.723 99.7435 159.149 97.8594 161.943 101.885L149.982 124.429C149.982 124.429 148.556 126.57 146.225 124.665C143.895 122.759 132.147 104.197 132.147 104.197" stroke="#443D78" stroke-linecap="round" stroke-linejoin="round"/>
<path d="M197.085 156.773C197.085 156.773 196.885 164.859 198.689 167.292C200.492 169.726 202.687 169.048 202.687 166.422C202.687 163.795 201.689 158.307 200.285 155.902C198.881 153.497 197.085 156.773 197.085 156.773Z" fill="white" stroke="#443D78" stroke-linecap="round" stroke-linejoin="round"/>
<path d="M173.89 142.407C173.89 142.407 167.696 146.41 167.296 148.409C166.897 150.407 174.489 148.209 176.691 145.404C178.894 142.599 176.691 141.607 173.89 142.407Z" fill="white" stroke="#443D78" stroke-linecap="round" stroke-linejoin="round"/>
<path d="M171.495 101.342C171.495 101.342 170.689 115.551 171.694 120.561C172.7 125.571 172.493 143.577 172.493 143.577C172.493 143.577 173.918 143.977 175.087 144.376C176.256 144.776 178.088 142.778 178.088 142.778L181.089 120.361L183.085 111.755L187.882 130.767L197.085 157.786C197.085 157.786 197.684 158.393 199.679 158.593C199.93 158.64 200.188 158.636 200.437 158.58C200.687 158.524 200.922 158.418 201.128 158.267C201.334 158.117 201.508 157.926 201.638 157.705C201.767 157.485 201.85 157.241 201.882 156.987L199.081 127.562L197.085 102.541C197.085 102.541 189.087 102.541 184.09 101.942C180.552 101.383 177.115 100.306 173.89 98.7444L171.295 97.7738L171.495 101.342Z" fill="#443D78" stroke="#443D78" stroke-linecap="round" stroke-linejoin="round"/>
<path d="M181.688 53.5264L171.495 56.9306C169.692 57.5301 169.492 59.928 169.492 62.7327C169.492 65.5374 171.089 88.9529 170.69 91.7576C170.291 94.5624 169.891 102.77 169.891 102.77C171.471 104.267 173.138 105.67 174.881 106.973C176.235 107.776 177.726 108.321 179.279 108.579L180.705 104.375L182.501 109.578C182.501 109.578 187.697 111.177 191.896 110.577C196.094 109.978 199.494 103.376 199.494 103.376L197.263 89.9592C197.263 89.9592 203.679 65.1449 202.06 62.1261C200.442 59.1073 194.262 55.5175 190.064 54.1187C187.353 53.2883 184.489 53.0858 181.688 53.5264Z" fill="white"/>
<mask id="mask2_711_2494" style="mask-type:luminance" maskUnits="userSpaceOnUse" x="169" y="53" width="34" height="58">
<path d="M181.688 53.5264L171.495 56.9306C169.692 57.5301 169.492 59.928 169.492 62.7327C169.492 65.5374 171.089 88.9529 170.69 91.7576C170.291 94.5624 169.891 102.77 169.891 102.77C171.471 104.267 173.138 105.67 174.881 106.973C176.235 107.776 177.726 108.321 179.279 108.579L180.705 104.375L182.501 109.578C182.501 109.578 187.697 111.177 191.896 110.577C196.094 109.978 199.494 103.376 199.494 103.376L197.263 89.9592C197.263 89.9592 203.679 65.1449 202.06 62.1261C200.442 59.1073 194.262 55.5175 190.064 54.1187C187.353 53.2883 184.489 53.0858 181.688 53.5264Z" fill="white"/>
</mask>
<g mask="url(#mask2_711_2494)">
<path d="M198.076 72.9453C198.076 72.9453 196.18 78.3549 194.562 84.5781C192.944 90.8013 187.541 101.885 186.999 102.698C186.457 103.512 175.651 88.903 176.464 91.0654C177.128 93.1052 177.668 95.1834 178.082 97.2886L170.241 76.6707C170.604 83.4148 170.953 90.3231 170.718 91.7648C170.319 94.5695 169.92 102.77 169.92 102.77C171.5 104.267 173.166 105.67 174.91 106.973C176.264 107.776 177.755 108.321 179.308 108.579L180.733 104.375L182.53 109.578C182.53 109.578 187.726 111.177 191.924 110.577C196.123 109.978 199.523 103.376 199.523 103.376L197.263 89.9592C197.263 89.9592 199.06 82.9866 200.507 75.9855L198.076 72.9453Z" fill="#A9E8CB"/>
<path opacity="0.5" d="M198.076 72.9453C198.076 72.9453 196.18 78.3549 194.562 84.5781C192.944 90.8013 187.541 101.885 186.999 102.698C186.457 103.512 175.651 88.903 176.464 91.0654C177.128 93.1052 177.668 95.1834 178.082 97.2886L170.241 76.6707C170.604 83.4148 170.953 90.3231 170.718 91.7648C170.319 94.5695 169.92 102.77 169.92 102.77C171.5 104.267 173.166 105.67 174.91 106.973C176.264 107.776 177.755 108.321 179.308 108.579L180.733 104.375L182.53 109.578C182.53 109.578 187.726 111.177 191.924 110.577C196.123 109.978 199.523 103.376 199.523 103.376L197.263 89.9592C197.263 89.9592 199.06 82.9866 200.507 75.9855L198.076 72.9453Z" fill="white"/>
</g>
<path d="M181.688 53.5264L171.495 56.9306C169.692 57.5301 169.492 59.928 169.492 62.7327C169.492 65.5374 171.089 88.9529 170.69 91.7576C170.291 94.5623 169.891 102.77 169.891 102.77C171.471 104.267 173.138 105.67 174.881 106.973C176.235 107.776 177.726 108.321 179.279 108.579L180.705 104.375L182.501 109.578C182.501 109.578 187.697 111.177 191.896 110.577C196.094 109.978 199.494 103.376 199.494 103.376L197.263 89.9592C197.263 89.9592 203.679 65.1449 202.06 62.1261C200.442 59.1073 194.262 55.5175 190.064 54.1187C187.353 53.2883 184.489 53.0858 181.688 53.5264Z" stroke="#443D78" stroke-linecap="round" stroke-linejoin="round"/>
<path d="M178.088 54.7325L175.088 61.1412L178.288 65.5446L174.489 68.542L179.692 75.9499" fill="white"/>
<path d="M178.088 54.7325L175.088 61.1412L178.288 65.5446L174.489 68.542L179.692 75.9499" stroke="#443D78" stroke-linecap="round" stroke-linejoin="round"/>
<path d="M192.487 55.1321L194.483 64.1386L189.686 65.3447L191.881 68.5419C191.881 68.5419 188.888 71.9461 186.086 73.5376C183.285 75.1291 178.288 78.1408 178.288 78.1408L179.714 100.157" fill="white"/>
<path d="M192.487 55.1321L194.483 64.1386L189.686 65.3447L191.881 68.5419C191.881 68.5419 188.888 71.9461 186.086 73.5376C183.285 75.1291 178.288 78.1408 178.288 78.1408L179.714 100.157" stroke="#443D78" stroke-linecap="round" stroke-linejoin="round"/>
<path d="M180.491 53.5264C180.491 53.5264 179.892 60.5346 179.892 64.5383C180.006 67.6376 180.407 70.7196 181.09 73.7446C181.09 73.7446 186.885 65.5374 188.688 62.1332C190.492 58.729 191.283 55.7102 190.114 54.1258C188.945 52.5415 187.911 52.6985 187.911 52.6985C187.911 52.6985 182.294 51.1284 180.491 53.5264Z" fill="white" stroke="#443D78" stroke-linecap="round" stroke-linejoin="round"/>
<path d="M181.289 63.3393L181.688 64.945L180.291 69.3484L181.089 73.7517L183.684 69.9478L183.285 65.3447L184.689 63.7389L183.684 60.7415L181.289 63.3393Z" fill="#443D78"/>
<path d="M180.091 63.7389L183.285 61.9405L186.485 65.1449" stroke="#443D78" stroke-linecap="round" stroke-linejoin="round"/>
<path d="M199.48 106.174L198.282 110.377L198.681 113.582H199.48L199.879 111.783L200.079 116.386L202.082 116.586L204.277 111.177V106.573L199.48 106.174Z" fill="white" stroke="#443D78" stroke-linecap="round" stroke-linejoin="round"/>
<path d="M200.114 64.1386C200.114 64.1386 196.714 69.1343 196.515 71.5465C196.315 73.9587 197.121 76.7491 197.52 78.7545C197.919 80.7599 197.719 90.3659 198.518 93.7416C199.316 97.1172 199.516 106.152 199.516 106.152C199.516 106.152 200.941 108.158 204.313 106.552C204.313 106.552 205.738 91.1438 205.318 83.1364C205.062 78.2582 204.256 73.4245 202.916 68.7275C202.916 68.7275 203.914 63.3179 201.918 61.3196" fill="white"/>
<path d="M200.114 64.1386C200.114 64.1386 196.714 69.1343 196.515 71.5465C196.315 73.9587 197.121 76.7491 197.52 78.7545C197.919 80.7599 197.719 90.3659 198.518 93.7416C199.316 97.1172 199.516 106.152 199.516 106.152C199.516 106.152 200.941 108.158 204.313 106.552C204.313 106.552 205.738 91.1438 205.318 83.1364C205.062 78.2582 204.256 73.4245 202.916 68.7275C202.916 68.7275 203.914 63.3179 201.918 61.3196" stroke="#443D78" stroke-linecap="round" stroke-linejoin="round"/>
<path d="M182.294 54.7325C182.294 54.7325 182.095 61.9405 183.292 61.9405C184.49 61.9405 187.491 54.133 187.89 52.7342C188.289 51.3354 182.294 54.7325 182.294 54.7325Z" fill="white" stroke="#443D78" stroke-linecap="round" stroke-linejoin="round"/>
<path d="M178.188 40.6804C178.188 40.6804 177.646 47.6743 178.901 50.5433C180.155 53.4122 181.039 56.9663 183.021 57.1732C185.003 57.3802 189.287 51.7993 189.287 51.7993L189.821 50.372C191.187 48.3596 191.931 45.9892 191.96 43.5564C191.974 39.5813 181.581 37.0692 178.188 40.6804Z" fill="white" stroke="#443D78" stroke-linecap="round" stroke-linejoin="round"/>
<path d="M181.389 46.668L180.947 50.8359L182.7 51.2712" fill="white"/>
<path d="M181.389 46.668L180.947 50.8359L182.7 51.2712" stroke="#443D78" stroke-width="0.75" stroke-linecap="round" stroke-linejoin="round"/>
<path d="M180.213 46.6823C180.213 47.1462 180.092 47.5244 179.942 47.5244C179.792 47.5244 179.678 47.1462 179.678 46.6823C179.678 46.2184 179.8 45.833 179.942 45.833C180.085 45.833 180.213 46.2113 180.213 46.6823Z" fill="#443D78"/>
<path d="M184.027 47.7456C184.027 48.2166 183.912 48.5949 183.763 48.5949C183.613 48.5949 183.499 48.2166 183.499 47.7456C183.499 47.2746 183.613 46.9035 183.763 46.9035C183.912 46.9035 184.027 47.2817 184.027 47.7456Z" fill="#443D78"/>
<path d="M182.786 45.7902C182.786 45.7902 184.824 45.255 185.715 46.7679L182.786 45.7902Z" fill="white"/>
<path d="M182.786 45.7902C182.786 45.7902 184.824 45.255 185.715 46.7679" stroke="#443D78" stroke-width="0.75" stroke-linecap="round" stroke-linejoin="round"/>
<path d="M179.058 44.9052C179.377 44.7585 179.74 44.7413 180.071 44.8571C180.402 44.9729 180.675 45.2127 180.833 45.5261" fill="white"/>
<path d="M179.058 44.9052C179.377 44.7585 179.74 44.7413 180.071 44.8571C180.402 44.9729 180.675 45.2127 180.833 45.5261" stroke="#443D78" stroke-width="0.75" stroke-linecap="round" stroke-linejoin="round"/>
<path d="M181.011 52.6343C181.288 52.9326 181.656 53.1298 182.058 53.1945C182.46 53.2591 182.871 53.1875 183.228 52.9911" fill="white"/>
<path d="M181.011 52.6343C181.288 52.9326 181.656 53.1298 182.058 53.1945C182.46 53.2591 182.871 53.1875 183.228 52.9911" stroke="#443D78" stroke-width="0.75" stroke-linecap="round" stroke-linejoin="round"/>
<path d="M181.232 33.3081C181.232 33.3081 175.145 34.557 175.857 38.3038C176.57 42.0505 182.658 43.1425 184.454 43.1425C185.78 43.099 187.099 42.9197 188.389 42.6072C188.389 42.6072 186.599 44.5769 187.676 45.4619C188.752 46.3468 189.287 46.8892 189.287 46.8892C189.287 46.8892 190.541 47.7884 190.541 46.7108C190.607 45.7975 190.787 44.896 191.076 44.0274L192.687 43.8418C192.687 43.8418 194.825 39.9024 194.112 37.2119C193.4 34.5213 188.21 29.1831 181.232 33.3081Z" fill="#443D78" stroke="#443D78" stroke-linecap="round" stroke-linejoin="round"/>
<path d="M189.287 46.9249C189.287 46.9249 190.541 42.0863 192.687 43.8776C194.832 45.6689 190.898 49.2586 189.999 49.0802" fill="white"/>
<path d="M189.287 46.9249C189.287 46.9249 190.541 42.0863 192.687 43.8776C194.832 45.6689 190.898 49.2586 189.999 49.0802" stroke="#443D78" stroke-linecap="round" stroke-linejoin="round"/>
</g>
<defs>
<clipPath id="clip0_711_2494">
<rect width="304" height="235" fill="white"/>
</clipPath>
</defs>
</svg>
