<svg width="304" height="235" viewBox="0 0 304 235" fill="none" xmlns="http://www.w3.org/2000/svg">
<path opacity="0.7" d="M56.6223 73.194C56.6223 73.194 41.8731 111.389 62.6003 149.85C83.3276 188.31 126.02 208.628 160.19 226.002C194.36 243.375 229.841 234.914 246.702 206.458C263.562 178.003 240.438 157.69 240.406 117.113C240.374 76.5361 246.463 65.7937 224.535 31.5134C202.607 -2.76685 148.853 -10.3582 108.202 15.0682C67.552 40.4946 56.6223 73.194 56.6223 73.194Z" fill="white"/>
<path d="M63.0704 68.3295C78.317 40.1817 116.671 7.32312 169.294 21.0098C221.916 34.6964 257.461 63.6505 251.637 114.026C245.812 164.401 215.197 206.257 149.238 207.482C83.2792 208.708 29.636 130.052 63.0704 68.3295Z" fill="#A9E8CB"/>
<path opacity="0.7" d="M63.0704 68.3295C78.317 40.1817 116.671 7.32312 169.294 21.0098C221.916 34.6964 257.461 63.6505 251.637 114.026C245.812 164.401 215.197 206.257 149.238 207.482C83.2792 208.708 29.636 130.052 63.0704 68.3295Z" fill="white"/>
<mask id="mask0_711_2601" style="mask-type:luminance" maskUnits="userSpaceOnUse" x="125" y="56" width="94" height="20">
<path d="M142.139 72.7485C142.139 72.7485 149.344 64.4622 159.856 64.4622C159.856 64.4622 160.205 58.0327 167.379 56.6428C174.553 55.2529 175.944 61.6772 175.944 61.6772C175.944 61.6772 181.234 58.855 188.365 61.6772C195.497 64.4994 194.037 72.722 194.037 72.722C194.037 72.722 214.573 72.0535 218.097 75.8253H125.808C125.808 75.8253 127.67 71.2101 142.139 72.7485Z" fill="white"/>
</mask>
<g mask="url(#mask0_711_2601)">
<path opacity="0.5" d="M142.139 72.7485C142.139 72.7485 149.344 64.4622 159.856 64.4622C159.856 64.4622 160.205 58.0327 167.379 56.6428C174.553 55.2529 175.944 61.6772 175.944 61.6772C175.944 61.6772 181.234 58.855 188.365 61.6772C195.497 64.4994 194.037 72.722 194.037 72.722C194.037 72.722 214.573 72.0535 218.097 75.8253H125.808C125.808 75.8253 127.67 71.2101 142.139 72.7485Z" stroke="#443D78" stroke-linecap="round" stroke-linejoin="round"/>
</g>
<path d="M142.139 72.7484C142.139 72.7484 149.344 64.4621 159.856 64.4621C159.856 64.4621 160.205 58.0326 167.379 56.6427C174.553 55.2528 175.944 61.677 175.944 61.677C175.944 61.677 181.234 58.8548 188.365 61.677C195.497 64.4992 194.037 72.7218 194.037 72.7218C194.037 72.7218 214.573 72.0534 218.097 75.8252H125.808C125.808 75.8252 127.67 71.2099 142.139 72.7484Z" stroke="#443D78" stroke-linecap="round" stroke-linejoin="round"/>
<mask id="mask1_711_2601" style="mask-type:luminance" maskUnits="userSpaceOnUse" x="141" y="10" width="74" height="17">
<path d="M201.681 23.6197C201.681 23.6197 195.93 17.0151 187.55 17.0151C187.55 17.0151 187.27 11.8853 181.551 10.7766C175.833 9.66785 174.716 14.7924 174.716 14.7924C174.716 14.7924 170.484 12.5431 164.813 14.7924C159.142 17.0417 160.284 23.6038 160.284 23.6038C160.284 23.6038 143.885 23.0733 141.097 26.0759H214.705C214.705 26.0759 213.219 22.3943 201.681 23.6197Z" fill="white"/>
</mask>
<g mask="url(#mask1_711_2601)">
<path opacity="0.5" d="M201.681 23.6197C201.681 23.6197 195.93 17.0151 187.55 17.0151C187.55 17.0151 187.27 11.8853 181.551 10.7766C175.833 9.66785 174.716 14.7924 174.716 14.7924C174.716 14.7924 170.484 12.5431 164.813 14.7924C159.142 17.0417 160.284 23.6038 160.284 23.6038C160.284 23.6038 143.885 23.0733 141.097 26.0759H214.705C214.705 26.0759 213.219 22.3943 201.681 23.6197Z" stroke="#443D78" stroke-linecap="round" stroke-linejoin="round"/>
</g>
<path d="M201.681 23.6197C201.681 23.6197 195.93 17.0151 187.55 17.0151C187.55 17.0151 187.27 11.8853 181.551 10.7766C175.833 9.66785 174.716 14.7924 174.716 14.7924C174.716 14.7924 170.484 12.5431 164.813 14.7924C159.142 17.0417 160.284 23.6038 160.284 23.6038C160.284 23.6038 143.885 23.0733 141.097 26.0759H214.705C214.705 26.0759 213.219 22.3943 201.681 23.6197Z" stroke="#443D78" stroke-linecap="round" stroke-linejoin="round"/>
<mask id="mask2_711_2601" style="mask-type:luminance" maskUnits="userSpaceOnUse" x="60" y="38" width="45" height="11">
<path d="M68.2456 46.5741C68.2456 46.5741 71.6578 42.6484 76.6412 42.6484C76.7351 41.7193 77.1368 40.8486 77.7822 40.1755C78.4276 39.5023 79.2795 39.0655 80.2016 38.935C83.5979 38.2772 84.2592 41.3169 84.2592 41.3169C85.1878 40.914 86.1888 40.7061 87.2006 40.7061C88.2124 40.7061 89.2134 40.914 90.142 41.3169C93.5172 42.6537 92.8347 46.5528 92.8347 46.5528C92.8347 46.5528 102.558 46.2345 104.23 48.0223H60.5112C60.5112 48.0223 61.3894 45.842 68.2456 46.5741Z" fill="white"/>
</mask>
<g mask="url(#mask2_711_2601)">
<path opacity="0.5" d="M68.2456 46.5741C68.2456 46.5741 71.6578 42.6484 76.6412 42.6484C76.7351 41.7193 77.1368 40.8486 77.7822 40.1755C78.4276 39.5023 79.2795 39.0655 80.2016 38.935C83.5979 38.2772 84.2592 41.3169 84.2592 41.3169C85.1878 40.914 86.1888 40.7061 87.2006 40.7061C88.2124 40.7061 89.2134 40.914 90.142 41.3169C93.5172 42.6537 92.8347 46.5528 92.8347 46.5528C92.8347 46.5528 102.558 46.2345 104.23 48.0223H60.5112C60.5112 48.0223 61.3894 45.842 68.2456 46.5741Z" stroke="#443D78" stroke-linecap="round" stroke-linejoin="round"/>
</g>
<path d="M68.2446 46.5741C68.2446 46.5741 71.6568 42.6484 76.6403 42.6484C76.7341 41.7193 77.1358 40.8486 77.7812 40.1755C78.4266 39.5023 79.2785 39.0655 80.2006 38.935C83.597 38.2772 84.2582 41.3169 84.2582 41.3169C85.1868 40.914 86.1879 40.7061 87.1996 40.7061C88.2114 40.7061 89.2125 40.914 90.141 41.3169C93.5162 42.6537 92.8338 46.5528 92.8338 46.5528C92.8338 46.5528 102.557 46.2345 104.229 48.0223H60.5103C60.5103 48.0223 61.3884 45.842 68.2446 46.5741Z" stroke="#443D78" stroke-linecap="round" stroke-linejoin="round"/>
<mask id="mask3_711_2601" style="mask-type:luminance" maskUnits="userSpaceOnUse" x="112" y="129" width="45" height="10">
<path d="M120.524 137.293C120.524 137.293 123.937 133.367 128.92 133.367C129.013 132.438 129.414 131.567 130.06 130.894C130.706 130.22 131.558 129.784 132.48 129.654C135.877 129.007 136.543 132.031 136.543 132.031C137.472 131.628 138.473 131.42 139.485 131.42C140.496 131.42 141.498 131.628 142.426 132.031C145.801 133.362 145.119 137.267 145.119 137.267C145.119 137.267 154.842 136.948 156.514 138.736H112.79C112.79 138.736 113.668 136.561 120.524 137.293Z" fill="white"/>
</mask>
<g mask="url(#mask3_711_2601)">
<path opacity="0.5" d="M120.524 137.293C120.524 137.293 123.937 133.367 128.92 133.367C129.013 132.438 129.414 131.567 130.06 130.894C130.706 130.22 131.558 129.784 132.48 129.654C135.877 129.007 136.543 132.031 136.543 132.031C137.472 131.628 138.473 131.42 139.485 131.42C140.496 131.42 141.498 131.628 142.426 132.031C145.801 133.362 145.119 137.267 145.119 137.267C145.119 137.267 154.842 136.948 156.514 138.736H112.79C112.79 138.736 113.668 136.561 120.524 137.293Z" stroke="#443D78" stroke-linecap="round" stroke-linejoin="round"/>
</g>
<path d="M120.523 137.293C120.523 137.293 123.935 133.367 128.919 133.367C129.011 132.438 129.413 131.567 130.059 130.894C130.704 130.22 131.556 129.784 132.479 129.654C135.875 129.007 136.542 132.031 136.542 132.031C137.47 131.628 138.471 131.42 139.483 131.42C140.495 131.42 141.496 131.628 142.425 132.031C145.8 133.362 145.117 137.267 145.117 137.267C145.117 137.267 154.841 136.948 156.513 138.736H112.789C112.789 138.736 113.667 136.561 120.523 137.293Z" stroke="#443D78" stroke-linecap="round" stroke-linejoin="round"/>
<path d="M81.2104 87.5332L81.1575 79.2575C81.138 78.9719 81.0111 78.7044 80.8024 78.509C80.5937 78.3136 80.3189 78.205 80.0334 78.205C79.7479 78.205 79.473 78.3136 79.2643 78.509C79.0557 78.7044 78.9287 78.9719 78.9092 79.2575V81.9683" stroke="#443D78" stroke-linecap="round" stroke-linejoin="round"/>
<path d="M78.8454 89.7452L78.8242 92.785" stroke="#443D78" stroke-linecap="round" stroke-linejoin="round"/>
<path d="M81.6816 161.043L81.2637 95.9043" stroke="#443D78" stroke-linecap="round" stroke-linejoin="round"/>
<path d="M78.7874 98.509L78.3906 161.043" stroke="#443D78" stroke-linecap="round" stroke-linejoin="round"/>
<path d="M108.503 93.3049L84.48 88.1644L83.1575 90.0318L82.1999 89.931L72.0373 65.5284C71.9681 65.3608 71.8372 65.2264 71.6718 65.153C71.5064 65.0797 71.3191 65.073 71.1489 65.1345C70.9787 65.1959 70.8387 65.3207 70.7578 65.483C70.677 65.6453 70.6616 65.8325 70.7148 66.0059L77.7402 89.6127L80.0098 89.8726L80.3695 90.7373L64.2659 111.729C64.1673 111.872 64.1249 112.046 64.1467 112.219C64.1686 112.391 64.2532 112.55 64.3844 112.664C64.5156 112.777 64.684 112.839 64.8575 112.835C65.0309 112.832 65.197 112.765 65.324 112.647L82.2846 94.8221L81.3852 92.7001L81.983 91.9256L108.292 94.7054C108.383 94.7193 108.477 94.715 108.567 94.6927C108.657 94.6704 108.742 94.6305 108.816 94.5753C108.891 94.5201 108.954 94.4508 109.002 94.3711C109.05 94.2915 109.082 94.2032 109.096 94.1112C109.11 94.0193 109.105 93.9255 109.083 93.8352C109.061 93.7449 109.021 93.6599 108.966 93.585C108.911 93.5101 108.842 93.4469 108.762 93.3988C108.683 93.3507 108.595 93.3188 108.503 93.3049Z" stroke="#443D78" stroke-linecap="round" stroke-linejoin="round"/>
<path d="M81.6809 91.4641C82.0607 91.4641 82.3686 91.1554 82.3686 90.7745C82.3686 90.3936 82.0607 90.0848 81.6809 90.0848C81.3011 90.0848 80.9932 90.3936 80.9932 90.7745C80.9932 91.1554 81.3011 91.4641 81.6809 91.4641Z" stroke="#443D78" stroke-linecap="round" stroke-linejoin="round"/>
<path d="M103.329 116.142L103.287 109.591C103.287 109.355 103.193 109.128 103.026 108.961C102.86 108.794 102.634 108.7 102.398 108.7C102.162 108.7 101.936 108.794 101.77 108.961C101.603 109.128 101.509 109.355 101.509 109.591V111.739" stroke="#443D78" stroke-linecap="round" stroke-linejoin="round"/>
<path d="M101.456 117.893L101.44 120.291" stroke="#443D78" stroke-linecap="round" stroke-linejoin="round"/>
<path d="M103.7 174.29L103.372 122.763" stroke="#443D78" stroke-linecap="round" stroke-linejoin="round"/>
<path d="M101.415 124.821L101.097 174.289" stroke="#443D78" stroke-linecap="round" stroke-linejoin="round"/>
<path d="M124.935 120.721L105.927 116.646L104.869 118.126L104.107 118.047L96.0711 98.7371C96.0464 98.6672 96.0073 98.6032 95.9565 98.5494C95.9056 98.4955 95.844 98.453 95.7757 98.4245C95.7074 98.396 95.6339 98.3822 95.5599 98.3839C95.486 98.3857 95.4132 98.403 95.3464 98.4347C95.2192 98.4889 95.1162 98.5878 95.0567 98.7129C94.9973 98.838 94.9855 98.9805 95.0236 99.1137L100.584 117.787L102.377 117.994L102.663 118.678L89.9133 135.272C89.8171 135.384 89.7696 135.531 89.781 135.678C89.7924 135.826 89.8618 135.963 89.9741 136.06C90.0863 136.156 90.2322 136.204 90.3795 136.192C90.5268 136.181 90.6636 136.111 90.7597 135.999L104.171 121.898L103.462 120.233L103.932 119.617L124.744 121.813C124.818 121.825 124.892 121.822 124.964 121.803C125.036 121.784 125.103 121.75 125.161 121.704C125.219 121.657 125.266 121.599 125.3 121.533C125.334 121.467 125.354 121.394 125.358 121.32C125.372 121.186 125.337 121.051 125.259 120.94C125.181 120.83 125.066 120.752 124.935 120.721Z" stroke="#443D78" stroke-linecap="round" stroke-linejoin="round"/>
<path d="M104.271 118.705C104.271 118.81 104.24 118.912 104.182 119C104.124 119.087 104.041 119.155 103.944 119.195C103.848 119.235 103.741 119.246 103.639 119.225C103.536 119.205 103.442 119.154 103.368 119.08C103.294 119.006 103.243 118.911 103.223 118.808C103.203 118.705 103.213 118.599 103.253 118.502C103.293 118.405 103.361 118.322 103.448 118.264C103.535 118.205 103.637 118.174 103.742 118.174C103.882 118.174 104.017 118.23 104.116 118.33C104.215 118.429 104.271 118.564 104.271 118.705Z" stroke="#443D78" stroke-linecap="round" stroke-linejoin="round"/>
<path d="M219.382 87.5332L219.435 79.2575C219.454 78.9719 219.581 78.7044 219.79 78.509C219.999 78.3136 220.273 78.205 220.559 78.205C220.844 78.205 221.119 78.3136 221.328 78.509C221.537 78.7044 221.664 78.9719 221.683 79.2575V81.9683" stroke="#443D78" stroke-linecap="round" stroke-linejoin="round"/>
<path d="M221.746 89.7452L221.767 92.785" stroke="#443D78" stroke-linecap="round" stroke-linejoin="round"/>
<path d="M218.91 161.043L219.328 95.9043" stroke="#443D78" stroke-linecap="round" stroke-linejoin="round"/>
<path d="M221.805 98.509L222.201 161.043" stroke="#443D78" stroke-linecap="round" stroke-linejoin="round"/>
<path d="M192.089 93.3049L216.112 88.1644L217.435 90.0318L218.392 89.931L228.555 65.5284C228.624 65.3608 228.755 65.2264 228.92 65.153C229.086 65.0797 229.273 65.073 229.443 65.1345C229.613 65.1959 229.754 65.3207 229.834 65.483C229.915 65.6453 229.931 65.8325 229.877 66.0059L222.852 89.6127L220.582 89.8726L220.223 90.7373L236.342 111.718C236.441 111.861 236.483 112.036 236.461 112.208C236.439 112.381 236.355 112.539 236.224 112.653C236.092 112.767 235.924 112.828 235.751 112.825C235.577 112.822 235.411 112.754 235.284 112.636L218.323 94.8115L219.223 92.6895L218.625 91.915L192.317 94.6948C192.138 94.713 191.96 94.6624 191.817 94.5532C191.675 94.444 191.58 94.2844 191.551 94.1071C191.522 93.9298 191.561 93.7481 191.661 93.599C191.761 93.4499 191.914 93.3447 192.089 93.3049Z" stroke="#443D78" stroke-linecap="round" stroke-linejoin="round"/>
<path d="M218.91 91.4641C219.29 91.4641 219.598 91.1554 219.598 90.7745C219.598 90.3936 219.29 90.0848 218.91 90.0848C218.531 90.0848 218.223 90.3936 218.223 90.7745C218.223 91.1554 218.531 91.4641 218.91 91.4641Z" stroke="#443D78" stroke-linecap="round" stroke-linejoin="round"/>
<path d="M197.263 116.142L197.305 109.591C197.305 109.355 197.399 109.128 197.566 108.961C197.732 108.794 197.959 108.7 198.194 108.7C198.43 108.7 198.656 108.794 198.823 108.961C198.989 109.128 199.083 109.355 199.083 109.591V111.739" stroke="#443D78" stroke-linecap="round" stroke-linejoin="round"/>
<path d="M199.136 117.893L199.152 120.291" stroke="#443D78" stroke-linecap="round" stroke-linejoin="round"/>
<path d="M196.892 174.29L197.221 122.763" stroke="#443D78" stroke-linecap="round" stroke-linejoin="round"/>
<path d="M199.178 124.821L199.496 174.289" stroke="#443D78" stroke-linecap="round" stroke-linejoin="round"/>
<path d="M175.658 120.721L194.666 116.646L195.724 118.126L196.485 118.047L204.521 98.7371C204.546 98.6672 204.585 98.6032 204.636 98.5494C204.687 98.4955 204.748 98.453 204.817 98.4245C204.885 98.396 204.959 98.3822 205.033 98.3839C205.106 98.3857 205.179 98.403 205.246 98.4347C205.373 98.4889 205.476 98.5878 205.536 98.7129C205.595 98.838 205.607 98.9805 205.569 99.1137L200.009 117.787L198.215 117.994L197.93 118.678L210.679 135.272C210.775 135.384 210.823 135.531 210.811 135.678C210.8 135.826 210.731 135.963 210.618 136.06C210.506 136.156 210.36 136.204 210.213 136.192C210.066 136.181 209.929 136.111 209.833 135.999L196.422 121.898L197.131 120.233L196.66 119.617L175.848 121.813C175.775 121.825 175.7 121.822 175.628 121.803C175.557 121.784 175.49 121.75 175.432 121.704C175.374 121.657 175.326 121.599 175.292 121.533C175.258 121.467 175.239 121.394 175.234 121.32C175.22 121.186 175.256 121.051 175.334 120.94C175.411 120.83 175.527 120.752 175.658 120.721Z" stroke="#443D78" stroke-linecap="round" stroke-linejoin="round"/>
<path d="M196.348 118.705C196.348 118.81 196.379 118.912 196.437 119C196.495 119.087 196.578 119.155 196.674 119.195C196.771 119.235 196.877 119.246 196.98 119.225C197.083 119.205 197.177 119.154 197.251 119.08C197.325 119.006 197.375 118.911 197.396 118.808C197.416 118.705 197.405 118.599 197.365 118.502C197.325 118.405 197.258 118.322 197.171 118.264C197.084 118.205 196.981 118.174 196.877 118.174C196.736 118.174 196.602 118.23 196.503 118.33C196.403 118.429 196.348 118.564 196.348 118.705Z" stroke="#443D78" stroke-linecap="round" stroke-linejoin="round"/>
<path d="M36.9995 153.309C36.9995 153.309 38.0258 156.025 41.2317 160.205C45.374 165.648 53.2036 173.568 67.2387 181.165C91.9971 194.586 107.667 216.888 107.667 216.888L122.072 170.847C122.072 170.847 115.666 170.38 106.651 163.95C100.499 159.616 93.161 152.497 85.8286 140.922C67.6936 112.323 48.7227 106.122 48.7227 106.122" fill="white"/>
<mask id="mask4_711_2601" style="mask-type:luminance" maskUnits="userSpaceOnUse" x="36" y="106" width="87" height="111">
<path d="M36.9995 153.309C36.9995 153.309 38.0258 156.025 41.2317 160.205C45.374 165.648 53.2036 173.568 67.2387 181.165C91.9971 194.586 107.667 216.888 107.667 216.888L122.072 170.847C122.072 170.847 115.666 170.38 106.651 163.95C100.499 159.616 93.161 152.497 85.8286 140.922C67.6936 112.323 48.7227 106.122 48.7227 106.122" fill="white"/>
</mask>
<g mask="url(#mask4_711_2601)">
<path opacity="0.4" d="M41.2163 160.205C45.3745 165.648 53.204 173.568 67.2391 181.165C91.9976 194.586 107.667 216.888 107.667 216.888L122.073 170.847C122.073 170.847 115.666 170.38 106.652 163.95C99.2717 163.749 83.9722 168.772 76.1585 176.343C76.1321 176.353 58.0817 167.176 41.2163 160.205Z" fill="#A9E8CB"/>
<path d="M88.8501 170.115C88.8501 170.115 97.6584 177.743 102.605 177.992" stroke="#443D78" stroke-linecap="round" stroke-linejoin="round"/>
<path d="M63.0078 178.958C69.2874 182.019 78.4977 185.44 81.8464 187.191" stroke="#443D78" stroke-linecap="round" stroke-linejoin="round"/>
<path d="M87.0884 142.985C88.7918 146.515 90.801 149.888 93.0928 153.065" stroke="#443D78" stroke-linecap="round" stroke-linejoin="round"/>
</g>
<path d="M36.9995 153.309C36.9995 153.309 38.0258 156.025 41.2317 160.205C45.374 165.648 53.2036 173.568 67.2387 181.165C91.9971 194.586 107.667 216.888 107.667 216.888L122.072 170.847C122.072 170.847 115.666 170.38 106.651 163.95C100.499 159.616 93.161 152.497 85.8286 140.922C67.6936 112.323 48.7227 106.122 48.7227 106.122" stroke="#443D78" stroke-linecap="round" stroke-linejoin="round"/>
<path d="M266.999 149.065C266.999 149.065 265.972 151.781 262.766 155.961C258.608 161.404 250.779 169.324 236.77 176.921C212.012 190.342 196.342 212.644 196.342 212.644L181.937 166.603C181.937 166.603 188.343 166.136 197.358 159.706C203.484 155.346 210.816 148.242 218.154 136.667C236.289 108.068 255.265 101.867 255.265 101.867" fill="white"/>
<mask id="mask5_711_2601" style="mask-type:luminance" maskUnits="userSpaceOnUse" x="181" y="101" width="86" height="112">
<path d="M267 149.065C267 149.065 265.974 151.781 262.768 155.961C258.61 161.404 250.78 169.324 236.772 176.921C212.013 190.342 196.343 212.644 196.343 212.644L181.938 166.603C181.938 166.603 188.344 166.136 197.359 159.706C203.485 155.346 210.818 148.242 218.155 136.667C236.29 108.068 255.266 101.867 255.266 101.867" fill="white"/>
</mask>
<g mask="url(#mask5_711_2601)">
<path opacity="0.4" d="M262.783 155.961C258.625 161.404 250.795 169.324 236.787 176.921C212.028 190.342 196.359 212.644 196.359 212.644L181.953 166.603C181.953 166.603 188.36 166.136 197.374 159.706C204.754 159.505 217.89 162.921 224.476 173.499C224.476 173.504 245.918 162.932 262.783 155.961Z" fill="#A9E8CB"/>
<path d="M206.072 157.908C206.072 157.908 201.771 164.916 190.656 169.314" stroke="#443D78" stroke-linecap="round" stroke-linejoin="round"/>
<path d="M239.448 175.812C236.802 176.921 225.841 180.374 223.328 182.141" stroke="#443D78" stroke-linecap="round" stroke-linejoin="round"/>
<path d="M218.308 141.935C218.308 141.935 220.81 132.917 224.476 127.453" stroke="#443D78" stroke-linecap="round" stroke-linejoin="round"/>
</g>
<path d="M266.999 149.065C266.999 149.065 265.972 151.781 262.766 155.961C258.608 161.404 250.779 169.324 236.77 176.921C212.012 190.342 196.342 212.644 196.342 212.644L181.937 166.603C181.937 166.603 188.343 166.136 197.358 159.706C203.484 155.346 210.816 148.242 218.154 136.667C236.289 108.068 255.265 101.867 255.265 101.867" stroke="#443D78" stroke-linecap="round" stroke-linejoin="round"/>
<path d="M133.801 181.865L118.337 183.727C118.337 183.727 107.54 187.027 104.932 189.377C102.324 191.727 98.8958 198.029 98.8958 198.029C98.8958 198.029 95.0974 198.75 93.1506 198.029C92.9321 197.969 92.7285 197.863 92.5528 197.72C92.377 197.577 92.2329 197.398 92.1295 197.196C91.8814 196.604 91.7038 195.984 91.6005 195.35C91.3246 193.365 91.2961 191.353 91.5159 189.361C91.5159 189.361 88.9765 185.722 88.8707 184.231C88.7649 182.74 89.3045 176.597 90.8387 174.878C90.9007 174.805 90.9698 174.737 91.045 174.677C92.7379 173.319 102.398 169.011 102.398 169.011C102.398 169.011 104.572 165.738 109.889 164.767C115.206 163.796 126.68 167.192 126.68 167.192L128.347 170.619L133.801 181.865Z" fill="white"/>
<path opacity="0.4" d="M91.6113 195.366C91.3353 193.381 91.3069 191.369 91.5266 189.377C91.5266 189.377 88.9873 185.738 88.8815 184.247C88.7757 182.756 89.3153 176.613 90.8495 174.894C89.0719 178.449 89.4264 183.865 91.9075 182.141C94.9282 180.019 98.0442 184.337 98.0442 184.337C94.7484 186.051 92.336 191.891 91.6113 195.366Z" fill="#A9E8CB"/>
<path opacity="0.4" d="M133.8 181.865L118.337 183.727C118.337 183.727 107.539 187.027 104.931 189.377C102.323 191.727 98.8951 198.029 98.8951 198.029C98.8951 198.029 95.0967 198.75 93.1499 198.029C94.938 197.498 97.5302 195.483 98.0222 192.782C98.7206 188.942 105.169 185.483 104.926 182.507C104.683 179.531 99.7363 174.677 99.7363 174.677C102.635 174.046 105.249 175.854 105.249 175.854C104.126 174.496 102.796 173.325 101.307 172.385C106.984 171.77 108.074 175.796 108.074 175.796C109.661 176.152 113.364 174.677 113.364 174.677C113.383 173.235 113.791 171.826 114.544 170.597L116.385 173.489C118.39 173.489 125.119 171.568 128.32 170.619L133.8 181.865Z" fill="#A9E8CB"/>
<path d="M92.1293 197.217C92.9599 199.154 98.8903 198.034 98.8903 198.034C98.8903 198.034 102.324 191.727 104.932 189.377C107.54 187.027 118.337 183.722 118.337 183.722L133.801 181.865L126.675 167.208C126.675 167.208 115.2 163.818 109.883 164.788C104.567 165.759 102.392 169.032 102.392 169.032C102.392 169.032 92.7324 173.335 91.0395 174.698C89.3466 176.061 88.7435 182.756 88.8652 184.247C88.9869 185.738 91.5103 189.377 91.5103 189.377C91.5103 189.377 90.9178 194.4 92.1293 197.217Z" stroke="#443D78" stroke-linecap="round" stroke-linejoin="round"/>
<path d="M92.3676 195.912C92.3676 195.912 93.3357 190.464 97.9276 188.485C97.9276 188.485 98.409 185.239 97.2029 183.743C95.9967 182.247 92.4892 185.154 92.3676 188.485C92.2459 191.817 92.3676 195.912 92.3676 195.912Z" stroke="#443D78" stroke-linecap="round" stroke-linejoin="round"/>
<path d="M102.393 175.812C102.393 175.812 110.45 179.441 106.239 188.464" stroke="#443D78" stroke-linecap="round" stroke-linejoin="round"/>
<path d="M105.249 174.115C105.249 174.115 112.095 180.035 107.064 187.488" stroke="#443D78" stroke-linecap="round" stroke-linejoin="round"/>
<path d="M114.566 172.91C114.179 175.527 114.179 178.187 114.566 180.804" stroke="#443D78" stroke-linecap="round" stroke-linejoin="round"/>
<path d="M94.3034 182.141C94.3034 182.141 92.8539 182.836 91.8857 186.47" stroke="#443D78" stroke-linecap="round" stroke-linejoin="round"/>
<path d="M93.0917 175.812C93.0917 175.812 91.0391 176.093 89.9546 180.167" stroke="#443D78" stroke-linecap="round" stroke-linejoin="round"/>
<path d="M212.075 181.865C210.382 182.952 209.488 185.239 209.488 185.239C209.488 185.239 209.805 189.377 209.488 190.464C209.17 191.552 206.874 193.615 205.06 192.464C203.245 191.313 202.314 187.074 197.616 185.239L168.229 173.504C169.226 172.091 170.415 170.825 171.763 169.743C173.931 167.95 176.35 166.484 178.942 165.393C186.581 162.12 195.871 160.062 200.415 161.515C202.965 162.338 206.039 165.197 208.409 168.014C210.239 170.184 211.646 172.343 212.075 173.504C213.038 176.173 213.778 180.772 212.075 181.865Z" fill="white"/>
<path opacity="0.4" d="M212.075 181.865C210.382 182.952 209.488 185.239 209.488 185.239C209.488 185.239 209.805 189.377 209.488 190.464C209.17 191.552 206.874 193.615 205.06 192.464C203.245 191.313 202.314 187.074 197.616 185.239L168.229 173.504C169.226 172.091 170.415 170.825 171.763 169.743C175.789 169.743 181.09 170.125 185.433 171.929C185.433 171.929 185.137 168.656 186.83 169.027C186.83 169.027 186.401 165.717 188.226 165.552C190.051 165.388 189.623 166.613 189.623 166.613C189.623 166.613 189.623 169.95 191.099 170.624C192.575 171.298 191.707 166.693 194.543 166.051C194.543 166.051 194.701 171.239 196.363 172.921C196.363 172.921 194.474 178.39 197.05 181.101C199.627 183.812 204.457 187.043 205.515 186.936C206.573 186.83 202.669 182.109 202.669 182.109C202.669 182.109 202.743 177.297 205.705 176.353C208.668 175.409 211.244 177.828 211.244 177.828C210.796 174.435 209.847 171.127 208.43 168.014C210.26 170.184 211.667 172.343 212.096 173.504C213.038 176.173 213.778 180.772 212.075 181.865Z" fill="#A9E8CB"/>
<path d="M168.224 173.504C168.224 173.504 171.298 168.661 178.942 165.393C186.587 162.125 195.871 160.062 200.415 161.515C204.96 162.969 211.107 170.841 212.054 173.504C213.001 176.167 213.747 180.772 212.054 181.865C210.361 182.958 209.472 185.234 209.472 185.234C209.472 185.234 209.79 189.377 209.472 190.464C209.155 191.552 206.859 193.615 205.05 192.464C203.24 191.313 202.299 187.074 197.601 185.234" stroke="#443D78" stroke-linecap="round" stroke-linejoin="round"/>
<path d="M202.669 182.109C202.669 182.109 203.034 177.382 205.314 177.626C207.594 177.87 209.329 182.836 209.493 188.464C209.488 188.464 207.002 183.562 202.669 182.109Z" stroke="#443D78" stroke-linecap="round" stroke-linejoin="round"/>
<path d="M195.162 183.722C195.162 183.722 192.517 175.202 198.178 171.934" stroke="#443D78" stroke-linecap="round" stroke-linejoin="round"/>
<path d="M194.539 167.208C194.539 167.208 192.349 174.518 194.539 178.613C194.539 178.613 189.365 174.719 185.439 176.412" stroke="#443D78" stroke-linecap="round" stroke-linejoin="round"/>
<path d="M189.972 176.353C189.972 176.353 189.226 173.504 189.348 171.934C189.47 170.364 187.375 168.539 188.179 166.603" stroke="#443D78" stroke-linecap="round" stroke-linejoin="round"/>
<path d="M186.825 170.115C186.825 170.115 188.555 174.061 189.624 174.693" stroke="#443D78" stroke-linecap="round" stroke-linejoin="round"/>
<path d="M190.655 179.441C190.655 179.441 192.835 178.475 194.544 179.441" stroke="#443D78" stroke-linecap="round" stroke-linejoin="round"/>
<path d="M207.484 172.406C207.484 172.406 210.986 172.109 211.832 179.228" stroke="#443D78" stroke-linecap="round" stroke-linejoin="round"/>
<path d="M155.999 121.294C155.999 121.294 147.571 116.424 154.475 98.8273C161.379 81.231 182.133 75.8943 186.825 70.5894C186.825 70.5894 184.931 124.63 155.999 121.294Z" fill="#A9E8CB"/>
<mask id="mask6_711_2601" style="mask-type:luminance" maskUnits="userSpaceOnUse" x="151" y="70" width="36" height="52">
<path d="M155.999 121.294C155.999 121.294 147.571 116.424 154.475 98.8273C161.379 81.231 182.133 75.8943 186.825 70.5894C186.825 70.5894 184.931 124.63 155.999 121.294Z" fill="white"/>
</mask>
<g mask="url(#mask6_711_2601)">
<path opacity="0.3" d="M183.149 75.6396C180.779 80.1541 173.484 85.8516 165.469 99.5594C161.55 106.416 158.287 113.629 155.724 121.103C154.449 120.158 149.291 115.384 153.195 102.535C153.349 107.098 154.962 109.66 154.962 109.66C154.454 91.9151 183.149 75.6396 183.149 75.6396Z" fill="black" fill-opacity="0.7"/>
</g>
<path d="M155.999 121.294C155.999 121.294 147.571 116.424 154.475 98.8273C161.379 81.231 182.133 75.8943 186.825 70.5894C186.825 70.5894 184.931 124.63 155.999 121.294Z" stroke="#443D78" stroke-linecap="round" stroke-linejoin="round"/>
<path d="M156.776 99.5594C156.776 99.5594 155.464 108.965 158.48 115.092L159.987 111.172C159.987 111.172 170.452 110.891 175.89 104.175" stroke="#443D78" stroke-linecap="round" stroke-linejoin="round"/>
<path d="M162.5 91.5862C162.5 91.5862 160.125 100.398 161.802 106.557L162.5 103.48C162.5 103.48 175.615 100.074 178.403 96.0158" stroke="#443D78" stroke-linecap="round" stroke-linejoin="round"/>
<path d="M169.293 85.8781C169.293 85.8781 166.119 92.4508 166.193 97.9096L167.743 95.2571C167.743 95.2571 178.821 93.1352 180.778 89.6604" stroke="#443D78" stroke-linecap="round" stroke-linejoin="round"/>
<path d="M175.89 80.2018C173.578 83.3847 170.833 90.5729 170.833 90.5729L173.361 87.687C173.361 87.687 179.614 86.0531 181.953 82.9922" stroke="#443D78" stroke-linecap="round" stroke-linejoin="round"/>
<path d="M145.953 167.706C145.953 167.706 149.551 104.175 180.081 80.1753C180.081 80.1753 151.757 103.639 150.296 167.706H145.953Z" fill="#A9E8CB"/>
<mask id="mask7_711_2601" style="mask-type:luminance" maskUnits="userSpaceOnUse" x="145" y="80" width="36" height="88">
<path d="M145.953 167.706C145.953 167.706 149.55 104.175 180.08 80.1754C180.08 80.1754 151.756 103.639 150.296 167.706H145.953Z" fill="white"/>
</mask>
<g mask="url(#mask7_711_2601)">
<path opacity="0.3" d="M145.953 167.706C145.953 167.706 149.55 104.175 180.08 80.1754C180.08 80.1754 151.756 103.639 150.296 167.706H145.953Z" fill="black" fill-opacity="0.7"/>
</g>
<path d="M145.953 167.706C145.953 167.706 149.551 104.175 180.081 80.1753C180.081 80.1753 151.757 103.639 150.296 167.706H145.953Z" stroke="#443D78" stroke-linecap="round" stroke-linejoin="round"/>
<path d="M143.095 101.48C143.095 101.48 150.634 97.1244 144.455 81.3848C138.276 65.6452 119.718 60.8708 115.522 56.1282C115.522 56.1282 117.215 104.445 143.095 101.48Z" fill="#A9E8CB"/>
<mask id="mask8_711_2601" style="mask-type:luminance" maskUnits="userSpaceOnUse" x="115" y="56" width="32" height="46">
<path d="M143.094 101.48C143.094 101.48 150.633 97.1244 144.454 81.3848C138.275 65.6452 119.717 60.8708 115.521 56.1282C115.521 56.1282 117.214 104.445 143.094 101.48Z" fill="white"/>
</mask>
<g mask="url(#mask8_711_2601)">
<path opacity="0.3" d="M144.476 81.3742C144.147 80.5242 143.749 79.7028 143.286 78.9181C142.339 77.3266 144.725 82.0426 144.772 85.8516C144.806 86.8042 144.625 87.7522 144.241 88.6242C143.857 89.4962 143.281 90.2695 142.556 90.8859C142.079 88.3926 141.82 85.7773 140.63 83.5333C134.567 72.0535 120.41 61.6506 118.162 59.9371C118.405 60.2448 126.156 70.0164 130.742 75.6396C133.202 78.6687 134.837 82.4883 136.456 86.0054C138.508 90.4774 140.349 95.0237 142.175 99.6072C142.429 100.249 142.704 100.886 142.942 101.522C144.994 100.238 146.116 97.8512 146.592 95.4693C147.375 91.4005 146.444 87.1937 145.148 83.2681C144.941 82.6262 144.725 81.9949 144.476 81.3742Z" fill="black" fill-opacity="0.7"/>
</g>
<path d="M143.095 101.48C143.095 101.48 150.634 97.1244 144.455 81.3848C138.276 65.6452 119.718 60.8708 115.522 56.1282C115.522 56.1282 117.215 104.445 143.095 101.48Z" stroke="#443D78" stroke-linecap="round" stroke-linejoin="round"/>
<path d="M142.397 82.0426C142.397 82.0426 143.572 90.4509 140.874 95.9308L139.525 92.4243C139.525 92.4243 130.166 92.175 125.299 86.1698" stroke="#443D78" stroke-linecap="round" stroke-linejoin="round"/>
<path d="M137.282 74.9076C137.282 74.9076 139.398 82.7907 137.906 88.2972L137.282 85.5439C137.282 85.5439 125.548 82.4989 123.056 78.8703" stroke="#443D78" stroke-linecap="round" stroke-linejoin="round"/>
<path d="M131.203 69.7777C131.203 69.7777 134.039 75.6608 133.975 80.5414L132.589 78.1595C132.589 78.1595 122.681 76.2815 120.951 73.1569" stroke="#443D78" stroke-linecap="round" stroke-linejoin="round"/>
<path d="M125.299 64.7222C127.373 67.5921 129.827 74.0004 129.827 74.0004L127.547 71.4223C127.547 71.4223 121.955 69.9581 119.866 67.2208" stroke="#443D78" stroke-linecap="round" stroke-linejoin="round"/>
<path d="M150.825 140.418C150.825 140.418 148.868 86.1699 121.564 64.6851C121.564 64.6851 147.852 88.2972 148.238 149.06C148.238 149.06 149.095 149.229 149.555 147.829" fill="#A9E8CB"/>
<mask id="mask9_711_2601" style="mask-type:luminance" maskUnits="userSpaceOnUse" x="121" y="64" width="30" height="86">
<path d="M150.826 140.418C150.826 140.418 148.868 86.1699 121.565 64.6851C121.565 64.6851 147.853 88.2972 148.239 149.06C148.239 149.06 149.096 149.229 149.556 147.829" fill="white"/>
</mask>
<g mask="url(#mask9_711_2601)">
<path opacity="0.3" d="M150.826 140.418C150.826 140.418 148.868 86.1699 121.565 64.6851C121.565 64.6851 147.853 88.2972 148.239 149.06C148.239 149.06 149.096 149.229 149.556 147.829" fill="black" fill-opacity="0.7"/>
</g>
<path d="M150.825 140.418C150.825 140.418 148.868 86.1699 121.564 64.6851C121.564 64.6851 147.852 88.2972 148.238 149.06C148.238 149.06 149.095 149.229 149.555 147.829" stroke="#443D78" stroke-linecap="round" stroke-linejoin="round"/>
<path d="M106.677 189.695C106.677 189.695 104.858 188.252 106.677 183.743C108.074 180.289 112.618 180.459 112.867 176.847C114.729 177.08 116.216 175.844 117.179 174.332C118.141 172.82 118.919 171.006 120.527 170.21C121.056 169.966 121.585 169.833 122.072 169.573C123.982 168.555 124.643 165.802 126.706 165.176C127.923 164.804 129.352 165.308 130.468 164.741C131.584 164.173 132.134 162.619 133.346 162.088C133.866 161.929 134.396 161.807 134.933 161.722C137.075 161.16 138.456 158.539 140.673 158.598C141.313 158.624 142.001 158.884 142.572 158.598C143.022 158.375 143.291 157.86 143.757 157.68C144.158 157.585 144.577 157.601 144.968 157.728C146.206 157.995 147.495 157.888 148.672 157.42C149.73 156.937 149.973 155.531 150.618 155.213C153.184 153.945 156.062 158.884 157.549 160.12C158.416 160.847 159.395 158.99 160.522 159.033C161.548 159.075 162.072 160.667 163.088 160.539C162.617 160.911 162.887 161.733 163.405 162.035C163.959 162.268 164.556 162.382 165.156 162.369C166.616 162.523 167.933 163.292 169.203 164.04C169.431 164.151 169.63 164.312 169.785 164.513C169.938 164.746 169.97 165.043 170.129 165.271C170.462 165.743 171.235 165.802 171.483 166.3C171.561 166.57 171.608 166.848 171.621 167.128C171.785 167.913 172.711 168.268 173.509 168.327C174.308 168.385 175.165 168.29 175.848 168.714C176.32 169.104 176.749 169.543 177.128 170.024C178.715 171.568 180.556 171.483 182.021 173.435C183.556 175.478 184.592 177.711 186.783 179.186C190.486 181.685 191.544 185.207 192.554 188.48C193.565 191.753 179.212 199.902 150.232 201.986C121.252 204.071 106.297 191.902 106.677 189.695Z" fill="#443D78"/>
<path opacity="0.4" d="M133.716 167.043C134.362 167.213 135.303 167.17 135.383 166.513C135.369 166.363 135.38 166.213 135.414 166.067C135.584 165.674 136.187 165.977 136.605 165.881C136.917 165.807 137.107 165.499 137.335 165.277C137.626 165.008 138.002 164.85 138.398 164.831C138.793 164.812 139.182 164.932 139.499 165.17C139.864 165.468 140.107 165.924 140.525 166.136C141.308 166.529 142.593 166.088 142.884 166.91" stroke="white" stroke-linecap="round" stroke-linejoin="round"/>
<path opacity="0.4" d="M144.873 171.186C145.054 171.302 145.259 171.376 145.473 171.402C145.686 171.428 145.903 171.405 146.106 171.335C146.309 171.265 146.495 171.15 146.647 170.998C146.8 170.847 146.917 170.663 146.989 170.459C147.047 170.247 147.069 169.998 147.248 169.865C147.523 169.669 147.894 169.934 148.232 169.966C148.904 170.035 149.29 169.25 149.73 168.746C149.996 168.447 150.337 168.225 150.717 168.102C151.098 167.979 151.504 167.96 151.894 168.047C152.284 168.134 152.644 168.324 152.937 168.597C153.23 168.87 153.445 169.216 153.56 169.6L157.549 170.661" stroke="white" stroke-linecap="round" stroke-linejoin="round"/>
<path opacity="0.4" d="M151.698 162.762C152.381 162.543 153.097 162.441 153.814 162.46C153.72 162.237 153.699 161.989 153.755 161.754C153.811 161.518 153.941 161.306 154.125 161.15C154.309 160.994 154.539 160.9 154.78 160.884C155.021 160.868 155.261 160.929 155.464 161.059C155.634 160.904 155.834 160.788 156.052 160.716C156.27 160.645 156.5 160.621 156.728 160.647C156.955 160.672 157.175 160.745 157.372 160.862C157.57 160.979 157.74 161.136 157.871 161.324L158.03 161.993C159.072 162.339 160.039 162.879 160.882 163.584" stroke="white" stroke-linecap="round" stroke-linejoin="round"/>
<path opacity="0.4" d="M162.771 167.749L163.829 168.062C163.654 167.786 163.982 167.446 164.305 167.383C164.627 167.383 164.948 167.328 165.252 167.218C165.569 167.027 165.664 166.624 165.871 166.316C166.077 166.009 166.595 165.834 166.77 166.157C166.728 165.818 167.103 165.542 167.447 165.552C167.792 165.598 168.117 165.742 168.383 165.966L171.092 167.855" stroke="white" stroke-linecap="round" stroke-linejoin="round"/>
<path d="M97.8428 198.029C97.8428 198.029 100.906 192.602 104.932 189.377C108.958 186.151 111.857 182.008 115.401 177.616C118.946 173.223 124.098 167.653 126.675 167.208C129.251 166.762 135.049 167.595 135.695 172.91C135.695 172.91 139.636 168.136 145.154 171.478C150.671 174.82 147.931 181.138 147.931 181.138C147.931 181.138 149.941 180.332 151.19 181.138C152.438 181.945 155.993 224.697 155.993 224.697C153.958 225.209 151.963 225.872 150.026 226.681C146.968 227.97 143.101 228.134 140.503 226.681C140.503 226.681 135.673 227.933 132.452 227.71C129.23 227.487 120.533 227.328 117.475 226.516C114.107 225.54 110.827 224.278 107.672 222.745C105.371 221.429 103.475 219.503 102.191 217.18C101.229 215.217 99.4563 214.575 96.716 211.265C93.9756 207.954 97.8428 198.029 97.8428 198.029Z" fill="white"/>
<path opacity="0.4" d="M151.189 181.138C149.983 180.364 148.068 181.085 147.936 181.138C148.175 180.535 148.352 179.91 148.465 179.271L145.159 186.257C145.159 186.257 140.043 192.931 138.212 195.923C136.382 198.915 137.948 199.228 135.7 203.992C133.451 208.756 130.161 217.869 126.68 218.607C123.199 219.344 115.803 216.808 114.427 213.238C113.052 209.668 116.369 207.148 120.437 201.976C124.505 196.804 126.193 194.867 125.87 192.469C125.548 190.072 133.806 175.621 134.335 174.74C134.118 175.027 132.843 176.74 131.245 178.857C131.96 177.518 132.575 176.128 133.086 174.698L125.474 171.483C125.474 171.483 117.988 179.472 122.014 182.528C124.225 184.21 126.415 184.236 128.452 182.528C126.865 184.613 125.304 186.549 124.431 187.504C122.014 190.157 121.527 193.101 120.442 194.841C119.358 196.581 115.052 203.806 111.338 206.416C107.624 209.026 105.429 209.742 102.403 208.108C100.339 206.989 99.0592 200.846 98.4456 197.064C98.0594 197.674 97.8531 198.045 97.8531 198.045C97.8531 198.045 93.9912 207.965 96.7315 211.275C99.4719 214.586 101.239 215.227 102.202 217.19C103.487 219.505 105.376 221.425 107.666 222.745C110.831 224.278 114.12 225.541 117.496 226.522C120.554 227.323 129.251 227.487 132.473 227.71C135.694 227.933 140.524 226.681 140.524 226.681C143.101 228.134 146.963 227.975 150.047 226.681C151.816 225.947 153.631 225.328 155.48 224.829C155.649 224.612 155.808 224.384 155.977 224.156C155.538 219.217 152.359 181.897 151.189 181.138Z" fill="#A9E8CB"/>
<path opacity="0.4" d="M138.393 174.693C138.393 174.693 130.722 183.6 136.013 187.488C141.303 191.377 147.032 183.966 147.281 177.828L138.393 174.693Z" fill="#A9E8CB"/>
<path d="M155.999 224.697L155.47 224.829C153.621 225.328 151.806 225.947 150.037 226.681C146.974 227.975 143.112 228.134 140.514 226.681C140.514 226.681 135.684 227.938 132.462 227.71C129.241 227.482 120.544 227.323 117.486 226.522C114.113 225.541 110.829 224.277 107.667 222.745C105.37 221.422 103.477 219.496 102.192 217.174C101.229 215.212 99.4565 214.575 96.7214 211.259C93.9864 207.944 97.843 198.029 97.843 198.029C97.843 198.029 98.0493 197.658 98.4355 197.048C99.4935 195.334 101.959 191.743 104.932 189.377C108.958 186.141 111.857 182.008 115.401 177.616C118.946 173.223 124.099 167.653 126.675 167.208C129.251 166.762 135.049 167.595 135.695 172.91C135.695 172.91 139.636 168.136 145.154 171.478C148.767 173.679 148.857 177.144 148.46 179.266C148.348 179.904 148.17 180.53 147.931 181.133C148.063 181.085 149.979 180.364 151.185 181.133C152.391 181.902 155.533 219.211 155.946 224.15C155.978 224.506 155.999 224.697 155.999 224.697Z" stroke="#443D78" stroke-linecap="round" stroke-linejoin="round"/>
<path d="M135.695 172.91C133.923 174.353 124.258 192.645 122.469 194.825C120.681 197.005 115.703 203.217 113.529 205.504C111.997 207.246 110.697 209.181 109.662 211.259C108.275 212.657 106.782 213.945 105.197 215.111" stroke="#443D78" stroke-linecap="round" stroke-linejoin="round"/>
<path d="M147.931 181.138C146.364 183.801 144.951 186.551 143.699 189.377C142.112 193.127 137.578 202.697 135.69 206.352C133.801 210.007 130.775 218.341 128.601 219.678C126.426 221.015 123.284 224.039 121.353 223.795" stroke="#443D78" stroke-linecap="round" stroke-linejoin="round"/>
<path d="M123.052 224.867C123.052 224.867 122.521 223.678 123.052 223.402" stroke="#443D78" stroke-linecap="round" stroke-linejoin="round"/>
<path d="M141.884 225.45C141.884 225.45 146.238 221.275 146.841 218.225C147.444 215.174 155.993 191.17 155.993 191.17" stroke="#443D78" stroke-linecap="round" stroke-linejoin="round"/>
<path d="M125.464 171.478C125.464 171.478 130.421 171.154 133.076 174.693C133.076 174.693 129.087 184.65 124.257 182.12C119.427 179.589 125.464 171.478 125.464 171.478Z" fill="white" stroke="#443D78" stroke-linecap="round" stroke-linejoin="round"/>
<path d="M138.392 174.693C138.392 174.693 143.37 174.518 147.28 177.828C147.28 177.828 144.672 189.011 138.392 187.313C132.113 185.616 136.334 178.3 138.392 174.693Z" fill="white" stroke="#443D78" stroke-linecap="round" stroke-linejoin="round"/>
<path d="M149.143 184.247C149.143 184.247 146.36 188.448 146.725 191.515C147.09 194.581 151.19 194.013 151.19 194.013" stroke="#443D78" stroke-linecap="round" stroke-linejoin="round"/>
<path d="M128.363 194.825C128.363 194.825 131.78 197.361 135.087 198.034" stroke="#443D78" stroke-linecap="round" stroke-linejoin="round"/>
<path d="M99.7373 199.429C99.7373 199.429 100.224 205.265 101.43 207.302C102.636 209.339 110.757 209.238 110.757 209.238" stroke="#443D78" stroke-linecap="round" stroke-linejoin="round"/>
<path d="M112.783 213.233C114.129 215.616 116.205 217.5 118.703 218.607C122.935 220.501 125.866 219.668 125.866 219.668" stroke="#443D78" stroke-linecap="round" stroke-linejoin="round"/>
<path d="M133.077 221.71C133.077 221.71 139.478 224.654 143.345 222.336" stroke="#443D78" stroke-linecap="round" stroke-linejoin="round"/>
<path d="M115.2 185.234C115.2 185.234 116.565 188.416 119.327 189.149" stroke="#443D78" stroke-linecap="round" stroke-linejoin="round"/>
<path d="M141.884 205.504C143.241 206.626 144.935 207.26 146.693 207.302" stroke="#443D78" stroke-linecap="round" stroke-linejoin="round"/>
<path d="M203.013 208.994C203.013 208.994 199.146 216.018 195.041 217.96C190.935 219.901 187.55 219.174 185.137 220.612C182.725 222.05 178.614 222.792 173.059 223.763C167.505 224.734 161.908 225.943 157.94 225.217C156.566 224.953 155.239 224.485 154.004 223.827C151.336 222.347 148.918 220.453 146.841 218.214C144.868 216.182 145.037 212.909 146.365 210.702C146.653 210.165 147.047 209.693 147.524 209.314C148.001 208.936 148.55 208.659 149.137 208.501C149.137 208.501 147.809 207.44 146.312 206.098C144.688 204.644 142.879 202.851 142.381 201.716C141.408 199.536 141.651 195.663 145.026 192.268C145.997 191.279 147.167 190.509 148.458 190.009C149.748 189.509 151.13 189.289 152.512 189.366C152.512 189.366 147.338 185.122 149.37 180.157C150.105 178.364 151.417 175.992 155.411 175.313C161.13 174.343 164.352 177.616 164.352 177.616C164.352 177.616 163.447 171.929 169.213 170.719C174.98 169.51 187.55 178.714 189.972 179.929C191.713 180.799 194.443 182.793 197.008 184.38L197.622 184.761C198.331 185.186 199.024 185.573 199.664 185.881C202.653 188.061 203.558 191.504 205.066 192.464C205.491 192.704 205.975 192.818 206.463 192.792C206.95 192.765 207.42 192.6 207.817 192.316C207.917 192.469 208.012 192.618 208.092 192.761C209.292 194.942 212.192 204.177 203.013 208.994Z" fill="white"/>
<path opacity="0.4" d="M203.013 208.994C203.013 208.994 199.146 216.018 195.041 217.959C190.936 219.901 187.55 219.174 185.137 220.612C182.725 222.05 178.615 222.792 173.06 223.763C167.505 224.734 161.908 225.943 157.94 225.217C156.566 224.953 155.24 224.484 154.004 223.827C157.004 223.599 159.294 222.092 160.353 219.832C161.68 217.031 157.734 216.819 156.787 218.591C155.84 220.363 150.169 219.726 151.169 218.591C152.168 217.455 150.169 211.647 149.116 210.867C148.666 210.522 147.529 210.554 146.344 210.702C146.632 210.165 147.026 209.693 147.503 209.314C147.98 208.936 148.529 208.659 149.116 208.501C149.116 208.501 147.788 207.44 146.291 206.098L149.994 208.299C149.994 208.299 157.93 215.196 162.262 218.591C166.595 221.986 174.811 221.18 176.969 218.591C179.128 216.002 169.335 207.939 166.278 205.488C163.315 203.122 162.008 199.159 161.934 198.915C162.194 199.159 170.208 206.941 174.631 212.135C179.149 217.44 183.857 215.848 188.973 213.456C194.089 211.063 191.227 204.22 189.592 202.591C187.957 200.963 180.757 194.692 179.625 192.788C178.493 190.883 170.632 184.157 170.102 183.732C170.632 184.082 179.334 189.732 180.583 191.159C181.831 192.586 185.095 194.873 189.941 198.342C194.787 201.811 198.464 205.838 202.045 198.342C204.505 193.186 200.008 187.451 196.961 184.369L197.575 184.751C198.284 185.175 198.977 185.562 199.617 185.87C202.606 188.05 203.511 191.493 205.018 192.453C205.443 192.694 205.928 192.807 206.415 192.781C206.903 192.755 207.372 192.589 207.769 192.305C207.87 192.459 207.965 192.607 208.044 192.751C209.293 194.941 212.192 204.177 203.013 208.994Z" fill="#A9E8CB"/>
<path opacity="0.4" d="M153.999 186.809C154.682 185.126 155.747 183.626 157.11 182.429C158.473 181.232 160.096 180.37 161.85 179.913C161.85 179.913 167.77 184.029 167.77 187.419C167.77 190.809 165.489 193.435 161.257 192.125C157.025 190.814 153.999 186.809 153.999 186.809Z" fill="#A9E8CB"/>
<path opacity="0.4" d="M168.224 178.236C168.224 178.236 170.647 175.085 174.387 174.12C174.387 174.12 182.18 180.056 179.249 183.202C176.318 186.348 169.43 182.353 168.224 178.236Z" fill="#A9E8CB"/>
<path opacity="0.4" d="M145.953 201.599C145.953 201.599 148.937 196.92 153.322 195.663C153.322 195.663 162.385 200.793 157.793 204.83C153.201 208.867 147.043 203.78 145.953 201.599Z" fill="#A9E8CB"/>
<path d="M203.014 208.994C203.014 208.994 199.147 216.018 195.042 217.96C190.936 219.901 187.55 219.174 185.138 220.612C182.726 222.05 178.615 222.792 173.06 223.763C167.506 224.734 161.909 225.943 157.941 225.217C153.973 224.49 150.233 221.699 146.831 218.214C143.858 215.148 145.747 209.233 149.127 208.501C149.127 208.501 143.334 203.896 142.372 201.716C141.409 199.536 141.642 195.663 145.017 192.268C145.988 191.279 147.157 190.509 148.448 190.009C149.739 189.509 151.121 189.289 152.503 189.366C152.503 189.366 147.329 185.122 149.36 180.157C150.095 178.364 151.407 175.992 155.402 175.313C161.12 174.343 164.342 177.616 164.342 177.616C164.342 177.616 163.437 171.929 169.204 170.719C174.97 169.51 187.55 178.714 189.973 179.929C191.851 180.873 194.893 183.112 197.623 184.761C198.332 185.186 199.025 185.573 199.665 185.881C202.654 188.061 203.559 191.504 205.067 192.464C205.492 192.704 205.976 192.818 206.464 192.792C206.951 192.765 207.421 192.6 207.818 192.316C207.918 192.469 208.013 192.618 208.093 192.761C209.293 194.942 212.193 204.177 203.014 208.994Z" stroke="#443D78" stroke-linecap="round" stroke-linejoin="round"/>
<path d="M164.357 177.653C165.166 179.52 172.515 186.141 175.689 188.082C178.863 190.024 187.713 199.711 190.29 200.994C192.866 202.278 195.12 206.326 198.178 207.297" stroke="#443D78" stroke-linecap="round" stroke-linejoin="round"/>
<path d="M152.522 189.377C156.95 193.09 161.944 199.387 164.357 201.164C166.769 202.941 172.25 209.079 174.668 212.145C177.085 215.212 178.693 217.312 188.195 218.607" stroke="#443D78" stroke-linecap="round" stroke-linejoin="round"/>
<path d="M191.56 209.238C191.56 209.238 190.92 215.074 182.038 216.182" stroke="#443D78" stroke-linecap="round" stroke-linejoin="round"/>
<path d="M202.209 192.464C202.209 192.464 204.621 199.387 198.178 201.97" stroke="#443D78" stroke-linecap="round" stroke-linejoin="round"/>
<path d="M149.143 208.511C149.143 208.511 155.39 213.758 157.94 215.212C160.49 216.665 163.876 220.543 166.452 221.349C168.138 221.817 169.919 221.817 171.605 221.349" stroke="#443D78" stroke-linecap="round" stroke-linejoin="round"/>
<path d="M178.281 215.747C177.617 216.865 176.735 217.837 175.689 218.607" stroke="#443D78" stroke-linecap="round" stroke-linejoin="round"/>
<path d="M152.522 185.86C153.203 184.175 154.267 182.674 155.631 181.476C156.994 180.278 158.618 179.418 160.373 178.963C160.373 178.963 166.293 183.08 166.293 186.475C166.293 189.87 164.008 192.485 159.775 191.175C155.543 189.865 152.522 185.86 152.522 185.86Z" fill="white" stroke="#443D78" stroke-linecap="round" stroke-linejoin="round"/>
<path d="M167.256 177.653C167.256 177.653 169.679 174.502 173.42 173.531C173.42 173.531 181.217 179.467 178.281 182.618C175.345 185.769 168.468 181.743 167.256 177.653Z" fill="white" stroke="#443D78" stroke-linecap="round" stroke-linejoin="round"/>
<path d="M145.153 200.761C145.153 200.761 148.132 196.077 152.523 194.825C152.523 194.825 161.58 199.955 156.993 203.992C152.406 208.029 146.243 202.941 145.153 200.761Z" fill="white" stroke="#443D78" stroke-linecap="round" stroke-linejoin="round"/>
<path d="M147.28 215.954C147.28 215.954 151.481 215.1 152.512 211.259C152.512 211.259 156.808 214.586 154.332 217.174C150.692 220.989 147.28 215.954 147.28 215.954Z" fill="white" stroke="#443D78" stroke-linecap="round" stroke-linejoin="round"/>
<path d="M184.048 190.464C184.784 190.055 185.417 189.483 185.899 188.79C186.38 188.098 186.697 187.304 186.825 186.47" stroke="#443D78" stroke-linecap="round" stroke-linejoin="round"/>
<path d="M176.44 194.825C176.44 194.825 175.503 200.13 170.356 201" stroke="#443D78" stroke-linecap="round" stroke-linejoin="round"/>
<path d="M163.522 207.302C163.522 207.302 161.406 210.373 158.295 211.259" stroke="#443D78" stroke-linecap="round" stroke-linejoin="round"/>
<path d="M165.426 220.898C164.556 222.164 163.35 223.16 161.945 223.774" stroke="#443D78" stroke-linecap="round" stroke-linejoin="round"/>
<path d="M169.225 221.71C169.279 222.072 169.261 222.441 169.17 222.796C169.079 223.15 168.918 223.483 168.696 223.774" stroke="#443D78" stroke-linecap="round" stroke-linejoin="round"/>
<path d="M154.216 222.744C155.257 222.657 156.265 222.335 157.164 221.801C158.063 221.267 158.829 220.536 159.406 219.662" stroke="#443D78" stroke-linecap="round" stroke-linejoin="round"/>
</svg>
