<svg width="304" height="235" viewBox="0 0 304 235" fill="none" xmlns="http://www.w3.org/2000/svg">
<path d="M176.643 204.413C176.643 204.413 224.575 206.648 254.895 152.609C285.214 98.5701 249.539 48.8607 194.428 38.1192C139.317 27.3777 111.861 -12.9536 62.74 17.9198C13.6193 48.7932 40.9161 213.214 176.643 204.413Z" fill="#A9E8CB"/>
<path opacity="0.4" d="M176.643 204.413C176.643 204.413 224.575 206.648 254.895 152.609C285.214 98.5701 249.539 48.8607 194.428 38.1192C139.317 27.3777 111.861 -12.9536 62.74 17.9198C13.6193 48.7932 40.9161 213.214 176.643 204.413Z" fill="white"/>
<path d="M153.009 228.5C216.793 228.5 268.5 225.302 268.5 221.357C268.5 217.413 216.793 214.215 153.009 214.215C89.2252 214.215 37.5181 217.413 37.5181 221.357C37.5181 225.302 89.2252 228.5 153.009 228.5Z" fill="#A9E8CB"/>
<path opacity="0.7" d="M153.009 228.5C216.793 228.5 268.5 225.302 268.5 221.357C268.5 217.413 216.793 214.215 153.009 214.215C89.2252 214.215 37.5181 217.413 37.5181 221.357C37.5181 225.302 89.2252 228.5 153.009 228.5Z" fill="white"/>
<path d="M178.293 33.2122L177.96 36.025L179.487 36.5655C179.509 37.5296 179.644 38.488 179.887 39.4213L178.564 40.3793L179.678 42.9895L181.285 42.6885C181.785 43.5121 182.38 44.2747 183.058 44.9609L182.387 46.4594L184.665 48.1545L185.896 47.1104C186.742 47.5757 187.641 47.9385 188.574 48.1913L188.746 49.8188L191.56 50.1566L192.107 48.6274C193.074 48.6053 194.035 48.4713 194.97 48.2282L195.937 49.5425L198.559 48.4186L198.27 46.8218C199.093 46.3219 199.855 45.7283 200.542 45.053L202.044 45.7224L203.743 43.4501L202.69 42.2218C203.157 41.38 203.521 40.4851 203.774 39.5564L205.405 39.3844L205.744 36.5716L204.211 36.025C204.192 35.0626 204.057 34.1059 203.81 33.1753L205.14 32.2111L204.02 29.601L202.419 29.8958C201.916 29.0743 201.319 28.3138 200.64 27.6296L201.305 26.1372L199.009 24.4667L197.777 25.5169C196.935 25.0569 196.043 24.6942 195.118 24.436L194.946 22.8085L192.126 22.4768L191.578 23.9999C190.613 24.0237 189.655 24.1597 188.722 24.4053L187.755 23.0848L185.139 24.1964L185.434 25.7932C184.614 26.2857 183.854 26.871 183.169 27.5374L181.673 26.8741L179.967 29.1465L181.02 30.3748C180.554 31.2194 180.19 32.1162 179.937 33.0464L178.293 33.2122ZM184.837 35.4661C185.002 34.0832 185.574 32.7801 186.482 31.7218C187.389 30.6636 188.591 29.8977 189.935 29.5212C191.279 29.1447 192.705 29.1744 194.032 29.6067C195.359 30.039 196.528 30.8543 197.391 31.9495C198.253 33.0447 198.77 34.3706 198.877 35.7592C198.984 37.1479 198.675 38.5369 197.99 39.7504C197.305 40.964 196.275 41.9476 195.029 42.5766C193.784 43.2057 192.379 43.452 190.993 43.2843C189.139 43.0599 187.449 42.1107 186.295 40.6451C185.141 39.1794 184.616 37.3169 184.837 35.4661Z" stroke="#443D78" stroke-width="1.57112" stroke-linejoin="round"/>
<path d="M104.744 102.427L104.442 104.976L105.828 105.467C105.847 106.34 105.969 107.208 106.191 108.053L104.96 108.925L105.969 111.289L107.422 111.013C107.877 111.758 108.416 112.448 109.029 113.07L108.413 114.428L110.525 115.975L111.639 115.023C112.405 115.447 113.219 115.777 114.065 116.006L114.218 117.48L116.773 117.787L117.266 116.399C118.141 116.381 119.011 116.259 119.858 116.037L120.732 117.234L123.096 116.221L122.837 114.747C123.584 114.293 124.276 113.756 124.9 113.144L126.26 113.758L127.799 111.707L126.845 110.583C127.268 109.82 127.599 109.01 127.83 108.169L129.307 108.01L129.609 105.461L128.224 104.97C128.205 104.097 128.083 103.229 127.861 102.384L129.092 101.512L128.076 99.1475L126.629 99.4116C126.17 98.67 125.627 97.9837 125.01 97.3664L125.626 96.0092L123.514 94.4799L122.394 95.4319C121.631 95.0119 120.821 94.6841 119.981 94.4554L119.827 92.9814L117.272 92.6743L116.779 94.0623C115.904 94.0812 115.034 94.2028 114.188 94.4247L113.314 93.2516L110.943 94.2588L111.208 95.7082C110.461 96.1613 109.769 96.6992 109.146 97.3112L107.785 96.697L106.246 98.7544L107.2 99.8722C106.778 100.638 106.448 101.45 106.215 102.292L104.744 102.427ZM110.673 104.466C110.823 103.214 111.341 102.035 112.163 101.077C112.985 100.12 114.073 99.4266 115.29 99.0857C116.506 98.7448 117.797 98.7714 118.998 99.1622C120.2 99.553 121.258 100.29 122.039 101.281C122.821 102.272 123.29 103.471 123.388 104.728C123.486 105.985 123.209 107.243 122.59 108.342C121.972 109.442 121.041 110.334 119.915 110.905C118.788 111.477 117.517 111.702 116.262 111.553C114.579 111.352 113.046 110.492 111.997 109.164C110.949 107.835 110.473 106.145 110.673 104.466Z" fill="#443D78"/>
<path d="M234.93 164.954V159.175L231.698 158.444C231.424 156.495 230.92 154.587 230.196 152.757L232.658 150.49L229.753 145.454L226.576 146.456C225.36 144.91 223.967 143.51 222.427 142.285L223.43 139.086L218.401 136.193L216.154 138.607C214.325 137.87 212.416 137.353 210.465 137.065L209.726 133.81H203.933L203.195 137.041C201.241 137.311 199.327 137.814 197.494 138.539L195.222 136.082L190.205 138.969L191.184 142.138C189.634 143.349 188.232 144.736 187.004 146.271L183.803 145.282L180.909 150.282L183.335 152.536C182.597 154.358 182.079 156.261 181.789 158.204L178.527 158.947V164.727L181.759 165.463C182.036 167.409 182.54 169.316 183.261 171.144L180.798 173.417L183.698 178.434L186.868 177.458C188.088 179 189.484 180.393 191.03 181.61L190.039 184.809L195.075 187.702L197.322 185.245C199.139 185.983 201.039 186.502 202.979 186.793L203.718 190.048H209.517L210.25 186.824C212.204 186.544 214.12 186.037 215.957 185.313L218.228 187.769L223.258 184.877L222.279 181.714C223.83 180.504 225.233 179.117 226.459 177.581L229.66 178.569L232.56 173.546L230.128 171.298C230.865 169.473 231.386 167.569 231.68 165.623L234.93 164.954ZM224.914 161.969C224.914 165.557 223.847 169.065 221.849 172.048C219.851 175.032 217.011 177.357 213.688 178.73C210.365 180.103 206.708 180.462 203.181 179.762C199.653 179.062 196.413 177.335 193.869 174.797C191.326 172.26 189.594 169.027 188.892 165.508C188.191 161.989 188.551 158.341 189.927 155.026C191.304 151.711 193.634 148.878 196.625 146.884C199.616 144.891 203.132 143.827 206.728 143.827C211.551 143.827 216.177 145.738 219.587 149.141C222.998 152.543 224.914 157.157 224.914 161.969Z" fill="white"/>
<path d="M134.276 21.488H119.353V24.9211H134.276V21.488Z" fill="#A9E8CB"/>
<path d="M129.16 26.4504H119.353V29.8835H129.16V26.4504Z" fill="#A9E8CB"/>
<path d="M124.998 31.4127H119.353V34.8458H124.998V31.4127Z" fill="#A9E8CB"/>
<path opacity="0.2" d="M134.276 21.488H119.353V24.9211H134.276V21.488Z" fill="black"/>
<path opacity="0.2" d="M129.16 26.4504H119.353V29.8835H129.16V26.4504Z" fill="black"/>
<path opacity="0.2" d="M124.998 31.4127H119.353V34.8458H124.998V31.4127Z" fill="black"/>
<path d="M98.5018 59.5163H93.4414V69.8586H98.5018V59.5163Z" fill="#A9E8CB"/>
<path d="M105.809 63.0722H100.749V69.8647H105.809V63.0722Z" fill="#A9E8CB"/>
<path d="M113.123 65.9526H108.062V69.8647H113.123V65.9526Z" fill="#A9E8CB"/>
<path opacity="0.2" d="M98.5018 59.5163H93.4414V69.8586H98.5018V59.5163Z" fill="black"/>
<path opacity="0.2" d="M105.809 63.0722H100.749V69.8647H105.809V63.0722Z" fill="black"/>
<path opacity="0.2" d="M113.123 65.9526H108.062V69.8647H113.123V65.9526Z" fill="black"/>
<path d="M153.582 77.689H92.3085C91.4675 77.6906 90.6345 77.5267 89.857 77.2068C89.0795 76.8868 88.373 76.4171 87.7777 75.8244C87.1824 75.2317 86.7102 74.5277 86.388 73.7527C86.0658 72.9777 85.8999 72.147 85.8999 71.308V20.8431C85.9032 19.1518 86.5781 17.5306 87.7769 16.3347C88.9758 15.1387 90.6008 14.4654 92.2962 14.4621H153.569C154.41 14.4613 155.243 14.6257 156.02 14.946C156.797 15.2662 157.503 15.736 158.098 16.3285C158.693 16.9211 159.166 17.6247 159.488 18.3994C159.811 19.174 159.977 20.0044 159.978 20.8431V71.308C159.978 73.0003 159.304 74.6233 158.104 75.82C156.905 77.0167 155.278 77.689 153.582 77.689ZM92.3085 15.0456C90.7617 15.0488 89.2792 15.6633 88.1854 16.7544C87.0916 17.8456 86.4757 19.3246 86.4724 20.8677V71.3325C86.4757 72.8757 87.0916 74.3547 88.1854 75.4458C89.2792 76.537 90.7617 77.1514 92.3085 77.1547H153.582C155.128 77.1514 156.611 76.537 157.705 75.4458C158.799 74.3547 159.414 72.8757 159.418 71.3325V20.8431C159.414 19.3 158.799 17.821 157.705 16.7299C156.611 15.6387 155.128 15.0242 153.582 15.021L92.3085 15.0456Z" fill="#443D78"/>
<path d="M152.794 59.7988H130.945V60.3577H152.794V59.7988Z" fill="#443D78"/>
<path d="M152.794 62.1387H130.945V62.6976H152.794V62.1387Z" fill="#443D78"/>
<path d="M152.794 64.4725H130.945V65.0314H152.794V64.4725Z" fill="#443D78"/>
<path d="M152.794 66.8063H130.945V67.3652H152.794V66.8063Z" fill="#443D78"/>
<path d="M152.794 69.14H130.945V69.6989H152.794V69.14Z" fill="#443D78"/>
<path d="M114.619 21.7214H92.77V22.2803H114.619V21.7214Z" fill="#443D78"/>
<path d="M114.619 24.0552H92.77V24.6141H114.619V24.0552Z" fill="#443D78"/>
<path d="M114.619 26.3889H92.77V26.9478H114.619V26.3889Z" fill="#443D78"/>
<path d="M114.619 28.7227H92.77V29.2816H114.619V28.7227Z" fill="#443D78"/>
<path d="M114.619 31.0565H92.77V31.6154H114.619V31.0565Z" fill="#443D78"/>
<path d="M148.478 40.5759L152.394 42.6271L151.944 31.6092L142.605 37.5051L146.521 39.5502L143.572 45.1451C143.052 45.1445 142.547 45.3175 142.137 45.6365L136.935 43.2351V43.2044C136.958 42.5783 136.732 41.9686 136.307 41.5073C135.882 41.046 135.292 40.7701 134.665 40.7394C134.038 40.7087 133.424 40.9257 132.956 41.3434C132.488 41.761 132.203 42.3458 132.164 42.971C132.158 43.0487 132.158 43.1267 132.164 43.2044C132.167 43.5453 132.241 43.8818 132.38 44.1932L125.608 51.563C125.391 51.495 125.164 51.4598 124.937 51.4586C124.819 51.4587 124.701 51.4711 124.586 51.4955L114.834 39.1449C115.057 38.5738 115.05 37.939 114.815 37.3729C114.58 36.8067 114.135 36.3531 113.572 36.1067C113.01 35.8602 112.374 35.84 111.797 36.0502C111.22 36.2604 110.747 36.6848 110.476 37.2349C110.341 37.532 110.272 37.8545 110.273 38.1807C110.28 38.4247 110.322 38.6666 110.396 38.8992L99.2837 50.261C98.8417 50.1019 98.3624 50.0768 97.9061 50.1888C97.4498 50.3008 97.0369 50.5449 96.7193 50.8904C96.4017 51.2359 96.1936 51.6674 96.1212 52.1306C96.0488 52.5938 96.1154 53.068 96.3124 53.4936C96.5095 53.9191 96.8283 54.2771 97.2288 54.5223C97.6293 54.7676 98.0935 54.8892 98.5631 54.8719C99.0327 54.8546 99.4867 54.6992 99.868 54.4251C100.249 54.1511 100.541 53.7707 100.706 53.3318C100.799 53.0695 100.847 52.7933 100.847 52.515C100.848 52.3197 100.821 52.1254 100.767 51.9377L112.003 40.4346C112.223 40.5076 112.454 40.545 112.686 40.5451C112.833 40.5461 112.979 40.5317 113.123 40.5022L122.819 52.7852C122.515 53.3455 122.446 54.0035 122.627 54.6146C122.809 55.2256 123.227 55.7395 123.789 56.0432C124.35 56.347 125.01 56.4158 125.622 56.2344C126.235 56.053 126.75 55.6363 127.055 55.076C127.227 54.7644 127.325 54.4179 127.344 54.0626C127.35 53.9829 127.35 53.9028 127.344 53.8231C127.34 53.5747 127.299 53.3283 127.221 53.0923L134.153 45.5628C134.285 45.5872 134.419 45.5995 134.553 45.5996C135.027 45.5994 135.49 45.4583 135.883 45.1943L141.177 47.6509C141.187 47.9663 141.259 48.2766 141.39 48.5638C141.522 48.8509 141.709 49.1092 141.941 49.3234C142.173 49.5376 142.446 49.7036 142.743 49.8115C143.04 49.9195 143.356 49.9673 143.672 49.9522C143.988 49.9371 144.298 49.8594 144.583 49.7236C144.869 49.5878 145.125 49.3967 145.335 49.1613C145.546 48.9259 145.708 48.6511 145.811 48.3527C145.914 48.0544 145.956 47.7385 145.936 47.4236C145.913 46.9825 145.765 46.5569 145.511 46.1953L148.478 40.5759Z" fill="#443D78"/>
<path d="M153.723 84.2052C152.759 84.2068 151.836 84.5899 151.155 85.2704C150.474 85.951 150.091 86.8732 150.091 87.8348V119.285C150.091 120.247 150.474 121.168 151.155 121.848C151.836 122.527 152.76 122.909 153.723 122.909H191.892C192.856 122.909 193.78 122.527 194.462 121.848C195.145 121.169 195.529 120.247 195.53 119.285V87.8164C195.529 86.8548 195.145 85.9332 194.462 85.2538C193.78 84.5745 192.856 84.1929 191.892 84.1929L153.723 84.2052Z" stroke="#443D78" stroke-linejoin="round"/>
<path d="M156.001 88.492H153.102V88.8789H156.001V88.492Z" fill="#443D78"/>
<path d="M156.001 91.6487H153.102V92.0356H156.001V91.6487Z" fill="#443D78"/>
<path d="M156.001 94.8054H153.102V95.1923H156.001V94.8054Z" fill="#443D78"/>
<path d="M156.001 97.9683H153.102V98.3552H156.001V97.9683Z" fill="#443D78"/>
<path d="M155.89 91.6487H152.991V92.0356H155.89V91.6487Z" fill="#443D78"/>
<path d="M156.001 101.125H153.102V101.512H156.001V101.125Z" fill="#443D78"/>
<path d="M175.018 118.211C177.769 118.267 180.475 117.508 182.794 116.03C185.113 114.552 186.94 112.42 188.043 109.905C189.147 107.391 189.479 104.606 188.995 101.903C188.512 99.2005 187.236 96.7017 185.328 94.723C183.421 92.7443 180.967 91.3746 178.279 90.7874C175.591 90.2002 172.789 90.4218 170.227 91.4242C167.665 92.4266 165.459 94.1646 163.887 96.4184C162.316 98.6722 161.45 101.34 161.4 104.085C161.331 107.759 162.726 111.31 165.279 113.959C167.832 116.607 171.335 118.137 175.018 118.211ZM175.504 94.5413C177.452 94.5806 179.344 95.1952 180.942 96.3075C182.539 97.4198 183.771 98.9797 184.48 100.79C185.188 102.6 185.343 104.58 184.925 106.478C184.506 108.376 183.532 110.108 182.127 111.454C180.722 112.8 178.948 113.7 177.03 114.04C175.111 114.381 173.135 114.146 171.351 113.366C169.566 112.585 168.054 111.295 167.005 109.657C165.956 108.02 165.417 106.108 165.457 104.165C165.51 101.56 166.599 99.0824 168.483 97.2777C170.367 95.4729 172.892 94.4887 175.504 94.5413Z" fill="#A9E8CB"/>
<path opacity="0.2" d="M175.018 118.211C177.769 118.267 180.475 117.508 182.794 116.03C185.113 114.552 186.94 112.42 188.043 109.905C189.147 107.391 189.479 104.606 188.995 101.903C188.512 99.2005 187.236 96.7017 185.328 94.723C183.421 92.7443 180.967 91.3746 178.279 90.7874C175.591 90.2002 172.789 90.4218 170.227 91.4242C167.665 92.4266 165.459 94.1646 163.887 96.4184C162.316 98.6722 161.45 101.34 161.4 104.085C161.331 107.759 162.726 111.31 165.279 113.959C167.832 116.607 171.335 118.137 175.018 118.211ZM175.504 94.5413C177.452 94.5806 179.344 95.1952 180.942 96.3075C182.539 97.4198 183.771 98.9797 184.48 100.79C185.188 102.6 185.343 104.58 184.925 106.478C184.506 108.376 183.532 110.108 182.127 111.454C180.722 112.8 178.948 113.7 177.03 114.04C175.111 114.381 173.135 114.146 171.351 113.366C169.566 112.585 168.054 111.295 167.005 109.657C165.956 108.02 165.417 106.108 165.457 104.165C165.51 101.56 166.599 99.0824 168.483 97.2777C170.367 95.4729 172.892 94.4887 175.504 94.5413Z" fill="black"/>
<path d="M165.315 114.268C166.625 115.585 168.181 116.633 169.896 117.35C171.611 118.068 173.451 118.441 175.311 118.449C177.17 118.457 179.013 118.1 180.734 117.397C182.456 116.694 184.021 115.66 185.342 114.354C185.39 114.3 185.417 114.23 185.417 114.157C185.417 114.085 185.39 114.015 185.342 113.961L182.454 111.062C182.429 111.035 182.398 111.014 182.365 110.999C182.331 110.984 182.294 110.976 182.257 110.976C182.183 110.98 182.112 111.008 182.054 111.056C181.146 111.964 180.062 112.678 178.868 113.155C177.674 113.631 176.395 113.859 175.11 113.826H174.427C172.337 113.709 170.344 112.908 168.757 111.547C168.615 111.418 168.467 111.289 168.332 111.154C166.71 109.539 165.713 107.404 165.516 105.126C165.318 102.848 165.934 100.574 167.255 98.7052C167.267 98.6882 167.277 98.6696 167.285 98.65C167.347 98.564 167.415 98.4903 167.489 98.4043C168.435 97.208 169.657 96.2565 171.05 95.6301C172.443 95.0037 173.966 94.7208 175.492 94.8054C175.528 94.8062 175.564 94.7999 175.598 94.7867C175.632 94.7736 175.663 94.7539 175.689 94.7288C175.716 94.7037 175.737 94.6737 175.751 94.6405C175.766 94.6072 175.774 94.5714 175.775 94.5352L175.855 90.4633C175.857 90.3894 175.829 90.3178 175.778 90.2639C175.728 90.2099 175.658 90.1779 175.584 90.1747C172.766 90.1274 169.998 90.9203 167.634 92.4517C165.27 93.9832 163.419 96.1835 162.316 98.7711C161.213 101.359 160.909 104.216 161.444 106.976C161.978 109.737 163.326 112.276 165.315 114.268Z" fill="#443D78"/>
<path d="M175.59 90.1808C179.427 90.1849 183.106 91.709 185.817 94.418C188.528 97.127 190.05 100.799 190.048 104.627C190.046 108.455 188.52 112.126 185.806 114.832C183.092 117.538 179.412 119.058 175.575 119.058C171.737 119.058 168.057 117.538 165.343 114.832C162.629 112.126 161.103 108.455 161.101 104.627C161.099 100.799 162.621 97.127 165.332 94.418C168.043 91.709 171.722 90.1849 175.559 90.1808H175.59ZM175.024 117.922C177.719 117.977 180.37 117.234 182.642 115.786C184.914 114.338 186.705 112.25 187.787 109.787C188.87 107.324 189.195 104.595 188.724 101.947C188.252 99.2994 187.003 96.8504 185.136 94.9103C183.269 92.9702 180.867 91.6262 178.234 91.0481C175.601 90.47 172.855 90.6839 170.344 91.6628C167.833 92.6416 165.669 94.3414 164.126 96.5471C162.583 98.7529 161.731 101.365 161.677 104.055C161.604 107.659 162.969 111.146 165.472 113.747C167.975 116.349 171.41 117.852 175.024 117.928V117.922ZM175.51 94.2527C177.509 94.2932 179.451 94.9241 181.09 96.0658C182.73 97.2074 183.993 98.8084 184.721 100.666C185.448 102.524 185.607 104.556 185.177 106.503C184.747 108.451 183.748 110.228 182.305 111.61C180.863 112.991 179.042 113.915 177.074 114.264C175.105 114.613 173.077 114.372 171.246 113.571C169.415 112.77 167.863 111.445 166.787 109.765C165.71 108.084 165.157 106.122 165.198 104.128C165.253 101.455 166.37 98.9122 168.304 97.0602C170.238 95.2082 172.83 94.1984 175.51 94.2527ZM175.11 113.85C176.998 113.889 178.855 113.368 180.447 112.353C182.038 111.339 183.292 109.876 184.05 108.15C184.808 106.425 185.036 104.514 184.706 102.659C184.375 100.804 183.5 99.0884 182.192 97.7294C180.884 96.3704 179.202 95.4289 177.357 95.0239C175.513 94.6189 173.589 94.7687 171.83 95.4543C170.071 96.1399 168.555 97.3305 167.475 98.8756C166.394 100.421 165.797 102.251 165.759 104.134C165.709 106.659 166.666 109.099 168.42 110.92C170.173 112.741 172.579 113.792 175.11 113.844V113.85Z" fill="#443D78"/>
<path d="M103.55 134.48V171.734" stroke="#443D78" stroke-width="0.879169" stroke-linecap="round" stroke-linejoin="round"/>
<path d="M109.552 148.537H106.382V169.867H109.552V148.537Z" fill="#443D78"/>
<path d="M114.083 157.24H110.913V169.861H114.083V157.24Z" fill="#A9E8CB"/>
<path d="M119.408 141.641H116.238V169.867H119.408V141.641Z" fill="white" stroke="#443D78" stroke-width="0.879169" stroke-linejoin="round"/>
<path d="M128.249 137.569H125.078V169.861H128.249V137.569Z" fill="#443D78"/>
<path d="M132.786 161.877H129.615V169.867H132.786V161.877Z" fill="#A9E8CB"/>
<path d="M138.111 150.798H134.94V169.867H138.111V150.798Z" fill="white" stroke="#443D78" stroke-width="0.879169" stroke-linejoin="round"/>
<path d="M151.027 153.715H147.856V169.861H151.027V153.715Z" fill="#443D78"/>
<path d="M155.564 141.186H152.394V169.861H155.564V141.186Z" fill="#A9E8CB"/>
<path d="M160.889 147.518H157.719V169.861H160.889V147.518Z" fill="white" stroke="#443D78" stroke-width="0.879169" stroke-linejoin="round"/>
<path d="M100.146 164.929H101.919" stroke="#443D78" stroke-width="0.879169" stroke-linecap="round" stroke-linejoin="round"/>
<path d="M100.146 160.329H101.919" stroke="#443D78" stroke-width="0.879169" stroke-linecap="round" stroke-linejoin="round"/>
<path d="M100.146 155.735H101.919" stroke="#443D78" stroke-width="0.879169" stroke-linecap="round" stroke-linejoin="round"/>
<path d="M100.146 151.135H101.919" stroke="#443D78" stroke-width="0.879169" stroke-linecap="round" stroke-linejoin="round"/>
<path d="M100.146 146.535H101.919" stroke="#443D78" stroke-width="0.879169" stroke-linecap="round" stroke-linejoin="round"/>
<path d="M100.146 141.935H101.919" stroke="#443D78" stroke-width="0.879169" stroke-linecap="round" stroke-linejoin="round"/>
<path d="M100.146 137.335H101.919" stroke="#443D78" stroke-width="0.879169" stroke-linecap="round" stroke-linejoin="round"/>
<path d="M101.451 169.867H163.112" stroke="#443D78" stroke-width="0.879169" stroke-linecap="round" stroke-linejoin="round"/>
<path opacity="0.3" d="M114.083 157.24H110.913V169.861H114.083V157.24Z" fill="black"/>
<path opacity="0.3" d="M132.786 161.877H129.615V169.867H132.786V161.877Z" fill="black"/>
<path opacity="0.3" d="M155.564 141.186H152.394V169.861H155.564V141.186Z" fill="black"/>
<path d="M97.6273 129.308C96.5649 129.31 95.5465 129.732 94.7953 130.481C94.044 131.231 93.6213 132.247 93.6196 133.307V169.855C93.6213 170.915 94.0438 171.932 94.7949 172.682C95.5459 173.433 96.5644 173.856 97.6273 173.859H165.623C166.687 173.856 167.706 173.433 168.458 172.683C169.21 171.932 169.634 170.916 169.637 169.855V133.294C169.635 132.233 169.212 131.215 168.459 130.465C167.707 129.714 166.687 129.292 165.623 129.29L97.6273 129.308Z" stroke="#443D78" stroke-linejoin="round"/>
<path d="M43.8219 211.009C43.8219 211.009 45.244 220.479 41.8026 221.45C38.3613 222.42 35.9727 221.142 35.5417 219.724C35.1108 218.305 38.1581 208.172 38.1581 208.172L43.8219 211.009Z" fill="white"/>
<path d="M103.679 213.103L118.639 216.641C118.639 216.641 119.771 217.255 119.648 218.268C119.525 219.282 112.698 221.879 110.783 222.205C108.869 222.53 97.8182 223.968 96.2484 222.623C94.6786 221.278 97.9968 210.555 97.9968 210.555L103.679 213.103Z" fill="white"/>
<path d="M76.5917 40.3855C76.5917 40.3855 78.6971 43.5545 78.7279 45.1574C78.7587 46.7604 78.5617 48.5906 79.5467 49.5363C80.5317 50.4821 81.2889 51.5139 80.8826 51.9929C80.4763 52.472 79.6945 53.4055 79.6945 53.4055C79.6945 53.4055 80.7102 58.8039 79.3928 59.7804C78.0754 60.7569 74.1169 59.7804 74.1169 59.7804V63.2688C74.1169 63.2688 68.4901 61.4263 64.6055 61.7702L63.916 54.296C63.916 54.296 72.3562 38.107 76.5917 40.3855Z" fill="white"/>
<path d="M111.202 62.4704C111.202 62.4704 110.697 58.6381 112.569 56.3289C112.569 56.3289 110.328 55.9481 110.599 55.1374C110.87 54.3268 114.293 55.3893 114.293 55.3893L113.369 53.5468C113.369 53.5468 110.137 52.4782 110.537 51.4771C110.937 50.476 115.678 52.9388 115.678 52.9388C115.678 52.9388 112.864 50.5927 113.258 49.6162C113.652 48.6397 116.515 48.6582 118.042 53.7188L118.817 52.7545C118.817 52.7545 119.094 46.9938 119.889 46.6806C119.889 46.6806 121.12 47.3562 121.12 50.6664C121.12 50.6664 122.351 52.1465 121.569 53.3994C120.787 54.6523 118.947 57.4712 117.383 58.5276C115.819 59.5839 115.825 63.7049 115.825 63.7049L111.202 62.4704Z" fill="white"/>
<path d="M61.6566 30.9707L62.3645 30.0249C62.3645 30.0249 70.2876 26.4997 70.0906 25.4004C69.8936 24.301 65.4057 25.818 64.55 25.2345C64.55 25.2345 65.3688 14.8308 64.55 14.493C63.7312 14.1553 62.8201 19.3755 62.8201 19.3755C62.8201 19.3755 61.6689 14.0201 60.7824 14.1737C59.8959 14.3272 60.2653 19.701 60.2653 19.701C60.2653 19.701 58.5723 16.2557 57.9136 16.575C57.2549 16.8944 58.2399 21.0952 58.2399 21.0952C58.2399 21.0952 57.0086 19.6519 56.5161 20.088C56.6783 22.2579 57.2749 24.3733 58.2706 26.3093L56.5592 29.1958L61.6566 30.9707Z" fill="white"/>
<path d="M110.346 62.495L115.807 63.2565C115.807 63.2565 111.811 97.0348 110.636 101.205C109.46 105.375 108.401 108.372 104.387 108.575C100.373 108.777 86.0722 96.783 86.0722 96.783L85.4073 113.365L86.3369 120.244C86.3369 120.244 68.8471 129.413 51.0617 121.435L51.4618 113.365L45.0532 76.4546L40.0112 58.9268L56.2822 28.1516L62.1798 31.2224L51.7758 59.2338L54.6877 68.5874L57.9444 67.2854L61.5458 62.7038C61.5458 62.7038 67.6527 59.5409 75.3788 63.9321L76.6101 67.7767C76.6101 67.7767 85.6721 68.4584 100.97 89.6159L110.346 62.495Z" fill="#A9E8CB"/>
<path opacity="0.2" d="M71.3096 62.495L71.9991 67.2239C71.9991 67.2239 77.0841 70.5895 79.128 71.7564C79.128 71.7564 84.1269 103.25 80.427 109.447L76.5301 115.533C76.5301 115.533 80.5131 115.533 82.3477 112.751C82.3477 112.751 80.0637 120.354 74.1414 122.399C74.1414 122.399 83.2342 121.453 86.3616 120.25L85.432 113.371L86.9279 75.0175C86.9279 75.0175 88.3377 72.4504 76.6162 67.8504L74.8863 63.7049L71.3096 62.495Z" fill="black"/>
<path d="M76.5915 40.8154C76.5915 40.8154 78.4999 43.6037 78.7277 45.1575C78.9555 46.7113 78.2783 48.4248 79.5465 49.5364C80.8147 50.648 81.3934 51.3788 80.8824 51.993C80.3714 52.6071 79.6943 53.4055 79.6943 53.4055C79.6943 53.4055 80.2114 58.6688 79.3926 59.7804C78.5738 60.892 74.1167 59.7804 74.1167 59.7804V63.2688" stroke="#443D78" stroke-linecap="round" stroke-linejoin="round"/>
<path d="M74.1166 53.1721C74.1166 53.1721 72.3313 48.5721 70.9953 49.6837C69.6594 50.7954 70.8476 56.8755 74.1166 55.5427" stroke="#443D78" stroke-linecap="round" stroke-linejoin="round"/>
<path d="M73.6305 52.1035C73.6305 52.1035 75.7544 51.9316 74.4123 46.9631C73.0703 41.9946 75.976 42.664 79.0972 41.2515C82.2184 39.8389 82.9634 37.2472 82.2923 35.6934C81.6213 34.1396 80.507 33.3166 76.567 34.0598C76.567 34.0598 72.2577 29.0913 68.096 34.5818C68.096 34.5818 58.7262 34.4344 56.2022 38.8809C53.6781 43.3273 57.021 54.6768 61.9275 58.46C66.834 62.2432 71.6297 59.2154 72.627 55.6595C72.627 55.6595 69.2842 53.86 70.9956 49.7083C70.9956 49.6838 72.5532 49.131 73.6305 52.1035Z" fill="#443D78"/>
<path d="M44.5669 73.6541C44.5669 73.6541 67.2403 57.2501 87.0018 73.6541L85.4074 113.341L86.337 120.219C86.337 120.219 69.6289 128.025 51.0617 121.41L51.4619 113.341L44.5669 73.6541Z" stroke="#443D78" stroke-linecap="round" stroke-linejoin="round"/>
<path d="M57.6426 67.6907L61.5456 62.7283C61.5456 62.7283 69.1978 60.0875 75.3787 63.9566L76.61 67.8012" stroke="#443D78" stroke-linecap="round" stroke-linejoin="round"/>
<path d="M87.0017 73.6541L106.745 96.304" stroke="#443D78" stroke-linecap="round" stroke-linejoin="round"/>
<path d="M86.0908 96.3224C86.0908 96.3224 99.1728 108.464 104.387 108.605C109.601 108.747 110.47 102.464 110.47 102.464L115.807 63.281L110.346 62.5195L100.952 89.6834" stroke="#443D78" stroke-linecap="round" stroke-linejoin="round"/>
<path d="M115.714 63.1582C115.714 63.1582 116.398 58.7302 118.177 57.723C119.956 56.7158 122.068 52.8098 121.39 51.6859C120.713 50.562 118.645 54.2162 116.779 54.9163C114.914 55.6164 113.4 59.0557 113.141 60.5481" stroke="#443D78" stroke-linecap="round" stroke-linejoin="round"/>
<path d="M120.818 51.5262C120.818 51.5262 120.818 46.4103 119.876 46.6499C118.934 46.8894 118.805 53.3687 118.805 53.3687" stroke="#443D78" stroke-linecap="round" stroke-linejoin="round"/>
<path d="M118.115 54.0258C118.115 54.0258 117.5 51.1577 115.807 49.7574C114.114 48.3572 113.055 49.1126 113.246 49.5855C113.437 50.0584 116.324 53.8845 116.256 55.1865" stroke="#443D78" stroke-linecap="round" stroke-linejoin="round"/>
<path d="M115.185 52.6071C115.185 52.6071 110.537 50.4821 110.525 51.7534C110.512 53.0247 113.357 53.5161 113.357 53.5161L114.28 55.3585C114.28 55.3585 110.365 54.1302 110.586 55.1067C110.808 56.0832 112.556 56.2982 112.556 56.2982C112.556 56.2982 110.654 58.1775 111.19 62.4397" stroke="#443D78" stroke-linecap="round" stroke-linejoin="round"/>
<path d="M83.6465 120.68L84.8347 128.983C84.8347 128.983 95.7743 161.723 97.4365 168.123C99.0987 174.522 100.053 189.004 100.515 195.643C100.976 202.282 104.824 213.453 104.824 213.453C104.824 213.453 104.35 217.961 96.2668 217.249C96.2668 217.249 92.9363 203.965 89.3718 196.134C85.8074 188.304 85.2841 176.426 85.2841 176.426L67.9235 144.638C67.9235 144.638 64.3713 163.148 61.9827 170.021C59.5202 177.108 42.7322 216.432 43.908 213.674C43.908 213.674 41.5317 215.099 36.5205 211.537C36.5205 211.537 40.085 199.678 41.033 193.272C41.9811 186.867 46.98 172.158 46.98 172.158C46.98 172.158 48.1681 144.404 50.0581 135.861C50.0581 135.861 48.8268 126.453 51.4555 119.808C61.8748 123.202 73.058 123.505 83.6465 120.68Z" fill="#443D78"/>
<path d="M58.4121 139.061L66.2059 141.321L67.3387 144.079" stroke="white" stroke-linecap="round" stroke-linejoin="round"/>
<path d="M96.4392 216.278C96.4392 216.278 95.3865 221.542 96.2483 222.623C96.7039 223.188 98.0583 223.083 98.7108 223.095C100.213 223.126 101.721 223.028 103.223 222.93C106.228 222.733 109.306 222.764 112.205 221.836C114.648 221.104 116.981 220.049 119.143 218.698C120.325 217.912 119.143 216.641 119.143 216.641L104.83 213.435" stroke="#443D78" stroke-linecap="round" stroke-linejoin="round"/>
<path d="M96.3652 220.768C96.3652 220.768 112.451 223.403 119.143 216.641" stroke="#443D78" stroke-linecap="round" stroke-linejoin="round"/>
<path d="M37.1424 211.009C37.1424 211.009 35.2956 217.329 35.5664 219.318C35.8373 221.308 37.8381 221.775 40.1775 221.72C42.5168 221.665 43.4772 220.621 43.822 219.042C44.1667 217.464 43.822 212.36 43.822 212.36" stroke="#443D78" stroke-linecap="round" stroke-linejoin="round"/>
<path d="M35.5417 218.354L43.8219 219.042" stroke="#443D78" stroke-linecap="round" stroke-linejoin="round"/>
<path d="M57.1563 28.3481C57.8581 27.0707 58.2706 26.2907 58.2706 26.2907C58.2706 26.2907 55.9866 20.7818 56.5591 20.1062C57.1317 19.4306 58.4553 21.3345 58.4553 21.3345C58.4553 21.3345 57.1009 16.9556 57.9566 16.581C58.8123 16.2064 60.3391 20.2659 60.3391 20.2659C60.3391 20.2659 59.9389 14.4008 60.8254 14.1244C61.7119 13.848 62.7769 19.7009 62.7769 19.7009C62.7769 19.7009 63.922 14.4929 64.6238 14.4437C65.3256 14.3946 64.6238 25.1852 64.6238 25.1852C66.0398 25.8792 70.2014 24.1842 70.1644 25.5537C70.1275 26.9233 62.1613 30.0739 62.1613 30.0739C62.022 30.2543 61.9003 30.4476 61.7981 30.6512" stroke="#443D78" stroke-linecap="round" stroke-linejoin="round"/>
<path d="M44.5668 73.6541L40.0112 58.9267L56.2822 28.17L62.1798 31.2469L51.7758 59.2584L54.6877 68.6119" stroke="#443D78" stroke-linecap="round" stroke-linejoin="round"/>
<path d="M45.0963 56.5991C45.0963 56.5991 50.9324 56.5499 51.7758 59.2584C49.2193 59.1166 46.6868 59.8157 44.5669 61.2482" stroke="#443D78" stroke-linecap="round" stroke-linejoin="round"/>
<path d="M64.3774 62.0896V57.8212" stroke="#443D78" stroke-linecap="round" stroke-linejoin="round"/>
<path opacity="0.2" d="M86.9032 85.5318L88.3622 95.2169C88.3622 95.2169 89.5565 88.8973 90.3014 88.8973C91.0463 88.8973 90.3014 96.304 90.3014 96.304C90.3014 96.304 102.54 107.359 107.834 107.42C107.834 107.42 104.892 109.484 101.943 107.948C98.994 106.413 86.0659 96.2794 86.0659 96.2794L86.9032 85.5318Z" fill="black"/>
<path opacity="0.2" d="M61.1333 30.7004L49.9413 57.8213C49.9413 57.8213 46.0444 57.7599 44.5669 61.2482L50.5508 60.1796L52.5638 69.3919L54.6878 68.5874L51.7758 59.2338L62.1799 31.2224L61.1333 30.7004Z" fill="black"/>
<path d="M215.372 78.3953L210.964 69.0049L193.64 80.422L207.935 105.688L219.084 99.3747L215.372 78.3953Z" fill="white"/>
<path d="M229.648 159.617C229.648 159.617 232.449 167.374 232.862 171.151C233.274 174.928 232.012 190.834 232.283 195.219C232.554 199.604 234.93 212.692 234.93 212.692C234.93 212.692 223.277 221.142 219.577 218.422C219.577 218.422 227.789 211.789 228.62 209.148L225.961 191.221L223.32 170.021C223.32 170.021 222.649 165.592 221.713 163.314C220.777 161.035 220.919 156.202 220.919 156.202L229.648 159.617Z" fill="white"/>
<path d="M229.402 158.929C229.402 158.929 232.431 167.097 233.138 172.962C233.846 178.827 231.716 192.13 232.418 198.536C233.12 204.941 233.84 208.485 235.084 211.857L234.468 221.751H232.874L232.258 216.137C232.258 216.137 229.759 215.099 228.244 218.692C226.73 222.285 221.134 222.758 218.48 220.676C218.48 220.676 218.48 219.067 220.475 217.648C222.47 216.229 227.678 211.795 228.626 209.148C228.626 209.148 225.782 190.724 225.117 184.754C224.452 178.784 223.412 167.932 222.082 164.432C220.752 160.931 220.758 155.926 220.758 155.926" stroke="#443D78" stroke-linecap="round" stroke-linejoin="round"/>
<path d="M234.475 210.002C234.475 210.002 226.662 218.477 220.106 218.422" stroke="#443D78" stroke-linecap="round" stroke-linejoin="round"/>
<path d="M219.576 218.422C220.66 218.542 221.757 218.405 222.778 218.023C224.544 217.408 230.904 214.338 234.031 210.462L234.992 211.549L234.487 221.523L232.88 221.751L232.264 216.137C232.264 216.137 230.208 215.198 228.885 217.507C227.561 219.816 226.607 221.4 224.292 221.91C221.977 222.42 218.487 220.682 218.487 220.682C218.487 220.682 217.877 219.767 219.576 218.422Z" fill="#443D78"/>
<path d="M235.096 159.881C235.83 162.574 236.722 165.221 237.768 167.81C239.165 171.009 251.238 203.369 251.238 203.369C251.238 203.369 252.155 220.885 257.296 220.829C262.436 220.774 257.092 208.589 257.092 208.589L253.965 201.913C253.965 201.913 252.771 182.304 251.293 175.093L245.002 158.186L235.096 159.881Z" fill="white"/>
<path d="M245.069 158.751C245.069 158.751 250.235 170.475 251.3 175.093C252.365 179.712 253.436 200.489 253.971 201.913C254.507 203.338 263.052 218.428 257.887 221.45C252.722 224.471 251.503 204.045 251.503 204.045C251.503 204.045 239.578 171.003 237.793 167.81C236.007 164.616 234.056 155.373 234.056 155.373L245.069 158.751Z" stroke="#443D78" stroke-linecap="round" stroke-linejoin="round"/>
<path d="M258.89 213.705C258.89 213.705 258.533 217.795 257.179 218.373C255.824 218.95 252.833 214.338 252.833 214.338" stroke="#443D78" stroke-linecap="round" stroke-linejoin="round"/>
<path d="M252.845 215.044C252.845 215.044 254.692 222.021 257.154 221.726C259.617 221.431 260.06 217.556 258.896 214.565C258.896 214.565 258.484 217.636 257.185 218.373C255.874 218.391 252.845 215.044 252.845 215.044Z" fill="#443D78"/>
<path d="M231.045 97.7657C231.045 97.7657 237.269 106.241 241.585 119.875C245.9 133.509 245.457 159.623 245.457 159.623C245.457 159.623 229.396 164.776 213.826 158.229L216.677 99.3932C216.677 99.3932 226.693 99.5774 231.045 97.7657Z" fill="#443D78"/>
<path d="M223.005 36.3014C223.005 36.3014 218.167 40.8215 217.6 43.7818C217.133 45.8537 216.383 47.852 215.372 49.7206C215.892 50.5063 216.655 51.1014 217.545 51.4157C217.545 51.4157 217.859 57.4773 219.626 57.9441L223.849 56.8386L224.298 59.4365L230.356 57.1395V53.6389L234.973 50.6295L233.329 42.7623L225.819 39.2616L223.005 36.3014Z" fill="white"/>
<path d="M216.646 98.9202L216.11 90.4204C216.11 90.4204 212.17 83.0506 213.42 80.3729C214.799 77.4311 223.085 66.536 223.085 66.536L222.273 60.5911L233.884 55.6287L234.438 60.5911L233.034 61.629L234.591 64.9577C234.591 64.9577 234.69 63.9689 237.386 68.9865C240.083 74.0041 250.241 91.8575 251.041 95.2845C251.841 98.7114 235.244 110.786 229.642 113.635C229.642 113.635 228.995 112.253 222.341 117.32C220.648 117.025 218.308 115.508 217.81 114.569C217.311 113.629 219.724 111.394 219.724 111.394C219.724 111.394 221.177 108.655 223.744 110.847H226.478L242.121 96.3224L234.191 84.7456L231.045 97.7472C231.045 97.7472 220.869 100.83 216.646 98.9202Z" fill="white"/>
<path d="M222.273 60.5911L223.104 66.665L234.438 60.5911L233.884 55.6287L222.273 60.5911Z" stroke="#443D78" stroke-linecap="round" stroke-linejoin="round"/>
<path d="M223.104 66.665C223.104 66.665 212.792 79.249 213.069 81.7301C213.346 84.2113 216.11 90.4204 216.11 90.4204L216.677 99.387C216.677 99.387 225.018 99.6142 231.045 97.7656L234.191 84.764" stroke="#443D78" stroke-linecap="round" stroke-linejoin="round"/>
<path d="M242.12 96.3224L226.145 72.2968C226.145 72.2968 224.575 66.7695 228.355 64.798C232.135 62.8266 235.422 65.3262 236.598 66.6405C237.774 67.9548 250.456 92.3304 251.047 95.2599C251.638 98.1894 238.242 109.907 230.491 113.07C230.491 113.07 226.964 115.183 226.964 110.847L242.12 96.3224Z" stroke="#443D78" stroke-linecap="round" stroke-linejoin="round"/>
<path d="M234.439 64.9577L232.942 61.3956" stroke="#443D78" stroke-linecap="round" stroke-linejoin="round"/>
<path d="M226.964 110.872H223.75C223.75 110.872 221.245 108.636 220.057 110.872C218.869 113.107 217.366 113.549 217.816 114.593C218.265 115.637 220.839 117.719 222.347 117.345C223.855 116.97 228.109 113.519 228.109 113.519" stroke="#443D78" stroke-linecap="round" stroke-linejoin="round"/>
<path d="M221.848 37.8921C221.848 37.8921 218.074 41.1839 217.656 43.0079C217.237 44.832 217.415 47.9212 215.372 49.7206C215.372 49.7206 215.476 51.1946 217.545 51.4157C217.545 51.4157 218.604 57.2317 219.626 57.9441C220.647 58.6565 226.902 55.4384 229.352 54.1118C229.977 53.6843 230.433 53.052 230.639 52.3246" stroke="#443D78" stroke-linecap="round" stroke-linejoin="round"/>
<path d="M218.918 53.1906C220.075 52.9958 221.118 52.3811 221.848 51.4648" stroke="#443D78" stroke-linecap="round" stroke-linejoin="round"/>
<path d="M218.918 44.7767C218.918 44.7767 220.408 43.9107 221.226 45.3479" stroke="#443D78" stroke-linecap="round" stroke-linejoin="round"/>
<path d="M219.94 47.8659C219.94 48.3633 219.798 48.7687 219.57 48.781C219.342 48.7932 219.133 48.4002 219.108 47.9089C219.084 47.4176 219.25 46.9999 219.478 46.9876C219.706 46.9754 219.915 47.3684 219.94 47.8659Z" fill="#443D78"/>
<path d="M223.849 56.8386L224.348 59.7067" stroke="#443D78" stroke-linecap="round" stroke-linejoin="round"/>
<path d="M228.688 47.4851C228.688 47.4851 229.611 45.6979 230.639 46.742C231.667 47.786 233.619 52.6133 228.355 51.4648C228.355 51.4648 228.004 54.4127 230.639 55.1497C233.274 55.8867 238.279 51.821 238.445 44.8872C238.612 37.9535 231.901 33.2736 228.355 34.6125C228.355 34.6125 223.215 26.5732 218.117 30.0002C213.02 33.4272 216.455 38.7027 215.372 39.8942C214.288 41.0856 211.974 39.9679 211.9 43.1676C211.826 46.3673 217.188 46.0418 217.188 46.0418L217.834 42.5166L222.273 37.892C222.273 37.892 221.226 41.233 223.006 44.138C224.612 46.7542 228.688 47.4851 228.688 47.4851Z" fill="#443D78"/>
<path d="M238.445 44.8872C238.445 44.8872 240.908 45.44 240.637 48.7625C240.366 52.0851 234.807 60.2533 235.225 64.9577L249.576 91.6364C249.576 91.6364 256.034 90.4081 255.732 83.7753C255.43 77.1425 247.55 71.5537 249.071 66.6651C250.591 61.7764 256.563 49.3276 248.104 42.1911C239.646 35.0547 226.459 45.9927 226.459 45.9927L232.917 43.9169L238.445 44.8872Z" fill="#443D78"/>
<path d="M214.818 77.8487L210.964 69.0049L193.64 80.422L207.935 105.688L216.603 100.929" stroke="#443D78" stroke-linecap="round" stroke-linejoin="round"/>
<path d="M199.033 92.92C199.033 92.92 198.097 90.9916 199.347 89.9291C200.597 88.8666 204.888 85.716 204.888 86.4899C204.916 86.6777 204.905 86.8695 204.854 87.0525C204.803 87.2356 204.714 87.4059 204.592 87.5523C203.361 89.1983 200.412 91.8514 200.603 92.0664C200.603 92.0664 205.984 88.5043 206.501 88.8421C206.63 88.928 206.556 89.3886 206.107 89.837C204.632 91.1462 203.076 92.3606 201.446 93.4728C201.446 93.4728 207.123 91.2802 207.855 91.6303C208.064 91.7286 208.021 92.0479 207.363 92.4471C205.715 93.3408 204.019 94.1445 202.284 94.8546L203.706 97.2252C203.706 97.2252 201.022 97.692 199.033 92.92Z" fill="white" stroke="#443D78" stroke-linecap="round" stroke-linejoin="round"/>
<path d="M229.962 53.1906L230.356 57.1395" stroke="#443D78" stroke-linejoin="round"/>
</svg>
