<svg width="304" height="235" viewBox="0 0 304 235" fill="none" xmlns="http://www.w3.org/2000/svg">
<g clip-path="url(#clip0_711_3547)">
<path d="M227.004 147.255C226.213 148.58 225.412 149.873 224.59 151.14C224.06 151.93 223.556 152.71 223.031 153.485C222.15 154.773 221.256 156.027 220.347 157.249L220.257 157.364C219.848 157.919 219.424 158.468 219.01 159.007C218.596 159.547 218.257 159.971 217.875 160.442C217.711 160.641 217.551 160.845 217.387 161.038L217.185 161.29C216.874 161.677 216.556 162.059 216.231 162.436C215.801 162.96 215.377 163.441 214.942 163.939C214.507 164.436 214.151 164.828 213.753 165.268C213.547 165.498 213.345 165.718 213.133 165.943C212.73 166.388 212.316 166.823 211.902 167.257C211.489 167.692 210.947 168.252 210.465 168.734L210.428 168.775C209.961 169.236 209.494 169.702 209.027 170.152C208.332 170.822 207.638 171.477 206.932 172.12C206.057 172.921 205.171 173.691 204.28 174.466C204.254 174.484 204.231 174.505 204.211 174.528C203.182 175.403 202.142 176.245 201.092 177.067C199.472 178.338 197.832 179.545 196.169 180.69C195.618 181.07 195.061 181.447 194.499 181.82C193.401 182.553 192.287 183.255 191.162 183.914L191.061 183.977C190.531 184.302 189.974 184.626 189.422 184.946L189.311 185.003C188.19 185.659 187.057 186.286 185.911 186.882L184.701 187.511L183.996 187.867C183.465 188.139 182.935 188.39 182.373 188.662C181.185 189.233 179.996 189.772 178.792 190.295C178.188 190.552 177.583 190.819 176.978 191.054C176.374 191.29 175.769 191.547 175.154 191.782C174.538 192.018 173.939 192.248 173.329 192.473C172.719 192.698 172.199 192.881 171.631 193.08L171.016 193.29C170.56 193.452 170.098 193.599 169.637 193.756C169.016 193.955 168.396 194.153 167.775 194.342H167.738C165.97 194.886 164.202 195.38 162.434 195.823C160.561 196.305 158.673 196.718 156.779 197.09C130.098 202.377 101.836 198.064 78.3116 187.333C77.7016 187.05 77.0969 186.767 76.4975 186.469L75.6011 186.019C74.8319 185.631 74.0681 185.218 73.3149 184.789C72.9701 184.6 72.6253 184.401 72.2858 184.202C71.9463 184.003 71.7554 183.888 71.4796 183.721C71.2037 183.553 71.0234 183.448 70.8006 183.302C70.5778 183.155 70.2702 182.988 70.0368 182.825C68.4172 181.779 66.8453 180.679 65.3212 179.528C65.0294 179.308 64.7377 179.083 64.4566 178.852L63.8625 178.381L63.1252 177.774C62.5947 177.339 62.0643 176.9 61.5763 176.444C61.4225 176.313 61.2792 176.183 61.1254 176.041C60.9716 175.9 60.6799 175.643 60.4624 175.439C59.5288 174.577 58.6235 173.691 57.7465 172.78L57.2797 172.288C56.1022 171.047 54.983 169.76 53.9168 168.44C53.6303 168.095 53.3863 167.744 53.0893 167.393C52.2247 166.289 51.4078 165.153 50.6281 163.996C50.4106 163.666 50.1878 163.337 49.9756 163.007C49.233 161.86 48.5381 160.703 47.8539 159.52C47.6417 159.144 47.4348 158.761 47.2333 158.379C47.0317 157.997 46.8726 157.693 46.7028 157.332C46.0734 156.097 45.4881 154.839 44.9471 153.558C44.8092 153.228 44.6713 152.893 44.5386 152.553C43.7703 150.642 43.1063 148.692 42.5495 146.711C42.4646 146.407 42.3851 146.104 42.3002 145.805C42.3028 145.776 42.3028 145.746 42.3002 145.716C42.2418 145.481 42.1782 145.256 42.1252 145.02C42.0403 144.669 41.9554 144.324 41.8758 143.973C41.7963 143.623 41.7061 143.209 41.6265 142.832C41.5311 142.361 41.4356 141.879 41.356 141.398C41.2765 140.916 41.2128 140.576 41.1491 140.157C41.0855 139.738 41.0218 139.304 40.9635 138.875C39.5101 127.85 41.7326 115.502 47.7531 105.781C48.5813 104.438 49.4881 103.145 50.4689 101.907C51.6504 100.415 52.9467 99.0145 54.3464 97.7191C54.403 97.6578 54.4652 97.6017 54.5321 97.5516C56.8484 95.4344 59.4511 93.6445 62.2659 92.2331L64.2285 91.2594C65.4909 90.6417 66.7109 90.0502 67.9097 89.4901L69.0077 88.9666L69.1722 88.8881C70.0032 88.5077 70.8218 88.1413 71.6281 87.7888C73.1345 87.1187 74.595 86.4941 76.0095 85.9148C76.3649 85.7629 76.7203 85.6216 77.0704 85.4803C78.1312 85.0458 79.1921 84.627 80.2053 84.2344C80.9797 83.9308 81.7435 83.6376 82.502 83.3602L82.7673 83.2555C83.4462 83.0042 84.1146 82.732 84.7776 82.5226C87.3927 81.5595 89.891 80.6905 92.3204 79.8477C105.311 75.3249 116.519 71.3884 134.326 58.0974C150.6 45.9685 169.552 35.6665 190.632 37.4306C217.249 39.6606 240.19 55.1868 242.816 82.5959C244.827 103.592 237.697 129.248 227.004 147.255Z" fill="#A9E8CB"/>
<path opacity="0.7" d="M227.004 147.255C226.213 148.58 225.412 149.873 224.59 151.14C224.06 151.93 223.556 152.71 223.031 153.485C222.15 154.773 221.256 156.027 220.347 157.249L220.257 157.364C219.848 157.919 219.424 158.468 219.01 159.007C218.596 159.547 218.257 159.971 217.875 160.442C217.711 160.641 217.551 160.845 217.387 161.038L217.185 161.29C216.874 161.677 216.556 162.059 216.231 162.436C215.801 162.96 215.377 163.441 214.942 163.939C214.507 164.436 214.151 164.828 213.753 165.268C213.547 165.498 213.345 165.718 213.133 165.943C212.73 166.388 212.316 166.823 211.902 167.257C211.489 167.692 210.947 168.252 210.465 168.734L210.428 168.775C209.961 169.236 209.494 169.702 209.027 170.152C208.332 170.822 207.638 171.477 206.932 172.12C206.057 172.921 205.171 173.691 204.28 174.466C204.254 174.484 204.231 174.505 204.211 174.528C203.182 175.397 202.137 176.245 201.092 177.067C199.472 178.338 197.832 179.545 196.169 180.69C195.618 181.07 195.061 181.447 194.499 181.82C193.401 182.548 192.287 183.249 191.162 183.914L191.061 183.977C190.531 184.302 189.974 184.626 189.422 184.946L189.311 185.003C188.192 185.657 187.051 186.286 185.911 186.882L184.701 187.511L183.996 187.867C183.465 188.139 182.935 188.39 182.373 188.662C181.185 189.233 179.991 189.772 178.792 190.295C178.188 190.552 177.583 190.819 176.978 191.054C176.374 191.29 175.769 191.547 175.154 191.782C174.538 192.018 173.939 192.248 173.329 192.473C172.719 192.698 172.199 192.881 171.631 193.08L171.016 193.29C170.56 193.452 170.098 193.599 169.637 193.756C169.016 193.955 168.396 194.153 167.775 194.342H167.738C165.97 194.886 164.202 195.38 162.434 195.823C160.561 196.305 158.673 196.718 156.779 197.09C130.098 202.377 101.836 198.064 78.3116 187.333C77.7016 187.05 77.0969 186.767 76.4975 186.469L75.6011 186.019C74.8319 185.631 74.0681 185.218 73.3149 184.789C72.9701 184.6 72.6253 184.401 72.2858 184.202C71.9463 184.003 71.7554 183.888 71.4796 183.721C71.2037 183.553 71.0234 183.448 70.8006 183.302C70.5778 183.155 70.2702 182.988 70.0368 182.825C68.4172 181.779 66.8453 180.679 65.3212 179.528C65.0294 179.308 64.7377 179.083 64.4566 178.852L63.8625 178.381L63.1252 177.774C62.5947 177.339 62.0643 176.9 61.5763 176.444C61.4225 176.313 61.2792 176.183 61.1254 176.041C60.9716 175.9 60.6799 175.643 60.4624 175.439C59.5288 174.577 58.6235 173.691 57.7465 172.78L57.2797 172.288C56.1022 171.047 54.983 169.76 53.9168 168.44C53.6303 168.095 53.3863 167.744 53.0893 167.393C52.2247 166.289 51.4078 165.153 50.6281 163.996C50.4106 163.666 50.1878 163.337 49.9756 163.007C49.233 161.86 48.5381 160.703 47.8539 159.52C47.6417 159.144 47.4348 158.761 47.2333 158.379C47.0317 157.997 46.8726 157.693 46.7028 157.332C46.0734 156.097 45.4881 154.839 44.9471 153.558C44.8092 153.228 44.6713 152.893 44.5386 152.553C43.7703 150.642 43.1063 148.692 42.5495 146.711C42.4646 146.407 42.3851 146.104 42.3002 145.805C42.3028 145.776 42.3028 145.746 42.3002 145.716C42.2418 145.481 42.1782 145.256 42.1252 145.02C42.0403 144.669 41.9554 144.324 41.8758 143.973C41.7963 143.623 41.7061 143.209 41.6265 142.832C41.5311 142.361 41.4356 141.879 41.356 141.398C41.2765 140.916 41.2128 140.576 41.1491 140.157C41.0855 139.738 41.0218 139.304 40.9635 138.875C39.5101 127.85 41.7326 115.502 47.7531 105.781C48.5813 104.438 49.4881 103.145 50.4689 101.907C51.6504 100.415 52.9467 99.0145 54.3464 97.7191C54.403 97.6578 54.4652 97.6017 54.5321 97.5516C56.8484 95.4344 59.4511 93.6445 62.2659 92.2331L64.2285 91.2594C65.4909 90.6417 66.7109 90.0502 67.9097 89.4901L69.0077 88.9666L69.1722 88.8881C70.0032 88.5077 70.8218 88.1413 71.6281 87.7888C73.1345 87.1187 74.595 86.4941 76.0095 85.9148C76.3649 85.7629 76.7203 85.6216 77.0704 85.4803C78.1312 85.0458 79.1921 84.627 80.2053 84.2344C80.9797 83.9308 81.7435 83.6376 82.502 83.3602L82.7673 83.2555C83.4462 83.0042 84.1146 82.732 84.7776 82.5226C87.3927 81.5595 89.891 80.6905 92.3204 79.8477C105.311 75.3249 116.519 71.3884 134.326 58.0974C150.6 45.9685 169.552 35.6665 190.632 37.4306C217.249 39.6606 240.19 55.1868 242.816 82.5959C244.827 103.592 237.697 129.248 227.004 147.255Z" fill="white"/>
<path d="M220.336 157.248C206.094 176.365 187.64 188.269 167.765 194.362H167.727C165.959 194.907 164.191 195.401 162.423 195.844C160.552 196.322 158.668 196.744 156.769 197.111C130.088 202.392 101.831 198.084 78.301 187.348C65.0226 181.305 54.1145 171.138 47.2439 158.4C54.0494 153.594 66.764 149.035 88.5756 154.861C125.982 164.849 154.652 188.437 179.551 171.241C197.177 159.085 210.093 154.856 220.336 157.248Z" fill="#A9E8CB"/>
<path d="M141.301 235C180.475 235 212.231 231.36 212.231 226.87C212.231 222.381 180.475 218.741 141.301 218.741C102.128 218.741 70.3711 222.381 70.3711 226.87C70.3711 231.36 102.128 235 141.301 235Z" fill="#A9E8CB"/>
<path opacity="0.5" d="M141.301 235C180.475 235 212.231 231.36 212.231 226.87C212.231 222.381 180.475 218.741 141.301 218.741C102.128 218.741 70.3711 222.381 70.3711 226.87C70.3711 231.36 102.128 235 141.301 235Z" fill="white"/>
<path d="M203.808 152.412L203.776 152.375L203.654 152.213C203.575 152.113 203.506 152.019 203.431 151.935L201.082 149.585L201.029 149.538L193.125 141.639C193.097 141.614 193.072 141.585 193.051 141.555C192.648 141.084 189.688 137.618 188.42 135.676C188.406 135.657 188.393 135.636 188.383 135.614C188.267 135.445 188.161 135.27 188.065 135.09C187.878 134.76 187.657 134.45 187.407 134.164C187.386 134.145 187.368 134.124 187.354 134.101C185.738 132.364 183.848 130.897 181.758 129.756L181.657 129.709C181.237 129.481 180.805 129.277 180.363 129.096L180.273 129.06C180.663 128.852 180.982 128.533 181.188 128.145C181.394 127.757 181.478 127.317 181.429 126.882C181.431 126.838 181.431 126.795 181.429 126.751C181.434 126.72 181.434 126.688 181.429 126.657V126.578C181.095 125.264 179.413 123.485 177.912 122.464L177.535 122.218C177.427 122.148 177.316 122.083 177.201 122.024L177.058 121.946L176.644 117.999H175.918L175.705 115.57C175.705 115.57 175.705 114.612 175.758 113.083C175.758 112.999 175.758 112.921 175.758 112.837C175.854 109.173 176.071 102.561 176.469 97.8397C177.037 90.9612 177.87 83.3185 178.183 79.1255C178.183 79.0784 178.183 79.0365 178.183 78.9946C178.18 78.9703 178.18 78.9457 178.183 78.9213C178.183 78.6805 178.22 78.445 178.236 78.2094C178.252 77.9739 178.273 77.7906 178.289 77.5865C178.559 74.5818 178.888 71.8283 178.411 70.6138C178.338 70.4019 178.199 70.2184 178.013 70.0903C177.047 69.4936 175.536 73.3202 174.395 77.063C174.178 77.7959 173.971 78.5287 173.785 79.2197C173.759 79.314 173.732 79.4029 173.7 79.5024C172.878 82.5909 170.894 90.2074 169.791 96.2536C169.317 98.4802 169.063 100.747 169.033 103.022V103.048C169.271 107.885 169.611 108.283 170.81 111.947C171.459 113.844 171.917 115.799 172.178 117.784L171.605 117.889L171.149 117.972L170.778 120.271C169.947 120.252 169.122 120.417 168.364 120.752C167.942 120.939 167.568 121.218 167.271 121.569L166.741 121.454C165.469 121.218 164.179 121.083 162.885 121.051C161.432 121.018 159.978 121.108 158.541 121.317H158.493C154.138 121.977 150.329 123.364 148.945 124.191C148.897 124.216 148.851 124.244 148.807 124.275C148.756 124.303 148.708 124.336 148.664 124.375C148.637 124.389 148.614 124.409 148.595 124.432L148.547 124.469C148.525 124.483 148.506 124.501 148.489 124.521L148.436 124.579C147.995 125.102 147.635 126.311 147.502 127.563C147.411 128.321 147.44 129.09 147.587 129.84C147.611 129.961 147.646 130.081 147.693 130.196L152.918 130.499L155.31 130.641L158.535 130.824L158.058 141.487C158.058 141.487 156.732 142.445 155.14 143.795C153.877 144.855 152.701 146.012 151.624 147.256C151.528 147.36 151.449 147.47 151.358 147.585L151.03 148.02C150.997 148.057 150.968 148.097 150.945 148.14C149.517 150.268 148.203 152.467 147.009 154.731C145.699 157.118 144.563 159.259 144.086 159.918C143.524 160.698 142.495 162.709 141.434 164.546C140.591 166.038 139.736 167.425 139.121 167.943C137.758 169.095 136.92 170.336 137.615 170.655C138.31 170.974 139.439 170.786 141.519 169.084C141.545 169.072 141.569 169.054 141.588 169.032C143.646 167.357 148.897 160.468 149.221 160.044C149.544 159.62 149.974 159.128 150.361 158.673C150.515 158.484 150.674 158.285 150.839 158.097C151.777 156.982 152.96 155.553 154.021 154.307C154.281 153.982 154.552 153.663 154.827 153.338C154.983 153.15 155.142 152.961 155.305 152.773C155.65 152.354 156 151.941 156.366 151.527C157.427 150.307 157.681 150.48 157.681 150.48L157.602 152.391L157.543 153.621L155.602 223.112C157.336 222.772 159.066 223.547 160.784 223.112C162.418 222.699 165.627 223.61 167.24 223.112H167.277L164.672 141.89V141.764L164.747 141.691L165.898 140.435L171.839 133.986C171.854 133.964 171.874 133.946 171.897 133.933C171.983 133.994 172.073 134.048 172.167 134.095C172.321 134.191 172.497 134.246 172.678 134.255C172.859 134.264 173.039 134.227 173.202 134.148C173.732 133.792 174.91 131.3 174.91 131.3L176.443 130.913H176.48L177.228 130.724L177.87 131.316L181.774 135.059L181.938 135.21L203.564 155.045L203.596 155.071C203.728 155.223 204.959 156.537 205.755 156.149C206.407 155.841 204.63 153.448 203.808 152.412ZM165.42 135.582L165.081 135.964L165.038 136.011L164.614 136.483H164.587V131.394H165.081H167.924L168.078 132.017V132.106L167.765 132.567C167.035 133.61 166.253 134.617 165.42 135.582Z" fill="white"/>
<path d="M178.527 130.19L177.816 131.447L177.175 130.871L176.406 131.065H176.368L174.835 131.452C174.835 131.452 173.684 133.944 173.127 134.3C172.965 134.379 172.784 134.416 172.603 134.407C172.422 134.397 172.247 134.343 172.093 134.247L172.448 133.316C172.19 132.596 171.699 131.981 171.051 131.566C170.402 131.15 169.633 130.958 168.863 131.018L168.619 132.52C168.619 132.52 167.558 130.766 167.584 130.52C167.611 130.274 166.083 128.667 165.844 126.306C165.606 123.945 166.783 119.328 172.905 120.579C172.905 120.579 170.926 120.768 170.125 123.993C169.324 127.217 174.188 129.499 178.527 130.19Z" fill="#A9E8CB"/>
<path d="M157.395 153.846L163.219 147.858L162.662 144.157L157.761 150.124L157.395 153.846Z" fill="#A9E8CB"/>
<path d="M161.553 126.625V125.851L164.889 129.101L164.619 131.253V136.671C163.749 137.529 162.274 138.702 161.585 139.236C161.659 131.829 161.659 126.871 161.553 126.625Z" fill="#A9E8CB"/>
<path d="M167.202 223.258H167.165C165.574 223.756 162.343 222.845 160.71 223.258C160.885 213.359 161.118 173.104 161.304 160.745C161.357 157.186 161.405 153.699 161.452 150.412C161.452 150.155 161.452 149.888 161.452 149.658C161.452 148.25 161.489 146.878 161.505 145.554V145.528L161.924 145.057L162.662 144.224L164.587 142.047L167.202 223.258Z" fill="#A9E8CB"/>
<path d="M205.754 156.165C204.911 156.579 203.585 155.076 203.585 155.076L177.174 130.871L176.405 131.064C177.83 130.65 179.17 129.991 180.362 129.117C183.205 130.248 187.078 133.305 188.064 135.111C189.051 136.917 193.098 141.623 193.098 141.623L203.431 151.946C203.431 151.946 206.592 155.751 205.754 156.165Z" fill="#A9E8CB"/>
<path d="M165.998 124.437C165.998 124.437 150.425 123.532 148.759 124.296C147.093 125.06 147.141 128.902 147.645 130.269L167.563 131.426V130.515L167.611 130.269C167.611 130.269 165.574 128.85 165.998 124.437Z" fill="#A9E8CB"/>
<path d="M170.783 131.253C170.783 131.253 167.908 137.393 164.115 140.047C160.323 142.701 152.896 147.758 146.505 155.338C146.505 155.338 149.82 148.13 153.48 145.135C157.14 142.141 162.073 139.267 163.558 137.723C165.043 136.179 168.863 131.012 168.863 131.012L170.783 131.253Z" fill="#A9E8CB"/>
<path d="M174.337 77.2044C172.104 88.2968 171.494 103.76 172.932 109.199C174.369 114.638 173.892 117.999 173.892 117.999H171.611V117.915L172.178 117.81C171.918 115.804 171.451 113.829 170.783 111.916C169.579 108.252 169.245 107.843 169.001 103.017C168.757 98.1904 172.608 83.4651 173.743 79.2407C173.934 78.5392 174.146 77.7959 174.369 77.0526L174.337 77.2044Z" fill="#A9E8CB"/>
<path d="M170.783 120.292C168.953 120.36 167.542 120.778 166.672 122.495C165.388 125.019 165.521 128.384 167.627 130.269" stroke="#443D78" stroke-linecap="round" stroke-linejoin="round"/>
<path d="M174.835 131.447C178.257 130.776 181.301 128.918 181.423 127.212C181.545 125.505 179.519 123.286 176.74 121.804" stroke="#443D78" stroke-linecap="round" stroke-linejoin="round"/>
<path d="M177.005 121.971L176.585 118.019H171.143L170.782 120.312C171.837 120.351 172.882 120.527 173.891 120.836" stroke="#443D78" stroke-linecap="round" stroke-linejoin="round"/>
<path d="M172.157 117.999C172.157 117.999 172.634 115.381 170.035 110.387C167.436 105.393 170.035 93.5785 172.157 85.0773C174.278 76.5761 176.135 70.42 177.949 70.0588C179.763 69.6976 176.421 91.6888 176.231 101.226C176.04 110.764 175.355 113.156 175.7 117.978" stroke="#443D78" stroke-linecap="round" stroke-linejoin="round"/>
<path d="M172.454 133.31C172.454 133.31 171.043 130.279 168.863 131.012C167.017 133.823 164.826 137.027 162.031 138.974C159.087 141.021 156 142.513 153.48 145.135C151.071 147.755 149.008 150.666 147.343 153.799C144.383 159.096 141.938 164.755 138.002 169.393C137.668 169.786 137.307 170.32 137.572 170.759C137.838 171.199 138.633 171.094 139.164 170.817C142.394 169.121 144.367 165.933 146.627 163.221C148.42 161.07 150.202 158.913 151.995 156.767C156.116 151.841 160.254 146.931 164.46 142.078C166.051 140.241 167.643 138.414 169.287 136.618C169.526 136.351 172.528 133.488 172.454 133.31Z" stroke="#443D78" stroke-linecap="round" stroke-linejoin="round"/>
<path d="M168.221 131.98C167.93 131.528 167.713 131.034 167.579 130.515C167.579 130.049 168.64 128.557 168.64 128.557" stroke="#443D78" stroke-linecap="round" stroke-linejoin="round"/>
<path d="M171.817 134.074C171.817 134.074 172.878 134.556 173.265 134.074C173.653 133.593 174.995 131.148 174.995 131.148C174.995 131.148 173.191 128.85 171.812 128.557" stroke="#443D78" stroke-linecap="round" stroke-linejoin="round"/>
<path d="M177.292 130.808C182.596 135.834 203.856 156.165 205.214 156.165C206.773 156.165 204.572 153.37 203.431 151.936C202.291 150.501 191.391 140.943 188.378 135.614C186.463 132.211 182.543 130.018 180.273 129.065" stroke="#443D78" stroke-linecap="round" stroke-linejoin="round"/>
<path d="M167.923 131.447L163.378 131.185L160.959 131.038L155.262 130.714L152.875 130.572L147.645 130.269C147.645 130.269 146.754 125.557 148.759 124.296C150.117 123.448 154.228 122.27 157.368 121.574C158.501 121.295 159.653 121.101 160.816 120.993C161.524 120.985 162.232 121.017 162.937 121.087C163.945 121.171 165.027 121.302 165.897 121.412C166.3 121.464 166.99 121.474 167.266 121.516" stroke="#443D78" stroke-linecap="round" stroke-linejoin="round"/>
<path d="M158.01 141.565L158.487 130.897" stroke="#443D78" stroke-linecap="round" stroke-linejoin="round"/>
<path d="M167.165 223.259H155.527L157.469 153.768V153.762L157.527 152.532L157.532 152.48L157.633 150.082" stroke="#443D78" stroke-linecap="round" stroke-linejoin="round"/>
<path d="M167.166 223.259C166.959 213.475 165.097 172.136 164.89 160.442C164.821 156.777 164.763 153.207 164.71 149.936C164.667 147.067 164.625 144.408 164.598 142.084V141.963" stroke="#443D78" stroke-linecap="round" stroke-linejoin="round"/>
<path d="M164.64 131.253C164.561 131.253 164.571 133.169 164.598 136.728" stroke="#443D78" stroke-linecap="round" stroke-linejoin="round"/>
<path d="M162.943 121.087C161.622 121.5 156.503 123.181 155.952 124.086C155.183 125.369 155.214 129.133 155.262 130.714L152.875 130.572C152.827 128.646 152.849 124.982 153.634 123.689C154.275 122.935 155.835 122.176 157.347 121.595C158.48 121.316 159.632 121.122 160.795 121.014C161.511 120.998 162.229 121.023 162.943 121.087Z" fill="#443D78"/>
<path d="M167.292 121.6C167.292 121.6 164.216 122.987 163.659 124.464C163.192 125.694 163.335 129.824 163.399 131.185L160.98 131.038C160.98 129.322 161.033 125.244 161.277 124.181C161.585 122.83 165.924 121.412 165.924 121.412L166.958 121.553L167.292 121.6Z" fill="#443D78"/>
<path d="M164.709 149.909C163.302 150.214 161.873 150.405 160.434 150.48V160.672C161.922 160.856 163.432 160.771 164.89 160.421" stroke="#443D78" stroke-linecap="round" stroke-linejoin="round"/>
<path d="M158.487 130.897C160.083 132.663 162.264 133.81 164.64 134.132L164.608 131.137L158.487 130.897Z" fill="#443D78"/>
<path opacity="0.1" d="M164.598 142.037L162.672 144.215V144.157L161.951 145.042L161.532 145.513V145.549L157.745 150.125L157.379 153.846L161.447 149.659C161.447 149.91 161.447 150.182 161.447 150.407C161.399 153.695 161.352 157.181 161.299 160.741C161.113 173.1 160.88 213.355 160.704 223.254C162.338 222.84 165.547 223.751 167.16 223.254H167.197L164.598 142.026V142.037Z" fill="#443D78"/>
<path opacity="0.1" d="M203.431 151.93L193.098 141.607C193.098 141.607 189.062 136.922 188.064 135.095C187.067 133.268 183.206 130.232 180.362 129.102C179.781 129.531 179.161 129.908 178.511 130.227V130.19C174.146 129.499 169.308 127.217 170.109 123.987C170.91 120.757 172.889 120.574 172.889 120.574C168.162 119.606 166.385 122.145 165.929 124.432C164.964 124.38 150.356 123.558 148.743 124.296C147.131 125.034 147.125 128.903 147.629 130.269L161.622 131.08C161.622 133.2 161.622 135.98 161.569 139.236C162.126 138.807 163.198 137.954 164.046 137.189C163.866 137.393 163.701 137.577 163.558 137.713C162.057 139.283 157.129 142.131 153.48 145.125C149.83 148.119 146.505 155.328 146.505 155.328C152.896 147.748 160.323 142.691 164.115 140.037C167.616 137.587 170.327 132.185 170.73 131.353C171.523 131.774 172.134 132.466 172.448 133.3L172.093 134.232C172.246 134.327 172.422 134.382 172.603 134.391C172.784 134.4 172.965 134.363 173.127 134.284C173.684 133.928 174.835 131.436 174.835 131.436L176.368 131.049H176.405L177.175 130.855L203.585 155.076C203.585 155.076 204.911 156.579 205.755 156.165C206.598 155.752 203.431 151.93 203.431 151.93ZM167.245 129.897C166.8 129.361 166.473 128.739 166.285 128.07C166.542 128.709 166.864 129.322 167.245 129.897ZM164.593 136.535V131.253L167.536 131.426V130.515C167.683 130.994 167.901 131.45 168.184 131.866C167.377 133.012 165.818 135.085 164.64 136.535H164.593ZM168.836 131.012C169.335 130.975 169.837 131.037 170.311 131.196L168.836 131.012Z" fill="#443D78"/>
<path opacity="0.1" d="M170.783 111.916C171.451 113.829 171.918 115.804 172.178 117.81L171.611 117.915V117.999H173.892C173.892 117.999 174.369 114.638 172.932 109.199C171.494 103.76 172.104 88.2967 174.337 77.2043L174.369 77.0368C174.146 77.7801 173.934 78.5235 173.743 79.2249C172.608 83.4494 168.752 98.1694 169.001 103.001C169.25 107.833 169.579 108.257 170.783 111.916Z" fill="#443D78"/>
<path d="M177.769 109.408L170.692 103.713C170.692 103.713 160.169 93.2433 158.492 90.2176C156.816 87.1919 154.206 84.8101 149.475 82.9361L149.326 82.8733C149.974 82.5264 150.502 81.9973 150.844 81.3531C151.186 80.709 151.326 79.979 151.247 79.2561C151.013 76.6387 146.796 72.4928 143.879 71.048L143.184 64.4837H141.985L141.624 60.4477C141.624 60.4477 141.953 42.3826 142.913 30.9604C143.874 19.5382 144.722 13.7957 145.242 6.83349C145.762 -0.128712 146.701 1.24279 144.781 0.0597389C143.189 -0.919157 139.015 10.4402 138.702 11.5762C136.808 18.6012 131.673 32.625 131.673 40.6656C131.673 47.5336 130.639 50.1457 133.525 54.3544C137.148 59.6415 135.843 64.1486 135.843 64.1486L134.899 64.3214L134.129 64.4575L133.779 66.6247L133.525 68.2736C133.525 68.2736 129.605 68.1009 127.69 70.446C122.884 69.4146 117.926 69.2655 113.066 70.0063C104.86 71.226 97.7998 74.0266 96.4206 75.241C95.0415 76.4555 93.9912 81.9939 95.0097 84.8311L113.045 85.878V85.967L123.202 86.7941V86.7575H124.025L128.761 86.7836L128.873 87.2495L129.934 88.3593C128.671 90.3014 126.337 92.4215 125.048 93.8924C124.546 94.4602 123.92 94.9092 123.218 95.2063V95.1173C121.59 96.7768 118.842 99.4412 116.662 100.818C114.975 101.865 112.875 103.278 111.209 104.393C109.087 106.016 105.735 109.722 102.722 114.863C99.5714 120.244 93.8639 129.421 90.8298 133.142C89.4507 137 96.9086 131.792 96.9086 131.792C96.9086 131.792 107.549 119.558 109.591 117.135C110.483 116.088 122.433 103.074 122.433 103.074L128.443 96.6616L134.57 90.605C134.937 90.8978 135.32 91.1721 135.715 91.4268C135.973 91.5843 136.267 91.6742 136.57 91.688C136.872 91.7017 137.174 91.6389 137.445 91.5054C138.362 90.9191 140.282 86.7941 140.282 86.7941L142.839 86.1502H142.898L144.558 85.7262L145.353 86.6318L179.98 114.664L181.307 114.721L180.739 113.025L177.769 109.408Z" fill="white"/>
<path d="M117.134 109.084L116.057 133.31L114.381 170.985L112.62 210.465H130.83L128.448 96.7143L117.134 109.084Z" fill="white"/>
<path d="M128.443 95.4734V87.145L118.285 86.3179L117.495 103.959C117.495 103.959 117.097 104.247 116.434 104.749C118.1 103.634 120.205 102.242 121.887 101.179C124.067 99.8026 126.82 97.1328 128.443 95.4734Z" fill="white"/>
<path d="M146.441 84.7472L145.285 85.4016L144.181 85.8465L142.903 86.1658H142.845L140.288 86.8097C140.288 86.8097 138.368 90.9504 137.45 91.521C136.872 91.8874 134.92 91.2435 134.474 90.9975L136.166 88.9455C136.166 88.9455 135.694 85.8046 131.499 86.1815L129.939 88.5424C129.939 88.5424 128.13 85.6319 128.21 85.2236C128.289 84.8153 125.717 82.1403 125.319 78.2143C124.921 74.2882 126.884 66.6193 137.073 68.7028C137.073 68.7028 133.779 69.0168 132.443 74.3772C131.106 79.7376 139.179 83.5903 146.441 84.7472Z" fill="#A9E8CB"/>
<path d="M116.667 115.49L126.364 105.544L125.515 99.9224L117.277 109.308L116.667 115.49Z" fill="#A9E8CB"/>
<path d="M123.584 78.8161V77.5336L129.143 82.9359L128.693 86.5112V95.5097C127.084 97.0157 125.399 98.4397 123.643 99.776C123.765 87.4639 123.797 79.2244 123.584 78.8161Z" fill="#A9E8CB"/>
<path d="M130.83 223.259H121.77C121.998 210.931 123.972 137.98 124.422 100.986L128.411 97.2115L130.83 223.259Z" fill="#A9E8CB"/>
<path d="M180.951 114.905C179.551 115.591 144.749 85.6165 144.749 85.6165L144.038 85.2657C146.088 84.8778 148.011 84.0008 149.64 82.7112C154.371 84.5852 157.925 88.7521 159.569 91.7463C161.214 94.7406 170.438 102.478 170.438 102.478L179.137 110.911C179.137 110.911 182.346 114.214 180.951 114.905Z" fill="#A9E8CB"/>
<path d="M125.573 75.1834C125.573 75.1834 99.6455 73.6758 96.8713 74.9478C94.0971 76.2199 94.1714 82.6062 95.0148 84.8938L128.183 86.8097V85.2969L128.263 84.8886C128.263 84.8886 124.857 82.5173 125.573 75.1834Z" fill="#A9E8CB"/>
<path d="M133.54 86.5112C133.54 86.5112 129.599 98.237 122.438 101.121C109.358 106.398 103.979 117.511 93.3279 130.111C93.3279 130.111 100.908 117.716 105.13 111.115C111.373 101.341 118.067 98.5511 121.171 96.7137C125.457 94.1451 129.011 90.5423 131.498 86.2443L133.54 86.5112Z" fill="#A9E8CB"/>
<path d="M137.115 49.8681C139.768 58.8299 138.707 64.4834 138.707 64.4834H134.935V64.3473L135.88 64.1746C135.88 64.1746 137.009 61.6881 134.071 55.9979C132.665 53.2759 132.177 54.0506 131.594 46.0519C131.01 38.0533 138.171 9.76473 142.733 1.94403C143.29 0.886616 132.182 33.1954 137.115 49.8681Z" fill="#A9E8CB"/>
<path d="M133.541 68.2996C130.491 68.4096 128.146 69.111 126.693 71.9639C124.571 76.1517 124.778 81.7424 128.284 84.8728" stroke="#443D78" stroke-width="1.02127" stroke-linecap="round" stroke-linejoin="round"/>
<path d="M140.287 86.8309C145.984 85.7211 151.05 82.6431 151.257 79.7954C151.464 76.9477 148.074 73.2729 143.459 70.8126" stroke="#443D78" stroke-width="1.02127" stroke-linecap="round" stroke-linejoin="round"/>
<path d="M143.895 71.0477L143.2 64.4833H134.145L133.541 68.2995C133.541 68.2995 135.265 68.2419 138.718 69.1632" stroke="#443D78" stroke-width="1.02127" stroke-linecap="round" stroke-linejoin="round"/>
<path d="M136.103 64.4836C136.103 64.4836 136.813 60.9868 132.968 54.2601C129.122 47.5335 132.925 31.667 136.15 20.2343C139.375 8.80166 142.086 0.55695 144.796 0.0491808C147.507 -0.458589 142.516 29.1177 142.229 41.9271C141.943 54.7365 140.924 57.9559 141.46 64.4626" stroke="#443D78" stroke-width="1.02127" stroke-linecap="round" stroke-linejoin="round"/>
<path d="M136.166 88.9926C136.166 88.9926 134.331 85.3282 131.498 86.2286C129.106 89.6103 126.263 93.4526 122.624 95.7925C118.805 98.2528 114.795 100.048 111.527 103.194C108.429 106.308 105.755 109.807 103.571 113.601C99.7303 119.972 96.553 126.766 91.4342 132.336C91.0046 132.807 90.5325 133.451 90.8773 133.98C91.2221 134.509 92.2723 134.378 92.946 134.053C97.1417 132.012 99.7091 128.18 102.642 124.924C104.971 122.343 107.284 119.752 109.612 117.171C114.964 111.251 120.338 105.351 125.801 99.5249C127.865 97.321 129.944 95.1224 132.066 92.9605C132.363 92.6569 136.262 89.202 136.166 88.9926Z" stroke="#443D78" stroke-width="1.02127" stroke-linecap="round" stroke-linejoin="round"/>
<path d="M129.276 87.7154C129.276 87.7154 128.252 86.056 128.215 85.2812C128.178 84.5065 129.944 82.0357 129.944 82.0357" stroke="#443D78" stroke-width="1.02127" stroke-linecap="round" stroke-linejoin="round"/>
<path d="M135.264 91.2017C135.264 91.2017 137.009 92.0026 137.672 91.2017C138.336 90.4008 140.558 86.3387 140.558 86.3387C140.558 86.3387 137.545 82.5225 135.254 82.0357" stroke="#443D78" stroke-width="1.02127" stroke-linecap="round" stroke-linejoin="round"/>
<path d="M144.563 85.6112C151.422 91.5631 178.85 114.926 180.633 114.926C182.654 114.926 179.8 111.617 178.315 109.916C176.829 108.215 162.693 96.9183 158.789 90.6052C156.547 87.1112 153.25 84.3996 149.363 82.8525" stroke="#443D78" stroke-width="1.02127" stroke-linecap="round" stroke-linejoin="round"/>
<path d="M128.777 86.8308L121.207 86.3754L117.187 86.1346L107.703 85.6111L103.719 85.3808L95.0145 84.8573C95.0145 84.8573 93.5292 77.0052 96.871 74.9113C99.1306 73.5084 105.973 71.5506 111.193 70.3885C113.077 69.9247 114.994 69.6027 116.927 69.4253C118.108 69.4114 119.289 69.462 120.465 69.5771C122.146 69.7237 123.95 69.9383 125.398 70.1268C126.072 70.2053 127.217 70.2262 127.679 70.2943" stroke="#443D78" stroke-width="1.02127" stroke-linecap="round" stroke-linejoin="round"/>
<path d="M117.962 98.4413L118.482 86.6684" stroke="#443D78" stroke-width="1.02127" stroke-linecap="round" stroke-linejoin="round"/>
<path d="M128.448 96.7143C128.867 132.049 130.83 223.259 130.83 223.259H112.625L117.134 109.084" stroke="#443D78" stroke-width="1.02127" stroke-linecap="round" stroke-linejoin="round"/>
<path d="M120.482 69.6242C118.291 70.3152 109.767 73.0844 108.844 74.6129C107.56 76.7435 107.619 82.9885 107.703 85.6059L103.72 85.3755C103.646 82.1719 103.683 76.0891 104.993 73.9376C106.054 72.6813 108.653 71.425 111.21 70.4199C113.093 69.9561 115.01 69.6341 116.944 69.4567C118.125 69.448 119.306 69.5039 120.482 69.6242Z" fill="#443D78"/>
<path d="M127.695 70.472C127.695 70.472 122.576 72.7648 121.675 75.2251C120.895 77.2667 121.144 84.1242 121.234 86.3961L117.214 86.1553C117.214 83.2971 117.293 76.5234 117.702 74.7645C118.232 72.5188 125.441 70.1631 125.441 70.1631L127.165 70.3935L127.695 70.472Z" fill="#443D78"/>
<path d="M128.846 123.243C126.504 123.755 124.123 124.074 121.728 124.196V141.125C124.208 141.435 126.725 141.293 129.154 140.706" stroke="#443D78" stroke-width="1.02127" stroke-linecap="round" stroke-linejoin="round"/>
<path d="M128.671 90.1444C128.167 90.6941 127.61 91.2594 127.127 91.7567C123.687 90.8556 120.616 88.9222 118.338 86.2236L128.639 87.0717L128.671 90.1444Z" fill="#443D78"/>
<path d="M180.177 226.87C180.537 224.107 180.707 219.018 177.912 216.244C173.907 212.292 167.902 218.71 166.401 218.71C164.9 218.71 164.396 214.763 159.893 211.302C155.389 207.842 149.883 212.292 146.881 211.302C143.879 210.313 149.385 195.007 140.877 194.515C132.368 194.022 129.366 215.255 123.372 215.255C117.378 215.255 116.365 211.302 110.36 214.763C105.655 217.469 103.104 224.112 102.218 226.87H180.177Z" fill="#A9E8CB"/>
<path opacity="0.2" d="M180.177 226.87C180.537 224.107 180.707 219.018 177.912 216.244C173.907 212.292 167.902 218.71 166.401 218.71C164.9 218.71 164.396 214.763 159.893 211.302C155.389 207.842 149.883 212.292 146.881 211.302C143.879 210.313 149.385 195.007 140.877 194.515C132.368 194.022 129.366 215.255 123.372 215.255C117.378 215.255 116.365 211.302 110.36 214.763C105.655 217.469 103.104 224.112 102.218 226.87H180.177Z" fill="#443D78"/>
<path d="M118.53 226.536L113.443 218.375" stroke="#443D78" stroke-linecap="round" stroke-linejoin="round"/>
<path d="M138.06 226.321L140.744 201.367" stroke="#443D78" stroke-linecap="round" stroke-linejoin="round"/>
<path d="M153.565 226.536L156.186 217.05" stroke="#443D78" stroke-linecap="round" stroke-linejoin="round"/>
<path d="M172.613 226.536L175.207 220.359" stroke="#443D78" stroke-linecap="round" stroke-linejoin="round"/>
<path d="M119.261 218.594L116.577 223.232L110.313 220.803" stroke="#443D78" stroke-linecap="round" stroke-linejoin="round"/>
<path d="M136.718 203.357L139.848 208.879L144.102 203.796" stroke="#443D78" stroke-linecap="round" stroke-linejoin="round"/>
<path d="M134.925 212.193L138.957 217.051L142.983 213.957" stroke="#443D78" stroke-linecap="round" stroke-linejoin="round"/>
<path d="M155.066 221.243L160.434 218.155" stroke="#443D78" stroke-linecap="round" stroke-linejoin="round"/>
<path d="M154.62 223.013L151.931 216.166" stroke="#443D78" stroke-linecap="round" stroke-linejoin="round"/>
<path d="M173.864 223.672L172.517 219.254" stroke="#443D78" stroke-linecap="round" stroke-linejoin="round"/>
<path d="M173.414 224.557L177.217 223.013" stroke="#443D78" stroke-linecap="round" stroke-linejoin="round"/>
<path d="M237.406 62.6776H259.281C259.281 62.6776 260.342 59.4948 256.464 57.4062C252.587 55.3175 250.815 57.0555 249.404 55.3123C247.993 53.5691 253.287 49.0306 242.699 44.513C242.699 44.513 241.989 34.7241 227.513 34.4047C213.037 34.0854 216.904 44.1937 213.043 46.6436C209.181 49.0934 208.083 45.2459 204.211 47.6905C200.339 50.1351 202.089 55.0191 198.907 55.6996C195.724 56.3802 191.48 52.5588 187.608 55.0087C183.736 57.4585 183.72 59.5367 181.954 59.5367C180.187 59.5367 176.649 58.139 174.528 59.5367C172.406 60.9344 169.934 62.6776 169.934 62.6776H232.934" stroke="#443D78" stroke-miterlimit="10"/>
<path d="M42.6876 125.112H92.7503C92.7503 125.112 91.3765 124.133 90.1724 123.353C88.9683 122.573 86.9898 123.353 86.0031 123.353C85.0165 123.353 85.0006 122.181 82.8205 120.815C80.6404 119.448 78.2694 121.579 76.4924 121.207C74.7154 120.836 75.6914 118.066 73.5273 116.716C71.3631 115.365 70.7584 117.501 68.5783 116.129C66.3982 114.758 68.5783 109.099 60.4679 109.277C52.3575 109.455 51.9809 114.941 51.9809 114.941C46.0453 117.475 49.0157 120.019 48.2201 120.993C47.4244 121.966 46.4378 120.993 44.2683 122.16C42.0988 123.327 42.6876 125.112 42.6876 125.112Z" stroke="#443D78" stroke-miterlimit="10"/>
<path d="M209.112 90.6001C213.474 90.5155 217.827 91.0317 222.044 92.1339C227.969 93.6729 233.65 96.2222 239.719 97.0388C245.787 97.8555 252.682 96.5154 256.406 91.7308" stroke="#443D78" stroke-linecap="round" stroke-linejoin="round"/>
<path d="M186.197 98.5777C191.427 94.191 197.952 91.7307 204.763 90.9036" stroke="#443D78" stroke-linecap="round" stroke-linejoin="round"/>
<path d="M246.015 104.697C250.094 104.174 253.945 102.519 256.406 99.3471" stroke="#443D78" stroke-linecap="round" stroke-linejoin="round"/>
<path d="M186.197 106.194C195.819 98.1223 209.834 96.5675 222.044 99.745C227.969 101.284 233.65 103.833 239.718 104.65C240.856 104.804 242.002 104.879 243.15 104.875" stroke="#443D78" stroke-linecap="round" stroke-linejoin="round"/>
<path d="M231.725 110.366C234.33 111.223 237.004 111.859 239.719 112.267C245.797 113.073 252.693 111.759 256.406 106.959" stroke="#443D78" stroke-linecap="round" stroke-linejoin="round"/>
<path d="M213.706 105.964C216.522 106.183 219.313 106.651 222.045 107.362C224.766 108.068 227.434 108.99 230.107 109.853" stroke="#443D78" stroke-linecap="round" stroke-linejoin="round"/>
<path d="M186.197 113.811C192.128 108.838 199.723 106.336 207.537 105.896" stroke="#443D78" stroke-linecap="round" stroke-linejoin="round"/>
</g>
<defs>
<clipPath id="clip0_711_3547">
<rect width="304" height="235" fill="white"/>
</clipPath>
</defs>
</svg>
