<svg width="304" height="235" viewBox="0 0 304 235" fill="none" xmlns="http://www.w3.org/2000/svg">
<g clip-path="url(#clip0_711_3295)">
<path d="M272.163 138.825C264.228 160.23 248.013 183.398 225.195 190.254C190.696 200.622 186.599 228.611 124.845 226.016C115.828 225.677 106.874 224.354 98.1401 222.07C93.8698 220.941 89.6762 219.536 85.5856 217.863C49.5067 203.152 30.7099 170.766 29.125 136.877C27.0605 92.3096 57.9429 71.0684 78.0119 58.6265C98.0808 46.1846 122.268 -2.00854 182.998 0.0651009C192.271 0.341145 201.482 1.69454 210.447 4.09839C230.882 9.66791 251.652 22.0121 263.721 39.9963C264.627 41.3461 265.493 42.7286 266.32 44.1436C282.475 71.7415 282.987 109.642 272.163 138.825Z" fill="#A9E8CB"/>
<path opacity="0.7" d="M272.163 138.825C264.228 160.23 248.013 183.398 225.195 190.254C190.696 200.622 186.599 228.611 124.845 226.016C115.828 225.677 106.874 224.354 98.1401 222.07C93.8698 220.941 89.6762 219.536 85.5856 217.863C49.5067 203.152 30.7099 170.766 29.125 136.877C27.0605 92.3096 57.9429 71.0684 78.0119 58.6265C98.0808 46.1846 122.268 -2.00854 182.998 0.0651009C192.271 0.341145 201.482 1.69454 210.447 4.09839C230.882 9.66791 251.652 22.0121 263.721 39.9963C264.627 41.3461 265.493 42.7286 266.32 44.1436C282.475 71.7415 282.987 109.642 272.163 138.825Z" fill="white"/>
<path d="M153.345 158.183C147.076 143.852 148.003 120.38 150.908 118.426C154.105 116.281 159.167 127.285 164.234 124.066C169.301 120.847 172.762 113.866 168.498 102.862C164.234 91.8591 158.638 99.106 154.639 101.777C150.639 104.448 147.442 102.048 148.245 92.3857C148.833 85.2582 151.593 72.1595 153.005 65.7866C153.641 66.0634 154.277 66.3294 154.903 66.6389C142.38 60.7328 128.521 58.8546 122.662 60.7328C116.802 62.611 117.864 63.1484 120.791 70.1239C126.91 84.6774 103.746 89.6661 97.073 78.4564C93.0786 71.747 98.9543 67.9797 97.3533 63.1484C95.7523 58.3171 66.1744 63.9518 62.4441 66.1014C62.4441 66.1014 69.6351 87.815 68.5732 95.621C67.5112 103.427 63.7756 106.896 58.1802 101.256C52.5848 95.6156 45.3885 100.713 45.1189 110.115C44.8494 119.517 46.4504 127.019 52.849 124.875C59.2475 122.73 64.3093 114.946 66.4385 124.875C68.5678 134.803 64.8214 147.674 62.7083 156.81C62.7083 156.81 79.4998 164.057 87.2245 163.519C94.9491 162.982 99.7521 162.716 97.3533 157.885C94.9545 153.053 90.9547 149.834 93.8872 144.466C96.8196 139.097 108.544 139.634 114.673 140.975C120.802 142.316 123.47 146.881 121.605 151.978C119.74 157.076 116.538 162.178 122.403 163.248C127.928 164.263 141.982 161.934 155.824 157.396C155.005 157.662 154.153 157.923 153.345 158.183Z" stroke="#443D78" stroke-miterlimit="10"/>
<path d="M158.369 156.538C157.549 156.821 156.725 157.081 155.905 157.369C156.725 157.097 157.549 156.821 158.369 156.538Z" stroke="#443D78" stroke-miterlimit="10"/>
<path d="M255.641 98.8346C250.579 98.8346 250.31 102.862 244.979 102.059C239.647 101.256 239.119 88.9061 244.715 67.1708C244.715 67.1708 238.586 71.7307 224.726 72.0021C210.867 72.2735 205.272 70.6558 208.738 65.5586C212.204 60.4613 214.867 56.4335 211.935 52.411C209.002 48.3886 194.879 48.9206 190.373 52.411C185.866 55.9015 189.041 59.9239 192.238 64.4838C195.434 69.0436 191.699 71.7307 186.373 72.0021C181.047 72.2735 167.452 72.5449 154.924 66.6334C154.299 66.3349 153.663 66.058 153.027 65.7812C151.615 72.1704 148.855 85.2691 148.267 92.3802C147.464 102.043 150.66 104.458 154.66 101.771C158.66 99.0843 164.255 91.8428 168.519 102.857C172.783 113.871 169.317 120.836 164.255 124.06C159.194 127.285 154.105 116.281 150.919 118.426C148.014 120.38 147.086 143.852 153.356 158.183C155.032 157.64 156.709 157.097 158.38 156.555C173.037 151.452 187.693 149.036 190.362 152.527C193.03 156.017 191.979 155.48 188.497 160.848C185.014 166.217 185.295 170.777 191.16 173.459C197.024 176.14 211.412 175.63 212.722 169.436C214.032 163.242 206.593 159.774 210.059 153.868C213.525 147.961 244.176 156.538 244.176 156.538C244.176 156.538 237.249 132.919 239.912 125.135C242.575 117.351 244.715 119.251 248.978 122.182C253.242 125.113 258.838 124.869 260.972 116.281C263.107 107.694 260.703 98.8346 255.641 98.8346Z" stroke="#443D78" stroke-miterlimit="10"/>
<path d="M239.803 41.9158C246.588 38.6924 249.491 30.5415 246.287 23.7103C243.082 16.8791 234.984 13.9544 228.199 17.1778C221.414 20.4012 218.511 28.552 221.715 35.3832C224.919 42.2145 233.018 45.1392 239.803 41.9158Z" fill="#A9E8CB" stroke="#443D78" stroke-miterlimit="10"/>
<path d="M235.139 40.7555C241.275 40.1213 245.739 34.5977 245.11 28.4183C244.48 22.2389 238.995 17.7436 232.858 18.3778C226.722 19.012 222.258 24.5356 222.888 30.715C223.518 36.8944 229.003 41.3897 235.139 40.7555Z" fill="white" stroke="#443D78" stroke-miterlimit="10"/>
<path d="M237.492 36.9624C241.549 35.0191 243.273 30.1318 241.343 26.0465C239.414 21.9612 234.56 20.2248 230.504 22.1681C226.447 24.1115 224.722 28.9987 226.652 33.084C228.582 37.1694 233.435 38.9058 237.492 36.9624Z" fill="#A9E8CB" stroke="#443D78" stroke-miterlimit="10"/>
<path d="M239.13 29.5574C239.13 28.5343 238.829 27.5341 238.264 26.6833C237.7 25.8326 236.897 25.1695 235.959 24.778C235.02 24.3864 233.987 24.284 232.99 24.4836C231.994 24.6832 231.079 25.1759 230.36 25.8994C229.642 26.6229 229.152 27.5447 228.954 28.5482C228.756 29.5517 228.858 30.5919 229.247 31.5372C229.635 32.4825 230.294 33.2904 231.139 33.8589C231.983 34.4273 232.977 34.7307 233.993 34.7307C234.667 34.7314 235.336 34.5981 235.959 34.3384C236.583 34.0786 237.15 33.6976 237.627 33.2171C238.104 32.7366 238.482 32.166 238.74 31.538C238.998 30.91 239.131 30.237 239.13 29.5574Z" fill="white" stroke="#443D78" stroke-miterlimit="10"/>
<path d="M236.375 29.5575C236.376 29.0828 236.237 28.6183 235.976 28.223C235.715 27.8278 235.343 27.5194 234.908 27.337C234.473 27.1545 233.994 27.1062 233.531 27.1982C233.068 27.2902 232.643 27.5183 232.31 27.8536C231.976 28.1889 231.748 28.6164 231.656 29.082C231.564 29.5476 231.611 30.0303 231.791 30.469C231.971 30.9078 232.276 31.2828 232.668 31.5467C233.06 31.8106 233.521 31.9514 233.992 31.9514C234.623 31.9514 235.229 31.6994 235.675 31.2506C236.122 30.8018 236.374 30.1929 236.375 29.5575Z" fill="#A9E8CB" stroke="#443D78" stroke-miterlimit="10"/>
<path d="M234.979 25.8065L233.998 29.5575L237.513 30.3338L234.979 25.8065Z" fill="#443D78" stroke="#443D78" stroke-miterlimit="10"/>
<path d="M236.478 27.8964L251.932 19.4173" stroke="#443D78" stroke-width="2" stroke-miterlimit="10"/>
<path d="M246.973 22.2075L247.205 18.1416L254.466 13.9618V18.603L246.973 22.2075Z" fill="#443D78" stroke="#443D78" stroke-miterlimit="10"/>
<path d="M257.582 20.8124L254.401 18.451L246.941 22.3975L250.536 24.4928L257.582 20.8124Z" fill="#443D78" stroke="#443D78" stroke-miterlimit="10"/>
<path d="M162.784 30.3881H157.382V43.3402H162.784V30.3881Z" fill="#A9E8CB" stroke="#443D78" stroke-miterlimit="10"/>
<path d="M170.745 26.4634H165.344V43.3403H170.745V26.4634Z" fill="#A9E8CB" stroke="#443D78" stroke-miterlimit="10"/>
<path d="M178.707 30.3881H173.306V43.3402H178.707V30.3881Z" fill="#A9E8CB" stroke="#443D78" stroke-miterlimit="10"/>
<path d="M186.675 25.6111H181.273V43.3402H186.675V25.6111Z" fill="#A9E8CB" stroke="#443D78" stroke-miterlimit="10"/>
<path d="M194.636 19.1242H189.235V43.3402H194.636V19.1242Z" fill="#A9E8CB" stroke="#443D78" stroke-miterlimit="10"/>
<path d="M187.467 8.86462L189.575 9.77116L175.241 23.6244L168.395 19.8625L157.55 26.5014V28.5045L168.438 21.8385L175.522 25.7306L190.75 11.0088L191.564 13.1639L194.577 6.12328L187.467 8.86462Z" fill="#443D78" stroke="#443D78" stroke-linecap="round" stroke-linejoin="round"/>
<path d="M124.586 42.7976C131.89 41.0722 136.42 33.7112 134.704 26.3563C132.989 19.0015 125.677 14.438 118.373 16.1634C111.069 17.8888 106.539 25.2498 108.254 32.6046C109.97 39.9594 117.281 44.523 124.586 42.7976Z" fill="white" stroke="#443D78" stroke-miterlimit="10"/>
<path d="M124.162 41.3375C130.664 39.8428 134.731 33.3237 133.247 26.7766C131.762 20.2295 125.289 16.1337 118.787 17.6283C112.286 19.123 108.218 25.6422 109.703 32.1893C111.187 38.7364 117.661 42.8322 124.162 41.3375Z" fill="#A9E8CB" stroke="#443D78" stroke-miterlimit="10"/>
<path d="M123.137 40.3892C129.083 39.4612 133.156 33.8551 132.234 27.8676C131.313 21.8801 125.746 17.7786 119.8 18.7066C113.854 19.6345 109.781 25.2406 110.703 31.2281C111.624 37.2156 117.191 41.3172 123.137 40.3892Z" fill="white" stroke="#443D78" stroke-miterlimit="10"/>
<path d="M121.309 38.9432V37.2006C120.771 37.2179 120.237 37.1165 119.742 36.9036C119.248 36.6908 118.805 36.3716 118.446 35.9684C117.81 35.194 117.469 34.0377 117.422 32.4997L120.047 32.0491C120.056 32.5775 120.121 33.1035 120.241 33.6179C120.312 33.9751 120.482 34.3046 120.732 34.5679C120.841 34.6719 120.97 34.7528 121.111 34.806C121.251 34.8591 121.401 34.8834 121.551 34.8773C121.704 34.895 121.859 34.8693 121.998 34.8031C122.137 34.7369 122.255 34.6329 122.338 34.5027C122.486 34.2399 122.561 33.9417 122.554 33.6396C122.579 33.0644 122.426 32.4956 122.117 32.0111C121.775 31.5255 121.371 31.0874 120.915 30.7083L119.336 29.3458C118.992 29.024 118.669 28.6794 118.371 28.3144C118.08 27.9549 117.851 27.5495 117.692 27.1147C117.513 26.6022 117.428 26.0617 117.438 25.5188C117.413 25.0219 117.489 24.5251 117.66 24.0585C117.831 23.5919 118.095 23.1653 118.436 22.8046C119.166 22.1309 120.114 21.7454 121.104 21.7189V20.0035H121.999V21.6755C122.576 21.6844 123.142 21.8413 123.643 22.1314C124.045 22.3889 124.376 22.7458 124.602 23.1683C124.829 23.5847 124.993 24.033 125.087 24.4982C125.183 24.9598 125.245 25.4279 125.271 25.8987L122.613 26.2896C122.607 25.8783 122.569 25.4681 122.5 25.0628C122.462 24.7597 122.347 24.4718 122.166 24.2268C122.073 24.1237 121.957 24.0447 121.828 23.9965C121.698 23.9483 121.559 23.9324 121.422 23.95C121.266 23.9476 121.112 23.984 120.974 24.056C120.836 24.1279 120.718 24.2333 120.629 24.3625C120.452 24.6206 120.357 24.9278 120.36 25.2419C120.336 25.7369 120.48 26.2253 120.77 26.6262C121.053 26.9892 121.365 27.3287 121.702 27.6413L123.244 28.9875C123.653 29.3633 124.033 29.7698 124.381 30.2035C124.729 30.6448 125.01 31.1349 125.217 31.6583C125.437 32.2403 125.545 32.8594 125.535 33.4822C125.543 34.1084 125.405 34.7277 125.131 35.2899C124.864 35.8193 124.462 36.2672 123.966 36.5872C123.432 36.9315 122.82 37.1367 122.187 37.1844V38.9432H121.309Z" fill="#443D78"/>
<path d="M77.4513 18.8907H52.229V42.7702H77.4513V18.8907Z" fill="white" stroke="#443D78" stroke-miterlimit="10"/>
<path d="M77.4513 18.8907H52.229V25.0302H77.4513V18.8907Z" fill="#A9E8CB" stroke="#443D78" stroke-linecap="round" stroke-linejoin="round"/>
<path d="M57.2963 28.4393H54.2776V31.4792H57.2963V28.4393Z" fill="#A9E8CB" stroke="#443D78" stroke-linecap="round" stroke-linejoin="round"/>
<path d="M61.8241 28.4393H58.8054V31.4792H61.8241V28.4393Z" fill="#A9E8CB" stroke="#443D78" stroke-linecap="round" stroke-linejoin="round"/>
<path d="M66.3468 28.4393H63.3281V31.4792H66.3468V28.4393Z" fill="#A9E8CB" stroke="#443D78" stroke-linecap="round" stroke-linejoin="round"/>
<path d="M70.8749 28.4393H67.8562V31.4792H70.8749V28.4393Z" fill="#A9E8CB" stroke="#443D78" stroke-linecap="round" stroke-linejoin="round"/>
<path d="M75.403 28.4393H72.3843V31.4792H75.403V28.4393Z" fill="#A9E8CB" stroke="#443D78" stroke-linecap="round" stroke-linejoin="round"/>
<path d="M57.2963 33.2163H54.2776V36.2562H57.2963V33.2163Z" fill="#A9E8CB" stroke="#443D78" stroke-linecap="round" stroke-linejoin="round"/>
<path d="M61.8241 33.2163H58.8054V36.2562H61.8241V33.2163Z" fill="#A9E8CB" stroke="#443D78" stroke-linecap="round" stroke-linejoin="round"/>
<path d="M66.3468 33.2163H63.3281V36.2562H66.3468V33.2163Z" fill="#A9E8CB" stroke="#443D78" stroke-linecap="round" stroke-linejoin="round"/>
<path d="M70.8749 33.2163H67.8562V36.2562H70.8749V33.2163Z" fill="#A9E8CB" stroke="#443D78" stroke-linecap="round" stroke-linejoin="round"/>
<path d="M75.403 33.2163H72.3843V36.2562H75.403V33.2163Z" fill="#A9E8CB" stroke="#443D78" stroke-linecap="round" stroke-linejoin="round"/>
<path d="M57.2963 37.9932H54.2776V41.0331H57.2963V37.9932Z" fill="#A9E8CB" stroke="#443D78" stroke-linecap="round" stroke-linejoin="round"/>
<path d="M61.8241 37.9932H58.8054V41.0331H61.8241V37.9932Z" fill="#A9E8CB" stroke="#443D78" stroke-linecap="round" stroke-linejoin="round"/>
<path d="M66.3468 37.9932H63.3281V41.0331H66.3468V37.9932Z" fill="#A9E8CB" stroke="#443D78" stroke-linecap="round" stroke-linejoin="round"/>
<path d="M70.8749 37.9932H67.8562V41.0331H70.8749V37.9932Z" fill="#A9E8CB" stroke="#443D78" stroke-linecap="round" stroke-linejoin="round"/>
<path d="M75.403 37.9932H72.3843V41.0331H75.403V37.9932Z" fill="#A9E8CB" stroke="#443D78" stroke-linecap="round" stroke-linejoin="round"/>
<path d="M57.8352 14.9823H55.679V20.8449H57.8352V14.9823Z" fill="#443D78"/>
<path d="M63.2258 14.9823H61.0696V20.8449H63.2258V14.9823Z" fill="#443D78"/>
<path d="M68.6108 14.9823H66.4546V20.8449H68.6108V14.9823Z" fill="#443D78"/>
<path d="M74.0014 14.9823H71.8452V20.8449H74.0014V14.9823Z" fill="#443D78"/>
<path d="M30.2948 197.267C31.4645 197.783 34.3269 197.718 34.3269 197.718C34.3269 197.718 33.7124 195.834 33.6585 195.72C33.0278 194.396 31.0441 192.214 29.4269 192.431C29.1595 192.475 28.9043 192.575 28.678 192.725C28.4517 192.875 28.2593 193.072 28.1134 193.302C27.9674 193.532 27.8712 193.79 27.831 194.06C27.7907 194.33 27.8074 194.605 27.8798 194.868C28.1494 195.992 29.2975 196.833 30.2948 197.267Z" fill="#A9E8CB"/>
<path d="M31.2815 205.622C32.4944 205.795 35.0549 205.052 35.2543 204.992C35.6732 206.464 36.1901 207.906 36.8014 209.308C37.1518 210.127 37.5345 210.936 37.9226 211.756C37.6909 211.408 37.4806 211.104 37.4429 211.066C36.4942 209.954 34.0037 208.352 32.5052 209.02C32.2585 209.133 32.0383 209.296 31.8589 209.501C31.6795 209.705 31.545 209.945 31.4641 210.206C31.3832 210.466 31.3577 210.74 31.3895 211.011C31.4212 211.282 31.5093 211.543 31.6481 211.777C32.1871 212.793 33.5294 213.297 34.6075 213.455C35.6856 213.612 37.8903 213.026 38.4671 212.858C38.618 213.167 38.769 213.482 38.9253 213.791C39.6638 215.273 40.4077 216.75 41.0815 218.221C41.3241 218.737 41.5451 219.258 41.7661 219.779C41.5559 219.469 41.3834 219.236 41.351 219.182C40.3969 218.096 37.9065 216.495 36.4079 217.135C36.1626 217.25 35.944 217.416 35.7662 217.621C35.5883 217.827 35.4553 218.067 35.3755 218.328C35.2958 218.588 35.2711 218.862 35.3032 219.133C35.3352 219.403 35.4233 219.664 35.5616 219.898C36.1006 220.913 37.4483 221.413 38.521 221.57C39.5937 221.728 41.5936 221.196 42.2944 221.027C42.5046 221.57 42.7148 222.113 42.8981 222.656C43.0113 223.02 43.1515 223.367 43.2431 223.742C43.3348 224.116 43.448 224.469 43.545 224.827C43.7121 225.528 43.89 226.25 44.0355 226.939C44.1433 227.417 44.235 227.878 44.3266 228.334C44.0894 227.818 43.6097 226.814 43.5612 226.733C42.7849 225.49 40.564 223.552 38.9846 223.953C38.7283 224.029 38.4904 224.157 38.2856 224.329C38.0808 224.502 37.9137 224.715 37.7947 224.955C37.6757 225.196 37.6075 225.459 37.5942 225.727C37.581 225.996 37.6231 226.264 37.7178 226.516C38.1113 227.601 39.335 228.307 40.4131 228.627C41.5559 228.975 44.0894 228.654 44.4075 228.627C44.5584 229.393 44.6986 230.136 44.8225 230.837C45.0921 232.394 45.2969 233.784 45.4532 234.962H46.5313C46.3427 233.741 46.1001 232.291 45.7767 230.663C45.6257 229.887 45.4478 229.061 45.2376 228.215C46.0018 227.907 46.747 227.553 47.4693 227.156C48.3048 228.068 50.4395 229.132 50.7036 229.268C50.4125 229.99 50.1214 230.69 49.8357 231.341C49.2428 232.715 48.6822 233.931 48.1862 234.962H49.3452C49.7711 234.007 50.24 232.921 50.7252 231.705C51.0271 230.972 51.3289 230.185 51.6362 229.376C51.9434 229.441 54.45 229.952 55.6198 229.686C56.6979 229.447 57.9647 228.844 58.4444 227.786C58.5636 227.54 58.6301 227.272 58.6396 226.999C58.6492 226.726 58.6016 226.454 58.4999 226.2C58.3982 225.947 58.2448 225.718 58.0495 225.528C57.8542 225.338 57.6214 225.192 57.3663 225.099C55.8192 224.556 53.4636 226.347 52.5957 227.525C52.5472 227.596 52.0566 228.41 51.7871 228.931C51.9111 228.6 52.0351 228.28 52.1537 227.938C52.4016 227.259 52.628 226.575 52.876 225.842L53.1994 224.757C53.3126 224.393 53.3881 224.002 53.4905 223.617C53.7008 222.732 53.8679 221.82 54.0296 220.903C54.6225 221.12 56.7249 221.858 57.803 221.777C58.8811 221.695 60.2503 221.299 60.8756 220.327C61.032 220.104 61.1398 219.85 61.192 219.583C61.2443 219.315 61.2397 219.039 61.1786 218.773C61.1175 218.507 61.0014 218.257 60.8377 218.039C60.674 217.821 60.4664 217.641 60.2287 217.51C58.7787 216.761 56.1804 218.145 55.1508 219.182C55.0861 219.247 54.4285 220.072 54.0727 220.533C54.159 219.991 54.2506 219.448 54.3207 218.861C54.5201 217.233 54.6711 215.577 54.8597 213.927C54.9082 213.422 54.9621 212.917 55.0161 212.413C55.2263 212.494 57.7113 213.422 58.9296 213.341C60.0077 213.259 61.3715 212.863 62.0022 211.891C62.1578 211.668 62.2649 211.414 62.3167 211.147C62.3684 210.879 62.3636 210.603 62.3026 210.338C62.2416 210.072 62.1257 209.822 61.9625 209.604C61.7993 209.387 61.5924 209.206 61.3553 209.074C59.9053 208.32 57.307 209.704 56.2721 210.741C56.1966 210.817 55.2532 212.011 55.0268 212.326C55.14 211.213 55.2694 210.111 55.4365 209.025C55.6582 207.559 55.9715 206.109 56.3745 204.683C56.4715 204.721 59.0697 205.703 60.3096 205.616C61.3877 205.54 62.7569 205.139 63.3822 204.167C63.5377 203.944 63.6449 203.69 63.6966 203.422C63.7484 203.154 63.7436 202.879 63.6826 202.613C63.6216 202.347 63.5057 202.097 63.3425 201.88C63.1793 201.662 62.9724 201.481 62.7353 201.35C61.2853 200.595 58.687 201.985 57.6574 203.016C57.5766 203.097 56.5793 204.379 56.3906 204.645C56.3906 204.563 56.4338 204.476 56.4553 204.395C56.9018 202.978 57.4737 201.605 58.1641 200.291C58.5307 199.558 58.9296 198.88 59.3285 198.234C59.7921 198.467 61.9159 199.504 63.0534 199.553C64.1908 199.602 65.533 199.346 66.2877 198.467C66.4672 198.262 66.6018 198.022 66.6826 197.761C66.7634 197.501 66.7886 197.226 66.7565 196.955C66.7244 196.684 66.6358 196.422 66.4965 196.188C66.3572 195.954 66.1703 195.752 65.9481 195.595C64.5897 194.683 61.8567 195.78 60.7192 196.681C60.6546 196.73 60.0832 197.305 59.6735 197.729C59.8568 197.441 60.04 197.137 60.2125 196.86C60.8917 195.829 61.5817 194.922 62.1963 194.146C62.552 193.696 62.8809 193.299 63.1935 192.925C63.7649 192.925 66.0721 192.843 67.0801 192.382C68.0881 191.92 69.1932 191.052 69.4304 189.917C69.4957 189.652 69.5047 189.376 69.4569 189.107C69.4091 188.838 69.3055 188.582 69.1529 188.357C69.0003 188.131 68.8021 187.94 68.5713 187.796C68.3404 187.653 68.0821 187.56 67.8132 187.523C66.196 187.35 64.2662 189.586 63.6733 190.927C63.6247 191.041 63.0318 192.946 63.0587 192.946H63.0534C62.7461 193.299 62.4173 193.679 62.0723 194.103C61.4362 194.884 60.73 195.78 60.0239 196.817C59.2373 197.91 58.5173 199.05 57.8677 200.231C57.1415 201.546 56.5335 202.923 56.051 204.346V204.4C56.051 203.917 56.051 202.571 56.051 202.468C55.8624 201.013 54.6495 198.315 53.0485 198.017C52.7807 197.974 52.507 197.989 52.2454 198.061C51.9837 198.132 51.7399 198.258 51.5299 198.431C51.3198 198.603 51.1483 198.819 51.0263 199.062C50.9044 199.306 50.8349 199.573 50.8222 199.846C50.7306 201.002 51.5607 202.158 52.3693 202.886C53.2857 203.711 55.8246 204.514 56.0295 204.569C55.5716 206.03 55.2114 207.521 54.9514 209.031C54.795 209.91 54.6657 210.8 54.5471 211.691C54.5471 211.278 54.5471 210.903 54.5471 210.855C54.3584 209.4 53.1455 206.702 51.5445 206.403C51.2772 206.361 51.0039 206.376 50.7426 206.447C50.4813 206.518 50.2378 206.644 50.0278 206.816C49.8179 206.988 49.6462 207.202 49.524 207.446C49.4017 207.689 49.3316 207.955 49.3183 208.227C49.2266 209.384 50.0568 210.54 50.8653 211.273C51.6739 212.005 53.8409 212.733 54.4123 212.901L54.2829 213.933C54.0889 215.561 53.9002 217.222 53.6684 218.818C53.5876 219.361 53.4851 219.936 53.3827 220.495C53.3827 220.126 53.3827 219.811 53.3827 219.768C53.1941 218.313 51.9866 215.61 50.3802 215.311C50.1125 215.27 49.8391 215.286 49.5778 215.357C49.3165 215.429 49.0731 215.555 48.8632 215.728C48.6534 215.9 48.4818 216.115 48.3596 216.358C48.2375 216.602 48.1674 216.868 48.1539 217.141C48.0623 218.297 48.8924 219.453 49.7064 220.181C50.5203 220.908 52.4663 221.576 53.1455 221.809C53.0269 222.352 52.9084 222.938 52.7682 223.486C52.6658 223.85 52.5903 224.214 52.4663 224.572C52.3423 224.93 52.2345 225.3 52.1213 225.658C51.8734 226.336 51.6254 227.037 51.3721 227.693L50.833 229.018C50.9192 228.475 51.0702 227.351 51.0702 227.254C51.0505 225.965 50.7054 224.702 50.0675 223.584C50.0783 223.441 50.0783 223.298 50.0675 223.155C50.0305 222.887 49.9381 222.629 49.7963 222.398C49.6546 222.167 49.4666 221.969 49.2443 221.816C49.0221 221.662 48.7705 221.558 48.5057 221.508C48.2409 221.458 47.9687 221.465 47.7065 221.527C46.1324 221.95 45.1298 224.735 45.0543 226.201C45.0543 226.288 45.1082 227.232 45.1514 227.829C45.0759 227.482 45.0004 227.151 44.9142 226.792C44.7471 226.092 44.5638 225.397 44.3751 224.648C44.2673 224.29 44.1541 223.926 44.0463 223.562C43.9385 223.199 43.7929 222.824 43.6636 222.45C43.3563 221.592 42.9951 220.74 42.6178 219.887C43.2269 219.741 45.3885 219.187 46.251 218.514C47.1135 217.841 48.0299 216.755 48.0245 215.599C48.0314 215.326 47.9813 215.055 47.8774 214.803C47.7735 214.551 47.6182 214.323 47.4216 214.136C47.2249 213.948 46.9913 213.804 46.7357 213.713C46.4802 213.621 46.2086 213.585 45.9384 213.607C44.3212 213.786 42.9089 216.386 42.6178 217.825C42.6178 217.912 42.5046 218.965 42.4615 219.545C42.2297 219.035 41.9979 218.525 41.7499 218.015C41.0222 216.549 40.246 215.083 39.4751 213.618L38.7744 212.271C38.9954 212.217 41.572 211.615 42.5477 210.865C43.4156 210.198 44.3266 209.107 44.3212 207.95C44.3281 207.678 44.278 207.406 44.1741 207.154C44.0702 206.902 43.9149 206.675 43.7183 206.487C43.5216 206.299 43.2879 206.155 43.0324 206.064C42.7769 205.973 42.5053 205.937 42.2351 205.958C40.6179 206.137 39.2056 208.738 38.9145 210.176C38.9145 210.285 38.7528 211.805 38.742 212.19C38.203 211.197 37.7286 210.209 37.2758 209.21C36.6462 207.867 36.106 206.483 35.6586 205.068C35.761 205.068 38.4563 204.427 39.432 203.662C40.2945 202.994 41.2109 201.903 41.2001 200.747C41.2077 200.474 41.1583 200.203 41.0551 199.951C40.9518 199.699 40.797 199.472 40.6008 199.284C40.4045 199.096 40.1712 198.952 39.916 198.86C39.6607 198.769 39.3893 198.733 39.1193 198.755C37.5022 198.934 36.0899 201.534 35.7934 202.967C35.7934 203.081 35.6263 204.715 35.6209 205.014L35.5346 204.764C35.1339 203.334 34.8579 201.872 34.7099 200.394C34.6182 199.58 34.5805 198.793 34.5536 198.033C35.0926 197.968 37.4159 197.653 38.3862 197.061C39.3565 196.469 40.343 195.509 40.4616 194.347C40.4988 194.077 40.4791 193.801 40.4037 193.539C40.3282 193.277 40.1989 193.034 40.0239 192.826C39.849 192.617 39.6324 192.448 39.3884 192.33C39.1443 192.211 38.8781 192.146 38.6072 192.138C36.9901 192.138 35.2975 194.564 34.8339 195.937C34.8339 196.013 34.6452 196.811 34.5374 197.398C34.5374 197.05 34.5374 196.697 34.5374 196.366C34.5374 195.123 34.6182 193.983 34.6937 192.979C34.7422 192.436 34.7961 191.893 34.8554 191.41C35.3244 191.084 37.2111 189.744 37.7933 188.783C38.3755 187.822 38.8229 186.497 38.397 185.423C38.3055 185.167 38.1615 184.933 37.9744 184.737C37.7874 184.541 37.5614 184.387 37.3113 184.284C37.0611 184.182 36.7924 184.134 36.5225 184.143C36.2527 184.152 35.9877 184.218 35.7449 184.337C34.2948 185.092 33.9121 188.028 34.1277 189.472C34.1277 189.597 34.6991 191.519 34.7207 191.502H34.753C34.6883 191.964 34.6236 192.463 34.5697 193.006C34.4673 194.016 34.3649 195.15 34.3379 196.399C34.2923 197.742 34.3229 199.087 34.4296 200.427C34.5478 201.926 34.7967 203.412 35.1735 204.867V204.921C34.9147 204.514 34.1601 203.407 34.0954 203.325C33.1412 202.24 30.6508 200.638 29.1522 201.279C28.9223 201.396 28.718 201.558 28.5513 201.756C28.3845 201.953 28.2588 202.183 28.1814 202.43C28.104 202.677 28.0766 202.938 28.1008 203.196C28.125 203.454 28.2002 203.705 28.3221 203.933C28.8773 204.959 30.2034 205.459 31.2815 205.622Z" fill="#A9E8CB"/>
<path d="M59.2475 197.902C59.2475 197.902 59.7866 195.986 59.7866 195.861C59.9914 194.412 59.5278 191.486 58.0616 190.77C57.8145 190.657 57.5467 190.598 57.2755 190.597C57.0044 190.596 56.7361 190.653 56.4882 190.764C56.2404 190.874 56.0185 191.037 55.8373 191.24C55.656 191.443 55.5194 191.682 55.4364 191.942C55.0429 193.028 55.5388 194.369 56.1318 195.286C56.8218 196.366 59.2421 197.902 59.2475 197.902Z" fill="#A9E8CB"/>
<path d="M229.265 197.267C230.435 197.783 233.297 197.718 233.297 197.718C233.297 197.718 232.683 195.834 232.629 195.72C231.998 194.396 230.014 192.214 228.397 192.431C228.13 192.475 227.875 192.575 227.648 192.725C227.422 192.875 227.23 193.072 227.084 193.302C226.938 193.532 226.841 193.79 226.801 194.06C226.761 194.33 226.778 194.605 226.85 194.868C227.12 195.992 228.268 196.833 229.265 197.267Z" fill="#A9E8CB"/>
<path d="M230.252 205.621C231.464 205.795 234.025 205.051 234.224 204.992C234.646 206.463 235.163 207.904 235.772 209.307C236.122 210.127 236.505 210.936 236.893 211.755C236.661 211.408 236.451 211.104 236.413 211.066C235.464 209.953 232.974 208.352 231.475 209.019C231.229 209.132 231.008 209.296 230.829 209.5C230.65 209.705 230.515 209.945 230.434 210.205C230.353 210.466 230.328 210.74 230.36 211.011C230.391 211.282 230.479 211.543 230.618 211.777C231.157 212.792 232.499 213.297 233.578 213.454C234.656 213.612 236.86 213.026 237.437 212.857C237.588 213.167 237.739 213.482 237.895 213.791C238.634 215.273 239.378 216.75 240.052 218.221C240.294 218.736 240.515 219.257 240.736 219.779C240.526 219.469 240.353 219.236 240.321 219.181C239.367 218.096 236.882 216.494 235.378 217.135C235.132 217.249 234.912 217.414 234.733 217.619C234.554 217.824 234.42 218.064 234.339 218.324C234.258 218.585 234.233 218.86 234.264 219.131C234.295 219.402 234.383 219.663 234.521 219.898C235.06 220.913 236.408 221.412 237.48 221.57C238.553 221.727 240.553 221.195 241.254 221.027C241.464 221.57 241.68 222.113 241.857 222.656C241.971 223.019 242.111 223.367 242.202 223.741C242.294 224.116 242.407 224.469 242.504 224.827C242.671 225.527 242.849 226.249 242.995 226.939C243.103 227.416 243.194 227.878 243.286 228.334C243.049 227.818 242.569 226.814 242.52 226.732C241.744 225.489 239.523 223.551 237.944 223.953C237.684 224.028 237.442 224.158 237.234 224.333C237.027 224.508 236.858 224.726 236.739 224.971C236.62 225.216 236.554 225.483 236.544 225.756C236.534 226.028 236.581 226.3 236.683 226.553C237.076 227.639 238.3 228.345 239.378 228.665C240.521 229.012 243.054 228.692 243.372 228.665C243.523 229.43 243.663 230.174 243.787 230.874C244.057 232.432 244.262 233.822 244.418 235H245.496C245.307 233.778 245.065 232.329 244.741 230.7C244.59 229.924 244.413 229.099 244.202 228.252C244.966 227.944 245.712 227.591 246.434 227.194C247.27 228.106 249.404 229.17 249.668 229.305C249.377 230.027 249.086 230.728 248.8 231.379C248.208 232.752 247.647 233.968 247.151 235H248.31C248.736 234.044 249.205 232.959 249.69 231.743C249.992 231.01 250.294 230.223 250.601 229.414C250.908 229.479 253.415 229.989 254.585 229.723C255.663 229.484 256.929 228.882 257.409 227.823C257.528 227.578 257.595 227.31 257.604 227.037C257.614 226.763 257.566 226.491 257.465 226.238C257.363 225.985 257.209 225.756 257.014 225.566C256.819 225.376 256.586 225.23 256.331 225.136C254.784 224.594 252.428 226.385 251.56 227.563C251.512 227.633 251.021 228.448 250.752 228.969C250.876 228.638 251 228.317 251.124 227.975C251.366 227.297 251.593 226.613 251.841 225.88L252.164 224.794C252.277 224.431 252.353 224.04 252.455 223.654C252.665 222.77 252.833 221.858 252.994 220.94C253.587 221.157 255.69 221.896 256.768 221.814C257.846 221.733 259.215 221.336 259.84 220.365C259.997 220.142 260.105 219.888 260.157 219.62C260.209 219.352 260.204 219.076 260.143 218.81C260.082 218.544 259.966 218.294 259.802 218.077C259.639 217.859 259.431 217.679 259.193 217.547C257.743 216.798 255.145 218.183 254.116 219.219C254.051 219.285 253.393 220.11 253.037 220.571C253.124 220.028 253.215 219.485 253.285 218.899C253.485 217.271 253.636 215.615 253.798 213.965C253.846 213.46 253.9 212.955 253.954 212.45C254.164 212.532 256.649 213.46 257.867 213.378C258.945 213.297 260.309 212.901 260.94 211.929C261.096 211.706 261.203 211.452 261.254 211.184C261.306 210.917 261.301 210.641 261.24 210.375C261.179 210.109 261.064 209.86 260.9 209.642C260.737 209.424 260.53 209.244 260.293 209.112C258.843 208.357 256.245 209.741 255.21 210.778C255.134 210.854 254.191 212.049 253.965 212.363C254.078 211.251 254.207 210.149 254.374 209.063C254.596 207.597 254.909 206.146 255.312 204.72C255.409 204.758 258.008 205.741 259.247 205.654C260.325 205.578 261.695 205.176 262.32 204.205C262.476 203.981 262.583 203.727 262.634 203.46C262.686 203.192 262.681 202.916 262.62 202.651C262.559 202.385 262.443 202.135 262.28 201.917C262.117 201.7 261.91 201.519 261.673 201.387C260.223 200.633 257.625 202.022 256.595 203.054C256.514 203.135 255.517 204.416 255.328 204.682C255.328 204.601 255.372 204.514 255.393 204.433C255.84 203.016 256.411 201.642 257.102 200.329C257.468 199.596 257.867 198.917 258.266 198.271C258.73 198.505 260.854 199.542 261.991 199.59C263.129 199.639 264.471 199.384 265.225 198.505C265.405 198.3 265.54 198.06 265.62 197.799C265.701 197.538 265.726 197.263 265.694 196.992C265.662 196.721 265.574 196.46 265.434 196.226C265.295 195.991 265.108 195.79 264.886 195.633C263.527 194.721 260.794 195.818 259.657 196.719C259.598 196.768 259.021 197.343 258.611 197.766C258.795 197.479 258.978 197.175 259.15 196.898C259.835 195.867 260.52 194.96 261.134 194.184C261.49 193.733 261.819 193.337 262.131 192.962C262.703 192.962 265.01 192.881 266.018 192.419C267.026 191.958 268.131 191.09 268.368 189.955C268.433 189.69 268.442 189.414 268.395 189.145C268.347 188.876 268.243 188.62 268.091 188.394C267.938 188.168 267.74 187.977 267.509 187.834C267.278 187.69 267.02 187.597 266.751 187.561C265.134 187.387 263.199 189.624 262.606 190.965C262.557 191.079 261.964 192.984 261.991 192.984H262.029C261.722 193.337 261.393 193.717 261.048 194.14C260.412 194.922 259.706 195.818 258.999 196.854C258.222 197.948 257.511 199.089 256.87 200.269C256.144 201.583 255.536 202.96 255.053 204.384C255.056 204.402 255.056 204.42 255.053 204.438C255.053 203.955 255.053 202.609 255.053 202.505C254.865 201.051 253.652 198.353 252.051 198.054C251.783 198.012 251.509 198.027 251.248 198.098C250.986 198.17 250.742 198.296 250.532 198.468C250.322 198.641 250.151 198.856 250.029 199.1C249.907 199.344 249.837 199.611 249.825 199.884C249.733 201.04 250.563 202.196 251.372 202.923C252.288 203.749 254.827 204.552 255.032 204.606C254.574 206.068 254.214 207.558 253.954 209.068C253.798 209.948 253.668 210.838 253.55 211.728C253.55 211.316 253.55 210.941 253.55 210.892C253.361 209.437 252.148 206.74 250.547 206.441C250.28 206.399 250.006 206.414 249.745 206.485C249.484 206.556 249.24 206.681 249.03 206.853C248.82 207.025 248.649 207.24 248.526 207.483C248.404 207.726 248.334 207.993 248.321 208.265C248.229 209.421 249.059 210.577 249.868 211.31C250.676 212.043 252.843 212.77 253.415 212.939C253.377 213.281 253.329 213.623 253.285 213.97C253.091 215.599 252.903 217.26 252.671 218.856C252.59 219.399 252.488 219.974 252.385 220.533C252.385 220.164 252.385 219.849 252.385 219.806C252.197 218.351 250.989 215.648 249.383 215.349C249.115 215.308 248.842 215.323 248.58 215.395C248.319 215.467 248.076 215.593 247.866 215.765C247.656 215.938 247.484 216.153 247.362 216.396C247.24 216.639 247.17 216.906 247.156 217.178C247.065 218.335 247.895 219.491 248.709 220.218C249.523 220.946 251.474 221.613 252.148 221.847C252.029 222.39 251.911 222.976 251.771 223.524C251.668 223.888 251.593 224.252 251.469 224.61C251.345 224.968 251.237 225.337 251.124 225.695C250.876 226.374 250.628 227.074 250.375 227.731L249.835 229.056C249.922 228.513 250.073 227.389 250.073 227.291C250.056 226.002 249.71 224.739 249.07 223.622C249.072 223.478 249.063 223.335 249.043 223.193C249.006 222.924 248.914 222.666 248.772 222.436C248.63 222.205 248.442 222.007 248.22 221.853C247.998 221.7 247.746 221.595 247.481 221.545C247.216 221.496 246.944 221.502 246.682 221.564C245.108 221.988 244.105 224.773 244.03 226.238C244.03 226.325 244.084 227.27 244.127 227.867C244.051 227.519 243.976 227.188 243.89 226.83C243.723 226.13 243.539 225.435 243.351 224.686C243.243 224.328 243.13 223.964 243.022 223.6C242.914 223.236 242.768 222.862 242.639 222.487C242.332 221.63 241.971 220.777 241.593 219.925C242.202 219.779 244.364 219.225 245.227 218.552C246.089 217.879 247.005 216.793 247 215.637C247.007 215.364 246.957 215.093 246.853 214.84C246.749 214.588 246.594 214.361 246.397 214.173C246.2 213.985 245.967 213.841 245.711 213.75C245.456 213.659 245.184 213.623 244.914 213.644C243.297 213.824 241.884 216.424 241.593 217.862C241.593 217.949 241.48 219.002 241.437 219.583C241.205 219.073 240.973 218.563 240.725 218.052C239.998 216.587 239.221 215.121 238.451 213.655L237.75 212.309C237.971 212.255 240.548 211.652 241.523 210.903C242.391 210.235 243.302 209.144 243.297 207.988C243.304 207.715 243.253 207.444 243.15 207.192C243.046 206.94 242.89 206.712 242.694 206.525C242.497 206.337 242.263 206.193 242.008 206.102C241.752 206.011 241.481 205.974 241.211 205.996C239.593 206.175 238.181 208.775 237.89 210.214C237.89 210.322 237.728 211.842 237.718 212.228C237.205 211.234 236.704 210.246 236.251 209.247C235.631 207.904 235.1 206.52 234.661 205.106C234.764 205.106 237.459 204.465 238.434 203.7C239.297 203.032 240.213 201.941 240.203 200.785C240.21 200.512 240.161 200.241 240.058 199.989C239.954 199.737 239.8 199.509 239.603 199.321C239.407 199.133 239.174 198.989 238.918 198.898C238.663 198.807 238.392 198.771 238.122 198.792C236.505 198.972 235.092 201.572 234.796 203.005C234.796 203.119 234.629 204.753 234.623 205.051L234.537 204.802C234.136 203.372 233.86 201.91 233.712 200.432C233.626 199.618 233.583 198.83 233.556 198.07C234.095 198.005 236.418 197.69 237.389 197.099C238.359 196.507 239.345 195.546 239.464 194.385C239.501 194.114 239.482 193.839 239.406 193.577C239.331 193.315 239.201 193.072 239.026 192.863C238.851 192.655 238.635 192.486 238.391 192.367C238.147 192.249 237.881 192.183 237.61 192.175C235.993 192.175 234.3 194.602 233.836 195.975C233.836 196.051 233.648 196.849 233.54 197.435C233.54 197.088 233.54 196.735 233.54 196.404C233.54 195.161 233.621 194.021 233.696 193.017C233.745 192.474 233.799 191.931 233.858 191.448C234.327 191.122 236.214 189.781 236.796 188.82C237.378 187.86 237.825 186.535 237.399 185.46C237.308 185.204 237.164 184.971 236.977 184.775C236.79 184.579 236.564 184.424 236.314 184.322C236.064 184.22 235.795 184.171 235.525 184.181C235.255 184.19 234.99 184.256 234.747 184.375C233.297 185.129 232.915 188.066 233.157 189.51C233.157 189.635 233.696 191.556 233.75 191.54H233.777C233.712 192.002 233.648 192.501 233.594 193.044C233.491 194.053 233.389 195.188 233.362 196.436C233.316 197.78 233.347 199.125 233.454 200.464C233.572 201.964 233.821 203.449 234.197 204.905V204.959C233.939 204.552 233.184 203.445 233.119 203.363C232.165 202.277 229.675 200.676 228.176 201.317C227.929 201.43 227.709 201.594 227.53 201.799C227.35 202.004 227.216 202.245 227.135 202.505C227.054 202.766 227.029 203.041 227.06 203.312C227.092 203.584 227.18 203.845 227.319 204.08C227.847 204.959 229.174 205.458 230.252 205.621Z" fill="#A9E8CB"/>
<path d="M258.218 197.902C258.218 197.902 258.757 195.986 258.757 195.861C258.962 194.412 258.498 191.486 257.032 190.77C256.785 190.657 256.517 190.598 256.246 190.597C255.975 190.596 255.706 190.653 255.458 190.764C255.211 190.874 254.989 191.037 254.807 191.24C254.626 191.443 254.49 191.682 254.407 191.942C254.013 193.028 254.509 194.369 255.102 195.286C255.792 196.366 258.191 197.902 258.218 197.902Z" fill="#A9E8CB"/>
<path d="M206.619 84.2757C206.619 84.2757 206.786 78.147 210.296 76.4099C213.805 74.6729 214.004 80.4106 214.004 80.4106C214.004 80.4106 222.031 75.2754 223.772 79.1676C225.513 83.0597 223.082 84.9434 223.082 84.9434C223.082 84.9434 230.208 84.6936 230.704 88.6292C231.2 92.5648 227.518 94.4919 227.518 94.4919C227.518 94.4919 231.922 98.1126 230.375 99.7845C228.828 101.456 225.443 101.576 225.443 101.576C225.443 101.576 227.362 105.457 224.014 106.836C220.667 108.215 216.84 105.647 216.84 105.647C216.84 105.647 217.433 107.428 214.921 106.977C212.409 106.527 209.87 105.349 208.312 101.636C206.754 97.9226 204.743 87.4078 206.619 84.2757Z" fill="#443D78" stroke="#443D78" stroke-linecap="round" stroke-linejoin="round"/>
<path d="M169.565 202.642C169.565 202.642 167.565 210.328 167.597 211.18C167.63 212.033 166.934 213.965 167.522 214.513C168.622 215.417 169.787 216.235 171.01 216.962C171.508 216.955 171.994 216.806 172.411 216.533C172.546 216.411 172.655 216.262 172.73 216.096C172.805 215.929 172.845 215.749 172.848 215.567C172.848 215.279 172.045 214.074 171.937 213.791C171.829 213.509 173.408 209.834 174.007 208.005C174.455 206.371 174.776 204.705 174.966 203.022L169.565 202.642Z" fill="#BDBDBD" stroke="#443D78" stroke-miterlimit="10"/>
<path d="M171.737 207.994C171.737 207.994 170.6 210.708 170.524 211.175C170.449 211.642 168.907 212.945 169.112 213.987C169.317 215.029 171.592 214.752 172.713 211.669" fill="#BDBDBD"/>
<path d="M171.737 207.994C171.737 207.994 170.6 210.708 170.524 211.175C170.449 211.642 168.907 212.945 169.112 213.987C169.317 215.029 171.592 214.752 172.713 211.669" stroke="#443D78" stroke-miterlimit="10"/>
<path d="M176.831 160.886C176.831 160.886 175.877 176.564 175.516 177.948C175.155 179.332 170.821 191.975 169.867 195.862C169.281 198.268 168.865 200.713 168.621 203.179L174.438 204.411L177.704 189.961C177.704 189.961 181.974 176.792 181.106 170.62C180.661 167.023 179.174 163.638 176.831 160.886Z" fill="#A9E8CB" stroke="#443D78" stroke-miterlimit="10"/>
<path d="M207.131 234.946C207.202 231.537 207.342 226.939 207.671 224.306C208.21 219.757 210.139 216.945 212.123 211.278C214.107 205.611 214.279 198.163 214.279 198.163L178.756 199.412C178.756 199.412 174.637 214.79 172.141 226.103C171.464 229.005 171.068 231.967 170.961 234.946" fill="#A9E8CB"/>
<path d="M207.131 234.946C207.202 231.537 207.342 226.939 207.671 224.306C208.21 219.757 210.139 216.945 212.123 211.278C214.107 205.611 214.279 198.163 214.279 198.163L178.756 199.412C178.756 199.412 174.637 214.79 172.141 226.103C171.464 229.005 171.068 231.967 170.961 234.946" stroke="#443D78" stroke-miterlimit="10"/>
<path d="M183.408 205.177L212.964 206.013L213.589 203.711L183.408 205.177Z" fill="#443D78" stroke="#443D78" stroke-linecap="round" stroke-linejoin="round"/>
<path d="M181.915 234.403C181.915 234.403 181.332 215.789 181.316 205.687L181.915 234.403Z" fill="white"/>
<path d="M181.915 234.403C181.915 234.403 181.332 215.789 181.316 205.687" stroke="#443D78" stroke-miterlimit="10"/>
<path d="M204.571 121.509L208.883 124.429C208.883 124.429 213.988 129.022 215.244 132.822C216.5 136.622 215.589 159.187 214.322 166.478C213.056 173.768 216.22 182.85 217.346 187.974C218.473 193.098 218.964 202.631 218.964 202.631C218.964 202.631 219.761 203.749 205.918 204.232C192.076 204.715 182.421 205.443 181.289 205.671C180.605 205.812 179.911 205.901 179.214 205.937L178.675 200.986L177.332 205.063L174.459 204.4C174.459 204.4 176.243 195.541 176.691 192.089C177.138 188.636 179.963 176.889 180.001 172.471C180.038 168.052 176.373 160.941 175.656 156.565C174.939 152.19 176.384 144.688 179.968 139.021C183.553 133.354 185.957 131.161 192.965 125.374C199.973 119.587 204.571 121.509 204.571 121.509Z" fill="#A9E8CB" stroke="#443D78" stroke-miterlimit="10"/>
<path d="M193.337 187.654L207.8 189.304L206.986 185.493L197.962 184.712" stroke="#443D78" stroke-miterlimit="10"/>
<path d="M188.281 184.5L187.548 186.997L191.175 187.41" stroke="#443D78" stroke-miterlimit="10"/>
<path d="M193.709 159.546C193.029 158.912 192.405 158.22 191.844 157.477" stroke="#443D78" stroke-miterlimit="10"/>
<path d="M198.738 163.823C198.738 163.823 197.213 162.661 195.542 161.218" stroke="#443D78" stroke-miterlimit="10"/>
<path d="M204.571 121.509C204.571 121.509 199.973 119.582 192.965 125.374C185.957 131.166 183.559 133.365 179.958 139.021C177.807 142.518 176.377 146.415 175.753 150.48C175.839 150.904 175.931 151.332 176.033 151.772C178.039 160.306 180.27 164.431 180.27 164.431C180.27 164.431 184.152 144.987 190.906 137.105C197.66 129.223 208.878 124.429 208.878 124.429L204.571 121.509Z" fill="#A9E8CB" stroke="#443D78" stroke-miterlimit="10"/>
<path d="M187.715 83.5808C187.715 83.5808 182.653 88.3415 182.276 92.0925C181.898 95.8435 181.505 99.0789 180.874 100.289C180.243 101.5 177.063 102.292 178.141 104.122C179.219 105.951 180.227 105.913 180.227 105.913C180.227 105.913 181.844 114.007 183.073 115.141C184.302 116.276 188.653 115.625 188.653 115.625L190 125.439C190 125.439 180.95 133.522 179.187 144.786C177.424 156.05 179.44 162.477 179.44 162.477C179.44 162.477 180.621 144.732 184.696 138.087C188.771 131.443 198.237 125.151 199.633 124.017C201.029 122.882 204.571 121.498 204.571 121.498C204.571 121.498 202.889 117.698 202.663 115.983C202.436 114.267 202.512 111.743 202.83 111.054C203.148 110.364 208.802 108.296 210.916 101.771C213.029 95.2464 209.918 87.5436 206.603 84.2648C203.288 80.9861 191.952 79.3575 187.715 83.5808Z" fill="#BDBDBD" stroke="#443D78" stroke-miterlimit="10"/>
<path d="M210.937 101.782C213.094 95.2681 209.94 87.5544 206.625 84.2757C203.31 80.9969 191.957 79.3575 187.72 83.5808C187.72 83.5808 187.451 83.836 187.03 84.2757C188.641 83.8702 190.318 83.8146 191.952 84.1128C195.342 84.6556 195.267 87.3698 194.345 89.97C193.423 92.5702 194.119 93.0316 195.849 94.3127C197.58 95.5938 195.806 98.0529 197.024 99.03C198.243 100.007 199.234 94.6873 201.876 98.5197C204.517 102.352 202.744 104.089 201.094 105.164C200.17 105.785 199.168 106.278 198.113 106.63C198.113 106.63 200.609 109.577 203.073 110.793C204.253 109.908 209.018 107.645 210.937 101.782Z" fill="#443D78" stroke="#443D78" stroke-linecap="round" stroke-linejoin="round"/>
<path d="M182.971 107.346C182.971 107.346 186.502 107.053 188.135 105.468" stroke="#443D78" stroke-miterlimit="10"/>
<path d="M185.215 98.9486C185.241 99.79 184.923 100.485 184.508 100.501C184.093 100.517 183.726 99.8443 183.693 99.0029C183.661 98.1615 183.985 97.4666 184.4 97.4503C184.815 97.4341 185.182 98.1072 185.215 98.9486Z" fill="#443D78"/>
<path d="M183.693 95.5125C183.693 95.5125 184.831 93.9708 186.459 95.7893" stroke="#443D78" stroke-miterlimit="10"/>
<path d="M188.653 115.635L192.863 114.04L189.93 119.343L188.653 115.635Z" fill="#443D78" stroke="#443D78" stroke-miterlimit="10"/>
<path d="M176.529 193.549L171.009 216.962L175.963 218.123L178.691 201.002L176.529 193.549Z" fill="white" stroke="#443D78" stroke-miterlimit="10"/>
<path d="M181.408 137.496C180.348 139.819 179.601 142.274 179.187 144.797C177.424 156.055 179.44 162.488 179.44 162.488C179.44 162.488 180.61 144.981 184.615 138.239C183.521 138.115 182.445 137.865 181.408 137.496Z" fill="white" stroke="#443D78" stroke-miterlimit="10"/>
<path d="M198.463 144.802L198.086 164.67L163.56 170.402L164.314 179.766C164.314 179.766 183.478 180.146 192.394 179.381C201.31 178.616 209.104 178.046 210.225 177.09C211.347 176.135 214.597 157.667 215.923 144.677C217.249 131.687 214.597 127.306 209.288 128.056" fill="#A9E8CB"/>
<path d="M198.463 144.802L198.086 164.67L163.56 170.402L164.314 179.766C164.314 179.766 183.478 180.146 192.394 179.381C201.31 178.616 209.104 178.046 210.225 177.09C211.347 176.135 214.597 157.667 215.923 144.677C217.249 131.687 214.597 127.306 209.288 128.056" stroke="#443D78" stroke-miterlimit="10"/>
<path d="M142.903 169.561L140.138 178.007L142.833 179.484C142.833 179.484 146.256 182.155 148.132 183.599C150.008 185.043 151.447 185.043 152.444 184.598C153.442 184.152 157.964 177.703 158.514 176.482C159.064 175.261 156.417 171.597 153.77 170.033C151.124 168.47 148.919 168.481 147.366 168.947C145.897 169.27 144.405 169.475 142.903 169.561Z" fill="white" stroke="#443D78" stroke-miterlimit="10"/>
<path d="M163.56 170.402L159.193 170.022C157.823 169.662 156.429 169.407 155.021 169.257C153.884 169.257 152.363 170.402 151.603 170.978C150.843 171.553 142.499 180.722 142.499 180.722C142.499 180.722 143.259 182.247 144.396 181.867C145.534 181.487 147.631 180.526 147.631 180.526C147.631 180.526 145.356 182.822 146.493 183.968C147.631 185.113 149.528 185.113 149.528 185.113L150.86 184.348C151.419 184.792 152.063 185.118 152.752 185.303C153.7 185.493 155.22 185.113 156.525 184.348C157.829 183.582 161.22 179.598 161.22 179.598L164.131 178.463L163.56 170.402Z" fill="#BDBDBD" stroke="#443D78" stroke-miterlimit="10"/>
<path d="M144.407 169.925C144.407 169.925 149.927 166.7 152.353 167.59C154.778 168.481 157.986 173.925 157.102 174.707C156.218 175.489 154.784 175.147 154.013 174.371C153.368 173.781 152.666 173.259 151.916 172.813C150.462 173.635 148.833 174.093 147.167 174.148" fill="white"/>
<path d="M144.407 169.925C144.407 169.925 149.927 166.7 152.353 167.59C154.778 168.481 157.986 173.925 157.102 174.707C156.218 175.489 154.784 175.147 154.013 174.371C153.368 173.781 152.666 173.259 151.916 172.813C150.462 173.635 148.833 174.093 147.167 174.148" stroke="#443D78" stroke-miterlimit="10"/>
<path d="M160.87 182.546L159.118 181.601C158.977 181.526 158.852 181.423 158.75 181.299C158.648 181.175 158.572 181.032 158.526 180.878C158.479 180.724 158.463 180.563 158.479 180.403C158.494 180.243 158.541 180.087 158.616 179.945C158.692 179.804 158.794 179.679 158.917 179.577C159.041 179.475 159.183 179.399 159.336 179.352C159.488 179.306 159.649 179.29 159.807 179.306C159.966 179.323 160.12 179.37 160.261 179.446L162.013 180.385C162.296 180.538 162.509 180.799 162.603 181.109C162.697 181.419 162.665 181.754 162.514 182.041C162.362 182.327 162.103 182.54 161.795 182.635C161.487 182.73 161.154 182.698 160.87 182.546Z" fill="white" stroke="#443D78" stroke-miterlimit="10"/>
<path d="M159.323 184.435L157.571 183.49C157.294 183.337 157.087 183.082 156.993 182.778C156.9 182.474 156.927 182.145 157.07 181.862C157.222 181.584 157.476 181.376 157.778 181.283C158.08 181.19 158.405 181.218 158.687 181.362L160.439 182.301C160.717 182.453 160.924 182.709 161.018 183.013C161.112 183.317 161.084 183.646 160.94 183.93C160.789 184.21 160.535 184.419 160.233 184.513C159.931 184.608 159.604 184.579 159.323 184.435Z" fill="white" stroke="#443D78" stroke-miterlimit="10"/>
<path d="M157.555 186.101L155.803 185.157C155.662 185.082 155.537 184.979 155.435 184.855C155.334 184.73 155.258 184.587 155.212 184.433C155.165 184.279 155.15 184.118 155.167 183.958C155.183 183.798 155.231 183.642 155.307 183.501C155.382 183.36 155.484 183.234 155.608 183.132C155.731 183.031 155.873 182.954 156.026 182.908C156.179 182.862 156.339 182.846 156.498 182.862C156.657 182.878 156.811 182.926 156.951 183.002L158.703 183.946C158.844 184.022 158.968 184.125 159.069 184.249C159.17 184.374 159.246 184.517 159.292 184.671C159.338 184.824 159.354 184.986 159.338 185.146C159.322 185.305 159.274 185.46 159.199 185.602C159.124 185.744 159.021 185.869 158.898 185.971C158.775 186.072 158.632 186.149 158.48 186.195C158.327 186.242 158.167 186.257 158.008 186.241C157.849 186.225 157.695 186.177 157.555 186.101Z" fill="white" stroke="#443D78" stroke-miterlimit="10"/>
<path d="M153.835 186.183L153.377 185.938C153.236 185.863 153.111 185.76 153.009 185.636C152.908 185.512 152.831 185.369 152.785 185.215C152.738 185.062 152.722 184.9 152.738 184.74C152.754 184.58 152.8 184.425 152.876 184.283C153.028 183.997 153.286 183.783 153.594 183.689C153.902 183.594 154.235 183.626 154.52 183.778L154.978 184.028C155.119 184.103 155.244 184.206 155.346 184.33C155.447 184.454 155.524 184.597 155.57 184.751C155.617 184.904 155.633 185.066 155.617 185.226C155.602 185.386 155.555 185.542 155.479 185.683C155.404 185.825 155.302 185.95 155.178 186.052C155.055 186.154 154.913 186.23 154.76 186.276C154.608 186.323 154.447 186.338 154.288 186.322C154.13 186.306 153.976 186.259 153.835 186.183Z" fill="white" stroke="#443D78" stroke-miterlimit="10"/>
<path d="M142.903 169.561L119.735 159.698L120.592 175.152L139.723 179.565L142.903 169.561Z" fill="#443D78" stroke="#443D78" stroke-linecap="round" stroke-linejoin="round"/>
<path d="M139.723 179.566L142.903 169.561L139.664 168.117L139.599 168.448L136.634 178.811L139.723 179.566Z" fill="white" stroke="#443D78" stroke-miterlimit="10"/>
<path d="M106.716 107.743L112.646 110.516C112.646 110.516 115.136 117.622 114.306 117.828C113.476 118.035 107.25 113.024 107.25 113.024L106.716 107.743Z" fill="white" stroke="#443D78" stroke-linecap="round" stroke-linejoin="round"/>
<path d="M110.161 106.32L110.576 103.926C110.576 103.926 116.074 104.306 118.274 104.29C120.473 104.274 122.392 103.992 122.376 101.641C122.36 99.2906 121.077 91.2729 121.077 91.2729C121.077 91.2729 123.546 90.7029 124.5 89.5901C125.454 88.4772 124.074 87.1039 122.829 85.4482C121.583 83.7925 120.468 82.0066 120.322 80.0687C120.177 78.1308 116.834 71.7904 116.834 71.7904C116.834 71.7904 117.373 70.8187 115.578 68.7559C113.783 66.6931 104.576 66.3349 98.6844 69.2988C92.7926 72.2627 91.4503 76.5402 91.4773 81.2412C91.5042 85.9422 94.1726 92.5702 94.1726 92.5702C94.1726 92.5702 92.4314 99.7737 92.2967 100.17C92.1619 100.566 90.5986 103.655 90.5986 103.655C90.5986 103.655 97.9675 108.828 100.657 111.152C103.347 113.475 109.422 117.449 109.46 115.299C109.498 113.149 109.74 108.296 109.74 108.296L110.161 106.32Z" fill="white" stroke="#443D78" stroke-linecap="round" stroke-linejoin="round"/>
<path d="M118.285 83.8685C118.318 84.6719 118.134 85.3288 117.87 85.3396C117.606 85.3505 117.357 84.7153 117.33 83.9119C117.303 83.1085 117.476 82.4517 117.746 82.4409C118.015 82.43 118.247 83.0651 118.285 83.8685Z" fill="#443D78"/>
<path d="M114.419 81.2141C114.419 81.2141 115.643 79.1296 118.813 80.3564" stroke="#443D78" stroke-width="2" stroke-linecap="round" stroke-linejoin="round"/>
<path d="M122.376 101.641C122.376 99.2852 121.077 91.2729 121.077 91.2729C121.077 91.2729 119.562 90.4532 116.678 91.1589C113.794 91.8646 113.007 96.5873 112.457 97.1301C111.907 97.6729 108.323 94.4159 106.932 92.1848C105.541 89.9538 104.56 86.1376 104.409 83.9065C104.258 81.6755 109.471 80.5518 110.285 78.4782C111.099 76.4045 107.255 74.1952 108.598 72.8109C109.94 71.4267 112.716 71.9587 114.091 72.2247C115.028 72.3523 115.981 72.2013 116.834 71.7904C116.834 71.7904 117.373 70.8187 115.578 68.7559C113.783 66.6931 104.576 66.3349 98.6844 69.2988C92.7925 72.2627 91.4502 76.5402 91.4772 81.2412C91.5042 85.0411 93.2507 90.122 93.9083 91.9134C94.4649 92.1558 95.0647 92.2814 95.671 92.2825C96.2101 92.1414 96.6198 90.4803 96.8839 88.8138C97.1481 87.1473 101.121 85.1931 101.121 85.1931C101.121 85.1931 101.838 90.1709 101.843 91.1372C101.849 92.1034 101.304 96.951 103.956 99.2797C106.033 101.013 108.247 102.573 110.576 103.943C110.576 103.943 116.074 104.323 118.274 104.306C120.473 104.29 122.392 103.992 122.376 101.641Z" fill="#443D78" stroke="#443D78" stroke-linecap="round" stroke-linejoin="round"/>
<path d="M101.967 88.6238C101.967 88.6238 100.824 81.9904 98.9054 82.2781C96.9863 82.5658 95.8975 85.0628 96.8785 88.2493C97.8596 91.4357 99.784 91.1372 100.878 90.8549" fill="white"/>
<path d="M101.967 88.6238C101.967 88.6238 100.824 81.9904 98.9054 82.2781C96.9863 82.5658 95.8975 85.0628 96.8785 88.2493C97.8596 91.4357 99.784 91.1372 100.878 90.8549" stroke="#443D78" stroke-linecap="round" stroke-linejoin="round"/>
<path d="M115.46 93.6559C115.46 93.6559 116.565 95.0347 119.449 95.0185" stroke="white" stroke-linecap="round" stroke-linejoin="round"/>
<path d="M84.6152 234.946H113.724C113.821 233.404 114.953 227.476 114.953 223.59C114.953 219.1 118.02 190.14 118.02 190.14L80.1626 189.641L81.4024 207.364L84.6152 234.946Z" fill="#443D78" stroke="#443D78" stroke-linecap="round" stroke-linejoin="round"/>
<path d="M88.3885 104.665C88.3885 104.665 81.7528 113.236 79.8822 118.04C78.0117 122.844 76.5617 123.68 76.9767 129.738C77.3918 135.796 80.3027 160.034 80.3027 160.034L74.4917 191.589C81.3503 194.064 88.5797 195.334 95.8652 195.346C107.897 195.346 113.115 194.304 113.918 193.886C114.721 193.468 122.004 191.589 122.004 191.589C122.004 191.589 122.004 155.86 119.718 143.532C117.433 131.204 114.533 121.818 113.498 119.5C112.463 117.183 109.137 109.681 109.137 109.681L88.3885 104.665Z" fill="#443D78" stroke="#443D78" stroke-linecap="round" stroke-linejoin="round"/>
<path d="M113.514 119.5C112.473 117.204 109.153 109.681 109.153 109.681L88.3884 104.665C88.3884 104.665 86.9868 106.478 85.2888 108.904C89.8115 111.548 101.008 118.084 101.671 118.247C102.501 118.458 106.652 118.04 106.652 118.04L104.797 120.336C104.797 120.336 109.778 124.31 111.438 125.977C112.312 126.856 114.845 129.179 117.055 131.188C115.551 125.184 114.161 120.944 113.514 119.5Z" fill="#443D78" stroke="#443D78" stroke-linecap="round" stroke-linejoin="round"/>
<path d="M103.967 114.278L111.024 119.918L116.829 130.368L113.099 115.114L105.423 110.728L103.967 114.278Z" fill="white" stroke="#443D78" stroke-linecap="round" stroke-linejoin="round"/>
<path d="M89.8601 100.697L111.584 110.554V118.284L86.7444 105.501L89.8601 100.697Z" fill="white" stroke="#443D78" stroke-linecap="round" stroke-linejoin="round"/>
<path d="M118.586 179.772H81.0466V210.361H118.586V179.772Z" fill="#A9E8CB" stroke="#443D78" stroke-miterlimit="10"/>
<path d="M102.118 194.352C102.118 194.352 104.911 198.017 106.005 198.386C106.926 198.767 107.688 199.457 108.161 200.34C108.646 201.073 109.239 206.572 109.617 206.941C109.994 207.31 109.983 208.162 108.646 207.549C107.309 206.935 106.49 204.835 106.49 204.835L106.975 209.72C106.975 209.72 108.053 209.964 107.218 210.578C106.382 211.191 105.638 212.043 104.911 211.664C104.263 211.275 103.655 210.824 103.094 210.317C102.227 210.61 101.304 210.694 100.399 210.562C99.0673 210.317 99.3206 210.806 98.097 209.948C96.8733 209.09 96.8787 210.073 96.275 208.482C95.3345 205.636 94.5641 202.736 93.9678 199.797C93.7252 198.207 93.4827 195.997 93.4827 195.997L102.118 194.352Z" fill="white" stroke="#443D78" stroke-linecap="round" stroke-linejoin="round"/>
<path d="M102.609 192.029L103.455 195.818L93.0191 197.284L92.5339 193.495L102.609 192.029Z" fill="white" stroke="#443D78" stroke-linecap="round" stroke-linejoin="round"/>
<path d="M89.2348 112.194C89.2348 112.194 81.9737 114.49 81.7689 117.834C81.564 121.178 79.1545 161.733 80.1949 164.447C81.2352 167.162 91.4395 194.667 91.4395 194.667L103.266 193.207C103.266 193.207 97.2074 161.31 97.0133 160.68C96.8193 160.05 101.078 124.516 101.078 124.516" fill="#443D78"/>
<path d="M89.2348 112.194C89.2348 112.194 81.9737 114.49 81.7689 117.834C81.564 121.178 79.1545 161.733 80.1949 164.447C81.2352 167.162 91.4395 194.667 91.4395 194.667L103.266 193.207C103.266 193.207 97.2074 161.31 97.0133 160.68C96.8193 160.05 101.078 124.516 101.078 124.516" stroke="#443D78" stroke-linecap="round" stroke-linejoin="round"/>
<path d="M99.671 134.722L96.9973 160.68L99.547 176.808" stroke="#878787" stroke-linecap="round" stroke-linejoin="round"/>
<path d="M100.081 130.748L99.9404 132.127" stroke="#878787" stroke-linecap="round" stroke-linejoin="round"/>
<path d="M80.9338 126.731L80.1355 151.104" stroke="#878787" stroke-linecap="round" stroke-linejoin="round"/>
<path d="M108.059 172.552L116.037 172.259L116.754 175.152L103.536 176.004" stroke="#878787" stroke-linecap="round" stroke-linejoin="round"/>
<path d="M101.412 172.79L105.66 172.639" stroke="#878787" stroke-linecap="round" stroke-linejoin="round"/>
<path d="M87.0518 109.594L101.687 118.246L106.668 118.04L104.797 120.336L114.441 128.072" stroke="#878787" stroke-linecap="round" stroke-linejoin="round"/>
<path d="M24.5 234.946H270.573" stroke="#443D78" stroke-miterlimit="10"/>
<path d="M94.0432 11.2368V47.9272" stroke="#443D78" stroke-miterlimit="10"/>
<path d="M150.008 11.2368V47.9272" stroke="#443D78" stroke-miterlimit="10"/>
<path d="M205.972 11.2368V47.9272" stroke="#443D78" stroke-miterlimit="10"/>
</g>
<defs>
<clipPath id="clip0_711_3295">
<rect width="304" height="235" fill="white"/>
</clipPath>
</defs>
</svg>
