<svg width="304" height="235" viewBox="0 0 304 235" fill="none" xmlns="http://www.w3.org/2000/svg">
<g clip-path="url(#clip0_686_3446)">
<path d="M227.004 147.255C226.213 148.58 225.412 149.873 224.59 151.14C224.06 151.93 223.556 152.71 223.031 153.485C222.15 154.773 221.255 156.027 220.347 157.249L220.256 157.364C219.848 157.919 219.424 158.468 219.01 159.007C218.596 159.547 218.257 159.971 217.875 160.442C217.71 160.641 217.551 160.845 217.387 161.038L217.185 161.29C216.874 161.677 216.556 162.059 216.23 162.436C215.801 162.96 215.376 163.441 214.941 163.939C214.506 164.436 214.151 164.828 213.753 165.268C213.546 165.498 213.345 165.718 213.133 165.943C212.729 166.388 212.316 166.823 211.902 167.257C211.488 167.692 210.947 168.252 210.465 168.734L210.427 168.775C209.961 169.236 209.494 169.702 209.027 170.152C208.332 170.822 207.637 171.477 206.932 172.12C206.057 172.921 205.171 173.691 204.28 174.466C204.254 174.484 204.231 174.505 204.211 174.528C203.182 175.403 202.142 176.245 201.092 177.067C199.472 178.338 197.831 179.545 196.169 180.69C195.618 181.07 195.061 181.447 194.498 181.82C193.4 182.553 192.286 183.255 191.162 183.914L191.061 183.977C190.531 184.302 189.974 184.626 189.422 184.946L189.311 185.003C188.19 185.659 187.056 186.286 185.911 186.882L184.701 187.511L183.996 187.867C183.465 188.139 182.935 188.39 182.373 188.662C181.184 189.233 179.996 189.772 178.792 190.295C178.187 190.552 177.583 190.819 176.978 191.054C176.373 191.29 175.769 191.547 175.153 191.782C174.538 192.018 173.939 192.248 173.329 192.473C172.719 192.698 172.199 192.881 171.631 193.08L171.016 193.29C170.56 193.452 170.098 193.599 169.637 193.756C169.016 193.955 168.396 194.153 167.775 194.342H167.738C165.97 194.886 164.202 195.38 162.433 195.823C160.561 196.305 158.673 196.718 156.779 197.09C130.098 202.377 101.836 198.064 78.3113 187.333C77.7013 187.05 77.0966 186.767 76.4973 186.469L75.6008 186.019C74.8317 185.631 74.0679 185.218 73.3146 184.789C72.9698 184.6 72.6251 184.401 72.2856 184.202C71.9461 184.003 71.7551 183.888 71.4793 183.721C71.2035 183.553 71.0231 183.448 70.8004 183.302C70.5776 183.155 70.2699 182.988 70.0365 182.825C68.4169 181.779 66.8451 180.679 65.3209 179.528C65.0292 179.308 64.7375 179.083 64.4563 178.852L63.8622 178.381L63.1249 177.774C62.5945 177.339 62.064 176.9 61.576 176.444C61.4222 176.313 61.279 176.183 61.1252 176.041C60.9713 175.9 60.6796 175.643 60.4621 175.439C59.5286 174.577 58.6233 173.691 57.7463 172.78L57.2795 172.288C56.1019 171.047 54.9827 169.76 53.9165 168.44C53.6301 168.095 53.3861 167.744 53.089 167.393C52.2244 166.289 51.4076 165.153 50.6278 163.996C50.4103 163.666 50.1876 163.337 49.9754 163.007C49.2328 161.86 48.5379 160.703 47.8536 159.52C47.6415 159.144 47.4346 158.761 47.233 158.379C47.0315 157.997 46.8723 157.693 46.7026 157.332C46.0731 156.097 45.4879 154.839 44.9468 153.558C44.8089 153.228 44.671 152.893 44.5384 152.553C43.7701 150.642 43.1061 148.692 42.5493 146.711C42.4644 146.407 42.3848 146.104 42.3 145.805C42.3025 145.776 42.3025 145.746 42.3 145.716C42.2416 145.481 42.178 145.256 42.1249 145.02C42.04 144.669 41.9552 144.324 41.8756 143.973C41.796 143.623 41.7059 143.209 41.6263 142.832C41.5308 142.361 41.4353 141.879 41.3558 141.398C41.2762 140.916 41.2126 140.576 41.1489 140.157C41.0853 139.738 41.0216 139.304 40.9633 138.875C39.5099 127.85 41.7324 115.502 47.7528 105.781C48.5811 104.438 49.4879 103.145 50.4687 101.907C51.6501 100.415 52.9465 99.0145 54.3462 97.7191C54.4028 97.6578 54.4649 97.6017 54.5318 97.5516C56.8482 95.4344 59.4509 93.6445 62.2656 92.2331L64.2282 91.2594C65.4907 90.6417 66.7107 90.0502 67.9095 89.4901L69.0075 88.9666L69.1719 88.8881C70.0029 88.5077 70.8216 88.1413 71.6278 87.7888C73.1343 87.1187 74.5948 86.4941 76.0093 85.9148C76.3646 85.7629 76.72 85.6216 77.0701 85.4803C78.131 85.0458 79.1919 84.627 80.205 84.2344C80.9795 83.9308 81.7433 83.6376 82.5018 83.3602L82.767 83.2555C83.446 83.0042 84.1143 82.732 84.7774 82.5226C87.3924 81.5595 89.8908 80.6905 92.3202 79.8477C105.311 75.3249 116.519 71.3884 134.326 58.0974C150.599 45.9685 169.552 35.6665 190.631 37.4306C217.249 39.6606 240.19 55.1868 242.816 82.5959C244.826 103.592 237.697 129.248 227.004 147.255Z" fill="#A9E8CB"/>
<path opacity="0.7" d="M227.004 147.255C226.213 148.58 225.412 149.873 224.59 151.14C224.06 151.93 223.556 152.71 223.031 153.485C222.15 154.773 221.255 156.027 220.347 157.249L220.256 157.364C219.848 157.919 219.424 158.468 219.01 159.007C218.596 159.547 218.257 159.971 217.875 160.442C217.71 160.641 217.551 160.845 217.387 161.038L217.185 161.29C216.874 161.677 216.556 162.059 216.23 162.436C215.801 162.96 215.376 163.441 214.941 163.939C214.506 164.436 214.151 164.828 213.753 165.268C213.546 165.498 213.345 165.718 213.133 165.943C212.729 166.388 212.316 166.823 211.902 167.257C211.488 167.692 210.947 168.252 210.465 168.734L210.427 168.775C209.961 169.236 209.494 169.702 209.027 170.152C208.332 170.822 207.637 171.477 206.932 172.12C206.057 172.921 205.171 173.691 204.28 174.466C204.254 174.484 204.231 174.505 204.211 174.528C203.182 175.397 202.137 176.245 201.092 177.067C199.472 178.338 197.831 179.545 196.169 180.69C195.618 181.07 195.061 181.447 194.498 181.82C193.4 182.548 192.286 183.249 191.162 183.914L191.061 183.977C190.531 184.302 189.974 184.626 189.422 184.946L189.311 185.003C188.191 185.657 187.051 186.286 185.911 186.882L184.701 187.511L183.996 187.867C183.465 188.139 182.935 188.39 182.373 188.662C181.184 189.233 179.991 189.772 178.792 190.295C178.187 190.552 177.583 190.819 176.978 191.054C176.373 191.29 175.769 191.547 175.153 191.782C174.538 192.018 173.939 192.248 173.329 192.473C172.719 192.698 172.199 192.881 171.631 193.08L171.016 193.29C170.56 193.452 170.098 193.599 169.637 193.756C169.016 193.955 168.396 194.153 167.775 194.342H167.738C165.97 194.886 164.202 195.38 162.433 195.823C160.561 196.305 158.673 196.718 156.779 197.09C130.098 202.377 101.836 198.064 78.3113 187.333C77.7013 187.05 77.0966 186.767 76.4973 186.469L75.6008 186.019C74.8317 185.631 74.0679 185.218 73.3146 184.789C72.9698 184.6 72.6251 184.401 72.2856 184.202C71.9461 184.003 71.7551 183.888 71.4793 183.721C71.2035 183.553 71.0231 183.448 70.8004 183.302C70.5776 183.155 70.2699 182.988 70.0365 182.825C68.4169 181.779 66.8451 180.679 65.3209 179.528C65.0292 179.308 64.7375 179.083 64.4563 178.852L63.8622 178.381L63.1249 177.774C62.5945 177.339 62.064 176.9 61.576 176.444C61.4222 176.313 61.279 176.183 61.1252 176.041C60.9713 175.9 60.6796 175.643 60.4621 175.439C59.5286 174.577 58.6233 173.691 57.7463 172.78L57.2795 172.288C56.1019 171.047 54.9827 169.76 53.9165 168.44C53.6301 168.095 53.3861 167.744 53.089 167.393C52.2244 166.289 51.4076 165.153 50.6278 163.996C50.4103 163.666 50.1876 163.337 49.9754 163.007C49.2328 161.86 48.5379 160.703 47.8536 159.52C47.6415 159.144 47.4346 158.761 47.233 158.379C47.0315 157.997 46.8723 157.693 46.7026 157.332C46.0731 156.097 45.4879 154.839 44.9468 153.558C44.8089 153.228 44.671 152.893 44.5384 152.553C43.7701 150.642 43.1061 148.692 42.5493 146.711C42.4644 146.407 42.3848 146.104 42.3 145.805C42.3025 145.776 42.3025 145.746 42.3 145.716C42.2416 145.481 42.178 145.256 42.1249 145.02C42.04 144.669 41.9552 144.324 41.8756 143.973C41.796 143.623 41.7059 143.209 41.6263 142.832C41.5308 142.361 41.4353 141.879 41.3558 141.398C41.2762 140.916 41.2126 140.576 41.1489 140.157C41.0853 139.738 41.0216 139.304 40.9633 138.875C39.5099 127.85 41.7324 115.502 47.7528 105.781C48.5811 104.438 49.4879 103.145 50.4687 101.907C51.6501 100.415 52.9465 99.0145 54.3462 97.7191C54.4028 97.6578 54.4649 97.6017 54.5318 97.5516C56.8482 95.4344 59.4509 93.6445 62.2656 92.2331L64.2282 91.2594C65.4907 90.6417 66.7107 90.0502 67.9095 89.4901L69.0075 88.9666L69.1719 88.8881C70.0029 88.5077 70.8216 88.1413 71.6278 87.7888C73.1343 87.1187 74.5948 86.4941 76.0093 85.9148C76.3646 85.7629 76.72 85.6216 77.0701 85.4803C78.131 85.0458 79.1919 84.627 80.205 84.2344C80.9795 83.9308 81.7433 83.6376 82.5018 83.3602L82.767 83.2555C83.446 83.0042 84.1143 82.732 84.7774 82.5226C87.3924 81.5595 89.8908 80.6905 92.3202 79.8477C105.311 75.3249 116.519 71.3884 134.326 58.0974C150.599 45.9685 169.552 35.6665 190.631 37.4306C217.249 39.6606 240.19 55.1868 242.816 82.5959C244.826 103.592 237.697 129.248 227.004 147.255Z" fill="white"/>
<path d="M220.336 157.248C206.094 176.365 187.64 188.269 167.765 194.362H167.728C165.96 194.907 164.191 195.401 162.423 195.844C160.553 196.322 158.668 196.744 156.769 197.111C130.088 202.392 101.831 198.084 78.3012 187.348C65.0228 181.305 54.1147 171.138 47.2441 158.4C54.0497 153.594 66.7642 149.035 88.5758 154.861C125.982 164.849 154.652 188.437 179.551 171.241C197.178 159.085 210.094 154.856 220.336 157.248Z" fill="#A9E8CB"/>
<path d="M141.301 235C180.475 235 212.231 231.36 212.231 226.87C212.231 222.381 180.475 218.741 141.301 218.741C102.128 218.741 70.3711 222.381 70.3711 226.87C70.3711 231.36 102.128 235 141.301 235Z" fill="#A9E8CB"/>
<path opacity="0.5" d="M141.301 235C180.475 235 212.231 231.36 212.231 226.87C212.231 222.381 180.475 218.741 141.301 218.741C102.128 218.741 70.3711 222.381 70.3711 226.87C70.3711 231.36 102.128 235 141.301 235Z" fill="white"/>
<path d="M203.808 152.412L203.776 152.375L203.654 152.213C203.575 152.113 203.506 152.019 203.431 151.935L201.082 149.585L201.029 149.538L193.125 141.639C193.097 141.613 193.072 141.585 193.051 141.555C192.648 141.084 189.688 137.618 188.42 135.676C188.406 135.657 188.393 135.636 188.383 135.614C188.267 135.445 188.161 135.27 188.065 135.09C187.878 134.76 187.657 134.45 187.407 134.164C187.386 134.145 187.368 134.124 187.354 134.101C185.738 132.364 183.848 130.897 181.758 129.756L181.657 129.709C181.237 129.481 180.805 129.277 180.363 129.096L180.273 129.06C180.663 128.852 180.982 128.533 181.188 128.145C181.394 127.757 181.478 127.317 181.429 126.882C181.431 126.838 181.431 126.795 181.429 126.751C181.434 126.72 181.434 126.688 181.429 126.657V126.578C181.095 125.264 179.413 123.485 177.912 122.464L177.535 122.218C177.427 122.148 177.316 122.083 177.201 122.024L177.058 121.946L176.644 117.999H175.918L175.705 115.57C175.705 115.57 175.705 114.612 175.758 113.083C175.758 112.999 175.758 112.921 175.758 112.837C175.854 109.173 176.071 102.561 176.469 97.8397C177.037 90.9612 177.87 83.3185 178.183 79.1255C178.183 79.0784 178.183 79.0365 178.183 78.9946C178.18 78.9703 178.18 78.9457 178.183 78.9213C178.183 78.6805 178.22 78.445 178.236 78.2094C178.252 77.9738 178.273 77.7906 178.289 77.5865C178.559 74.5817 178.888 71.8283 178.411 70.6138C178.338 70.4018 178.199 70.2184 178.013 70.0903C177.047 69.4936 175.536 73.3202 174.395 77.063C174.178 77.7959 173.971 78.5287 173.785 79.2197C173.759 79.3139 173.732 79.4029 173.7 79.5024C172.878 82.5909 170.894 90.2074 169.791 96.2535C169.317 98.4802 169.063 100.747 169.033 103.022V103.048C169.271 107.885 169.611 108.283 170.81 111.947C171.459 113.844 171.917 115.799 172.178 117.784L171.605 117.889L171.149 117.972L170.778 120.271C169.947 120.252 169.122 120.417 168.364 120.752C167.942 120.939 167.568 121.218 167.271 121.569L166.741 121.454C165.469 121.218 164.179 121.083 162.885 121.051C161.432 121.018 159.978 121.107 158.541 121.317H158.493C154.138 121.977 150.329 123.364 148.945 124.191C148.897 124.216 148.851 124.244 148.807 124.275C148.756 124.303 148.708 124.336 148.664 124.375C148.637 124.389 148.614 124.409 148.595 124.432L148.547 124.469C148.525 124.483 148.506 124.501 148.489 124.521L148.436 124.579C147.995 125.102 147.635 126.311 147.502 127.563C147.411 128.321 147.44 129.089 147.587 129.84C147.611 129.961 147.646 130.081 147.693 130.196L152.918 130.499L155.31 130.641L158.535 130.824L158.058 141.487C158.058 141.487 156.732 142.445 155.14 143.795C153.877 144.855 152.701 146.012 151.624 147.256C151.528 147.36 151.449 147.47 151.358 147.585L151.03 148.02C150.997 148.057 150.968 148.097 150.945 148.14C149.517 150.268 148.203 152.467 147.009 154.731C145.699 157.118 144.563 159.259 144.086 159.918C143.524 160.698 142.495 162.709 141.434 164.546C140.591 166.038 139.736 167.425 139.121 167.943C137.758 169.095 136.92 170.336 137.615 170.655C138.31 170.974 139.439 170.786 141.519 169.084C141.545 169.072 141.569 169.054 141.588 169.032C143.646 167.357 148.897 160.468 149.221 160.044C149.544 159.62 149.974 159.128 150.361 158.673C150.515 158.484 150.674 158.285 150.839 158.097C151.777 156.982 152.96 155.553 154.021 154.307C154.281 153.982 154.552 153.663 154.827 153.338C154.983 153.15 155.142 152.961 155.305 152.773C155.65 152.354 156 151.941 156.366 151.527C157.427 150.307 157.681 150.48 157.681 150.48L157.602 152.391L157.543 153.621L155.602 223.112C157.336 222.772 159.066 223.547 160.784 223.112C162.418 222.699 165.627 223.609 167.24 223.112H167.277L164.672 141.89V141.764L164.747 141.691L165.898 140.435L171.839 133.986C171.854 133.964 171.874 133.946 171.897 133.933C171.983 133.994 172.073 134.048 172.167 134.095C172.321 134.191 172.497 134.246 172.678 134.255C172.859 134.264 173.039 134.227 173.202 134.148C173.732 133.792 174.91 131.3 174.91 131.3L176.443 130.913H176.48L177.228 130.724L177.87 131.316L181.774 135.059L181.938 135.21L203.564 155.045L203.596 155.071C203.728 155.223 204.959 156.537 205.755 156.149C206.407 155.841 204.63 153.448 203.808 152.412ZM165.42 135.582L165.081 135.964L165.038 136.011L164.614 136.483H164.587V131.394H165.081H167.924L168.078 132.017V132.106L167.765 132.567C167.035 133.61 166.253 134.617 165.42 135.582Z" fill="white"/>
<path d="M178.528 130.19L177.817 131.447L177.175 130.871L176.406 131.065H176.369L174.836 131.452C174.836 131.452 173.685 133.944 173.128 134.3C172.965 134.379 172.785 134.416 172.604 134.407C172.422 134.397 172.247 134.343 172.093 134.247L172.449 133.316C172.191 132.596 171.699 131.981 171.051 131.566C170.403 131.15 169.634 130.958 168.863 131.018L168.619 132.52C168.619 132.52 167.558 130.766 167.585 130.52C167.611 130.274 166.083 128.667 165.845 126.306C165.606 123.945 166.784 119.328 172.905 120.579C172.905 120.579 170.926 120.768 170.125 123.993C169.324 127.217 174.189 129.499 178.528 130.19Z" fill="#A9E8CB"/>
<path d="M157.395 153.846L163.219 147.857L162.662 144.157L157.761 150.124L157.395 153.846Z" fill="#A9E8CB"/>
<path d="M161.553 126.625V125.851L164.889 129.101L164.619 131.253V136.671C163.749 137.529 162.274 138.702 161.585 139.236C161.659 131.829 161.659 126.871 161.553 126.625Z" fill="#A9E8CB"/>
<path d="M167.203 223.258H167.165C165.574 223.756 162.344 222.845 160.71 223.258C160.885 213.359 161.118 173.104 161.304 160.745C161.357 157.185 161.405 153.699 161.453 150.412C161.453 150.155 161.453 149.888 161.453 149.658C161.453 148.25 161.49 146.878 161.506 145.554V145.528L161.925 145.057L162.662 144.224L164.587 142.047L167.203 223.258Z" fill="#A9E8CB"/>
<path d="M205.754 156.165C204.911 156.579 203.585 155.076 203.585 155.076L177.174 130.871L176.405 131.064C177.83 130.65 179.17 129.991 180.362 129.117C183.205 130.248 187.078 133.305 188.064 135.111C189.051 136.917 193.098 141.623 193.098 141.623L203.431 151.946C203.431 151.946 206.592 155.751 205.754 156.165Z" fill="#A9E8CB"/>
<path d="M165.998 124.437C165.998 124.437 150.425 123.532 148.759 124.296C147.094 125.06 147.141 128.902 147.645 130.269L167.563 131.426V130.515L167.611 130.269C167.611 130.269 165.574 128.85 165.998 124.437Z" fill="#A9E8CB"/>
<path d="M170.783 131.253C170.783 131.253 167.908 137.393 164.115 140.047C160.323 142.701 152.897 147.758 146.505 155.338C146.505 155.338 149.82 148.13 153.48 145.135C157.14 142.141 162.073 139.267 163.558 137.723C165.044 136.179 168.863 131.012 168.863 131.012L170.783 131.253Z" fill="#A9E8CB"/>
<path d="M174.338 77.2043C172.104 88.2967 171.494 103.76 172.932 109.199C174.369 114.638 173.892 117.999 173.892 117.999H171.611V117.915L172.179 117.81C171.918 115.804 171.451 113.829 170.784 111.916C169.579 108.252 169.245 107.843 169.001 103.017C168.757 98.1904 172.608 83.4651 173.743 79.2406C173.934 78.5392 174.147 77.7959 174.369 77.0525L174.338 77.2043Z" fill="#A9E8CB"/>
<path d="M170.782 120.292C168.952 120.36 167.541 120.778 166.671 122.495C165.388 125.019 165.52 128.384 167.626 130.269" stroke="#443D78" stroke-linecap="round" stroke-linejoin="round"/>
<path d="M174.835 131.446C178.256 130.776 181.301 128.918 181.423 127.212C181.545 125.505 179.519 123.286 176.739 121.804" stroke="#443D78" stroke-linecap="round" stroke-linejoin="round"/>
<path d="M177.004 121.971L176.585 118.019H171.143L170.782 120.312C171.837 120.351 172.882 120.527 173.891 120.836" stroke="#443D78" stroke-linecap="round" stroke-linejoin="round"/>
<path d="M172.157 117.999C172.157 117.999 172.634 115.381 170.035 110.387C167.436 105.393 170.035 93.5785 172.157 85.0773C174.279 76.5761 176.135 70.42 177.949 70.0588C179.763 69.6976 176.422 91.6887 176.231 101.226C176.04 110.764 175.356 113.156 175.7 117.978" stroke="#443D78" stroke-linecap="round" stroke-linejoin="round"/>
<path d="M172.454 133.31C172.454 133.31 171.043 130.279 168.863 131.012C167.017 133.823 164.826 137.027 162.031 138.974C159.087 141.021 156 142.513 153.48 145.135C151.071 147.755 149.008 150.666 147.343 153.799C144.383 159.096 141.938 164.755 138.002 169.393C137.668 169.786 137.307 170.32 137.572 170.759C137.838 171.199 138.633 171.094 139.164 170.817C142.394 169.121 144.367 165.933 146.627 163.221C148.42 161.07 150.202 158.913 151.995 156.767C156.116 151.841 160.254 146.931 164.46 142.078C166.051 140.241 167.643 138.414 169.287 136.618C169.526 136.351 172.528 133.488 172.454 133.31Z" stroke="#443D78" stroke-linecap="round" stroke-linejoin="round"/>
<path d="M168.221 131.98C167.93 131.528 167.714 131.034 167.579 130.515C167.579 130.049 168.64 128.557 168.64 128.557" stroke="#443D78" stroke-linecap="round" stroke-linejoin="round"/>
<path d="M171.817 134.074C171.817 134.074 172.878 134.556 173.265 134.074C173.652 133.593 174.994 131.148 174.994 131.148C174.994 131.148 173.191 128.85 171.812 128.557" stroke="#443D78" stroke-linecap="round" stroke-linejoin="round"/>
<path d="M177.291 130.808C182.595 135.834 203.855 156.165 205.213 156.165C206.773 156.165 204.571 153.37 203.431 151.936C202.291 150.501 191.39 140.943 188.377 135.614C186.462 132.211 182.542 130.018 180.272 129.065" stroke="#443D78" stroke-linecap="round" stroke-linejoin="round"/>
<path d="M167.923 131.447L163.377 131.185L160.959 131.038L155.262 130.714L152.875 130.572L147.645 130.269C147.645 130.269 146.753 125.557 148.759 124.296C150.116 123.448 154.227 122.27 157.368 121.574C158.5 121.295 159.653 121.101 160.815 120.993C161.524 120.985 162.232 121.017 162.937 121.087C163.945 121.171 165.027 121.302 165.897 121.412C166.3 121.464 166.99 121.474 167.266 121.516" stroke="#443D78" stroke-linecap="round" stroke-linejoin="round"/>
<path d="M158.01 141.565L158.487 130.897" stroke="#443D78" stroke-linecap="round" stroke-linejoin="round"/>
<path d="M167.165 223.259H155.527L157.469 153.767V153.762L157.527 152.532L157.532 152.48L157.633 150.082" stroke="#443D78" stroke-linecap="round" stroke-linejoin="round"/>
<path d="M167.166 223.259C166.959 213.475 165.097 172.136 164.89 160.442C164.821 156.777 164.763 153.207 164.71 149.936C164.668 147.067 164.625 144.408 164.599 142.084V141.963" stroke="#443D78" stroke-linecap="round" stroke-linejoin="round"/>
<path d="M164.639 131.253C164.561 131.253 164.571 133.168 164.597 136.728" stroke="#443D78" stroke-linecap="round" stroke-linejoin="round"/>
<path d="M162.943 121.087C161.622 121.5 156.504 123.181 155.952 124.086C155.183 125.369 155.215 129.133 155.262 130.714L152.875 130.572C152.828 128.646 152.849 124.982 153.634 123.689C154.276 122.935 155.835 122.176 157.347 121.595C158.48 121.316 159.632 121.122 160.795 121.014C161.512 120.998 162.229 121.023 162.943 121.087Z" fill="#443D78"/>
<path d="M167.293 121.6C167.293 121.6 164.216 122.987 163.659 124.464C163.192 125.694 163.336 129.824 163.399 131.185L160.98 131.038C160.98 129.322 161.034 125.244 161.278 124.181C161.585 122.83 165.924 121.412 165.924 121.412L166.958 121.553L167.293 121.6Z" fill="#443D78"/>
<path d="M164.709 149.909C163.302 150.214 161.872 150.405 160.434 150.48V160.672C161.922 160.856 163.432 160.771 164.889 160.421" stroke="#443D78" stroke-linecap="round" stroke-linejoin="round"/>
<path d="M158.487 130.897C160.083 132.663 162.265 133.81 164.64 134.132L164.609 131.137L158.487 130.897Z" fill="#443D78"/>
<path opacity="0.1" d="M164.598 142.037L162.673 144.215V144.157L161.951 145.042L161.532 145.513V145.549L157.745 150.125L157.379 153.846L161.447 149.659C161.447 149.91 161.447 150.182 161.447 150.407C161.4 153.695 161.352 157.181 161.299 160.741C161.113 173.1 160.88 213.355 160.705 223.254C162.338 222.84 165.548 223.751 167.16 223.254H167.197L164.598 142.026V142.037Z" fill="#443D78"/>
<path opacity="0.1" d="M203.431 151.93L193.099 141.607C193.099 141.607 189.062 136.922 188.065 135.095C187.067 133.268 183.206 130.232 180.363 129.102C179.781 129.531 179.162 129.908 178.511 130.227V130.19C174.146 129.499 169.308 127.217 170.109 123.987C170.91 120.757 172.889 120.574 172.889 120.574C168.163 119.606 166.386 122.145 165.929 124.432C164.964 124.38 150.356 123.558 148.743 124.296C147.131 125.034 147.125 128.903 147.629 130.269L161.622 131.08C161.622 133.2 161.622 135.98 161.569 139.236C162.126 138.807 163.198 137.954 164.046 137.189C163.866 137.393 163.702 137.577 163.558 137.713C162.057 139.283 157.13 142.131 153.48 145.125C149.831 148.119 146.505 155.328 146.505 155.328C152.897 147.748 160.323 142.691 164.115 140.037C167.616 137.587 170.327 132.185 170.73 131.353C171.523 131.774 172.134 132.466 172.449 133.3L172.093 134.232C172.247 134.327 172.422 134.382 172.603 134.391C172.785 134.4 172.965 134.363 173.128 134.284C173.684 133.928 174.836 131.436 174.836 131.436L176.369 131.049H176.406L177.175 130.855L203.585 155.076C203.585 155.076 204.911 156.579 205.755 156.165C206.598 155.752 203.431 151.93 203.431 151.93ZM167.245 129.897C166.8 129.361 166.473 128.739 166.285 128.07C166.542 128.709 166.864 129.322 167.245 129.897ZM164.593 136.535V131.253L167.537 131.426V130.515C167.683 130.994 167.901 131.45 168.184 131.866C167.378 133.012 165.818 135.085 164.641 136.535H164.593ZM168.836 131.012C169.335 130.975 169.837 131.037 170.311 131.196L168.836 131.012Z" fill="#443D78"/>
<path opacity="0.1" d="M170.783 111.916C171.45 113.829 171.918 115.804 172.178 117.81L171.611 117.915V117.999H173.891C173.891 117.999 174.369 114.638 172.931 109.199C171.494 103.76 172.104 88.2967 174.337 77.2043L174.369 77.0368C174.146 77.7801 173.934 78.5235 173.743 79.2249C172.608 83.4494 168.752 98.1694 169.001 103.001C169.25 107.833 169.579 108.257 170.783 111.916Z" fill="#443D78"/>
<path d="M177.768 109.408L170.692 103.713C170.692 103.713 160.168 93.2433 158.492 90.2176C156.816 87.1919 154.206 84.8101 149.474 82.9361L149.326 82.8733C149.974 82.5264 150.502 81.9973 150.844 81.3531C151.186 80.709 151.326 79.979 151.246 79.2561C151.013 76.6387 146.796 72.4928 143.878 71.048L143.183 64.4837H141.985L141.624 60.4477C141.624 60.4477 141.953 42.3826 142.913 30.9604C143.873 19.5382 144.722 13.7957 145.242 6.83349C145.761 -0.128712 146.7 1.24279 144.78 0.0597389C143.189 -0.919157 139.014 10.4402 138.701 11.5762C136.808 18.6012 131.673 32.625 131.673 40.6656C131.673 47.5336 130.639 50.1457 133.524 54.3544C137.147 59.6415 135.842 64.1486 135.842 64.1486L134.898 64.3214L134.129 64.4575L133.779 66.6247L133.524 68.2736C133.524 68.2736 129.604 68.1009 127.689 70.446C122.883 69.4146 117.926 69.2655 113.065 70.0063C104.859 71.226 97.7993 74.0266 96.4201 75.241C95.041 76.4555 93.9907 81.9939 95.0092 84.8311L113.044 85.878V85.967L123.202 86.7941V86.7575H124.024L128.761 86.7836L128.872 87.2495L129.933 88.3593C128.671 90.3014 126.337 92.4215 125.048 93.8924C124.545 94.4602 123.92 94.9092 123.218 95.2063V95.1173C121.589 96.7768 118.842 99.4412 116.662 100.818C114.975 101.865 112.874 103.278 111.209 104.393C109.087 106.016 105.735 109.722 102.722 114.863C99.5709 120.244 93.8634 129.421 90.8293 133.142C89.4502 137 96.9081 131.792 96.9081 131.792C96.9081 131.792 107.549 119.558 109.591 117.135C110.482 116.088 122.433 103.074 122.433 103.074L128.443 96.6616L134.569 90.605C134.937 90.8978 135.319 91.1721 135.715 91.4268C135.972 91.5843 136.267 91.6742 136.569 91.688C136.872 91.7017 137.173 91.6389 137.444 91.5054C138.362 90.9191 140.282 86.7941 140.282 86.7941L142.839 86.1502H142.897L144.557 85.7262L145.353 86.6318L179.98 114.664L181.306 114.721L180.738 113.025L177.768 109.408Z" fill="white"/>
<path d="M117.133 109.084L116.056 133.31L114.38 170.985L112.619 210.465H130.829L128.447 96.7143L117.133 109.084Z" fill="white"/>
<path d="M128.443 95.4734V87.1449L118.285 86.3179L117.494 103.959C117.494 103.959 117.097 104.247 116.434 104.749C118.099 103.634 120.205 102.242 121.886 101.179C124.067 99.8025 126.82 97.1328 128.443 95.4734Z" fill="white"/>
<path d="M146.441 84.7472L145.284 85.4016L144.181 85.8465L142.903 86.1659H142.844L140.288 86.8097C140.288 86.8097 138.367 90.9504 137.45 91.521C136.872 91.8874 134.92 91.2436 134.474 90.9975L136.166 88.9455C136.166 88.9455 135.694 85.8047 131.498 86.1816L129.939 88.5424C129.939 88.5424 128.13 85.6319 128.21 85.2236C128.289 84.8153 125.717 82.1403 125.319 78.2143C124.921 74.2882 126.884 66.6193 137.073 68.7028C137.073 68.7028 133.779 69.0169 132.442 74.3772C131.106 79.7376 139.179 83.5904 146.441 84.7472Z" fill="#A9E8CB"/>
<path d="M116.667 115.49L126.363 105.544L125.515 99.9224L117.277 109.308L116.667 115.49Z" fill="#A9E8CB"/>
<path d="M123.584 78.8161V77.5336L129.143 82.9358L128.692 86.5112V95.5097C127.084 97.0157 125.398 98.4396 123.642 99.776C123.764 87.4639 123.796 79.2244 123.584 78.8161Z" fill="#A9E8CB"/>
<path d="M130.829 223.259H121.77C121.998 210.931 123.971 137.98 124.422 100.986L128.411 97.2115L130.829 223.259Z" fill="#A9E8CB"/>
<path d="M180.95 114.905C179.55 115.591 144.748 85.6164 144.748 85.6164L144.037 85.2657C146.087 84.8778 148.01 84.0008 149.639 82.7112C154.37 84.5852 157.924 88.7521 159.568 91.7463C161.213 94.7406 170.437 102.478 170.437 102.478L179.136 110.911C179.136 110.911 182.345 114.214 180.95 114.905Z" fill="#A9E8CB"/>
<path d="M125.573 75.1834C125.573 75.1834 99.6448 73.6758 96.8706 74.9478C94.0964 76.2199 94.1706 82.6062 95.014 84.8938L128.182 86.8097V85.2969L128.262 84.8886C128.262 84.8886 124.856 82.5173 125.573 75.1834Z" fill="#A9E8CB"/>
<path d="M133.54 86.5112C133.54 86.5112 129.598 98.237 122.438 101.121C109.357 106.398 103.978 117.511 93.3271 130.111C93.3271 130.111 100.907 117.716 105.129 111.115C111.373 101.341 118.067 98.5511 121.17 96.7137C125.457 94.1451 129.011 90.5423 131.497 86.2443L133.54 86.5112Z" fill="#A9E8CB"/>
<path d="M137.115 49.8681C139.767 58.8299 138.706 64.4834 138.706 64.4834H134.935V64.3473L135.879 64.1746C135.879 64.1746 137.009 61.6881 134.07 55.9979C132.665 53.2759 132.177 54.0506 131.593 46.0519C131.01 38.0533 138.171 9.76473 142.732 1.94403C143.289 0.886616 132.182 33.1954 137.115 49.8681Z" fill="#A9E8CB"/>
<path d="M133.54 68.2997C130.49 68.4096 128.146 69.111 126.692 71.964C124.571 76.1518 124.778 81.7425 128.284 84.8728" stroke="#443D78" stroke-width="1.02127" stroke-linecap="round" stroke-linejoin="round"/>
<path d="M140.287 86.8309C145.984 85.7211 151.05 82.6431 151.257 79.7954C151.463 76.9477 148.074 73.2729 143.459 70.8126" stroke="#443D78" stroke-width="1.02127" stroke-linecap="round" stroke-linejoin="round"/>
<path d="M143.894 71.0477L143.199 64.4833H134.145L133.54 68.2995C133.54 68.2995 135.264 68.2419 138.717 69.1632" stroke="#443D78" stroke-width="1.02127" stroke-linecap="round" stroke-linejoin="round"/>
<path d="M136.102 64.4836C136.102 64.4836 136.812 60.9868 132.967 54.2601C129.121 47.5335 132.924 31.667 136.149 20.2343C139.374 8.80165 142.085 0.556935 144.795 0.0491655C147.506 -0.458604 142.515 29.1177 142.228 41.9271C141.942 54.7365 140.923 57.9558 141.459 64.4626" stroke="#443D78" stroke-width="1.02127" stroke-linecap="round" stroke-linejoin="round"/>
<path d="M136.166 88.9926C136.166 88.9926 134.33 85.3283 131.498 86.2287C129.105 89.6103 126.262 93.4526 122.623 95.7925C118.804 98.2528 114.794 100.048 111.527 103.194C108.429 106.308 105.754 109.807 103.57 113.601C99.7298 119.972 96.5525 126.766 91.4337 132.336C91.0041 132.807 90.532 133.451 90.8768 133.98C91.2216 134.509 92.2718 134.378 92.9455 134.053C97.1412 132.012 99.7086 128.18 102.642 124.924C104.971 122.343 107.283 119.752 109.612 117.171C114.964 111.251 120.337 105.351 125.801 99.5249C127.864 97.3211 129.944 95.1225 132.065 92.9605C132.362 92.6569 136.261 89.202 136.166 88.9926Z" stroke="#443D78" stroke-width="1.02127" stroke-linecap="round" stroke-linejoin="round"/>
<path d="M129.275 87.7154C129.275 87.7154 128.252 86.056 128.214 85.2812C128.177 84.5065 129.944 82.0357 129.944 82.0357" stroke="#443D78" stroke-width="1.02127" stroke-linecap="round" stroke-linejoin="round"/>
<path d="M135.264 91.2017C135.264 91.2017 137.009 92.0026 137.672 91.2017C138.335 90.4008 140.557 86.3387 140.557 86.3387C140.557 86.3387 137.544 82.5225 135.253 82.0357" stroke="#443D78" stroke-width="1.02127" stroke-linecap="round" stroke-linejoin="round"/>
<path d="M144.562 85.6112C151.421 91.5631 178.85 114.926 180.632 114.926C182.653 114.926 179.799 111.617 178.314 109.916C176.829 108.215 162.693 96.9183 158.789 90.6052C156.546 87.1112 153.25 84.3996 149.363 82.8525" stroke="#443D78" stroke-width="1.02127" stroke-linecap="round" stroke-linejoin="round"/>
<path d="M128.776 86.8308L121.206 86.3754L117.186 86.1346L107.702 85.6111L103.718 85.3808L95.0135 84.8573C95.0135 84.8573 93.5283 77.0052 96.87 74.9113C99.1297 73.5084 105.972 71.5506 111.192 70.3885C113.076 69.9247 114.993 69.6027 116.926 69.4253C118.107 69.4114 119.288 69.462 120.464 69.5771C122.145 69.7237 123.949 69.9383 125.397 70.1268C126.071 70.2053 127.216 70.2262 127.678 70.2943" stroke="#443D78" stroke-width="1.02127" stroke-linecap="round" stroke-linejoin="round"/>
<path d="M117.961 98.4413L118.481 86.6684" stroke="#443D78" stroke-width="1.02127" stroke-linecap="round" stroke-linejoin="round"/>
<path d="M128.448 96.7143C128.867 132.049 130.83 223.259 130.83 223.259H112.625L117.134 109.084" stroke="#443D78" stroke-width="1.02127" stroke-linecap="round" stroke-linejoin="round"/>
<path d="M120.481 69.6242C118.29 70.3152 109.766 73.0844 108.843 74.6129C107.559 76.7435 107.618 82.9885 107.702 85.6059L103.719 85.3755C103.645 82.1719 103.682 76.0891 104.992 73.9376C106.053 72.6813 108.652 71.425 111.209 70.4199C113.092 69.9561 115.009 69.6341 116.943 69.4567C118.124 69.448 119.305 69.5039 120.481 69.6242Z" fill="#443D78"/>
<path d="M127.694 70.472C127.694 70.472 122.576 72.7648 121.674 75.2251C120.894 77.2667 121.143 84.1242 121.234 86.3961L117.213 86.1553C117.213 83.2971 117.292 76.5234 117.701 74.7645C118.231 72.5188 125.44 70.1631 125.44 70.1631L127.164 70.3935L127.694 70.472Z" fill="#443D78"/>
<path d="M128.846 123.243C126.504 123.755 124.123 124.074 121.728 124.196V141.125C124.208 141.435 126.725 141.293 129.154 140.706" stroke="#443D78" stroke-width="1.02127" stroke-linecap="round" stroke-linejoin="round"/>
<path d="M128.67 90.1444C128.166 90.6941 127.609 91.2594 127.126 91.7567C123.686 90.8556 120.615 88.9221 118.337 86.2236L128.638 87.0716L128.67 90.1444Z" fill="#443D78"/>
<path d="M180.176 226.87C180.537 224.107 180.707 219.018 177.911 216.244C173.906 212.292 167.902 218.71 166.401 218.71C164.9 218.71 164.396 214.763 159.892 211.302C155.389 207.842 149.883 212.292 146.881 211.302C143.878 210.313 149.384 195.007 140.876 194.515C132.368 194.022 129.366 215.255 123.372 215.255C117.378 215.255 116.365 211.302 110.36 214.763C105.655 217.469 103.104 224.112 102.218 226.87H180.176Z" fill="#A9E8CB"/>
<path opacity="0.2" d="M180.176 226.87C180.537 224.107 180.707 219.018 177.911 216.244C173.906 212.292 167.902 218.71 166.401 218.71C164.9 218.71 164.396 214.763 159.892 211.302C155.389 207.842 149.883 212.292 146.881 211.302C143.878 210.313 149.384 195.007 140.876 194.515C132.368 194.022 129.366 215.255 123.372 215.255C117.378 215.255 116.365 211.302 110.36 214.763C105.655 217.469 103.104 224.112 102.218 226.87H180.176Z" fill="#443D78"/>
<path d="M118.529 226.536L113.442 218.375" stroke="#443D78" stroke-linecap="round" stroke-linejoin="round"/>
<path d="M138.06 226.321L140.744 201.367" stroke="#443D78" stroke-linecap="round" stroke-linejoin="round"/>
<path d="M153.564 226.536L156.185 217.05" stroke="#443D78" stroke-linecap="round" stroke-linejoin="round"/>
<path d="M172.612 226.536L175.206 220.359" stroke="#443D78" stroke-linecap="round" stroke-linejoin="round"/>
<path d="M119.261 218.594L116.577 223.232L110.312 220.803" stroke="#443D78" stroke-linecap="round" stroke-linejoin="round"/>
<path d="M136.718 203.357L139.847 208.879L144.101 203.796" stroke="#443D78" stroke-linecap="round" stroke-linejoin="round"/>
<path d="M134.925 212.193L138.956 217.051L142.982 213.957" stroke="#443D78" stroke-linecap="round" stroke-linejoin="round"/>
<path d="M155.065 221.243L160.433 218.155" stroke="#443D78" stroke-linecap="round" stroke-linejoin="round"/>
<path d="M154.62 223.013L151.931 216.166" stroke="#443D78" stroke-linecap="round" stroke-linejoin="round"/>
<path d="M173.864 223.672L172.517 219.254" stroke="#443D78" stroke-linecap="round" stroke-linejoin="round"/>
<path d="M173.413 224.557L177.216 223.013" stroke="#443D78" stroke-linecap="round" stroke-linejoin="round"/>
<path d="M237.405 62.6776H259.28C259.28 62.6776 260.341 59.4949 256.464 57.4062C252.586 55.3175 250.815 57.0555 249.404 55.3123C247.993 53.5691 253.287 49.0306 242.699 44.513C242.699 44.513 241.988 34.7241 227.513 34.4048C213.037 34.0854 216.904 44.1937 213.042 46.6436C209.181 49.0934 208.083 45.2459 204.21 47.6905C200.338 50.1351 202.089 55.0191 198.906 55.6997C195.723 56.3802 191.48 52.5588 187.608 55.0087C183.736 57.4585 183.72 59.5367 181.953 59.5367C180.187 59.5367 176.649 58.1391 174.527 59.5367C172.405 60.9344 169.934 62.6776 169.934 62.6776H232.934" stroke="#443D78" stroke-miterlimit="10"/>
<path d="M42.6871 125.112H92.7498C92.7498 125.112 91.376 124.133 90.1719 123.353C88.9678 122.573 86.9893 123.353 86.0027 123.353C85.016 123.353 85.0001 122.181 82.82 120.815C80.6399 119.448 78.2689 121.579 76.4919 121.207C74.7149 120.836 75.691 118.066 73.5268 116.716C71.3626 115.365 70.7579 117.501 68.5778 116.129C66.3977 114.758 68.5778 109.099 60.4674 109.277C52.357 109.455 51.9804 114.941 51.9804 114.941C46.0448 117.475 49.0153 120.019 48.2196 120.993C47.4239 121.966 46.4373 120.993 44.2678 122.16C42.0984 123.327 42.6871 125.112 42.6871 125.112Z" stroke="#443D78" stroke-miterlimit="10"/>
<path d="M209.112 90.6001C213.474 90.5155 217.827 91.0317 222.044 92.1338C227.969 93.6729 233.65 96.2222 239.719 97.0388C245.787 97.8554 252.682 96.5153 256.406 91.7308" stroke="#443D78" stroke-linecap="round" stroke-linejoin="round"/>
<path d="M186.197 98.5776C191.427 94.1909 197.952 91.7306 204.763 90.9035" stroke="#443D78" stroke-linecap="round" stroke-linejoin="round"/>
<path d="M246.015 104.697C250.094 104.174 253.945 102.519 256.406 99.3471" stroke="#443D78" stroke-linecap="round" stroke-linejoin="round"/>
<path d="M186.197 106.194C195.819 98.1222 209.834 96.5675 222.044 99.745C227.969 101.284 233.65 103.833 239.718 104.65C240.856 104.804 242.002 104.879 243.15 104.875" stroke="#443D78" stroke-linecap="round" stroke-linejoin="round"/>
<path d="M231.725 110.366C234.329 111.223 237.004 111.859 239.718 112.267C245.797 113.073 252.693 111.759 256.406 106.959" stroke="#443D78" stroke-linecap="round" stroke-linejoin="round"/>
<path d="M213.706 105.964C216.522 106.183 219.313 106.651 222.045 107.362C224.766 108.068 227.434 108.99 230.107 109.853" stroke="#443D78" stroke-linecap="round" stroke-linejoin="round"/>
<path d="M186.197 113.811C192.128 108.838 199.723 106.336 207.537 105.896" stroke="#443D78" stroke-linecap="round" stroke-linejoin="round"/>
</g>
<defs>
<clipPath id="clip0_686_3446">
<rect width="304" height="235" fill="white"/>
</clipPath>
</defs>
</svg>
