<svg width="305" height="235" viewBox="0 0 305 235" fill="none" xmlns="http://www.w3.org/2000/svg">
<path d="M76.5166 36.9733C76.5166 36.9733 46.2694 65.6906 52.0406 105.533C57.8119 145.376 93.2036 176.146 121.057 201.749C148.91 227.352 188.45 230.868 216.974 211.273C245.498 191.679 230.09 166.898 246.206 131.57C262.323 96.2411 272.832 88.7573 264.184 52.1984C255.537 15.6394 203.771 -7.45871 152.244 2.2037C100.717 11.8661 76.5166 36.9733 76.5166 36.9733Z" fill="#A9E8CB"/>
<path opacity="0.7" d="M76.5166 36.9733C76.5166 36.9733 46.2694 65.6906 52.0406 105.533C57.8119 145.376 93.2036 176.146 121.057 201.749C148.91 227.352 188.45 230.868 216.974 211.273C245.498 191.679 230.09 166.898 246.206 131.57C262.323 96.2411 272.832 88.7573 264.184 52.1984C255.537 15.6394 203.771 -7.45871 152.244 2.2037C100.717 11.8661 76.5166 36.9733 76.5166 36.9733Z" fill="white"/>
<path d="M206.845 30.8299H161.59L162.047 24.2188H207.302L206.845 30.8299Z" fill="#CCCCCC"/>
<path d="M206.845 40.0877H161.59L162.047 33.4766H207.302L206.845 40.0877Z" fill="#CCCCCC"/>
<path d="M206.845 49.3596H161.59L162.047 42.7422H207.302L206.845 49.3596Z" fill="#CCCCCC"/>
<path d="M206.845 58.6174H161.59L162.047 52H207.302L206.845 58.6174Z" fill="#CCCCCC"/>
<path d="M206.845 67.8752H161.59L162.047 61.2578H207.302L206.845 67.8752Z" fill="#CCCCCC"/>
<path d="M206.845 77.1424H161.59L162.047 70.5312H207.302L206.845 77.1424Z" fill="#CCCCCC"/>
<path d="M206.845 86.4002H161.59L162.047 79.7891H207.302L206.845 86.4002Z" fill="#CCCCCC"/>
<path d="M206.845 95.6643H161.59L162.047 89.0469H207.302L206.845 95.6643Z" fill="#CCCCCC"/>
<path d="M206.845 104.93H161.59L162.047 98.3125H207.302L206.845 104.93Z" fill="#CCCCCC"/>
<path d="M206.845 114.188H161.59L162.047 107.57H207.302L206.845 114.188Z" fill="#CCCCCC"/>
<path d="M206.845 123.446H161.59L162.047 116.828H207.302L206.845 123.446Z" fill="#CCCCCC"/>
<path d="M254.699 30.8299H209.438L209.895 24.2188H255.156L254.699 30.8299Z" fill="#CCCCCC"/>
<path d="M254.699 40.0877H209.438L209.895 33.4766H255.156L254.699 40.0877Z" fill="#CCCCCC"/>
<path d="M254.699 49.3596H209.438L209.895 42.7422H255.156L254.699 49.3596Z" fill="#CCCCCC"/>
<path d="M254.699 58.6174H209.438L209.895 52H255.156L254.699 58.6174Z" fill="#CCCCCC"/>
<path d="M254.699 67.8752H209.438L209.895 61.2578H255.156L254.699 67.8752Z" fill="#CCCCCC"/>
<path d="M254.699 77.1424H209.438L209.895 70.5312H255.156L254.699 77.1424Z" fill="#CCCCCC"/>
<path d="M254.699 86.4002H209.438L209.895 79.7891H255.156L254.699 86.4002Z" fill="#CCCCCC"/>
<path d="M254.699 95.6643H209.438L209.895 89.0469H255.156L254.699 95.6643Z" fill="#CCCCCC"/>
<path d="M254.699 104.93H209.438L209.895 98.3125H255.156L254.699 104.93Z" fill="#CCCCCC"/>
<path d="M254.699 114.188H209.438L209.895 107.57H255.156L254.699 114.188Z" fill="#CCCCCC"/>
<path d="M254.699 123.446H209.438L209.895 116.828H255.156L254.699 123.446Z" fill="#CCCCCC"/>
<path d="M155.243 23.8594H61.7383V104.235H155.243V23.8594Z" fill="#A9E8CB"/>
<path d="M150.563 27.875H66.4141V100.214H150.563V27.875Z" fill="white"/>
<mask id="mask0_1030_45267" style="mask-type:luminance" maskUnits="userSpaceOnUse" x="66" y="27" width="85" height="74">
<path d="M150.559 27.875H66.4102V100.214H150.559V27.875Z" fill="white"/>
</mask>
<g mask="url(#mask0_1030_45267)">
<path d="M150.559 49.8047C135.426 60.5909 113.752 67.7483 88.6052 78.9928C80.6815 82.479 73.225 86.9463 66.4102 92.2904V100.22H150.559V49.8047Z" fill="#A9E8CB"/>
<path d="M150.558 27.875H116.789C113.03 31.0958 108.587 34.6933 103.336 38.5482C84.1171 52.6683 92.445 66.8009 115.511 56.5169C127.348 51.2494 140.526 39.0505 150.558 28.4212V27.875Z" fill="#A9E8CB"/>
<path d="M80.9477 35.985C80.9477 30.0896 73.6225 34.7294 66.4414 40.6561V55.5422C73.4283 48.6736 80.9477 41.2589 80.9477 35.985Z" fill="#A9E8CB"/>
<path d="M87.9677 59.4148C87.9677 60.7485 87.573 62.0522 86.8335 63.161C86.094 64.2699 85.0429 65.1342 83.8132 65.6445C82.5835 66.1549 81.2303 66.2884 79.9248 66.0283C78.6193 65.7681 77.4202 65.1259 76.479 64.1828C75.5378 63.2398 74.8968 62.0383 74.6371 60.7303C74.3775 59.4223 74.5107 58.0665 75.0201 56.8344C75.5295 55.6023 76.3921 54.5492 77.4988 53.8083C78.6055 53.0674 79.9067 52.6719 81.2378 52.6719C83.0227 52.6719 84.7344 53.3823 85.9965 54.6468C87.2586 55.9114 87.9677 57.6265 87.9677 59.4148Z" fill="#A9E8CB"/>
<path opacity="0.75" d="M150.559 49.8047C135.426 60.5909 113.752 67.7483 88.6052 78.9928C80.6815 82.479 73.225 86.9463 66.4102 92.2904V100.22H150.559V49.8047Z" fill="white"/>
<path opacity="0.75" d="M150.558 27.875H116.789C113.03 31.0958 108.587 34.6933 103.336 38.5482C84.1171 52.6683 92.445 66.8009 115.511 56.5169C127.348 51.2494 140.526 39.0505 150.558 28.4212V27.875Z" fill="white"/>
<g opacity="0.75">
<path d="M80.9517 35.985C80.9517 30.0896 73.6264 34.7294 66.4453 40.6561V55.5422C73.4322 48.6736 80.9517 41.2589 80.9517 35.985Z" fill="white"/>
</g>
<path opacity="0.75" d="M87.9677 59.4148C87.9677 60.7485 87.573 62.0522 86.8335 63.161C86.094 64.2699 85.0429 65.1342 83.8132 65.6445C82.5835 66.1549 81.2303 66.2884 79.9248 66.0283C78.6193 65.7681 77.4202 65.1259 76.479 64.1828C75.5378 63.2398 74.8968 62.0383 74.6371 60.7303C74.3775 59.4223 74.5107 58.0665 75.0201 56.8344C75.5295 55.6023 76.3921 54.5492 77.4988 53.8083C78.6055 53.0674 79.9067 52.6719 81.2378 52.6719C83.0227 52.6719 84.7344 53.3823 85.9965 54.6468C87.2586 55.9114 87.9677 57.6265 87.9677 59.4148Z" fill="white"/>
</g>
<path d="M136.017 80.9203C136.017 82.6988 135.49 84.4373 134.504 85.9159C133.518 87.3945 132.116 88.5469 130.476 89.2272C128.836 89.9075 127.031 90.0851 125.291 89.7377C123.55 89.3903 121.951 88.5334 120.696 87.2754C119.442 86.0174 118.587 84.4149 118.242 82.6704C117.896 80.926 118.075 79.1181 118.755 77.4754C119.435 75.8327 120.586 74.429 122.063 73.4418C123.539 72.4547 125.275 71.9284 127.05 71.9297C128.228 71.9297 129.394 72.1623 130.483 72.6142C131.571 73.0661 132.56 73.7284 133.393 74.5634C134.225 75.3983 134.886 76.3895 135.336 77.4802C135.786 78.571 136.018 79.7399 136.017 80.9203Z" fill="white"/>
<path d="M262.51 189.532C260.883 191.422 259.785 193.709 259.327 196.162L252.941 199.747V182.795L253.067 182.965L263.237 175.506C264.521 175.707 269.459 176.272 273.958 173.842C279.184 171.023 283 161.367 283 161.367C283 161.367 270.543 159.954 266.326 165.191C262.905 169.435 262.785 173.547 262.867 174.947L252.941 182.224V169.698C254.8 168.831 256.443 167.56 257.751 165.978C259.06 164.396 260 162.542 260.505 160.551C262.309 153.506 252.672 139.625 252.672 139.625C252.672 139.625 242.646 153.915 244.632 161.16C246.337 167.294 250.898 169.24 252.271 169.692V196.846L245.127 190.863C245.29 189.431 245.422 184.955 241.443 180.472C236.618 175.035 223.766 175.449 223.766 175.449C223.766 175.449 229.186 186.317 233.792 189.94C237.827 193.079 243.398 191.823 244.739 191.44L252.258 197.719V205.975H241.073L245.641 234.579H259.345L263.926 205.981H252.941V200.519L259.959 196.576C261.664 197.053 266.432 198.033 270.944 195.772C276.584 192.953 281.189 186.914 281.189 186.914C281.189 186.914 267.736 183.492 262.51 189.532Z" fill="#A9E8CB"/>
<path opacity="0.5" d="M262.51 189.532C260.883 191.422 259.785 193.709 259.327 196.162L252.941 199.747V182.795L253.067 182.965L263.237 175.506C264.521 175.707 269.459 176.272 273.958 173.842C279.184 171.023 283 161.367 283 161.367C283 161.367 270.543 159.954 266.326 165.191C262.905 169.435 262.785 173.547 262.867 174.947L252.941 182.224V169.698C254.8 168.831 256.443 167.56 257.751 165.978C259.06 164.396 260 162.542 260.505 160.551C262.309 153.506 252.672 139.625 252.672 139.625C252.672 139.625 242.646 153.915 244.632 161.16C246.337 167.294 250.898 169.24 252.271 169.692V196.846L245.127 190.863C245.29 189.431 245.422 184.955 241.443 180.472C236.618 175.035 223.766 175.449 223.766 175.449C223.766 175.449 229.186 186.317 233.792 189.94C237.827 193.079 243.398 191.823 244.739 191.44L252.258 197.719V205.975H241.073L245.641 234.579H259.345L263.926 205.981H252.941V200.519L259.959 196.576C261.664 197.053 266.432 198.033 270.944 195.772C276.584 192.953 281.189 186.914 281.189 186.914C281.189 186.914 267.736 183.492 262.51 189.532Z" fill="white"/>
<path d="M249.848 103.109L231.406 103.266C231.406 103.266 230.153 103.109 229.884 104.025C229.884 104.025 226.682 112.124 226.531 115.025C226.381 117.926 227.158 117.467 225.905 121.303C224.651 125.139 221.18 134.13 219.2 141.463C216.537 151.314 215.841 161.774 215.672 171.945C215.672 173.577 214.669 187.641 217.207 187.641C219.313 187.641 238.719 190.221 238.951 186.473C239.885 171.53 237.19 156.933 242.366 142.405C244.378 136.754 246.683 130.803 248.394 124.901C250.105 118.999 250.399 112.859 251.527 106.819C252.286 102.65 249.848 103.109 249.848 103.109Z" fill="#443D78"/>
<path d="M251.659 104.942C251.477 102.807 249.848 103.108 249.848 103.108L231.406 103.265C231.406 103.265 230.153 103.108 229.883 104.025C229.883 104.025 226.681 112.124 226.531 115.025C226.486 115.791 226.507 116.56 226.594 117.323L226.982 117.95C226.982 117.95 227.609 123.293 234.909 123.601C242.209 123.909 246.345 120.543 247.868 117.323C249.39 114.102 250.004 108.922 251.22 105.865C251.351 105.55 251.497 105.242 251.659 104.942Z" fill="#A9E8CB"/>
<path d="M247.381 110.905C246.127 115.369 246.885 116.606 245.651 124.291C244.417 131.975 239.961 140.614 238.226 148.582C236.49 156.549 237.242 184.519 237.486 185.762C237.583 186.421 237.619 187.087 237.593 187.752C238.426 187.438 238.927 187.012 238.965 186.428C239.899 171.485 237.204 156.888 242.38 142.36C244.392 136.709 246.698 130.757 248.408 124.856C250.119 118.954 250.413 112.814 251.541 106.774C252.011 104.263 251.272 103.44 250.626 103.195C249.225 105.618 248.134 108.209 247.381 110.905Z" fill="#A9E8CB"/>
<path d="M211.755 223.681L211.63 223.58V206.327H214.105V195.422H204.957V206.327H207.425V223.875L185.531 230.87V232.602C185.531 233.129 185.74 233.633 186.111 234.005C186.483 234.377 186.986 234.586 187.511 234.586C188.037 234.586 188.54 234.377 188.912 234.005C189.283 233.633 189.491 233.129 189.491 232.602V232.358L207.801 230.223V232.854C207.801 233.313 207.984 233.754 208.308 234.079C208.632 234.404 209.072 234.586 209.531 234.586C209.99 234.586 210.43 234.404 210.754 234.079C211.078 233.754 211.26 233.313 211.26 232.854V230.135L230.31 232.358V232.602C230.31 233.129 230.518 233.633 230.89 234.005C231.261 234.377 231.765 234.586 232.29 234.586C232.815 234.586 233.319 234.377 233.69 234.005C234.061 233.633 234.27 233.129 234.27 232.602V230.87L211.755 223.681Z" fill="#443D78"/>
<path d="M237.859 184.789H183.487C182.103 184.789 180.98 185.913 180.98 187.3V194.929C180.98 196.316 182.103 197.44 183.487 197.44H237.859C239.243 197.44 240.366 196.316 240.366 194.929V187.3C240.366 185.913 239.243 184.789 237.859 184.789Z" fill="#443D78"/>
<path d="M23.8314 103.109L42.273 103.266C42.273 103.266 43.5262 103.109 43.8019 104.025C43.8019 104.025 47.004 112.124 47.1544 115.025C47.3047 117.926 46.5277 117.467 47.781 121.303C49.0342 125.139 52.5057 134.13 54.4859 141.463C57.1553 151.314 57.8446 161.774 58.0137 171.945C58.0137 173.577 59.0163 187.641 56.4785 187.641C54.3793 187.641 34.9728 190.221 34.7347 186.473C33.8073 171.53 36.4955 156.933 31.3196 142.405C29.3081 136.754 27.0021 130.803 25.2977 124.901C23.5933 118.999 23.2925 112.859 22.1646 106.819C21.4252 102.65 23.8314 103.109 23.8314 103.109Z" fill="#443D78"/>
<path d="M22.0508 104.942C22.2325 102.807 23.8555 103.108 23.8555 103.108L42.297 103.265C42.297 103.265 43.5502 103.108 43.826 104.025C43.826 104.025 47.028 112.124 47.1784 115.025C47.2192 115.791 47.1961 116.56 47.1095 117.323L46.721 117.95C46.721 117.95 46.0943 123.293 38.7942 123.601C31.494 123.909 27.3395 120.543 25.8105 117.316C24.2816 114.089 23.68 108.916 22.4581 105.858C22.3402 105.545 22.2042 105.239 22.0508 104.942Z" fill="#A9E8CB"/>
<path d="M26.2997 110.905C27.553 115.369 26.7948 116.606 28.0292 124.291C29.2637 131.975 33.7252 140.614 35.4547 148.582C37.1842 156.549 36.4636 184.519 36.1941 185.762C36.1002 186.421 36.0646 187.087 36.0876 187.752C35.2605 187.438 34.7529 187.012 34.7153 186.428C33.7879 171.485 36.4761 156.888 31.3002 142.36C29.2887 136.709 26.9828 130.757 25.2784 124.856C23.5739 118.954 23.2732 112.814 22.1452 106.774C21.6815 104.263 22.4209 103.44 23.0601 103.195C24.4624 105.617 25.5511 108.208 26.2997 110.905Z" fill="#A9E8CB"/>
<path d="M61.9224 223.681L62.0478 223.58V206.327H59.5413V195.422H68.6962V206.327H66.2211V223.875L88.1153 230.87V232.602C88.1153 233.129 87.9067 233.633 87.5353 234.005C87.164 234.377 86.6603 234.586 86.1352 234.586C85.61 234.586 85.1063 234.377 84.735 234.005C84.3637 233.633 84.155 233.129 84.155 232.602V232.358L65.914 230.223V232.854C65.8875 233.296 65.6933 233.711 65.3713 234.015C65.0493 234.319 64.6237 234.488 64.1814 234.488C63.7391 234.488 63.3135 234.319 62.9915 234.015C62.6695 233.711 62.4754 233.296 62.4488 232.854V230.135L43.3556 232.358V232.602C43.3707 232.872 43.3308 233.142 43.2383 233.395C43.1458 233.649 43.0026 233.881 42.8176 234.077C42.6325 234.273 42.4094 234.429 42.162 234.536C41.9146 234.643 41.648 234.698 41.3786 234.698C41.1092 234.698 40.8426 234.643 40.5951 234.536C40.3477 234.429 40.1246 234.273 39.9396 234.077C39.7545 233.881 39.6113 233.649 39.5188 233.395C39.4263 233.142 39.3864 232.872 39.4016 232.602V230.87L61.9224 223.681Z" fill="#443D78"/>
<path d="M35.8167 197.438H90.1888C91.5731 197.438 92.6953 196.313 92.6953 194.926V187.298C92.6953 185.911 91.5731 184.787 90.1888 184.787H35.8167C34.4324 184.787 33.3102 185.911 33.3102 187.298V194.926C33.3102 196.313 34.4324 197.438 35.8167 197.438Z" fill="#443D78"/>
<path d="M226.956 149.258H78.0703V234.995H226.956V149.258Z" fill="#CCCCCC"/>
<path d="M226.846 151.32H78.1484V153.694H226.846V151.32Z" fill="#443D78"/>
<path d="M228.061 147.852H74.7578V151.6H228.061V147.852Z" fill="#CCCCCC"/>
<path d="M117.705 140.414C117.705 140.414 119.46 148.268 119.36 150.459C119.259 152.651 115.13 158.521 115.023 157.177C115.059 156.039 115.305 154.917 115.75 153.869C115.75 153.869 114.303 155.834 113.789 155.752C113.275 155.67 114.203 152.958 114.203 152.958C114.203 152.958 112.655 154.509 112.135 154.214C111.615 153.919 113.269 151.627 113.269 151.627C113.269 151.627 111.389 153.592 111.314 152.971C111.239 152.349 112.962 149.769 112.962 149.769C112.962 149.769 111.207 146.046 111.082 144.495C111.093 143.412 111.454 142.361 112.11 141.5L117.705 140.414Z" fill="white"/>
<mask id="mask1_1030_45267" style="mask-type:luminance" maskUnits="userSpaceOnUse" x="111" y="140" width="9" height="18">
<path d="M117.709 140.406C117.709 140.406 119.464 148.26 119.364 150.452C119.263 152.643 115.134 158.513 115.027 157.169C115.062 156.031 115.309 154.909 115.754 153.861C115.754 153.861 114.307 155.826 113.793 155.744C113.279 155.663 114.207 152.95 114.207 152.95C114.207 152.95 112.659 154.501 112.139 154.206C111.619 153.911 113.273 151.619 113.273 151.619C113.273 151.619 111.393 153.585 111.318 152.963C111.243 152.341 112.966 149.761 112.966 149.761C112.966 149.761 111.211 146.038 111.086 144.487C111.097 143.404 111.458 142.354 112.114 141.492L117.709 140.406Z" fill="white"/>
</mask>
<g mask="url(#mask1_1030_45267)">
<path d="M117.709 140.406C117.709 140.406 119.464 148.26 119.364 150.452C119.263 152.643 115.134 158.513 115.027 157.169C115.062 156.031 115.309 154.909 115.754 153.861C115.754 153.861 114.307 155.826 113.793 155.744C113.279 155.663 114.207 152.95 114.207 152.95C114.207 152.95 112.659 154.501 112.139 154.206C111.619 153.911 113.273 151.619 113.273 151.619C113.273 151.619 111.393 153.585 111.318 152.963C111.243 152.341 112.966 149.761 112.966 149.761C112.966 149.761 111.211 146.038 111.086 144.487C111.097 143.404 111.458 142.354 112.114 141.492L117.709 140.406Z" fill="#D9D9D9"/>
</g>
<path d="M117.705 140.414C117.705 140.414 119.46 148.268 119.36 150.459C119.259 152.651 115.13 158.521 115.023 157.177C115.059 156.039 115.305 154.917 115.75 153.869C115.75 153.869 114.303 155.834 113.789 155.752C113.275 155.67 114.203 152.958 114.203 152.958C114.203 152.958 112.655 154.509 112.135 154.214C111.615 153.919 113.269 151.627 113.269 151.627C113.269 151.627 111.389 153.592 111.314 152.971C111.239 152.349 112.962 149.769 112.962 149.769C112.962 149.769 111.207 146.046 111.082 144.495C111.093 143.412 111.454 142.361 112.11 141.5L117.705 140.414Z" stroke="#443D78" stroke-width="0.567123" stroke-linecap="round" stroke-linejoin="round"/>
<path d="M117.292 140.414C117.292 140.414 118.546 145.895 118.433 147.446C118.32 148.997 116.779 153.542 115.644 152.713C114.51 151.885 116.365 148.789 116.365 148.789C116.365 148.789 113.182 146.548 112.449 144.445C111.715 142.342 112.135 141.45 112.135 141.45L117.292 140.414Z" fill="white"/>
<mask id="mask2_1030_45267" style="mask-type:luminance" maskUnits="userSpaceOnUse" x="112" y="140" width="7" height="13">
<path d="M117.288 140.406C117.288 140.406 118.542 145.887 118.429 147.438C118.316 148.989 116.775 153.534 115.64 152.706C114.506 151.877 116.361 148.782 116.361 148.782C116.361 148.782 113.178 146.54 112.445 144.437C111.712 142.334 112.131 141.442 112.131 141.442L117.288 140.406Z" fill="white"/>
</mask>
<g mask="url(#mask2_1030_45267)">
<path d="M117.288 140.406C117.288 140.406 118.542 145.887 118.429 147.438C118.316 148.989 116.775 153.534 115.64 152.706C114.506 151.877 116.361 148.782 116.361 148.782C116.361 148.782 113.178 146.54 112.445 144.437C111.712 142.334 112.131 141.442 112.131 141.442L117.288 140.406Z" fill="#D9D9D9"/>
</g>
<path d="M117.292 140.414C117.292 140.414 118.546 145.895 118.433 147.446C118.32 148.997 116.779 153.542 115.644 152.713C114.51 151.885 116.365 148.789 116.365 148.789C116.365 148.789 113.182 146.548 112.449 144.445C111.715 142.342 112.135 141.45 112.135 141.45L117.292 140.414Z" stroke="#443D78" stroke-width="0.567123" stroke-linecap="round" stroke-linejoin="round"/>
<path d="M113.513 114.727L117.906 140.939L111.714 142.339L105.523 122.129L113.513 114.727Z" fill="#443D78" stroke="#443D78" stroke-width="0.567123" stroke-linecap="round" stroke-linejoin="round"/>
<path d="M111.716 127.535C111.716 127.535 112.117 158.751 112.713 167.158C113.308 175.565 111.115 186.771 109.122 189.973C107.129 193.175 98.3317 213.203 98.7327 214.39C99.1337 215.577 100.932 219.193 100.932 220.191V224.391C100.932 224.391 110.914 230.996 111.716 230.996C112.518 230.996 113.515 232.597 111.516 233.803C109.517 235.008 87.1464 235.002 86.1501 234.198C85.4929 233.607 85.0096 232.847 84.7527 232.001C84.7527 232.001 81.5569 233.2 81.7575 230.199C81.958 227.198 85.5485 214.39 85.5485 214.39C85.5485 214.39 83.3554 200.377 84.1512 191.373C84.947 182.37 87.748 171.559 87.748 169.361C87.748 167.164 84.9532 152.548 84.5522 150.15C84.1512 147.751 78.3612 140.939 80.9554 135.54C83.5496 130.141 85.5485 121.527 86.3506 120.93C87.1527 120.334 97.9369 119.926 102.33 120.93C106.722 121.935 111.516 121.928 111.716 127.535Z" fill="#443D78" stroke="#443D78" stroke-width="0.567123" stroke-linecap="round" stroke-linejoin="round"/>
<path d="M91.9132 64.6087C91.9132 64.6087 88.4981 67.6725 87.909 68.7336C87.32 69.7946 80.1514 80.0346 80.0324 87.3552C79.9133 94.6758 85.3336 116.813 85.3336 116.813L77.1875 137.576L79.5436 138.518L81.8934 135.925V139.817C81.8934 139.817 84.6005 142.291 91.6562 144.645C98.712 147 107.773 144.294 107.773 144.294L110.474 127.066V144.061L113.651 141.939L113.908 113.636C113.908 113.636 116.496 98.4365 116.496 94.1735C116.496 89.9105 109.321 76.5941 106.144 72.7266C102.967 68.8591 97.6718 65.6572 96.1178 64.4768C94.5638 63.2965 91.9132 64.6087 91.9132 64.6087Z" fill="#443D78"/>
<mask id="mask3_1030_45267" style="mask-type:luminance" maskUnits="userSpaceOnUse" x="77" y="63" width="40" height="83">
<path d="M91.9132 64.6087C91.9132 64.6087 88.4981 67.6725 87.909 68.7336C87.32 69.7946 80.1514 80.0346 80.0324 87.3552C79.9133 94.6758 85.3336 116.813 85.3336 116.813L77.1875 137.576L79.5436 138.518L81.8934 135.925V139.817C81.8934 139.817 84.6005 142.291 91.6562 144.645C98.712 147 107.773 144.294 107.773 144.294L110.474 127.066V144.061L113.651 141.939L113.908 113.636C113.908 113.636 116.496 98.4365 116.496 94.1735C116.496 89.9105 109.321 76.5941 106.144 72.7266C102.967 68.8591 97.6718 65.6572 96.1178 64.4768C94.5638 63.2965 91.9132 64.6087 91.9132 64.6087Z" fill="white"/>
</mask>
<g mask="url(#mask3_1030_45267)">
<path opacity="0.17" d="M91.9132 64.6087C91.9132 64.6087 88.4981 67.6725 87.909 68.7336C87.32 69.7946 80.1514 80.0346 80.0324 87.3552C79.9133 94.6758 85.3336 116.813 85.3336 116.813L77.1875 137.576L79.5436 138.518L81.8934 135.925V139.817C81.8934 139.817 84.6005 142.291 91.6562 144.645C98.712 147 107.773 144.294 107.773 144.294L110.474 127.066V144.061L113.651 141.939L113.908 113.636C113.908 113.636 116.496 98.4365 116.496 94.1735C116.496 89.9105 109.321 76.5941 106.144 72.7266C102.967 68.8591 97.6718 65.6572 96.1178 64.4768C94.5638 63.2965 91.9132 64.6087 91.9132 64.6087Z" fill="white"/>
<path d="M81.8633 89.7031C81.8633 89.7031 86.1369 92.7356 88.9817 93.8029" stroke="#443D78" stroke-width="0.567123" stroke-linecap="round" stroke-linejoin="round"/>
<path d="M83.1094 92.9141C83.1094 92.9141 87.9156 94.1697 90.4033 94.1697" stroke="#443D78" stroke-width="0.567123" stroke-linecap="round" stroke-linejoin="round"/>
<path d="M90.0508 121.438L103.573 123.045L102.684 125.895L90.2262 124.47" stroke="#443D78" stroke-width="0.567123" stroke-linecap="round" stroke-linejoin="round"/>
</g>
<path d="M91.9132 64.6087C91.9132 64.6087 88.4981 67.6725 87.909 68.7336C87.32 69.7946 80.1514 80.0346 80.0324 87.3552C79.9133 94.6758 85.3336 116.813 85.3336 116.813L77.1875 137.576L79.5436 138.518L81.8934 135.925V139.817C81.8934 139.817 84.6005 142.291 91.6562 144.645C98.712 147 107.773 144.294 107.773 144.294L110.474 127.066V144.061L113.651 141.939L113.908 113.636C113.908 113.636 116.496 98.4365 116.496 94.1735C116.496 89.9105 109.321 76.5941 106.144 72.7266C102.967 68.8591 97.6718 65.6572 96.1178 64.4768C94.5638 63.2965 91.9132 64.6087 91.9132 64.6087Z" stroke="#443D78" stroke-width="0.567123" stroke-linecap="round" stroke-linejoin="round"/>
<path d="M91.207 65.2969L104.266 79.442L111.911 94.0581C111.911 94.0581 110.263 83.2153 108.853 80.2457C107.443 77.276 101.089 69.9178 100.375 68.2665C99.6602 66.6153 91.207 65.2969 91.207 65.2969Z" fill="white" stroke="#443D78" stroke-width="0.567123" stroke-linecap="round" stroke-linejoin="round"/>
<path d="M108.294 87.1619L111.91 94.0681C111.91 94.0681 110.788 86.6785 109.597 82.4406L108.852 80.2745C107.851 78.515 106.715 76.8357 105.455 75.2518L103.406 74.8438L104.265 79.4646L106.909 81.6307L108.294 87.1619Z" fill="#443D78" stroke="#443D78" stroke-width="0.567123" stroke-linecap="round" stroke-linejoin="round"/>
<path d="M104.813 70.625L105.49 71.4098L107.614 73.9211L108.867 80.3L103.422 74.8566C103.422 74.8566 104.136 71.573 104.813 70.625Z" fill="white" stroke="#443D78" stroke-width="0.567123" stroke-linecap="round" stroke-linejoin="round"/>
<path d="M110.973 44.3378C110.973 44.3378 113.83 46.5353 114.188 48.6574C114.545 50.7795 113.479 53.1401 113.599 53.9626C113.718 54.785 115.829 56.6748 115.716 57.6166C115.604 58.5584 113.837 58.9099 113.837 58.9099C113.837 58.9099 111.919 65.904 111.449 67.0718C110.979 68.2396 108.623 67.8943 106.862 67.662L103.685 77.0795L93.2082 64.73L94.8562 59.7764C94.8562 59.7764 90.3884 54.3581 90.0312 48.582C89.674 42.8059 94.2672 38.8003 100.853 37.9779C107.439 37.1554 112.972 40.3322 113.674 41.6319C114.376 42.9315 110.973 44.3378 110.973 44.3378Z" fill="white"/>
<mask id="mask4_1030_45267" style="mask-type:luminance" maskUnits="userSpaceOnUse" x="90" y="37" width="26" height="41">
<path d="M110.973 44.3378C110.973 44.3378 113.83 46.5353 114.188 48.6574C114.545 50.7795 113.479 53.1401 113.599 53.9626C113.718 54.785 115.829 56.6748 115.716 57.6166C115.604 58.5584 113.837 58.9099 113.837 58.9099C113.837 58.9099 111.919 65.904 111.449 67.0718C110.979 68.2396 108.623 67.8943 106.862 67.662L103.685 77.0795L93.2082 64.73L94.8562 59.7764C94.8562 59.7764 90.3884 54.3581 90.0312 48.582C89.674 42.8059 94.2672 38.8003 100.853 37.9779C107.439 37.1554 112.972 40.3322 113.674 41.6319C114.376 42.9315 110.973 44.3378 110.973 44.3378Z" fill="white"/>
</mask>
<g mask="url(#mask4_1030_45267)">
<path d="M110.969 44.3378C110.969 44.3378 113.826 46.5353 114.184 48.6574C114.541 50.7795 113.476 53.1401 113.595 53.9626C113.714 54.785 115.825 56.6748 115.713 57.6166C115.6 58.5584 113.833 58.9099 113.833 58.9099C113.833 58.9099 111.915 65.904 111.445 67.0718C110.975 68.2396 108.619 67.8943 106.858 67.662L103.681 77.0795L93.2043 64.73L94.8523 59.7764C94.8523 59.7764 90.3845 54.3581 90.0273 48.582C89.6701 42.8059 94.2633 38.8003 100.849 37.9779C107.435 37.1554 112.968 40.3322 113.67 41.6319C114.372 42.9315 110.969 44.3378 110.969 44.3378Z" fill="#D9D9D9"/>
<path d="M98.7626 71.2949C100.53 70.9371 103.494 70.3218 106.163 69.7191L106.852 67.6723C108.319 67.8669 110.198 68.1432 111.051 67.5467C109.046 66.718 104.083 65.2677 103.068 63.403C101.814 61.0863 106.201 54.3433 106.201 50.9718C106.201 47.6004 101.996 43.8082 101.996 43.8082C99.972 41.8808 96.2812 41.2969 93.0039 41.2969C91.9723 42.1995 91.1646 43.3303 90.6447 44.5998C90.1248 45.8694 89.9071 47.2427 90.0087 48.6112C90.3659 54.3873 94.8337 59.8055 94.8337 59.8055L93.1857 64.7591L98.7626 71.2949Z" fill="#B8B8B8"/>
</g>
<path d="M110.973 44.3378C110.973 44.3378 113.83 46.5353 114.188 48.6574C114.545 50.7795 113.479 53.1401 113.599 53.9626C113.718 54.785 115.829 56.6748 115.716 57.6166C115.604 58.5584 113.837 58.9099 113.837 58.9099C113.837 58.9099 111.919 65.904 111.449 67.0718C110.979 68.2396 108.623 67.8943 106.862 67.662L103.685 77.0795L93.2082 64.73L94.8562 59.7764C94.8562 59.7764 90.3884 54.3581 90.0312 48.582C89.674 42.8059 94.2672 38.8003 100.853 37.9779C107.439 37.1554 112.972 40.3322 113.674 41.6319C114.376 42.9315 110.973 44.3378 110.973 44.3378Z" stroke="#443D78" stroke-width="0.567123" stroke-linecap="round" stroke-linejoin="round"/>
<path d="M110.972 44.3393C110.972 44.3393 114.381 42.9267 113.673 41.6333C112.965 40.34 107.438 37.1506 100.852 37.9793C94.2665 38.8081 89.6796 42.8074 90.0306 48.5835C90.3815 54.3596 94.8556 59.7778 94.8556 59.7778L94.6049 60.5312C97.0425 61.7241 99.5615 59.7778 99.5615 59.7778C99.1016 60.0102 98.5798 60.0899 98.0716 60.0052C97.5635 59.9205 97.0955 59.676 96.7354 59.3069C95.3255 58.0136 95.2065 53.8887 96.9735 53.5308C98.7406 53.173 99.9124 53.8887 99.9124 55.182C99.9124 56.4754 100.263 55.6529 101.21 55.5336C102.156 55.4143 101.322 52.5891 101.911 52.1182C102.864 51.5277 103.7 50.7682 104.38 49.8768C105.439 48.4642 102.381 47.2901 102.03 45.9905C101.679 44.6909 110.972 44.3393 110.972 44.3393Z" fill="#443D78" stroke="#443D78" stroke-width="0.567123" stroke-linecap="round" stroke-linejoin="round"/>
<path d="M111.81 53.5469L109.629 54.2752H111.603" stroke="#443D78" stroke-width="0.567123" stroke-linecap="round" stroke-linejoin="round"/>
<path d="M112.646 51.3606C112.646 51.3606 111.712 50.0108 110.672 50.6323C109.632 51.2539 109.531 51.6746 109.531 51.6746" stroke="#443D78" stroke-width="0.567123" stroke-linecap="round" stroke-linejoin="round"/>
<path d="M110.398 60.8281C111.036 61.265 111.815 61.4444 112.579 61.3304" stroke="#443D78" stroke-width="0.567123" stroke-linecap="round" stroke-linejoin="round"/>
<path d="M92.7372 62.4922L105.909 75.457L104.737 80.9945L90.7383 65.9076L92.7372 62.4922Z" fill="white" stroke="#443D78" stroke-width="0.567123" stroke-linecap="round" stroke-linejoin="round"/>
<path d="M143.336 112.059C143.336 112.059 138.699 109.296 137.947 109.547C137.195 109.799 129.926 115.072 130.427 116.328C130.928 117.584 134.813 119.216 137.069 120.095C139.325 120.974 143.962 119.091 143.962 119.091L143.336 112.059Z" fill="white" stroke="#443D78" stroke-width="0.567123" stroke-linecap="round" stroke-linejoin="round"/>
<path d="M129.825 111.049C129.825 111.049 133.836 108.789 134.462 108.789C135.089 108.789 138.723 112.054 138.723 112.054L137.219 114.314C137.219 114.314 141.982 116.7 141.48 117.579C140.979 118.458 139.099 119.839 137.094 120.09C135.089 120.341 129.449 116.7 129.449 116.7L129.825 111.049Z" fill="white"/>
<mask id="mask5_1030_45267" style="mask-type:luminance" maskUnits="userSpaceOnUse" x="129" y="108" width="13" height="13">
<path d="M129.825 111.057C129.825 111.057 133.836 108.797 134.462 108.797C135.089 108.797 138.723 112.062 138.723 112.062L137.219 114.322C137.219 114.322 141.982 116.708 141.48 117.587C140.979 118.466 139.099 119.847 137.094 120.098C135.089 120.349 129.449 116.708 129.449 116.708L129.825 111.057Z" fill="white"/>
</mask>
<g mask="url(#mask5_1030_45267)">
<path d="M129.825 111.057C129.825 111.057 133.836 108.797 134.462 108.797C135.089 108.797 138.723 112.062 138.723 112.062L137.219 114.322C137.219 114.322 141.982 116.708 141.48 117.587C140.979 118.466 139.099 119.847 137.094 120.098C135.089 120.349 129.449 116.708 129.449 116.708L129.825 111.057Z" fill="#D9D9D9"/>
</g>
<path d="M129.825 111.049C129.825 111.049 133.836 108.789 134.462 108.789C135.089 108.789 138.723 112.054 138.723 112.054L137.219 114.314C137.219 114.314 141.982 116.7 141.48 117.579C140.979 118.458 139.099 119.839 137.094 120.09C135.089 120.341 129.449 116.7 129.449 116.7L129.825 111.049Z" stroke="#443D78" stroke-width="0.567123" stroke-linecap="round" stroke-linejoin="round"/>
<path d="M127.045 110.047L130.554 110.675L129.426 116.702L126.418 115.697L127.045 110.047Z" fill="white" stroke="#443D78" stroke-width="0.567123" stroke-linecap="round" stroke-linejoin="round"/>
<path d="M86.3181 75.0156C86.3181 75.0156 82.9343 81.5451 82.5583 84.8099C82.1824 88.0746 95.9681 114.067 96.9707 114.946C97.9733 115.825 127.293 116.704 127.293 116.704L128.546 110.3L103.481 103.143L94.9592 76.8991" fill="#443D78"/>
<mask id="mask6_1030_45267" style="mask-type:luminance" maskUnits="userSpaceOnUse" x="82" y="75" width="47" height="42">
<path d="M86.3181 75.0156C86.3181 75.0156 82.9343 81.5451 82.5583 84.8099C82.1824 88.0746 95.9681 114.067 96.9707 114.946C97.9733 115.825 127.293 116.704 127.293 116.704L128.546 110.3L103.481 103.143L94.9592 76.8991" fill="white"/>
</mask>
<g mask="url(#mask6_1030_45267)">
<path opacity="0.17" d="M86.3181 75.0156C86.3181 75.0156 82.9343 81.5451 82.5583 84.8099C82.1824 88.0746 95.9681 114.067 96.9707 114.946C97.9733 115.825 127.293 116.704 127.293 116.704L128.546 110.3L103.481 103.143L94.9592 76.8991" fill="white"/>
</g>
<path d="M86.3181 75.0156C86.3181 75.0156 82.9343 81.5451 82.5583 84.8099C82.1824 88.0746 95.9681 114.067 96.9707 114.946C97.9733 115.825 127.293 116.704 127.293 116.704L128.546 110.3L103.481 103.143L94.9592 76.8991" stroke="#443D78" stroke-width="0.567123" stroke-linecap="round" stroke-linejoin="round"/>
<path d="M138.949 110.171C138.949 110.171 137.194 108.665 136.568 110.423C135.941 112.18 132.056 116.45 133.811 116.575C135.565 116.701 138.824 113.059 138.824 113.059" fill="white"/>
<path d="M138.949 110.171C138.949 110.171 137.194 108.665 136.568 110.423C135.941 112.18 132.056 116.45 133.811 116.575C135.565 116.701 138.824 113.059 138.824 113.059" stroke="#443D78" stroke-width="0.567123" stroke-linecap="round" stroke-linejoin="round"/>
<path d="M131.18 117.208C131.18 117.208 130.728 119.323 131.806 120.221C132.564 120.849 132.991 119.091 132.809 117.836C132.627 116.58 131.556 116.203 131.18 117.208Z" fill="white" stroke="#443D78" stroke-width="0.567123" stroke-linecap="round" stroke-linejoin="round"/>
<path d="M132.961 117.708C132.961 117.708 132.51 119.823 133.588 120.721C134.346 121.349 134.772 119.591 134.59 118.336C134.408 117.08 133.312 116.703 132.961 117.708Z" fill="white" stroke="#443D78" stroke-width="0.567123" stroke-linecap="round" stroke-linejoin="round"/>
<path d="M134.687 118.465C134.687 118.465 134.236 120.581 135.314 121.479C136.072 122.107 136.498 120.349 136.317 119.093C136.135 117.838 135.063 117.461 134.687 118.465Z" fill="white" stroke="#443D78" stroke-width="0.567123" stroke-linecap="round" stroke-linejoin="round"/>
<path d="M136.422 119.483C136.422 119.483 136.008 120.908 136.998 121.511C137.694 121.938 138.088 120.751 137.919 119.903C137.75 119.056 136.766 118.805 136.422 119.483Z" fill="white" stroke="#443D78" stroke-width="0.567123" stroke-linecap="round" stroke-linejoin="round"/>
<path d="M143.336 112.055L143.712 120.092L146.469 119.338L145.842 111.93L143.336 112.055Z" stroke="#443D78" stroke-width="0.567123" stroke-linecap="round" stroke-linejoin="round"/>
<path d="M145.215 111.305L146.468 120.848L167.397 118.587L167.899 106.156L145.215 111.305Z" fill="#443D78" stroke="#443D78" stroke-width="0.567123" stroke-linecap="round" stroke-linejoin="round"/>
<path d="M108.522 149.344C108.522 149.344 104.725 174.759 104.725 183.366C104.725 191.974 98.9349 206.383 98.7344 214.388" stroke="white" stroke-width="0.567123" stroke-linecap="round" stroke-linejoin="round"/>
<path d="M86.1513 234.182C87.1476 234.985 109.518 234.985 111.517 233.786C113.516 232.587 112.513 230.98 111.718 230.98C110.922 230.98 100.933 224.375 100.933 224.375C100.933 224.375 95.5381 228.582 92.5428 229.58C89.5476 230.578 84.7539 230.779 84.7539 230.779V231.984C85.0108 232.831 85.494 233.591 86.1513 234.182Z" fill="white" stroke="#443D78" stroke-width="0.567123" stroke-linecap="round" stroke-linejoin="round"/>
<path d="M111.517 233.799C112.57 233.172 112.771 232.418 112.645 231.859C109.707 232.441 106.723 232.754 103.728 232.795C97.694 232.958 88.2007 232.588 84.9297 232.45C85.2006 233.124 85.6306 233.723 86.1829 234.195C87.1479 234.999 109.518 234.999 111.517 233.799Z" fill="white" stroke="#443D78" stroke-width="0.567123" stroke-linecap="round" stroke-linejoin="round"/>
<path d="M84.1682 232.158L84.751 230.796L85.5468 214.391C85.5468 214.391 81.9499 227.198 81.7557 230.2C81.6053 232.384 83.2596 232.34 84.1682 232.158Z" fill="#443D78" stroke="#443D78" stroke-width="0.567123" stroke-linecap="round" stroke-linejoin="round"/>
<path d="M170.436 144.344C170.436 144.344 168.444 174.166 170.436 186.17C172.429 198.174 177.448 218.994 178.225 221.593C178.715 223.144 178.927 224.77 178.852 226.396L190.037 227.997C190.037 227.997 186.641 188.575 186.641 183.973C186.641 179.371 190.438 144.946 190.438 144.946L170.436 144.344Z" fill="#443D78" stroke="#443D78" stroke-width="0.567123" stroke-linecap="round" stroke-linejoin="round"/>
<path d="M178.829 226.39C178.829 226.39 166.648 231.595 165.244 232.593C163.84 233.591 168.246 234.998 173.635 234.998C179.024 234.998 184.425 234.37 184.425 234.37L186.618 233.171L186.819 234.571H192.609C192.609 234.571 193.611 229.768 193.235 228.569C192.951 227.748 192.618 226.945 192.239 226.164L178.829 226.39Z" fill="#443D78" stroke="#443D78" stroke-width="0.567123" stroke-linecap="round" stroke-linejoin="round"/>
<path d="M168.641 141.946C168.641 141.946 169.643 170.563 172.037 180.772C174.431 190.981 178.629 215.793 178.629 218.392C178.644 219.878 178.444 221.359 178.034 222.787L177.232 225.399C177.369 226.022 177.579 226.627 177.858 227.2C177.858 227.2 183.047 228.4 186.443 228.4C188.566 228.381 190.675 228.061 192.709 227.452C192.709 227.452 192.816 221.173 193.016 218.191C193.217 215.209 192.22 195.978 192.22 191.376C192.22 186.774 191.017 184.169 191.017 178.568C191.017 172.968 190.021 157.956 190.222 155.552C190.422 153.147 193.217 150.529 193.818 147.547C194.42 144.565 195.015 141.344 195.015 141.344L168.641 141.946Z" fill="#443D78" stroke="#443D78" stroke-width="0.567123" stroke-linecap="round" stroke-linejoin="round"/>
<path d="M171.031 172.031C171.031 172.031 176.614 210.838 178.012 213.286C178.845 214.849 179.069 216.666 178.638 218.384" stroke="white" stroke-width="0.567123" stroke-linecap="round" stroke-linejoin="round"/>
<path d="M163.844 119.325C163.844 119.325 163.098 126.978 163.098 132.829C163.098 136.094 163.067 140.364 163.035 143.452C163.026 144.724 163.459 145.958 164.26 146.945C165.06 147.931 166.178 148.607 167.422 148.858C168.734 149.147 170.07 149.309 171.413 149.342L166.72 120.223C166.72 120.223 164.596 116.625 163.844 119.325Z" fill="#443D78" stroke="#443D78" stroke-width="0.567123" stroke-linecap="round" stroke-linejoin="round"/>
<path d="M186.019 67.1773C187.164 67.7807 188.208 68.558 189.115 69.4814C189.914 70.5346 190.623 71.6541 191.233 72.8278C191.233 72.8278 199.724 82.6346 199.924 83.6329C200.125 84.6311 195.131 116.155 195.131 116.155L200.82 145.971C200.82 145.971 191.634 151.075 184.641 151.376C179.722 151.59 172.321 150.014 168.349 149.06C167.558 148.872 166.847 148.44 166.315 147.825C165.783 147.21 165.457 146.442 165.385 145.632C164.996 141.438 164.269 133.075 163.843 125.158C163.354 115.96 164.746 97.7404 165.723 91.3364C166.701 84.9325 169.821 76.2307 172.215 72.6269C174.609 69.0231 181.207 65.2937 186.019 67.1773Z" fill="#443D78" stroke="#443D78" stroke-width="0.567123" stroke-linecap="round" stroke-linejoin="round"/>
<path d="M191.236 72.8319C190.631 71.6743 189.931 70.5696 189.143 69.5295C188.236 68.606 187.191 67.8288 186.047 67.2253C182.062 65.6495 176.848 67.9348 173.822 70.8229C173.421 71.7144 170.262 78.9345 168.765 84.8362C167.167 91.1145 167.367 99.0504 167.367 99.0504C167.367 99.0504 172.662 92.2446 179.85 84.2397C183.439 80.2385 187.359 76.5484 191.568 73.2086L191.236 72.8319Z" fill="#443D78"/>
<mask id="mask7_1030_45267" style="mask-type:luminance" maskUnits="userSpaceOnUse" x="167" y="66" width="25" height="34">
<path d="M191.236 72.8319C190.631 71.6743 189.931 70.5696 189.143 69.5295C188.236 68.606 187.191 67.8288 186.047 67.2253C182.062 65.6495 176.848 67.9348 173.822 70.8229C173.421 71.7144 170.262 78.9345 168.765 84.8362C167.167 91.1145 167.367 99.0504 167.367 99.0504C167.367 99.0504 172.662 92.2446 179.85 84.2397C183.439 80.2385 187.359 76.5484 191.568 73.2086L191.236 72.8319Z" fill="white"/>
</mask>
<g mask="url(#mask7_1030_45267)">
<path opacity="0.17" d="M191.236 72.8319C190.631 71.6743 189.931 70.5696 189.143 69.5295C188.236 68.606 187.191 67.8288 186.047 67.2253C182.062 65.6495 176.848 67.9348 173.822 70.8229C173.421 71.7144 170.262 78.9345 168.765 84.8362C167.167 91.1145 167.367 99.0504 167.367 99.0504C167.367 99.0504 172.662 92.2446 179.85 84.2397C183.439 80.2385 187.359 76.5484 191.568 73.2086L191.236 72.8319Z" fill="white"/>
</g>
<path d="M191.236 72.8319C190.631 71.6743 189.931 70.5696 189.143 69.5295C188.236 68.606 187.191 67.8288 186.047 67.2253C182.062 65.6495 176.848 67.9348 173.822 70.8229C173.421 71.7144 170.262 78.9345 168.765 84.8362C167.167 91.1145 167.367 99.0504 167.367 99.0504C167.367 99.0504 172.662 92.2446 179.85 84.2397C183.439 80.2385 187.359 76.5484 191.568 73.2086L191.236 72.8319Z" stroke="#443D78" stroke-width="0.567123" stroke-linecap="round" stroke-linejoin="round"/>
<path d="M173.139 75.4229C173.139 75.4229 170.438 83.905 169.617 86.3033C168.796 88.7016 168.715 92.4624 168.715 92.4624C168.715 92.4624 178.829 77.3001 181.297 74.7511C183.766 72.2021 186.993 68.2216 186.993 68.2216L184.819 67.5938L173.139 75.4229Z" fill="white" stroke="#443D78" stroke-width="0.567123" stroke-linecap="round" stroke-linejoin="round"/>
<path d="M173.884 72.3438C173.884 72.3438 172.687 75.8722 172.687 76.1108C172.687 76.3493 172.387 79.7146 172.387 79.7146L176.654 73.9322L173.884 72.3438Z" fill="white" stroke="#443D78" stroke-width="0.567123" stroke-linecap="round" stroke-linejoin="round"/>
<path d="M184.743 65.2969L173.062 74.8274L174.861 80.0762L186.842 67.8459L184.743 65.2969Z" fill="white" stroke="#443D78" stroke-width="0.567123" stroke-linecap="round" stroke-linejoin="round"/>
<path d="M183.234 140.891C183.234 140.891 181.573 145.028 181.078 146.384C180.583 147.74 180.834 153.052 180.896 153.611C180.959 154.169 181.943 154.289 181.943 154.289C181.943 154.289 182.25 158.545 182.62 158.684C183.004 158.779 183.396 158.84 183.791 158.866C183.791 158.866 184.468 161.032 185.333 160.843C185.593 160.764 185.824 160.611 185.998 160.402C186.173 160.194 186.284 159.939 186.317 159.669C186.601 159.696 186.887 159.647 187.147 159.528C187.406 159.409 187.63 159.224 187.796 158.991C188.148 158.472 188.438 157.914 188.66 157.327C188.66 157.327 190.139 156.587 190.258 156.028C190.377 155.469 190.753 153.516 190.753 153.516C190.753 153.516 191.186 153.391 191.186 152.098C191.186 150.804 190.202 142.837 190.202 142.837L183.234 140.891Z" fill="white" stroke="#443D78" stroke-width="0.567123" stroke-linecap="round" stroke-linejoin="round"/>
<path d="M181.941 154.286L182.123 150.531" stroke="#443D78" stroke-width="0.567123" stroke-linecap="round" stroke-linejoin="round"/>
<path d="M183.789 158.853L184.191 153.297" stroke="#443D78" stroke-width="0.567123" stroke-linecap="round" stroke-linejoin="round"/>
<path d="M186.316 159.655L186.605 153.641" stroke="#443D78" stroke-width="0.567123" stroke-linecap="round" stroke-linejoin="round"/>
<path d="M188.66 157.313L189.018 153.125" stroke="#443D78" stroke-width="0.567123" stroke-linecap="round" stroke-linejoin="round"/>
<path d="M195.407 80.9062L199.9 83.606L198.402 114.728L190.413 144.142L182.824 142.145L185.218 118.915L184.021 95.5035C184.021 95.5035 185.719 90.0476 189.611 87.0465" fill="#443D78"/>
<path d="M195.407 80.9062L199.9 83.606L198.402 114.728L190.413 144.142L182.824 142.145L185.218 118.915L184.021 95.5035C184.021 95.5035 185.719 90.0476 189.611 87.0465" stroke="#443D78" stroke-width="0.567123" stroke-linecap="round" stroke-linejoin="round"/>
<path d="M186.166 86.1562C186.166 86.1562 184.124 91.3547 184.023 95.511" stroke="white" stroke-width="0.567123" stroke-linecap="round" stroke-linejoin="round"/>
<path d="M187.868 88.6328C187.868 88.6328 184.371 94.3524 184.371 96.9391C184.371 99.5258 185.292 121.111 185.292 121.111L182.898 139.745" stroke="white" stroke-width="0.567123" stroke-linecap="round" stroke-linejoin="round"/>
<path d="M166.168 46.2317C166.168 46.2317 163.768 53.0626 163.994 54.042C164.219 55.0214 164.445 56.5157 164.445 56.5157C164.445 56.5157 160.685 61.1679 161.149 61.6953C161.613 62.2227 163.693 62.8192 163.693 62.8192C163.693 62.8192 165.416 70.0267 166.093 70.6985C166.77 71.3703 170.962 69.876 170.962 69.876L175.455 75.5768L184.666 66.7243L183.545 62.072C183.545 62.072 188.413 53.5146 188.338 49.4588C188.263 45.403 179.954 40.0036 174.032 40.0789C168.111 40.1542 162.571 42.3328 163.693 43.9087C164.354 44.842 165.196 45.6322 166.168 46.2317Z" fill="white"/>
<mask id="mask8_1030_45267" style="mask-type:luminance" maskUnits="userSpaceOnUse" x="161" y="40" width="28" height="36">
<path d="M166.168 46.2317C166.168 46.2317 163.768 53.0626 163.994 54.042C164.219 55.0214 164.445 56.5157 164.445 56.5157C164.445 56.5157 160.685 61.1679 161.149 61.6953C161.613 62.2227 163.693 62.8192 163.693 62.8192C163.693 62.8192 165.416 70.0267 166.093 70.6985C166.77 71.3703 170.962 69.876 170.962 69.876L175.455 75.5768L184.666 66.7243L183.545 62.072C183.545 62.072 188.413 53.5146 188.338 49.4588C188.263 45.403 179.954 40.0036 174.032 40.0789C168.111 40.1542 162.571 42.3328 163.693 43.9087C164.354 44.842 165.196 45.6322 166.168 46.2317Z" fill="white"/>
</mask>
<g mask="url(#mask8_1030_45267)">
<path d="M185.433 44.7656C184.291 44.9326 183.177 45.2493 182.118 45.7074L173.289 49.2923C173.289 49.2923 169.084 52.871 169.529 55.6084C169.974 58.3457 173.734 62.1379 172.894 64.8752C172.054 67.6126 166.797 70.5634 166.797 70.5634L168.445 70.6262C169.698 70.3311 170.989 69.8728 170.989 69.8728L171.678 70.7455L180.188 71.0532L184.693 66.7211L183.572 62.0688C183.572 62.0688 188.44 53.5114 188.365 49.4556C188.315 47.9613 187.162 46.285 185.433 44.7656Z" fill="#B8B8B8"/>
</g>
<path d="M166.168 46.2317C166.168 46.2317 163.768 53.0626 163.994 54.042C164.219 55.0214 164.445 56.5157 164.445 56.5157C164.445 56.5157 160.685 61.1679 161.149 61.6953C161.613 62.2227 163.693 62.8192 163.693 62.8192C163.693 62.8192 165.416 70.0267 166.093 70.6985C166.77 71.3703 170.962 69.876 170.962 69.876L175.455 75.5768L184.666 66.7243L183.545 62.072C183.545 62.072 188.413 53.5146 188.338 49.4588C188.263 45.403 179.954 40.0036 174.032 40.0789C168.111 40.1542 162.571 42.3328 163.693 43.9087C164.354 44.842 165.196 45.6322 166.168 46.2317Z" stroke="#443D78" stroke-width="0.567123" stroke-linecap="round" stroke-linejoin="round"/>
<path d="M183.548 62.072C183.548 62.072 188.417 53.5146 188.342 49.4588C188.266 45.403 179.957 40.0036 174.036 40.0789C168.114 40.1542 162.575 42.3328 163.696 43.9087C164.357 44.842 165.199 45.6322 166.172 46.2317C166.172 46.2317 169.844 47.9583 169.844 48.4103C169.844 48.8623 167.669 51.2607 168.421 52.3155C169.173 53.3702 172.764 54.6384 172.764 54.6384C172.764 54.6384 172.137 56.6664 173.064 56.8924C173.992 57.1184 174.412 56.2143 175.007 55.6367C175.602 55.0591 177.708 54.2052 178.009 56.7605C178.186 58.5933 177.706 60.4294 176.655 61.9402C176.361 62.1599 180.477 64.9412 182.295 64.1125C182.765 63.899 183.316 63.6165 183.867 63.3214L183.548 62.072Z" fill="#443D78" stroke="#443D78" stroke-width="0.567123" stroke-linecap="round" stroke-linejoin="round"/>
<path d="M165.569 58.3918C165.86 58.3918 166.096 57.4838 166.096 56.3639C166.096 55.2439 165.86 54.3359 165.569 54.3359C165.279 54.3359 165.043 55.2439 165.043 56.3639C165.043 57.4838 165.279 58.3918 165.569 58.3918Z" stroke="#443D78" stroke-width="0.567123" stroke-linecap="round" stroke-linejoin="round"/>
<path d="M166.172 55.5391L175.007 55.6144" stroke="#443D78" stroke-width="0.567123" stroke-linecap="round" stroke-linejoin="round"/>
<path d="M164.715 53.0955C164.715 53.0955 165.555 51.7519 166.394 53.4282" stroke="#443D78" stroke-width="0.567123" stroke-linecap="round" stroke-linejoin="round"/>
<path d="M164.547 64.0365C165.456 63.6655 166.301 63.1551 167.053 62.5234" stroke="#443D78" stroke-width="0.567123" stroke-linecap="round" stroke-linejoin="round"/>
<path d="M27.2344 235H273.855" stroke="#443D78" stroke-width="1.13425" stroke-miterlimit="10"/>
</svg>
