<svg width="234" height="223" viewBox="0 0 234 223" fill="none" xmlns="http://www.w3.org/2000/svg">
<g id="Group 6485">
<g id="freepik--background-simple--inject-15">
<path id="Vector" d="M142.143 198.413C142.143 198.413 190.075 200.648 220.395 146.609C250.714 92.5701 215.039 42.8607 159.928 32.1192C104.818 21.3777 77.3608 -18.9536 28.2402 11.9198C-20.8804 42.7932 6.41633 207.214 142.143 198.413Z" fill="#A9E8CB"/>
<path id="Vector_2" opacity="0.4" d="M142.143 198.413C142.143 198.413 190.075 200.648 220.395 146.609C250.714 92.5701 215.039 42.8607 159.928 32.1192C104.818 21.3777 77.3608 -18.9536 28.2402 11.9198C-20.8804 42.7932 6.41633 207.214 142.143 198.413Z" fill="white"/>
</g>
<g id="freepik--Shadow--inject-15">
<path id="Vector_3" d="M118.511 222.496C182.295 222.496 234.002 219.298 234.002 215.354C234.002 211.409 182.295 208.211 118.511 208.211C54.7266 208.211 3.01953 211.409 3.01953 215.354C3.01953 219.298 54.7266 222.496 118.511 222.496Z" fill="#A9E8CB"/>
<path id="Vector_4" opacity="0.7" d="M118.511 222.496C182.295 222.496 234.002 219.298 234.002 215.354C234.002 211.409 182.295 208.211 118.511 208.211C54.7266 208.211 3.01953 211.409 3.01953 215.354C3.01953 219.298 54.7266 222.496 118.511 222.496Z" fill="white"/>
</g>
<g id="freepik--Graphics--inject-15">
<path id="Vector_5" d="M143.789 27.2119L143.457 30.0247L144.984 30.5652C145.006 31.5294 145.14 32.4877 145.384 33.421L144.06 34.3791L145.175 36.9892L146.781 36.6883C147.282 37.5118 147.877 38.2744 148.554 38.9606L147.883 40.4592L150.161 42.1542L151.392 41.1102C152.239 41.5754 153.138 41.9383 154.07 42.1911L154.243 43.8186L157.056 44.1564L157.604 42.6271C158.571 42.605 159.531 42.4711 160.467 42.2279L161.433 43.5422L164.056 42.4183L163.766 40.8215C164.59 40.3216 165.352 39.7281 166.038 39.0528L167.54 39.7222L169.239 37.4498L168.187 36.2215C168.654 35.3798 169.018 34.4848 169.27 33.5561L170.902 33.3841L171.24 30.5713L169.707 30.0247C169.688 29.0623 169.554 28.1057 169.307 27.1751L170.637 26.2109L169.516 23.6007L167.916 23.8955C167.412 23.074 166.815 22.3136 166.137 21.6293L166.801 20.1369L164.505 18.4664L163.274 19.5166C162.432 19.0566 161.539 18.694 160.614 18.4357L160.442 16.8082L157.623 16.4766L157.075 17.9997C156.11 18.0234 155.151 18.1594 154.218 18.405L153.252 17.0846L150.635 18.1962L150.931 19.793C150.111 20.2855 149.351 20.8707 148.665 21.5372L147.169 20.8739L145.464 23.1462L146.517 24.3745C146.051 25.2191 145.687 26.1159 145.433 27.0461L143.789 27.2119ZM150.334 29.4659C150.498 28.0829 151.071 26.7798 151.978 25.7215C152.886 24.6633 154.088 23.8974 155.432 23.5209C156.776 23.1444 158.202 23.1742 159.529 23.6065C160.856 24.0387 162.025 24.8541 162.887 25.9493C163.75 27.0445 164.267 28.3703 164.374 29.759C164.48 31.1476 164.172 32.5366 163.487 33.7502C162.802 34.9637 161.771 35.9473 160.526 36.5764C159.28 37.2054 157.876 37.4517 156.49 37.284C154.635 37.0596 152.945 36.1105 151.791 34.6448C150.637 33.1791 150.113 31.3166 150.334 29.4659Z" stroke="#443D78" stroke-width="1.57112" stroke-linejoin="round"/>
<path id="Vector_6" d="M70.2431 96.4246L69.9414 98.9733L71.3266 99.4646C71.3459 100.338 71.4678 101.205 71.6898 102.05L70.4585 102.922L71.4682 105.287L72.921 105.01C73.3756 105.756 73.9148 106.446 74.5278 107.068L73.9122 108.425L76.0238 109.973L77.1381 109.021C77.9041 109.444 78.7185 109.774 79.5636 110.003L79.7175 111.477L82.2724 111.785L82.7649 110.397C83.6401 110.378 84.5101 110.257 85.3566 110.034L86.2308 111.232L88.5948 110.218L88.3363 108.744C89.0831 108.291 89.7751 107.753 90.3986 107.142L91.7591 107.756L93.2982 105.704L92.344 104.581C92.767 103.818 93.0976 103.008 93.329 102.167L94.8065 102.007L95.1081 99.4585L93.723 98.9672C93.7036 98.0941 93.5817 97.2263 93.3597 96.3816L94.591 95.5095L93.5752 93.145L92.1285 93.4091C91.6694 92.6676 91.1261 91.9813 90.5094 91.364L91.125 90.0067L89.0134 88.4775L87.893 89.4294C87.1303 89.0094 86.3202 88.6816 85.4798 88.4529L85.3259 86.979L82.771 86.6719L82.2785 88.0599C81.4033 88.0787 80.5334 88.2003 79.6867 88.4222L78.8125 87.2492L76.4424 88.2564L76.7071 89.7058C75.9599 90.1589 75.2679 90.6967 74.6448 91.3087L73.2842 90.6946L71.7452 92.752L72.6994 93.8697C72.2774 94.6351 71.9468 95.4473 71.7144 96.2895L70.2431 96.4246ZM76.1715 98.4636C76.3216 97.2118 76.8403 96.0326 77.6621 95.0749C78.484 94.1172 79.572 93.4241 80.7886 93.0832C82.0052 92.7424 83.2958 92.769 84.4973 93.1598C85.6987 93.5505 86.757 94.2879 87.5385 95.2787C88.3199 96.2694 88.7893 97.4691 88.8874 98.7259C88.9854 99.9828 88.7078 101.24 88.0894 102.34C87.4711 103.439 86.5399 104.331 85.4135 104.903C84.2872 105.474 83.0162 105.7 81.7614 105.551C80.0785 105.349 78.5446 104.49 77.4965 103.161C76.4484 101.832 75.9719 100.143 76.1715 98.4636Z" fill="#443D78"/>
<path id="Vector_7" d="M200.427 158.956V153.177L197.195 152.446C196.921 150.498 196.417 148.589 195.693 146.759L198.155 144.493L195.25 139.457L192.073 140.458C190.857 138.912 189.464 137.512 187.924 136.288L188.927 133.088L183.897 130.195L181.65 132.609C179.822 131.873 177.913 131.355 175.962 131.067L175.223 127.812H169.43L168.691 131.043C166.738 131.314 164.824 131.817 162.991 132.541L160.719 130.085L155.702 132.971L156.681 136.14C155.131 137.352 153.728 138.739 152.501 140.274L149.299 139.285L146.406 144.284L148.831 146.538C148.094 148.36 147.575 150.263 147.286 152.207L144.023 152.95V158.729L147.255 159.466C147.533 161.411 148.037 163.318 148.758 165.147L146.295 167.419L149.195 172.437L152.365 171.46C153.584 173.002 154.981 174.396 156.527 175.612L155.536 178.812L160.571 181.704L162.818 179.248C164.636 179.985 166.535 180.505 168.476 180.795L169.215 184.05H175.014L175.747 180.826C177.701 180.546 179.617 180.039 181.453 179.315L183.725 181.772L188.755 178.879L187.776 175.716C189.327 174.507 190.73 173.119 191.956 171.583L195.157 172.572L198.057 167.548L195.625 165.3C196.362 163.476 196.883 161.571 197.176 159.626L200.427 158.956ZM190.411 155.971C190.411 159.559 189.344 163.067 187.346 166.05C185.348 169.034 182.507 171.359 179.184 172.732C175.861 174.105 172.205 174.465 168.677 173.765C165.15 173.065 161.909 171.337 159.366 168.8C156.823 166.262 155.091 163.03 154.389 159.511C153.687 155.991 154.048 152.344 155.424 149.029C156.8 145.714 159.131 142.88 162.122 140.887C165.112 138.893 168.628 137.829 172.225 137.829C177.048 137.829 181.674 139.741 185.084 143.143C188.495 146.545 190.411 151.16 190.411 155.971Z" fill="white"/>
<path id="Vector_8" d="M99.7743 15.4844H84.8516V18.9175H99.7743V15.4844Z" fill="#A9E8CB"/>
<path id="Vector_9" d="M94.6585 20.4531H84.8516V23.8862H94.6585V20.4531Z" fill="#A9E8CB"/>
<path id="Vector_10" d="M90.4968 25.4141H84.8516V28.8472H90.4968V25.4141Z" fill="#A9E8CB"/>
<path id="Vector_11" opacity="0.2" d="M99.7743 15.4844H84.8516V18.9175H99.7743V15.4844Z" fill="black"/>
<path id="Vector_12" opacity="0.2" d="M94.6585 20.4531H84.8516V23.8862H94.6585V20.4531Z" fill="black"/>
<path id="Vector_13" opacity="0.2" d="M90.4968 25.4141H84.8516V28.8472H90.4968V25.4141Z" fill="black"/>
<path id="Vector_14" d="M64.0018 53.5156H58.9414V63.8579H64.0018V53.5156Z" fill="#A9E8CB"/>
<path id="Vector_15" d="M71.3065 57.0703H66.2461V63.8628H71.3065V57.0703Z" fill="#A9E8CB"/>
<path id="Vector_16" d="M78.6229 59.9531H73.5625V63.8653H78.6229V59.9531Z" fill="#A9E8CB"/>
<path id="Vector_17" opacity="0.2" d="M64.0018 53.5156H58.9414V63.8579H64.0018V53.5156Z" fill="black"/>
<path id="Vector_18" opacity="0.2" d="M71.3065 57.0703H66.2461V63.8628H71.3065V57.0703Z" fill="black"/>
<path id="Vector_19" opacity="0.2" d="M78.6229 59.9531H73.5625V63.8653H78.6229V59.9531Z" fill="black"/>
<path id="Vector_20" d="M119.08 71.6878H57.8071C56.9661 71.6894 56.133 71.5256 55.3555 71.2056C54.5781 70.8857 53.8715 70.4159 53.2762 69.8232C52.681 69.2305 52.2087 68.5265 51.8865 67.7515C51.5643 66.9765 51.3984 66.1458 51.3984 65.3068V14.842C51.4017 13.1506 52.0766 11.5295 53.2755 10.3335C54.4743 9.13752 56.0994 8.46419 57.7948 8.46094H119.068C119.909 8.46013 120.741 8.62454 121.518 8.94479C122.296 9.26503 123.002 9.73482 123.597 10.3274C124.192 10.9199 124.664 11.6236 124.987 12.3982C125.309 13.1728 125.476 14.0032 125.476 14.842V65.3068C125.476 66.9991 124.803 68.6222 123.603 69.8188C122.403 71.0155 120.777 71.6878 119.08 71.6878ZM57.8071 9.04439C56.2603 9.04763 54.7777 9.66208 53.6839 10.7532C52.5901 11.8444 51.9742 13.3234 51.971 14.8665V65.3313C51.9742 66.8745 52.5901 68.3535 53.6839 69.4446C54.7777 70.5358 56.2603 71.1502 57.8071 71.1535H119.08C120.627 71.1502 122.11 70.5358 123.203 69.4446C124.297 68.3535 124.913 66.8745 124.916 65.3313V14.842C124.913 13.2988 124.297 11.8198 123.203 10.7287C122.11 9.63751 120.627 9.02307 119.08 9.01982L57.8071 9.04439Z" fill="#443D78"/>
<path id="Vector_21" d="M118.294 53.7969H96.4453V54.3558H118.294V53.7969Z" fill="#443D78"/>
<path id="Vector_22" d="M118.294 56.1406H96.4453V56.6995H118.294V56.1406Z" fill="#443D78"/>
<path id="Vector_23" d="M118.294 58.4688H96.4453V59.0276H118.294V58.4688Z" fill="#443D78"/>
<path id="Vector_24" d="M118.294 60.8047H96.4453V61.3636H118.294V60.8047Z" fill="#443D78"/>
<path id="Vector_25" d="M118.294 63.1406H96.4453V63.6995H118.294V63.1406Z" fill="#443D78"/>
<path id="Vector_26" d="M80.118 15.7188H58.2695V16.2776H80.118V15.7188Z" fill="#443D78"/>
<path id="Vector_27" d="M80.118 18.0547H58.2695V18.6136H80.118V18.0547Z" fill="#443D78"/>
<path id="Vector_28" d="M80.118 20.3906H58.2695V20.9495H80.118V20.3906Z" fill="#443D78"/>
<path id="Vector_29" d="M80.118 22.7188H58.2695V23.2776H80.118V22.7188Z" fill="#443D78"/>
<path id="Vector_30" d="M80.118 25.0547H58.2695V25.6136H80.118V25.0547Z" fill="#443D78"/>
<path id="Vector_31" d="M113.975 34.576L117.891 36.6273L117.441 25.6094L108.102 31.5052L112.018 33.5503L109.069 39.1453C108.549 39.1447 108.044 39.3176 107.634 39.6366L102.432 37.2353V37.2045C102.455 36.5785 102.229 35.9688 101.804 35.5074C101.379 35.0461 100.789 34.7702 100.162 34.7395C99.535 34.7089 98.9209 34.9258 98.4528 35.3435C97.9847 35.7612 97.7004 36.3459 97.6613 36.9712C97.6551 37.0488 97.6551 37.1269 97.6613 37.2045C97.6644 37.5454 97.7378 37.8819 97.8767 38.1933L91.1049 45.5631C90.8877 45.4951 90.6615 45.4599 90.4339 45.4587C90.3159 45.4588 90.1983 45.4712 90.0829 45.4956L80.3315 33.145C80.5543 32.574 80.5474 31.9391 80.3122 31.373C80.0771 30.8069 79.6318 30.3532 79.0694 30.1068C78.507 29.8603 77.871 29.8401 77.294 30.0503C76.717 30.2606 76.2437 30.685 75.9728 31.235C75.8381 31.5321 75.7688 31.8547 75.7697 32.1808C75.7772 32.4248 75.8186 32.6667 75.8928 32.8994L64.7808 44.2611C64.3388 44.1021 63.8595 44.0769 63.4032 44.1889C62.9469 44.3009 62.5339 44.545 62.2163 44.8905C61.8988 45.2361 61.6907 45.6675 61.6183 46.1307C61.5459 46.5939 61.6124 47.0681 61.8095 47.4937C62.0066 47.9193 62.3254 48.2772 62.7259 48.5224C63.1264 48.7677 63.5906 48.8893 64.0602 48.872C64.5298 48.8547 64.9838 48.6993 65.365 48.4252C65.7463 48.1512 66.0378 47.7708 66.2029 47.3319C66.2961 47.0696 66.344 46.7934 66.3445 46.5151C66.3452 46.3199 66.3182 46.1255 66.2645 45.9378L77.4996 34.4347C77.72 34.5078 77.9507 34.5451 78.1829 34.5453C78.3297 34.5462 78.4762 34.5318 78.62 34.5023L88.3161 46.7853C88.0116 47.3456 87.9427 48.0037 88.1245 48.6147C88.3064 49.2257 88.724 49.7396 89.2857 50.0434C89.8474 50.3472 90.507 50.4159 91.1195 50.2345C91.7319 50.0531 92.2471 49.6364 92.5516 49.0761C92.7236 48.7645 92.8225 48.418 92.8409 48.0627C92.8471 47.983 92.8471 47.9029 92.8409 47.8232C92.8372 47.5748 92.7957 47.3284 92.7178 47.0924L99.6497 39.5629C99.7817 39.5873 99.9157 39.5997 100.05 39.5997C100.524 39.5995 100.987 39.4584 101.38 39.1944L106.674 41.651C106.684 41.9664 106.756 42.2768 106.887 42.5639C107.019 42.8511 107.206 43.1093 107.438 43.3235C107.67 43.5377 107.943 43.7037 108.24 43.8116C108.537 43.9196 108.853 43.9674 109.169 43.9524C109.485 43.9373 109.795 43.8596 110.081 43.7238C110.366 43.588 110.622 43.3968 110.832 43.1614C111.043 42.9261 111.205 42.6512 111.308 42.3529C111.411 42.0545 111.453 41.7387 111.433 41.4238C111.41 40.9827 111.262 40.557 111.008 40.1955L113.975 34.576Z" fill="#443D78"/>
<g id="freepik--chart-1--inject-2--inject-15">
<path id="Vector_32" d="M119.222 78.2076C118.258 78.2092 117.334 78.5923 116.653 79.2729C115.972 79.9534 115.59 80.8756 115.59 81.8372V113.288C115.59 114.249 115.973 115.171 116.654 115.85C117.335 116.53 118.259 116.911 119.222 116.911H157.391C158.355 116.911 159.279 116.53 159.961 115.85C160.643 115.171 161.027 114.249 161.029 113.288V81.8188C161.027 80.8572 160.643 79.9356 159.961 79.2562C159.279 78.5769 158.355 78.1953 157.391 78.1953L119.222 78.2076Z" stroke="#443D78" stroke-linejoin="round"/>
<path id="Vector_33" d="M121.501 82.4922H118.602V82.8791H121.501V82.4922Z" fill="#443D78"/>
<path id="Vector_34" d="M121.501 85.6484H118.602V86.0354H121.501V85.6484Z" fill="#443D78"/>
<path id="Vector_35" d="M121.501 88.8047H118.602V89.1916H121.501V88.8047Z" fill="#443D78"/>
<path id="Vector_36" d="M121.501 91.9688H118.602V92.3557H121.501V91.9688Z" fill="#443D78"/>
<path id="Vector_37" d="M121.388 85.6484H118.488V86.0354H121.388V85.6484Z" fill="#443D78"/>
<path id="Vector_38" d="M121.501 95.125H118.602V95.5119H121.501V95.125Z" fill="#443D78"/>
</g>
<path id="Vector_39" d="M140.515 112.213C143.266 112.27 145.972 111.511 148.291 110.032C150.61 108.554 152.437 106.423 153.541 103.908C154.644 101.393 154.976 98.6082 154.492 95.9055C154.009 93.2029 152.733 90.7041 150.825 88.7254C148.918 86.7467 146.464 85.3771 143.776 84.7899C141.088 84.2026 138.286 84.4242 135.724 85.4266C133.162 86.429 130.956 88.1671 129.384 90.4209C127.813 92.6747 126.948 95.3428 126.897 98.0877C126.828 101.762 128.223 105.313 130.776 107.961C133.329 110.61 136.832 112.139 140.515 112.213ZM141.001 88.5438C142.949 88.583 144.841 89.1977 146.439 90.31C148.037 91.4222 149.268 92.9822 149.977 94.7925C150.686 96.6028 150.84 98.5822 150.422 100.48C150.003 102.378 149.029 104.11 147.624 105.456C146.219 106.802 144.445 107.702 142.527 108.043C140.608 108.383 138.632 108.148 136.848 107.368C135.064 106.588 133.551 105.297 132.502 103.66C131.453 102.022 130.914 100.111 130.954 98.1675C131.007 95.5623 132.096 93.0849 133.98 91.2801C135.864 89.4754 138.389 88.4911 141.001 88.5438Z" fill="#A9E8CB"/>
<path id="Vector_40" opacity="0.2" d="M140.515 112.213C143.266 112.27 145.972 111.511 148.291 110.032C150.61 108.554 152.437 106.423 153.541 103.908C154.644 101.393 154.976 98.6082 154.492 95.9055C154.009 93.2029 152.733 90.7041 150.825 88.7254C148.918 86.7467 146.464 85.3771 143.776 84.7899C141.088 84.2026 138.286 84.4242 135.724 85.4266C133.162 86.429 130.956 88.1671 129.384 90.4209C127.813 92.6747 126.948 95.3428 126.897 98.0877C126.828 101.762 128.223 105.313 130.776 107.961C133.329 110.61 136.832 112.139 140.515 112.213ZM141.001 88.5438C142.949 88.583 144.841 89.1977 146.439 90.31C148.037 91.4222 149.268 92.9822 149.977 94.7925C150.686 96.6028 150.84 98.5822 150.422 100.48C150.003 102.378 149.029 104.11 147.624 105.456C146.219 106.802 144.445 107.702 142.527 108.043C140.608 108.383 138.632 108.148 136.848 107.368C135.064 106.588 133.551 105.297 132.502 103.66C131.453 102.022 130.914 100.111 130.954 98.1675C131.007 95.5623 132.096 93.0849 133.98 91.2801C135.864 89.4754 138.389 88.4911 141.001 88.5438Z" fill="black"/>
<path id="Vector_41" d="M130.812 108.267C132.121 109.585 133.678 110.632 135.393 111.349C137.108 112.067 138.948 112.44 140.807 112.448C142.667 112.456 144.51 112.099 146.231 111.396C147.952 110.693 149.518 109.659 150.838 108.353C150.887 108.299 150.914 108.229 150.914 108.156C150.914 108.084 150.887 108.014 150.838 107.96L147.951 105.061C147.926 105.034 147.895 105.013 147.861 104.998C147.828 104.984 147.791 104.976 147.754 104.975C147.68 104.98 147.609 105.008 147.551 105.055C146.643 105.963 145.559 106.678 144.365 107.154C143.171 107.63 141.892 107.858 140.607 107.825H139.923C137.834 107.708 135.841 106.907 134.254 105.546C134.112 105.417 133.964 105.288 133.829 105.153C132.207 103.538 131.21 101.403 131.012 99.125C130.815 96.8472 131.431 94.5732 132.751 92.7044C132.764 92.6874 132.774 92.6688 132.782 92.6491C132.844 92.5632 132.911 92.4895 132.985 92.4035C133.932 91.2072 135.154 90.2556 136.546 89.6293C137.939 89.0029 139.463 88.72 140.988 88.8046C141.025 88.8054 141.061 88.799 141.095 88.7859C141.129 88.7728 141.16 88.7531 141.186 88.728C141.212 88.7029 141.234 88.6729 141.248 88.6396C141.263 88.6064 141.271 88.5706 141.272 88.5343L141.352 84.4625C141.353 84.3886 141.326 84.317 141.275 84.263C141.225 84.2091 141.155 84.1771 141.081 84.1739C138.263 84.1266 135.495 84.9195 133.131 86.4509C130.767 87.9824 128.915 90.1827 127.813 92.7703C126.71 95.3578 126.406 98.2149 126.94 100.976C127.475 103.736 128.823 106.275 130.812 108.267Z" fill="#443D78"/>
<path id="Vector_42" d="M141.09 84.1797C144.928 84.1838 148.606 85.7078 151.317 88.4168C154.028 91.1258 155.55 94.798 155.548 98.6261C155.546 102.454 154.02 106.125 151.306 108.831C148.592 111.537 144.912 113.057 141.075 113.057C137.238 113.057 133.557 111.537 130.843 108.831C128.129 106.125 126.604 102.454 126.602 98.6261C126.6 94.798 128.121 91.1258 130.833 88.4168C133.544 85.7078 137.222 84.1838 141.06 84.1797H141.09ZM140.524 111.921C143.219 111.976 145.871 111.233 148.143 109.785C150.415 108.337 152.205 106.249 153.287 103.786C154.37 101.323 154.696 98.5943 154.224 95.9463C153.752 93.2982 152.503 90.8493 150.636 88.9092C148.769 86.9691 146.367 85.625 143.734 85.0469C141.101 84.4689 138.355 84.6828 135.844 85.6616C133.333 86.6404 131.169 88.3402 129.626 90.546C128.084 92.7517 127.231 95.3643 127.177 98.0534C127.105 101.658 128.47 105.145 130.972 107.746C133.475 110.347 136.91 111.851 140.524 111.927V111.921ZM141.01 88.2515C143.009 88.292 144.951 88.923 146.591 90.0646C148.23 91.2062 149.493 92.8072 150.221 94.6651C150.948 96.523 151.107 98.5544 150.677 100.502C150.247 102.45 149.248 104.227 147.805 105.609C146.363 106.99 144.543 107.913 142.574 108.263C140.606 108.612 138.578 108.37 136.746 107.57C134.915 106.769 133.363 105.444 132.287 103.763C131.21 102.083 130.658 100.121 130.699 98.1271C130.753 95.4534 131.871 92.911 133.804 91.0591C135.738 89.2071 138.33 88.1972 141.01 88.2515ZM140.61 107.849C142.498 107.888 144.355 107.367 145.947 106.352C147.538 105.337 148.792 103.875 149.55 102.149C150.309 100.424 150.537 98.5126 150.206 96.6577C149.875 94.8027 149.001 93.0873 147.693 91.7282C146.385 90.3692 144.702 89.4277 142.857 89.0227C141.013 88.6178 139.09 88.7676 137.331 89.4532C135.571 90.1387 134.056 91.3294 132.975 92.8744C131.894 94.4194 131.297 96.2495 131.259 98.1332C131.209 100.658 132.166 103.098 133.92 104.919C135.673 106.74 138.08 107.791 140.61 107.843V107.849Z" fill="#443D78"/>
<path id="Vector_43" d="M69.0469 128.477V165.731" stroke="#443D78" stroke-width="0.879169" stroke-linecap="round" stroke-linejoin="round"/>
<path id="Vector_44" d="M75.0494 142.539H71.8789V163.869H75.0494V142.539Z" fill="#443D78"/>
<path id="Vector_45" d="M79.5806 151.242H76.4102V163.863H79.5806V151.242Z" fill="#A9E8CB"/>
<path id="Vector_46" d="M84.9048 135.641H81.7344V163.867H84.9048V135.641Z" fill="white" stroke="#443D78" stroke-width="0.879169" stroke-linejoin="round"/>
<path id="Vector_47" d="M93.7486 131.57H90.5781V163.862H93.7486V131.57Z" fill="#443D78"/>
<path id="Vector_48" d="M98.2837 155.875H95.1133V163.865H98.2837V155.875Z" fill="#A9E8CB"/>
<path id="Vector_49" d="M103.608 144.797H100.438V163.866H103.608V144.797Z" fill="white" stroke="#443D78" stroke-width="0.879169" stroke-linejoin="round"/>
<path id="Vector_50" d="M116.526 147.711H113.355V163.857H116.526V147.711Z" fill="#443D78"/>
<path id="Vector_51" d="M121.061 135.188H117.891V163.862H121.061V135.188Z" fill="#A9E8CB"/>
<path id="Vector_52" d="M126.389 141.516H123.219V163.858H126.389V141.516Z" fill="white" stroke="#443D78" stroke-width="0.879169" stroke-linejoin="round"/>
<path id="Vector_53" d="M65.6445 158.93H67.4175" stroke="#443D78" stroke-width="0.879169" stroke-linecap="round" stroke-linejoin="round"/>
<path id="Vector_54" d="M65.6445 154.328H67.4175" stroke="#443D78" stroke-width="0.879169" stroke-linecap="round" stroke-linejoin="round"/>
<path id="Vector_55" d="M65.6445 149.734H67.4175" stroke="#443D78" stroke-width="0.879169" stroke-linecap="round" stroke-linejoin="round"/>
<path id="Vector_56" d="M65.6445 145.133H67.4175" stroke="#443D78" stroke-width="0.879169" stroke-linecap="round" stroke-linejoin="round"/>
<path id="Vector_57" d="M65.6445 140.531H67.4175" stroke="#443D78" stroke-width="0.879169" stroke-linecap="round" stroke-linejoin="round"/>
<path id="Vector_58" d="M65.6445 135.938H67.4175" stroke="#443D78" stroke-width="0.879169" stroke-linecap="round" stroke-linejoin="round"/>
<path id="Vector_59" d="M65.6445 131.336H67.4175" stroke="#443D78" stroke-width="0.879169" stroke-linecap="round" stroke-linejoin="round"/>
<path id="Vector_60" d="M66.9492 163.867H128.61" stroke="#443D78" stroke-width="0.879169" stroke-linecap="round" stroke-linejoin="round"/>
<path id="Vector_61" opacity="0.3" d="M79.5806 151.242H76.4102V163.863H79.5806V151.242Z" fill="black"/>
<path id="Vector_62" opacity="0.3" d="M98.2837 155.875H95.1133V163.865H98.2837V155.875Z" fill="black"/>
<path id="Vector_63" opacity="0.3" d="M121.061 135.188H117.891V163.862H121.061V135.188Z" fill="black"/>
<path id="Vector_64" d="M63.1249 123.307C62.0625 123.309 61.0441 123.731 60.2928 124.48C59.5416 125.23 59.1188 126.246 59.1172 127.306V163.854C59.1188 164.914 59.5414 165.931 60.2924 166.681C61.0435 167.432 62.0619 167.855 63.1249 167.858H131.121C132.184 167.855 133.203 167.432 133.955 166.682C134.707 165.931 135.131 164.915 135.134 163.854V127.293C135.133 126.232 134.709 125.214 133.957 124.464C133.205 123.713 132.185 123.291 131.121 123.289L63.1249 123.307Z" stroke="#443D78" stroke-linejoin="round"/>
</g>
<g id="freepik--character-1--inject-15">
<path id="Vector_65" d="M9.32189 205.009C9.32189 205.009 10.744 214.479 7.30264 215.45C3.86131 216.42 1.47268 215.143 1.04175 213.724C0.610811 212.305 3.65815 202.172 3.65815 202.172L9.32189 205.009Z" fill="white"/>
<path id="Vector_66" d="M69.1804 207.103L84.1401 210.641C84.1401 210.641 85.2729 211.255 85.1497 212.268C85.0266 213.282 78.1993 215.88 76.2847 216.205C74.3702 216.531 63.3197 217.968 61.7499 216.623C60.18 215.278 63.4982 204.555 63.4982 204.555L69.1804 207.103Z" fill="white"/>
<path id="Vector_67" d="M42.0898 34.3917C42.0898 34.3917 44.1952 37.5607 44.226 39.1636C44.2568 40.7665 44.0597 42.5967 45.0447 43.5425C46.0297 44.4883 46.787 45.5201 46.3807 45.9991C45.9743 46.4782 45.1925 47.4117 45.1925 47.4117C45.1925 47.4117 46.2083 52.81 44.8908 53.7865C43.5734 54.763 39.615 53.7865 39.615 53.7865V57.2749C39.615 57.2749 33.9881 55.4325 30.1036 55.7764L29.4141 48.3022C29.4141 48.3022 37.8543 32.1132 42.0898 34.3917Z" fill="white"/>
<path id="Vector_68" d="M76.7031 56.4695C76.7031 56.4695 76.1983 52.6372 78.0698 50.328C78.0698 50.328 75.8289 49.9472 76.0998 49.1366C76.3706 48.3259 79.7935 49.3884 79.7935 49.3884L78.8701 47.5459C78.8701 47.5459 75.6381 46.4773 76.0382 45.4762C76.4384 44.4751 81.1787 46.9379 81.1787 46.9379C81.1787 46.9379 78.3653 44.5918 78.7593 43.6153C79.1533 42.6388 82.0159 42.6573 83.5427 47.7179L84.3184 46.7536C84.3184 46.7536 84.5954 40.9929 85.3895 40.6797C85.3895 40.6797 86.6208 41.3553 86.6208 44.6655C86.6208 44.6655 87.852 46.1456 87.0702 47.3985C86.2884 48.6514 84.4476 51.4703 82.884 52.5267C81.3203 53.583 81.3264 57.704 81.3264 57.704L76.7031 56.4695Z" fill="white"/>
<path id="Vector_69" d="M27.1561 24.9721L27.8641 24.0264C27.8641 24.0264 35.7871 20.5011 35.5901 19.4018C35.3931 18.3025 30.9052 19.8194 30.0495 19.236C30.0495 19.236 30.8683 8.83226 30.0495 8.49448C29.2307 8.15669 28.3196 13.377 28.3196 13.377C28.3196 13.377 27.1684 8.02158 26.2819 8.17511C25.3954 8.32865 25.7648 13.7025 25.7648 13.7025C25.7648 13.7025 24.0718 10.2571 23.4131 10.5764C22.7544 10.8958 23.7394 15.0966 23.7394 15.0966C23.7394 15.0966 22.5081 13.6533 22.0156 14.0894C22.1779 16.2593 22.7745 18.3748 23.7702 20.3107L22.0587 23.1973L27.1561 24.9721Z" fill="white"/>
<path id="Vector_70" d="M75.8468 56.4996L81.3073 57.2611C81.3073 57.2611 77.3119 91.0395 76.1361 95.2095C74.9602 99.3796 73.9014 102.377 69.8875 102.579C65.8736 102.782 51.5727 90.7877 51.5727 90.7877L50.9078 107.37L51.8374 114.248C51.8374 114.248 34.3475 123.418 16.5622 115.44L16.9623 107.37L10.5537 70.4592L5.51172 52.9314L21.7827 22.1562L27.6803 25.227L17.2763 53.2384L20.1882 62.592L23.4448 61.29L27.0462 56.7084C27.0462 56.7084 33.1532 53.5455 40.8793 57.9367L42.1106 61.7813C42.1106 61.7813 51.1725 62.463 66.4708 83.6205L75.8468 56.4996Z" fill="#A9E8CB"/>
<path id="Vector_71" opacity="0.2" d="M36.8086 56.5L37.4981 61.229C37.4981 61.229 42.5831 64.5945 44.627 65.7614C44.627 65.7614 49.6259 97.2551 45.926 103.452L42.0291 109.538C42.0291 109.538 46.0122 109.538 47.8467 106.756C47.8467 106.756 45.5628 114.359 39.6405 116.404C39.6405 116.404 48.7332 115.459 51.8606 114.255L50.931 107.376L52.427 69.0225C52.427 69.0225 53.8367 66.4554 42.1153 61.8554L40.3854 57.7099L36.8086 56.5Z" fill="black"/>
<path id="Vector_72" d="M42.092 34.8203C42.092 34.8203 44.0004 37.6086 44.2282 39.1624C44.456 40.7162 43.7788 42.4296 45.047 43.5413C46.3152 44.6529 46.8939 45.3837 46.3829 45.9979C45.8719 46.612 45.1947 47.4104 45.1947 47.4104C45.1947 47.4104 45.7119 52.6737 44.8931 53.7853C44.0743 54.8969 39.6172 53.7853 39.6172 53.7853V57.2737" stroke="#443D78" stroke-linecap="round" stroke-linejoin="round"/>
<path id="Vector_73" d="M39.617 47.1773C39.617 47.1773 37.8317 42.5773 36.4958 43.6889C35.1599 44.8005 36.3481 50.8806 39.617 49.5479" stroke="#443D78" stroke-linecap="round" stroke-linejoin="round"/>
<path id="Vector_74" d="M39.1315 46.1051C39.1315 46.1051 41.2554 45.9331 39.9133 40.9646C38.5712 35.9961 41.477 36.6656 44.5982 35.253C47.7194 33.8405 48.4643 31.2487 47.7933 29.6949C47.1223 28.1411 46.008 27.3182 42.068 28.0613C42.068 28.0613 37.7586 23.0928 33.597 28.5833C33.597 28.5833 24.2272 28.4359 21.7032 32.8824C19.1791 37.3288 22.5219 48.6784 27.4285 52.4615C32.335 56.2447 37.1307 53.2169 38.128 49.661C38.128 49.661 34.7852 47.8615 36.4966 43.7099C36.4966 43.6853 38.0541 43.1326 39.1315 46.1051Z" fill="#443D78"/>
<path id="Vector_75" d="M10.0664 67.6578C10.0664 67.6578 32.7398 51.2539 52.5014 67.6578L50.9069 107.344L51.8365 114.223C51.8365 114.223 35.1285 122.029 16.5612 115.414L16.9614 107.344L10.0664 67.6578Z" stroke="#443D78" stroke-linecap="round" stroke-linejoin="round"/>
<path id="Vector_76" d="M23.1406 61.6937L27.0437 56.7313C27.0437 56.7313 34.6959 54.0905 40.8768 57.9596L42.108 61.8042" stroke="#443D78" stroke-linecap="round" stroke-linejoin="round"/>
<path id="Vector_77" d="M52.5 67.6562L72.2431 90.3061" stroke="#443D78" stroke-linecap="round" stroke-linejoin="round"/>
<path id="Vector_78" d="M51.5898 90.3263C51.5898 90.3263 64.6719 102.468 69.8862 102.609C75.1005 102.751 75.9686 96.4678 75.9686 96.4678L81.306 57.285L75.8454 56.5234L66.451 83.6873" stroke="#443D78" stroke-linecap="round" stroke-linejoin="round"/>
<path id="Vector_79" d="M81.2139 57.162C81.2139 57.162 81.8973 52.734 83.6764 51.7267C85.4556 50.7195 87.5672 46.8135 86.89 45.6897C86.2128 44.5658 84.1443 48.2199 82.279 48.9201C80.4136 49.6202 78.8992 53.0595 78.6406 54.5518" stroke="#443D78" stroke-linecap="round" stroke-linejoin="round"/>
<path id="Vector_80" d="M86.3178 45.5251C86.3178 45.5251 86.3178 40.4093 85.3759 40.6488C84.434 40.8883 84.3047 47.3676 84.3047 47.3676" stroke="#443D78" stroke-linecap="round" stroke-linejoin="round"/>
<path id="Vector_81" d="M83.6144 48.0259C83.6144 48.0259 82.9988 45.1578 81.3058 43.7576C79.6128 42.3573 78.554 43.1127 78.7448 43.5856C78.9356 44.0585 81.8229 47.8847 81.7552 49.1867" stroke="#443D78" stroke-linecap="round" stroke-linejoin="round"/>
<path id="Vector_82" d="M80.6838 46.6106C80.6838 46.6106 76.0358 44.4857 76.0235 45.7569C76.0112 47.0282 78.8554 47.5196 78.8554 47.5196L79.7788 49.362C79.7788 49.362 75.8634 48.1337 76.085 49.1102C76.3067 50.0867 78.055 50.3017 78.055 50.3017C78.055 50.3017 76.1528 52.181 76.6884 56.4432" stroke="#443D78" stroke-linecap="round" stroke-linejoin="round"/>
<path id="Vector_83" d="M49.1455 114.685L50.3337 122.988C50.3337 122.988 61.2733 155.728 62.9355 162.128C64.5977 168.527 65.5519 183.009 66.0136 189.648C66.4753 196.287 70.323 207.458 70.323 207.458C70.323 207.458 69.849 211.966 61.7658 211.254C61.7658 211.254 58.4353 197.97 54.8708 190.139C51.3064 182.309 50.7831 170.431 50.7831 170.431L33.4225 138.643C33.4225 138.643 29.8704 157.153 27.4817 164.026C25.0192 171.113 8.23118 210.437 9.40702 207.679C9.40702 207.679 7.03071 209.104 2.01953 205.542C2.01953 205.542 5.58399 193.683 6.53205 187.277C7.48012 180.872 12.479 166.163 12.479 166.163C12.479 166.163 13.6671 138.409 15.5571 129.866C15.5571 129.866 14.3259 120.458 16.9546 113.812C27.3738 117.207 38.557 117.51 49.1455 114.685Z" fill="#443D78"/>
<path id="Vector_84" d="M23.9141 133.062L31.7079 135.323L32.8406 138.08" stroke="white" stroke-linecap="round" stroke-linejoin="round"/>
<path id="Vector_85" d="M61.9401 210.281C61.9401 210.281 60.8874 215.544 61.7493 216.625C62.2049 217.19 63.5592 217.086 64.2118 217.098C65.7139 217.129 67.2222 217.031 68.7243 216.932C71.7286 216.736 74.8067 216.766 77.7063 215.839C80.149 215.107 82.4825 214.051 84.6444 212.701C85.8264 211.915 84.6444 210.643 84.6444 210.643L70.3311 207.438" stroke="#443D78" stroke-linecap="round" stroke-linejoin="round"/>
<path id="Vector_86" d="M61.8672 214.768C61.8672 214.768 77.9534 217.402 84.6453 210.641" stroke="#443D78" stroke-linecap="round" stroke-linejoin="round"/>
<path id="Vector_87" d="M2.64219 205.008C2.64219 205.008 0.795316 211.327 1.06619 213.317C1.33707 215.307 3.33784 215.774 5.67721 215.719C8.01659 215.663 8.97696 214.619 9.32171 213.041C9.66646 211.463 9.32171 206.359 9.32171 206.359" stroke="#443D78" stroke-linecap="round" stroke-linejoin="round"/>
<path id="Vector_88" d="M1.04297 212.359L9.32311 213.047" stroke="#443D78" stroke-linecap="round" stroke-linejoin="round"/>
<path id="Vector_89" d="M22.658 22.3504C23.3598 21.073 23.7723 20.293 23.7723 20.293C23.7723 20.293 21.4883 14.7841 22.0608 14.1085C22.6334 13.4329 23.957 15.3368 23.957 15.3368C23.957 15.3368 22.6026 10.9579 23.4583 10.5833C24.314 10.2086 25.8408 14.2682 25.8408 14.2682C25.8408 14.2682 25.4406 8.40304 26.3271 8.12668C27.2136 7.85031 28.2787 13.7032 28.2787 13.7032C28.2787 13.7032 29.4237 8.49516 30.1255 8.44603C30.8273 8.3969 30.1255 19.1875 30.1255 19.1875C31.5415 19.8815 35.7031 18.1865 35.6661 19.556C35.6292 20.9256 27.663 24.0762 27.663 24.0762C27.5237 24.2565 27.402 24.4499 27.2998 24.6535" stroke="#443D78" stroke-linecap="round" stroke-linejoin="round"/>
<path id="Vector_90" d="M10.0673 67.6559L5.51172 52.9286L21.7827 22.1719L27.6803 25.2488L17.2763 53.2602L20.1882 62.6137" stroke="#443D78" stroke-linecap="round" stroke-linejoin="round"/>
<path id="Vector_91" d="M10.5958 50.6016C10.5958 50.6016 16.432 50.5525 17.2754 53.2609C14.7188 53.1192 12.1863 53.8182 10.0664 55.2507" stroke="#443D78" stroke-linecap="round" stroke-linejoin="round"/>
<path id="Vector_92" d="M29.8789 56.0887V51.8203" stroke="#443D78" stroke-linecap="round" stroke-linejoin="round"/>
<path id="Vector_93" opacity="0.2" d="M52.4037 79.5312L53.8627 89.2164C53.8627 89.2164 55.057 82.8968 55.8019 82.8968C56.5468 82.8968 55.8019 90.3035 55.8019 90.3035C55.8019 90.3035 68.0405 101.358 73.3349 101.42C73.3349 101.42 70.3922 103.483 67.4433 101.948C64.4945 100.412 51.5664 90.2789 51.5664 90.2789L52.4037 79.5312Z" fill="black"/>
<path id="Vector_94" opacity="0.2" d="M26.6328 24.7031L15.4408 51.824C15.4408 51.824 11.5439 51.7626 10.0664 55.251L16.0503 54.1824L18.0634 63.3946L20.1873 62.5901L17.2754 53.2366L27.6794 25.2252L26.6328 24.7031Z" fill="black"/>
</g>
<g id="freepik--character-2--inject-15">
<path id="Vector_95" d="M180.872 72.3904L176.464 63L159.141 74.4171L173.435 99.6832L184.584 93.3698L180.872 72.3904Z" fill="white"/>
<path id="Vector_96" d="M195.15 153.618C195.15 153.618 197.951 161.375 198.363 165.152C198.776 168.929 197.514 184.835 197.785 189.22C198.055 193.605 200.432 206.693 200.432 206.693C200.432 206.693 188.778 215.143 185.078 212.423C185.078 212.423 193.291 205.79 194.122 203.149L191.462 185.222L188.821 164.022C188.821 164.022 188.15 159.593 187.214 157.315C186.279 155.036 186.42 150.203 186.42 150.203L195.15 153.618Z" fill="white"/>
<path id="Vector_97" d="M194.902 152.925C194.902 152.925 197.931 161.093 198.638 166.958C199.346 172.824 197.216 186.126 197.918 192.532C198.62 198.937 199.34 202.481 200.584 205.853L199.968 215.747H198.374L197.758 210.133C197.758 210.133 195.259 209.095 193.744 212.688C192.23 216.281 186.634 216.754 183.98 214.672C183.98 214.672 183.98 213.063 185.975 211.644C187.97 210.225 193.178 205.791 194.126 203.144C194.126 203.144 191.282 184.72 190.617 178.75C189.952 172.781 188.912 161.929 187.582 158.428C186.252 154.927 186.258 149.922 186.258 149.922" stroke="#443D78" stroke-linecap="round" stroke-linejoin="round"/>
<path id="Vector_98" d="M199.974 204C199.974 204 192.162 212.475 185.605 212.42" stroke="#443D78" stroke-linecap="round" stroke-linejoin="round"/>
<path id="Vector_99" d="M185.079 212.42C186.163 212.54 187.259 212.404 188.28 212.021C190.047 211.407 196.406 208.336 199.534 204.461L200.494 205.548L199.989 215.522L198.382 215.749L197.767 210.136C197.767 210.136 195.711 209.196 194.387 211.505C193.063 213.814 192.109 215.399 189.794 215.909C187.48 216.418 183.989 214.68 183.989 214.68C183.989 214.68 183.38 213.765 185.079 212.42Z" fill="#443D78"/>
<path id="Vector_100" d="M200.598 153.883C201.332 156.575 202.224 159.223 203.269 161.811C204.667 165.011 216.739 197.371 216.739 197.371C216.739 197.371 217.657 214.886 222.797 214.831C227.938 214.776 222.594 202.591 222.594 202.591L219.467 195.915C219.467 195.915 218.272 176.305 216.795 169.095L210.503 152.188L200.598 153.883Z" fill="white"/>
<path id="Vector_101" d="M210.568 152.753C210.568 152.753 215.733 164.477 216.798 169.095C217.863 173.714 218.935 194.491 219.47 195.915C220.006 197.34 228.551 212.43 223.385 215.452C218.22 218.473 217.001 198.046 217.001 198.046C217.001 198.046 205.077 165.005 203.292 161.812C201.506 158.618 199.555 149.375 199.555 149.375L210.568 152.753Z" stroke="#443D78" stroke-linecap="round" stroke-linejoin="round"/>
<path id="Vector_102" d="M224.39 207.703C224.39 207.703 224.033 211.793 222.678 212.371C221.324 212.948 218.332 208.336 218.332 208.336" stroke="#443D78" stroke-linecap="round" stroke-linejoin="round"/>
<path id="Vector_103" d="M218.344 209.042C218.344 209.042 220.191 216.018 222.653 215.724C225.116 215.429 225.559 211.553 224.395 208.562C224.395 208.562 223.983 211.633 222.684 212.37C221.373 212.389 218.344 209.042 218.344 209.042Z" fill="#443D78"/>
<path id="Vector_104" d="M196.547 91.7656C196.547 91.7656 202.771 100.241 207.087 113.875C211.402 127.509 210.959 153.623 210.959 153.623C210.959 153.623 194.897 158.776 179.328 152.229L182.178 93.3931C182.178 93.3931 192.195 93.5774 196.547 91.7656Z" fill="#443D78"/>
<path id="Vector_105" d="M188.505 30.2969C188.505 30.2969 183.666 34.817 183.1 37.7772C182.633 39.8492 181.883 41.8474 180.871 43.7161C181.391 44.5018 182.154 45.0969 183.044 45.4111C183.044 45.4111 183.358 51.4728 185.125 51.9396L189.348 50.8341L189.798 53.432L195.855 51.135V47.6344L200.473 44.625L198.829 36.7577L191.318 33.2571L188.505 30.2969Z" fill="white"/>
<path id="Vector_106" d="M182.147 92.9165L181.611 84.4167C181.611 84.4167 177.671 77.0468 178.921 74.3692C180.3 71.4274 188.586 60.5323 188.586 60.5323L187.773 54.5873L199.384 49.625L199.938 54.5873L198.534 55.6253L200.092 58.9539C200.092 58.9539 200.19 57.9652 202.887 62.9828C205.583 68.0004 215.741 85.8538 216.541 89.2807C217.342 92.7077 200.745 104.782 195.142 107.632C195.142 107.632 194.496 106.25 187.841 111.316C186.148 111.022 183.809 109.505 183.31 108.565C182.811 107.625 185.225 105.39 185.225 105.39C185.225 105.39 186.678 102.651 189.245 104.843H191.978L207.621 90.3187L199.692 78.7419L196.546 91.7435C196.546 91.7435 186.37 94.8265 182.147 92.9165Z" fill="white"/>
<path id="Vector_107" d="M187.773 54.5873L188.605 60.6613L199.938 54.5873L199.384 49.625L187.773 54.5873Z" stroke="#443D78" stroke-linecap="round" stroke-linejoin="round"/>
<path id="Vector_108" d="M188.603 60.6641C188.603 60.6641 178.291 73.248 178.568 75.7292C178.845 78.2104 181.609 84.4194 181.609 84.4194L182.176 93.386C182.176 93.386 190.517 93.6133 196.544 91.7647L199.69 78.7631" stroke="#443D78" stroke-linecap="round" stroke-linejoin="round"/>
<path id="Vector_109" d="M207.623 90.3175L191.647 66.2919C191.647 66.2919 190.078 60.7645 193.858 58.7931C197.637 56.8217 200.925 59.3213 202.101 60.6356C203.277 61.9499 215.958 86.3255 216.549 89.255C217.14 92.1845 203.744 103.903 195.994 107.065C195.994 107.065 192.466 109.178 192.466 104.842L207.623 90.3175Z" stroke="#443D78" stroke-linecap="round" stroke-linejoin="round"/>
<path id="Vector_110" d="M199.938 58.9527L198.441 55.3906" stroke="#443D78" stroke-linecap="round" stroke-linejoin="round"/>
<path id="Vector_111" d="M192.464 104.869H189.25C189.25 104.869 186.745 102.633 185.557 104.869C184.369 107.104 182.866 107.546 183.316 108.59C183.765 109.634 186.339 111.716 187.847 111.342C189.355 110.967 193.609 107.516 193.609 107.516" stroke="#443D78" stroke-linecap="round" stroke-linejoin="round"/>
<path id="Vector_112" d="M187.347 31.8906C187.347 31.8906 183.574 35.1825 183.155 37.0065C182.736 38.8305 182.915 41.9197 180.871 43.7192C180.871 43.7192 180.976 45.1931 183.044 45.4142C183.044 45.4142 184.103 51.2302 185.125 51.9427C186.147 52.6551 192.402 49.4369 194.852 48.1104C195.477 47.6828 195.932 47.0505 196.139 46.3232" stroke="#443D78" stroke-linecap="round" stroke-linejoin="round"/>
<path id="Vector_113" d="M184.418 47.1867C185.575 46.992 186.619 46.3773 187.348 45.4609" stroke="#443D78" stroke-linecap="round" stroke-linejoin="round"/>
<path id="Vector_114" d="M184.418 38.7743C184.418 38.7743 185.908 37.9083 186.727 39.3454" stroke="#443D78" stroke-linecap="round" stroke-linejoin="round"/>
<path id="Vector_115" d="M185.439 41.8629C185.439 42.3604 185.298 42.7657 185.07 42.778C184.842 42.7903 184.633 42.3972 184.608 41.9059C184.583 41.4146 184.75 40.9969 184.977 40.9847C185.205 40.9724 185.415 41.3654 185.439 41.8629Z" fill="#443D78"/>
<path id="Vector_116" d="M189.348 50.8359L189.847 53.704" stroke="#443D78" stroke-linecap="round" stroke-linejoin="round"/>
<path id="Vector_117" d="M194.187 41.4836C194.187 41.4836 195.111 39.6964 196.139 40.7404C197.167 41.7845 199.118 46.6117 193.855 45.4633C193.855 45.4633 193.504 48.4112 196.139 49.1482C198.774 49.8852 203.779 45.8195 203.945 38.8857C204.111 31.9519 197.401 27.2721 193.855 28.611C193.855 28.611 188.714 20.5717 183.617 23.9987C178.52 27.4256 181.955 32.7012 180.871 33.8927C179.788 35.0841 177.473 33.9664 177.399 37.1661C177.325 40.3658 182.687 40.0403 182.687 40.0403L183.334 36.5151L187.772 31.8905C187.772 31.8905 186.726 35.2315 188.505 38.1364C190.112 40.7527 194.187 41.4836 194.187 41.4836Z" fill="#443D78"/>
<path id="Vector_118" d="M203.947 38.8868C203.947 38.8868 206.41 39.4395 206.139 42.7621C205.868 46.0846 200.309 54.2528 200.727 58.9572L215.078 85.636C215.078 85.636 221.535 84.4077 221.234 77.7748C220.932 71.142 213.052 65.5532 214.573 60.6646C216.093 55.7759 222.065 43.3271 213.606 36.1907C205.148 29.0542 191.961 39.9922 191.961 39.9922L198.419 37.9164L203.947 38.8868Z" fill="#443D78"/>
<path id="Vector_119" d="M180.318 71.8438L176.464 63L159.141 74.4171L173.435 99.6832L182.103 94.9236" stroke="#443D78" stroke-linecap="round" stroke-linejoin="round"/>
<path id="Vector_120" d="M164.532 86.9183C164.532 86.9183 163.596 84.9899 164.846 83.9274C166.095 82.8649 170.386 79.7143 170.386 80.4882C170.415 80.676 170.403 80.8678 170.352 81.0508C170.301 81.2339 170.212 81.4042 170.091 81.5506C168.86 83.1966 165.911 85.8497 166.102 86.0647C166.102 86.0647 171.482 82.5026 171.999 82.8404C172.129 82.9263 172.055 83.387 171.605 83.8353C170.131 85.1445 168.574 86.3589 166.945 87.4711C166.945 87.4711 172.621 85.2785 173.354 85.6286C173.563 85.7269 173.52 86.0462 172.861 86.4454C171.213 87.3391 169.518 88.1428 167.782 88.8529L169.204 91.2235C169.204 91.2235 166.52 91.6903 164.532 86.9183Z" fill="white" stroke="#443D78" stroke-linecap="round" stroke-linejoin="round"/>
<path id="Vector_121" d="M195.461 47.1875L195.855 51.1365" stroke="#443D78" stroke-linejoin="round"/>
</g>
</g>
</svg>
