<svg width="257" height="235" viewBox="0 0 257 235" fill="none" xmlns="http://www.w3.org/2000/svg">
<g id="Group 6536">
<g id="freepik--background-simple--inject-160">
<path id="Vector" d="M239.274 103.462C237.371 80.7389 229.684 58.8783 216.943 39.955C196.531 9.81937 163.216 -6.45853 126.974 2.41309C92.7032 10.8073 84.0044 47.8586 55.4512 64.2757C33.5383 76.8737 0.336884 97.4283 5.64911 133.896C7.38222 145.785 15.2642 154.451 26.0746 159.337C40.8559 166.001 61.5271 163.316 74.708 173.016C89.9807 184.288 102.597 200.201 135.799 212.136C162.061 221.578 191.677 210.279 211.498 192.41C235.947 170.417 242.043 134.95 239.274 103.462Z" fill="#A9E8CB"/>
<path id="Vector_2" opacity="0.7" d="M239.274 103.462C237.371 80.7389 229.684 58.8783 216.943 39.955C196.531 9.81937 163.216 -6.45853 126.974 2.41309C92.7032 10.8073 84.0044 47.8586 55.4512 64.2757C33.5383 76.8737 0.336884 97.4283 5.64911 133.896C7.38222 145.785 15.2642 154.451 26.0746 159.337C40.8559 166.001 61.5271 163.316 74.708 173.016C89.9807 184.288 102.597 200.201 135.799 212.136C162.061 221.578 191.677 210.279 211.498 192.41C235.947 170.417 242.043 134.95 239.274 103.462Z" fill="white"/>
</g>
<g id="freepik--Shadow--inject-160">
<path id="Vector_3" d="M248.975 223.093L244.459 218.637C248.218 213.2 246.598 209.195 243.37 205.509C241.425 203.288 236.338 203.626 230.09 204.428L195.56 170.367L190.248 172.356C190.248 172.356 204.618 189.828 218.078 205.893C212.486 206.391 206.862 206.397 202.201 204.846C188.256 200.204 176.968 190.259 176.968 190.259C161.031 191.585 184.936 217.444 194.232 224.737C212.825 239.324 222.706 236.672 235.907 226.846C238.277 229.551 239.99 231.414 240.714 232.031L240.854 232.15C246.803 237.083 254.473 228.523 248.975 223.093Z" fill="#A9E8CB"/>
<path id="Vector_4" opacity="0.5" d="M248.975 223.093L244.459 218.637C248.218 213.2 246.598 209.195 243.37 205.509C241.425 203.288 236.338 203.626 230.09 204.428L195.56 170.367L190.248 172.356C190.248 172.356 204.618 189.828 218.078 205.893C212.487 206.391 206.862 206.397 202.201 204.846C188.256 200.204 176.968 190.259 176.968 190.259C161.031 191.585 184.431 218.14 194.232 224.737C216.145 239.47 222.706 236.672 235.907 226.846C238.277 229.551 239.991 231.414 240.714 232.031L240.854 232.15C246.803 237.083 254.473 228.523 248.975 223.093Z" fill="white"/>
</g>
<g id="freepik--Plants--inject-160">
<path id="Vector_5" d="M37.9932 102.938C37.9932 102.938 55.4572 123.094 55.5501 148.065C55.6431 173.035 38.3385 193.358 38.3385 193.358C38.3385 193.358 20.8746 173.201 20.7816 148.237C20.6887 123.273 37.9932 102.938 37.9932 102.938Z" fill="#A9E8CB"/>
<path id="Vector_6" d="M76.3699 160.055C76.3699 160.055 76.4761 176.465 67.6512 186.895C58.8263 197.325 44.4102 197.829 44.4102 197.829C44.4102 197.829 44.2973 181.418 53.1289 170.988C61.9605 160.559 76.3699 160.055 76.3699 160.055Z" fill="#A9E8CB"/>
<path id="Vector_7" d="M0.515945 158.531C0.515945 158.531 -0.214485 174.922 8.21203 185.769C16.6385 196.617 31.028 197.824 31.028 197.824C31.028 197.824 31.7518 181.433 23.3253 170.586C14.8988 159.738 0.515945 158.531 0.515945 158.531Z" fill="#A9E8CB"/>
<g id="Group" opacity="0.5">
<path id="Vector_8" d="M37.9932 102.938C37.9932 102.938 55.4572 123.094 55.5501 148.065C55.6431 173.035 38.3385 193.358 38.3385 193.358C38.3385 193.358 20.8746 173.201 20.7816 148.237C20.6887 123.273 37.9932 102.938 37.9932 102.938Z" fill="white"/>
<path id="Vector_9" d="M76.3699 160.055C76.3699 160.055 76.4761 176.465 67.6512 186.895C58.8263 197.325 44.4102 197.829 44.4102 197.829C44.4102 197.829 44.2973 181.418 53.1289 170.988C61.9605 160.559 76.3699 160.055 76.3699 160.055Z" fill="white"/>
<path id="Vector_10" d="M0.515945 158.531C0.515945 158.531 -0.214485 174.922 8.21203 185.769C16.6385 196.617 31.028 197.824 31.028 197.824C31.028 197.824 31.7518 181.433 23.3253 170.586C14.8988 159.738 0.515945 158.531 0.515945 158.531Z" fill="white"/>
</g>
<path id="Vector_11" d="M27.276 170.29C27.3069 170.233 27.3512 170.183 27.4051 170.146C27.4589 170.109 27.5209 170.085 27.5858 170.077C27.6508 170.068 27.7168 170.075 27.7784 170.098C27.84 170.12 27.8954 170.156 27.94 170.204L37.1169 178.393C37.188 178.448 37.2738 178.481 37.3636 178.488C37.4535 178.495 37.5433 178.475 37.622 178.431C37.7007 178.387 37.7646 178.321 37.8059 178.241C37.8472 178.161 37.8639 178.071 37.854 177.982L37.7544 159.091C37.7535 158.949 37.699 158.811 37.6017 158.707L23.8231 144.842C23.7308 144.745 23.6761 144.619 23.6688 144.485C23.6615 144.351 23.7021 144.219 23.7832 144.113C23.8186 144.059 23.8659 144.014 23.9215 143.982C23.9771 143.949 24.0395 143.93 24.1037 143.926C24.168 143.921 24.2324 143.931 24.292 143.956C24.3516 143.98 24.4047 144.018 24.4473 144.067L37.0173 156.718C37.0841 156.782 37.1695 156.825 37.2617 156.839C37.3538 156.852 37.448 156.837 37.5309 156.795C37.6138 156.752 37.6813 156.685 37.7237 156.602C37.7662 156.519 37.7816 156.425 37.7677 156.333L37.688 135.546C37.6898 135.403 37.6349 135.265 37.5353 135.162L28.3916 126.184C28.2983 126.088 28.2424 125.962 28.2339 125.828C28.2254 125.694 28.2648 125.562 28.3451 125.455C28.3799 125.4 28.4268 125.355 28.4821 125.322C28.5374 125.289 28.5997 125.269 28.6639 125.264C28.7282 125.259 28.7928 125.268 28.8527 125.292C28.9126 125.316 28.9661 125.354 29.0091 125.402L36.9044 133.232C37.1966 133.524 37.6548 133.285 37.6548 132.841L37.522 103.455C37.5146 103.327 37.5578 103.201 37.6422 103.104C37.7266 103.008 37.8455 102.948 37.9735 102.938C38.0372 102.941 38.0996 102.957 38.1571 102.984C38.2146 103.012 38.2662 103.05 38.3087 103.098C38.3513 103.145 38.3841 103.201 38.4052 103.261C38.4263 103.321 38.4353 103.384 38.4317 103.448L38.5977 146.957C38.5863 147.059 38.6097 147.161 38.6639 147.247C38.7182 147.334 38.8002 147.399 38.8965 147.433C38.9928 147.467 39.0978 147.467 39.1943 147.434C39.2907 147.4 39.373 147.335 39.4277 147.249L49.6538 130.229C49.6832 130.175 49.724 130.129 49.7731 130.092C49.8223 130.056 49.8788 130.03 49.9387 130.018C49.9986 130.005 50.0605 130.006 50.1202 130.019C50.1799 130.033 50.236 130.059 50.2846 130.096C50.3858 130.182 50.4533 130.301 50.4752 130.432C50.4971 130.563 50.4719 130.698 50.4041 130.812L38.684 150.312L38.611 150.253L38.6774 168.082C38.6659 168.174 38.6831 168.268 38.7267 168.349C38.7702 168.431 38.838 168.498 38.9207 168.54C39.0035 168.582 39.0972 168.597 39.1891 168.584C39.281 168.571 39.3667 168.53 39.4344 168.467L51.9048 155.71C51.9461 155.66 51.9986 155.62 52.0581 155.594C52.1175 155.569 52.1822 155.557 52.247 155.561C52.3117 155.565 52.3746 155.584 52.4305 155.617C52.4864 155.65 52.5338 155.695 52.5689 155.749C52.65 155.856 52.6906 155.988 52.6833 156.121C52.676 156.255 52.6213 156.382 52.529 156.479L38.7106 170.622L38.7969 192.847C38.8014 192.911 38.7933 192.975 38.773 193.035C38.7528 193.096 38.7207 193.151 38.6788 193.199C38.6368 193.248 38.5858 193.287 38.5285 193.315C38.4713 193.343 38.4091 193.36 38.3454 193.364C38.2814 193.362 38.2186 193.347 38.1606 193.319C38.1027 193.292 38.0508 193.254 38.0081 193.206C37.9653 193.158 37.9326 193.103 37.9118 193.042C37.8911 192.982 37.8827 192.918 37.8872 192.854L37.8407 180.627C37.8417 180.551 37.8269 180.476 37.7972 180.407C37.7674 180.337 37.7235 180.274 37.6681 180.223L27.3557 171.026C27.2557 170.934 27.1925 170.808 27.1779 170.673C27.1632 170.538 27.1981 170.402 27.276 170.29Z" fill="white"/>
<path id="Vector_12" d="M0.999239 159.619C1.04176 159.57 1.09488 159.532 1.15447 159.508C1.21406 159.483 1.2785 159.473 1.34277 159.478C1.40704 159.482 1.4694 159.501 1.52499 159.534C1.58059 159.566 1.62791 159.611 1.66327 159.665L15.5149 177.262C15.8071 177.64 16.3582 177.362 16.2984 176.858L15.163 166.594C15.1395 166.466 15.1674 166.333 15.2407 166.225C15.314 166.118 15.4267 166.043 15.5547 166.017C15.6174 166.012 15.6805 166.019 15.7403 166.039C15.8 166.058 15.8551 166.09 15.9023 166.131C15.9495 166.173 15.9877 166.224 16.0147 166.28C16.0417 166.337 16.0569 166.399 16.0594 166.461L17.5468 179.835L22.9122 186.711C22.9704 186.782 23.0495 186.834 23.1384 186.859C23.2274 186.883 23.3218 186.88 23.4087 186.849C23.4955 186.817 23.5704 186.76 23.6231 186.684C23.6757 186.608 23.7034 186.518 23.7024 186.426L24.6785 176.613C24.681 176.549 24.6962 176.487 24.723 176.43C24.7498 176.372 24.7879 176.321 24.8348 176.278C24.8818 176.236 24.9368 176.203 24.9966 176.182C25.0564 176.161 25.1198 176.152 25.1831 176.155C25.311 176.179 25.4243 176.253 25.4987 176.359C25.5732 176.466 25.6029 176.597 25.5816 176.725L24.4195 188.369C24.4036 188.513 24.444 188.658 24.5324 188.773L31.7637 197.969C31.8444 198.076 31.8854 198.207 31.8793 198.34C31.8732 198.473 31.8206 198.6 31.7305 198.699C31.6884 198.748 31.6357 198.786 31.5764 198.811C31.5171 198.836 31.4528 198.847 31.3886 198.843C31.3243 198.839 31.2618 198.821 31.206 198.789C31.1501 198.757 31.1023 198.712 31.0664 198.659L27.1619 193.693C27.1198 193.637 27.0644 193.591 27.0008 193.561C26.9371 193.531 26.8671 193.517 26.7967 193.52L19.592 194.018C19.5284 194.018 19.4653 194.005 19.4065 193.981C19.3477 193.957 19.2943 193.921 19.2493 193.876C19.2042 193.831 19.1685 193.778 19.1442 193.719C19.1198 193.66 19.1073 193.597 19.1073 193.534C19.094 193.404 19.1315 193.274 19.212 193.172C19.2925 193.069 19.4096 193.002 19.5389 192.983L25.3093 192.586C25.3995 192.568 25.4837 192.528 25.5536 192.468C25.6235 192.409 25.6767 192.332 25.7082 192.246C25.7396 192.16 25.7482 192.067 25.7329 191.977C25.7177 191.886 25.6793 191.801 25.6214 191.73L19.8377 184.377C19.7975 184.326 19.7461 184.284 19.6875 184.255C19.6288 184.226 19.5644 184.211 19.4991 184.211H9.19334C9.06532 184.201 8.94639 184.141 8.86199 184.045C8.7776 183.948 8.73446 183.822 8.74181 183.694C8.7373 183.63 8.74541 183.567 8.76569 183.506C8.78596 183.446 8.81799 183.39 8.85995 183.342C8.90191 183.294 8.95296 183.254 9.01017 183.226C9.06739 183.198 9.12963 183.181 9.19334 183.177H17.8788C17.9788 183.173 18.0758 183.142 18.1586 183.086C18.2414 183.03 18.3067 182.952 18.3469 182.86C18.3871 182.769 18.4007 182.668 18.386 182.569C18.3714 182.47 18.329 182.377 18.264 182.302L11.8893 174.192C11.8491 174.139 11.797 174.096 11.737 174.066C11.6771 174.036 11.611 174.02 11.544 174.02L4.90372 174.113C4.84004 174.11 4.77764 174.094 4.72012 174.066C4.6626 174.039 4.61108 174 4.56852 173.953C4.52595 173.905 4.49318 173.85 4.47208 173.79C4.45098 173.73 4.44196 173.666 4.44554 173.602C4.44009 173.539 4.4473 173.475 4.46674 173.414C4.48618 173.353 4.51748 173.297 4.55883 173.248C4.60018 173.199 4.65077 173.159 4.70768 173.13C4.7646 173.101 4.82671 173.084 4.89044 173.079L9.93706 173.012C10.0301 172.998 10.1178 172.96 10.1912 172.902C10.2646 172.843 10.3211 172.766 10.3549 172.678C10.3886 172.59 10.3985 172.495 10.3834 172.403C10.3683 172.31 10.3289 172.223 10.2691 172.15L0.999239 160.348C0.913908 160.246 0.867188 160.117 0.867188 159.983C0.867188 159.85 0.913908 159.721 0.999239 159.619Z" fill="white"/>
<path id="Vector_13" d="M47.9955 183.151C48.0584 183.146 48.1214 183.154 48.1812 183.174C48.2409 183.194 48.2961 183.225 48.3436 183.267C48.3912 183.308 48.43 183.358 48.458 183.415C48.486 183.471 48.5026 183.532 48.5068 183.595L49.2838 190.113C49.2846 190.202 49.3125 190.29 49.364 190.363C49.4154 190.437 49.488 190.493 49.572 190.525C49.6561 190.556 49.7478 190.562 49.835 190.54C49.9222 190.519 50.0009 190.471 50.0607 190.404L56.0701 183.303C56.1598 183.191 56.2027 183.048 56.1896 182.905L55.4526 171.209C55.4355 171.081 55.4699 170.951 55.5483 170.848C55.6266 170.745 55.7426 170.677 55.8709 170.659C55.9339 170.657 55.9967 170.668 56.0554 170.691C56.1142 170.714 56.1677 170.748 56.2129 170.792C56.2581 170.836 56.294 170.888 56.3185 170.946C56.3431 171.004 56.3557 171.067 56.3557 171.13L57.0197 180.989C57.017 181.081 57.0426 181.171 57.0928 181.248C57.1431 181.325 57.2157 181.385 57.3009 181.42C57.3861 181.454 57.4799 181.462 57.5696 181.442C57.6594 181.422 57.7409 181.375 57.8032 181.307L64.4435 173.463C64.5331 173.348 64.578 173.205 64.5697 173.059L63.992 165.553C63.9762 165.425 64.01 165.295 64.0864 165.19C64.1628 165.086 64.2762 165.014 64.4037 164.99C64.467 164.988 64.5301 164.999 64.5892 165.022C64.6483 165.044 64.7023 165.079 64.748 165.122C64.7937 165.166 64.8303 165.219 64.8555 165.277C64.8808 165.335 64.8942 165.397 64.8951 165.46L65.3333 171.176C65.33 171.267 65.3549 171.358 65.4048 171.434C65.4547 171.511 65.5271 171.57 65.6121 171.604C65.6971 171.639 65.7905 171.646 65.8797 171.625C65.9688 171.604 66.0493 171.556 66.1102 171.488L75.7718 160.07C75.8109 160.019 75.8611 159.978 75.9187 159.949C75.9763 159.921 76.0396 159.906 76.1038 159.906C76.1681 159.906 76.2314 159.921 76.289 159.949C76.3465 159.978 76.3968 160.019 76.4359 160.07C76.5212 160.172 76.5679 160.301 76.5679 160.435C76.5679 160.568 76.5212 160.697 76.4359 160.799L62.0397 177.82C61.7276 178.184 62.0397 178.781 62.4514 178.682L71.3693 176.62C71.4311 176.609 71.4943 176.612 71.555 176.627C71.6158 176.642 71.6728 176.669 71.7226 176.707C71.7724 176.745 71.8138 176.793 71.8444 176.847C71.875 176.902 71.8941 176.962 71.9006 177.024C71.9298 177.151 71.9098 177.285 71.8446 177.398C71.7793 177.511 71.6736 177.596 71.5486 177.634L59.8816 180.313L54.2573 186.943C54.1943 187.014 54.1515 187.101 54.1335 187.194C54.1154 187.287 54.1227 187.384 54.1545 187.473C54.1864 187.562 54.2417 187.642 54.3147 187.702C54.3877 187.763 54.4756 187.803 54.5694 187.819L63.2416 188.196C63.3054 188.202 63.3674 188.221 63.424 188.25C63.4806 188.28 63.5307 188.321 63.5715 188.37C63.6122 188.42 63.6428 188.477 63.6614 188.538C63.68 188.599 63.6863 188.663 63.6799 188.727C63.6826 188.79 63.6724 188.854 63.6499 188.913C63.6274 188.973 63.5931 189.027 63.549 189.073C63.505 189.119 63.4521 189.155 63.3936 189.18C63.335 189.205 63.272 189.218 63.2084 189.218L52.916 188.773C52.85 188.771 52.7845 188.785 52.7245 188.812C52.6646 188.84 52.6119 188.881 52.5707 188.932L45.0539 197.817C45.0148 197.868 44.9646 197.909 44.907 197.938C44.8494 197.966 44.7861 197.981 44.7219 197.981C44.6577 197.981 44.5943 197.966 44.5368 197.938C44.4792 197.909 44.4289 197.868 44.3899 197.817C44.3045 197.715 44.2578 197.586 44.2578 197.453C44.2578 197.319 44.3045 197.19 44.3899 197.088L48.4537 192.287C48.5012 192.228 48.5362 192.16 48.5568 192.087C48.5773 192.015 48.5829 191.938 48.5732 191.863L47.6038 183.721C47.5855 183.594 47.6157 183.465 47.6882 183.359C47.7608 183.254 47.8705 183.179 47.9955 183.151Z" fill="white"/>
</g>
<g id="freepik--Checklist--inject-160">
<path id="Vector_14" d="M213.623 169.319L114.982 197.042C113.917 197.303 112.796 197.219 111.783 196.802C110.769 196.385 109.915 195.656 109.344 194.721L34.5412 60.294C34.2876 59.8946 34.1347 59.4396 34.0958 58.9682C34.0569 58.4968 34.1331 58.023 34.3179 57.5875C34.5027 57.152 34.7906 56.7677 35.1568 56.4677C35.523 56.1676 35.9566 55.9608 36.4204 55.8649L135.062 28.1427C136.125 27.88 137.244 27.9627 138.257 28.3789C139.27 28.7951 140.123 29.523 140.693 30.4568L215.482 164.884C215.736 165.282 215.889 165.736 215.929 166.207C215.969 166.677 215.895 167.15 215.712 167.586C215.529 168.022 215.244 168.407 214.88 168.709C214.517 169.01 214.085 169.22 213.623 169.319Z" fill="#443D78" stroke="black" stroke-width="0.664242" stroke-miterlimit="10"/>
<path id="Vector_15" d="M113.594 191.151C113.594 191.151 170.594 177.611 208.961 164.344L113.594 191.151Z" fill="#884849"/>
<path id="Vector_16" d="M208.963 164.34L113.595 191.147L39.8281 58.5896L135.196 31.7891L208.963 164.34Z" fill="white" stroke="#443D78" stroke-width="0.664242" stroke-miterlimit="10"/>
<path id="Vector_17" d="M106.945 59.8632L114.349 57.7812" stroke="#443D78" stroke-width="0.664242" stroke-miterlimit="10"/>
<path id="Vector_18" d="M55.5898 74.3L101.215 61.4766" stroke="#443D78" stroke-width="0.664242" stroke-miterlimit="10"/>
<path id="Vector_19" d="M98.8242 68.1015L117.218 62.9297" stroke="#443D78" stroke-width="0.664242" stroke-miterlimit="10"/>
<path id="Vector_20" d="M70.6367 76.019L93.8047 69.5078" stroke="#443D78" stroke-width="0.664242" stroke-miterlimit="10"/>
<path id="Vector_21" d="M58.4531 79.4412L66.3351 77.2266" stroke="#443D78" stroke-width="0.664242" stroke-miterlimit="10"/>
<path id="Vector_22" d="M84.25 78.1499L120.088 68.0781" stroke="#443D78" stroke-width="0.664242" stroke-miterlimit="10"/>
<path id="Vector_23" d="M61.3203 84.5974L76.3672 80.3672" stroke="#443D78" stroke-width="0.664242" stroke-miterlimit="10"/>
<path id="Vector_24" d="M140.154 55.9881C139.21 54.4484 137.802 53.2476 136.131 52.5589C134.46 51.8701 132.613 51.7289 130.857 52.1557C127.424 53.1237 126.036 56.3992 127.749 59.4824C128.69 61.0243 130.099 62.2269 131.77 62.916C133.442 63.6051 135.29 63.7448 137.046 63.3148C140.446 62.3534 141.867 59.0713 140.154 55.9881Z" fill="white" stroke="#443D78" stroke-width="0.664242" stroke-miterlimit="10"/>
<path id="Vector_25" d="M75.7711 95.1719L68.3672 97.2539" stroke="#443D78" stroke-width="0.664242" stroke-miterlimit="10"/>
<path id="Vector_26" d="M127.125 80.7344L81.5 93.5578" stroke="#443D78" stroke-width="0.664242" stroke-miterlimit="10"/>
<path id="Vector_27" d="M89.6241 97.2344L71.2305 102.406" stroke="#443D78" stroke-width="0.664242" stroke-miterlimit="10"/>
<path id="Vector_28" d="M117.809 89.3125L94.6406 95.8237" stroke="#443D78" stroke-width="0.664242" stroke-miterlimit="10"/>
<path id="Vector_29" d="M129.995 85.8906L122.113 88.1052" stroke="#443D78" stroke-width="0.664242" stroke-miterlimit="10"/>
<path id="Vector_30" d="M109.929 97.4766L74.0977 107.548" stroke="#443D78" stroke-width="0.664242" stroke-miterlimit="10"/>
<path id="Vector_31" d="M132.862 91.0312L117.809 95.2615" stroke="#443D78" stroke-width="0.664242" stroke-miterlimit="10"/>
<path id="Vector_32" d="M152.931 78.9441C151.99 77.4022 150.582 76.1995 148.91 75.5105C147.239 74.8214 145.391 74.6817 143.634 75.1117C140.201 76.0731 138.814 79.3552 140.527 82.4052C141.467 83.9479 142.875 85.1512 144.547 85.8403C146.219 86.5295 148.067 86.6687 149.823 86.2377C153.25 85.3028 154.644 82.0207 152.931 78.9441Z" fill="white" stroke="#443D78" stroke-width="0.664242" stroke-miterlimit="10"/>
<path id="Vector_33" d="M132.5 105.769L139.904 103.688" stroke="#443D78" stroke-width="0.664242" stroke-miterlimit="10"/>
<path id="Vector_34" d="M81.1445 120.206L126.77 107.383" stroke="#443D78" stroke-width="0.664242" stroke-miterlimit="10"/>
<path id="Vector_35" d="M124.379 114.016L142.772 108.844" stroke="#443D78" stroke-width="0.664242" stroke-miterlimit="10"/>
<path id="Vector_36" d="M96.1914 121.94L119.359 115.422" stroke="#443D78" stroke-width="0.664242" stroke-miterlimit="10"/>
<path id="Vector_37" d="M84.0039 125.363L91.8859 123.148" stroke="#443D78" stroke-width="0.664242" stroke-miterlimit="10"/>
<path id="Vector_38" d="M109.801 124.057L145.632 113.992" stroke="#443D78" stroke-width="0.664242" stroke-miterlimit="10"/>
<path id="Vector_39" d="M86.875 130.512L101.922 126.281" stroke="#443D78" stroke-width="0.664242" stroke-miterlimit="10"/>
<path id="Vector_40" d="M166.119 106.246C167.257 103.356 165.21 99.8481 161.548 98.4106C157.886 96.973 153.995 98.1505 152.857 101.041C151.719 103.931 153.766 107.439 157.428 108.876C161.09 110.314 164.981 109.136 166.119 106.246Z" fill="white" stroke="#443D78" stroke-width="0.664242" stroke-miterlimit="10"/>
<path id="Vector_41" d="M101.322 141.086L93.918 143.168" stroke="#443D78" stroke-width="0.664242" stroke-miterlimit="10"/>
<path id="Vector_42" d="M152.68 126.656L107.055 139.48" stroke="#443D78" stroke-width="0.664242" stroke-miterlimit="10"/>
<path id="Vector_43" d="M115.175 143.148L96.7812 148.314" stroke="#443D78" stroke-width="0.664242" stroke-miterlimit="10"/>
<path id="Vector_44" d="M143.363 135.227L120.195 141.738" stroke="#443D78" stroke-width="0.664242" stroke-miterlimit="10"/>
<path id="Vector_45" d="M155.546 131.797L147.664 134.011" stroke="#443D78" stroke-width="0.664242" stroke-miterlimit="10"/>
<path id="Vector_46" d="M135.479 143.398L99.6484 153.47" stroke="#443D78" stroke-width="0.664242" stroke-miterlimit="10"/>
<path id="Vector_47" d="M158.41 136.953L143.363 141.183" stroke="#443D78" stroke-width="0.664242" stroke-miterlimit="10"/>
<path id="Vector_48" d="M178.478 124.857C177.536 123.316 176.128 122.114 174.456 121.425C172.785 120.736 170.938 120.596 169.181 121.025C165.748 121.993 164.36 125.268 166.074 128.351C167.015 129.893 168.423 131.096 170.094 131.785C171.766 132.474 173.614 132.614 175.37 132.184C178.803 131.242 180.198 127.927 178.478 124.857Z" fill="white" stroke="#443D78" stroke-width="0.664242" stroke-miterlimit="10"/>
<path id="Vector_49" d="M158.051 151.691L165.455 149.609" stroke="#443D78" stroke-width="0.664242" stroke-miterlimit="10"/>
<path id="Vector_50" d="M106.695 166.12L152.321 153.297" stroke="#443D78" stroke-width="0.664242" stroke-miterlimit="10"/>
<path id="Vector_51" d="M149.93 159.923L168.323 154.758" stroke="#443D78" stroke-width="0.664242" stroke-miterlimit="10"/>
<path id="Vector_52" d="M121.742 167.847L144.91 161.336" stroke="#443D78" stroke-width="0.664242" stroke-miterlimit="10"/>
<path id="Vector_53" d="M109.555 171.276L117.437 169.055" stroke="#443D78" stroke-width="0.664242" stroke-miterlimit="10"/>
<path id="Vector_54" d="M135.355 169.978L171.186 159.906" stroke="#443D78" stroke-width="0.664242" stroke-miterlimit="10"/>
<path id="Vector_55" d="M112.426 176.418L127.473 172.188" stroke="#443D78" stroke-width="0.664242" stroke-miterlimit="10"/>
<path id="Vector_56" d="M191.666 152.153C192.804 149.263 190.757 145.754 187.095 144.317C183.433 142.879 179.542 144.057 178.404 146.947C177.266 149.837 179.313 153.345 182.975 154.783C186.637 156.22 190.528 155.043 191.666 152.153Z" fill="white" stroke="#443D78" stroke-width="0.664242" stroke-miterlimit="10"/>
<path id="Vector_57" d="M102.909 34.0377L90.3722 37.5585C89.4226 37.5983 88.3801 37.5254 88.0879 37.0413C87.4239 35.7948 88.2739 34.6278 88.5395 33.5272C88.8469 32.2585 88.6493 30.9203 87.9883 29.7942C87.0206 28.2101 85.5727 26.975 83.8546 26.268C82.1364 25.5611 80.2374 25.419 78.433 25.8623C74.9136 26.8569 73.4926 30.2186 75.2456 33.3747C76.1057 34.8325 77.3949 35.9901 78.9376 36.6899C78.9376 36.6899 81.4809 37.8238 81.9922 38.7388C82.2644 39.2228 81.5539 39.793 80.8301 40.224L67.3171 44.0233C66.8076 44.1302 66.3316 44.3587 65.9297 44.6891C65.5278 45.0196 65.2119 45.4423 65.009 45.921C64.8061 46.3998 64.7223 46.9205 64.7646 47.4387C64.8069 47.9568 64.9741 48.4571 65.252 48.8967L67.0781 52.1722L110.95 39.8461L109.124 36.564C108.493 35.5365 107.55 34.7373 106.432 34.2829C105.314 33.8284 104.079 33.7425 102.909 34.0377ZM80.5778 29.7544C81.1559 29.6114 81.7646 29.6565 82.3152 29.8831C82.8659 30.1097 83.3296 30.506 83.639 31.0142C83.7764 31.231 83.8591 31.4778 83.8799 31.7336C83.9007 31.9893 83.8591 32.2462 83.7585 32.4823C83.6579 32.7184 83.5014 32.9266 83.3025 33.0889C83.1035 33.2513 82.8681 33.363 82.6164 33.4145C82.0399 33.5576 81.4328 33.5132 80.8834 33.2878C80.334 33.0624 79.871 32.6677 79.5618 32.1613C79.4245 31.9444 79.3418 31.6977 79.3207 31.442C79.2995 31.1863 79.3406 30.9293 79.4404 30.6929C79.5402 30.4565 79.6957 30.2477 79.8937 30.0843C80.0918 29.9209 80.3265 29.8077 80.5778 29.7544Z" fill="#A9E8CB" stroke="#443D78" stroke-width="0.664242" stroke-miterlimit="10"/>
<path id="Vector_58" d="M129.961 56.3687L135.373 60.1415L140.951 47.6562" stroke="#A9E8CB" stroke-width="3.98545" stroke-linecap="round" stroke-linejoin="round"/>
<path id="Vector_59" d="M142.539 78.9703L147.951 82.7364L153.529 70.2578" stroke="#A9E8CB" stroke-width="3.98545" stroke-linecap="round" stroke-linejoin="round"/>
</g>
<g id="freepik--Character--inject-160">
<path id="Vector_60" d="M231.296 75.8875C231.296 75.8875 232.737 72.8242 231.834 70.477C230.931 68.1298 214.31 64.3438 214.31 64.3438C214.31 64.3438 210.518 64.3437 210.698 66.5119C210.877 68.6801 224.609 76.9749 225.691 77.691C226.774 78.4071 230.931 80.0382 231.296 75.8875Z" fill="white" stroke="#443D78" stroke-width="0.664242" stroke-linecap="round" stroke-linejoin="round"/>
<path id="Vector_61" d="M215.685 61.3099C214.661 60.9316 213.657 60.5022 212.677 60.0236C211.242 59.3075 212.816 62.6028 213.394 62.7421C213.972 62.8813 215.386 63.1731 215.386 63.1731L215.685 61.3099Z" fill="white" stroke="#443D78" stroke-width="0.664242" stroke-linecap="round" stroke-linejoin="round"/>
<path id="Vector_62" d="M166.084 93.3854L157.777 103.484L158.494 104.929L170.241 102.071L252.919 54.0134C253.745 53.5311 254.465 52.8886 255.038 52.1239C255.611 51.3592 256.025 50.4876 256.255 49.5607C256.485 48.6338 256.527 47.6702 256.379 46.7268C256.23 45.7834 255.894 44.8793 255.389 44.0677C254.886 43.2639 254.227 42.5682 253.452 42.021C252.676 41.4739 251.799 41.0863 250.872 40.8808C249.945 40.6753 248.987 40.6561 248.052 40.8241C247.118 40.9922 246.226 41.3442 245.429 41.8597L166.084 93.3854Z" fill="#A9E8CB" stroke="#443D78" stroke-width="0.664242" stroke-linecap="round" stroke-linejoin="round"/>
<path id="Vector_63" d="M207.627 74.6641L204.93 76.4013" stroke="#443D78" stroke-width="0.664242" stroke-linecap="round" stroke-linejoin="round"/>
<path id="Vector_64" d="M230.832 59.7578L210.918 72.5547" stroke="#443D78" stroke-width="0.664242" stroke-linecap="round" stroke-linejoin="round"/>
<path id="Vector_65" d="M158.545 103.273C158.545 103.273 156.48 104.135 156.799 105.004C157.118 105.873 160.079 103.771 160.079 103.771L158.545 103.273Z" fill="#A9E8CB" stroke="#443D78" stroke-width="0.664242" stroke-linecap="round" stroke-linejoin="round"/>
<path id="Vector_66" d="M157.777 103.486L158.494 104.931L170.241 102.074C163.734 99.5473 166.084 93.4141 166.084 93.4141L157.777 103.486Z" fill="white" stroke="#443D78" stroke-width="0.664242" stroke-linecap="round" stroke-linejoin="round"/>
<path id="Vector_67" d="M255.387 44.0208C254.883 43.217 254.225 42.5213 253.449 41.9741C252.674 41.427 251.797 41.0394 250.87 40.8339C249.943 40.6285 248.984 40.6092 248.05 40.7772C247.115 40.9453 246.223 41.2973 245.427 41.8128L231.004 51.1884C230.615 52.1768 230.417 53.2296 230.419 54.2915C230.378 56.4203 231.183 58.4788 232.658 60.0169C234.132 61.5551 236.156 62.4479 238.288 62.5L252.943 53.9865C253.769 53.502 254.49 52.857 255.062 52.0897C255.634 51.3223 256.046 50.4483 256.274 49.5191C256.501 48.59 256.54 47.6247 256.388 46.6803C256.236 45.7359 255.895 44.8316 255.387 44.0208Z" fill="white" stroke="#443D78" stroke-width="0.664242" stroke-linecap="round" stroke-linejoin="round"/>
<path id="Vector_68" d="M255.389 44.0208C254.885 43.217 254.227 42.5213 253.451 41.9741C252.676 41.427 251.799 41.0394 250.872 40.8339C249.945 40.6285 248.986 40.6092 248.052 40.7772C247.117 40.9453 246.226 41.2973 245.429 41.8128L234.472 48.9406C233.942 50.0318 233.668 51.2289 233.669 52.4415C233.655 53.4736 233.845 54.4983 234.228 55.457C234.611 56.4157 235.179 57.2896 235.901 58.0286C236.622 58.7677 237.483 59.3573 238.433 59.7639C239.383 60.1705 240.404 60.386 241.438 60.3982C241.617 60.3982 241.803 60.3982 241.976 60.3982L252.945 54.0262C253.777 53.5418 254.502 52.8951 255.078 52.1246C255.653 51.3541 256.068 50.4757 256.296 49.5418C256.524 48.6079 256.561 47.6377 256.405 46.6892C256.249 45.7406 255.904 44.8331 255.389 44.0208Z" fill="#443D78" stroke="#443D78" stroke-width="0.664242" stroke-linecap="round" stroke-linejoin="round"/>
<path id="Vector_69" d="M206.517 64.6094C206.517 64.6094 204.909 64.6094 204.909 65.3387C204.909 66.0681 204.484 68.654 205.414 68.5811C206.344 68.5081 206.265 66.8836 206.344 66.3134C206.424 65.7432 206.517 64.6094 206.517 64.6094Z" fill="white" stroke="#443D78" stroke-width="0.664242" stroke-linecap="round" stroke-linejoin="round"/>
<path id="Vector_70" d="M208.271 61.9713C208.271 61.9713 206.836 61.527 206.504 62.4089C206.172 63.2907 205.84 67.4812 206.836 67.3685C207.832 67.2558 208.052 63.5162 208.271 61.9713Z" fill="white" stroke="#443D78" stroke-width="0.664242" stroke-linecap="round" stroke-linejoin="round"/>
<path id="Vector_71" d="M210.481 62.191C210.481 62.191 208.821 60.7589 208.269 61.9722C207.718 63.1856 207.605 66.6136 208.269 66.6136C208.934 66.6136 209.93 65.1814 210.149 64.4123C210.314 63.681 210.425 62.9386 210.481 62.191Z" fill="white" stroke="#443D78" stroke-width="0.664242" stroke-linecap="round" stroke-linejoin="round"/>
<path id="Vector_72" d="M212.822 62.8487C212.822 62.8487 210.723 61.085 210.391 61.4165C210.059 61.748 208.731 65.1428 209.727 65.8258C210.723 66.5087 211.985 63.4587 211.985 63.4587L212.822 62.8487Z" fill="white" stroke="#443D78" stroke-width="0.664242" stroke-linecap="round" stroke-linejoin="round"/>
<path id="Vector_73" d="M182.498 73.3149C182.498 73.3149 182.73 76.8489 183.673 77.6777C184.243 78.1706 184.757 78.7242 185.207 79.3287C185.337 80.2275 185.417 81.1329 185.446 82.0406C185.446 83.1015 186.157 82.9822 186.774 82.9822C187.392 82.9822 188.427 84.9713 189.018 85.9261C190.145 87.3151 191.49 88.5111 193.003 89.4668C194.065 90.0569 195.838 87.8158 195.838 87.8158L196.661 90.1762L205.048 84.7525L200.918 76.7296C200.674 73.9485 199.827 71.2537 198.434 68.8326C196.07 64.5891 192.883 62.2021 187.571 63.7603C182.259 65.3185 182.498 73.3149 182.498 73.3149Z" fill="white" stroke="#443D78" stroke-width="0.664242" stroke-linecap="round" stroke-linejoin="round"/>
<path id="Vector_74" d="M192.198 57.6028C190.217 57.6893 188.262 58.0807 186.401 58.7631C183.3 59.8571 182.536 64.167 179.834 65.7119C177.131 67.2568 178.286 64.3858 176.932 65.1284C175.577 65.871 174.229 72.654 177.124 74.5835C180.02 76.513 184.276 74.0066 184.276 74.0066C184.276 74.0066 183.891 75.3327 185.046 75.7438C185.746 75.9754 186.457 76.168 187.178 76.3207C187.178 76.3207 186.979 78.6414 188.718 78.4425C190.458 78.2435 188.918 75.5516 188.918 75.5516C188.918 75.5516 192.205 81.9168 194.721 82.6926C197.238 83.4684 200.903 79.9874 201.866 78.4425C202.829 76.8975 202.059 65.9042 199.934 61.6606C197.809 57.4171 192.198 57.6028 192.198 57.6028Z" fill="#443D78" stroke="#443D78" stroke-width="0.664242" stroke-linecap="round" stroke-linejoin="round"/>
<g id="Vector_75">
<path d="M188.991 79.68C188.991 79.68 187.809 75.1978 189.695 75.7879C191.58 76.378 192.65 80.3895 192.53 80.8603C192.41 81.331 191.468 81.5631 190.996 81.4504" fill="white"/>
<path d="M188.991 79.68C188.991 79.68 187.809 75.1978 189.695 75.7879C191.58 76.378 192.65 80.3895 192.53 80.8603C192.41 81.331 191.468 81.5631 190.996 81.4504" stroke="#443D78" stroke-width="0.664242" stroke-linecap="round" stroke-linejoin="round"/>
</g>
<path id="Vector_76" d="M202.636 81.3008C200.434 82.5362 198.33 83.9371 196.341 85.4913C194.349 87.2616 192.562 92.566 192.562 92.566C192.562 92.566 204.728 84.3111 206.852 83.1375C208.977 81.9639 209.449 81.3671 209.449 81.3671C209.449 81.3671 205 80.7107 202.636 81.3008Z" fill="white" stroke="#443D78" stroke-width="0.664242" stroke-linecap="round" stroke-linejoin="round"/>
<path id="Vector_77" d="M219.012 74.0811C219.526 73.1724 220.225 72.3818 221.065 71.7604C221.904 71.139 222.865 70.7008 223.886 70.4742C227.319 69.7514 231.854 72.0986 232.379 75.8846C232.903 79.6707 230.028 81.4808 228.222 81.4808C226.416 81.4808 224.789 78.9546 224.789 78.9546C224.789 78.9546 219.012 76.7864 219.012 74.0811Z" fill="white" stroke="#443D78" stroke-width="0.664242" stroke-linecap="round" stroke-linejoin="round"/>
<path id="Vector_78" d="M170.599 114.311L176.383 98.975C175.736 99.5526 174.9 99.8734 174.032 99.8767C172.584 99.8767 169.158 99.3397 170.048 98.7959C170.938 98.2522 174.377 95.9117 174.377 95.9117C174.377 95.9117 171.854 96.4554 171.13 95.9117C170.406 95.368 170.048 94.6453 170.586 94.4662C171.123 94.2872 172.212 94.4662 174.198 93.7435C176.183 93.0208 177.086 92.3047 178.713 92.3047C180.34 92.3047 181.788 95.189 181.788 96.0907C181.788 96.9925 180.519 114.126 180.519 114.848C180.519 115.571 180.519 116.294 175.825 116.838C171.13 117.381 170.42 116.294 170.599 114.311Z" fill="white" stroke="#443D78" stroke-width="0.664242" stroke-linecap="round" stroke-linejoin="round"/>
<path id="Vector_79" d="M176.383 98.9777L177.24 95.6094" stroke="#443D78" stroke-width="0.664242" stroke-linecap="round" stroke-linejoin="round"/>
<path id="Vector_80" d="M176.195 110.516C176.195 110.516 170.418 112.14 169.335 114.666C168.253 117.193 168.432 120.979 170.597 123.147C172.762 125.315 173.671 125.852 176.015 124.95C178.359 124.048 178.911 122.603 179.09 121.158C179.269 119.712 180.531 114.845 176.195 110.516Z" fill="white" stroke="#443D78" stroke-width="0.664242" stroke-linecap="round" stroke-linejoin="round"/>
<path id="Vector_81" d="M173.851 187.003C173.851 187.003 168.791 184.656 166.805 185.558C164.82 186.46 164.813 187.361 167.343 191.333C169.873 195.305 176.918 200.171 179.296 199.084C181.673 197.997 179.475 190.789 179.475 190.789L173.851 187.003Z" fill="white" stroke="#443D78" stroke-width="0.664242" stroke-linecap="round" stroke-linejoin="round"/>
<path id="Vector_82" d="M170.238 192.59C168.483 190.649 167.007 188.473 165.855 186.125C164.925 186.947 165.324 188.154 167.343 191.33C169.872 195.308 176.918 200.168 179.295 199.081C179.597 198.888 179.846 198.622 180.018 198.308C180.191 197.994 180.283 197.642 180.284 197.284C176.964 198.683 173.531 196.223 170.238 192.59Z" fill="white" stroke="#443D78" stroke-width="0.664242" stroke-linecap="round" stroke-linejoin="round"/>
<path id="Vector_83" d="M199.86 131.799L200.039 137.216C200.039 137.216 189.023 141.36 183.605 145.173C178.186 148.985 174.574 151.843 174.029 155.45C173.485 159.057 173.85 187.018 173.85 187.018C173.85 187.018 172.223 187.376 172.768 188.457C173.312 189.538 174.388 193.509 175.836 193.867C177.283 194.225 179.089 194.955 179.448 194.053C179.806 193.151 180.895 187.741 181.619 185.937C182.343 184.134 183.605 175.667 184.687 169.699C185.321 166.368 185.683 162.991 185.769 159.601C189.584 159.07 193.336 158.164 196.972 156.896C203.293 154.727 212.503 150.762 212.503 150.762C212.503 150.762 219.914 169.328 221.541 172.948C223.167 176.568 229.509 184.671 230.751 187.018C231.992 189.365 239.961 199.463 239.961 199.463C239.961 199.463 243.035 196.758 245.021 196.758H247.73C247.73 196.758 244.476 187.741 241.754 182.324C239.031 176.906 233.447 168.075 233.447 168.075C233.447 168.075 228.393 136.52 228.207 134.345C227.856 130.181 225.186 123.896 225.186 123.896C225.186 123.896 216.481 122.059 199.86 131.799Z" fill="#443D78" stroke="#443D78" stroke-width="0.664242" stroke-linecap="round" stroke-linejoin="round"/>
<path id="Vector_84" d="M239.964 199.444C239.5 200.2 239.079 200.981 238.703 201.784C238.523 202.328 234.546 202.872 235.09 204.675C235.635 206.479 239.785 207.918 241.77 208.103C243.756 208.289 247.747 205.577 248.457 204.854C248.882 204.43 249.52 201.625 249.181 199.444C248.96 198.425 248.459 197.488 247.733 196.739C247.733 196.739 244.3 191.507 239.964 199.444Z" fill="white" stroke="#443D78" stroke-width="0.664242" stroke-linecap="round" stroke-linejoin="round"/>
<path id="Vector_85" d="M249.18 199.443C248.996 198.527 248.572 197.676 247.952 196.977C247.204 196.982 246.465 197.14 245.781 197.44C245.096 197.74 244.479 198.175 243.968 198.72C242.162 200.882 243.065 205.755 240.893 206.478C239.28 207.015 236.458 205.046 235.13 204.012C235.056 204.226 235.056 204.46 235.13 204.675C235.667 206.478 239.824 207.917 241.81 208.103C243.795 208.288 247.786 205.576 248.497 204.854C248.882 204.429 249.519 201.625 249.18 199.443Z" fill="white" stroke="#443D78" stroke-width="0.664242" stroke-linecap="round" stroke-linejoin="round"/>
<path id="Vector_86" d="M244.479 200.708C243.762 203.957 244.665 206.118 241.77 208.108C243.762 208.287 247.746 205.581 248.456 204.859C248.881 204.434 249.519 201.63 249.18 199.448C249.103 198.996 248.952 198.559 248.735 198.155H248.456C248.456 198.155 245.203 197.466 244.479 200.708Z" fill="#443D78" stroke="#443D78" stroke-width="0.664242" stroke-linecap="round" stroke-linejoin="round"/>
<path id="Vector_87" d="M214.309 150.381L224.966 145.156" stroke="white" stroke-width="0.664242" stroke-linecap="round" stroke-linejoin="round"/>
<path id="Vector_88" d="M219.191 148.04L228.401 146.773" stroke="white" stroke-width="0.664242" stroke-linecap="round" stroke-linejoin="round"/>
<path id="Vector_89" d="M222.784 72.8235C219.716 73.1816 211.768 78.5921 211.223 79.1358C210.679 79.6795 208.514 80.9393 207.611 81.662C207.611 81.662 189.018 93.2057 187.378 94.2599C185.738 95.3142 182.504 97.5089 182.683 98.2382C182.863 98.9676 173.108 114.815 173.108 114.815C173.108 114.815 170.22 118.607 172.929 122.029C175.638 125.45 178.168 123.116 179.43 122.393C180.691 121.67 190.632 112.288 190.632 112.288L199.795 134.169C199.795 134.169 212.485 125.675 226.038 126.212L217 90.8585C217 90.8585 229.471 81.483 229.829 78.2605C230.188 75.0381 225.872 72.4588 222.784 72.8235Z" fill="white"/>
<g id="Clip path group">
<mask id="mask0_1153_1940" style="mask-type:luminance" maskUnits="userSpaceOnUse" x="171" y="72" width="59" height="63">
<g id="freepik--clip-path--inject-160">
<path id="Vector_90" d="M222.784 72.8235C219.716 73.1816 211.768 78.5921 211.223 79.1358C210.679 79.6795 208.514 80.9393 207.611 81.662C207.611 81.662 189.018 93.2057 187.378 94.2599C185.738 95.3142 182.504 97.5089 182.683 98.2382C182.863 98.9676 173.108 114.815 173.108 114.815C173.108 114.815 170.22 118.607 172.929 122.029C175.638 125.45 178.168 123.116 179.43 122.393C180.691 121.67 190.632 112.288 190.632 112.288L199.795 134.169C199.795 134.169 212.485 125.675 226.038 126.212L217 90.8585C217 90.8585 229.471 81.483 229.829 78.2605C230.188 75.0381 225.872 72.4588 222.784 72.8235Z" fill="white"/>
</g>
</mask>
<g mask="url(#mask0_1153_1940)">
<g id="Group_2">
<path id="Vector_91" d="M222.784 72.8229C221.556 72.9688 219.544 73.9236 217.532 75.0508C217.99 74.9625 218.464 75.011 218.895 75.1903C219.326 75.3695 219.695 75.6715 219.955 76.0586C221.449 77.9748 218.249 84.1478 218.249 84.1478C218.249 84.1478 216.921 75.621 216.974 78.1804C217.027 80.7397 216.31 88.6101 216.31 88.6101C216.31 88.6101 212.047 83.5047 212.259 84.7777C212.472 86.0508 215.241 97.9724 216.947 102.441C218.654 106.91 215.666 119.462 213.966 123.076C212.266 126.689 213.302 107.759 211.403 112.467C209.504 117.174 203.096 130.124 201.602 131.403C200.108 132.683 202.08 114.051 202.611 111.625C201.947 113.654 197.558 126.51 197.558 126.51L191.581 111.187C191.581 111.187 181.355 102.892 182.418 104.377C183.48 105.863 186.043 110.55 186.043 110.55C186.043 110.55 179.861 109.271 180.93 109.702C181.999 110.133 186.681 112.467 186.681 112.467C186.681 112.467 177.092 119.276 174.323 120.125C173.579 120.343 172.813 120.483 172.039 120.543C172.239 121.099 172.528 121.618 172.896 122.081C175.605 125.509 178.135 123.168 179.397 122.446C180.658 121.723 190.599 112.341 190.599 112.341L199.762 134.221C199.762 134.221 212.452 125.728 226.005 126.265L216.967 90.9109C216.967 90.9109 229.438 81.5354 229.796 78.313C230.155 75.0905 225.872 72.4582 222.784 72.8229Z" fill="#A9E8CB"/>
<path id="Vector_92" opacity="0.5" d="M222.784 72.8229C221.556 72.9688 219.544 73.9236 217.532 75.0508C217.99 74.9625 218.464 75.011 218.895 75.1903C219.326 75.3695 219.695 75.6715 219.955 76.0586C221.449 77.9748 218.249 84.1478 218.249 84.1478C218.249 84.1478 216.921 75.621 216.974 78.1804C217.027 80.7397 216.31 88.6101 216.31 88.6101C216.31 88.6101 212.047 83.5047 212.259 84.7777C212.472 86.0508 215.241 97.9724 216.947 102.441C218.654 106.91 215.666 119.462 213.966 123.076C212.266 126.689 213.302 107.759 211.403 112.467C209.504 117.174 203.096 130.124 201.602 131.403C200.108 132.683 202.08 114.051 202.611 111.625C201.947 113.654 197.558 126.51 197.558 126.51L191.581 111.187C191.581 111.187 181.355 102.892 182.418 104.377C183.48 105.863 186.043 110.55 186.043 110.55C186.043 110.55 179.861 109.271 180.93 109.702C181.999 110.133 186.681 112.467 186.681 112.467C186.681 112.467 177.092 119.276 174.323 120.125C173.579 120.343 172.813 120.483 172.039 120.543C172.239 121.099 172.528 121.618 172.896 122.081C175.605 125.509 178.135 123.168 179.397 122.446C180.658 121.723 190.599 112.341 190.599 112.341L199.762 134.221C199.762 134.221 212.452 125.728 226.005 126.265L216.967 90.9109C216.967 90.9109 229.438 81.5354 229.796 78.313C230.155 75.0905 225.872 72.4582 222.784 72.8229Z" fill="white"/>
</g>
</g>
</g>
<path id="Vector_93" d="M222.784 72.8235C219.716 73.1816 211.768 78.5921 211.223 79.1358C210.679 79.6795 208.514 80.9393 207.611 81.662C207.611 81.662 189.018 93.2057 187.378 94.2599C185.738 95.3142 182.504 97.5089 182.683 98.2382C182.863 98.9676 173.108 114.815 173.108 114.815C173.108 114.815 170.22 118.607 172.929 122.029C175.638 125.45 178.168 123.116 179.43 122.393C180.691 121.67 190.632 112.288 190.632 112.288L199.795 134.169C199.795 134.169 212.485 125.675 226.038 126.212L217 90.8585C217 90.8585 229.471 81.483 229.829 78.2605C230.188 75.0381 225.872 72.4588 222.784 72.8235Z" stroke="#443D78" stroke-width="0.664242" stroke-linecap="round" stroke-linejoin="round"/>
<g id="Vector_94">
<path d="M199.814 134.171C199.285 129.209 199.543 124.195 200.578 119.312L199.814 134.171Z" fill="white"/>
<path d="M199.814 134.171C199.285 129.209 199.543 124.195 200.578 119.312" stroke="#443D78" stroke-width="0.664242" stroke-linecap="round" stroke-linejoin="round"/>
</g>
<g id="Vector_95">
<path d="M198.102 123.114C198.102 123.114 198.102 120.064 201.535 110.516L198.102 123.114Z" fill="white"/>
<path d="M198.102 123.114C198.102 123.114 198.102 120.064 201.535 110.516" stroke="#443D78" stroke-width="0.664242" stroke-linecap="round" stroke-linejoin="round"/>
</g>
<g id="Vector_96">
<path d="M183.605 104.391L190.65 112.321L183.426 107.089" fill="white"/>
<path d="M183.605 104.391L190.65 112.321L183.426 107.089" stroke="#443D78" stroke-width="0.664242" stroke-linecap="round" stroke-linejoin="round"/>
</g>
<g id="Vector_97">
<path d="M217.02 80.7593V90.8575L219.371 77.875" fill="white"/>
<path d="M217.02 80.7593V90.8575L219.371 77.875" stroke="#443D78" stroke-width="0.664242" stroke-linecap="round" stroke-linejoin="round"/>
</g>
<path id="Vector_98" d="M202.716 111.353C202.69 111.427 202.67 111.502 202.656 111.579C202.736 111.353 202.763 111.267 202.716 111.353Z" fill="#443D78"/>
</g>
</g>
</svg>
