<svg width="353" height="235" viewBox="0 0 353 235" fill="none" xmlns="http://www.w3.org/2000/svg">
<path d="M305.101 57.7061C305.101 57.7061 253.161 4.38867 185.662 0.271359C118.162 -3.84596 78.8009 39.8543 60.1485 65.9154C41.4961 91.9766 -5.04138 135.398 0.446697 175.158C5.93477 214.919 59.7391 245.087 136.815 231.834C213.89 218.58 236.237 213.551 271.354 223.609C306.47 233.667 352.078 218.58 352.987 161.449C353.897 104.318 305.101 57.7061 305.101 57.7061Z" fill="#A9E8CB"/>
<path opacity="0.7" d="M305.101 57.7061C305.101 57.7061 253.161 4.38867 185.662 0.271359C118.162 -3.84596 78.8009 39.8543 60.1485 65.9154C41.4961 91.9766 -5.04138 135.398 0.446697 175.158C5.93477 214.919 59.7391 245.087 136.815 231.834C213.89 218.58 236.237 213.551 271.354 223.609C306.47 233.667 352.078 218.58 352.987 161.449C353.897 104.318 305.101 57.7061 305.101 57.7061Z" fill="white"/>
<path d="M10.382 218.069H339.828" stroke="#443D78" stroke-width="0.506612" stroke-miterlimit="10"/>
<path d="M24.7338 133.433L31.3994 197.396" stroke="#443D78" stroke-width="1.01322" stroke-miterlimit="10"/>
<path d="M30.3232 185.156L27.3063 181.96" stroke="#443D78" stroke-width="1.01322" stroke-miterlimit="10"/>
<path d="M28.2209 182.917C28.2148 182.428 28.1043 181.946 27.8969 181.503C27.6894 181.06 27.3898 180.667 27.0181 180.349C26.245 179.656 22.1668 177.939 21.7777 179.377C21.3582 180.942 25.5324 184.021 28.2209 182.917Z" fill="#A9E8CB" stroke="#443D78" stroke-width="0.506612" stroke-miterlimit="10"/>
<path d="M28.2206 182.918L24.3395 180.491" stroke="#443D78" stroke-width="0.253306" stroke-miterlimit="10"/>
<path d="M31.081 192.433L28.0641 189.237" stroke="#443D78" stroke-width="1.01322" stroke-miterlimit="10"/>
<path d="M28.9787 190.195C28.973 189.705 28.8627 189.223 28.6552 188.78C28.4477 188.337 28.1479 187.944 27.776 187.627C27.0028 186.933 22.9247 185.211 22.5356 186.65C22.1161 188.22 26.2903 191.294 28.9787 190.195Z" fill="#A9E8CB" stroke="#443D78" stroke-width="0.506612" stroke-miterlimit="10"/>
<path d="M28.9787 190.195L25.0977 187.769" stroke="#443D78" stroke-width="0.253306" stroke-miterlimit="10"/>
<path d="M28.4733 167.405L25.4564 164.209" stroke="#443D78" stroke-width="1.01322" stroke-miterlimit="10"/>
<path d="M26.3712 165.167C26.3651 164.678 26.2551 164.196 26.0486 163.753C25.8421 163.311 25.5438 162.917 25.1735 162.599C24.3953 161.905 20.3171 160.183 19.928 161.627C19.5187 163.192 23.6827 166.266 26.3712 165.167Z" fill="#A9E8CB" stroke="#443D78" stroke-width="0.506612" stroke-miterlimit="10"/>
<path d="M26.3712 165.167L22.4902 162.741" stroke="#443D78" stroke-width="0.253306" stroke-miterlimit="10"/>
<path d="M29.2314 174.677L26.2145 171.482" stroke="#443D78" stroke-width="1.01322" stroke-miterlimit="10"/>
<path d="M27.1291 172.439C27.1231 171.95 27.0126 171.468 26.8051 171.025C26.5977 170.582 26.2981 170.189 25.9264 169.871C25.1532 169.178 21.0751 167.461 20.6859 168.899C20.2665 170.464 24.4407 173.543 27.1291 172.439Z" fill="#A9E8CB" stroke="#443D78" stroke-width="0.506612" stroke-miterlimit="10"/>
<path d="M27.1291 172.44L23.248 170.013" stroke="#443D78" stroke-width="0.253306" stroke-miterlimit="10"/>
<path d="M27.2454 155.585L24.2234 152.389" stroke="#443D78" stroke-width="1.01322" stroke-miterlimit="10"/>
<path d="M25.1431 153.346C25.137 152.857 25.0266 152.375 24.8191 151.932C24.6117 151.489 24.312 151.096 23.9404 150.779C23.1672 150.09 19.084 148.368 18.6999 149.806C18.2754 151.397 22.4546 154.435 25.1431 153.346Z" fill="#A9E8CB" stroke="#443D78" stroke-width="0.506612" stroke-miterlimit="10"/>
<path d="M25.1433 153.347L21.2572 150.921" stroke="#443D78" stroke-width="0.253306" stroke-miterlimit="10"/>
<path d="M26.0073 143.719L22.9904 140.523" stroke="#443D78" stroke-width="1.01322" stroke-miterlimit="10"/>
<path d="M23.9049 141.481C23.8989 140.991 23.7884 140.509 23.581 140.066C23.3735 139.623 23.0739 139.23 22.7022 138.913C21.929 138.219 17.8509 136.497 17.4618 137.941C17.0423 139.505 21.2165 142.58 23.9049 141.481Z" fill="#A9E8CB" stroke="#443D78" stroke-width="0.506612" stroke-miterlimit="10"/>
<path d="M23.905 141.481L20.0239 139.055" stroke="#443D78" stroke-width="0.253306" stroke-miterlimit="10"/>
<path d="M29.8178 180.851L32.1121 177.098" stroke="#443D78" stroke-width="1.01322" stroke-miterlimit="10"/>
<path d="M31.4144 178.238C31.3186 177.758 31.3268 177.263 31.4384 176.787C31.55 176.311 31.7624 175.864 32.0613 175.478C32.6727 174.637 36.3112 172.11 36.9884 173.452C37.7111 174.875 34.2696 178.744 31.4144 178.238Z" fill="#A9E8CB" stroke="#443D78" stroke-width="0.506612" stroke-miterlimit="10"/>
<path d="M31.4146 178.227L34.9116 174.875" stroke="#443D78" stroke-width="0.253306" stroke-miterlimit="10"/>
<path d="M27.8215 161.708L30.1209 157.955" stroke="#443D78" stroke-width="1.01322" stroke-miterlimit="10"/>
<path d="M29.4185 159.084C29.324 158.605 29.3328 158.11 29.4444 157.634C29.556 157.158 29.7677 156.712 30.0654 156.324C30.6819 155.484 34.3204 152.956 34.9925 154.299C35.7303 155.732 32.2788 159.601 29.4185 159.084Z" fill="#A9E8CB" stroke="#443D78" stroke-width="0.506612" stroke-miterlimit="10"/>
<path d="M29.4184 159.084L32.9154 155.732" stroke="#443D78" stroke-width="0.253306" stroke-miterlimit="10"/>
<path d="M26.9473 153.296L29.2415 149.543" stroke="#443D78" stroke-width="1.01322" stroke-miterlimit="10"/>
<path d="M28.5444 150.667C28.4486 150.188 28.4568 149.693 28.5684 149.217C28.68 148.741 28.8924 148.294 29.1913 147.907C29.8078 147.072 33.4412 144.545 34.1184 145.882C34.8512 147.315 31.3996 151.189 28.5444 150.667Z" fill="#A9E8CB" stroke="#443D78" stroke-width="0.506612" stroke-miterlimit="10"/>
<path d="M28.5441 150.667L32.0411 147.32" stroke="#443D78" stroke-width="0.253306" stroke-miterlimit="10"/>
<path d="M25.6636 140.964L27.9579 137.211" stroke="#443D78" stroke-width="1.01322" stroke-miterlimit="10"/>
<path d="M27.2607 138.336C27.1649 137.856 27.1731 137.361 27.2847 136.885C27.3963 136.409 27.6087 135.962 27.9076 135.576C28.5191 134.735 32.1576 132.208 32.8347 133.55C33.5675 134.983 30.1311 138.857 27.2607 138.336Z" fill="#A9E8CB" stroke="#443D78" stroke-width="0.506612" stroke-miterlimit="10"/>
<path d="M27.2607 138.336L30.7577 134.988" stroke="#443D78" stroke-width="0.253306" stroke-miterlimit="10"/>
<path d="M24.6784 133.074C24.5839 132.594 24.5927 132.1 24.7043 131.624C24.8158 131.148 25.0275 130.701 25.3252 130.314C25.9418 129.478 29.5803 126.951 30.2574 128.288C30.9902 129.721 27.5387 133.595 24.6784 133.074Z" fill="#A9E8CB" stroke="#443D78" stroke-width="0.506612" stroke-miterlimit="10"/>
<path d="M24.6783 133.074L28.1753 129.726" stroke="#443D78" stroke-width="0.253306" stroke-miterlimit="10"/>
<path d="M24.8855 133.221C24.3989 133.265 23.9084 133.205 23.4472 133.043C22.986 132.882 22.5648 132.623 22.2122 132.284C21.444 131.585 19.3165 127.695 20.6961 127.159C22.2172 126.581 25.6991 130.425 24.8855 133.221Z" fill="#A9E8CB" stroke="#443D78" stroke-width="0.506612" stroke-miterlimit="10"/>
<path d="M24.8853 133.221L21.924 129.382" stroke="#443D78" stroke-width="0.253306" stroke-miterlimit="10"/>
<path d="M42.3049 142.24L35.6798 206.213" stroke="#443D78" stroke-width="1.01322" stroke-miterlimit="10"/>
<path d="M37.145 194.013L34.8457 190.26" stroke="#443D78" stroke-width="1.01322" stroke-miterlimit="10"/>
<path d="M35.5483 191.405C35.6428 190.925 35.6339 190.431 35.5224 189.955C35.4108 189.479 35.1991 189.032 34.9014 188.645C34.2849 187.809 30.6464 185.282 29.9692 186.619C29.2365 188.037 32.6931 191.912 35.5483 191.405Z" fill="#A9E8CB" stroke="#443D78" stroke-width="0.506612" stroke-miterlimit="10"/>
<path d="M35.5484 191.385L32.2485 188.209" stroke="#443D78" stroke-width="0.253306" stroke-miterlimit="10"/>
<path d="M38.9847 176.257L36.6854 172.505" stroke="#443D78" stroke-width="1.01322" stroke-miterlimit="10"/>
<path d="M37.3878 173.634C37.4823 173.154 37.4735 172.66 37.3619 172.184C37.2504 171.708 37.0387 171.261 36.741 170.874C36.1244 170.033 32.4859 167.511 31.8088 168.848C31.076 170.281 34.5275 174.156 37.3878 173.634Z" fill="#A9E8CB" stroke="#443D78" stroke-width="0.506612" stroke-miterlimit="10"/>
<path d="M37.3877 173.634L34.0828 170.459" stroke="#443D78" stroke-width="0.253306" stroke-miterlimit="10"/>
<path d="M38.2319 183.535L35.9326 179.782" stroke="#443D78" stroke-width="1.01322" stroke-miterlimit="10"/>
<path d="M36.6348 180.907C36.7293 180.427 36.7205 179.933 36.6089 179.457C36.4974 178.981 36.2857 178.534 35.988 178.147C35.3714 177.311 31.7329 174.784 31.0558 176.121C30.323 177.559 33.7745 181.428 36.6348 180.907Z" fill="#A9E8CB" stroke="#443D78" stroke-width="0.506612" stroke-miterlimit="10"/>
<path d="M36.635 180.907L33.33 177.731" stroke="#443D78" stroke-width="0.253306" stroke-miterlimit="10"/>
<path d="M40.2075 164.437L37.9081 160.69" stroke="#443D78" stroke-width="1.01322" stroke-miterlimit="10"/>
<path d="M38.6107 161.814C38.7052 161.334 38.6964 160.84 38.5848 160.364C38.4733 159.888 38.2616 159.441 37.9639 159.054C37.3473 158.213 33.7088 155.691 33.0317 157.028C32.2989 158.487 35.7555 162.335 38.6107 161.814Z" fill="#A9E8CB" stroke="#443D78" stroke-width="0.506612" stroke-miterlimit="10"/>
<path d="M38.6105 161.814L35.3106 158.639" stroke="#443D78" stroke-width="0.253306" stroke-miterlimit="10"/>
<path d="M41.4354 152.572L39.1411 148.819" stroke="#443D78" stroke-width="1.01322" stroke-miterlimit="10"/>
<path d="M39.8389 149.943C39.9347 149.463 39.9265 148.969 39.8149 148.493C39.7033 148.016 39.4909 147.57 39.192 147.183C38.5755 146.347 34.937 143.82 34.2598 145.157C33.5271 146.596 36.9836 150.465 39.8389 149.943Z" fill="#A9E8CB" stroke="#443D78" stroke-width="0.506612" stroke-miterlimit="10"/>
<path d="M39.8387 149.943L36.5388 146.768" stroke="#443D78" stroke-width="0.253306" stroke-miterlimit="10"/>
<path d="M37.5343 189.693L40.5512 186.497" stroke="#443D78" stroke-width="1.01322" stroke-miterlimit="10"/>
<path d="M39.6367 187.455C39.6412 186.966 39.7504 186.484 39.9571 186.041C40.1637 185.598 40.4629 185.204 40.8344 184.887C41.6126 184.193 45.6908 182.472 46.0749 183.91C46.4993 185.475 42.3252 188.554 39.6367 187.455Z" fill="#A9E8CB" stroke="#443D78" stroke-width="0.506612" stroke-miterlimit="10"/>
<path d="M39.6367 187.456L43.7452 184.897" stroke="#443D78" stroke-width="0.253306" stroke-miterlimit="10"/>
<path d="M39.5154 170.55L42.5324 167.349" stroke="#443D78" stroke-width="1.01322" stroke-miterlimit="10"/>
<path d="M41.6176 168.307C41.6237 167.817 41.7342 167.335 41.9416 166.892C42.149 166.449 42.4487 166.056 42.8203 165.739C43.5935 165.045 47.6717 163.323 48.0608 164.767C48.4802 166.331 44.3061 169.405 41.6176 168.307Z" fill="#A9E8CB" stroke="#443D78" stroke-width="0.506612" stroke-miterlimit="10"/>
<path d="M41.6176 168.307L45.7261 165.754" stroke="#443D78" stroke-width="0.253306" stroke-miterlimit="10"/>
<path d="M40.3895 162.133L43.4064 158.937" stroke="#443D78" stroke-width="1.01322" stroke-miterlimit="10"/>
<path d="M42.4868 159.895C42.4928 159.405 42.6033 158.923 42.8107 158.48C43.0182 158.037 43.3178 157.644 43.6895 157.327C44.4627 156.633 48.5408 154.911 48.9299 156.35C49.3342 157.914 45.1803 161.019 42.4868 159.895Z" fill="#A9E8CB" stroke="#443D78" stroke-width="0.506612" stroke-miterlimit="10"/>
<path d="M42.4868 159.895L46.6003 157.337" stroke="#443D78" stroke-width="0.253306" stroke-miterlimit="10"/>
<path d="M41.6629 149.801L44.6849 146.601" stroke="#443D78" stroke-width="1.01322" stroke-miterlimit="10"/>
<path d="M43.7753 147.563C43.781 147.074 43.8913 146.591 44.0988 146.148C44.3063 145.705 44.6061 145.312 44.978 144.995C45.7512 144.296 49.8293 142.574 50.2185 144.018C50.6278 145.583 46.4536 148.662 43.7753 147.563Z" fill="#A9E8CB" stroke="#443D78" stroke-width="0.506612" stroke-miterlimit="10"/>
<path d="M43.7653 147.564L47.8789 145.005" stroke="#443D78" stroke-width="0.253306" stroke-miterlimit="10"/>
<path d="M42.3251 141.881C42.3312 141.392 42.4411 140.91 42.6477 140.467C42.8542 140.025 43.1525 139.631 43.5227 139.313C44.301 138.619 48.3791 136.897 48.7632 138.336C49.1877 139.901 45.0135 142.98 42.3251 141.881Z" fill="#A9E8CB" stroke="#443D78" stroke-width="0.506612" stroke-miterlimit="10"/>
<path d="M42.3251 141.882L46.4336 139.323" stroke="#443D78" stroke-width="0.253306" stroke-miterlimit="10"/>
<path d="M42.4916 142.063C42.0073 142.006 41.5407 141.846 41.1232 141.594C40.7056 141.342 40.3469 141.002 40.071 140.599C39.4646 139.754 38.181 135.51 39.6516 135.272C41.2485 135.019 43.8662 139.5 42.4916 142.063Z" fill="#A9E8CB" stroke="#443D78" stroke-width="0.506612" stroke-miterlimit="10"/>
<path d="M42.4916 142.063L40.3843 137.703" stroke="#443D78" stroke-width="0.253306" stroke-miterlimit="10"/>
<path d="M34.7145 116.189V197.087" stroke="#443D78" stroke-width="1.01322" stroke-miterlimit="10"/>
<path d="M34.78 184.923L32.1068 181.428" stroke="#443D78" stroke-width="1.01322" stroke-miterlimit="10"/>
<path d="M32.9207 182.477C32.9654 181.989 32.9056 181.498 32.7452 181.036C32.5848 180.574 32.3276 180.152 31.9909 179.798C31.2935 179.028 27.4124 176.896 26.8768 178.278C26.2956 179.798 30.1312 183.302 32.9207 182.477Z" fill="#A9E8CB" stroke="#443D78" stroke-width="0.506612" stroke-miterlimit="10"/>
<path d="M32.9206 182.477L29.3074 179.661" stroke="#443D78" stroke-width="0.253306" stroke-miterlimit="10"/>
<path d="M34.78 169.719L32.1068 166.23" stroke="#443D78" stroke-width="1.01322" stroke-miterlimit="10"/>
<path d="M32.9207 167.273C32.9654 166.787 32.9055 166.297 32.7451 165.835C32.5847 165.374 32.3275 164.953 31.9909 164.599C31.2935 163.824 27.4124 161.692 26.8768 163.08C26.2956 164.599 30.1312 168.109 32.9207 167.273Z" fill="#A9E8CB" stroke="#443D78" stroke-width="0.506612" stroke-miterlimit="10"/>
<path d="M32.9206 167.274L29.3074 164.458" stroke="#443D78" stroke-width="0.253306" stroke-miterlimit="10"/>
<path d="M34.78 151.873L32.1068 148.378" stroke="#443D78" stroke-width="1.01322" stroke-miterlimit="10"/>
<path d="M32.9207 149.427C32.9654 148.939 32.9056 148.448 32.7452 147.986C32.5848 147.524 32.3276 147.102 31.9909 146.747C31.2935 145.978 27.4124 143.846 26.8768 145.228C26.2956 146.747 30.1312 150.242 32.9207 149.427Z" fill="#A9E8CB" stroke="#443D78" stroke-width="0.506612" stroke-miterlimit="10"/>
<path d="M32.9206 149.427L29.3074 146.611" stroke="#443D78" stroke-width="0.253306" stroke-miterlimit="10"/>
<path d="M34.78 139.992L32.1068 136.497" stroke="#443D78" stroke-width="1.01322" stroke-miterlimit="10"/>
<path d="M32.9207 137.546C32.9654 137.058 32.9056 136.567 32.7452 136.105C32.5848 135.643 32.3276 135.221 31.9909 134.867C31.2935 134.097 27.4124 131.96 26.8768 133.347C26.2956 134.867 30.1312 138.361 32.9207 137.546Z" fill="#A9E8CB" stroke="#443D78" stroke-width="0.506612" stroke-miterlimit="10"/>
<path d="M32.9206 137.547L29.3074 134.73" stroke="#443D78" stroke-width="0.253306" stroke-miterlimit="10"/>
<path d="M34.78 128.055L32.1068 124.566" stroke="#443D78" stroke-width="1.01322" stroke-miterlimit="10"/>
<path d="M32.9207 125.614C32.9654 125.127 32.9056 124.636 32.7452 124.174C32.5848 123.712 32.3276 123.289 31.9909 122.935C31.2935 122.165 27.4124 120.028 26.8768 121.416C26.2956 122.935 30.1312 126.429 32.9207 125.614Z" fill="#A9E8CB" stroke="#443D78" stroke-width="0.506612" stroke-miterlimit="10"/>
<path d="M32.9206 125.615L29.3074 122.798" stroke="#443D78" stroke-width="0.253306" stroke-miterlimit="10"/>
<path d="M34.7196 189.567L37.3929 186.072" stroke="#443D78" stroke-width="1.01322" stroke-miterlimit="10"/>
<path d="M36.5792 187.121C36.5345 186.633 36.5943 186.142 36.7547 185.68C36.9151 185.218 37.1723 184.796 37.509 184.441C38.2064 183.672 42.0875 181.535 42.6232 182.922C43.2043 184.441 39.3687 187.936 36.5792 187.121Z" fill="#A9E8CB" stroke="#443D78" stroke-width="0.506612" stroke-miterlimit="10"/>
<path d="M36.5792 187.121L40.4046 184.153" stroke="#443D78" stroke-width="0.253306" stroke-miterlimit="10"/>
<path d="M34.7196 165.389L37.3929 161.895" stroke="#443D78" stroke-width="1.01322" stroke-miterlimit="10"/>
<path d="M36.5792 162.943C36.5345 162.456 36.5943 161.965 36.7547 161.503C36.9151 161.041 37.1723 160.618 37.509 160.264C38.2064 159.494 42.0875 157.357 42.6232 158.745C43.2043 160.264 39.3687 163.759 36.5792 162.943Z" fill="#A9E8CB" stroke="#443D78" stroke-width="0.506612" stroke-miterlimit="10"/>
<path d="M36.5792 162.943L40.4046 159.976" stroke="#443D78" stroke-width="0.253306" stroke-miterlimit="10"/>
<path d="M34.7196 153.453L37.3929 149.958" stroke="#443D78" stroke-width="1.01322" stroke-miterlimit="10"/>
<path d="M36.5792 151.007C36.5345 150.519 36.5943 150.028 36.7547 149.566C36.9151 149.104 37.1723 148.682 37.509 148.328C38.2064 147.558 42.0875 145.426 42.6232 146.808C43.2043 148.328 39.3687 151.822 36.5792 151.007Z" fill="#A9E8CB" stroke="#443D78" stroke-width="0.506612" stroke-miterlimit="10"/>
<path d="M36.5792 151.007L40.4046 148.039" stroke="#443D78" stroke-width="0.253306" stroke-miterlimit="10"/>
<path d="M34.7196 137.682L37.3929 134.188" stroke="#443D78" stroke-width="1.01322" stroke-miterlimit="10"/>
<path d="M36.5792 135.236C36.5345 134.749 36.5943 134.258 36.7547 133.796C36.9151 133.334 37.1723 132.911 37.509 132.557C38.2064 131.787 42.0875 129.65 42.6232 131.038C43.2043 132.557 39.3687 136.052 36.5792 135.236Z" fill="#A9E8CB" stroke="#443D78" stroke-width="0.506612" stroke-miterlimit="10"/>
<path d="M36.5792 135.236L40.4046 132.269" stroke="#443D78" stroke-width="0.253306" stroke-miterlimit="10"/>
<path d="M34.7196 125.28L37.3929 121.785" stroke="#443D78" stroke-width="1.01322" stroke-miterlimit="10"/>
<path d="M36.5792 122.834C36.5345 122.346 36.5943 121.855 36.7547 121.393C36.9151 120.931 37.1723 120.509 37.509 120.155C38.2064 119.385 42.0875 117.253 42.6232 118.635C43.2043 120.155 39.3687 123.649 36.5792 122.834Z" fill="#A9E8CB" stroke="#443D78" stroke-width="0.506612" stroke-miterlimit="10"/>
<path d="M36.5792 122.834L40.4046 119.866" stroke="#443D78" stroke-width="0.253306" stroke-miterlimit="10"/>
<path d="M34.563 117.334C34.518 116.847 34.5772 116.356 34.7367 115.894C34.8962 115.432 35.1523 115.01 35.4878 114.655C36.1903 113.885 40.0663 111.753 40.602 113.135C41.1831 114.655 37.3475 118.149 34.563 117.334Z" fill="#A9E8CB" stroke="#443D78" stroke-width="0.506612" stroke-miterlimit="10"/>
<path d="M34.563 117.334L38.3834 114.366" stroke="#443D78" stroke-width="0.253306" stroke-miterlimit="10"/>
<path d="M34.7449 117.501C34.257 117.494 33.7762 117.383 33.3351 117.174C32.8939 116.965 32.5027 116.664 32.1878 116.29C31.4955 115.516 29.7824 111.424 31.2226 111.039C32.7841 110.618 35.8465 114.807 34.7449 117.501Z" fill="#A9E8CB" stroke="#443D78" stroke-width="0.506612" stroke-miterlimit="10"/>
<path d="M34.7448 117.501L32.2029 113.378" stroke="#443D78" stroke-width="0.253306" stroke-miterlimit="10"/>
<path d="M38.0347 218.069H29.4893L28.418 196.429H39.1061L38.0347 218.069Z" fill="#443D78" stroke="#443D78" stroke-width="0.506612" stroke-miterlimit="10"/>
<path d="M311.16 133.433L317.82 197.396" stroke="#443D78" stroke-width="1.01322" stroke-miterlimit="10"/>
<path d="M316.749 185.156L313.727 181.96" stroke="#443D78" stroke-width="1.01322" stroke-miterlimit="10"/>
<path d="M314.642 182.917C314.636 182.428 314.525 181.946 314.318 181.503C314.11 181.06 313.811 180.667 313.439 180.349C312.666 179.656 308.583 177.939 308.199 179.377C307.779 180.942 311.958 184.021 314.642 182.917Z" fill="#A9E8CB" stroke="#443D78" stroke-width="0.506612" stroke-miterlimit="10"/>
<path d="M314.647 182.918L310.761 180.491" stroke="#443D78" stroke-width="0.253306" stroke-miterlimit="10"/>
<path d="M317.507 192.433L314.485 189.237" stroke="#443D78" stroke-width="1.01322" stroke-miterlimit="10"/>
<path d="M315.405 190.195C315.399 189.705 315.289 189.223 315.081 188.78C314.874 188.337 314.574 187.944 314.202 187.627C313.424 186.933 309.346 185.211 308.962 186.65C308.537 188.22 312.716 191.294 315.405 190.195Z" fill="#A9E8CB" stroke="#443D78" stroke-width="0.506612" stroke-miterlimit="10"/>
<path d="M315.405 190.195L311.519 187.769" stroke="#443D78" stroke-width="0.253306" stroke-miterlimit="10"/>
<path d="M314.9 167.405L311.878 164.209" stroke="#443D78" stroke-width="1.01322" stroke-miterlimit="10"/>
<path d="M312.797 165.167C312.791 164.677 312.681 164.195 312.473 163.752C312.266 163.309 311.966 162.916 311.595 162.599C310.821 161.905 306.738 160.183 306.354 161.627C305.935 163.192 310.094 166.266 312.797 165.167Z" fill="#A9E8CB" stroke="#443D78" stroke-width="0.506612" stroke-miterlimit="10"/>
<path d="M312.797 165.167L308.911 162.741" stroke="#443D78" stroke-width="0.253306" stroke-miterlimit="10"/>
<path d="M315.658 174.677L312.636 171.482" stroke="#443D78" stroke-width="1.01322" stroke-miterlimit="10"/>
<path d="M313.555 172.439C313.549 171.95 313.439 171.468 313.231 171.025C313.024 170.582 312.724 170.189 312.353 169.871C311.58 169.178 307.496 167.461 307.112 168.899C306.688 170.464 310.867 173.543 313.555 172.439Z" fill="#A9E8CB" stroke="#443D78" stroke-width="0.506612" stroke-miterlimit="10"/>
<path d="M313.555 172.44L309.669 170.013" stroke="#443D78" stroke-width="0.253306" stroke-miterlimit="10"/>
<path d="M313.666 155.585L310.65 152.389" stroke="#443D78" stroke-width="1.01322" stroke-miterlimit="10"/>
<path d="M311.564 153.346C311.558 152.858 311.448 152.376 311.242 151.933C311.035 151.49 310.737 151.097 310.366 150.779C309.588 150.09 305.51 148.368 305.121 149.806C304.702 151.397 308.876 154.435 311.564 153.346Z" fill="#A9E8CB" stroke="#443D78" stroke-width="0.506612" stroke-miterlimit="10"/>
<path d="M311.564 153.347L307.683 150.921" stroke="#443D78" stroke-width="0.253306" stroke-miterlimit="10"/>
<path d="M312.433 143.719L309.411 140.523" stroke="#443D78" stroke-width="1.01322" stroke-miterlimit="10"/>
<path d="M310.331 141.481C310.325 140.991 310.215 140.509 310.007 140.066C309.8 139.623 309.5 139.23 309.128 138.913C308.355 138.219 304.272 136.497 303.888 137.941C303.463 139.505 307.643 142.58 310.331 141.481Z" fill="#A9E8CB" stroke="#443D78" stroke-width="0.506612" stroke-miterlimit="10"/>
<path d="M310.331 141.481L306.445 139.055" stroke="#443D78" stroke-width="0.253306" stroke-miterlimit="10"/>
<path d="M316.239 180.851L318.538 177.098" stroke="#443D78" stroke-width="1.01322" stroke-miterlimit="10"/>
<path d="M317.836 178.238C317.741 177.758 317.75 177.264 317.862 176.788C317.973 176.312 318.185 175.865 318.483 175.478C319.099 174.637 322.738 172.11 323.41 173.452C324.147 174.875 320.706 178.744 317.836 178.238Z" fill="#A9E8CB" stroke="#443D78" stroke-width="0.506612" stroke-miterlimit="10"/>
<path d="M317.836 178.227L321.333 174.875" stroke="#443D78" stroke-width="0.253306" stroke-miterlimit="10"/>
<path d="M314.248 161.708L316.542 157.955" stroke="#443D78" stroke-width="1.01322" stroke-miterlimit="10"/>
<path d="M315.845 159.084C315.749 158.605 315.757 158.11 315.869 157.634C315.98 157.158 316.193 156.711 316.491 156.324C317.103 155.484 320.741 152.956 321.419 154.299C322.151 155.732 318.685 159.601 315.845 159.084Z" fill="#A9E8CB" stroke="#443D78" stroke-width="0.506612" stroke-miterlimit="10"/>
<path d="M315.845 159.084L319.342 155.732" stroke="#443D78" stroke-width="0.253306" stroke-miterlimit="10"/>
<path d="M313.368 153.296L315.668 149.543" stroke="#443D78" stroke-width="1.01322" stroke-miterlimit="10"/>
<path d="M314.965 150.667C314.871 150.188 314.88 149.693 314.991 149.217C315.103 148.741 315.314 148.295 315.612 147.907C316.229 147.072 319.867 144.545 320.539 145.882C321.277 147.315 317.826 151.189 314.965 150.667Z" fill="#A9E8CB" stroke="#443D78" stroke-width="0.506612" stroke-miterlimit="10"/>
<path d="M314.965 150.667L318.462 147.32" stroke="#443D78" stroke-width="0.253306" stroke-miterlimit="10"/>
<path d="M312.085 140.964L314.384 137.211" stroke="#443D78" stroke-width="1.01322" stroke-miterlimit="10"/>
<path d="M313.682 138.336C313.587 137.856 313.596 137.362 313.707 136.886C313.819 136.41 314.031 135.963 314.328 135.576C314.945 134.735 318.583 132.208 319.256 133.55C319.993 134.983 316.542 138.857 313.682 138.336Z" fill="#A9E8CB" stroke="#443D78" stroke-width="0.506612" stroke-miterlimit="10"/>
<path d="M313.681 138.336L317.179 134.988" stroke="#443D78" stroke-width="0.253306" stroke-miterlimit="10"/>
<path d="M311.105 133.074C311.01 132.594 311.019 132.1 311.13 131.624C311.242 131.148 311.454 130.701 311.751 130.314C312.368 129.478 316.006 126.951 316.679 128.288C317.416 129.721 313.965 133.595 311.105 133.074Z" fill="#A9E8CB" stroke="#443D78" stroke-width="0.506612" stroke-miterlimit="10"/>
<path d="M311.104 133.074L314.601 129.726" stroke="#443D78" stroke-width="0.253306" stroke-miterlimit="10"/>
<path d="M311.307 133.221C310.82 133.265 310.33 133.205 309.868 133.043C309.407 132.882 308.986 132.623 308.633 132.284C307.865 131.585 305.743 127.695 307.117 127.159C308.643 126.581 312.115 130.425 311.307 133.221Z" fill="#A9E8CB" stroke="#443D78" stroke-width="0.506612" stroke-miterlimit="10"/>
<path d="M311.306 133.221L308.35 129.382" stroke="#443D78" stroke-width="0.253306" stroke-miterlimit="10"/>
<path d="M328.731 142.24L322.106 206.213" stroke="#443D78" stroke-width="1.01322" stroke-miterlimit="10"/>
<path d="M323.571 194.013L321.272 190.26" stroke="#443D78" stroke-width="1.01322" stroke-miterlimit="10"/>
<path d="M321.974 191.405C322.068 190.925 322.059 190.43 321.946 189.954C321.834 189.478 321.621 189.032 321.322 188.645C320.706 187.809 317.067 185.282 316.395 186.619C315.652 188.037 319.114 191.912 321.974 191.405Z" fill="#A9E8CB" stroke="#443D78" stroke-width="0.506612" stroke-miterlimit="10"/>
<path d="M321.974 191.385L318.669 188.209" stroke="#443D78" stroke-width="0.253306" stroke-miterlimit="10"/>
<path d="M325.411 176.257L323.112 172.505" stroke="#443D78" stroke-width="1.01322" stroke-miterlimit="10"/>
<path d="M323.809 173.634C323.905 173.154 323.897 172.66 323.785 172.184C323.674 171.707 323.461 171.261 323.162 170.874C322.546 170.033 318.907 167.511 318.235 168.848C317.497 170.281 320.954 174.156 323.809 173.634Z" fill="#A9E8CB" stroke="#443D78" stroke-width="0.506612" stroke-miterlimit="10"/>
<path d="M323.809 173.634L320.509 170.459" stroke="#443D78" stroke-width="0.253306" stroke-miterlimit="10"/>
<path d="M324.658 183.535L322.358 179.782" stroke="#443D78" stroke-width="1.01322" stroke-miterlimit="10"/>
<path d="M323.056 180.907C323.152 180.427 323.143 179.932 323.032 179.456C322.92 178.98 322.708 178.533 322.409 178.147C321.792 177.311 318.154 174.784 317.482 176.121C316.744 177.559 320.201 181.428 323.056 180.907Z" fill="#A9E8CB" stroke="#443D78" stroke-width="0.506612" stroke-miterlimit="10"/>
<path d="M323.056 180.907L319.756 177.731" stroke="#443D78" stroke-width="0.253306" stroke-miterlimit="10"/>
<path d="M326.634 164.437L324.334 160.69" stroke="#443D78" stroke-width="1.01322" stroke-miterlimit="10"/>
<path d="M325.037 161.814C325.131 161.334 325.122 160.839 325.009 160.363C324.897 159.887 324.684 159.441 324.385 159.054C323.769 158.213 320.13 155.691 319.458 157.028C318.725 158.487 322.177 162.335 325.037 161.814Z" fill="#A9E8CB" stroke="#443D78" stroke-width="0.506612" stroke-miterlimit="10"/>
<path d="M325.037 161.814L321.732 158.639" stroke="#443D78" stroke-width="0.253306" stroke-miterlimit="10"/>
<path d="M327.862 152.572L325.562 148.819" stroke="#443D78" stroke-width="1.01322" stroke-miterlimit="10"/>
<path d="M326.265 149.943C326.359 149.463 326.349 148.968 326.237 148.492C326.125 148.016 325.912 147.57 325.613 147.183C325.001 146.347 321.363 143.82 320.686 145.157C319.953 146.596 323.405 150.465 326.265 149.943Z" fill="#A9E8CB" stroke="#443D78" stroke-width="0.506612" stroke-miterlimit="10"/>
<path d="M326.265 149.943L322.96 146.768" stroke="#443D78" stroke-width="0.253306" stroke-miterlimit="10"/>
<path d="M323.96 189.693L326.977 186.497" stroke="#443D78" stroke-width="1.01322" stroke-miterlimit="10"/>
<path d="M326.058 187.455C326.064 186.966 326.174 186.483 326.382 186.041C326.589 185.598 326.889 185.204 327.26 184.887C328.034 184.193 332.112 182.472 332.501 183.91C332.92 185.475 328.751 188.554 326.058 187.455Z" fill="#A9E8CB" stroke="#443D78" stroke-width="0.506612" stroke-miterlimit="10"/>
<path d="M326.058 187.456L330.171 184.897" stroke="#443D78" stroke-width="0.253306" stroke-miterlimit="10"/>
<path d="M325.942 170.55L328.959 167.349" stroke="#443D78" stroke-width="1.01322" stroke-miterlimit="10"/>
<path d="M328.043 168.307C328.048 167.818 328.157 167.335 328.364 166.892C328.57 166.449 328.87 166.056 329.241 165.739C330.014 165.045 334.092 163.323 334.482 164.767C334.906 166.331 330.732 169.405 328.043 168.307Z" fill="#A9E8CB" stroke="#443D78" stroke-width="0.506612" stroke-miterlimit="10"/>
<path d="M328.043 168.307L332.152 165.754" stroke="#443D78" stroke-width="0.253306" stroke-miterlimit="10"/>
<path d="M326.81 162.133L329.827 158.937" stroke="#443D78" stroke-width="1.01322" stroke-miterlimit="10"/>
<path d="M328.913 159.895C328.919 159.405 329.029 158.923 329.237 158.48C329.444 158.037 329.744 157.644 330.116 157.327C330.889 156.633 334.967 154.911 335.356 156.35C335.776 157.914 331.601 161.019 328.913 159.895Z" fill="#A9E8CB" stroke="#443D78" stroke-width="0.506612" stroke-miterlimit="10"/>
<path d="M328.913 159.895L333.021 157.337" stroke="#443D78" stroke-width="0.253306" stroke-miterlimit="10"/>
<path d="M328.089 149.801L331.106 146.601" stroke="#443D78" stroke-width="1.01322" stroke-miterlimit="10"/>
<path d="M330.191 147.563C330.195 147.074 330.304 146.591 330.511 146.148C330.718 145.705 331.017 145.312 331.389 144.995C332.167 144.296 336.245 142.574 336.629 144.018C337.054 145.583 332.88 148.662 330.191 147.563Z" fill="#A9E8CB" stroke="#443D78" stroke-width="0.506612" stroke-miterlimit="10"/>
<path d="M330.191 147.564L334.3 145.005" stroke="#443D78" stroke-width="0.253306" stroke-miterlimit="10"/>
<path d="M328.746 141.881C328.752 141.391 328.863 140.909 329.07 140.466C329.278 140.024 329.577 139.63 329.949 139.313C330.722 138.619 334.8 136.897 335.189 138.336C335.614 139.901 331.44 142.98 328.746 141.881Z" fill="#A9E8CB" stroke="#443D78" stroke-width="0.506612" stroke-miterlimit="10"/>
<path d="M328.746 141.882L332.86 139.323" stroke="#443D78" stroke-width="0.253306" stroke-miterlimit="10"/>
<path d="M328.918 142.063C328.433 142.006 327.966 141.847 327.547 141.594C327.129 141.342 326.769 141.003 326.492 140.599C325.886 139.754 324.607 135.51 326.073 135.272C327.675 135.019 330.308 139.5 328.918 142.063Z" fill="#A9E8CB" stroke="#443D78" stroke-width="0.506612" stroke-miterlimit="10"/>
<path d="M328.918 142.063L326.81 137.703" stroke="#443D78" stroke-width="0.253306" stroke-miterlimit="10"/>
<path d="M321.141 116.189V197.087" stroke="#443D78" stroke-width="1.01322" stroke-miterlimit="10"/>
<path d="M321.201 184.923L318.533 181.428" stroke="#443D78" stroke-width="1.01322" stroke-miterlimit="10"/>
<path d="M319.347 182.477C319.391 181.989 319.331 181.498 319.171 181.036C319.011 180.574 318.753 180.152 318.417 179.798C317.714 179.028 313.838 176.896 313.303 178.278C312.721 179.798 316.557 183.302 319.347 182.477Z" fill="#A9E8CB" stroke="#443D78" stroke-width="0.506612" stroke-miterlimit="10"/>
<path d="M319.347 182.477L315.733 179.661" stroke="#443D78" stroke-width="0.253306" stroke-miterlimit="10"/>
<path d="M321.201 169.719L318.533 166.23" stroke="#443D78" stroke-width="1.01322" stroke-miterlimit="10"/>
<path d="M319.347 167.273C319.391 166.787 319.331 166.297 319.171 165.835C319.011 165.374 318.753 164.953 318.417 164.599C317.714 163.824 313.838 161.692 313.303 163.08C312.721 164.599 316.557 168.109 319.347 167.273Z" fill="#A9E8CB" stroke="#443D78" stroke-width="0.506612" stroke-miterlimit="10"/>
<path d="M319.347 167.274L315.733 164.458" stroke="#443D78" stroke-width="0.253306" stroke-miterlimit="10"/>
<path d="M321.201 151.873L318.533 148.378" stroke="#443D78" stroke-width="1.01322" stroke-miterlimit="10"/>
<path d="M319.347 149.427C319.391 148.939 319.331 148.448 319.171 147.986C319.011 147.524 318.753 147.102 318.417 146.747C317.714 145.978 313.838 143.846 313.303 145.228C312.721 146.747 316.557 150.242 319.347 149.427Z" fill="#A9E8CB" stroke="#443D78" stroke-width="0.506612" stroke-miterlimit="10"/>
<path d="M319.347 149.427L315.733 146.611" stroke="#443D78" stroke-width="0.253306" stroke-miterlimit="10"/>
<path d="M321.201 139.992L318.533 136.497" stroke="#443D78" stroke-width="1.01322" stroke-miterlimit="10"/>
<path d="M319.347 137.546C319.391 137.058 319.331 136.567 319.171 136.105C319.011 135.643 318.753 135.221 318.417 134.867C317.714 134.097 313.838 131.96 313.303 133.347C312.721 134.867 316.557 138.361 319.347 137.546Z" fill="#A9E8CB" stroke="#443D78" stroke-width="0.506612" stroke-miterlimit="10"/>
<path d="M319.347 137.547L315.733 134.73" stroke="#443D78" stroke-width="0.253306" stroke-miterlimit="10"/>
<path d="M321.201 128.055L318.533 124.566" stroke="#443D78" stroke-width="1.01322" stroke-miterlimit="10"/>
<path d="M319.347 125.614C319.391 125.127 319.331 124.636 319.171 124.174C319.011 123.712 318.753 123.289 318.417 122.935C317.714 122.165 313.838 120.028 313.303 121.416C312.721 122.935 316.557 126.429 319.347 125.614Z" fill="#A9E8CB" stroke="#443D78" stroke-width="0.506612" stroke-miterlimit="10"/>
<path d="M319.347 125.615L315.733 122.798" stroke="#443D78" stroke-width="0.253306" stroke-miterlimit="10"/>
<path d="M321.146 189.567L323.819 186.072" stroke="#443D78" stroke-width="1.01322" stroke-miterlimit="10"/>
<path d="M323.006 187.121C322.961 186.633 323.021 186.142 323.181 185.68C323.341 185.218 323.599 184.796 323.935 184.441C324.633 183.672 328.514 181.535 329.044 182.922C329.626 184.441 325.79 187.936 323.006 187.121Z" fill="#A9E8CB" stroke="#443D78" stroke-width="0.506612" stroke-miterlimit="10"/>
<path d="M323.005 187.121L326.831 184.153" stroke="#443D78" stroke-width="0.253306" stroke-miterlimit="10"/>
<path d="M321.146 165.389L323.819 161.895" stroke="#443D78" stroke-width="1.01322" stroke-miterlimit="10"/>
<path d="M323.006 162.943C322.961 162.456 323.021 161.965 323.181 161.503C323.341 161.041 323.599 160.618 323.935 160.264C324.633 159.494 328.514 157.357 329.044 158.745C329.626 160.264 325.79 163.759 323.006 162.943Z" fill="#A9E8CB" stroke="#443D78" stroke-width="0.506612" stroke-miterlimit="10"/>
<path d="M323.005 162.943L326.831 159.976" stroke="#443D78" stroke-width="0.253306" stroke-miterlimit="10"/>
<path d="M321.146 153.453L323.819 149.958" stroke="#443D78" stroke-width="1.01322" stroke-miterlimit="10"/>
<path d="M323.006 151.007C322.961 150.519 323.021 150.028 323.181 149.566C323.341 149.104 323.599 148.682 323.935 148.328C324.633 147.558 328.514 145.426 329.044 146.808C329.626 148.328 325.79 151.822 323.006 151.007Z" fill="#A9E8CB" stroke="#443D78" stroke-width="0.506612" stroke-miterlimit="10"/>
<path d="M323.005 151.007L326.831 148.039" stroke="#443D78" stroke-width="0.253306" stroke-miterlimit="10"/>
<path d="M321.146 137.682L323.819 134.188" stroke="#443D78" stroke-width="1.01322" stroke-miterlimit="10"/>
<path d="M323.006 135.236C322.961 134.749 323.021 134.258 323.181 133.796C323.341 133.334 323.599 132.911 323.935 132.557C324.633 131.787 328.514 129.65 329.044 131.038C329.626 132.557 325.79 136.052 323.006 135.236Z" fill="#A9E8CB" stroke="#443D78" stroke-width="0.506612" stroke-miterlimit="10"/>
<path d="M323.005 135.236L326.831 132.269" stroke="#443D78" stroke-width="0.253306" stroke-miterlimit="10"/>
<path d="M321.146 125.28L323.819 121.785" stroke="#443D78" stroke-width="1.01322" stroke-miterlimit="10"/>
<path d="M323.006 122.834C322.961 122.346 323.021 121.855 323.181 121.393C323.341 120.931 323.599 120.509 323.935 120.155C324.633 119.385 328.514 117.253 329.044 118.635C329.626 120.155 325.79 123.649 323.006 122.834Z" fill="#A9E8CB" stroke="#443D78" stroke-width="0.506612" stroke-miterlimit="10"/>
<path d="M323.005 122.834L326.831 119.866" stroke="#443D78" stroke-width="0.253306" stroke-miterlimit="10"/>
<path d="M320.984 117.334C320.939 116.847 320.999 116.355 321.16 115.893C321.32 115.431 321.577 115.009 321.914 114.655C322.611 113.885 326.492 111.753 327.028 113.135C327.609 114.655 323.774 118.149 320.984 117.334Z" fill="#A9E8CB" stroke="#443D78" stroke-width="0.506612" stroke-miterlimit="10"/>
<path d="M320.984 117.334L324.809 114.366" stroke="#443D78" stroke-width="0.253306" stroke-miterlimit="10"/>
<path d="M321.171 117.501C320.682 117.494 320.201 117.383 319.759 117.174C319.317 116.966 318.925 116.664 318.609 116.29C317.921 115.516 316.208 111.424 317.643 111.039C319.19 110.618 322.272 114.807 321.171 117.501Z" fill="#A9E8CB" stroke="#443D78" stroke-width="0.506612" stroke-miterlimit="10"/>
<path d="M321.171 117.501L318.629 113.378" stroke="#443D78" stroke-width="0.253306" stroke-miterlimit="10"/>
<path d="M324.461 218.069H315.91L314.844 196.429H325.527L324.461 218.069Z" fill="#443D78" stroke="#443D78" stroke-width="0.506612" stroke-miterlimit="10"/>
<path d="M327.781 47.0709C327.782 44.1935 327.092 41.358 325.768 38.8046C324.444 36.2512 322.526 34.055 320.176 32.4018C317.826 30.7486 315.113 29.6871 312.267 29.3072C309.42 28.9273 306.525 29.2401 303.825 30.2192C301.125 31.1983 298.7 32.8148 296.755 34.932C294.811 37.0491 293.404 39.6046 292.654 42.3821C291.903 45.1596 291.832 48.0773 292.445 50.8884C293.058 53.6995 294.338 56.3212 296.176 58.5316C298.809 61.6937 300.25 65.6816 300.249 69.7997V72.2509H319.544V69.7997C319.533 65.6882 320.964 61.7034 323.586 58.5417C326.288 55.3317 327.773 51.27 327.781 47.0709Z" fill="white" stroke="#443D78" stroke-width="0.506612" stroke-linecap="round" stroke-linejoin="round"/>
<path d="M319.544 72.256H300.224V77.0469H319.544V72.256Z" fill="#A9E8CB" stroke="#443D78" stroke-width="0.506612" stroke-linecap="round" stroke-linejoin="round"/>
<path d="M300.224 77.057H319.544V79.4524C319.544 80.0878 319.292 80.697 318.843 81.1463C318.395 81.5955 317.787 81.8479 317.153 81.8479H302.609C301.975 81.8479 301.367 81.5955 300.919 81.1463C300.471 80.697 300.219 80.0878 300.219 79.4524V77.057H300.224Z" fill="#A9E8CB" stroke="#443D78" stroke-width="0.506612" stroke-linecap="round" stroke-linejoin="round"/>
<path d="M302.66 81.8428H317.103V83.3621C317.103 84.223 316.761 85.0487 316.154 85.6575C315.547 86.2663 314.723 86.6083 313.863 86.6083H305.899C305.04 86.6083 304.216 86.2663 303.609 85.6575C303.001 85.0487 302.66 84.223 302.66 83.3621V81.8428Z" fill="#443D78" stroke="#443D78" stroke-width="0.506612" stroke-linecap="round" stroke-linejoin="round"/>
<path d="M330.292 47.1672H338.479" stroke="#443D78" stroke-width="0.506612" stroke-linecap="round" stroke-linejoin="round"/>
<path d="M280.521 47.1672H288.814" stroke="#443D78" stroke-width="0.506612" stroke-linecap="round" stroke-linejoin="round"/>
<path d="M309.502 26.3527V18.1282" stroke="#443D78" stroke-width="0.506612" stroke-linecap="round" stroke-linejoin="round"/>
<path d="M324.339 32.2933L329.989 26.6313" stroke="#443D78" stroke-width="0.506612" stroke-linecap="round" stroke-linejoin="round"/>
<path d="M289.01 67.698L294.741 61.9551" stroke="#443D78" stroke-width="0.506612" stroke-linecap="round" stroke-linejoin="round"/>
<path d="M294.499 32.1312L289.01 26.6313" stroke="#443D78" stroke-width="0.506612" stroke-linecap="round" stroke-linejoin="round"/>
<path d="M329.989 67.6979L324.526 62.2234" stroke="#443D78" stroke-width="0.506612" stroke-linecap="round" stroke-linejoin="round"/>
<path d="M202.316 60.7815L178.66 28L155 60.7815H164.733V97.1992H192.588V60.7815H202.316Z" fill="#A9E8CB" stroke="#443D78" stroke-width="0.506612" stroke-linecap="round" stroke-linejoin="round"/>
<path d="M59.7443 55.3453C68.3728 53.777 74.0988 45.4959 72.5339 36.8489C70.969 28.2019 62.7056 22.4635 54.0772 24.0318C45.4488 25.6001 39.7227 33.8812 41.2876 42.5282C42.8526 51.1752 51.1159 56.9136 59.7443 55.3453Z" fill="white" stroke="#443D78" stroke-width="0.506612" stroke-linecap="round" stroke-linejoin="round"/>
<path d="M61.3969 24.4384L56.9144 39.6922H72.7925C72.7909 36.2575 71.68 32.9156 69.626 30.1661C67.5719 27.4166 64.685 25.4072 61.3969 24.4384Z" fill="#A9E8CB" stroke="#443D78" stroke-width="0.506612" stroke-linecap="round" stroke-linejoin="round"/>
<path d="M66.7736 29.6547L73.0752 22.2101H78.4825" stroke="#443D78" stroke-width="0.253306" stroke-linecap="round" stroke-linejoin="round"/>
<path d="M82.313 22.433H90.4188" stroke="#443D78" stroke-width="0.253306" stroke-linecap="round" stroke-linejoin="round"/>
<path d="M82.313 24.4637H90.4188" stroke="#443D78" stroke-width="0.253306" stroke-linecap="round" stroke-linejoin="round"/>
<path d="M82.313 26.4945H90.4188" stroke="#443D78" stroke-width="0.253306" stroke-linecap="round" stroke-linejoin="round"/>
<path d="M82.313 28.5254H90.4188" stroke="#443D78" stroke-width="0.253306" stroke-linecap="round" stroke-linejoin="round"/>
<path d="M41.7236 72.4281H37.1047V86.2386H41.7236V72.4281Z" fill="#443D78" stroke="#443D78" stroke-width="0.253306" stroke-linecap="round" stroke-linejoin="round"/>
<path d="M48.9805 77.3964H44.3616V86.2387H48.9805V77.3964Z" fill="#A9E8CB" stroke="#443D78" stroke-width="0.506612" stroke-linecap="round" stroke-linejoin="round"/>
<path d="M56.2421 69.4048H51.6232V86.2387H56.2421V69.4048Z" fill="#443D78" stroke="#443D78" stroke-width="0.253306" stroke-linecap="round" stroke-linejoin="round"/>
<path d="M63.5039 72.8891H58.8851V86.2437H63.5039V72.8891Z" fill="#A9E8CB" stroke="#443D78" stroke-width="0.506612" stroke-linecap="round" stroke-linejoin="round"/>
<path d="M70.7607 69.8352H66.1418V86.2386H70.7607V69.8352Z" fill="#443D78" stroke="#443D78" stroke-width="0.253306" stroke-linecap="round" stroke-linejoin="round"/>
<path d="M78.0228 60.1167H73.4039V86.2437H78.0228V60.1167Z" fill="#A9E8CB" stroke="#443D78" stroke-width="0.506612" stroke-linecap="round" stroke-linejoin="round"/>
<path d="M83.2126 59.8432H85.9163" stroke="#443D78" stroke-width="0.253306" stroke-linecap="round" stroke-linejoin="round"/>
<path d="M83.2126 65.1203H85.9163" stroke="#443D78" stroke-width="0.253306" stroke-linecap="round" stroke-linejoin="round"/>
<path d="M83.2126 70.4024H85.9163" stroke="#443D78" stroke-width="0.253306" stroke-linecap="round" stroke-linejoin="round"/>
<path d="M83.2126 75.6846H85.9163" stroke="#443D78" stroke-width="0.253306" stroke-linecap="round" stroke-linejoin="round"/>
<path d="M83.2126 80.9667H85.9163" stroke="#443D78" stroke-width="0.253306" stroke-linecap="round" stroke-linejoin="round"/>
<path d="M83.2126 86.2437H85.9163" stroke="#443D78" stroke-width="0.253306" stroke-linecap="round" stroke-linejoin="round"/>
<path d="M39.7477 67.3384L46.8225 71.6279L54.1855 63.7275L61.4574 64.3403L68.502 61.5397L76.4764 51.0261" stroke="#443D78" stroke-width="0.506612" stroke-linecap="round" stroke-linejoin="round"/>
<path d="M40.637 67.3286C40.637 67.151 40.5844 66.9775 40.4859 66.8299C40.3873 66.6823 40.2473 66.5674 40.0836 66.4997C39.9199 66.432 39.7398 66.4145 39.5661 66.4495C39.3925 66.4845 39.2331 66.5704 39.1082 66.6963C38.9833 66.8223 38.8985 66.9825 38.8646 67.1568C38.8307 67.3311 38.8491 67.5115 38.9176 67.6753C38.986 67.839 39.1015 67.9787 39.2492 68.0766C39.397 68.1746 39.5704 68.2263 39.7475 68.2253C39.8648 68.2253 39.9808 68.2021 40.0891 68.1569C40.1973 68.1118 40.2956 68.0457 40.3782 67.9624C40.4609 67.879 40.5263 67.7801 40.5707 67.6714C40.6151 67.5626 40.6376 67.4461 40.637 67.3286Z" fill="#443D78"/>
<path d="M47.7169 71.6284C47.7169 71.4511 47.6645 71.2777 47.5662 71.1302C47.4679 70.9828 47.3282 70.8678 47.1647 70.8C47.0013 70.7321 46.8215 70.7143 46.6479 70.7489C46.4744 70.7835 46.3151 70.8689 46.19 70.9943C46.0649 71.1197 45.9797 71.2795 45.9452 71.4535C45.9107 71.6274 45.9284 71.8077 45.9961 71.9716C46.0638 72.1354 46.1784 72.2755 46.3255 72.374C46.4726 72.4725 46.6455 72.5251 46.8224 72.5251C46.9401 72.5258 47.0567 72.5031 47.1655 72.4582C47.2744 72.4134 47.3732 72.3474 47.4564 72.264C47.5396 72.1806 47.6055 72.0815 47.6502 71.9724C47.6949 71.8633 47.7176 71.7464 47.7169 71.6284Z" fill="#443D78"/>
<path d="M55.0749 63.728C55.0749 63.5504 55.0223 63.3769 54.9238 63.2293C54.8253 63.0817 54.6853 62.9668 54.5216 62.8991C54.3579 62.8314 54.1778 62.8139 54.0041 62.8489C53.8305 62.8839 53.6711 62.9698 53.5462 63.0958C53.4213 63.2217 53.3365 63.3819 53.3026 63.5562C53.2686 63.7305 53.2871 63.9109 53.3556 64.0747C53.424 64.2384 53.5395 64.3781 53.6872 64.4761C53.835 64.574 54.0084 64.6257 54.1855 64.6247C54.3028 64.6247 54.4188 64.6015 54.5271 64.5564C54.6353 64.5112 54.7336 64.4451 54.8162 64.3618C54.8989 64.2784 54.9643 64.1795 55.0087 64.0708C55.0531 63.962 55.0756 63.8455 55.0749 63.728Z" fill="#443D78"/>
<path d="M62.3465 64.3408C62.3465 64.1632 62.294 63.9897 62.1954 63.8421C62.0969 63.6945 61.9569 63.5796 61.7932 63.5119C61.6295 63.4442 61.4494 63.4267 61.2757 63.4617C61.1021 63.4967 60.9427 63.5826 60.8178 63.7085C60.6929 63.8345 60.6081 63.9947 60.5742 64.169C60.5403 64.3433 60.5587 64.5237 60.6272 64.6875C60.6956 64.8512 60.8111 64.9909 60.9588 65.0888C61.1066 65.1868 61.28 65.2385 61.4571 65.2375C61.5744 65.2375 61.6904 65.2143 61.7987 65.1691C61.9069 65.124 62.0052 65.0579 62.0878 64.9746C62.1705 64.8912 62.2359 64.7923 62.2803 64.6836C62.3247 64.5748 62.3472 64.4583 62.3465 64.3408Z" fill="#443D78"/>
<path d="M69.3963 61.3984C69.3963 61.2211 69.3438 61.0477 69.2455 60.9002C69.1473 60.7528 69.0076 60.6379 68.8441 60.57C68.6807 60.5021 68.5008 60.4844 68.3273 60.519C68.1538 60.5536 67.9944 60.639 67.8693 60.7644C67.7442 60.8898 67.6591 61.0495 67.6245 61.2235C67.59 61.3974 67.6077 61.5777 67.6754 61.7416C67.7431 61.9054 67.8578 62.0455 68.0049 62.144C68.152 62.2425 68.3249 62.2951 68.5018 62.2951C68.739 62.2951 68.9666 62.2007 69.1343 62.0325C69.3021 61.8643 69.3963 61.6362 69.3963 61.3984Z" fill="#443D78"/>
<path d="M77.3657 51.0266C77.3656 50.849 77.3131 50.6755 77.2145 50.5279C77.116 50.3803 76.976 50.2654 76.8123 50.1977C76.6486 50.13 76.4685 50.1125 76.2948 50.1475C76.1212 50.1825 75.9618 50.2684 75.8369 50.3943C75.712 50.5202 75.6272 50.6805 75.5933 50.8548C75.5594 51.0291 75.5778 51.2095 75.6463 51.3733C75.7147 51.537 75.8302 51.6767 75.9779 51.7746C76.1257 51.8726 76.2991 51.9243 76.4762 51.9233C76.7126 51.922 76.9388 51.8269 77.1055 51.6589C77.2721 51.4909 77.3657 51.2635 77.3657 51.0266Z" fill="#443D78"/>
<path d="M253.49 196.176H256.37V168.362H253.49V196.176Z" fill="#443D78" stroke="#443D78" stroke-width="0.506612" stroke-linecap="round" stroke-linejoin="round"/>
<path d="M267.835 169.339L272.914 169.934L276.138 142.309L271.058 141.713L267.835 169.339Z" fill="#443D78" stroke="#443D78" stroke-width="0.506612" stroke-linecap="round" stroke-linejoin="round"/>
<path d="M251.271 197.315V192.625H258.583V197.355L287.833 209.12V214.67H285.837V210.452L254.824 203.377L224.629 210.452V214.67H222.689V209.12L251.271 197.315Z" fill="#8C8C8C" stroke="#443D78" stroke-width="0.506612" stroke-linecap="round" stroke-linejoin="round"/>
<path d="M247.729 177.245H262.131V168.362H247.729V177.245Z" fill="#443D78" stroke="#443D78" stroke-width="0.506612" stroke-linecap="round" stroke-linejoin="round"/>
<path d="M287.858 214.893C287.858 214.278 288.04 213.677 288.382 213.165C288.723 212.654 289.208 212.255 289.775 212.02C290.342 211.785 290.966 211.724 291.568 211.844C292.17 211.964 292.723 212.261 293.157 212.696C293.591 213.132 293.886 213.686 294.005 214.29C294.124 214.893 294.062 215.519 293.826 216.087C293.591 216.655 293.192 217.14 292.681 217.481C292.17 217.822 291.57 218.004 290.956 218.003C290.549 218.003 290.146 217.922 289.769 217.766C289.393 217.61 289.052 217.381 288.764 217.092C288.476 216.803 288.248 216.46 288.093 216.083C287.937 215.706 287.858 215.302 287.858 214.893Z" fill="#443D78" stroke="#443D78" stroke-width="0.506612" stroke-linecap="round" stroke-linejoin="round"/>
<path d="M289.602 214.894C289.602 214.63 289.68 214.373 289.826 214.153C289.972 213.934 290.179 213.764 290.422 213.663C290.665 213.562 290.932 213.535 291.19 213.587C291.448 213.638 291.685 213.765 291.871 213.952C292.057 214.138 292.183 214.375 292.234 214.634C292.286 214.892 292.259 215.16 292.159 215.404C292.058 215.647 291.888 215.855 291.669 216.002C291.451 216.148 291.194 216.226 290.931 216.226C290.578 216.226 290.24 216.086 289.991 215.836C289.742 215.586 289.602 215.247 289.602 214.894Z" fill="white" stroke="#443D78" stroke-width="0.506612" stroke-linecap="round" stroke-linejoin="round"/>
<path d="M216.261 214.893C216.261 214.278 216.443 213.677 216.784 213.166C217.124 212.655 217.609 212.256 218.176 212.021C218.743 211.785 219.367 211.724 219.969 211.844C220.571 211.964 221.124 212.26 221.557 212.695C221.991 213.13 222.287 213.684 222.407 214.287C222.526 214.89 222.465 215.515 222.23 216.083C221.995 216.652 221.598 217.137 221.087 217.479C220.577 217.821 219.977 218.003 219.363 218.003C218.541 218.003 217.751 217.675 217.169 217.092C216.588 216.509 216.261 215.718 216.261 214.893Z" fill="#443D78" stroke="#443D78" stroke-width="0.506612" stroke-linecap="round" stroke-linejoin="round"/>
<path d="M219.364 216.226C220.098 216.226 220.693 215.63 220.693 214.894C220.693 214.158 220.098 213.561 219.364 213.561C218.63 213.561 218.035 214.158 218.035 214.894C218.035 215.63 218.63 216.226 219.364 216.226Z" fill="white" stroke="#443D78" stroke-width="0.506612" stroke-linecap="round" stroke-linejoin="round"/>
<path d="M253.596 214.832H256.031L257.254 198.176H252.378L253.596 214.832Z" fill="#8C8C8C" stroke="#443D78" stroke-width="0.506612" stroke-linecap="round" stroke-linejoin="round"/>
<path d="M253.712 218.16H256.148V211.277H253.712V218.16Z" fill="#443D78" stroke="#443D78" stroke-width="0.506612" stroke-linecap="round" stroke-linejoin="round"/>
<path d="M274.113 155.58C275.534 155.717 276.968 155.573 278.334 155.155C279.699 154.737 280.969 154.053 282.071 153.143C283.173 152.233 284.085 151.115 284.756 149.851C285.426 148.588 285.842 147.205 285.978 145.78L289.374 110.375C289.65 107.499 288.775 104.631 286.942 102.401C285.108 100.171 282.466 98.7624 279.596 98.4843C276.725 98.2091 273.863 99.0872 271.638 100.926C269.413 102.764 268.008 105.412 267.73 108.289L264.329 143.739C264.066 146.608 264.948 149.465 266.781 151.684C268.615 153.903 271.251 155.304 274.113 155.58Z" fill="#8C8C8C" stroke="#443D78" stroke-width="0.506612" stroke-linecap="round" stroke-linejoin="round"/>
<path d="M271.536 155.332C274.406 155.608 277.268 154.731 279.493 152.894C281.718 151.056 283.124 148.408 283.401 145.532L286.802 110.082C287.07 107.21 286.19 104.348 284.356 102.125C282.522 99.9019 279.884 98.4979 277.019 98.2209C275.597 98.084 274.163 98.229 272.798 98.6477C271.433 99.0663 270.163 99.7505 269.062 100.661C267.96 101.571 267.049 102.69 266.379 103.954C265.709 105.218 265.294 106.601 265.158 108.025L261.757 143.445C261.481 146.321 262.356 149.189 264.19 151.418C266.024 153.647 268.666 155.055 271.536 155.332Z" fill="#8C8C8C" stroke="#443D78" stroke-width="0.506612" stroke-linecap="round" stroke-linejoin="round"/>
<path d="M224.23 171.147L274.947 172.484C275.228 172.493 275.508 172.446 275.772 172.346C276.035 172.247 276.276 172.096 276.481 171.902C276.686 171.709 276.851 171.477 276.967 171.22C277.083 170.963 277.146 170.685 277.155 170.403L277.413 162.27C277.421 161.988 277.375 161.707 277.275 161.443C277.175 161.179 277.025 160.937 276.832 160.732C276.639 160.526 276.407 160.361 276.151 160.245C275.894 160.129 275.617 160.065 275.336 160.056L224.624 158.719C224.343 158.71 224.063 158.756 223.799 158.856C223.536 158.955 223.295 159.105 223.09 159.298C222.885 159.491 222.719 159.723 222.604 159.98C222.488 160.237 222.424 160.514 222.416 160.796L222.163 168.934C222.145 169.502 222.353 170.054 222.74 170.469C223.128 170.884 223.663 171.128 224.23 171.147Z" fill="#8C8C8C" stroke="#443D78" stroke-width="0.506612" stroke-linecap="round" stroke-linejoin="round"/>
<path d="M245.435 171.541L274.953 172.476C276.136 172.513 277.125 171.583 277.162 170.397L277.419 162.263C277.456 161.078 276.528 160.086 275.345 160.049L245.827 159.114C244.644 159.077 243.655 160.007 243.618 161.192L243.361 169.327C243.324 170.512 244.253 171.503 245.435 171.541Z" fill="#8C8C8C" stroke="#443D78" stroke-width="0.506612" stroke-linecap="round" stroke-linejoin="round"/>
<path d="M220.849 205.95L220.602 207.823C220.602 207.823 218.358 212.32 217.484 213.07C216.609 213.82 211.126 216.19 210.131 216.564C209.135 216.939 210.879 218.084 213.249 218.19C215.619 218.296 219.98 218.317 221.476 217.942C222.972 217.567 225.837 215.44 226.464 215.319L226.969 216.939C226.969 216.939 229.713 215.926 230.709 215.693C231.704 215.46 233.326 214.174 233.326 214.174C232.76 212.429 232.095 210.718 231.335 209.049C230.875 208.211 230.285 207.452 229.587 206.8L227.722 204.572L220.849 205.95Z" fill="#443D78" stroke="#443D78" stroke-width="0.506612" stroke-linecap="round" stroke-linejoin="round"/>
<path d="M235.934 134.583L231.82 137.08L222.845 139.703C222.845 139.703 194.425 144.95 192.802 146.839C191.18 148.728 191.792 150.338 193.176 152.713C194.561 155.088 218.626 207.697 218.626 207.697L228.601 205.697L211.894 155.321C211.894 155.321 243.312 161.692 248.785 160.69C254.258 159.687 261.252 153.822 262.495 149.325C263.738 144.828 258.007 137.677 258.007 137.677L235.934 134.583Z" fill="#A9E8CB" stroke="#443D78" stroke-width="0.506612" stroke-linecap="round" stroke-linejoin="round"/>
<path d="M204.825 150.434C204.825 150.434 211.106 153.473 212.233 156.891" stroke="#443D78" stroke-width="0.506612" stroke-linecap="round" stroke-linejoin="round"/>
<path d="M268.468 92.8578L255.006 91.6069L235.312 136.33L248.274 138.579L268.468 92.8578Z" fill="white" stroke="#443D78" stroke-width="0.506612" stroke-linecap="round" stroke-linejoin="round"/>
<path d="M255.253 95.7851C255.253 95.7851 235.56 135.697 235.302 136.33C235.044 136.963 229.445 138.579 228.197 138.827C226.949 139.075 222.835 139.703 222.835 139.703L229.819 134.958L234.797 122.089L228.733 118.985C228.733 118.985 239.951 102.121 242.443 96.3725C244.934 90.6245 245.914 89.1052 248.401 88.9836C250.887 88.8621 258.002 89.3584 258.002 89.3584L255.253 95.7851Z" fill="#A9E8CB" stroke="#443D78" stroke-width="0.506612" stroke-linecap="round" stroke-linejoin="round"/>
<path d="M252.514 104.222L252.762 107.099C252.762 107.099 239.673 130.582 239.552 131.083C239.431 131.585 240.563 135.079 240.563 135.079L245.177 131.706L253.899 107.6L256.269 106.223V101.761L252.514 104.222Z" fill="#443D78" stroke="#443D78" stroke-width="0.506612" stroke-linecap="round" stroke-linejoin="round"/>
<path d="M257.719 61.0537C257.719 61.0537 253.09 72.2864 252.065 75.6897C251.039 79.0929 250.316 84.6536 250.548 85.2714C250.781 85.8893 252.065 88.0518 254.455 88.1581C256.845 88.2645 258.877 88.2594 258.877 88.2594L255.279 95.785C255.279 95.785 255.688 101.66 256.289 101.761C256.891 101.862 265.957 94.8582 266.164 94.5442C266.371 94.2303 272.127 81.8834 272.127 81.8834C272.127 81.8834 277.271 79.3056 277.58 77.0368C277.68 76.4021 277.609 75.752 277.373 75.1542C277.138 74.5565 276.747 74.0331 276.24 73.6386V70.8532L278.504 64.0518C278.504 64.0518 272.849 60.3447 266.573 58.795C260.297 57.2453 258.963 58.2886 258.963 58.2886L257.719 61.0537Z" fill="white" stroke="#443D78" stroke-width="0.506612" stroke-linecap="round" stroke-linejoin="round"/>
<path d="M268.104 54.7688C268.104 54.7688 258.851 52.2923 254.738 55.9032C250.624 59.5141 261.317 65.3026 264.815 65.8091C268.312 66.3155 272.632 65.6014 271.601 66.5333C270.57 67.4651 268.311 68.9034 269.443 69.8302C270.154 70.402 270.953 70.8536 271.809 71.1672C271.809 71.1672 266.977 81.8023 266.154 83.0177C265.33 84.2332 263.789 84.1521 262.864 83.8432C261.939 83.5343 257.517 80.754 256.077 80.2374C254.637 79.7208 251.963 78.1762 251.347 79.8272C250.73 81.4782 249.184 88.4822 251.448 90.0268C253.712 91.5714 264.713 87.6567 266.361 86.5223C268.008 85.3878 268.519 83.3267 268.827 82.9164C269.135 82.5062 273.557 75.1882 273.966 74.6717C274.376 74.1551 276.23 73.6588 276.23 73.6588C276.23 73.6588 279.934 66.2345 280.243 63.3529C280.551 60.4712 270.884 54.6675 268.104 54.7688Z" fill="#443D78" stroke="#443D78" stroke-width="0.506612" stroke-linecap="round" stroke-linejoin="round"/>
<path d="M258.442 69.0908L258.235 73.6487C258.235 73.6487 253.404 79.1081 253.404 79.726C253.404 80.3438 259.159 79.6247 259.159 79.6247" stroke="#443D78" stroke-width="0.506612" stroke-linecap="round" stroke-linejoin="round"/>
<path d="M257.719 68.0629C257.543 67.7174 257.251 67.4453 256.894 67.2943C256.537 67.1433 256.139 67.123 255.769 67.2372" stroke="#443D78" stroke-width="0.506612" stroke-linecap="round" stroke-linejoin="round"/>
<path d="M262.04 70.6354C262.04 70.6354 265.022 70.3263 265.946 72.596" stroke="#443D78" stroke-width="0.506612" stroke-linecap="round" stroke-linejoin="round"/>
<path d="M254 82.0757C254 82.0757 256.673 83.7272 258.422 83.7272" stroke="white" stroke-width="0.506612" stroke-linecap="round" stroke-linejoin="round"/>
<path d="M263.056 75.1027C262.773 75.665 262.257 75.969 261.904 75.7917C261.55 75.6144 261.489 75.0115 261.772 74.4542C262.055 73.897 262.571 73.5879 262.924 73.7652C263.278 73.9426 263.339 74.5454 263.056 75.1027Z" fill="#443D78"/>
<path d="M256.618 72.5958C256.34 73.1531 255.819 73.4621 255.465 73.2797C255.112 73.0974 255.051 72.5046 255.334 71.9423C255.617 71.3799 256.132 71.076 256.486 71.2584C256.84 71.4407 256.901 72.0335 256.618 72.5958Z" fill="#443D78"/>
<path d="M212 201.771L211.126 207.018L209.256 207.525C209.256 207.525 207.508 209.636 207.139 210.143C206.77 210.649 202.151 214.012 200.908 214.64C199.665 215.268 196.542 215.511 196.668 216.387C196.794 217.263 203.399 218.013 207.639 218.134C211.879 218.256 214.244 216.889 214.244 216.889L214.618 217.76L218.979 217.385C218.979 217.385 218.732 213.262 218.858 211.515C218.898 210.094 218.813 208.673 218.605 207.266L218.358 203.645L212 201.771Z" fill="#443D78" stroke="#443D78" stroke-width="0.506612" stroke-linecap="round" stroke-linejoin="round"/>
<path d="M247.031 140.453C247.031 140.453 211.626 144.823 210.879 145.699C210.131 146.575 210.752 172.434 210.752 172.434L206.639 202.698L219.353 206.598C219.353 206.598 223.345 181.079 224.715 174.186C225.651 169.061 226.318 163.89 226.711 158.694C226.711 158.694 246.283 163.191 252.989 159.444C259.695 155.696 258.346 151.072 258.346 151.072" fill="#A9E8CB"/>
<path d="M247.031 140.453C247.031 140.453 211.626 144.823 210.879 145.699C210.131 146.575 210.752 172.434 210.752 172.434L206.639 202.698L219.353 206.598C219.353 206.598 223.345 181.079 224.715 174.186C225.651 169.061 226.318 163.89 226.711 158.694C226.711 158.694 246.283 163.191 252.989 159.444C259.695 155.696 258.346 151.072 258.346 151.072" stroke="#443D78" stroke-width="0.506612" stroke-linecap="round" stroke-linejoin="round"/>
<path d="M211.43 171.421C211.43 171.421 213.042 164.159 213.36 160.279" stroke="#443D78" stroke-width="0.506612" stroke-linecap="round" stroke-linejoin="round"/>
<path d="M224.078 154.517C223.695 154.002 223.233 153.55 222.709 153.179" stroke="#443D78" stroke-width="0.506612" stroke-linecap="round" stroke-linejoin="round"/>
<path d="M226.711 158.695C226.711 158.695 225.994 157.287 225.054 155.863" stroke="#443D78" stroke-width="0.506612" stroke-linecap="round" stroke-linejoin="round"/>
<path d="M267.973 90.4825C267.973 90.4825 253.884 116.453 250.892 123.087C247.9 129.721 243.893 138.953 243.893 139.951C243.893 140.949 241.275 166.564 242.15 167.061C243.024 167.557 256.107 163.313 262.217 160.943C268.327 158.573 268.574 156.82 269.075 155.443C269.575 154.065 269.449 136.33 269.449 136.33C269.449 136.33 282.163 100.1 282.037 98.4791C281.91 96.8586 267.973 90.4825 267.973 90.4825Z" fill="#A9E8CB" stroke="#443D78" stroke-width="0.506612" stroke-linecap="round" stroke-linejoin="round"/>
<path d="M257.265 116.756C254.955 119.025 253.015 120.717 253.015 120.717" stroke="#443D78" stroke-width="0.506612" stroke-linecap="round" stroke-linejoin="round"/>
<path d="M272.46 93.354C272.46 93.354 266.603 104.85 263.607 109.474C262.128 111.593 260.46 113.573 258.624 115.389" stroke="#443D78" stroke-width="0.506612" stroke-linecap="round" stroke-linejoin="round"/>
<path d="M253.722 90.9435C253.722 90.9435 247.658 101.103 245.909 107.099C244.161 113.095 243.787 116.215 243.787 116.215" stroke="#443D78" stroke-width="0.506612" stroke-linecap="round" stroke-linejoin="round"/>
<path d="M250.518 105.473L256.279 101.761L256.502 110.472" stroke="#443D78" stroke-width="0.506612" stroke-linecap="round" stroke-linejoin="round"/>
<path d="M262.808 144.504L264.734 144.2" stroke="#443D78" stroke-width="0.506612" stroke-linecap="round" stroke-linejoin="round"/>
<path d="M264.107 141.951L250.518 143.577V146.449L260.221 144.914" stroke="#443D78" stroke-width="0.506612" stroke-linecap="round" stroke-linejoin="round"/>
<path d="M245.162 94.8532C245.162 94.8532 247.405 90.1079 248.527 89.9813C249.649 89.8547 252.141 89.9813 252.141 90.9942C252.141 92.007 250.771 92.1185 250.771 92.1185H248.901L248.027 94.367L245.162 94.8532Z" fill="white" stroke="#443D78" stroke-width="0.506612" stroke-linecap="round" stroke-linejoin="round"/>
<path d="M242.044 103.847L242.918 98.9755C242.918 98.9755 243.292 94.7316 243.929 94.4784C244.565 94.2252 250.286 94.3569 250.286 94.3569C250.286 94.3569 250.412 99.3503 249.912 100.601C249.412 101.852 247.168 102.348 247.168 102.348C246.961 103.127 246.67 103.882 246.299 104.597C245.925 105.103 244.55 105.721 244.55 105.721L244.176 106.734L240.937 104.607L242.044 103.847Z" fill="white" stroke="#443D78" stroke-width="0.506612" stroke-linecap="round" stroke-linejoin="round"/>
<path d="M247.153 102.354L246.531 99.9782L248.901 99.8516" fill="white"/>
<path d="M247.153 102.354L246.531 99.9782L248.901 99.8516" stroke="#443D78" stroke-width="0.506612" stroke-linecap="round" stroke-linejoin="round"/>
<path d="M240.795 103.478L245.909 107.099L243.913 109.221L239.552 105.225L240.795 103.478Z" fill="white" stroke="#443D78" stroke-width="0.506612" stroke-linecap="round" stroke-linejoin="round"/>
<path d="M239.552 105.225L245.409 109.596L234.19 126.713C232.863 126.996 231.484 126.908 230.203 126.46C228.081 125.71 226.09 121.466 226.09 120.965C226.09 120.464 239.552 105.225 239.552 105.225Z" fill="#A9E8CB" stroke="#443D78" stroke-width="0.506612" stroke-linecap="round" stroke-linejoin="round"/>
<path d="M235.065 125.087C235.065 125.087 233.195 121.588 233.069 120.59C232.942 119.592 232.821 117.592 232.194 116.842C231.568 116.093 230.825 115.592 230.577 114.467C230.33 113.343 229.203 113.844 229.061 114.974C228.92 116.103 229.93 117.222 229.93 117.222C229.93 117.222 226.817 116.209 226.317 116.473C225.817 116.736 224.801 117.096 225.069 117.992C225.235 118.542 225.447 119.077 225.701 119.592C225.701 119.592 223.71 122.216 223.71 123.462C223.71 124.707 225.079 126.713 226.08 127.462C227.08 128.212 230.567 128.982 230.567 128.982L235.065 125.087Z" fill="white" stroke="#443D78" stroke-width="0.506612" stroke-linecap="round" stroke-linejoin="round"/>
<path d="M271.03 99.3806L259.746 122.839L232.194 124.358C231.499 124.527 230.865 124.884 230.359 125.39C229.854 125.897 229.497 126.533 229.329 127.229C229.039 128.372 228.913 129.551 228.955 130.729C228.955 130.729 247.279 132.977 253.014 133.352C258.75 133.727 265.729 134.477 266.603 133.6C267.478 132.724 277.822 111.241 277.822 111.241" fill="#A9E8CB"/>
<path d="M271.03 99.3806L259.746 122.839L232.194 124.358C231.499 124.527 230.865 124.884 230.359 125.39C229.854 125.897 229.497 126.533 229.329 127.229C229.039 128.372 228.913 129.551 228.955 130.729C228.955 130.729 247.279 132.977 253.014 133.352C258.75 133.727 265.729 134.477 266.603 133.6C267.478 132.724 277.822 111.241 277.822 111.241" stroke="#443D78" stroke-width="0.506612" stroke-linecap="round" stroke-linejoin="round"/>
<path d="M106.12 168.367H103.239V196.181H106.12V168.367Z" fill="#443D78" stroke="#443D78" stroke-width="0.506612" stroke-linecap="round" stroke-linejoin="round"/>
<path d="M88.5681 141.719L83.4886 142.314L86.7122 169.94L91.7917 169.344L88.5681 141.719Z" fill="#443D78" stroke="#443D78" stroke-width="0.506612" stroke-linecap="round" stroke-linejoin="round"/>
<path d="M108.338 197.315V192.625H101.026V197.356L71.7764 209.12V214.671H73.7726V210.452L104.786 203.377L134.98 210.452V214.671H136.921V209.12L108.338 197.315Z" fill="#8C8C8C" stroke="#443D78" stroke-width="0.506612" stroke-linecap="round" stroke-linejoin="round"/>
<path d="M111.881 168.367H97.4785V177.25H111.881V168.367Z" fill="#443D78" stroke="#443D78" stroke-width="0.506612" stroke-linecap="round" stroke-linejoin="round"/>
<path d="M71.7767 214.893C71.7767 214.278 71.5947 213.677 71.2538 213.166C70.9129 212.655 70.4283 212.256 69.8613 212.021C69.2943 211.785 68.6704 211.724 68.0685 211.844C67.4667 211.964 66.9138 212.26 66.4798 212.695C66.0459 213.13 65.7504 213.684 65.6307 214.287C65.5109 214.89 65.5724 215.515 65.8072 216.083C66.0421 216.652 66.4398 217.137 66.95 217.479C67.4603 217.821 68.0602 218.003 68.6739 218.003C69.4968 218.003 70.286 217.675 70.8679 217.092C71.4498 216.509 71.7767 215.718 71.7767 214.893Z" fill="#443D78" stroke="#443D78" stroke-width="0.506612" stroke-linecap="round" stroke-linejoin="round"/>
<path d="M70.0028 214.894C70.0028 214.63 69.9249 214.373 69.7788 214.154C69.6328 213.935 69.4252 213.764 69.1823 213.663C68.9395 213.562 68.6723 213.536 68.4144 213.587C68.1566 213.639 67.9198 213.765 67.7339 213.952C67.5481 214.138 67.4215 214.376 67.3702 214.634C67.3189 214.892 67.3452 215.16 67.4458 215.404C67.5464 215.647 67.7168 215.855 67.9353 216.002C68.1539 216.148 68.4109 216.226 68.6737 216.226C69.0262 216.226 69.3643 216.086 69.6135 215.836C69.8628 215.586 70.0028 215.247 70.0028 214.894Z" fill="white" stroke="#443D78" stroke-width="0.506612" stroke-linecap="round" stroke-linejoin="round"/>
<path d="M143.329 214.893C143.329 214.278 143.147 213.677 142.806 213.166C142.465 212.655 141.98 212.256 141.413 212.021C140.846 211.785 140.223 211.724 139.621 211.844C139.019 211.964 138.466 212.26 138.032 212.695C137.598 213.13 137.303 213.684 137.183 214.287C137.063 214.89 137.125 215.515 137.359 216.083C137.594 216.652 137.992 217.137 138.502 217.479C139.012 217.821 139.612 218.003 140.226 218.003C141.049 218.003 141.838 217.675 142.42 217.092C143.002 216.509 143.329 215.718 143.329 214.893Z" fill="#443D78" stroke="#443D78" stroke-width="0.506612" stroke-linecap="round" stroke-linejoin="round"/>
<path d="M140.246 216.226C140.98 216.226 141.575 215.63 141.575 214.894C141.575 214.158 140.98 213.562 140.246 213.562C139.512 213.562 138.917 214.158 138.917 214.894C138.917 215.63 139.512 216.226 140.246 216.226Z" fill="white" stroke="#443D78" stroke-width="0.506612" stroke-linecap="round" stroke-linejoin="round"/>
<path d="M106.009 214.833H103.573L102.355 198.176H107.232L106.009 214.833Z" fill="#8C8C8C" stroke="#443D78" stroke-width="0.506612" stroke-linecap="round" stroke-linejoin="round"/>
<path d="M105.898 211.278H103.462V218.16H105.898V211.278Z" fill="#443D78" stroke="#443D78" stroke-width="0.506612" stroke-linecap="round" stroke-linejoin="round"/>
<path d="M85.4968 155.58C84.0756 155.717 82.6413 155.573 81.2757 155.155C79.9101 154.737 78.6402 154.053 77.5383 153.143C76.4364 152.233 75.5242 151.115 74.8538 149.851C74.1835 148.588 73.768 147.205 73.6313 145.78L70.2303 110.33C70.0929 108.906 70.2369 107.468 70.6541 106.1C71.0712 104.731 71.7533 103.458 72.6614 102.354C73.5694 101.25 74.6857 100.336 75.9464 99.6639C77.2071 98.9921 78.5875 98.5758 80.0087 98.4387C82.8793 98.1636 85.7414 99.0417 87.9663 100.88C90.1912 102.719 91.5968 105.367 91.8743 108.243L95.2753 143.694C95.5512 146.569 94.6761 149.437 92.8423 151.666C91.0085 153.895 88.3663 155.303 85.4968 155.58Z" fill="#8C8C8C" stroke="#443D78" stroke-width="0.506612" stroke-linecap="round" stroke-linejoin="round"/>
<path d="M88.074 155.332C85.204 155.608 82.3418 154.731 80.1168 152.894C77.8917 151.056 76.4859 148.408 76.2084 145.532L72.8074 110.082C72.5399 107.21 73.4189 104.35 75.2517 102.127C77.0845 99.9037 79.7218 98.4992 82.5859 98.2209C85.4567 97.9444 88.3196 98.822 90.5448 100.661C92.77 102.499 94.1752 105.149 94.4515 108.026L97.8474 143.44C98.1235 146.316 97.2491 149.183 95.4165 151.413C93.5839 153.643 90.943 155.052 88.074 155.332Z" fill="#8C8C8C" stroke="#443D78" stroke-width="0.506612" stroke-linecap="round" stroke-linejoin="round"/>
<path d="M137.133 171.148L84.6629 172.484C84.3815 172.493 84.1011 172.446 83.8378 172.347C83.5745 172.247 83.3334 172.096 83.1283 171.902C82.9232 171.709 82.7581 171.477 82.6425 171.22C82.5269 170.963 82.463 170.685 82.4545 170.403L82.1816 162.27C82.1639 161.701 82.3722 161.148 82.7607 160.734C83.1492 160.319 83.6861 160.075 84.2536 160.057L136.759 158.72C137.04 158.71 137.321 158.756 137.584 158.856C137.847 158.955 138.088 159.105 138.294 159.298C138.499 159.491 138.664 159.723 138.78 159.98C138.895 160.237 138.959 160.514 138.968 160.796L139.225 168.934C139.234 169.218 139.187 169.5 139.086 169.765C138.986 170.03 138.834 170.272 138.639 170.478C138.445 170.683 138.211 170.848 137.953 170.963C137.695 171.078 137.416 171.141 137.133 171.148Z" fill="#8C8C8C" stroke="#443D78" stroke-width="0.506612" stroke-linecap="round" stroke-linejoin="round"/>
<path d="M113.796 159.119L84.2779 160.054C83.0951 160.091 82.1666 161.083 82.204 162.268L82.4605 170.402C82.4978 171.588 83.487 172.518 84.6697 172.481L114.188 171.546C115.37 171.508 116.299 170.517 116.261 169.332L116.005 161.197C115.968 160.012 114.978 159.082 113.796 159.119Z" fill="#8C8C8C" stroke="#443D78" stroke-width="0.506612" stroke-linecap="round" stroke-linejoin="round"/>
<path d="M143.834 154.582C143.834 154.582 144.284 163.272 145.477 171.056C146.669 178.84 148.645 202.455 148.645 202.455C149.267 204.827 150.113 207.133 151.172 209.343C151.879 210.81 152.784 212.173 153.86 213.394C153.86 213.394 157.746 217.289 157.595 217.886C157.443 218.484 155.007 218.423 152.617 217.972C150.227 217.522 149.737 216.96 148.392 216.053C147.048 215.147 143.991 213.987 142.647 213.521C141.302 213.055 140.858 211.88 141.307 210.533C141.757 209.186 143.253 206.041 143.253 204.096C143.253 202.151 142.055 192.924 138.781 186.781C135.506 180.638 133.55 170.008 133.55 170.008L143.834 154.582Z" fill="white" stroke="#443D78" stroke-width="0.506612" stroke-linecap="round" stroke-linejoin="round"/>
<path d="M144.627 210.984C143.677 210.244 142.788 209.464 142.03 208.73C141.747 209.454 141.484 210.092 141.338 210.533C140.888 211.88 141.338 213.065 142.677 213.521C144.016 213.977 147.078 215.141 148.423 216.053C149.767 216.965 150.257 217.522 152.647 217.972C155.038 218.423 157.478 218.479 157.625 217.886C157.771 217.294 153.89 213.394 153.89 213.394L151.95 214.296C151.95 214.296 147.316 213.08 144.627 210.984Z" fill="#A9E8CB" stroke="#443D78" stroke-width="0.506612" stroke-linecap="round" stroke-linejoin="round"/>
<path d="M86.5076 136.735C86.5076 136.735 85.1633 142.012 85.8961 145.345C86.6289 148.677 91.652 156.385 100.344 158.228C109.036 160.072 130.882 159.469 130.882 159.469C130.882 159.469 125.616 167.486 123.656 177.139C122.362 183.53 118.395 192.474 117.784 193.826C117.172 195.178 109.946 197.629 110.203 198.733C110.461 199.837 111.305 206.704 113.139 209.53C114.974 212.356 118.036 213.582 119.259 213.946C120.482 214.311 120.73 214.311 120.73 213.085C120.73 211.86 119.871 210.143 119.871 209.034C119.871 207.925 119.749 200.425 120.24 199.462C120.73 198.5 136.759 173.173 139.205 169.021C141.651 164.868 145.451 156.75 146.553 155.403C147.655 154.055 148.999 152.212 147.897 149.882C146.796 147.553 121.503 139.754 121.503 139.754L120.174 135.039L107.54 134.304L86.5076 136.735Z" fill="white" stroke="#443D78" stroke-width="0.506612" stroke-linecap="round" stroke-linejoin="round"/>
<path d="M121.503 139.749L120.174 135.034L107.54 134.299L86.4821 136.75C86.4821 136.75 85.1076 142.033 85.8706 145.36C87.0835 150.622 91.6265 156.4 100.319 158.244C109.011 160.087 130.857 159.484 130.857 159.484C130.857 159.484 132.929 149.107 136.976 145.061C132.115 143.4 121.503 139.749 121.503 139.749Z" fill="#443D78" stroke="#443D78" stroke-width="0.506612" stroke-linecap="round" stroke-linejoin="round"/>
<path d="M130.882 159.449C133.797 158.675 136.627 157.606 139.326 156.258L130.882 159.449Z" fill="white"/>
<path d="M130.882 159.449C133.797 158.675 136.627 157.606 139.326 156.258" stroke="#443D78" stroke-width="0.506612" stroke-linecap="round" stroke-linejoin="round"/>
<path d="M114.352 204.603C113.483 202.577 113.538 198.525 113.65 196.358C111.8 197.275 110.067 198.161 110.193 198.713C110.436 199.817 111.295 206.684 113.129 209.51C114.963 212.336 118.026 213.561 119.249 213.926C120.472 214.291 120.719 214.291 120.719 213.065C120.719 211.84 119.865 210.128 119.86 209.014C118.58 208.85 117.312 208.602 116.065 208.269C116.065 208.269 115.575 207.423 114.352 204.603Z" fill="#A9E8CB" stroke="#443D78" stroke-width="0.506612" stroke-linecap="round" stroke-linejoin="round"/>
<path d="M112.583 88.1531L108.788 89.7484C108.788 89.7484 111.85 118.478 111.729 122.53C111.608 126.581 111.36 134.684 111.36 134.684C111.36 134.684 116.626 136.28 120.174 135.054L119.931 121.193C119.931 121.193 122.503 107.939 121.523 103.645C120.542 99.3504 117.48 91.7437 117.48 91.7437C117.48 91.7437 116.04 88.2746 112.583 88.1531Z" fill="white" stroke="#443D78" stroke-width="0.506612" stroke-linecap="round" stroke-linejoin="round"/>
<path d="M111.492 100.545L115.171 94.929L119.694 101.513C119.694 101.513 117.738 92.3107 117.49 91.698C116.904 90.5431 116.017 89.5684 114.923 88.8771C113.453 87.8946 111.734 87.8642 110.759 87.7731C109.784 87.6819 108.798 89.7381 108.798 89.7381L111.492 100.545Z" fill="white" stroke="#443D78" stroke-width="0.506612" stroke-linecap="round" stroke-linejoin="round"/>
<path d="M109.774 87.7024C109.774 87.7024 97.4683 90.4017 96.4122 91.1715C95.356 91.9413 94.8961 94.4481 95.1589 95.4103C95.4217 96.3726 98.2365 117.187 98.2365 117.187L84.0867 137.9C84.0867 137.9 88.7056 141.754 93.0314 142.524C97.3572 143.294 106.585 142.139 109.854 140.792L113.124 139.445C113.124 139.445 114.64 114.295 113.028 104.369C111.416 94.443 109.774 87.7024 109.774 87.7024Z" fill="#A9E8CB" stroke="#443D78" stroke-width="0.506612" stroke-linecap="round" stroke-linejoin="round"/>
<path d="M147.558 119.689L152.364 117.572C152.364 117.572 153.809 114.391 154.001 114.103C154.194 113.814 155.826 113.333 156.594 112.654C157.362 111.976 158.423 110.826 158.711 110.73C158.999 110.634 159.479 111.5 158.711 112.654C158.129 113.473 157.45 114.217 156.69 114.872L161.405 113.14C161.405 113.14 163.229 110.056 163.709 111.403C164.189 112.751 161.688 116.898 161.117 118.245C160.546 119.592 159.96 120.271 158.903 120.464C157.847 120.656 154.578 121.233 153.905 121.33C153.233 121.426 149.095 123.831 149.095 123.831L147.558 119.689Z" fill="white" stroke="#443D78" stroke-width="0.506612" stroke-linecap="round" stroke-linejoin="round"/>
<path d="M154.229 118.727C155.083 118.002 156.069 117.283 156.594 117.283C157.655 117.283 159.96 117.476 159.96 117.476C159.96 117.476 161.309 114.391 161.981 113.931C162.653 113.47 163.229 114.123 162.653 115.085" fill="white"/>
<path d="M154.229 118.727C155.083 118.002 156.069 117.283 156.594 117.283C157.655 117.283 159.96 117.476 159.96 117.476C159.96 117.476 161.309 114.391 161.981 113.931C162.653 113.47 163.229 114.123 162.653 115.085" stroke="#443D78" stroke-width="0.506612" stroke-linecap="round" stroke-linejoin="round"/>
<path d="M116.217 90.0166C116.217 90.0166 119.294 103.407 119.198 108.415C119.102 113.424 117.556 115.946 117.849 117.668C118.142 119.39 118.809 139.637 118.809 139.637L121.503 139.733C121.503 139.733 120.831 132.025 120.927 130.577C121.023 129.129 121.983 123.35 121.983 123.35C121.983 123.35 126.794 132.891 127.466 133.372C128.138 133.854 150.444 124.317 150.444 124.317L148.807 118.823L131.792 122.292C131.792 122.292 128.426 111.115 127.946 108.704C127.466 106.293 127.082 97.8208 125.732 95.6988C124.383 93.5768 116.217 90.0166 116.217 90.0166Z" fill="#A9E8CB" stroke="#443D78" stroke-width="0.506612" stroke-linecap="round" stroke-linejoin="round"/>
<path d="M121.983 123.35C121.983 123.35 122.559 120.945 123.524 114.584C124.104 110.786 124.136 106.925 123.62 103.118" stroke="#443D78" stroke-width="0.506612" stroke-linecap="round" stroke-linejoin="round"/>
<path d="M120.932 97.5168C121.391 100.986 121.735 105.27 121.119 107.646C120.415 110.342 119.515 112.982 118.425 115.546" stroke="#443D78" stroke-width="0.506612" stroke-linecap="round" stroke-linejoin="round"/>
<path d="M120.083 92.1438C120.083 92.1438 120.371 93.5973 120.689 95.6888" stroke="#443D78" stroke-width="0.506612" stroke-linecap="round" stroke-linejoin="round"/>
<path d="M110.885 110.882C112.134 113.981 113.235 117.005 113.235 117.005" stroke="#443D78" stroke-width="0.506612" stroke-linecap="round" stroke-linejoin="round"/>
<path d="M105.064 89.2419C105.064 89.2419 107.272 102.83 109.005 106.491C109.359 107.236 109.743 108.117 110.132 109.023" stroke="#443D78" stroke-width="0.506612" stroke-linecap="round" stroke-linejoin="round"/>
<path d="M132.368 116.802L136.117 115.738C136.117 115.738 138.523 112.654 139.099 111.885C139.675 111.115 141.019 111.115 141.985 110.537C142.95 109.96 144.193 107.838 144.673 108.223C145.153 108.608 144.673 110.345 144.168 110.826C143.524 111.348 142.849 111.83 142.146 112.269C141.762 112.558 146.664 111.403 146.664 111.403C146.664 111.403 149.838 108.608 150.03 109.378C150.222 110.147 148.584 112.847 148.584 112.847C148.584 112.847 146.28 115.06 145.123 116.022C143.965 116.984 141.181 117.374 140.413 117.541C139.645 117.709 138.301 117.926 138.301 117.926L132.529 120.043L132.368 116.802Z" fill="white" stroke="#443D78" stroke-width="0.506612" stroke-linecap="round" stroke-linejoin="round"/>
<path d="M147.847 113.414C147.847 113.414 145.825 114.377 144.769 114.858L147.847 113.414Z" fill="white"/>
<path d="M147.847 113.414C147.847 113.414 145.825 114.377 144.769 114.858" stroke="#443D78" stroke-width="0.506612" stroke-linecap="round" stroke-linejoin="round"/>
<path d="M142.176 112.269L140.443 112.654" stroke="#443D78" stroke-width="0.506612" stroke-linecap="round" stroke-linejoin="round"/>
<path d="M98.5245 90.4015C98.5245 90.4015 92.8545 92.3259 91.9853 93.7743C91.1161 95.2228 94.1987 107.068 96.5082 113.622C98.8176 120.175 104.968 131.154 105.736 131.539C106.504 131.924 126.602 124.799 131.2 123.35C135.799 121.902 136.582 121.137 136.582 121.137L134.561 115.931L111.492 120.074L104.417 97.8208" fill="#A9E8CB"/>
<path d="M98.5245 90.4015C98.5245 90.4015 92.8545 92.3259 91.9853 93.7743C91.1161 95.2228 94.1987 107.068 96.5082 113.622C98.8176 120.175 104.968 131.154 105.736 131.539C106.504 131.924 126.602 124.799 131.2 123.35C135.799 121.902 136.582 121.137 136.582 121.137L134.561 115.931L111.492 120.074L104.417 97.8208" stroke="#443D78" stroke-width="0.506612" stroke-linecap="round" stroke-linejoin="round"/>
<path d="M126.384 61.0587C126.384 61.0587 128.628 62.5781 127.491 64.2138C126.354 65.8496 123.954 65.961 123.954 65.961L121.856 62.6489C121.856 62.6489 124.353 59.6812 126.384 61.0587Z" fill="#443D78" stroke="#443D78" stroke-width="0.506612" stroke-linecap="round" stroke-linejoin="round"/>
<path d="M124.03 63.0339C124.03 63.0339 127.471 71.2179 127.279 71.9218C127.087 72.6258 125.485 73.7248 126.213 74.7933C126.94 75.8619 129.073 77.9991 129.017 78.2979C128.962 78.5967 126.354 80.121 126.354 80.121C126.354 80.121 124.53 86.7047 123.787 87.6669C123.044 88.6291 116.773 87.4593 116.773 87.4593L115.449 94.833L108 87.8745L105.215 85.2411C105.215 85.2411 102.719 74.0084 108.015 67.2576C113.311 60.5068 124.03 63.0339 124.03 63.0339Z" fill="white" stroke="#443D78" stroke-width="0.506612" stroke-linecap="round" stroke-linejoin="round"/>
<path d="M123.554 74.5659C123.554 75.2549 123.271 75.8122 122.953 75.8071C122.635 75.802 122.387 75.2346 122.402 74.5406C122.417 73.8465 122.68 73.2943 122.998 73.2994C123.317 73.3044 123.564 73.8718 123.554 74.5659Z" fill="#443D78"/>
<path d="M123.57 81.7669C122.974 81.7386 122.391 81.5894 121.855 81.3282C121.319 81.0671 120.841 80.6994 120.452 80.2476C120.452 80.2476 120.265 83.2102 121.184 83.3824C122.104 83.5546 123.57 81.7669 123.57 81.7669Z" fill="#443D78" stroke="#443D78" stroke-width="0.506612" stroke-linecap="round" stroke-linejoin="round"/>
<path d="M121.634 71.8207C121.634 71.8207 123.549 70.1945 125.263 72.0994" stroke="#443D78" stroke-width="0.506612" stroke-linecap="round" stroke-linejoin="round"/>
<path d="M116.773 87.4591L113.665 86.7146L116.005 91.0649L116.773 87.4591Z" fill="#443D78" stroke="#443D78" stroke-width="0.506612" stroke-linecap="round" stroke-linejoin="round"/>
<path d="M124.03 63.0338C124.03 63.0338 123.352 65.1659 120.042 67.9513C116.732 70.7367 113.771 72.5092 113.781 73.279C113.791 74.0488 114.287 74.7679 113.619 74.9553C113.076 75.0249 112.524 74.9315 112.033 74.6869C112.033 74.6869 110.426 79.2802 110.183 82.5214C110.085 84.6607 110.409 86.7983 111.138 88.8113C111.138 88.8113 104.008 89.1962 99.8942 86.0665C95.7807 82.9367 94.6234 79.3916 95.0782 76.3176C95.533 73.2435 96.8368 63.5352 103.164 58.7797C109.491 54.0243 118.557 54.2218 121.634 56.1615C124.712 58.1011 126.94 59.5242 126.374 61.0587C125.808 62.5932 124.03 63.0338 124.03 63.0338Z" fill="#443D78" stroke="#443D78" stroke-width="0.506612" stroke-linecap="round" stroke-linejoin="round"/>
<path d="M109.086 159.758C108.898 159.759 108.711 159.717 108.541 159.636C108.18 159.439 107.904 159.117 107.763 158.73C107.623 158.343 107.628 157.918 107.778 157.535C110.062 151.285 112.679 140.139 109.996 136.811C109.369 136.305 105.594 135.292 85.2593 137.399L83.7786 137.551C82.3586 137.672 81.1458 139.728 80.8324 140.437C80.7656 140.618 80.6609 140.783 80.5254 140.92C80.3898 141.057 80.2266 141.164 80.0466 141.232C79.8666 141.301 79.674 141.33 79.4818 141.318C79.2896 141.306 79.1023 141.252 78.9323 141.162C78.5845 140.938 78.3286 140.597 78.2117 140.199C78.0947 139.802 78.1245 139.376 78.2956 138.999C78.4927 138.553 80.317 134.624 83.5613 134.34L85.0016 134.193C106.671 131.934 110.825 133.074 112.088 134.634C116.859 140.549 111.078 156.917 110.395 158.765C110.306 159.046 110.133 159.293 109.898 159.47C109.664 159.648 109.38 159.749 109.086 159.758Z" fill="white" stroke="#443D78" stroke-width="0.506612" stroke-linecap="round" stroke-linejoin="round"/>
<path d="M198.422 112.168H165.215L157.534 138.245H190.74L198.422 112.168Z" fill="#D9D9D9" stroke="#443D78" stroke-width="0.506612" stroke-linecap="round" stroke-linejoin="round"/>
<path d="M133.242 136.816L132.823 138.245H190.741L191.165 136.816H133.242Z" fill="#D9D9D9" stroke="#443D78" stroke-width="0.506612" stroke-linecap="round" stroke-linejoin="round"/>
<path d="M158.014 136.816L157.595 138.245H190.74L191.165 136.816H158.014Z" fill="#443D78" stroke="#443D78" stroke-width="0.506612" stroke-linecap="round" stroke-linejoin="round"/>
<path d="M190.266 142.159H184.646V217.456H190.266V142.159Z" fill="white" stroke="#443D78" stroke-width="0.506612" stroke-linecap="round" stroke-linejoin="round"/>
<path d="M190.266 142.159H184.646V154.597H190.266V142.159Z" fill="#443D78" stroke="#443D78" stroke-width="0.506612" stroke-linecap="round" stroke-linejoin="round"/>
<path d="M258.533 138.26H115.873V142.443H258.533V138.26Z" fill="white" stroke="#443D78" stroke-width="0.506612" stroke-linecap="round" stroke-linejoin="round"/>
<path d="M216.776 218.069H157.65C163.5 215.312 169.884 213.883 176.348 213.886H198.144C204.608 213.882 210.993 215.311 216.842 218.069H216.776Z" fill="white" stroke="#443D78" stroke-width="0.506612" stroke-linecap="round" stroke-linejoin="round"/>
</svg>
