<svg width="350" height="236" viewBox="0 0 350 236" fill="none" xmlns="http://www.w3.org/2000/svg">
<path d="M320.947 203.315C337.698 177.1 341.997 144.022 337.208 113.687C336.3 107.909 334.964 102.206 333.209 96.6248C321.442 59.4568 291.255 29.6856 255.53 14.0194C221.444 -0.943533 178.355 -8.33522 146.059 14.6927C124.795 29.8552 112.753 54.155 93.283 71.1628C83.6056 79.6418 73.0134 82.3601 61.4965 87.4176C33.4389 99.742 9.9502 123.508 8.02071 154.875C6.86644 171.831 10.9225 188.735 19.6476 203.33L320.947 203.315Z" fill="#A9E8CB"/>
<path opacity="0.8" d="M320.947 203.315C337.698 177.1 341.997 144.022 337.208 113.687C336.3 107.909 334.964 102.206 333.209 96.6248C321.442 59.4568 291.255 29.6856 255.53 14.0194C221.444 -0.943533 178.355 -8.33522 146.059 14.6927C124.795 29.8552 112.753 54.155 93.283 71.1628C83.6056 79.6418 73.0134 82.3601 61.4965 87.4176C33.4389 99.742 9.9502 123.508 8.02071 154.875C6.86644 171.831 10.9225 188.735 19.6476 203.33L320.947 203.315Z" fill="white"/>
<path d="M185.584 31.3565C185.474 31.0024 185.354 30.6532 185.224 30.2991C180.52 17.2415 158.631 16.3337 158.631 32.3889C158.631 35.4763 151.198 32.3889 148.413 36.379C145.629 40.3692 148.723 42.863 145.004 44.1049C141.285 45.3468 140.98 42.2495 136.332 42.5587C131.683 42.868 132.308 47.1922 130.758 48.4292C129.209 49.6661 129.209 49.0477 125.804 49.3569C122.4 49.6661 121.776 52.14 121.776 52.14H203.254C203.254 52.14 206.348 42.868 200.755 39.4714C195.161 36.0748 195.181 40.7033 190.842 38.8529C187.258 37.3466 186.588 34.4388 185.584 31.3565Z" stroke="#B2B2B2" stroke-width="0.500906" stroke-linecap="round" stroke-linejoin="round"/>
<path d="M188.403 48.7833C188.403 48.7833 190.087 43.5811 185.948 39.7506C181.809 35.9201 177.51 38.0698 176.286 39.7506C175.061 41.4315 175.056 44.6485 173.062 44.9577C171.067 45.267 171.532 41.5911 167.233 42.5088C162.934 43.4265 164.629 47.7109 162.634 48.6286C160.64 49.5464 160.635 46.1797 157.876 47.252C155.116 48.3244 155.271 50.3145 155.271 50.3145" stroke="#B2B2B2" stroke-width="0.500906" stroke-linecap="round" stroke-linejoin="round"/>
<path d="M166.374 38.3841C165.243 37.5823 163.919 37.0966 162.537 36.9774C161.156 36.8581 159.767 37.1096 158.516 37.7058C154.077 39.7507 156.126 44.0101 154.077 45.0326C152.028 46.0551 151.003 44.858 148.438 46.0301C145.874 47.2022 146.049 48.923 146.049 48.923" stroke="#B2B2B2" stroke-width="0.500906" stroke-linecap="round" stroke-linejoin="round"/>
<path d="M126.859 60.3496C126.809 60.2 126.754 60.0454 126.699 59.8907C124.655 54.2098 115.132 53.8208 115.132 60.7985C115.132 62.1452 111.898 60.7985 110.683 62.5442C109.469 64.2899 110.818 65.3722 109.184 65.9058C107.549 66.4395 107.429 65.1028 105.41 65.2375C103.39 65.3722 103.655 67.2326 102.985 67.7912C102.316 68.3498 102.311 68.0605 100.826 68.1952C99.3413 68.3298 99.0764 69.4022 99.0764 69.4022H134.512C134.512 69.4022 135.862 65.3722 133.432 63.9158C131.003 62.4594 131.008 64.4544 129.123 63.6464C127.584 62.9532 127.294 61.6913 126.859 60.3496Z" stroke="#B2B2B2" stroke-width="0.500906" stroke-linecap="round" stroke-linejoin="round"/>
<path d="M128.084 67.9309C128.28 67.2414 128.284 66.5115 128.096 65.8198C127.907 65.1282 127.533 64.5009 127.014 64.0056C125.214 62.3397 123.345 63.2724 122.81 64.0056C122.275 64.7388 122.275 66.1353 121.41 66.27C120.546 66.4046 120.741 64.8036 118.871 65.2026C117.002 65.6016 117.736 67.467 116.872 67.866C116.007 68.265 116.002 66.7987 114.802 67.2675C113.603 67.7363 113.668 68.5992 113.668 68.5992" stroke="#B2B2B2" stroke-width="0.500906" stroke-linecap="round" stroke-linejoin="round"/>
<path d="M118.496 63.4071C118.006 63.0578 117.43 62.8462 116.83 62.7945C116.229 62.7427 115.626 62.8526 115.082 63.1128C113.148 64.0006 114.038 65.856 113.148 66.2999C112.258 66.7438 111.813 66.2251 110.698 66.7438C109.584 67.2625 109.659 68.0057 109.659 68.0057" stroke="#B2B2B2" stroke-width="0.500906" stroke-linecap="round" stroke-linejoin="round"/>
<path d="M314.339 60.3496C314.289 60.2 314.239 60.0454 314.184 59.8907C312.135 54.2098 302.612 53.8208 302.612 60.7985C302.612 62.1452 299.378 60.7985 298.169 62.5442C296.959 64.2899 298.304 65.3722 296.669 65.9058C295.034 66.4395 294.919 65.1028 292.9 65.2375C290.88 65.3722 291.145 67.2326 290.471 67.7912C289.796 68.3498 289.801 68.0605 288.316 68.1952C286.832 68.3298 286.567 69.4022 286.567 69.4022H322.002C322.002 69.4022 323.347 65.3722 320.922 63.9158C318.498 62.4594 318.498 64.4544 316.614 63.6464C315.069 62.9532 314.779 61.6913 314.339 60.3496Z" stroke="#B2B2B2" stroke-width="0.500906" stroke-linecap="round" stroke-linejoin="round"/>
<path d="M315.564 67.9309C315.76 67.2418 315.765 66.5123 315.577 65.8208C315.39 65.1293 315.017 64.5018 314.499 64.0056C312.695 62.3397 310.83 63.2724 310.295 64.0056C309.76 64.7388 309.76 66.1353 308.891 66.27C308.021 66.4046 308.226 64.8036 306.356 65.2026C304.487 65.6016 305.222 67.467 304.357 67.866C303.492 68.265 303.487 66.7987 302.287 67.2675C301.088 67.7363 301.153 68.5992 301.153 68.5992" stroke="#B2B2B2" stroke-width="0.500906" stroke-linecap="round" stroke-linejoin="round"/>
<path d="M305.982 63.407C305.49 63.0573 304.914 62.8455 304.312 62.7938C303.711 62.742 303.107 62.8522 302.562 63.1128C300.633 64.0006 301.523 65.856 300.633 66.2999C299.743 66.7438 299.293 66.225 298.179 66.7438C297.064 67.2625 297.139 68.0056 297.139 68.0056" stroke="#B2B2B2" stroke-width="0.500906" stroke-linecap="round" stroke-linejoin="round"/>
<path d="M45.4406 186.148C46.1611 186.337 46.9055 186.42 47.65 186.392C47.65 186.392 47.3151 185.37 47.2851 185.31C46.9402 184.592 45.8555 183.405 44.9708 183.525C44.824 183.548 44.6839 183.602 44.5596 183.683C44.4352 183.764 44.3295 183.871 44.2492 183.996C44.169 184.12 44.1161 184.261 44.094 184.407C44.0719 184.554 44.0811 184.703 44.121 184.846C44.2317 185.147 44.4073 185.419 44.6354 185.644C44.8635 185.869 45.1384 186.041 45.4406 186.148Z" fill="#443D78"/>
<path d="M60.8465 202.707C60.9125 202.574 60.9496 202.428 60.9555 202.28C60.9614 202.132 60.9359 201.984 60.8808 201.846C60.8256 201.708 60.742 201.584 60.6353 201.48C60.5286 201.377 60.4013 201.297 60.2617 201.246C59.4169 200.966 58.1222 201.924 57.6524 202.562C57.6524 202.592 57.4724 202.862 57.3275 203.111H60.5516C60.6727 202.994 60.7724 202.858 60.8465 202.707Z" fill="#443D78"/>
<path d="M56.0578 198.552C56.6367 198.939 57.2725 199.234 57.9423 199.425C57.8773 199.734 57.8123 200.039 57.7323 200.338C57.6774 200.537 57.6374 200.732 57.5674 200.931C57.4974 201.131 57.4424 201.32 57.3774 201.515C57.2425 201.884 57.1075 202.263 56.9676 202.617C56.9026 202.792 56.8376 202.951 56.7726 203.116H57.2975C57.3374 203.011 57.3774 202.906 57.4174 202.792C57.5524 202.423 57.6774 202.054 57.8123 201.655L57.9923 201.066C58.0523 200.872 58.0973 200.657 58.1472 200.448C58.2622 199.949 58.3572 199.475 58.4422 198.951C59.102 199.223 59.8001 199.392 60.5116 199.45C60.8328 199.448 61.1498 199.377 61.4406 199.241C61.7315 199.105 61.9892 198.907 62.1962 198.662C62.2813 198.541 62.3399 198.403 62.3682 198.257C62.3965 198.112 62.3938 197.962 62.3603 197.818C62.3269 197.673 62.2634 197.537 62.174 197.419C62.0845 197.301 61.9712 197.203 61.8413 197.131C61.0465 196.727 59.6218 197.475 59.057 198.039C59.022 198.073 58.6621 198.537 58.4721 198.772C58.5171 198.472 58.5671 198.168 58.6021 197.864C58.7121 196.981 58.7971 196.083 58.887 195.191C58.887 194.916 58.942 194.642 58.972 194.368C59.6558 194.641 60.3772 194.809 61.1114 194.866C61.4327 194.864 61.7496 194.793 62.0405 194.657C62.3313 194.521 62.5891 194.324 62.796 194.078C62.8811 193.957 62.9398 193.819 62.968 193.674C62.9963 193.528 62.9936 193.378 62.9602 193.234C62.9267 193.09 62.8632 192.954 62.7738 192.835C62.6844 192.717 62.571 192.619 62.4411 192.547C61.6463 192.143 60.2217 192.891 59.6568 193.455C59.6168 193.495 59.097 194.143 58.977 194.313C59.037 193.709 59.107 193.111 59.202 192.522C59.3174 191.729 59.4844 190.944 59.7018 190.173C60.3908 190.446 61.1171 190.614 61.8562 190.672C62.1768 190.671 62.4933 190.599 62.7834 190.463C63.0735 190.327 63.3303 190.129 63.5358 189.884C63.6216 189.763 63.6808 189.625 63.7095 189.48C63.7382 189.335 63.7357 189.185 63.7021 189.041C63.6686 188.897 63.6048 188.761 63.515 188.644C63.4251 188.526 63.3113 188.428 63.1809 188.358C62.3861 187.949 60.9665 188.702 60.4016 189.265C60.3566 189.305 59.8018 190.003 59.7068 190.133C59.7208 190.089 59.7325 190.044 59.7418 189.998C59.9858 189.23 60.2986 188.486 60.6766 187.774C60.8815 187.375 61.0965 187.006 61.3164 186.657C61.9564 186.996 62.6439 187.236 63.3558 187.37C63.6752 187.405 63.9982 187.369 64.3023 187.266C64.6063 187.162 64.8839 186.994 65.1154 186.771C65.2133 186.66 65.2866 186.53 65.3307 186.389C65.3747 186.248 65.3885 186.099 65.3711 185.952C65.3536 185.805 65.3053 185.664 65.2294 185.537C65.1535 185.41 65.0516 185.3 64.9304 185.215C64.1856 184.717 62.691 185.315 62.0662 185.809C62.0312 185.839 61.7163 186.148 61.4913 186.377L61.7963 185.909C62.1662 185.345 62.5461 184.856 62.881 184.412C63.0759 184.168 63.2559 183.953 63.4258 183.749C64.1469 183.759 64.8651 183.658 65.5553 183.45C65.8544 183.333 66.1244 183.152 66.3463 182.921C66.5682 182.689 66.7367 182.412 66.8399 182.108C66.8757 181.965 66.8808 181.815 66.8549 181.67C66.8291 181.525 66.7728 181.386 66.6899 181.264C66.6069 181.142 66.499 181.038 66.3733 180.96C66.2476 180.882 66.1068 180.831 65.9602 180.811C65.0704 180.716 64.0157 181.928 63.6908 182.657C63.6608 182.721 63.3359 183.754 63.3558 183.754C63.1909 183.943 63.0109 184.148 62.821 184.377C62.4761 184.801 62.0862 185.285 61.7013 185.844C61.2769 186.437 60.888 187.055 60.5366 187.694C60.134 188.406 59.7993 189.154 59.5369 189.929C59.5369 189.929 59.5369 189.929 59.5369 189.954C59.5369 189.694 59.5369 188.956 59.5369 188.906C59.4369 188.118 58.7721 186.657 57.8923 186.492C57.7455 186.47 57.5956 186.478 57.4524 186.517C57.3092 186.557 57.1759 186.625 57.0612 186.72C56.9466 186.814 56.8531 186.931 56.787 187.064C56.7209 187.196 56.6836 187.342 56.6776 187.49C56.6899 187.81 56.7718 188.123 56.9177 188.408C57.0635 188.693 57.2699 188.943 57.5224 189.141C58.1406 189.541 58.8142 189.848 59.5219 190.053C59.2714 190.846 59.0743 191.654 58.932 192.472C58.847 192.971 58.7771 193.43 58.7121 193.919C58.7121 193.689 58.7121 193.49 58.7121 193.46C58.6071 192.672 57.9473 191.21 57.0675 191.046C56.9205 191.023 56.7703 191.032 56.6269 191.071C56.4834 191.11 56.3498 191.179 56.2347 191.273C56.1197 191.367 56.0258 191.484 55.9591 191.617C55.8924 191.75 55.8545 191.895 55.8478 192.043C55.8614 192.364 55.9443 192.677 56.091 192.962C56.2378 193.247 56.4447 193.497 56.6976 193.694C57.2953 194.088 57.9492 194.389 58.6371 194.587C58.6371 194.772 58.5921 194.956 58.5671 195.146C58.4622 196.038 58.3572 196.931 58.2322 197.804C58.1872 198.113 58.1322 198.413 58.0773 198.712C58.0773 198.512 58.0773 198.343 58.0773 198.318C57.9773 197.53 57.3125 196.068 56.4377 195.904C56.2907 195.881 56.1405 195.89 55.997 195.929C55.8535 195.968 55.7199 196.037 55.6049 196.131C55.4898 196.225 55.3959 196.342 55.3293 196.475C55.2626 196.608 55.2247 196.753 55.218 196.901C55.2303 197.221 55.3117 197.534 55.4567 197.819C55.6017 198.104 55.8067 198.354 56.0578 198.552Z" fill="#443D78"/>
<path d="M45.9856 190.682C46.7236 190.677 47.4566 190.561 48.16 190.338C48.3896 191.137 48.6718 191.92 49.0048 192.682C49.1997 193.126 49.4047 193.565 49.6196 194.008C49.4946 193.819 49.3797 193.654 49.3597 193.634C48.8598 193.031 47.4752 192.173 46.6504 192.522C46.5163 192.584 46.3969 192.674 46.2996 192.785C46.2024 192.896 46.1295 193.027 46.0857 193.168C46.0419 193.308 46.0282 193.457 46.0454 193.604C46.0626 193.75 46.1103 193.891 46.1855 194.018C46.3735 194.278 46.6157 194.493 46.8953 194.65C47.1749 194.807 47.4853 194.901 47.8051 194.926C48.5223 194.925 49.2352 194.816 49.9195 194.602C49.9995 194.772 50.0845 194.941 50.1694 195.101C50.5743 195.904 50.9792 196.707 51.3541 197.505C51.4891 197.789 51.6091 198.068 51.729 198.348C51.6191 198.183 51.5191 198.048 51.5041 198.029C51.0042 197.425 49.6196 196.567 48.7948 196.916C48.6602 196.978 48.5402 197.067 48.4425 197.178C48.3448 197.289 48.2716 197.42 48.2278 197.561C48.1839 197.702 48.1704 197.851 48.188 197.998C48.2056 198.144 48.2539 198.286 48.3299 198.413C48.5169 198.673 48.7588 198.89 49.0385 199.048C49.3183 199.205 49.6292 199.3 49.9495 199.325C50.6462 199.328 51.339 199.224 52.004 199.016C52.1189 199.31 52.2389 199.6 52.3339 199.889C52.3989 200.088 52.4738 200.273 52.5238 200.477L52.6888 201.071C52.7838 201.45 52.8787 201.844 52.9587 202.213C53.0187 202.473 53.0687 202.712 53.1187 202.971C52.9887 202.692 52.7238 202.143 52.6988 202.103C52.2739 201.43 51.0592 200.378 50.1994 200.607C50.0564 200.648 49.9235 200.717 49.8094 200.812C49.6952 200.907 49.6023 201.025 49.5368 201.158C49.4713 201.292 49.4346 201.437 49.429 201.585C49.4235 201.733 49.4492 201.881 49.5046 202.019C49.6373 202.283 49.8235 202.516 50.0516 202.704C50.2797 202.892 50.5445 203.031 50.8293 203.111H53.6635C53.6635 203.051 53.6335 202.991 53.6235 202.926C54.0416 202.761 54.4489 202.569 54.8432 202.353C55.1579 202.651 55.5109 202.906 55.8929 203.111H56.7227C56.7677 202.802 56.8177 202.423 56.8177 202.383C56.8106 201.681 56.6211 200.994 56.2678 200.388C56.2779 200.31 56.2779 200.231 56.2678 200.153C56.25 200.006 56.2013 199.865 56.1248 199.738C56.0484 199.611 55.946 199.501 55.8242 199.417C55.7025 199.332 55.5642 199.274 55.4184 199.246C55.2726 199.218 55.1226 199.221 54.9782 199.255C54.1134 199.485 53.5685 200.996 53.5236 201.794C53.5236 201.839 53.5535 202.353 53.5785 202.672C53.5336 202.487 53.4936 202.303 53.4486 202.113C53.3586 201.729 53.2536 201.355 53.1487 200.946L52.9687 200.358C52.9137 200.158 52.8287 199.959 52.7638 199.754C52.5888 199.29 52.3939 198.827 52.1889 198.363C52.89 198.22 53.5645 197.969 54.1884 197.62C54.4554 197.442 54.6804 197.209 54.8479 196.936C55.0154 196.663 55.1212 196.356 55.1581 196.038C55.1613 195.89 55.1334 195.743 55.0762 195.606C55.019 195.47 54.9338 195.346 54.826 195.244C54.7182 195.142 54.5902 195.064 54.4503 195.014C54.3103 194.965 54.1615 194.945 54.0134 194.956C53.1287 195.056 52.3589 196.452 52.1989 197.245C52.1989 197.295 52.1339 197.864 52.1089 198.178C51.984 197.904 51.859 197.625 51.724 197.35C51.3241 196.552 50.8993 195.759 50.4744 194.961L50.0945 194.233C50.8168 194.082 51.5126 193.825 52.1589 193.47C52.4252 193.292 52.6497 193.058 52.8171 192.785C52.9845 192.512 53.0908 192.206 53.1287 191.889C53.1319 191.741 53.1041 191.594 53.0468 191.457C52.9896 191.321 52.9042 191.198 52.7963 191.096C52.6884 190.995 52.5604 190.917 52.4204 190.868C52.2805 190.819 52.1318 190.799 51.984 190.811C51.0992 190.906 50.3294 192.308 50.1644 193.096C50.1644 193.156 50.0795 193.979 50.0695 194.188C49.7895 193.649 49.5196 193.111 49.2697 192.572C48.9301 191.844 48.6395 191.094 48.3999 190.328C49.1249 190.175 49.8237 189.918 50.4744 189.564C50.741 189.385 50.9658 189.151 51.1331 188.877C51.3005 188.604 51.4066 188.297 51.4441 187.978C51.4474 187.83 51.4195 187.683 51.3623 187.547C51.305 187.41 51.2197 187.287 51.1118 187.186C51.0039 187.084 50.8758 187.006 50.7359 186.957C50.596 186.908 50.4473 186.889 50.2994 186.901C49.4146 186.996 48.6449 188.397 48.4849 189.185C48.4849 189.245 48.3899 190.133 48.3849 190.293C48.3849 190.253 48.3549 190.208 48.3399 190.163C48.1083 189.389 47.9444 188.596 47.8501 187.794C47.8001 187.355 47.7751 186.926 47.7651 186.512C48.4857 186.444 49.1919 186.268 49.8595 185.988C50.1445 185.841 50.394 185.633 50.5907 185.38C50.7875 185.127 50.9269 184.834 50.9992 184.522C51.0188 184.377 51.0079 184.229 50.9673 184.088C50.9267 183.947 50.8572 183.815 50.7633 183.702C50.6693 183.59 50.553 183.497 50.4215 183.431C50.2901 183.366 50.1464 183.328 49.9995 183.32C49.1047 183.32 48.185 184.637 47.94 185.395C47.94 185.435 47.8351 185.869 47.7751 186.188C47.7751 185.998 47.7751 185.804 47.7751 185.624C47.7751 184.951 47.8201 184.337 47.8601 183.789C47.8901 183.48 47.92 183.2 47.95 182.936C48.5565 182.547 49.0994 182.068 49.5596 181.514C49.7436 181.252 49.8684 180.953 49.9253 180.638C49.9823 180.323 49.9701 179.999 49.8895 179.689C49.8396 179.55 49.761 179.422 49.6587 179.315C49.5564 179.208 49.4327 179.124 49.2955 179.067C49.1584 179.011 49.011 178.984 48.8627 178.988C48.7145 178.992 48.5687 179.027 48.4349 179.09C47.6401 179.499 47.4352 181.086 47.5651 181.879C47.5651 181.948 47.8751 182.986 47.8901 182.976C47.8551 183.23 47.8201 183.5 47.7901 183.794C47.7351 184.342 47.6801 184.956 47.6601 185.634C47.6372 186.363 47.6555 187.092 47.7151 187.819C47.7781 188.632 47.9136 189.438 48.12 190.228V190.258C47.98 190.038 47.5651 189.435 47.5302 189.39C47.0303 188.791 45.6457 187.934 44.8209 188.283C44.6863 188.344 44.5662 188.434 44.4685 188.545C44.3709 188.656 44.2977 188.786 44.2538 188.927C44.21 189.068 44.1964 189.217 44.214 189.364C44.2316 189.511 44.28 189.652 44.356 189.779C44.5453 190.039 44.7892 190.254 45.0707 190.41C45.3522 190.566 45.6644 190.659 45.9856 190.682Z" fill="#443D78"/>
<path d="M61.2963 186.492C61.2963 186.492 61.5812 185.455 61.5912 185.385C61.7012 184.597 61.4463 183.011 60.6415 182.622C60.5062 182.561 60.3597 182.53 60.2114 182.53C60.0632 182.53 59.9167 182.561 59.7813 182.621C59.646 182.682 59.5248 182.77 59.4259 182.88C59.3269 182.99 59.2523 183.119 59.2069 183.26C59.1342 183.572 59.1306 183.896 59.1962 184.21C59.2618 184.523 59.3951 184.819 59.5868 185.076C60.0838 185.629 60.6598 186.106 61.2963 186.492Z" fill="#443D78"/>
<path d="M29.8549 192.682C30.2985 192.797 30.7565 192.847 31.2145 192.831C31.2145 192.831 31.0096 192.203 30.9896 192.163C30.7797 191.724 30.1098 190.991 29.565 191.066C29.4765 191.082 29.3924 191.117 29.3183 191.168C29.2441 191.219 29.1815 191.285 29.1344 191.362C29.0873 191.438 29.0568 191.524 29.0449 191.613C29.0329 191.702 29.0398 191.793 29.0651 191.879C29.1321 192.061 29.2372 192.227 29.3734 192.365C29.5095 192.504 29.6737 192.612 29.8549 192.682Z" fill="#443D78"/>
<path d="M39.3074 202.862C39.3482 202.78 39.3713 202.691 39.3754 202.6C39.3794 202.509 39.3641 202.418 39.3307 202.334C39.2972 202.249 39.2462 202.172 39.181 202.109C39.1159 202.045 39.038 201.996 38.9525 201.964C38.4526 201.789 37.6328 202.383 37.3429 202.777C37.3429 202.777 37.2329 202.956 37.1479 203.111H39.1474C39.217 203.039 39.2714 202.955 39.3074 202.862Z" fill="#443D78"/>
<path d="M36.3532 200.308C36.71 200.545 37.1011 200.727 37.5129 200.847C37.4729 201.036 37.433 201.226 37.383 201.405C37.333 201.585 37.323 201.65 37.283 201.769C37.243 201.889 37.203 202.014 37.168 202.128C37.083 202.358 36.9981 202.592 36.9131 202.807L36.7931 203.111H37.118L37.193 202.911C37.273 202.687 37.348 202.458 37.433 202.213C37.468 202.093 37.5029 201.974 37.5429 201.849C37.5829 201.724 37.6079 201.6 37.6379 201.47C37.7129 201.176 37.7679 200.871 37.8179 200.562C38.2249 200.726 38.6549 200.825 39.0925 200.857C39.2911 200.854 39.4867 200.808 39.6655 200.722C39.8443 200.636 40.002 200.511 40.1272 200.358C40.18 200.283 40.2163 200.198 40.2339 200.108C40.2514 200.019 40.2497 199.926 40.2289 199.837C40.2082 199.748 40.1688 199.665 40.1134 199.592C40.0579 199.519 39.9877 199.459 39.9073 199.415C39.4074 199.166 38.5477 199.63 38.1978 199.974L37.8379 200.423C37.8678 200.238 37.8978 200.054 37.9178 199.869C37.9878 199.325 38.0378 198.772 38.0928 198.223C38.0928 198.053 38.1278 197.884 38.1428 197.724C38.5651 197.89 39.0099 197.993 39.4624 198.029C39.661 198.026 39.8566 197.98 40.0354 197.894C40.2142 197.808 40.3719 197.683 40.4971 197.53C40.5498 197.455 40.5861 197.371 40.6036 197.282C40.6211 197.192 40.6194 197.1 40.5986 197.012C40.5778 196.923 40.5384 196.84 40.483 196.767C40.4276 196.695 40.3575 196.635 40.2772 196.592C39.7773 196.343 38.9176 196.802 38.5677 197.151C38.5677 197.176 38.2227 197.57 38.1478 197.674C38.1878 197.305 38.2277 196.936 38.2877 196.577C38.3598 196.088 38.465 195.605 38.6026 195.131C39.0268 195.297 39.473 195.402 39.9273 195.44C40.1259 195.438 40.3215 195.392 40.5003 195.305C40.6791 195.219 40.8367 195.095 40.962 194.941C41.0147 194.867 41.051 194.782 41.0685 194.693C41.086 194.604 41.0842 194.512 41.0635 194.423C41.0427 194.334 41.0033 194.251 40.9479 194.179C40.8925 194.107 40.8223 194.047 40.7421 194.004C40.2422 193.749 39.3824 194.213 39.0325 194.557C39.0075 194.587 38.6626 195.011 38.6076 195.096C38.6094 195.068 38.6094 195.039 38.6076 195.011C38.76 194.538 38.9523 194.08 39.1825 193.639C39.3075 193.4 39.4424 193.171 39.5774 192.956C39.971 193.165 40.394 193.313 40.8321 193.395C41.0281 193.416 41.2263 193.393 41.4128 193.329C41.5993 193.266 41.7695 193.162 41.9118 193.026C41.9718 192.957 42.0168 192.877 42.0438 192.79C42.0707 192.703 42.079 192.612 42.0682 192.522C42.0573 192.431 42.0276 192.344 41.9808 192.266C41.9341 192.188 41.8714 192.121 41.7968 192.068C41.3419 191.764 40.4222 192.128 40.0373 192.437C40.0373 192.437 39.8223 192.642 39.6874 192.787C39.7473 192.687 39.8073 192.587 39.8723 192.497C40.1022 192.148 40.3322 191.849 40.5371 191.584L40.872 191.176C41.3155 191.181 41.7571 191.119 42.1817 190.991C42.366 190.919 42.5326 190.809 42.6698 190.667C42.807 190.525 42.9117 190.354 42.9765 190.168C42.9984 190.08 43.0013 189.987 42.9851 189.898C42.969 189.808 42.934 189.723 42.8826 189.648C42.8312 189.572 42.7645 189.509 42.6868 189.461C42.6091 189.413 42.5221 189.382 42.4316 189.37C41.8868 189.31 41.2369 190.053 41.037 190.502C41.037 190.542 40.8171 191.176 40.8321 191.176C40.7271 191.29 40.6171 191.42 40.5021 191.56C40.2872 191.824 40.0473 192.118 39.8123 192.462C39.5509 192.826 39.3121 193.206 39.0975 193.6C38.8519 194.037 38.6461 194.497 38.4827 194.971C38.4827 194.812 38.4827 194.363 38.4827 194.328C38.4227 193.829 38.0128 192.941 37.4829 192.831C37.393 192.818 37.3013 192.824 37.2136 192.848C37.1259 192.872 37.0442 192.914 36.9737 192.971C36.9032 193.028 36.8453 193.099 36.8039 193.18C36.7625 193.261 36.7384 193.349 36.7331 193.44C36.7412 193.632 36.7899 193.82 36.876 193.992C36.9622 194.164 37.0838 194.316 37.233 194.437C37.6117 194.686 38.0264 194.874 38.4627 194.996C38.3103 195.486 38.1901 195.986 38.1028 196.492C38.0478 196.782 38.0078 197.081 37.9678 197.38C37.9678 197.24 37.9678 197.116 37.9678 197.101C37.9028 196.602 37.4979 195.714 36.9681 195.605C36.8779 195.59 36.7856 195.594 36.6973 195.617C36.6089 195.641 36.5266 195.683 36.4557 195.74C36.3848 195.798 36.327 195.87 36.286 195.951C36.2451 196.033 36.222 196.122 36.2183 196.213C36.2263 196.405 36.275 196.593 36.3612 196.765C36.4473 196.937 36.569 197.089 36.7182 197.211C37.0866 197.453 37.4893 197.64 37.9128 197.764C37.9128 197.879 37.8828 197.994 37.8728 198.108C37.8029 198.657 37.7429 199.206 37.6629 199.739C37.6329 199.929 37.6029 200.113 37.5679 200.303C37.5679 200.178 37.5679 200.073 37.5679 200.058C37.5029 199.56 37.093 198.672 36.5682 198.562C36.4783 198.549 36.3865 198.554 36.2989 198.578C36.2112 198.602 36.1295 198.644 36.0589 198.702C35.9884 198.759 35.9306 198.83 35.8892 198.911C35.8478 198.992 35.8237 199.08 35.8184 199.171C35.8095 199.389 35.8534 199.607 35.9465 199.805C36.0396 200.002 36.1791 200.175 36.3532 200.308Z" fill="#443D78"/>
<path d="M30.1649 195.465C30.6178 195.462 31.0678 195.392 31.4995 195.255C31.6322 195.747 31.7992 196.229 31.9994 196.697C32.1144 196.971 32.2443 197.24 32.3743 197.515L32.2143 197.285C31.8944 196.911 31.0547 196.388 30.5498 196.602C30.4672 196.64 30.3934 196.694 30.3332 196.762C30.2731 196.83 30.2279 196.91 30.2005 196.997C30.1732 197.083 30.1644 197.174 30.1746 197.265C30.1848 197.355 30.2139 197.442 30.2599 197.52C30.3755 197.68 30.5249 197.813 30.6976 197.91C30.8703 198.006 31.0622 198.064 31.2596 198.078C31.7003 198.081 32.1386 198.015 32.5593 197.884L32.7092 198.193C32.9591 198.692 33.2091 199.191 33.444 199.689C33.524 199.864 33.599 200.039 33.674 200.188L33.534 199.989C33.2141 199.62 32.3743 199.096 31.8694 199.31C31.7868 199.348 31.713 199.403 31.6529 199.471C31.5927 199.539 31.5475 199.618 31.5202 199.705C31.4929 199.791 31.484 199.883 31.4942 199.973C31.5045 200.063 31.5335 200.15 31.5795 200.228C31.6951 200.388 31.8445 200.522 32.0173 200.618C32.19 200.715 32.3818 200.772 32.5792 200.787C33.0083 200.792 33.4353 200.728 33.8439 200.597C33.9189 200.777 33.9889 200.956 34.0489 201.136C34.1088 201.315 34.1338 201.37 34.1638 201.495L34.2688 201.864C34.3238 202.093 34.3838 202.363 34.4338 202.567C34.4837 202.772 34.4987 202.877 34.5287 203.031C34.4537 202.862 34.2888 202.532 34.2738 202.497C34.0139 202.083 33.2741 201.435 32.7292 201.57C32.6418 201.595 32.5607 201.639 32.4911 201.697C32.4216 201.756 32.3652 201.829 32.3256 201.91C32.2861 201.992 32.2641 202.081 32.2613 202.172C32.2585 202.263 32.2749 202.353 32.3093 202.438C32.3886 202.601 32.5019 202.745 32.6415 202.861C32.7811 202.977 32.9439 203.063 33.1191 203.111H34.8636C34.8613 203.074 34.8613 203.038 34.8636 203.001C34.9286 202.971 35.2885 202.827 35.6134 202.647C35.806 202.831 36.023 202.987 36.2583 203.111H36.7581C36.7881 202.921 36.8181 202.687 36.8181 202.662C36.8122 202.232 36.6951 201.811 36.4782 201.44C36.4833 201.392 36.4833 201.344 36.4782 201.295C36.4667 201.205 36.4362 201.118 36.3889 201.041C36.3415 200.963 36.2783 200.896 36.2033 200.844C36.1284 200.793 36.0434 200.757 35.9538 200.74C35.8642 200.724 35.7721 200.726 35.6834 200.747C35.1486 200.886 34.8137 201.814 34.7887 202.303C34.7887 202.333 34.7887 202.647 34.8236 202.847C34.7937 202.732 34.7687 202.617 34.7437 202.497L34.5587 201.784C34.5187 201.665 34.4837 201.545 34.4487 201.42C34.4138 201.295 34.3638 201.176 34.3188 201.051C34.2138 200.767 34.0938 200.477 33.9639 200.193C34.3941 200.109 34.8077 199.956 35.1885 199.739C35.3525 199.629 35.4908 199.486 35.5943 199.318C35.6978 199.15 35.764 198.962 35.7884 198.767C35.7908 198.675 35.774 198.585 35.7388 198.501C35.7037 198.416 35.6512 198.34 35.5847 198.278C35.5182 198.215 35.4391 198.167 35.3528 198.137C35.2664 198.107 35.1747 198.096 35.0836 198.103C34.5387 198.158 34.0838 199.026 33.9639 199.505C33.9639 199.535 33.9289 199.889 33.9139 200.083C33.8339 199.914 33.7589 199.739 33.674 199.585C33.429 199.086 33.1741 198.587 32.9092 198.118C32.8292 197.969 32.7492 197.819 32.6742 197.669C33.1184 197.577 33.5463 197.419 33.9439 197.201C34.108 197.091 34.2463 196.948 34.349 196.78C34.4518 196.612 34.5165 196.424 34.5387 196.228C34.5431 196.137 34.5283 196.047 34.4953 195.962C34.4624 195.878 34.412 195.801 34.3474 195.737C34.2829 195.673 34.2056 195.623 34.1206 195.591C34.0356 195.559 33.9447 195.545 33.8539 195.55C33.3091 195.61 32.8542 196.477 32.7392 196.956C32.7392 196.991 32.6842 197.5 32.6792 197.625C32.5043 197.295 32.3393 196.966 32.1794 196.627C31.9682 196.188 31.7846 195.737 31.6295 195.275C32.078 195.177 32.5081 195.009 32.9042 194.777C33.0697 194.668 33.2093 194.525 33.313 194.357C33.4166 194.189 33.4819 194 33.504 193.804C33.5064 193.713 33.4896 193.622 33.4545 193.538C33.4194 193.454 33.3668 193.378 33.3003 193.315C33.2338 193.252 33.1547 193.205 33.0684 193.174C32.982 193.144 32.8903 193.133 32.7992 193.141C32.2543 193.201 31.7995 194.068 31.6795 194.547C31.6795 194.582 31.6245 195.131 31.6245 195.23L31.5945 195.146C31.4603 194.669 31.3666 194.182 31.3146 193.689C31.2846 193.415 31.2746 193.156 31.2646 192.901C31.7079 192.856 32.1423 192.747 32.5543 192.577C32.7296 192.486 32.8831 192.359 33.0039 192.203C33.1248 192.047 33.2101 191.866 33.2541 191.674C33.2668 191.584 33.2602 191.492 33.2349 191.404C33.2095 191.317 33.1659 191.236 33.107 191.166C33.048 191.096 32.975 191.04 32.8927 191C32.8103 190.961 32.7206 190.939 32.6292 190.936C32.0794 190.936 31.5145 191.744 31.3596 192.213L31.2596 192.712C31.2596 192.597 31.2596 192.477 31.2596 192.368C31.2596 191.954 31.2896 191.575 31.3146 191.24C31.3146 191.051 31.3496 190.876 31.3696 190.717C31.7439 190.474 32.0807 190.178 32.3693 189.839C32.4828 189.678 32.5596 189.494 32.5941 189.3C32.6287 189.106 32.6202 188.907 32.5692 188.717C32.5391 188.631 32.4909 188.552 32.428 188.486C32.365 188.42 32.2887 188.368 32.2041 188.333C32.1195 188.299 32.0285 188.283 31.9372 188.286C31.8459 188.289 31.7564 188.312 31.6745 188.353C31.1746 188.602 31.0596 189.584 31.1396 190.063C31.1396 190.108 31.3346 190.747 31.3396 190.742C31.3396 190.896 31.2996 191.066 31.2796 191.24C31.2446 191.575 31.2096 191.959 31.1996 192.373C31.1845 192.82 31.1962 193.268 31.2346 193.714C31.2709 194.22 31.3546 194.721 31.4845 195.211L31.1196 194.677C30.7997 194.308 29.9599 193.784 29.4551 193.994C29.3723 194.032 29.2984 194.087 29.2382 194.155C29.178 194.224 29.1328 194.304 29.1056 194.391C29.0783 194.478 29.0695 194.569 29.0797 194.66C29.09 194.75 29.1191 194.838 29.1652 194.916C29.2818 195.075 29.4316 195.206 29.6043 195.301C29.777 195.395 29.9683 195.452 30.1649 195.465Z" fill="#443D78"/>
<path d="M39.5772 192.891C39.5772 192.891 39.7522 192.253 39.7622 192.213C39.8271 191.714 39.6722 190.752 39.1773 190.512C39.0941 190.476 39.0041 190.457 38.9132 190.457C38.8222 190.457 38.7322 190.475 38.649 190.512C38.5657 190.549 38.4911 190.602 38.4297 190.669C38.3683 190.736 38.3216 190.815 38.2926 190.901C38.2483 191.093 38.2465 191.293 38.287 191.486C38.3276 191.678 38.4096 191.86 38.5275 192.018C38.8331 192.359 39.1867 192.653 39.5772 192.891Z" fill="#443D78"/>
<path d="M291.225 192.682C291.669 192.797 292.127 192.848 292.585 192.831C292.585 192.831 292.375 192.203 292.36 192.163C292.145 191.724 291.475 190.991 290.935 191.066C290.848 191.084 290.765 191.12 290.691 191.171C290.618 191.222 290.556 191.288 290.509 191.364C290.462 191.44 290.431 191.525 290.419 191.614C290.406 191.702 290.412 191.793 290.436 191.879C290.503 192.061 290.608 192.226 290.745 192.364C290.881 192.503 291.045 192.611 291.225 192.682Z" fill="#443D78"/>
<path d="M300.703 202.862C300.743 202.78 300.765 202.69 300.768 202.599C300.772 202.508 300.756 202.418 300.722 202.333C300.688 202.249 300.637 202.172 300.572 202.109C300.506 202.045 300.428 201.996 300.343 201.964C299.843 201.789 299.028 202.383 298.738 202.777C298.738 202.777 298.628 202.956 298.538 203.111H300.538C300.608 203.039 300.664 202.954 300.703 202.862Z" fill="#443D78"/>
<path d="M297.754 200.308C298.11 200.546 298.501 200.728 298.913 200.847C298.868 201.036 298.833 201.226 298.783 201.405C298.733 201.585 298.723 201.65 298.683 201.769C298.643 201.889 298.603 202.014 298.563 202.128C298.483 202.358 298.398 202.592 298.313 202.807L298.194 203.111H298.513L298.588 202.911C298.673 202.687 298.748 202.458 298.833 202.213C298.868 202.093 298.903 201.974 298.943 201.849C298.983 201.724 299.003 201.6 299.038 201.47C299.108 201.176 299.168 200.871 299.218 200.562C299.625 200.726 300.055 200.825 300.493 200.857C300.691 200.854 300.887 200.808 301.066 200.722C301.244 200.635 301.402 200.511 301.528 200.358C301.58 200.283 301.615 200.198 301.632 200.108C301.65 200.019 301.648 199.927 301.627 199.838C301.606 199.749 301.567 199.666 301.512 199.593C301.457 199.52 301.388 199.459 301.308 199.415C300.808 199.166 299.943 199.63 299.598 199.974C299.598 199.974 299.353 200.273 299.238 200.423C299.263 200.238 299.293 200.054 299.318 199.869C299.388 199.325 299.438 198.772 299.493 198.223C299.493 198.053 299.528 197.884 299.543 197.724C299.965 197.891 300.41 197.994 300.863 198.029C301.061 198.026 301.257 197.98 301.436 197.894C301.614 197.807 301.772 197.683 301.898 197.53C301.949 197.455 301.985 197.371 302.002 197.281C302.019 197.192 302.017 197.101 301.997 197.012C301.976 196.924 301.937 196.841 301.882 196.768C301.827 196.696 301.757 196.636 301.678 196.592C301.178 196.343 300.313 196.802 299.968 197.151C299.968 197.176 299.623 197.57 299.548 197.674C299.588 197.305 299.628 196.936 299.683 196.577C299.759 196.089 299.866 195.606 300.003 195.131C300.427 195.299 300.873 195.403 301.328 195.44C301.526 195.437 301.722 195.391 301.9 195.305C302.079 195.219 302.237 195.095 302.362 194.941C302.414 194.867 302.45 194.782 302.467 194.693C302.484 194.604 302.482 194.512 302.461 194.424C302.441 194.335 302.402 194.252 302.347 194.18C302.292 194.107 302.222 194.047 302.142 194.004C301.643 193.749 300.778 194.213 300.433 194.557C300.403 194.587 300.063 195.011 300.008 195.096C300.005 195.068 300.005 195.039 300.008 195.011C300.158 194.538 300.351 194.079 300.583 193.639C300.708 193.4 300.843 193.171 300.978 192.956C301.37 193.164 301.791 193.312 302.227 193.395C302.424 193.416 302.623 193.394 302.811 193.331C302.998 193.267 303.169 193.163 303.312 193.026C303.372 192.957 303.417 192.877 303.444 192.79C303.471 192.703 303.479 192.612 303.469 192.522C303.458 192.431 303.428 192.344 303.381 192.266C303.334 192.188 303.272 192.121 303.197 192.068C302.742 191.764 301.823 192.128 301.438 192.437C301.438 192.437 301.223 192.642 301.083 192.787L301.268 192.497C301.498 192.148 301.733 191.849 301.938 191.584L302.272 191.176C302.716 191.181 303.157 191.119 303.582 190.991C303.765 190.919 303.931 190.808 304.067 190.666C304.203 190.523 304.307 190.354 304.372 190.168C304.395 190.08 304.398 189.988 304.383 189.898C304.367 189.809 304.333 189.723 304.282 189.648C304.231 189.572 304.164 189.509 304.087 189.461C304.009 189.413 303.922 189.382 303.832 189.37C303.282 189.31 302.637 190.053 302.437 190.502C302.437 190.542 302.217 191.176 302.227 191.176C302.122 191.29 302.013 191.42 301.898 191.56C301.683 191.824 301.443 192.118 301.203 192.462C300.945 192.829 300.706 193.208 300.488 193.6C300.246 194.039 300.042 194.497 299.878 194.971C299.878 194.812 299.878 194.363 299.878 194.328C299.818 193.829 299.408 192.941 298.878 192.831C298.788 192.817 298.696 192.822 298.608 192.846C298.52 192.87 298.438 192.912 298.368 192.969C298.297 193.026 298.239 193.098 298.198 193.179C298.157 193.26 298.133 193.349 298.129 193.44C298.137 193.632 298.186 193.82 298.272 193.992C298.358 194.163 298.48 194.315 298.628 194.437C299.009 194.685 299.426 194.873 299.863 194.996C299.709 195.486 299.587 195.986 299.498 196.492C299.448 196.782 299.403 197.081 299.363 197.38C299.363 197.24 299.363 197.116 299.363 197.101C299.298 196.602 298.893 195.714 298.363 195.605C298.273 195.59 298.181 195.594 298.093 195.617C298.004 195.641 297.922 195.683 297.851 195.74C297.78 195.798 297.722 195.87 297.681 195.951C297.64 196.033 297.617 196.122 297.614 196.213C297.619 196.406 297.667 196.594 297.753 196.767C297.84 196.939 297.963 197.09 298.114 197.211C298.481 197.455 298.884 197.642 299.308 197.764L299.263 198.108C299.198 198.657 299.133 199.206 299.058 199.739C299.028 199.929 298.993 200.113 298.963 200.303C298.963 200.178 298.963 200.073 298.963 200.058C298.903 199.56 298.493 198.672 297.964 198.562C297.874 198.548 297.782 198.553 297.694 198.577C297.606 198.6 297.524 198.642 297.453 198.7C297.382 198.757 297.324 198.829 297.283 198.91C297.242 198.991 297.218 199.08 297.214 199.171C297.205 199.39 297.25 199.607 297.344 199.805C297.438 200.003 297.579 200.176 297.754 200.308Z" fill="#443D78"/>
<path d="M291.555 195.465C292.01 195.462 292.461 195.392 292.895 195.255C293.03 195.746 293.197 196.228 293.395 196.697C293.515 196.971 293.64 197.24 293.775 197.515L293.615 197.285C293.29 196.911 292.455 196.388 291.95 196.602C291.867 196.64 291.794 196.694 291.734 196.762C291.673 196.83 291.628 196.91 291.601 196.997C291.574 197.083 291.565 197.174 291.575 197.265C291.585 197.355 291.614 197.442 291.66 197.52C291.775 197.681 291.925 197.814 292.097 197.911C292.27 198.007 292.462 198.065 292.66 198.078C293.101 198.081 293.539 198.015 293.96 197.884C294.015 197.984 294.065 198.088 294.115 198.193C294.364 198.692 294.614 199.191 294.844 199.689C294.929 199.864 294.999 200.039 295.074 200.188L294.934 199.989C294.614 199.62 293.78 199.096 293.27 199.31C293.188 199.349 293.114 199.404 293.055 199.472C292.995 199.54 292.95 199.62 292.923 199.706C292.897 199.793 292.888 199.884 292.899 199.974C292.909 200.064 292.939 200.15 292.985 200.228C293.1 200.389 293.249 200.522 293.422 200.619C293.595 200.716 293.787 200.773 293.985 200.787C294.414 200.792 294.841 200.728 295.249 200.597C295.319 200.777 295.394 200.956 295.454 201.136C295.514 201.315 295.539 201.37 295.569 201.495L295.674 201.864C295.729 202.093 295.789 202.363 295.839 202.567C295.889 202.772 295.904 202.877 295.934 203.031C295.854 202.862 295.694 202.532 295.674 202.497C295.414 202.083 294.674 201.435 294.135 201.57C294.047 201.595 293.965 201.638 293.895 201.696C293.825 201.755 293.768 201.827 293.728 201.909C293.688 201.991 293.665 202.08 293.662 202.171C293.659 202.262 293.675 202.353 293.71 202.438C293.791 202.601 293.905 202.745 294.045 202.861C294.186 202.977 294.349 203.062 294.524 203.111H296.284C296.278 203.074 296.27 203.037 296.259 203.001C296.324 202.971 296.689 202.827 297.014 202.647C297.206 202.831 297.423 202.987 297.659 203.111H298.158C298.158 202.921 298.218 202.687 298.218 202.662C298.211 202.233 298.094 201.812 297.879 201.44C297.884 201.392 297.884 201.344 297.879 201.295C297.868 201.205 297.838 201.118 297.791 201.04C297.743 200.961 297.68 200.894 297.605 200.842C297.53 200.79 297.445 200.755 297.355 200.739C297.265 200.722 297.172 200.725 297.084 200.747C296.554 200.886 296.219 201.814 296.194 202.303C296.194 202.333 296.194 202.647 296.224 202.847C296.199 202.732 296.174 202.617 296.144 202.497C296.089 202.268 296.029 202.034 295.959 201.784C295.924 201.665 295.889 201.545 295.849 201.42C295.809 201.295 295.764 201.176 295.724 201.051C295.619 200.767 295.499 200.477 295.369 200.193C295.799 200.108 296.213 199.955 296.594 199.739C296.758 199.63 296.896 199.486 296.999 199.318C297.101 199.15 297.166 198.962 297.189 198.767C297.192 198.676 297.176 198.585 297.141 198.501C297.107 198.417 297.055 198.341 296.988 198.278C296.922 198.215 296.844 198.167 296.757 198.137C296.671 198.107 296.58 198.096 296.489 198.103C295.944 198.158 295.489 199.026 295.369 199.505C295.369 199.535 295.329 199.889 295.319 200.083C295.239 199.914 295.164 199.739 295.079 199.585C294.834 199.086 294.579 198.587 294.309 198.118C294.234 197.969 294.155 197.819 294.075 197.669C294.519 197.579 294.947 197.42 295.344 197.201C295.509 197.092 295.648 196.949 295.751 196.781C295.854 196.613 295.918 196.424 295.939 196.228C295.942 196.137 295.926 196.046 295.891 195.962C295.857 195.878 295.805 195.802 295.739 195.739C295.673 195.677 295.594 195.629 295.508 195.598C295.422 195.568 295.33 195.557 295.239 195.565C294.694 195.624 294.239 196.492 294.12 196.971C294.12 197.006 294.07 197.515 294.065 197.639C293.89 197.31 293.72 196.981 293.565 196.642C293.355 196.194 293.177 195.732 293.03 195.26C293.471 195.165 293.894 195.001 294.284 194.777C294.449 194.668 294.588 194.525 294.691 194.357C294.794 194.189 294.858 194 294.879 193.804C294.882 193.713 294.866 193.622 294.832 193.538C294.797 193.454 294.745 193.378 294.679 193.315C294.613 193.253 294.534 193.205 294.448 193.174C294.362 193.144 294.27 193.133 294.179 193.141C293.635 193.201 293.18 194.068 293.06 194.547C293.06 194.582 293.005 195.131 293 195.23C293 195.201 293 195.176 292.975 195.146C292.838 194.67 292.745 194.182 292.695 193.689C292.665 193.415 292.65 193.156 292.645 192.901C293.088 192.855 293.522 192.746 293.935 192.577C294.109 192.486 294.262 192.358 294.383 192.202C294.504 192.046 294.59 191.866 294.634 191.674C294.646 191.584 294.639 191.492 294.614 191.405C294.588 191.318 294.544 191.237 294.485 191.167C294.427 191.098 294.354 191.041 294.272 191.002C294.19 190.962 294.101 190.939 294.01 190.936C293.46 190.936 292.89 191.744 292.74 192.213L292.64 192.712C292.64 192.597 292.64 192.477 292.64 192.368C292.64 191.954 292.64 191.575 292.695 191.24C292.695 191.051 292.73 190.876 292.745 190.717C293.121 190.477 293.458 190.181 293.745 189.839C293.859 189.678 293.937 189.494 293.972 189.3C294.007 189.107 294 188.907 293.95 188.717C293.919 188.631 293.87 188.553 293.807 188.487C293.744 188.422 293.668 188.37 293.583 188.336C293.499 188.301 293.408 188.285 293.317 188.288C293.226 188.291 293.137 188.313 293.055 188.353C292.555 188.602 292.44 189.584 292.52 190.063C292.52 190.108 292.71 190.747 292.72 190.742C292.72 190.896 292.675 191.066 292.655 191.24C292.625 191.575 292.59 191.959 292.58 192.373C292.566 192.82 292.576 193.268 292.61 193.714C292.651 194.219 292.735 194.72 292.86 195.211C292.775 195.076 292.52 194.712 292.5 194.677C292.175 194.308 291.34 193.784 290.835 193.994C290.753 194.032 290.679 194.087 290.619 194.155C290.558 194.224 290.513 194.304 290.486 194.391C290.459 194.478 290.45 194.569 290.46 194.66C290.47 194.75 290.499 194.838 290.545 194.916C290.663 195.076 290.814 195.209 290.989 195.304C291.163 195.399 291.357 195.454 291.555 195.465Z" fill="#443D78"/>
<path d="M300.973 192.891C300.973 192.891 301.148 192.253 301.153 192.213C301.222 191.714 301.068 190.752 300.573 190.512C300.489 190.476 300.399 190.457 300.309 190.457C300.218 190.457 300.128 190.475 300.044 190.512C299.961 190.549 299.886 190.602 299.825 190.669C299.764 190.736 299.717 190.815 299.688 190.901C299.644 191.093 299.642 191.293 299.682 191.486C299.723 191.678 299.805 191.86 299.923 192.018C300.228 192.359 300.582 192.653 300.973 192.891Z" fill="#443D78"/>
<path d="M25.0461 70.714C25.0461 70.714 47.4052 72.9186 58.7321 86.7493C58.7321 86.7493 70.7039 70.729 92.2232 71.0582C97.4781 64.7336 100.824 57.0496 101.872 48.901C102.92 40.7524 101.626 32.4745 98.1415 25.0311C94.6569 17.5878 89.1249 11.2852 82.1895 6.8574C75.2542 2.42959 67.2009 0.0586929 58.9674 0.0207865C50.734 -0.01712 42.6591 2.27952 35.6831 6.64329C28.7071 11.0071 23.117 17.2584 19.5638 24.6694C16.0105 32.0803 14.6403 40.346 15.6126 48.5039C16.585 56.6618 19.8599 64.3763 25.0561 70.749L25.0461 70.714Z" fill="#A9E8CB"/>
<path opacity="0.4" d="M25.0461 70.714C25.0461 70.714 47.4052 72.9186 58.7321 86.7493C58.7321 86.7493 70.7039 70.729 92.2232 71.0582C97.4781 64.7336 100.824 57.0496 101.872 48.901C102.92 40.7524 101.626 32.4745 98.1415 25.0311C94.6569 17.5878 89.1249 11.2852 82.1895 6.8574C75.2542 2.42959 67.2009 0.0586929 58.9674 0.0207865C50.734 -0.01712 42.6591 2.27952 35.6831 6.64329C28.7071 11.0071 23.117 17.2584 19.5638 24.6694C16.0105 32.0803 14.6403 40.346 15.6126 48.5039C16.585 56.6618 19.8599 64.3763 25.0561 70.749L25.0461 70.714Z" fill="white"/>
<path d="M80.2614 45.646C80.2614 45.646 66.895 48.8082 59.517 59.5316L59.0971 43.9353L59.1271 44.1398C59.1271 44.1398 66.6751 30.5883 80.2614 26.4436C80.2614 26.4436 66.2652 29.7554 59.0221 41.0873L57.9924 20.0894L57.6775 50.1848C50.5694 39.4065 37.6178 36.2194 37.6178 36.2194C49.0597 39.8354 56.0579 50.6187 57.6575 53.3021L57.5525 68.8136C50.4194 58.185 37.6178 55.0478 37.6178 55.0478C48.7848 58.574 55.723 68.9333 57.5325 71.9209L57.2376 203.365H61.0116L60.0968 80.9735C62.5312 77.2976 69.4993 68.1154 80.2614 64.8335C80.2614 64.8335 67.4798 67.861 60.0168 78.0208L59.6019 62.5591C61.4365 59.6114 68.6345 49.1773 80.2614 45.646Z" fill="#443D78"/>
<path d="M80.2614 45.646C80.2614 45.646 66.895 48.8082 59.517 59.5316L59.0971 43.9353L59.1271 44.1398C59.1271 44.1398 66.6751 30.5883 80.2614 26.4436C80.2614 26.4436 66.2652 29.7554 59.0221 41.0873L57.9924 20.0894L57.6775 50.1848C50.5694 39.4065 37.6178 36.2194 37.6178 36.2194C49.0597 39.8354 56.0579 50.6187 57.6575 53.3021L57.5525 68.8136C50.4194 58.185 37.6178 55.0478 37.6178 55.0478C48.7848 58.574 55.723 68.9333 57.5325 71.9209L57.2376 203.365H61.0116L60.0968 80.9735C62.5312 77.2976 69.4993 68.1154 80.2614 64.8335C80.2614 64.8335 67.4798 67.861 60.0168 78.0208L59.6019 62.5591C61.4365 59.6114 68.6345 49.1773 80.2614 45.646Z" fill="#443D78"/>
<path d="M7.92575 142.232C7.92575 142.232 26.1509 144.032 35.4184 155.309C35.4184 155.309 45.1808 142.247 62.7112 142.516C66.9939 137.36 69.7205 131.095 70.5737 124.452C71.4269 117.81 70.3716 111.062 67.5305 104.994C64.6894 98.9267 60.1795 93.7892 54.5259 90.1798C48.8722 86.5705 42.3073 84.6377 35.5955 84.6065C28.8837 84.5753 22.3011 86.447 16.614 90.0038C10.9268 93.5605 6.36922 98.6559 3.47167 104.697C0.574125 110.738 -0.544147 117.475 0.247044 124.126C1.03824 130.776 3.70634 137.066 7.94074 142.262L7.92575 142.232Z" fill="#A9E8CB"/>
<path opacity="0.4" d="M7.92575 142.232C7.92575 142.232 26.1509 144.032 35.4184 155.309C35.4184 155.309 45.1808 142.247 62.7112 142.516C66.9939 137.36 69.7205 131.095 70.5737 124.452C71.4269 117.81 70.3716 111.062 67.5305 104.994C64.6894 98.9267 60.1795 93.7892 54.5259 90.1798C48.8722 86.5705 42.3073 84.6377 35.5955 84.6065C28.8837 84.5753 22.3011 86.447 16.614 90.0038C10.9268 93.5605 6.36922 98.6559 3.47167 104.697C0.574125 110.738 -0.544147 117.475 0.247044 124.126C1.03824 130.776 3.70634 137.066 7.94074 142.262L7.92575 142.232Z" fill="white"/>
<path d="M18.1729 129.439C27.2805 132.316 32.934 140.76 34.4086 143.199L34.2786 203.296H36.8979L36.503 150.601C38.5025 147.608 44.171 140.127 52.9436 137.444C52.9436 137.444 42.5214 139.908 36.448 148.192L36.1081 135.573C37.6077 133.174 43.4762 124.675 52.9537 121.782C52.9537 121.782 42.0565 124.361 36.0432 133.104L35.6982 120.386V120.556C35.6982 120.556 41.8516 109.488 52.9436 106.126C52.9436 106.126 41.5367 108.83 35.6233 118.067L34.7885 100.949L34.5286 125.483C28.7351 116.695 18.1729 114.106 18.1729 114.106C27.5004 117.054 33.2089 125.847 34.5136 128.037L34.4286 140.686C28.6101 132.022 18.1729 129.439 18.1729 129.439Z" fill="#443D78"/>
<path d="M18.1729 129.439C27.2805 132.316 32.934 140.76 34.4086 143.199L34.2786 203.296H36.8979L36.503 150.601C38.5025 147.608 44.171 140.127 52.9436 137.444C52.9436 137.444 42.5214 139.908 36.448 148.192L36.1081 135.573C37.6077 133.174 43.4762 124.675 52.9537 121.782C52.9537 121.782 42.0565 124.361 36.0432 133.104L35.6982 120.386V120.556C35.6982 120.556 41.8516 109.488 52.9436 106.126C52.9436 106.126 41.5367 108.83 35.6233 118.067L34.7885 100.949L34.5286 125.483C28.7351 116.695 18.1729 114.106 18.1729 114.106C27.5004 117.054 33.2089 125.847 34.5136 128.037L34.4286 140.686C28.6101 132.022 18.1729 129.439 18.1729 129.439Z" fill="#443D78"/>
<path d="M270.471 142.232C270.471 142.232 288.701 144.032 297.938 155.309C297.938 155.309 307.701 142.247 325.231 142.516C329.516 137.359 332.245 131.094 333.1 124.45C333.955 117.805 332.901 111.055 330.06 104.986C327.219 98.9163 322.708 93.7769 317.053 90.1661C311.398 86.5554 304.832 84.6218 298.118 84.5907C291.404 84.5595 284.82 86.4319 279.132 89.99C273.443 93.5481 268.885 98.6453 265.988 104.688C263.09 110.731 261.973 117.471 262.765 124.123C263.558 130.775 266.229 137.065 270.466 142.262L270.471 142.232Z" fill="#A9E8CB"/>
<path opacity="0.4" d="M270.471 142.232C270.471 142.232 288.701 144.032 297.938 155.309C297.938 155.309 307.701 142.247 325.231 142.516C329.516 137.359 332.245 131.094 333.1 124.45C333.955 117.805 332.901 111.055 330.06 104.986C327.219 98.9163 322.708 93.7769 317.053 90.1661C311.398 86.5554 304.832 84.6218 298.118 84.5907C291.404 84.5595 284.82 86.4319 279.132 89.99C273.443 93.5481 268.885 98.6453 265.988 104.688C263.09 110.731 261.973 117.471 262.765 124.123C263.558 130.775 266.229 137.065 270.466 142.262L270.471 142.232Z" fill="white"/>
<path d="M280.723 129.438C289.826 132.316 295.484 140.76 296.959 143.199L296.824 203.295H299.443L299.053 150.581C301.053 147.588 306.716 140.107 315.489 137.424C315.489 137.424 305.072 139.888 298.993 148.172L298.648 135.553C300.148 133.154 306.016 124.655 315.494 121.762C315.494 121.762 304.597 124.341 298.583 133.084L298.238 120.366L298.263 120.536C298.263 120.536 304.417 109.483 315.494 106.106C315.494 106.106 304.092 108.81 298.178 118.047L297.344 100.929L297.084 125.463C291.285 116.675 280.728 114.086 280.728 114.086C290.056 117.034 295.764 125.827 297.064 128.017L296.979 140.666C291.16 132.022 280.723 129.438 280.723 129.438Z" fill="#443D78"/>
<path d="M280.723 129.438C289.826 132.316 295.484 140.76 296.959 143.199L296.824 203.295H299.443L299.053 150.581C301.053 147.588 306.716 140.107 315.489 137.424C315.489 137.424 305.072 139.888 298.993 148.172L298.648 135.553C300.148 133.154 306.016 124.655 315.494 121.762C315.494 121.762 304.597 124.341 298.583 133.084L298.238 120.366L298.263 120.536C298.263 120.536 304.417 109.483 315.494 106.106C315.494 106.106 304.092 108.81 298.178 118.047L297.344 100.929L297.084 125.463C291.285 116.675 280.728 114.086 280.728 114.086C290.056 117.034 295.764 125.827 297.064 128.017L296.979 140.666C291.16 132.022 280.723 129.438 280.723 129.438Z" fill="#443D78"/>
<path d="M243.668 61.7213L225.653 79.6967" stroke="#443D78" stroke-width="0.500906" stroke-linecap="round" stroke-linejoin="round"/>
<path d="M223.158 82.1855L225.238 77.2428L225.843 79.5072L228.112 80.1107L223.158 82.1855Z" fill="#443D78"/>
<path d="M253.105 65.2974L244.463 80.1157" stroke="#443D78" stroke-width="0.500906" stroke-linecap="round" stroke-linejoin="round"/>
<path d="M242.688 83.1581L243.433 77.8513L244.598 79.8912H246.947L242.688 83.1581Z" fill="#443D78"/>
<path d="M247.572 45.1572L191.647 79.9959" stroke="#443D78" stroke-width="0.500906" stroke-linecap="round" stroke-linejoin="round"/>
<path d="M188.653 81.8614L191.797 77.5121L191.872 79.8563L193.946 80.9536L188.653 81.8614Z" fill="#443D78"/>
<path d="M270.745 51.9453C279.546 50.1189 285.196 41.5198 283.365 32.7388C281.535 23.9577 272.917 18.3199 264.116 20.1464C255.316 21.9728 249.666 30.5719 251.496 39.353C253.327 48.134 261.945 53.7718 270.745 51.9453Z" fill="#A9E8CB" stroke="#443D78" stroke-width="0.500906" stroke-miterlimit="10"/>
<path d="M267.432 7.80481V15.6005" stroke="#443D78" stroke-width="0.500906" stroke-miterlimit="10"/>
<path d="M267.432 56.5241V64.3198" stroke="#443D78" stroke-width="0.500906" stroke-miterlimit="10"/>
<path d="M295.749 36.0648H287.936" stroke="#443D78" stroke-width="0.500906" stroke-miterlimit="10"/>
<path d="M246.922 36.0648H239.109" stroke="#443D78" stroke-width="0.500906" stroke-miterlimit="10"/>
<path d="M287.457 16.0793L281.933 21.5957" stroke="#443D78" stroke-width="0.500906" stroke-miterlimit="10"/>
<path d="M252.931 50.5339L247.402 56.0453" stroke="#443D78" stroke-width="0.500906" stroke-miterlimit="10"/>
<path d="M247.402 16.0793L252.931 21.5957" stroke="#443D78" stroke-width="0.500906" stroke-miterlimit="10"/>
<path d="M281.933 50.5339L287.457 56.0453" stroke="#443D78" stroke-width="0.500906" stroke-miterlimit="10"/>
<path d="M278.739 149.693H70.714V203.096H278.739V149.693Z" fill="white"/>
<path opacity="0.31" d="M278.739 149.693H70.714V159.2H278.739V149.693Z" fill="black"/>
<path d="M278.739 149.693H70.714V203.096H278.739V149.693Z" stroke="#443D78" stroke-width="0.500906" stroke-linecap="round" stroke-linejoin="round"/>
<path d="M280.873 149.693H68.5847V152.137H280.873V149.693Z" fill="white" stroke="#443D78" stroke-width="0.500906" stroke-linecap="round" stroke-linejoin="round"/>
<path d="M281.433 149.733H66.3103L84.2355 88.4051H263.503L281.433 149.733Z" fill="#443D78" stroke="#443D78" stroke-width="0.500906" stroke-linecap="round" stroke-linejoin="round"/>
<path d="M109.529 140.042H77.1823L89.494 94.4801L117.881 94.5998L109.529 140.042Z" fill="#A9E8CB" stroke="white" stroke-width="0.500906" stroke-miterlimit="10"/>
<path d="M96.4821 94.5698L85.1851 139.962" stroke="white" stroke-width="0.500906" stroke-miterlimit="10"/>
<path d="M103.82 94.5997L93.543 139.962" stroke="white" stroke-width="0.500906" stroke-miterlimit="10"/>
<path d="M111.148 94.6297L101.886 139.962" stroke="white" stroke-width="0.500906" stroke-miterlimit="10"/>
<path d="M87.8344 100.799L116.937 100.905" stroke="white" stroke-width="0.500906" stroke-miterlimit="10"/>
<path d="M85.88 108.036L115.612 108.122" stroke="white" stroke-width="0.500906" stroke-miterlimit="10"/>
<path d="M83.8356 115.593L114.233 115.658" stroke="white" stroke-width="0.500906" stroke-miterlimit="10"/>
<path d="M81.7061 123.488L112.793 123.538" stroke="white" stroke-width="0.500906" stroke-miterlimit="10"/>
<path d="M79.4717 131.753L111.283 131.778" stroke="white" stroke-width="0.500906" stroke-miterlimit="10"/>
<path d="M147.314 140.042H115.192L122.855 94.6198L151.068 94.7345L147.314 140.042Z" fill="#A9E8CB" stroke="white" stroke-width="0.500906" stroke-miterlimit="10"/>
<path d="M129.808 94.7095L123.13 139.962" stroke="white" stroke-width="0.500906" stroke-miterlimit="10"/>
<path d="M137.101 94.7394L131.433 139.962" stroke="white" stroke-width="0.500906" stroke-miterlimit="10"/>
<path d="M144.384 94.7693L139.721 139.962" stroke="white" stroke-width="0.500906" stroke-miterlimit="10"/>
<path d="M121.835 100.919L150.763 101.024" stroke="white" stroke-width="0.500906" stroke-miterlimit="10"/>
<path d="M120.621 108.136L150.168 108.221" stroke="white" stroke-width="0.500906" stroke-miterlimit="10"/>
<path d="M119.351 115.673L149.548 115.738" stroke="white" stroke-width="0.500906" stroke-miterlimit="10"/>
<path d="M118.027 123.543L148.903 123.593" stroke="white" stroke-width="0.500906" stroke-miterlimit="10"/>
<path d="M116.637 131.783L148.228 131.808" stroke="white" stroke-width="0.500906" stroke-miterlimit="10"/>
<path d="M237.685 140.042H270.026L257.714 94.4801L229.332 94.5998L237.685 140.042Z" fill="#A9E8CB" stroke="white" stroke-width="0.500906" stroke-miterlimit="10"/>
<path d="M250.726 94.5698L262.023 139.962" stroke="white" stroke-width="0.500906" stroke-miterlimit="10"/>
<path d="M243.388 94.5997L253.665 139.962" stroke="white" stroke-width="0.500906" stroke-miterlimit="10"/>
<path d="M236.065 94.6297L245.322 139.962" stroke="white" stroke-width="0.500906" stroke-miterlimit="10"/>
<path d="M259.379 100.799L230.272 100.905" stroke="white" stroke-width="0.500906" stroke-miterlimit="10"/>
<path d="M261.333 108.036L231.596 108.122" stroke="white" stroke-width="0.500906" stroke-miterlimit="10"/>
<path d="M263.373 115.593L232.976 115.658" stroke="white" stroke-width="0.500906" stroke-miterlimit="10"/>
<path d="M265.507 123.488L234.42 123.538" stroke="white" stroke-width="0.500906" stroke-miterlimit="10"/>
<path d="M267.737 131.753L235.93 131.778" stroke="white" stroke-width="0.500906" stroke-miterlimit="10"/>
<path d="M199.895 140.042H232.016L224.353 94.6198L196.141 94.7345L199.895 140.042Z" fill="#A9E8CB" stroke="white" stroke-width="0.500906" stroke-miterlimit="10"/>
<path d="M217.405 94.7095L224.078 139.962" stroke="white" stroke-width="0.500906" stroke-miterlimit="10"/>
<path d="M210.112 94.7394L215.78 139.962" stroke="white" stroke-width="0.500906" stroke-miterlimit="10"/>
<path d="M202.829 94.7693L207.493 139.962" stroke="white" stroke-width="0.500906" stroke-miterlimit="10"/>
<path d="M225.373 100.919L196.451 101.024" stroke="white" stroke-width="0.500906" stroke-miterlimit="10"/>
<path d="M226.588 108.136L197.04 108.221" stroke="white" stroke-width="0.500906" stroke-miterlimit="10"/>
<path d="M227.857 115.673L197.66 115.738" stroke="white" stroke-width="0.500906" stroke-miterlimit="10"/>
<path d="M229.187 123.543L198.305 123.593" stroke="white" stroke-width="0.500906" stroke-miterlimit="10"/>
<path d="M230.571 131.783L198.98 131.808" stroke="white" stroke-width="0.500906" stroke-miterlimit="10"/>
<path d="M162.725 159.195H158.706V166.142H162.725V159.195Z" fill="#CCCCCC"/>
<path d="M162.725 167.604H158.706V173.823H162.725V167.604Z" fill="#CCCCCC"/>
<path d="M162.725 175.28H158.706V181.499H162.725V175.28Z" fill="#CCCCCC"/>
<path d="M162.725 182.961H158.706V190.936H162.725V182.961Z" fill="#CCCCCC"/>
<path d="M157.681 182.961H152.837V190.936H157.681V182.961Z" fill="#CCCCCC"/>
<path d="M157.681 175.28H152.837V181.499H157.681V175.28Z" fill="#CCCCCC"/>
<path d="M157.681 167.604H152.837V173.823H157.681V167.604Z" fill="#CCCCCC"/>
<path d="M157.681 159.195H152.837V166.142H157.681V159.195Z" fill="#CCCCCC"/>
<path d="M196.106 159.195H192.082V166.142H196.106V159.195Z" fill="#CCCCCC"/>
<path d="M196.106 167.604H192.082V173.823H196.106V167.604Z" fill="#CCCCCC"/>
<path d="M196.106 175.28H192.082V181.499H196.106V175.28Z" fill="#CCCCCC"/>
<path d="M196.106 182.961H192.082V190.936H196.106V182.961Z" fill="#CCCCCC"/>
<path d="M191.057 182.961H186.213V190.936H191.057V182.961Z" fill="#CCCCCC"/>
<path d="M191.057 175.28H186.213V181.499H191.057V175.28Z" fill="#CCCCCC"/>
<path d="M191.057 167.604H186.213V173.823H191.057V167.604Z" fill="#CCCCCC"/>
<path d="M191.057 159.195H186.213V166.142H191.057V159.195Z" fill="#CCCCCC"/>
<path d="M184.994 158.856H164.124V198.747H184.994V158.856Z" fill="#A9E8CB" stroke="#443D78" stroke-width="0.500906" stroke-linecap="round" stroke-linejoin="round"/>
<path d="M182.299 161.21H167.153V180.691H182.299V161.21Z" stroke="#443D78" stroke-width="0.250453" stroke-linecap="round" stroke-linejoin="round"/>
<path d="M182.299 188.078H167.153V196.138H182.299V188.078Z" stroke="#443D78" stroke-width="0.250453" stroke-linecap="round" stroke-linejoin="round"/>
<path d="M182.299 183.041H167.153V186.063H182.299V183.041Z" stroke="#443D78" stroke-width="0.250453" stroke-linecap="round" stroke-linejoin="round"/>
<path d="M166.548 178.282H164.654V184.667H166.548V178.282Z" fill="#443D78"/>
<path d="M174.896 156.302C176.834 156.302 178.405 154.734 178.405 152.801C178.405 150.867 176.834 149.299 174.896 149.299C172.958 149.299 171.387 150.867 171.387 152.801C171.387 154.734 172.958 156.302 174.896 156.302Z" stroke="#443D78" stroke-width="0.500906" stroke-linecap="round" stroke-linejoin="round"/>
<path d="M176.266 159.2H173.517L172.982 155.818H176.801L176.266 159.2Z" fill="white" stroke="#443D78" stroke-width="1.00181" stroke-linecap="round" stroke-linejoin="round"/>
<path d="M175.996 153.135H173.787L172.632 155.813H177.146L175.996 153.135Z" fill="white" stroke="#443D78" stroke-width="0.500906" stroke-linecap="round" stroke-linejoin="round"/>
<path d="M175.441 151.803H174.341V153.105H175.441V151.803Z" fill="#443D78" stroke="#443D78" stroke-width="0.500906" stroke-linecap="round" stroke-linejoin="round"/>
<path d="M155.786 153.783L161.16 152.092C169.263 149.552 177.939 149.47 186.088 151.858L192.642 153.783H203.334V140.91L173.592 105.772L144.409 140.91V153.763L155.786 153.783Z" fill="white" stroke="#443D78" stroke-width="0.500906" stroke-linecap="round" stroke-linejoin="round"/>
<path d="M203.334 198.398H144.409V203.101H203.334V198.398Z" fill="#443D78" stroke="#443D78" stroke-width="0.500906" stroke-linecap="round" stroke-linejoin="round"/>
<path d="M156.346 198.876V202.557" stroke="#B0B0B0" stroke-width="0.500906" stroke-linecap="round" stroke-linejoin="round"/>
<path d="M159.395 198.876V202.557" stroke="#B0B0B0" stroke-width="0.500906" stroke-linecap="round" stroke-linejoin="round"/>
<path d="M162.44 198.876V202.557" stroke="#B0B0B0" stroke-width="0.500906" stroke-linecap="round" stroke-linejoin="round"/>
<path d="M165.489 198.876V202.557" stroke="#B0B0B0" stroke-width="0.500906" stroke-linecap="round" stroke-linejoin="round"/>
<path d="M168.538 198.876V202.557" stroke="#B0B0B0" stroke-width="0.500906" stroke-linecap="round" stroke-linejoin="round"/>
<path d="M171.587 198.876V202.557" stroke="#B0B0B0" stroke-width="0.500906" stroke-linecap="round" stroke-linejoin="round"/>
<path d="M174.631 198.876V202.557" stroke="#B0B0B0" stroke-width="0.500906" stroke-linecap="round" stroke-linejoin="round"/>
<path d="M177.681 198.876V202.557" stroke="#B0B0B0" stroke-width="0.500906" stroke-linecap="round" stroke-linejoin="round"/>
<path d="M180.73 198.876V202.557" stroke="#B0B0B0" stroke-width="0.500906" stroke-linecap="round" stroke-linejoin="round"/>
<path d="M183.779 198.876V202.557" stroke="#B0B0B0" stroke-width="0.500906" stroke-linecap="round" stroke-linejoin="round"/>
<path d="M186.828 198.876V202.557" stroke="#B0B0B0" stroke-width="0.500906" stroke-linecap="round" stroke-linejoin="round"/>
<path d="M189.872 198.876V202.557" stroke="#B0B0B0" stroke-width="0.500906" stroke-linecap="round" stroke-linejoin="round"/>
<path d="M192.922 198.876V202.557" stroke="#B0B0B0" stroke-width="0.500906" stroke-linecap="round" stroke-linejoin="round"/>
<path d="M173.871 101.258L137.851 147H155.226V142.511H146.409L173.871 108.72L201.334 142.511H192.566V147H209.892L173.871 101.258Z" fill="white" stroke="#443D78" stroke-width="0.500906" stroke-linecap="round" stroke-linejoin="round"/>
<path d="M155.201 147H137.851V151.135H155.201V147Z" fill="white" stroke="#443D78" stroke-width="0.500906" stroke-linecap="round" stroke-linejoin="round"/>
<path d="M145.869 157.893H140.715V200.128H145.869V157.893Z" fill="white" stroke="#443D78" stroke-width="0.500906" stroke-linecap="round" stroke-linejoin="round"/>
<path d="M146.164 156.352H140.421V157.948H146.164V156.352Z" fill="white" stroke="#443D78" stroke-width="0.500906" stroke-linecap="round" stroke-linejoin="round"/>
<path d="M146.559 151.19H140.026V156.442H146.559V151.19Z" fill="white" stroke="#443D78" stroke-width="0.500906" stroke-linecap="round" stroke-linejoin="round"/>
<path d="M140.421 197.904H146.164V196.308H140.421V197.904Z" fill="white" stroke="#443D78" stroke-width="0.500906" stroke-linecap="round" stroke-linejoin="round"/>
<path d="M140.026 203.066H146.559V197.814H140.026V203.066Z" fill="white" stroke="#443D78" stroke-width="0.500906" stroke-linecap="round" stroke-linejoin="round"/>
<path d="M153.547 157.893H148.393V200.128H153.547V157.893Z" fill="white" stroke="#443D78" stroke-width="0.500906" stroke-linecap="round" stroke-linejoin="round"/>
<path d="M153.847 156.352H148.104V157.948H153.847V156.352Z" fill="white" stroke="#443D78" stroke-width="0.500906" stroke-linecap="round" stroke-linejoin="round"/>
<path d="M154.242 151.19H147.709V156.442H154.242V151.19Z" fill="white" stroke="#443D78" stroke-width="0.500906" stroke-linecap="round" stroke-linejoin="round"/>
<path d="M148.098 197.904H153.842V196.308H148.098V197.904Z" fill="white" stroke="#443D78" stroke-width="0.500906" stroke-linecap="round" stroke-linejoin="round"/>
<path d="M147.704 203.066H154.237V197.814H147.704V203.066Z" fill="white" stroke="#443D78" stroke-width="0.500906" stroke-linecap="round" stroke-linejoin="round"/>
<path d="M209.887 147H192.537V151.135H209.887V147Z" fill="white" stroke="#443D78" stroke-width="0.500906" stroke-linecap="round" stroke-linejoin="round"/>
<path d="M200.554 157.893H195.401V200.128H200.554V157.893Z" fill="white" stroke="#443D78" stroke-width="0.500906" stroke-linecap="round" stroke-linejoin="round"/>
<path d="M200.849 156.352H195.106V157.948H200.849V156.352Z" fill="white" stroke="#443D78" stroke-width="0.500906" stroke-linecap="round" stroke-linejoin="round"/>
<path d="M201.244 151.19H194.711V156.442H201.244V151.19Z" fill="white" stroke="#443D78" stroke-width="0.500906" stroke-linecap="round" stroke-linejoin="round"/>
<path d="M195.106 197.904H200.849V196.308H195.106V197.904Z" fill="white" stroke="#443D78" stroke-width="0.500906" stroke-linecap="round" stroke-linejoin="round"/>
<path d="M194.711 203.066H201.244V197.814H194.711V203.066Z" fill="white" stroke="#443D78" stroke-width="0.500906" stroke-linecap="round" stroke-linejoin="round"/>
<path d="M208.232 157.893H203.079V200.128H208.232V157.893Z" fill="white" stroke="#443D78" stroke-width="0.500906" stroke-linecap="round" stroke-linejoin="round"/>
<path d="M208.532 156.352H202.789V157.948H208.532V156.352Z" fill="white" stroke="#443D78" stroke-width="0.500906" stroke-linecap="round" stroke-linejoin="round"/>
<path d="M208.922 151.19H202.389V156.442H208.922V151.19Z" fill="white" stroke="#443D78" stroke-width="0.500906" stroke-linecap="round" stroke-linejoin="round"/>
<path d="M202.784 197.904H208.527V196.308H202.784V197.904Z" fill="white" stroke="#443D78" stroke-width="0.500906" stroke-linecap="round" stroke-linejoin="round"/>
<path d="M202.394 203.066H208.927V197.814H202.394V203.066Z" fill="white" stroke="#443D78" stroke-width="0.500906" stroke-linecap="round" stroke-linejoin="round"/>
<path d="M92.9631 175.28H88.0145V181.499H92.9631V175.28Z" fill="#CCCCCC"/>
<path d="M86.9898 159.195H82.9659V166.142H86.9898V159.195Z" fill="#CCCCCC"/>
<path d="M86.9898 167.604H82.9659V173.823H86.9898V167.604Z" fill="#CCCCCC"/>
<path d="M92.9631 167.604H88.0145V173.823H92.9631V167.604Z" fill="#CCCCCC"/>
<path d="M86.9898 175.28H82.9659V181.499H86.9898V175.28Z" fill="#CCCCCC"/>
<path d="M92.9631 159.195H88.0145V166.142H92.9631V159.195Z" fill="#CCCCCC"/>
<path d="M86.9898 182.961H82.9659V190.936H86.9898V182.961Z" fill="#CCCCCC"/>
<path d="M92.9631 182.961H88.0145V190.936H92.9631V182.961Z" fill="#CCCCCC"/>
<path d="M81.9361 182.961H77.0923V190.936H81.9361V182.961Z" fill="#CCCCCC"/>
<path d="M81.9361 175.28H77.0923V181.499H81.9361V175.28Z" fill="#CCCCCC"/>
<path d="M81.9361 167.604H77.0923V173.823H81.9361V167.604Z" fill="#CCCCCC"/>
<path d="M81.9361 159.195H77.0923V166.142H81.9361V159.195Z" fill="#CCCCCC"/>
<path d="M111.973 175.28H107.024V181.499H111.973V175.28Z" fill="#CCCCCC"/>
<path d="M106 159.195H101.976V166.142H106V159.195Z" fill="#CCCCCC"/>
<path d="M106 167.604H101.976V173.823H106V167.604Z" fill="#CCCCCC"/>
<path d="M111.973 167.604H107.024V173.823H111.973V167.604Z" fill="#CCCCCC"/>
<path d="M106 175.28H101.976V181.499H106V175.28Z" fill="#CCCCCC"/>
<path d="M111.973 159.195H107.024V166.142H111.973V159.195Z" fill="#CCCCCC"/>
<path d="M106 182.961H101.976V190.936H106V182.961Z" fill="#CCCCCC"/>
<path d="M111.973 182.961H107.024V190.936H111.973V182.961Z" fill="#CCCCCC"/>
<path d="M100.951 182.961H96.1072V190.936H100.951V182.961Z" fill="#CCCCCC"/>
<path d="M100.951 175.28H96.1072V181.499H100.951V175.28Z" fill="#CCCCCC"/>
<path d="M100.951 167.604H96.1072V173.823H100.951V167.604Z" fill="#CCCCCC"/>
<path d="M100.951 159.195H96.1072V166.142H100.951V159.195Z" fill="#CCCCCC"/>
<path d="M130.988 175.28H126.039V181.499H130.988V175.28Z" fill="#CCCCCC"/>
<path d="M125.01 159.195H120.986V166.142H125.01V159.195Z" fill="#CCCCCC"/>
<path d="M125.01 167.604H120.986V173.823H125.01V167.604Z" fill="#CCCCCC"/>
<path d="M130.988 167.604H126.039V173.823H130.988V167.604Z" fill="#CCCCCC"/>
<path d="M125.01 175.28H120.986V181.499H125.01V175.28Z" fill="#CCCCCC"/>
<path d="M130.988 159.195H126.039V166.142H130.988V159.195Z" fill="#CCCCCC"/>
<path d="M125.01 182.961H120.986V190.936H125.01V182.961Z" fill="#CCCCCC"/>
<path d="M130.988 182.961H126.039V190.936H130.988V182.961Z" fill="#CCCCCC"/>
<path d="M119.961 182.961H115.117V190.936H119.961V182.961Z" fill="#CCCCCC"/>
<path d="M119.961 175.28H115.117V181.499H119.961V175.28Z" fill="#CCCCCC"/>
<path d="M119.961 167.604H115.117V173.823H119.961V167.604Z" fill="#CCCCCC"/>
<path d="M119.961 159.195H115.117V166.142H119.961V159.195Z" fill="#CCCCCC"/>
<path d="M133.157 155.833H74.588V193.45H133.157V155.833Z" stroke="#443D78" stroke-width="0.500906" stroke-linecap="round" stroke-linejoin="round"/>
<path d="M234.505 175.28H229.557V181.499H234.505V175.28Z" fill="#CCCCCC"/>
<path d="M228.532 159.195H224.508V166.142H228.532V159.195Z" fill="#CCCCCC"/>
<path d="M228.532 167.604H224.508V173.823H228.532V167.604Z" fill="#CCCCCC"/>
<path d="M234.505 167.604H229.557V173.823H234.505V167.604Z" fill="#CCCCCC"/>
<path d="M228.532 175.28H224.508V181.499H228.532V175.28Z" fill="#CCCCCC"/>
<path d="M234.505 159.195H229.557V166.142H234.505V159.195Z" fill="#CCCCCC"/>
<path d="M228.532 182.961H224.508V190.936H228.532V182.961Z" fill="#CCCCCC"/>
<path d="M234.505 182.961H229.557V190.936H234.505V182.961Z" fill="#CCCCCC"/>
<path d="M223.483 182.961H218.64V190.936H223.483V182.961Z" fill="#CCCCCC"/>
<path d="M223.483 175.28H218.64V181.499H223.483V175.28Z" fill="#CCCCCC"/>
<path d="M223.483 167.604H218.64V173.823H223.483V167.604Z" fill="#CCCCCC"/>
<path d="M223.483 159.195H218.64V166.142H223.483V159.195Z" fill="#CCCCCC"/>
<path d="M253.515 175.28H248.567V181.499H253.515V175.28Z" fill="#CCCCCC"/>
<path d="M247.542 159.195H243.518V166.142H247.542V159.195Z" fill="#CCCCCC"/>
<path d="M247.542 167.604H243.518V173.823H247.542V167.604Z" fill="#CCCCCC"/>
<path d="M253.515 167.604H248.567V173.823H253.515V167.604Z" fill="#CCCCCC"/>
<path d="M247.542 175.28H243.518V181.499H247.542V175.28Z" fill="#CCCCCC"/>
<path d="M253.515 159.195H248.567V166.142H253.515V159.195Z" fill="#CCCCCC"/>
<path d="M247.542 182.961H243.518V190.936H247.542V182.961Z" fill="#CCCCCC"/>
<path d="M253.515 182.961H248.567V190.936H253.515V182.961Z" fill="#CCCCCC"/>
<path d="M242.493 182.961H237.65V190.936H242.493V182.961Z" fill="#CCCCCC"/>
<path d="M242.493 175.28H237.65V181.499H242.493V175.28Z" fill="#CCCCCC"/>
<path d="M242.493 167.604H237.65V173.823H242.493V167.604Z" fill="#CCCCCC"/>
<path d="M242.493 159.195H237.65V166.142H242.493V159.195Z" fill="#CCCCCC"/>
<path d="M272.53 175.28H267.582V181.499H272.53V175.28Z" fill="#CCCCCC"/>
<path d="M266.552 159.195H262.533V166.142H266.552V159.195Z" fill="#CCCCCC"/>
<path d="M266.552 167.604H262.533V173.823H266.552V167.604Z" fill="#CCCCCC"/>
<path d="M272.53 167.604H267.582V173.823H272.53V167.604Z" fill="#CCCCCC"/>
<path d="M266.552 175.28H262.533V181.499H266.552V175.28Z" fill="#CCCCCC"/>
<path d="M272.53 159.195H267.582V166.142H272.53V159.195Z" fill="#CCCCCC"/>
<path d="M266.552 182.961H262.533V190.936H266.552V182.961Z" fill="#CCCCCC"/>
<path d="M272.53 182.961H267.582V190.936H272.53V182.961Z" fill="#CCCCCC"/>
<path d="M261.508 182.961H256.664V190.936H261.508V182.961Z" fill="#CCCCCC"/>
<path d="M261.508 175.28H256.664V181.499H261.508V175.28Z" fill="#CCCCCC"/>
<path d="M261.508 167.604H256.664V173.823H261.508V167.604Z" fill="#CCCCCC"/>
<path d="M261.508 159.195H256.664V166.142H261.508V159.195Z" fill="#CCCCCC"/>
<path d="M274.7 155.833H216.13V193.45H274.7V155.833Z" stroke="#443D78" stroke-width="0.500906" stroke-linecap="round" stroke-linejoin="round"/>
<path d="M342.767 203.365H346.65" stroke="#443D78" stroke-width="0.500906" stroke-linecap="round" stroke-linejoin="round"/>
<path d="M10.8798 203.365H337.418" stroke="#443D78" stroke-width="0.500906" stroke-linecap="round" stroke-linejoin="round"/>
<path d="M3.10706 203.365H6.50615" stroke="#443D78" stroke-width="0.500906" stroke-linecap="round" stroke-linejoin="round"/>
<path d="M304.782 163.015C304.782 163.015 303.947 182.268 304.052 193.201C304.157 204.133 305.511 222.378 305.511 222.378L304.577 224.149L304.677 226.752L310.73 228.523L311.145 226.338C311.145 226.338 312.19 225.505 312.19 224.982C312.19 224.458 312.085 221.65 312.085 220.817C312.085 219.984 315.529 181.265 315.529 181.265L316.988 181.16L323.667 223.735L322.277 224.568L324.156 228.209L327.286 227.166L330.625 227.376C331.002 226.498 331.316 225.595 331.564 224.673C331.564 224.254 330.415 223.735 330.415 223.007C330.415 222.278 329.275 178.522 329.275 178.522L327.276 163.015H304.782Z" fill="#443D78" stroke="#443D78" stroke-width="0.500906" stroke-miterlimit="10"/>
<path d="M304.662 226.752L301.223 229.461C301.223 229.461 296.839 231.127 296.944 231.855C297.049 232.583 297.884 232.688 298.508 232.688H310.925L310.715 228.523L304.662 226.752Z" fill="white" stroke="#443D78" stroke-width="0.500906" stroke-miterlimit="10"/>
<path d="M324.171 228.194C324.171 228.194 325.526 232.568 325.946 233.087C326.366 233.605 330.225 235.271 331.265 234.962C332.304 234.653 333.459 233.191 333.039 231.735C332.619 230.279 330.64 227.361 330.64 227.361L327.301 227.151L324.171 228.194Z" fill="white" stroke="#443D78" stroke-width="0.500906" stroke-miterlimit="10"/>
<path d="M315.829 125.334L310.61 126.062C310.61 126.062 308.316 131.887 307.481 141.568C306.646 151.249 307.376 163.325 307.376 163.325H325.111C325.111 163.325 329.7 137.509 328.24 133.244C327.416 130.755 326.104 128.455 324.381 126.476L315.829 125.334Z" fill="white" stroke="#443D78" stroke-width="0.500906" stroke-miterlimit="10"/>
<path d="M311.445 129.289C311.445 129.289 309.046 137.199 309.046 144.067C309.046 150.935 310.09 175.918 310.09 175.918L300.493 173.923L302.782 157.599L301.737 140.112L293.705 148.546L287.706 145.145C287.706 145.145 301.008 127.099 301.428 126.999C301.847 126.9 313.279 124.7 313.279 124.7L311.445 129.289Z" fill="#A9E8CB" stroke="#443D78" stroke-width="0.500906" stroke-miterlimit="10"/>
<path d="M301.163 134.157L301.742 140.112L299.658 133.658" stroke="#443D78" stroke-width="0.500906" stroke-miterlimit="10"/>
<path d="M300.908 131.578L301.033 132.86" stroke="#443D78" stroke-width="0.500906" stroke-miterlimit="10"/>
<path d="M323.542 124.98C323.542 124.98 335.349 127.972 335.768 128.052C336.188 128.132 349 151.564 349 151.564L343.261 154.058L332.629 140.98L330.43 159.883L333.249 174.347L320.832 175.285L319.778 160.517L321.967 128.561L323.542 124.98Z" fill="#A9E8CB" stroke="#443D78" stroke-width="0.500906" stroke-miterlimit="10"/>
<path d="M331.015 136.157L332.629 140.985L330.075 137.898" stroke="#443D78" stroke-width="0.500906" stroke-miterlimit="10"/>
<path d="M312.645 106.341C312.645 106.341 310.705 104.959 310.89 104.311C311.075 103.662 315.324 101.178 315.969 100.904C316.613 100.63 324.371 102.286 325.666 103.114C326.961 103.942 328.34 108.83 328.525 111.129C328.71 113.428 322.987 117.967 322.987 117.967L319.293 118.057L319.753 115.294L315.969 114.555L316.613 111.423L313.199 107.642L314.119 105.523L312.645 106.341Z" fill="#443D78" stroke="#443D78" stroke-width="0.500906" stroke-miterlimit="10"/>
<path d="M313.869 122.865L310.735 126.945C310.735 126.945 309.13 131.159 309.495 130.935C309.86 130.71 311.825 128.825 311.825 128.825L316.523 131.673L321.957 128.97L324.651 131.877C324.651 131.877 325.236 123.663 324.801 123.009C324.366 122.356 322.032 121.842 321.447 121.772C320.862 121.703 313.869 122.865 313.869 122.865Z" fill="white" stroke="#443D78" stroke-width="0.500906" stroke-miterlimit="10"/>
<path d="M313.749 104.311C313.749 104.311 309.69 108.645 310.15 109.563C310.409 110.056 310.596 110.583 310.705 111.129C310.705 111.129 307.471 113.987 307.936 114.54C308.464 115.043 309.053 115.477 309.69 115.832C309.69 115.832 309.136 119.703 309.69 120.62C310.245 121.538 313.289 120.989 313.289 120.989C313.289 120.989 315.414 132.416 316.524 131.678C317.633 130.94 322.892 124.122 322.802 123.294C322.712 122.466 322.987 118.226 322.987 117.952C322.987 117.678 321.137 117.857 321.137 117.857C321.137 117.857 323.542 114.366 322.637 113.343C321.732 112.321 319.868 112.605 319.218 113.064C318.834 113.342 318.497 113.679 318.218 114.062L317.218 113.782C317.535 113.092 317.812 112.384 318.048 111.663C318.143 111.204 315.924 108.994 316.019 108.625C316.105 108.456 316.216 108.302 316.349 108.166C317.083 107.313 318.788 105.672 318.788 105.672L313.749 104.311Z" fill="white" stroke="#443D78" stroke-width="0.500906" stroke-miterlimit="10"/>
<path d="M312.52 111.917C312.48 112.371 312.29 112.72 312.1 112.705C311.91 112.69 311.79 112.306 311.835 111.852C311.88 111.398 312.065 111.049 312.255 111.069C312.445 111.089 312.565 111.483 312.52 111.917Z" fill="#443D78"/>
<path d="M311.46 109.717C311.46 109.717 312.629 108.869 313.424 109.982" stroke="#443D78" stroke-width="0.500906" stroke-miterlimit="10"/>
<path d="M310.28 116.655C310.28 116.655 312.51 116.81 313.624 115.488" stroke="#443D78" stroke-width="0.500906" stroke-miterlimit="10"/>
<path d="M313.29 120.989L316.664 120.521L313.849 123.748L313.29 120.989Z" fill="#443D78" stroke="#443D78" stroke-width="0.500906" stroke-miterlimit="10"/>
<path d="M294.07 160.237L296.484 157.938L293.895 156.157L294.07 160.237Z" fill="white" stroke="#443D78" stroke-width="0.500906" stroke-miterlimit="10"/>
<path d="M295.219 151.678L297.124 153.873L295.679 158.915L293.23 156.925L295.219 151.678Z" fill="white" stroke="#443D78" stroke-width="0.500906" stroke-miterlimit="10"/>
<path d="M290.001 141.908C290.001 141.908 287.002 145.603 286.502 146.78C286.002 147.958 294.08 160.217 294.08 160.217L296.034 152.461L294.595 148.152L295.254 145.658L292.005 144.411" fill="#A9E8CB"/>
<path d="M290.001 141.908C290.001 141.908 287.002 145.603 286.502 146.78C286.002 147.958 294.08 160.217 294.08 160.217L296.034 152.461L294.595 148.152L295.254 145.658L292.005 144.411" stroke="#443D78" stroke-width="0.500906" stroke-miterlimit="10"/>
<path d="M296.889 153.743L300.948 153.18C300.948 153.18 303.862 155.813 304.002 156.172C304.116 156.537 304.091 156.931 303.932 157.279C303.824 157.601 303.633 157.889 303.377 158.112C303.377 158.112 302.267 160.816 302.057 161.165C301.848 161.514 300.598 161.374 300.113 161.305C299.628 161.235 295.679 158.925 295.679 158.925L296.889 153.743Z" fill="white" stroke="#443D78" stroke-width="0.500906" stroke-miterlimit="10"/>
<path d="M336.713 154.152L335.669 155.469L337.343 159.793L339.563 158.521L336.713 154.152Z" fill="white" stroke="#443D78" stroke-width="0.500906" stroke-miterlimit="10"/>
<path d="M342.572 147.773L336.018 154.082L340.462 159.699C340.462 159.699 349.38 152.417 348.895 151.22C348.41 150.022 346.321 147.13 346.321 147.13" fill="#A9E8CB"/>
<path d="M342.572 147.773L336.018 154.082L340.462 159.699C340.462 159.699 349.38 152.417 348.895 151.22C348.41 150.022 346.321 147.13 346.321 147.13" stroke="#443D78" stroke-width="0.500906" stroke-miterlimit="10"/>
<path d="M335.669 155.469L331.85 154.776C331.85 154.776 328.93 157.409 328.79 157.768C328.677 158.133 328.702 158.528 328.86 158.876C328.97 159.197 329.161 159.484 329.415 159.708C329.415 159.708 330.525 162.412 330.735 162.761C330.945 163.11 332.195 162.965 332.679 162.896C333.164 162.826 336.948 158.851 336.948 158.851L335.669 155.469Z" fill="white" stroke="#443D78" stroke-width="0.500906" stroke-miterlimit="10"/>
</svg>
