<svg width="304" height="235" viewBox="0 0 304 235" fill="none" xmlns="http://www.w3.org/2000/svg">
<g clip-path="url(#clip0_686_3681)">
<path d="M240.643 22.3911C240.643 22.3911 222.653 -2.42419 191.619 0.193428C160.584 2.81105 153.912 36.0609 133.086 51.3605C122.194 59.3725 96.9746 51.8544 84.9249 57.2323C46.4148 74.4416 39.3489 130.218 60.4373 156.345C78.6841 178.976 105.964 186.791 144.879 181.347C183.793 175.903 211.33 173.533 241.932 140.585C272.535 107.637 262.25 55.4762 240.643 22.3911Z" fill="#A9E8CB"/>
<path opacity="0.8" d="M240.643 22.3911C240.643 22.3911 222.653 -2.42419 191.619 0.193428C160.584 2.81105 153.912 36.0609 133.086 51.3605C122.194 59.3725 96.9746 51.8544 84.9249 57.2323C46.4148 74.4416 39.3489 130.218 60.4373 156.345C78.6841 178.976 105.964 186.791 144.879 181.347C183.793 175.903 211.33 173.533 241.932 140.585C272.535 107.637 262.25 55.4762 240.643 22.3911Z" fill="white"/>
<path d="M290.936 147.922C290.751 141.068 291.281 129.379 285.297 124.566C280.04 120.341 275.952 126.075 274.477 130.701C270.903 141.924 272.58 154.298 272.591 165.883C272.591 166.058 272.591 166.234 272.591 166.432C272.312 174.959 271.291 184.184 272.22 192.696C272.22 192.696 271.307 184.168 264.64 187.823C257.973 191.477 267.974 210.657 267.974 210.657C267.974 210.657 260.093 204.873 256.454 209.746C252.814 214.619 261 220.096 261 220.096C261 220.096 253.421 217.966 253.421 220.096C253.421 222.225 255.847 224.052 262.82 224.969H300.407C300.407 224.969 306.473 221.616 305.259 217.966C304.046 214.317 297.674 216.419 297.674 216.419C297.674 216.419 307.38 204.543 306.773 199.369C306.167 194.194 293.734 200.285 293.734 200.285C293.734 200.285 303.434 175.623 301.614 164.665C300.183 156.032 293.51 161.921 289.876 165.257C290.732 159.521 291.086 153.72 290.936 147.922Z" fill="#A9E8CB" stroke="white" stroke-width="0.546668" stroke-linecap="round" stroke-linejoin="round"/>
<path opacity="0.5" d="M290.936 147.922C290.751 141.068 291.281 129.379 285.297 124.566C280.04 120.341 275.952 126.075 274.477 130.701C270.903 141.924 272.58 154.298 272.591 165.883C272.591 166.058 272.591 166.234 272.591 166.432C272.312 174.959 271.291 184.184 272.22 192.696C272.22 192.696 271.307 184.168 264.64 187.823C257.973 191.477 267.974 210.657 267.974 210.657C267.974 210.657 260.093 204.873 256.454 209.746C252.814 214.619 261 220.096 261 220.096C261 220.096 253.421 217.966 253.421 220.096C253.421 222.225 255.847 224.052 262.82 224.969H300.407C300.407 224.969 306.473 221.616 305.259 217.966C304.046 214.317 297.674 216.419 297.674 216.419C297.674 216.419 307.38 204.543 306.773 199.369C306.167 194.194 293.734 200.285 293.734 200.285C293.734 200.285 303.434 175.623 301.614 164.665C300.183 156.032 293.51 161.921 289.876 165.257C290.732 159.521 291.086 153.72 290.936 147.922Z" fill="white"/>
<path d="M278.875 224.639L281.607 140.914" stroke="white" stroke-width="0.546668" stroke-linecap="round" stroke-linejoin="round"/>
<path d="M280.395 189.628L294.641 176.232" stroke="white" stroke-width="0.546668" stroke-linecap="round" stroke-linejoin="round"/>
<path d="M287.061 183.537L290.093 175.014" stroke="white" stroke-width="0.546668" stroke-linecap="round" stroke-linejoin="round"/>
<path d="M268.568 199.978L279.481 211.853" stroke="white" stroke-width="0.546668" stroke-linecap="round" stroke-linejoin="round"/>
<path d="M297.674 206.678L279.481 216.117" stroke="white" stroke-width="0.546668" stroke-linecap="round" stroke-linejoin="round"/>
<path d="M287.973 212.155L294.64 211.853" stroke="white" stroke-width="0.546668" stroke-linecap="round" stroke-linejoin="round"/>
<path d="M278.875 224.639L281.607 140.914" stroke="#A9E8CB" stroke-width="0.546668" stroke-linecap="round" stroke-linejoin="round"/>
<path d="M280.395 189.628L294.641 176.232" stroke="#A9E8CB" stroke-width="0.546668" stroke-linecap="round" stroke-linejoin="round"/>
<path d="M287.061 183.537L290.093 175.014" stroke="#A9E8CB" stroke-width="0.546668" stroke-linecap="round" stroke-linejoin="round"/>
<path d="M268.568 199.978L279.481 211.853" stroke="#A9E8CB" stroke-width="0.546668" stroke-linecap="round" stroke-linejoin="round"/>
<path d="M297.674 206.678L279.481 216.117" stroke="#A9E8CB" stroke-width="0.546668" stroke-linecap="round" stroke-linejoin="round"/>
<path d="M287.973 212.155L294.64 211.853" stroke="#A9E8CB" stroke-width="0.546668" stroke-linecap="round" stroke-linejoin="round"/>
<g opacity="0.8">
<path d="M278.875 224.639L281.607 140.914" stroke="white" stroke-width="0.546668" stroke-linecap="round" stroke-linejoin="round"/>
<path d="M280.394 189.628L294.64 176.232" stroke="white" stroke-width="0.546668" stroke-linecap="round" stroke-linejoin="round"/>
<path d="M287.062 183.537L290.094 175.014" stroke="white" stroke-width="0.546668" stroke-linecap="round" stroke-linejoin="round"/>
<path d="M268.568 199.978L279.481 211.853" stroke="white" stroke-width="0.546668" stroke-linecap="round" stroke-linejoin="round"/>
<path d="M297.674 206.678L279.481 216.117" stroke="white" stroke-width="0.546668" stroke-linecap="round" stroke-linejoin="round"/>
<path d="M287.974 212.155L294.641 211.853" stroke="white" stroke-width="0.546668" stroke-linecap="round" stroke-linejoin="round"/>
</g>
<path d="M226.795 207.721C226.795 216.232 233.511 223.136 233.511 223.136C233.511 223.136 240.227 216.232 240.227 207.721C240.227 199.209 233.511 192.306 233.511 192.306C233.511 192.306 226.795 199.204 226.795 207.721Z" fill="#A9E8CB"/>
<path d="M222.139 220.853C225.418 224.546 230.959 224.947 230.959 224.947C230.959 224.947 231.227 219.355 227.97 215.661C224.713 211.968 219.15 211.568 219.15 211.568C219.15 211.568 218.877 217.16 222.139 220.853Z" fill="#A9E8CB"/>
<path d="M239.256 215.535C235.83 219.075 235.852 224.672 235.852 224.672C235.852 224.672 241.42 224.524 244.841 220.979C248.262 217.434 248.251 211.842 248.251 211.842C248.251 211.842 242.677 211.99 239.256 215.535Z" fill="#A9E8CB"/>
<g opacity="0.5">
<path d="M226.796 207.721C226.796 216.232 233.512 223.136 233.512 223.136C233.512 223.136 240.228 216.232 240.228 207.721C240.228 199.209 233.512 192.306 233.512 192.306C233.512 192.306 226.796 199.204 226.796 207.721Z" fill="white"/>
<path d="M233.512 223.136V192.306" stroke="white" stroke-width="0.546668" stroke-linecap="round" stroke-linejoin="round"/>
<path d="M233.513 203.265L229.753 199.967" stroke="white" stroke-width="0.546668" stroke-linecap="round" stroke-linejoin="round"/>
<path d="M233.572 208.357L238.228 201.586" stroke="white" stroke-width="0.546668" stroke-linecap="round" stroke-linejoin="round"/>
<path d="M233.512 211.293L227.96 206.322" stroke="white" stroke-width="0.546668" stroke-linecap="round" stroke-linejoin="round"/>
<path d="M233.572 215.25L239.064 210.339" stroke="white" stroke-width="0.546668" stroke-linecap="round" stroke-linejoin="round"/>
<path d="M233.572 218.669L229.271 215.25" stroke="white" stroke-width="0.546668" stroke-linecap="round" stroke-linejoin="round"/>
<path d="M222.14 220.853C225.419 224.546 230.96 224.947 230.96 224.947C230.96 224.947 231.228 219.355 227.971 215.661C224.714 211.968 219.151 211.568 219.151 211.568C219.151 211.568 218.878 217.16 222.14 220.853Z" fill="white"/>
<path d="M230.961 224.947L219.151 211.568" stroke="white" stroke-width="0.546668" stroke-linecap="round" stroke-linejoin="round"/>
<path d="M223.348 216.326L220.452 216.347" stroke="white" stroke-width="0.546668" stroke-linecap="round" stroke-linejoin="round"/>
<path d="M225.327 218.51L224.753 213.774" stroke="white" stroke-width="0.546668" stroke-linecap="round" stroke-linejoin="round"/>
<path d="M226.425 219.81L222.113 219.794" stroke="white" stroke-width="0.546668" stroke-linecap="round" stroke-linejoin="round"/>
<path d="M227.966 221.5L228.463 217.247" stroke="white" stroke-width="0.546668" stroke-linecap="round" stroke-linejoin="round"/>
<path d="M229.278 222.982L226.103 223.162" stroke="white" stroke-width="0.546668" stroke-linecap="round" stroke-linejoin="round"/>
<path d="M239.256 215.535C235.83 219.075 235.852 224.672 235.852 224.672C235.852 224.672 241.42 224.524 244.841 220.979C248.262 217.434 248.251 211.842 248.251 211.842C248.251 211.842 242.677 211.99 239.256 215.535Z" fill="white"/>
<path d="M235.852 224.672L248.251 211.842" stroke="white" stroke-width="0.546668" stroke-linecap="round" stroke-linejoin="round"/>
<path d="M243.842 216.402L243.606 213.505" stroke="white" stroke-width="0.546668" stroke-linecap="round" stroke-linejoin="round"/>
<path d="M241.819 218.548L246.481 217.615" stroke="white" stroke-width="0.546668" stroke-linecap="round" stroke-linejoin="round"/>
<path d="M240.612 219.744L240.306 215.425" stroke="white" stroke-width="0.546668" stroke-linecap="round" stroke-linejoin="round"/>
<path d="M239.043 221.413L243.305 221.598" stroke="white" stroke-width="0.546668" stroke-linecap="round" stroke-linejoin="round"/>
<path d="M237.671 222.834L237.256 219.673" stroke="white" stroke-width="0.546668" stroke-linecap="round" stroke-linejoin="round"/>
</g>
<path d="M233.512 223.136V192.306" stroke="#A9E8CB" stroke-width="0.546668" stroke-linecap="round" stroke-linejoin="round"/>
<path d="M233.512 203.265L229.752 199.967" stroke="#A9E8CB" stroke-width="0.546668" stroke-linecap="round" stroke-linejoin="round"/>
<path d="M233.572 208.357L238.228 201.586" stroke="#A9E8CB" stroke-width="0.546668" stroke-linecap="round" stroke-linejoin="round"/>
<path d="M233.512 211.293L227.96 206.321" stroke="#A9E8CB" stroke-width="0.546668" stroke-linecap="round" stroke-linejoin="round"/>
<path d="M233.572 215.25L239.064 210.338" stroke="#A9E8CB" stroke-width="0.546668" stroke-linecap="round" stroke-linejoin="round"/>
<path d="M233.572 218.669L229.271 215.25" stroke="#A9E8CB" stroke-width="0.546668" stroke-linecap="round" stroke-linejoin="round"/>
<g opacity="0.7">
<path d="M233.512 223.136V192.306" stroke="white" stroke-width="0.546668" stroke-linecap="round" stroke-linejoin="round"/>
<path d="M233.511 203.265L229.751 199.967" stroke="white" stroke-width="0.546668" stroke-linecap="round" stroke-linejoin="round"/>
<path d="M233.57 208.357L238.226 201.586" stroke="white" stroke-width="0.546668" stroke-linecap="round" stroke-linejoin="round"/>
<path d="M233.511 211.293L227.959 206.322" stroke="white" stroke-width="0.546668" stroke-linecap="round" stroke-linejoin="round"/>
<path d="M233.57 215.25L239.062 210.339" stroke="white" stroke-width="0.546668" stroke-linecap="round" stroke-linejoin="round"/>
<path d="M233.572 218.669L229.271 215.25" stroke="white" stroke-width="0.546668" stroke-linecap="round" stroke-linejoin="round"/>
</g>
<path d="M230.961 224.947L219.151 211.568" stroke="#A9E8CB" stroke-width="0.546668" stroke-linecap="round" stroke-linejoin="round"/>
<path d="M223.347 216.326L220.451 216.347" stroke="#A9E8CB" stroke-width="0.546668" stroke-linecap="round" stroke-linejoin="round"/>
<path d="M225.326 218.51L224.752 213.774" stroke="#A9E8CB" stroke-width="0.546668" stroke-linecap="round" stroke-linejoin="round"/>
<path d="M226.425 219.81L222.113 219.794" stroke="#A9E8CB" stroke-width="0.546668" stroke-linecap="round" stroke-linejoin="round"/>
<path d="M227.966 221.5L228.463 217.247" stroke="#A9E8CB" stroke-width="0.546668" stroke-linecap="round" stroke-linejoin="round"/>
<path d="M229.277 222.982L226.102 223.162" stroke="#A9E8CB" stroke-width="0.546668" stroke-linecap="round" stroke-linejoin="round"/>
<g opacity="0.7">
<path d="M230.961 224.947L219.151 211.568" stroke="white" stroke-width="0.546668" stroke-linecap="round" stroke-linejoin="round"/>
<path d="M223.347 216.326L220.451 216.347" stroke="white" stroke-width="0.546668" stroke-linecap="round" stroke-linejoin="round"/>
<path d="M225.326 218.51L224.752 213.774" stroke="white" stroke-width="0.546668" stroke-linecap="round" stroke-linejoin="round"/>
<path d="M226.425 219.81L222.113 219.794" stroke="white" stroke-width="0.546668" stroke-linecap="round" stroke-linejoin="round"/>
<path d="M227.966 221.5L228.463 217.247" stroke="white" stroke-width="0.546668" stroke-linecap="round" stroke-linejoin="round"/>
<path d="M229.277 222.982L226.102 223.162" stroke="white" stroke-width="0.546668" stroke-linecap="round" stroke-linejoin="round"/>
</g>
<path d="M235.852 224.672L248.251 211.842" stroke="#A9E8CB" stroke-width="0.546668" stroke-linecap="round" stroke-linejoin="round"/>
<path d="M243.841 216.402L243.605 213.505" stroke="#A9E8CB" stroke-width="0.546668" stroke-linecap="round" stroke-linejoin="round"/>
<path d="M241.818 218.548L246.48 217.615" stroke="#A9E8CB" stroke-width="0.546668" stroke-linecap="round" stroke-linejoin="round"/>
<path d="M240.611 219.744L240.305 215.425" stroke="#A9E8CB" stroke-width="0.546668" stroke-linecap="round" stroke-linejoin="round"/>
<path d="M239.042 221.413L243.304 221.598" stroke="#A9E8CB" stroke-width="0.546668" stroke-linecap="round" stroke-linejoin="round"/>
<path d="M237.671 222.834L237.256 219.673" stroke="#A9E8CB" stroke-width="0.546668" stroke-linecap="round" stroke-linejoin="round"/>
<g opacity="0.7">
<path d="M235.851 224.672L248.25 211.842" stroke="white" stroke-width="0.546668" stroke-linecap="round" stroke-linejoin="round"/>
<path d="M243.841 216.402L243.605 213.505" stroke="white" stroke-width="0.546668" stroke-linecap="round" stroke-linejoin="round"/>
<path d="M241.818 218.548L246.48 217.615" stroke="white" stroke-width="0.546668" stroke-linecap="round" stroke-linejoin="round"/>
<path d="M240.611 219.744L240.305 215.425" stroke="white" stroke-width="0.546668" stroke-linecap="round" stroke-linejoin="round"/>
<path d="M239.042 221.412L243.304 221.598" stroke="white" stroke-width="0.546668" stroke-linecap="round" stroke-linejoin="round"/>
<path d="M237.67 222.834L237.255 219.673" stroke="white" stroke-width="0.546668" stroke-linecap="round" stroke-linejoin="round"/>
</g>
<path d="M13.0643 147.922C13.2447 141.068 12.7201 129.379 18.7039 124.566C23.961 120.341 28.0487 126.075 29.5187 130.701C33.0981 141.924 31.4149 154.298 31.4095 165.883C31.4095 166.058 31.4095 166.234 31.4095 166.432C31.6936 174.959 32.7101 184.184 31.7865 192.696C31.7865 192.696 32.6937 184.168 39.3661 187.823C46.0386 191.477 36.0272 210.657 36.0272 210.657C36.0272 210.657 43.9128 204.873 47.5523 209.746C51.1918 214.619 43.0166 220.074 43.0166 220.074C43.0166 220.074 50.5962 217.944 50.5962 220.074C50.5962 222.203 48.1698 224.03 41.1968 224.947H3.59393C3.59393 224.947 -2.47193 221.594 -1.25876 217.944C-0.0455871 214.295 6.32084 216.419 6.32084 216.419C6.32084 216.419 -3.37908 204.543 -2.7725 199.369C-2.16591 194.194 10.2664 200.285 10.2664 200.285C10.2664 200.285 0.560997 175.623 2.38076 164.681C3.81252 156.049 10.4904 161.937 14.119 165.274C13.2645 159.532 12.9116 153.726 13.0643 147.922Z" fill="#A9E8CB" stroke="white" stroke-width="0.546668" stroke-linecap="round" stroke-linejoin="round"/>
<path opacity="0.5" d="M13.0643 147.922C13.2447 141.068 12.7201 129.379 18.7039 124.566C23.961 120.341 28.0487 126.075 29.5187 130.701C33.0981 141.924 31.4149 154.298 31.4095 165.883C31.4095 166.058 31.4095 166.234 31.4095 166.432C31.6936 174.959 32.7101 184.184 31.7865 192.696C31.7865 192.696 32.6937 184.168 39.3661 187.823C46.0386 191.477 36.0272 210.657 36.0272 210.657C36.0272 210.657 43.9128 204.873 47.5523 209.746C51.1918 214.619 43.0166 220.074 43.0166 220.074C43.0166 220.074 50.5962 217.944 50.5962 220.074C50.5962 222.203 48.1698 224.03 41.1968 224.947H3.59393C3.59393 224.947 -2.47193 221.594 -1.25876 217.944C-0.0455871 214.295 6.32084 216.419 6.32084 216.419C6.32084 216.419 -3.37908 204.543 -2.7725 199.369C-2.16591 194.194 10.2664 200.285 10.2664 200.285C10.2664 200.285 0.560997 175.623 2.38076 164.681C3.81252 156.049 10.4904 161.937 14.119 165.274C13.2645 159.532 12.9116 153.726 13.0643 147.922Z" fill="white"/>
<path d="M25.1185 224.639L22.3916 140.914" stroke="white" stroke-width="0.546668" stroke-linecap="round" stroke-linejoin="round"/>
<path d="M23.6065 189.628L9.35449 176.232" stroke="white" stroke-width="0.546668" stroke-linecap="round" stroke-linejoin="round"/>
<path d="M16.9333 183.537L13.9004 175.014" stroke="white" stroke-width="0.546668" stroke-linecap="round" stroke-linejoin="round"/>
<path d="M35.4258 199.978L24.5127 211.853" stroke="white" stroke-width="0.546668" stroke-linecap="round" stroke-linejoin="round"/>
<path d="M6.32031 206.678L24.5124 216.117" stroke="white" stroke-width="0.546668" stroke-linecap="round" stroke-linejoin="round"/>
<path d="M16.0269 212.155L9.35449 211.853" stroke="white" stroke-width="0.546668" stroke-linecap="round" stroke-linejoin="round"/>
<path d="M25.1185 224.639L22.3916 140.914" stroke="#A9E8CB" stroke-width="0.546668" stroke-linecap="round" stroke-linejoin="round"/>
<path d="M23.6065 189.628L9.35449 176.232" stroke="#A9E8CB" stroke-width="0.546668" stroke-linecap="round" stroke-linejoin="round"/>
<path d="M16.9333 183.537L13.9004 175.014" stroke="#A9E8CB" stroke-width="0.546668" stroke-linecap="round" stroke-linejoin="round"/>
<path d="M35.4258 199.978L24.5127 211.853" stroke="#A9E8CB" stroke-width="0.546668" stroke-linecap="round" stroke-linejoin="round"/>
<path d="M6.32031 206.678L24.5124 216.117" stroke="#A9E8CB" stroke-width="0.546668" stroke-linecap="round" stroke-linejoin="round"/>
<path d="M16.0269 212.155L9.35449 211.853" stroke="#A9E8CB" stroke-width="0.546668" stroke-linecap="round" stroke-linejoin="round"/>
<g opacity="0.8">
<path d="M25.1214 224.639L22.3945 140.914" stroke="white" stroke-width="0.546668" stroke-linecap="round" stroke-linejoin="round"/>
<path d="M23.6075 189.628L9.35547 176.232" stroke="white" stroke-width="0.546668" stroke-linecap="round" stroke-linejoin="round"/>
<path d="M16.9353 183.537L13.9023 175.014" stroke="white" stroke-width="0.546668" stroke-linecap="round" stroke-linejoin="round"/>
<path d="M35.4277 199.978L24.5146 211.853" stroke="white" stroke-width="0.546668" stroke-linecap="round" stroke-linejoin="round"/>
<path d="M6.32227 206.678L24.5144 216.117" stroke="white" stroke-width="0.546668" stroke-linecap="round" stroke-linejoin="round"/>
<path d="M16.0279 212.155L9.35547 211.853" stroke="white" stroke-width="0.546668" stroke-linecap="round" stroke-linejoin="round"/>
</g>
<path d="M78.2964 207.721C78.2964 216.232 71.5802 223.136 71.5802 223.136C71.5802 223.136 64.875 216.232 64.875 207.721C64.875 199.209 71.5912 192.306 71.5912 192.306C71.5912 192.306 78.2964 199.204 78.2964 207.721Z" fill="#A9E8CB"/>
<path d="M82.9465 220.853C79.6677 224.546 74.1264 224.947 74.1264 224.947C74.1264 224.947 73.8587 219.355 77.1211 215.661C80.3836 211.968 85.9412 211.568 85.9412 211.568C85.9412 211.568 86.1871 217.16 82.9465 220.853Z" fill="#A9E8CB"/>
<path d="M65.8368 215.535C69.2577 219.075 69.2413 224.672 69.2413 224.672C69.2413 224.672 63.6727 224.524 60.2463 220.979C56.8199 217.434 56.8418 211.842 56.8418 211.842C56.8418 211.842 62.4104 211.99 65.8368 215.535Z" fill="#A9E8CB"/>
<g opacity="0.5">
<path d="M78.2964 207.721C78.2964 216.232 71.5802 223.136 71.5802 223.136C71.5802 223.136 64.875 216.232 64.875 207.721C64.875 199.209 71.5912 192.306 71.5912 192.306C71.5912 192.306 78.2964 199.204 78.2964 207.721Z" fill="white"/>
<path d="M71.5801 223.136V192.306" stroke="white" stroke-width="0.546668" stroke-linecap="round" stroke-linejoin="round"/>
<path d="M71.5801 203.265L75.3398 199.967" stroke="white" stroke-width="0.546668" stroke-linecap="round" stroke-linejoin="round"/>
<path d="M71.5212 208.357L66.8652 201.586" stroke="white" stroke-width="0.546668" stroke-linecap="round" stroke-linejoin="round"/>
<path d="M71.5801 211.293L77.1323 206.322" stroke="white" stroke-width="0.546668" stroke-linecap="round" stroke-linejoin="round"/>
<path d="M71.5194 215.25L66.0273 210.339" stroke="white" stroke-width="0.546668" stroke-linecap="round" stroke-linejoin="round"/>
<path d="M71.5205 218.669L75.8158 215.25" stroke="white" stroke-width="0.546668" stroke-linecap="round" stroke-linejoin="round"/>
<path d="M82.9475 220.853C79.6687 224.546 74.1274 224.947 74.1274 224.947C74.1274 224.947 73.8596 219.355 77.1221 215.661C80.3845 211.968 85.9422 211.568 85.9422 211.568C85.9422 211.568 86.1881 217.16 82.9475 220.853Z" fill="white"/>
<path d="M74.127 224.947L85.9417 211.568" stroke="white" stroke-width="0.546668" stroke-linecap="round" stroke-linejoin="round"/>
<path d="M81.7451 216.326L84.636 216.347" stroke="white" stroke-width="0.546668" stroke-linecap="round" stroke-linejoin="round"/>
<path d="M79.7666 218.51L80.3406 213.774" stroke="white" stroke-width="0.546668" stroke-linecap="round" stroke-linejoin="round"/>
<path d="M78.6621 219.81L82.9793 219.794" stroke="white" stroke-width="0.546668" stroke-linecap="round" stroke-linejoin="round"/>
<path d="M77.1225 221.5L76.625 217.247" stroke="white" stroke-width="0.546668" stroke-linecap="round" stroke-linejoin="round"/>
<path d="M75.8154 222.982L78.9904 223.162" stroke="white" stroke-width="0.546668" stroke-linecap="round" stroke-linejoin="round"/>
<path d="M65.8368 215.535C69.2577 219.075 69.2413 224.672 69.2413 224.672C69.2413 224.672 63.6727 224.524 60.2463 220.979C56.8199 217.434 56.8418 211.842 56.8418 211.842C56.8418 211.842 62.4104 211.99 65.8368 215.535Z" fill="white"/>
<path d="M69.2413 224.672L56.8418 211.842" stroke="white" stroke-width="0.546668" stroke-linecap="round" stroke-linejoin="round"/>
<path d="M61.2471 216.402L61.4876 213.505" stroke="white" stroke-width="0.546668" stroke-linecap="round" stroke-linejoin="round"/>
<path d="M63.2737 218.548L58.6123 217.615" stroke="white" stroke-width="0.546668" stroke-linecap="round" stroke-linejoin="round"/>
<path d="M64.4766 219.744L64.7882 215.425" stroke="white" stroke-width="0.546668" stroke-linecap="round" stroke-linejoin="round"/>
<path d="M66.0438 221.413L61.7812 221.598" stroke="white" stroke-width="0.546668" stroke-linecap="round" stroke-linejoin="round"/>
<path d="M67.4219 222.834L67.8319 219.673" stroke="white" stroke-width="0.546668" stroke-linecap="round" stroke-linejoin="round"/>
</g>
<path d="M71.5811 223.136V192.306" stroke="#A9E8CB" stroke-width="0.546668" stroke-linecap="round" stroke-linejoin="round"/>
<path d="M71.5811 203.265L75.3408 199.967" stroke="#A9E8CB" stroke-width="0.546668" stroke-linecap="round" stroke-linejoin="round"/>
<path d="M71.5212 208.357L66.8652 201.586" stroke="#A9E8CB" stroke-width="0.546668" stroke-linecap="round" stroke-linejoin="round"/>
<path d="M71.5811 211.293L77.1332 206.321" stroke="#A9E8CB" stroke-width="0.546668" stroke-linecap="round" stroke-linejoin="round"/>
<path d="M71.5214 215.25L66.0293 210.338" stroke="#A9E8CB" stroke-width="0.546668" stroke-linecap="round" stroke-linejoin="round"/>
<path d="M71.5215 218.669L75.8168 215.25" stroke="#A9E8CB" stroke-width="0.546668" stroke-linecap="round" stroke-linejoin="round"/>
<g opacity="0.7">
<path d="M71.582 223.136V192.306" stroke="white" stroke-width="0.546668" stroke-linecap="round" stroke-linejoin="round"/>
<path d="M71.582 203.265L75.3418 199.967" stroke="white" stroke-width="0.546668" stroke-linecap="round" stroke-linejoin="round"/>
<path d="M71.5212 208.357L66.8652 201.586" stroke="white" stroke-width="0.546668" stroke-linecap="round" stroke-linejoin="round"/>
<path d="M71.582 211.293L77.1342 206.322" stroke="white" stroke-width="0.546668" stroke-linecap="round" stroke-linejoin="round"/>
<path d="M71.5214 215.25L66.0293 210.339" stroke="white" stroke-width="0.546668" stroke-linecap="round" stroke-linejoin="round"/>
<path d="M71.5215 218.669L75.8168 215.25" stroke="white" stroke-width="0.546668" stroke-linecap="round" stroke-linejoin="round"/>
</g>
<path d="M74.127 224.947L85.9417 211.568" stroke="#A9E8CB" stroke-width="0.546668" stroke-linecap="round" stroke-linejoin="round"/>
<path d="M81.7451 216.326L84.636 216.347" stroke="#A9E8CB" stroke-width="0.546668" stroke-linecap="round" stroke-linejoin="round"/>
<path d="M79.7676 218.51L80.3416 213.774" stroke="#A9E8CB" stroke-width="0.546668" stroke-linecap="round" stroke-linejoin="round"/>
<path d="M78.6631 219.81L82.9802 219.794" stroke="#A9E8CB" stroke-width="0.546668" stroke-linecap="round" stroke-linejoin="round"/>
<path d="M77.1225 221.5L76.625 217.247" stroke="#A9E8CB" stroke-width="0.546668" stroke-linecap="round" stroke-linejoin="round"/>
<path d="M75.8164 222.982L78.9914 223.162" stroke="#A9E8CB" stroke-width="0.546668" stroke-linecap="round" stroke-linejoin="round"/>
<g opacity="0.7">
<path d="M74.1279 224.947L85.9427 211.568" stroke="white" stroke-width="0.546668" stroke-linecap="round" stroke-linejoin="round"/>
<path d="M81.7461 216.326L84.6369 216.347" stroke="white" stroke-width="0.546668" stroke-linecap="round" stroke-linejoin="round"/>
<path d="M79.7676 218.51L80.3416 213.774" stroke="white" stroke-width="0.546668" stroke-linecap="round" stroke-linejoin="round"/>
<path d="M78.6641 219.81L82.9812 219.794" stroke="white" stroke-width="0.546668" stroke-linecap="round" stroke-linejoin="round"/>
<path d="M77.1225 221.5L76.625 217.247" stroke="white" stroke-width="0.546668" stroke-linecap="round" stroke-linejoin="round"/>
<path d="M75.8164 222.982L78.9914 223.162" stroke="white" stroke-width="0.546668" stroke-linecap="round" stroke-linejoin="round"/>
</g>
<path d="M69.2413 224.672L56.8418 211.842" stroke="#A9E8CB" stroke-width="0.546668" stroke-linecap="round" stroke-linejoin="round"/>
<path d="M61.2471 216.402L61.4876 213.505" stroke="#A9E8CB" stroke-width="0.546668" stroke-linecap="round" stroke-linejoin="round"/>
<path d="M63.2737 218.548L58.6123 217.615" stroke="#A9E8CB" stroke-width="0.546668" stroke-linecap="round" stroke-linejoin="round"/>
<path d="M64.4766 219.744L64.7882 215.425" stroke="#A9E8CB" stroke-width="0.546668" stroke-linecap="round" stroke-linejoin="round"/>
<path d="M66.0447 221.413L61.7822 221.598" stroke="#A9E8CB" stroke-width="0.546668" stroke-linecap="round" stroke-linejoin="round"/>
<path d="M67.4229 222.834L67.8329 219.673" stroke="#A9E8CB" stroke-width="0.546668" stroke-linecap="round" stroke-linejoin="round"/>
<g opacity="0.7">
<path d="M69.2413 224.672L56.8418 211.842" stroke="white" stroke-width="0.546668" stroke-linecap="round" stroke-linejoin="round"/>
<path d="M61.2471 216.402L61.4876 213.505" stroke="white" stroke-width="0.546668" stroke-linecap="round" stroke-linejoin="round"/>
<path d="M63.2737 218.548L58.6123 217.615" stroke="white" stroke-width="0.546668" stroke-linecap="round" stroke-linejoin="round"/>
<path d="M64.4766 219.744L64.7882 215.425" stroke="white" stroke-width="0.546668" stroke-linecap="round" stroke-linejoin="round"/>
<path d="M66.0438 221.412L61.7812 221.598" stroke="white" stroke-width="0.546668" stroke-linecap="round" stroke-linejoin="round"/>
<path d="M67.4219 222.834L67.8319 219.673" stroke="white" stroke-width="0.546668" stroke-linecap="round" stroke-linejoin="round"/>
</g>
<path d="M229.571 61.8532H81.8427C81.7985 61.8539 81.7546 61.8458 81.7135 61.8293C81.6724 61.8128 81.635 61.7883 81.6035 61.7571C81.5719 61.7259 81.5469 61.6887 81.5298 61.6478C81.5127 61.6068 81.5039 61.5628 81.5039 61.5183C81.5039 61.428 81.5396 61.3415 81.6031 61.2776C81.6667 61.2138 81.7529 61.1779 81.8427 61.1779H229.571C229.615 61.1779 229.659 61.1868 229.7 61.2039C229.741 61.2211 229.778 61.2463 229.809 61.278C229.84 61.3096 229.864 61.3472 229.881 61.3885C229.897 61.4297 229.905 61.4739 229.904 61.5183C229.904 61.6071 229.869 61.6923 229.807 61.7551C229.744 61.8179 229.66 61.8532 229.571 61.8532Z" fill="#A9E8CB"/>
<g opacity="0.3">
<path d="M229.571 61.8532H81.8427C81.7985 61.8539 81.7546 61.8458 81.7135 61.8293C81.6724 61.8128 81.635 61.7883 81.6035 61.7571C81.5719 61.7259 81.5469 61.6887 81.5298 61.6478C81.5127 61.6068 81.5039 61.5628 81.5039 61.5183C81.5039 61.428 81.5396 61.3415 81.6031 61.2776C81.6667 61.2138 81.7529 61.1779 81.8427 61.1779H229.571C229.615 61.1779 229.659 61.1868 229.7 61.2039C229.741 61.2211 229.778 61.2463 229.809 61.278C229.84 61.3096 229.864 61.3472 229.881 61.3885C229.897 61.4297 229.905 61.4739 229.904 61.5183C229.904 61.6071 229.869 61.6923 229.807 61.7551C229.744 61.8179 229.66 61.8532 229.571 61.8532Z" fill="white"/>
</g>
<path d="M229.276 120.692H81.5478C81.5036 120.693 81.4596 120.685 81.4186 120.668C81.3775 120.652 81.3401 120.627 81.3085 120.596C81.277 120.565 81.252 120.527 81.2349 120.486C81.2178 120.445 81.209 120.401 81.209 120.357C81.209 120.267 81.2447 120.18 81.3082 120.116C81.3718 120.053 81.4579 120.017 81.5478 120.017H229.276C229.32 120.017 229.364 120.025 229.405 120.043C229.446 120.06 229.483 120.085 229.514 120.117C229.545 120.148 229.569 120.186 229.586 120.227C229.602 120.268 229.61 120.313 229.61 120.357C229.61 120.401 229.601 120.445 229.584 120.485C229.567 120.526 229.543 120.563 229.512 120.594C229.481 120.625 229.444 120.65 229.404 120.666C229.363 120.683 229.32 120.692 229.276 120.692Z" fill="#A9E8CB"/>
<g opacity="0.3">
<path d="M229.276 120.692H81.5478C81.5036 120.693 81.4596 120.685 81.4186 120.668C81.3775 120.652 81.3401 120.627 81.3085 120.596C81.277 120.565 81.252 120.527 81.2349 120.486C81.2178 120.445 81.209 120.401 81.209 120.357C81.209 120.267 81.2447 120.18 81.3082 120.116C81.3718 120.053 81.4579 120.017 81.5478 120.017H229.276C229.32 120.017 229.364 120.025 229.405 120.043C229.446 120.06 229.483 120.085 229.514 120.117C229.545 120.148 229.569 120.186 229.586 120.227C229.602 120.268 229.61 120.313 229.61 120.357C229.61 120.401 229.601 120.445 229.584 120.485C229.567 120.526 229.543 120.563 229.512 120.594C229.481 120.625 229.444 120.65 229.404 120.666C229.363 120.683 229.32 120.692 229.276 120.692Z" fill="white"/>
</g>
<path d="M229.276 168.791H81.5478C81.4579 168.791 81.3718 168.756 81.3082 168.692C81.2447 168.628 81.209 168.541 81.209 168.451C81.209 168.407 81.2178 168.363 81.2349 168.322C81.252 168.281 81.277 168.243 81.3085 168.212C81.3401 168.181 81.3775 168.157 81.4186 168.14C81.4596 168.124 81.5036 168.115 81.5478 168.116H229.276C229.32 168.116 229.363 168.125 229.404 168.142C229.444 168.158 229.481 168.183 229.512 168.214C229.543 168.245 229.567 168.282 229.584 168.323C229.601 168.363 229.61 168.407 229.61 168.451C229.61 168.495 229.602 168.54 229.586 168.581C229.569 168.622 229.545 168.66 229.514 168.691C229.483 168.723 229.446 168.748 229.405 168.765C229.364 168.783 229.32 168.791 229.276 168.791Z" fill="#A9E8CB"/>
<g opacity="0.3">
<path d="M229.276 168.791H81.5478C81.4579 168.791 81.3718 168.756 81.3082 168.692C81.2447 168.628 81.209 168.541 81.209 168.451C81.209 168.407 81.2178 168.363 81.2349 168.322C81.252 168.281 81.277 168.243 81.3085 168.212C81.3401 168.181 81.3775 168.157 81.4186 168.14C81.4596 168.124 81.5036 168.115 81.5478 168.116H229.276C229.32 168.116 229.363 168.125 229.404 168.142C229.444 168.158 229.481 168.183 229.512 168.214C229.543 168.245 229.567 168.282 229.584 168.323C229.601 168.363 229.61 168.407 229.61 168.451C229.61 168.495 229.602 168.54 229.586 168.581C229.569 168.622 229.545 168.66 229.514 168.691C229.483 168.723 229.446 168.748 229.405 168.765C229.364 168.783 229.32 168.791 229.276 168.791Z" fill="white"/>
</g>
<path d="M112.954 176.929V226.988" stroke="#443D78" stroke-width="0.14496" stroke-miterlimit="10"/>
<path d="M120.075 176.929V226.988" stroke="#443D78" stroke-width="0.14496" stroke-miterlimit="10"/>
<path d="M127.195 176.929V226.988" stroke="#443D78" stroke-width="0.14496" stroke-miterlimit="10"/>
<path d="M134.315 176.929V226.988" stroke="#443D78" stroke-width="0.14496" stroke-miterlimit="10"/>
<path d="M141.437 176.929V226.988" stroke="#443D78" stroke-width="0.14496" stroke-miterlimit="10"/>
<path d="M148.558 176.929V226.988" stroke="#443D78" stroke-width="0.14496" stroke-miterlimit="10"/>
<path d="M155.678 176.929V226.988" stroke="#443D78" stroke-width="0.14496" stroke-miterlimit="10"/>
<path d="M162.798 176.929V226.988" stroke="#443D78" stroke-width="0.14496" stroke-miterlimit="10"/>
<path d="M169.919 176.929V226.988" stroke="#443D78" stroke-width="0.14496" stroke-miterlimit="10"/>
<path d="M177.039 176.929V226.988" stroke="#443D78" stroke-width="0.14496" stroke-miterlimit="10"/>
<path d="M184.159 176.929V226.988" stroke="#443D78" stroke-width="0.14496" stroke-miterlimit="10"/>
<path d="M191.28 176.929V226.988" stroke="#443D78" stroke-width="0.14496" stroke-miterlimit="10"/>
<path d="M113.31 181.578H190.925" stroke="#443D78" stroke-width="0.14496" stroke-miterlimit="10"/>
<path d="M113.31 188.371H190.925" stroke="#443D78" stroke-width="0.14496" stroke-miterlimit="10"/>
<path d="M113.31 195.165H190.925" stroke="#443D78" stroke-width="0.14496" stroke-miterlimit="10"/>
<path d="M113.31 201.959H190.925" stroke="#443D78" stroke-width="0.14496" stroke-miterlimit="10"/>
<path d="M113.31 208.752H190.925" stroke="#443D78" stroke-width="0.14496" stroke-miterlimit="10"/>
<path d="M113.31 215.546H190.925" stroke="#443D78" stroke-width="0.14496" stroke-miterlimit="10"/>
<path d="M113.31 222.34H190.925" stroke="#443D78" stroke-width="0.14496" stroke-miterlimit="10"/>
<path d="M129.615 194.49L119.199 226.736H141.014L130.593 194.49C130.56 194.386 130.495 194.295 130.407 194.231C130.319 194.166 130.213 194.132 130.104 194.132C129.995 194.132 129.889 194.166 129.801 194.231C129.714 194.295 129.648 194.386 129.615 194.49Z" fill="#A9E8CB" stroke="#443D78" stroke-width="0.57984" stroke-miterlimit="10"/>
<path d="M149.475 183.811L135.611 226.736H164.334L150.454 183.811C150.42 183.707 150.355 183.616 150.267 183.552C150.179 183.487 150.073 183.453 149.964 183.453C149.856 183.453 149.75 183.487 149.662 183.552C149.574 183.616 149.509 183.707 149.475 183.811Z" fill="#443D78" stroke="#443D78" stroke-width="0.57984" stroke-miterlimit="10"/>
<path d="M167.749 201.865L159.71 226.736H176.76L168.705 201.865C168.667 201.769 168.601 201.686 168.516 201.628C168.431 201.569 168.33 201.538 168.227 201.538C168.124 201.538 168.023 201.569 167.937 201.628C167.852 201.686 167.786 201.769 167.749 201.865Z" fill="#A9E8CB" stroke="#443D78" stroke-width="0.57984" stroke-miterlimit="10"/>
<path d="M178.761 210.404L173.487 226.736H185.012L179.739 210.404C179.706 210.3 179.64 210.209 179.553 210.145C179.465 210.081 179.359 210.046 179.25 210.046C179.141 210.046 179.035 210.081 178.947 210.145C178.859 210.209 178.794 210.3 178.761 210.404Z" fill="#443D78" stroke="#443D78" stroke-width="0.57984" stroke-miterlimit="10"/>
<path d="M112.013 161.108C108.889 161.108 105.834 160.178 103.236 158.435C100.638 156.691 98.6132 154.214 97.4174 151.315C96.2217 148.416 95.9088 145.226 96.5184 142.148C97.128 139.071 98.6327 136.244 100.842 134.025C103.052 131.807 105.867 130.296 108.931 129.684C111.996 129.071 115.172 129.386 118.059 130.586C120.946 131.787 123.413 133.821 125.149 136.429C126.885 139.038 127.812 142.106 127.812 145.244C127.808 149.45 126.142 153.483 123.18 156.457C120.218 159.431 116.202 161.104 112.013 161.108ZM112.013 134.038C109.807 134.039 107.65 134.697 105.815 135.929C103.981 137.161 102.552 138.911 101.708 140.959C100.864 143.007 100.644 145.26 101.075 147.433C101.506 149.606 102.569 151.603 104.13 153.169C105.691 154.736 107.679 155.803 109.844 156.234C112.008 156.666 114.252 156.444 116.291 155.596C118.329 154.748 120.072 153.311 121.298 151.469C122.524 149.626 123.178 147.46 123.178 145.244C123.175 142.271 121.998 139.422 119.904 137.321C117.811 135.22 114.973 134.039 112.013 134.038Z" fill="#443D78" stroke="#443D78" stroke-width="0.57984" stroke-miterlimit="10"/>
<path d="M112.013 161.108C109.881 161.115 107.77 160.685 105.809 159.844C103.848 159.003 102.078 157.77 100.608 156.219L103.958 152.998C104.996 154.093 106.246 154.965 107.631 155.558C109.016 156.152 110.507 156.455 112.013 156.449C113.479 156.449 114.93 156.16 116.284 155.596C117.638 155.033 118.868 154.208 119.904 153.167C120.94 152.127 121.762 150.891 122.323 149.532C122.884 148.172 123.172 146.715 123.172 145.244C123.172 143.772 122.884 142.315 122.323 140.955C121.762 139.596 120.94 138.36 119.904 137.32C118.868 136.279 117.638 135.454 116.284 134.891C114.93 134.328 113.479 134.038 112.013 134.038V129.379C114.088 129.379 116.142 129.789 118.059 130.586C119.976 131.384 121.718 132.552 123.185 134.025C124.652 135.499 125.815 137.248 126.609 139.172C127.403 141.097 127.812 143.16 127.812 145.244C127.812 147.327 127.403 149.39 126.609 151.315C125.815 153.24 124.652 154.989 123.185 156.462C121.718 157.935 119.976 159.103 118.059 159.901C116.142 160.698 114.088 161.108 112.013 161.108Z" fill="#A9E8CB" stroke="#443D78" stroke-width="0.57984" stroke-miterlimit="10"/>
<path d="M150.978 161.108C147.853 161.11 144.798 160.18 142.199 158.437C139.6 156.695 137.575 154.217 136.378 151.319C135.181 148.42 134.868 145.23 135.477 142.152C136.086 139.074 137.59 136.247 139.799 134.027C142.008 131.808 144.823 130.297 147.888 129.684C150.953 129.071 154.13 129.385 157.017 130.586C159.904 131.786 162.372 133.82 164.108 136.429C165.844 139.038 166.771 142.106 166.771 145.244C166.767 149.449 165.102 153.481 162.141 156.455C159.18 159.429 155.166 161.103 150.978 161.108ZM150.978 134.038C148.771 134.04 146.615 134.699 144.781 135.932C142.948 137.164 141.519 138.915 140.676 140.963C139.833 143.011 139.614 145.263 140.046 147.436C140.477 149.609 141.541 151.605 143.102 153.171C144.663 154.737 146.651 155.803 148.816 156.235C150.98 156.666 153.223 156.444 155.262 155.595C157.3 154.747 159.042 153.311 160.268 151.468C161.494 149.625 162.148 147.459 162.148 145.244C162.143 142.271 160.965 139.422 158.871 137.321C156.777 135.22 153.938 134.039 150.978 134.038Z" fill="#443D78" stroke="#443D78" stroke-width="0.57984" stroke-miterlimit="10"/>
<path d="M157.125 159.857L155.322 155.571C157.692 154.563 159.642 152.763 160.842 150.476C162.042 148.189 162.418 145.556 161.907 143.023C161.396 140.49 160.029 138.211 158.037 136.574C156.046 134.937 153.552 134.041 150.978 134.038V129.379C154.623 129.379 158.156 130.645 160.978 132.963C163.799 135.28 165.736 138.506 166.46 142.094C167.184 145.682 166.65 149.41 164.948 152.648C163.247 155.885 160.483 158.432 157.125 159.857Z" fill="#A9E8CB" stroke="#443D78" stroke-width="0.57984" stroke-miterlimit="10"/>
<path d="M189.936 161.108C186.812 161.108 183.757 160.178 181.159 158.435C178.561 156.691 176.536 154.214 175.34 151.315C174.145 148.416 173.832 145.226 174.441 142.148C175.051 139.071 176.556 136.244 178.765 134.025C180.974 131.807 183.79 130.296 186.854 129.684C189.919 129.071 193.095 129.386 195.982 130.586C198.869 131.787 201.336 133.821 203.072 136.43C204.808 139.038 205.735 142.106 205.735 145.244C205.731 149.45 204.065 153.483 201.103 156.457C198.141 159.431 194.125 161.104 189.936 161.108ZM189.936 134.038C187.729 134.038 185.572 134.695 183.737 135.926C181.902 137.158 180.471 138.908 179.627 140.955C178.782 143.003 178.561 145.256 178.992 147.43C179.422 149.603 180.485 151.6 182.046 153.167C183.606 154.734 185.595 155.802 187.759 156.234C189.924 156.666 192.168 156.445 194.207 155.596C196.246 154.748 197.988 153.312 199.215 151.469C200.441 149.626 201.095 147.46 201.095 145.244C201.092 142.272 199.916 139.424 197.824 137.323C195.732 135.222 192.895 134.041 189.936 134.038Z" fill="#443D78" stroke="#443D78" stroke-width="0.57984" stroke-miterlimit="10"/>
<path d="M200.876 143.01C200.357 140.481 198.988 138.209 196.997 136.575C195.007 134.941 192.517 134.045 189.946 134.038V129.379C193.587 129.388 197.114 130.656 199.934 132.97C202.753 135.283 204.693 138.501 205.428 142.083L200.876 143.01Z" fill="#A9E8CB" stroke="#443D78" stroke-width="0.57984" stroke-miterlimit="10"/>
<path d="M118.315 111.813H192.51" stroke="#443D78" stroke-width="0.57984" stroke-miterlimit="10"/>
<path d="M118.315 111.813V110.227" stroke="#443D78" stroke-width="0.57984" stroke-miterlimit="10"/>
<path d="M133.152 111.813V110.227" stroke="#443D78" stroke-width="0.57984" stroke-miterlimit="10"/>
<path d="M147.994 111.813V110.227" stroke="#443D78" stroke-width="0.57984" stroke-miterlimit="10"/>
<path d="M162.831 111.813V110.227" stroke="#443D78" stroke-width="0.57984" stroke-miterlimit="10"/>
<path d="M177.668 111.813V110.227" stroke="#443D78" stroke-width="0.57984" stroke-miterlimit="10"/>
<path d="M192.51 111.813V110.227" stroke="#443D78" stroke-width="0.57984" stroke-miterlimit="10"/>
<path d="M131.075 90.6356H120.392V103.34H131.075V90.6356Z" fill="#A9E8CB" stroke="#443D78" stroke-width="0.57984" stroke-miterlimit="10"/>
<path d="M145.913 75.8135H135.229V105.458H145.913V75.8135Z" fill="#A9E8CB" stroke="#443D78" stroke-width="0.57984" stroke-miterlimit="10"/>
<path d="M160.755 55.0647H150.071V88.1005H160.755V55.0647Z" fill="#A9E8CB" stroke="#443D78" stroke-width="0.57984" stroke-miterlimit="10"/>
<path d="M175.592 85.9821H164.908V92.3369H175.592V85.9821Z" fill="#A9E8CB" stroke="#443D78" stroke-width="0.57984" stroke-miterlimit="10"/>
<path d="M190.428 82.1682H179.744V98.6861H190.428V82.1682Z" fill="#A9E8CB" stroke="#443D78" stroke-width="0.57984" stroke-miterlimit="10"/>
<path d="M131.075 103.345H120.392V111.818H131.075V103.345Z" fill="#443D78" stroke="#443D78" stroke-width="0.57984" stroke-miterlimit="10"/>
<path d="M145.913 105.463H135.229V111.818H145.913V105.463Z" fill="#443D78" stroke="#443D78" stroke-width="0.57984" stroke-miterlimit="10"/>
<path d="M160.755 88.0949H150.071V111.813H160.755V88.0949Z" fill="#443D78" stroke="#443D78" stroke-width="0.57984" stroke-miterlimit="10"/>
<path d="M175.592 92.3313H164.908V111.813H175.592V92.3313Z" fill="#443D78" stroke="#443D78" stroke-width="0.57984" stroke-miterlimit="10"/>
<path d="M190.428 98.6861H179.744V111.813H190.428V98.6861Z" fill="#443D78" stroke="#443D78" stroke-width="0.57984" stroke-miterlimit="10"/>
<path d="M212.282 49.0666C212.154 49.0675 212.027 49.0364 211.913 48.9761C211.8 48.9157 211.703 48.828 211.632 48.7209L188.647 15.0595L165.329 40.0284L141.519 24.4434L118.485 29.8104L95.0906 48.891C94.9283 49.0234 94.7202 49.0857 94.5121 49.0641C94.3041 49.0425 94.1131 48.9388 93.9812 48.7758C93.8494 48.6127 93.7874 48.4038 93.8089 48.1949C93.8304 47.986 93.9337 47.7942 94.096 47.6618L117.775 28.3506L141.82 22.7477L165.088 37.9815L188.844 12.5406L212.932 47.8264C213.014 47.9448 213.062 48.0834 213.071 48.2272C213.08 48.3709 213.049 48.5144 212.983 48.6421C212.917 48.7698 212.817 48.8769 212.694 48.9517C212.572 49.0265 212.431 49.0662 212.287 49.0666H212.282Z" fill="#443D78"/>
<path d="M96.5717 48.2764C96.5717 48.6639 96.4573 49.0427 96.243 49.3648C96.0286 49.687 95.7239 49.9381 95.3674 50.0864C95.0109 50.2347 94.6187 50.2735 94.2402 50.1979C93.8618 50.1223 93.5142 49.9357 93.2413 49.6617C92.9685 49.3877 92.7827 49.0387 92.7074 48.6586C92.6321 48.2786 92.6708 47.8847 92.8184 47.5267C92.9661 47.1687 93.2161 46.8628 93.537 46.6475C93.8578 46.4322 94.235 46.3173 94.6208 46.3173C95.1382 46.3173 95.6345 46.5237 96.0003 46.8911C96.3662 47.2585 96.5717 47.7568 96.5717 48.2764Z" fill="#A9E8CB"/>
<path d="M118.13 31.0396C119.207 31.0396 120.081 30.1625 120.081 29.0805C120.081 27.9986 119.207 27.1214 118.13 27.1214C117.052 27.1214 116.179 27.9986 116.179 29.0805C116.179 30.1625 117.052 31.0396 118.13 31.0396Z" fill="#A9E8CB"/>
<path d="M141.666 25.5519C142.743 25.5519 143.617 24.6748 143.617 23.5928C143.617 22.5108 142.743 21.6337 141.666 21.6337C140.588 21.6337 139.715 22.5108 139.715 23.5928C139.715 24.6748 140.588 25.5519 141.666 25.5519Z" fill="#A9E8CB"/>
<path d="M165.204 40.9613C166.281 40.9613 167.155 40.0842 167.155 39.0022C167.155 37.9202 166.281 37.0431 165.204 37.0431C164.126 37.0431 163.253 37.9202 163.253 39.0022C163.253 40.0842 164.126 40.9613 165.204 40.9613Z" fill="#A9E8CB"/>
<path d="M190.691 13.8028C190.691 14.1903 190.576 14.5691 190.362 14.8913C190.148 15.2134 189.843 15.4645 189.487 15.6128C189.13 15.7611 188.738 15.7999 188.359 15.7243C187.981 15.6487 187.633 15.4621 187.36 15.1881C187.088 14.9141 186.902 14.5651 186.827 14.185C186.751 13.805 186.79 13.4111 186.938 13.0531C187.085 12.6951 187.335 12.3892 187.656 12.1739C187.977 11.9586 188.354 11.8437 188.74 11.8437C189.257 11.8437 189.754 12.0501 190.119 12.4175C190.485 12.7849 190.691 13.2832 190.691 13.8028Z" fill="#A9E8CB"/>
<path d="M214.228 48.2764C214.228 48.6639 214.114 49.0427 213.899 49.3648C213.685 49.687 213.38 49.9381 213.024 50.0864C212.667 50.2347 212.275 50.2735 211.896 50.1979C211.518 50.1223 211.17 49.9357 210.898 49.6617C210.625 49.3877 210.439 49.0387 210.364 48.6586C210.288 48.2786 210.327 47.8847 210.475 47.5267C210.622 47.1687 210.872 46.8628 211.193 46.6475C211.514 46.4322 211.891 46.3173 212.277 46.3173C212.795 46.3173 213.291 46.5237 213.657 46.8911C214.022 47.2585 214.228 47.7568 214.228 48.2764Z" fill="#A9E8CB"/>
<path d="M254.348 235C275.178 235 292.065 232.723 292.065 229.913C292.065 227.103 275.178 224.826 254.348 224.826C233.517 224.826 216.63 227.103 216.63 229.913C216.63 232.723 233.517 235 254.348 235Z" fill="#A9E8CB"/>
<path opacity="0.7" d="M254.348 235C275.178 235 292.065 232.723 292.065 229.913C292.065 227.103 275.178 224.826 254.348 224.826C233.517 224.826 216.63 227.103 216.63 229.913C216.63 232.723 233.517 235 254.348 235Z" fill="white"/>
<path d="M47.7044 235C66.9266 235 82.5093 232.722 82.5093 229.913C82.5093 227.103 66.9266 224.826 47.7044 224.826C28.4821 224.826 12.8994 227.103 12.8994 229.913C12.8994 232.722 28.4821 235 47.7044 235Z" fill="#A9E8CB"/>
<path opacity="0.7" d="M47.7044 235C66.9266 235 82.5093 232.722 82.5093 229.913C82.5093 227.103 66.9266 224.826 47.7044 224.826C28.4821 224.826 12.8994 227.103 12.8994 229.913C12.8994 232.722 28.4821 235 47.7044 235Z" fill="white"/>
<path d="M243.704 50.7019C243.704 50.7019 258.033 49.308 258.853 51.7061C259.672 54.1042 259.399 59.5809 259.399 59.5809C260.121 59.7694 260.825 60.0209 261.503 60.3328C261.694 60.5193 263.815 61.9132 261.836 64.2016C261.32 64.7818 260.694 65.2537 259.995 65.5899C259.122 65.9777 258.293 66.4559 257.519 67.0167L254.645 70.2929L255.191 74.5129C255.191 74.5129 256.475 75.4458 258.044 78.7C258.044 78.7 261.749 80.8951 263.924 82.1408C265.712 83.0845 267.573 83.8845 269.487 84.5334C269.487 84.5334 270.482 84.8572 270.411 85.576C270.34 86.2949 265.459 102.588 265.459 102.588L262.891 110.819C262.842 111.831 262.711 112.837 262.498 113.827C262.131 115.599 260.754 116.762 259.328 116.4L259.47 122.437C259.47 122.437 252.77 125.801 241.721 125.23C241.721 125.23 236.518 124.725 232.671 121.866L232.6 107.763L214.872 104.316C214.872 104.316 212.626 103.839 213.779 101.809C214.932 99.7781 218.807 94.7405 218.807 94.7405L231.261 79.4408C231.261 79.4408 232.119 78.4256 232.436 78.1018C232.753 77.7781 233.529 77.5531 236.606 77.2951C239.682 77.0372 243.131 76.4391 243.131 76.4391C243.131 76.4391 244.999 74.8257 245.267 74.8257C245.535 74.8257 245.59 72.4111 245.59 72.4111C244.645 71.7262 243.859 70.8437 243.286 69.8243C242.713 68.8049 242.368 67.6729 242.273 66.5064C242.005 62.5882 243.715 53.4073 243.715 53.4073L243.704 50.7019Z" fill="white"/>
<path d="M232.889 121.811C232.889 121.811 231.381 144.311 231.381 155.077C231.381 165.844 232.053 174.564 232.386 182.126C232.72 189.688 231.381 194.896 232.55 200.439C233.72 205.981 236.403 222.115 236.403 222.115L239.556 224.025C239.556 224.025 240.103 211.189 241.25 206.656C242.398 202.123 242.758 182.966 243.436 177.083C244.114 171.2 246.283 150.369 246.283 150.369C246.283 150.369 254.65 172.21 256.666 180.782C258.683 189.353 265.536 208.67 267.049 213.373C268.563 218.076 270.896 225.045 270.896 225.045C271.605 225.253 272.35 225.31 273.082 225.21C273.399 225.184 273.703 225.078 273.967 224.902C274.231 224.725 274.446 224.483 274.591 224.2C274.591 224.2 272.366 210.13 271.388 203.292C270.181 194.836 268.213 182.126 267.016 177.423C265.82 172.72 264.005 165.323 264.005 161.794C264.005 158.266 259.492 122.832 259.492 122.832C259.492 122.832 243.764 129.708 232.889 121.811Z" fill="#443D78"/>
<path d="M246.272 150.369L239.562 142.511" stroke="white" stroke-width="0.28992" stroke-miterlimit="10" stroke-linecap="round"/>
<path d="M237.846 143.087L243.371 148.251" stroke="white" stroke-width="0.28992" stroke-miterlimit="10" stroke-linecap="round"/>
<path d="M249.655 143.663C251.07 140.069 253.699 137.089 257.082 135.245" stroke="white" stroke-width="0.28992" stroke-miterlimit="10" stroke-linecap="round"/>
<path d="M257.459 124.731C257.459 124.731 256.7 127.595 257.65 129.318C258.601 131.041 259.558 131.042 259.558 131.042C259.558 131.042 261.268 140.409 261.268 145.765C261.268 151.121 260.126 151.692 261.268 157.618C262.41 163.545 263.175 165.46 263.175 168.901C263.175 172.342 264.695 174.641 266.028 176.743C267.361 178.845 267.744 184.974 267.744 187.449C267.744 189.924 268.503 192.613 269.269 195.099C269.269 195.099 269.449 200.675 270.411 201.981C271.372 203.287 271.553 207.721 271.553 207.721" stroke="white" stroke-width="0.28992" stroke-miterlimit="10" stroke-linecap="round"/>
<path d="M244.896 149.59C244.896 149.59 245.273 153.98 243.939 161.635C242.606 169.291 241.655 171.387 241.464 180.184C241.273 188.98 242.038 190.511 241.655 195.099C241.273 199.687 238.988 206.936 238.988 210.229C238.988 213.521 239.338 224.047 239.338 224.047" stroke="white" stroke-width="0.28992" stroke-miterlimit="10" stroke-linecap="round"/>
<path d="M240.704 125.878L241.087 127.409L243.562 127.979L243.18 126.07" stroke="white" stroke-width="0.28992" stroke-miterlimit="10" stroke-linecap="round"/>
<path d="M243.573 127.979C243.573 127.979 248.142 127.787 250.426 127.025L249.88 125.493" stroke="white" stroke-width="0.28992" stroke-miterlimit="10" stroke-linecap="round"/>
<path d="M251.939 125.109L252.486 127.024C252.486 127.024 256.142 126.816 256.688 126.267" stroke="white" stroke-width="0.28992" stroke-miterlimit="10" stroke-linecap="round"/>
<path d="M241.088 127.409C239.825 127.369 238.587 127.04 237.47 126.448L235.754 125.494L236.3 124.155" stroke="white" stroke-width="0.28992" stroke-miterlimit="10" stroke-linecap="round"/>
<path d="M236.403 222.115C236.403 222.115 228.206 227.487 227.031 230.006C225.856 232.525 230.545 231.521 233.89 230.176C237.234 228.832 239.354 224.025 239.354 224.025L236.403 222.115Z" fill="white" stroke="#443D78" stroke-width="0.57984" stroke-miterlimit="10" stroke-linecap="round"/>
<path d="M271.16 225.117C271.574 227.418 272.388 229.629 273.565 231.647C275.368 234.462 278.773 236.877 278.773 232.448C278.773 228.02 274.57 224.217 274.57 224.217C274.57 224.217 272.483 225.353 271.16 225.117Z" fill="white" stroke="#443D78" stroke-width="0.57984" stroke-miterlimit="10" stroke-linecap="round"/>
<path d="M243.655 53.7421C243.655 53.7421 241.879 64.8052 242.48 67.5491C243.851 73.6898 248.666 73.4264 251.677 72.252C254.491 71.1545 257.3 67.2747 257.661 66.7643C257.686 66.7283 257.723 66.7014 257.765 66.6875C258.213 66.5613 260.994 65.6723 262.218 63.5156C263.557 61.1614 261.049 60.1572 261.049 60.1572" fill="white"/>
<mask id="mask0_686_3681" style="mask-type:luminance" maskUnits="userSpaceOnUse" x="242" y="53" width="21" height="20">
<path d="M243.655 53.7421C243.655 53.7421 241.879 64.8052 242.48 67.5491C243.851 73.6898 248.666 73.4264 251.677 72.252C254.491 71.1545 257.3 67.2747 257.661 66.7643C257.686 66.7283 257.723 66.7014 257.765 66.6875C258.213 66.5613 260.994 65.6723 262.218 63.5156C263.557 61.1614 261.049 60.1572 261.049 60.1572" fill="white"/>
</mask>
<g mask="url(#mask0_686_3681)">
<g style="mix-blend-mode:multiply" opacity="0.5">
<path d="M255.049 69.6126L257.705 66.6822C257.705 66.6822 260.847 65.7109 262.219 63.4884C263.022 62.1878 262.579 61.0518 262.093 60.7445C261.426 60.3822 260.738 60.0615 260.033 59.7842L259.142 61.7543L258.382 61.886C258.382 61.886 258.699 59.8555 257.781 58.6537C256.863 57.4519 256.655 53.9727 256.655 53.9727C256.655 53.9727 255.371 60.9092 255.213 63.8121C255.172 65.4277 254.669 66.9974 253.765 68.334C253.765 68.334 253.929 70.1065 254.246 71.879C254.284 72.0875 254.322 72.4003 254.36 72.79L254.797 72.0875L255.038 72.757C254.765 71.6046 254.639 70.3809 255.049 69.6126Z" fill="#A9E8CB"/>
</g>
</g>
<path d="M243.655 53.7421C243.655 53.7421 241.879 64.8052 242.48 67.5491C243.851 73.6898 248.666 73.4264 251.677 72.252C254.491 71.1545 257.3 67.2747 257.661 66.7643C257.686 66.7283 257.723 66.7014 257.765 66.6875C258.213 66.5613 260.994 65.6723 262.218 63.5156C263.557 61.1614 261.049 60.1572 261.049 60.1572" stroke="#443D78" stroke-width="0.57984" stroke-miterlimit="10" stroke-linecap="round"/>
<path d="M250.453 59.3673C250.349 59.8065 250.453 60.2018 250.655 60.2512C250.857 60.3006 251.131 59.9932 251.235 59.5595C251.339 59.1257 251.235 58.7305 251.032 58.6756C250.83 58.6207 250.557 58.9336 250.453 59.3673Z" fill="#443D78"/>
<path d="M245.76 58.2203C245.656 58.6595 245.76 59.0548 245.962 59.1042C246.164 59.1537 246.437 58.8462 246.541 58.4125C246.645 57.9788 246.541 57.578 246.339 57.5286C246.137 57.4792 245.858 57.7811 245.76 58.2203Z" fill="#443D78"/>
<path d="M253.365 57.447C253.107 56.9905 252.739 56.6062 252.296 56.329C251.852 56.0519 251.346 55.8908 250.824 55.8604" stroke="#443D78" stroke-width="0.57984" stroke-miterlimit="10" stroke-linecap="round"/>
<path d="M247.23 55.9427C246.8 55.7538 246.322 55.701 245.862 55.7912C245.401 55.8814 244.978 56.1104 244.65 56.4478" stroke="#443D78" stroke-width="0.57984" stroke-miterlimit="10" stroke-linecap="round"/>
<path d="M247.546 57.9401C247.557 58.6752 247.502 59.4098 247.382 60.1352C247.202 61.0516 246.491 61.2327 246.672 61.9406C246.852 62.6485 247.765 62.7199 247.765 62.7199" stroke="#443D78" stroke-width="0.57984" stroke-miterlimit="10" stroke-linecap="round"/>
<path d="M248.715 65.5791C249.102 65.7029 249.511 65.741 249.913 65.6908C250.316 65.6405 250.703 65.5032 251.048 65.2882" stroke="#443D78" stroke-width="0.57984" stroke-miterlimit="10" stroke-linecap="round"/>
<path d="M257.372 46.0155C257.372 46.0155 253.694 42.8217 250.181 42.8217C246.667 42.8217 243.82 44.8411 241.645 45.0167C239.47 45.1923 237.967 43.1674 236.628 45.8563C235.289 48.5453 240.311 53.0836 243.656 53.7531C247 54.4226 251.683 53.4184 253.022 53.2482C254.305 53.1599 255.592 53.1599 256.875 53.2482C256.875 53.2482 255.869 56.4421 256.875 57.4518C257.88 58.4615 258.044 59.131 258.044 59.8005C258.102 60.5394 258.213 61.2731 258.378 61.9956L259.383 62.3358L259.886 60.4865C261.243 59.0338 262.17 57.2305 262.564 55.2787C263.061 52.255 260.553 49.2422 260.553 49.2422L257.372 46.0155Z" fill="#443D78"/>
<path d="M243.283 52.3757C243.283 52.3757 249.005 53.4732 253.486 51.6019C257.967 49.7306 254.103 46.0155 254.103 46.0155" stroke="white" stroke-width="0.28992" stroke-miterlimit="10" stroke-linecap="round"/>
<path d="M255.049 45.7026C255.513 45.7026 259.377 48.6495 258.601 50.8226C257.825 52.9957 256.284 53.1549 256.284 53.1549" stroke="white" stroke-width="0.28992" stroke-miterlimit="10" stroke-linecap="round"/>
<path d="M254.415 112.361L249.584 109.804C248.343 109.735 247.108 109.574 245.89 109.321C244.764 108.997 233.212 107.889 233.212 107.889L233.037 110.633C233.037 110.633 246.213 112.411 248.94 112.735C251.666 113.058 254.082 114.348 254.563 115.155C255.044 115.961 256.011 116.768 255.53 118.996C255.049 121.224 251.836 124.484 251.836 124.484C251.683 124.253 259.563 123.682 259.486 122.837C259.317 121.158 258.426 116.252 258.426 116.252L254.415 112.361Z" fill="#A9E8CB"/>
<path opacity="0.5" d="M254.415 112.361L249.584 109.804C248.343 109.735 247.108 109.574 245.89 109.321C244.764 108.997 233.212 107.889 233.212 107.889L233.037 110.633C233.037 110.633 246.213 112.411 248.94 112.735C251.666 113.058 254.082 114.348 254.563 115.155C255.044 115.961 256.011 116.768 255.53 118.996C255.049 121.224 251.836 124.484 251.836 124.484C251.71 124.237 259.579 123.677 259.486 122.837C259.23 120.697 258.426 116.252 258.426 116.252L254.415 112.361Z" fill="white"/>
<path d="M270.35 85.5158C269.923 83.5073 266.743 83.7762 264.825 82.6622C262.907 81.5482 258.267 78.969 258.267 78.969L256.021 75.5776C255.616 74.6632 255.288 73.716 255.043 72.7459L254.802 72.0764L254.365 72.7789C254.644 75.7861 254.912 83.4853 254.912 83.4853L255.874 88.3254C255.874 88.3254 259.573 104.295 260.535 107.845C261.497 111.396 261.497 113.81 260.857 114.941C260.218 116.071 260.431 116.587 260.431 116.587C260.431 116.587 262.939 114.639 262.786 112.707C262.584 110.435 270.65 86.8767 270.35 85.5158Z" fill="#A9E8CB"/>
<path opacity="0.5" d="M270.35 85.5158C270.131 83.4743 266.743 83.7762 264.825 82.6622C262.907 81.5482 258.267 78.969 258.267 78.969L256.021 75.5776C255.616 74.6632 255.288 73.716 255.043 72.7459L254.802 72.0764L254.365 72.7789C254.644 75.7861 254.912 83.4853 254.912 83.4853L255.874 88.3254C255.874 88.3254 259.573 104.295 260.535 107.845C261.497 111.396 261.497 113.81 260.857 114.941C260.218 116.071 260.431 116.587 260.431 116.587C260.431 116.587 263.01 114.633 262.786 112.707C262.53 110.638 270.546 87.2115 270.35 85.5158Z" fill="white"/>
<path d="M256.311 83.5018C256.311 83.5018 255.305 74.4307 254.802 72.0765C254.3 69.7223 254.639 68.3833 252.464 68.3833C250.289 68.3833 247.611 68.0431 248.092 69.2229C248.573 70.4028 251.917 69.3875 252.464 69.8924C253.01 70.3973 252.628 71.5716 252.628 71.5716C252.628 71.5716 248.256 71.9119 248.256 73.0862C248.256 74.2606 248.425 77.4764 249.261 77.7892C250.097 78.102 250.431 76.2801 250.431 76.2801C250.431 76.2801 250.6 80.1214 251.436 81.4879C251.969 82.3318 252.586 83.1188 253.278 83.8366L256.311 83.5018Z" fill="white" stroke="#443D78" stroke-width="0.57984" stroke-miterlimit="10" stroke-linecap="round"/>
<path d="M253.3 86.0206C253.3 86.0206 252.798 106.874 253.634 110.216C254.47 113.558 258.989 118.112 261.328 115.928C263.667 113.744 262.503 109.041 262.503 106.857C262.503 104.673 257.147 88.5449 257.147 87.365C257.068 86.3853 256.841 85.4232 256.475 84.5114" stroke="#443D78" stroke-width="0.57984" stroke-miterlimit="10" stroke-linecap="round"/>
<path d="M253.633 88.545L256.977 88.2047" stroke="#443D78" stroke-width="0.57984" stroke-miterlimit="10" stroke-linecap="round"/>
<path d="M232.244 98.9714L232.889 80.4176C232.889 80.4176 232.085 79.9347 231.763 81.7072C231.441 83.4797 231.282 87.0358 231.282 87.0358C231.282 87.0358 227.424 84.6157 228.391 86.0644C229.359 87.5132 230.96 90.7454 230.96 90.7454L224.992 96.7105L227.725 97.841L232.244 98.9714Z" fill="#A9E8CB"/>
<path opacity="0.5" d="M232.244 98.9714L232.889 80.4176C232.889 80.4176 232.085 79.9347 231.763 81.7072C231.441 83.4797 231.282 87.0358 231.282 87.0358C231.282 87.0358 227.424 84.6157 228.391 86.0644C229.359 87.5132 230.96 90.7454 230.96 90.7454L224.992 96.7105L227.725 97.841L232.244 98.9714Z" fill="white"/>
<path d="M240.245 84.5609C240.245 84.5609 239.939 85.6584 241.223 85.6584C242.507 85.6584 244.764 84.742 244.764 84.742L244.6 82.9201C244.6 82.9201 241.513 84.4292 240.245 84.5609Z" fill="#A9E8CB"/>
<path opacity="0.5" d="M240.245 84.5609C240.245 84.5609 239.939 85.6584 241.223 85.6584C242.507 85.6584 244.764 84.742 244.764 84.742L244.6 82.9201C244.6 82.9201 241.513 84.4292 240.245 84.5609Z" fill="white"/>
<path d="M245.758 72.2905C245.758 72.2905 244.086 82.1683 245.091 84.3634C246.097 86.5584 247.6 86.0426 248.769 85.0384C249.939 84.0341 251.447 81.5098 251.447 81.5098" stroke="#443D78" stroke-width="0.57984" stroke-miterlimit="10" stroke-linecap="round"/>
<path d="M232.551 108.032L232.89 121.811C232.89 121.811 236.715 125.504 244.098 125.504C251.481 125.504 259.492 122.815 259.492 122.815V117.942" stroke="#443D78" stroke-width="0.57984" stroke-miterlimit="10" stroke-linecap="round"/>
<path d="M255.142 74.2606C255.142 74.2606 258.153 77.2843 258.153 80.1433C258.153 83.0024 257.65 83.6719 257.65 83.6719" stroke="#443D78" stroke-width="0.57984" stroke-miterlimit="10" stroke-linecap="round"/>
<path d="M257.814 78.4641C257.814 78.4641 262.334 81.1476 264.842 82.6622C267.35 84.1768 270.367 84.1713 270.367 85.5158C270.367 86.8603 263.339 109.711 263.339 109.711" stroke="#443D78" stroke-width="0.57984" stroke-miterlimit="10" stroke-linecap="round"/>
<path d="M260.661 86.0206L258.988 92.743" stroke="#443D78" stroke-width="0.57984" stroke-miterlimit="10" stroke-linecap="round"/>
<path d="M232.594 89.9663L229.889 84.2701" stroke="#443D78" stroke-width="0.28992" stroke-miterlimit="10" stroke-linecap="round"/>
<path d="M232.594 91.596L228.539 89.154" stroke="#443D78" stroke-width="0.28992" stroke-miterlimit="10" stroke-linecap="round"/>
<path d="M245.825 104.338L245.016 108.41" stroke="#443D78" stroke-width="0.28992" stroke-miterlimit="10" stroke-linecap="round"/>
<path d="M267.7 85.3566C267.7 85.3566 263.651 86.1688 259.869 90.7784" stroke="#443D78" stroke-width="0.28992" stroke-miterlimit="10" stroke-linecap="round"/>
<path d="M265.001 85.1097C265.001 85.1097 263.908 84.8353 260.143 88.0895" stroke="#443D78" stroke-width="0.28992" stroke-miterlimit="10" stroke-linecap="round"/>
<path d="M245.825 86.4431L244.207 99.1855L245.557 99.4599L246.639 95.3935" stroke="#443D78" stroke-width="0.28992" stroke-miterlimit="10" stroke-linecap="round"/>
<path d="M246.907 119.797C242.043 123.869 235.294 123.595 235.294 123.595" stroke="#443D78" stroke-width="0.28992" stroke-miterlimit="10" stroke-linecap="round"/>
<path d="M226.354 97.6655C226.354 97.6655 223.048 94.6253 218.364 98.4941" stroke="#443D78" stroke-width="0.28992" stroke-miterlimit="10" stroke-linecap="round"/>
<path d="M245.438 74.7654C245.438 74.7654 244.099 75.1001 242.59 77.4543C241.082 79.8086 239.246 83.8365 240.585 84.1713C241.924 84.506 244.41 82.9969 244.41 82.9969" stroke="#443D78" stroke-width="0.57984" stroke-miterlimit="10" stroke-linecap="round"/>
<path d="M250.623 83.6718L252.296 85.1816" stroke="#443D78" stroke-width="0.57984" stroke-miterlimit="10" stroke-linecap="round"/>
<path d="M243.092 76.4447C243.092 76.4447 236.901 77.2843 234.392 77.4544C231.884 77.6245 232.37 78.5519 231.551 79.1336C230.228 80.061 215.058 99.3721 214.063 101.221C213.069 103.071 213.227 103.91 214.899 104.415C216.572 104.92 233.228 107.862 233.228 107.862L247.945 109.376L249.114 105.677C249.114 105.677 252.535 106.133 253.136 106.133" stroke="#443D78" stroke-width="0.57984" stroke-miterlimit="10" stroke-linecap="round"/>
<path d="M247.442 104.316C244.194 103.37 241.054 102.083 238.075 100.475" stroke="#443D78" stroke-width="0.57984" stroke-miterlimit="10" stroke-linecap="round"/>
<path d="M236.737 100.135C236.737 100.135 231.818 98.302 229.157 97.9673C226.496 97.6325 222.419 97.5228 222.419 97.5228" stroke="#443D78" stroke-width="0.57984" stroke-miterlimit="10" stroke-linecap="round"/>
<path d="M232.217 97.9508L232.72 84.6761" stroke="#443D78" stroke-width="0.57984" stroke-miterlimit="10" stroke-linecap="round"/>
<path d="M247.945 109.376C249.093 109.956 250.296 110.42 251.536 110.76" stroke="#443D78" stroke-width="0.57984" stroke-miterlimit="10" stroke-linecap="round"/>
<path d="M28.9881 98.6807L30.9609 87.8536L43.4478 82.9147C43.4478 82.9147 44.0544 79.5507 44.6665 79.4025C45.2785 79.2544 45.8796 77.8715 45.8796 77.8715L45.5791 75.1002C45.5791 75.1002 46.7212 70.7101 52.4647 74.1289C52.4647 74.1289 50.7269 75.2923 51.0274 75.7752C51.328 76.2581 50.6941 77.7947 51.4537 77.7947C52.2133 77.7947 53.7489 78.766 54.5249 79.5507C55.068 80.1367 55.5479 80.7786 55.9566 81.4659L62.4214 81.8391C63.0841 81.8446 63.7434 81.935 64.3833 82.108C64.4926 78.9361 64.1046 76.516 63.3395 74.6338C60.5579 67.84 55.4867 65.4145 54.7599 62.0121C54.033 58.6098 54.3992 58.253 54.3992 58.253C55.1382 57.4985 55.6793 56.5716 55.974 55.5555C56.2687 54.5393 56.3078 53.4657 56.0878 52.4306C55.3664 48.7923 52.5849 46.2405 42.5571 45.7576C32.5293 45.2747 33.9829 52.1837 33.9829 52.1837L34.1031 52.6666C34.1031 52.6666 27.6984 54.8617 28.9116 62.9779C30.1248 71.0942 33.6222 74.6228 33.502 77.1691C33.3818 79.7153 29.633 80.6867 24.3158 86.4981C18.9986 92.3096 17.9166 101.051 20.0915 106.753C21.1845 109.557 23.3212 111.895 26.0044 113.64L28.9881 98.6807Z" fill="#443D78"/>
<path d="M37.3611 99.7508V102.198L32.7324 116.56C35.6247 117.328 38.658 117.392 41.5798 116.746C43.2292 116.314 44.8056 115.639 46.2577 114.743L37.3611 99.7508Z" fill="#443D78"/>
<path d="M50.6667 75.6874L51.2132 78.1568C51.2132 78.1568 52.8526 76.5105 56.055 81.5098C56.055 81.5098 62.711 81.3507 64.5253 82.2616C64.5253 82.2616 64.9024 82.3714 66.132 83.6829C67.3615 84.9945 71.9847 89.1706 71.9847 89.1706C71.9847 89.1706 77.9194 94.7022 78.5096 95.1302C79.0998 95.5582 81.313 97.682 82.9688 98.4228L87.4062 88.2761L89.3845 83.2549L90.4774 79.1227H90.8271L90.9037 75.7916L90.6359 71.8186C90.6795 71.6165 90.7714 71.4282 90.9037 71.2698C91.3618 70.6321 91.7143 69.9242 91.9474 69.1735C91.9474 68.8004 91.5704 66.5943 91.5704 66.5943C91.5704 66.5943 91.3846 66.0455 91.7889 65.9797C92.1933 65.9138 93.6852 66.4352 93.871 67.4833L94.4175 67.2967C94.87 66.2109 95.4341 65.1755 96.1006 64.2072C96.9859 63.0548 97.8931 62.3304 98.4559 62.7035C98.6104 62.8105 98.7217 62.9694 98.7698 63.1515C98.8179 63.3336 98.7996 63.527 98.7182 63.6968L96.9586 66.9455C96.9586 66.9455 96.1826 67.9937 97.1444 68.3668C97.1444 68.3668 99.2264 69.7113 99.3631 70.8912C99.4997 72.071 98.7456 73.0862 98.0789 73.9533C97.4122 74.8203 96.2372 76.6971 96.2372 76.6971L94.8711 77.9099L94.3246 80.0007L94.9694 80.8074L94.0076 84.9945L93.3136 88.1334L92.9639 90.0376L90.778 97.5558L88.5921 104.108C88.5921 104.108 87.4663 107.862 84.7394 107.757C82.0125 107.653 79.0233 106.171 78.056 105.688C77.0888 105.206 69.1157 101.024 69.1157 101.024L67.4763 100.245C67.6951 100.994 67.7893 101.775 67.755 102.555C67.7277 104.004 66.1757 107.198 65.7221 107.922L65.4543 113.585C65.3485 114.568 65.3669 115.56 65.509 116.538C65.7494 118.014 66.979 126.366 67.2468 127.409C67.2468 127.409 64.5909 129.823 56.678 130.97C48.765 132.117 45.0599 130.257 45.0599 130.257L41.5352 128.177L45.8796 119.556C45.8796 119.556 46.9726 116.993 46.8633 116.318C46.754 115.643 44.885 112.735 44.885 112.735L38.0268 100.475L37.7044 100.585L36.6388 104.163L32.7861 116.296L27.7148 131.442C27.7148 131.442 26.3268 135.284 25.753 136.419L24.1518 141.32C24.2407 142.195 24.4561 143.053 24.7912 143.866L20.7637 141.249L21.4796 137.407L22.3703 131.678L23.4633 125.45L24.4251 120.297L25.9606 113.426L26.5071 111.527L27.6001 106.16L29.5237 96.4253L31.1631 88.0895L42.639 83.5073L43.3549 82.9585C43.5141 81.8977 43.902 80.8844 44.4916 79.9897C44.9008 79.4011 45.388 78.8712 45.9397 78.4148C45.9397 78.4148 45.8851 77.6959 45.8468 77.0154C45.8086 76.3349 45.6337 75.0837 45.6337 75.0837C45.6337 75.0837 49.1803 76.6148 50.6667 75.6874Z" fill="white"/>
<path d="M35.2949 53.6324C35.2949 53.6324 37.4207 48.9075 41.6723 48.9075C45.9238 48.9075 54.7276 57.2927 54.7276 57.2927" stroke="white" stroke-width="0.28992" stroke-miterlimit="10" stroke-linecap="round"/>
<path d="M37.1152 54.3787C37.1152 54.3787 39.6946 51.6349 42.886 52.6995C46.0774 53.7641 46.531 57.578 46.531 57.578" stroke="white" stroke-width="0.28992" stroke-miterlimit="10" stroke-linecap="round"/>
<path d="M34.9892 54.8508C34.9892 54.8508 31.1967 56.9855 30.8907 60.953C30.5846 64.9206 36.2024 69.64 36.962 74.9795C37.7216 80.319 33.776 81.5318 27.3987 85.9549C21.0213 90.3779 22.087 100.283 23.4531 102.418" stroke="white" stroke-width="0.28992" stroke-miterlimit="10" stroke-linecap="round"/>
<path d="M24.2119 103.642C24.2119 103.642 25.1191 105.623 26.4852 106.232" stroke="white" stroke-width="0.28992" stroke-miterlimit="10" stroke-linecap="round"/>
<path d="M35.4481 65.2169C35.2685 65.6041 35.1879 66.0303 35.2137 66.4567C35.2394 66.8831 35.3707 67.2963 35.5956 67.6589C36.3552 69.0308 42.1533 75.8904 41.6724 79.0952C41.1915 82.3 38.1804 84.2756 38.1804 84.2756" stroke="white" stroke-width="0.28992" stroke-miterlimit="10" stroke-linecap="round"/>
<path d="M38.3282 54.8508C38.3282 54.8508 34.8362 56.3763 34.9893 59.883C35.1423 63.3896 35.9019 64.306 35.9019 64.306" stroke="white" stroke-width="0.28992" stroke-miterlimit="10" stroke-linecap="round"/>
<path d="M54.7275 66.4516C55.8125 68.9182 57.3013 71.1849 59.1321 73.1576C61.8645 75.9014 62.1651 79.869 62.1651 79.869" stroke="white" stroke-width="0.28992" stroke-miterlimit="10" stroke-linecap="round"/>
<path d="M57.9141 75.1276C57.9141 75.1276 59.2807 78.3324 59.2807 80.3134" stroke="white" stroke-width="0.28992" stroke-miterlimit="10" stroke-linecap="round"/>
<path d="M50.3559 75.9783L46.0661 79.8581C46.0661 79.8581 45.607 81.0324 44.7436 82.9147C43.8802 84.797 44.0222 88.4024 44.0222 88.4024L46.6672 93.687C46.6672 93.687 41.5795 87.8262 41.2899 87.1018C41.0002 86.3774 35.6776 87.6835 34.6721 88.117C33.6666 88.5505 32.3659 89.4176 32.6556 90.7182C32.9452 92.0188 34.2404 93.7474 33.6611 94.0382C33.0818 94.3291 31.5025 93.6047 31.5025 94.4717C31.5025 95.3388 33.3769 98.6643 32.5135 99.8167C31.6501 100.969 26.1799 119.616 26.1799 119.616C26.1799 119.616 29.6336 116.724 28.7701 117.882C27.9067 119.04 23.7371 128.429 23.7371 128.429L22.1523 133.917L25.8957 114.414L29.0598 97.9509L30.9615 87.8536C32.7977 87.239 43.4484 82.9147 43.4484 82.9147C43.4484 82.9147 44.29 79.3587 45.8803 77.8715L45.5797 75.1003C45.5797 75.1003 48.4815 76.121 50.3559 75.9783Z" fill="#A9E8CB"/>
<path opacity="0.5" d="M50.3559 75.9783L46.0661 79.8581C46.0661 79.8581 45.607 81.0324 44.7436 82.9147C43.8802 84.797 44.0222 88.4024 44.0222 88.4024L46.6672 93.687C46.6672 93.687 41.5795 87.8262 41.2899 87.1018C41.0002 86.3774 35.6776 87.6835 34.6721 88.117C33.6666 88.5505 32.3659 89.4176 32.6556 90.7182C32.9452 92.0188 34.2404 93.7474 33.6611 94.0382C33.0818 94.3291 31.5025 93.6047 31.5025 94.4717C31.5025 95.3388 33.3769 98.6643 32.5135 99.8167C31.6501 100.969 26.1799 119.616 26.1799 119.616C26.1799 119.616 29.6336 116.724 28.7701 117.882C27.9067 119.04 23.7371 128.429 23.7371 128.429L22.1523 133.917L25.8957 114.414L29.0598 97.9509L30.9615 87.8536C32.7977 87.239 43.4484 82.9147 43.4484 82.9147C43.4484 82.9147 43.678 79.6221 45.8857 78.4697L45.5797 75.1003C45.5797 75.1003 48.4815 76.121 50.3559 75.9783Z" fill="white"/>
<path d="M66.3242 95.4814C66.3242 95.4814 68.9145 91.1517 69.2041 92.1614C69.4938 93.1711 68.4828 96.6339 68.4828 96.6339C68.4828 96.6339 71.2152 95.6241 70.931 96.4912C70.6468 97.3582 70.0676 97.7917 70.2097 98.2253C70.3517 98.6588 79.7074 103.57 80.8604 104.146C82.0135 104.723 84.7459 101.403 86.041 102.412C87.3362 103.422 86.041 106.885 83.4507 106.89C80.8604 106.896 73.3792 103.598 73.3792 103.598L67.4882 100.157" fill="#A9E8CB"/>
<path opacity="0.5" d="M66.3242 95.4814C66.3242 95.4814 68.9145 91.1517 69.2041 92.1614C69.4938 93.1711 68.4828 96.6339 68.4828 96.6339C68.4828 96.6339 71.2152 95.6241 70.931 96.4912C70.6468 97.3582 70.0676 97.7917 70.2097 98.2253C70.3517 98.6588 79.7074 103.57 80.8604 104.146C82.0135 104.723 84.7459 101.403 86.041 102.412C87.3362 103.422 86.041 106.885 83.4507 106.89C80.8604 106.896 73.3792 103.598 73.3792 103.598L67.5101 100.168" fill="white"/>
<path d="M50.7871 112.965C50.7871 112.965 67.6076 104.009 64.8752 107.329C62.1428 110.649 53.0878 114.414 50.7871 112.965Z" fill="#A9E8CB"/>
<path opacity="0.5" d="M50.7871 112.965C50.7871 112.965 67.6076 104.009 64.8752 107.329C62.1428 110.649 53.0878 114.414 50.7871 112.965Z" fill="white"/>
<path d="M45.5801 75.1276C45.5801 75.1276 45.7003 77.4324 46.0664 79.858C46.4326 82.2835 46.3069 82.2835 48.6021 85.192C50.8973 88.1004 53.3127 90.5315 53.6734 90.0486" stroke="#443D78" stroke-width="0.57984" stroke-miterlimit="10" stroke-linecap="round"/>
<path d="M53.7928 89.198C53.7928 89.198 54.0332 84.9505 53.1917 82.1628C52.3501 79.3751 51.1369 78.3983 51.1369 77.7727C51.0961 77.1208 51.0158 76.4721 50.8965 75.83" stroke="#443D78" stroke-width="0.57984" stroke-miterlimit="10" stroke-linecap="round"/>
<path d="M45.5797 78.6452C44.6144 79.518 43.9392 80.6673 43.6452 81.9378C43.2845 83.875 42.9238 86.1798 42.9238 86.1798L46.6672 93.7034C46.9931 92.3933 47.4795 91.1288 48.1153 89.9389C48.4302 89.3516 48.8381 88.8197 49.323 88.3639" stroke="#443D78" stroke-width="0.57984" stroke-miterlimit="10" stroke-linecap="round"/>
<path d="M54.6402 87.1347C54.9044 87.0682 55.1793 87.0553 55.4486 87.0968C55.7179 87.1382 55.9762 87.2332 56.2085 87.3761C57.1758 87.8645 59.1103 90.4108 59.1103 90.4108C59.1103 90.4108 57.7824 84.1 55.4872 80.8293C53.192 77.5587 51.6182 77.7946 51.6182 77.7946" stroke="#443D78" stroke-width="0.57984" stroke-miterlimit="10" stroke-linecap="round"/>
<path d="M42.558 83.3756L30.9618 87.8535C30.9618 87.8535 26.7375 111.022 25.1637 117.207C23.5899 123.392 20.9395 140.864 20.9395 140.864L24.0762 141.468L25.1692 138.318" stroke="#443D78" stroke-width="0.546668" stroke-linecap="round" stroke-linejoin="round"/>
<path d="M25.7695 136.507C25.7695 136.507 26.4909 135.41 28.4254 129.373C30.3599 123.337 35.5296 108.52 36.3985 105.595C37.2674 102.67 37.9668 100.744 37.9668 100.744" stroke="#443D78" stroke-width="0.57984" stroke-miterlimit="10" stroke-linecap="round"/>
<path d="M35.9121 97.1826C35.9121 97.1826 45.694 114.743 46.541 115.5C47.3881 116.258 46.1804 118.288 45.9344 119.38" stroke="#443D78" stroke-width="0.57984" stroke-miterlimit="10" stroke-linecap="round"/>
<path d="M44.8526 121.586L41.7158 128.138C41.7158 128.138 43.7706 131.294 52.465 131.294C57.6391 131.31 62.7392 130.059 67.3236 127.65C67.3236 127.65 65.2689 116.735 65.3891 114.792C65.5093 112.85 65.7552 107.757 65.7552 107.757C65.7552 107.757 67.9411 104.465 67.6843 101.935C67.4274 99.405 66.3564 96.4746 66.3564 95.9917C66.3564 95.5088 66.1159 90.29 66.1159 90.29" stroke="#443D78" stroke-width="0.57984" stroke-miterlimit="10" stroke-linecap="round"/>
<path d="M52.4492 110.803L61.1054 105.469" stroke="#443D78" stroke-width="0.28992" stroke-miterlimit="10" stroke-linecap="round"/>
<path d="M57.0059 109.129L61.711 106.385" stroke="#443D78" stroke-width="0.28992" stroke-miterlimit="10" stroke-linecap="round"/>
<path d="M82.9103 98.5381L81.1445 102.879" stroke="#443D78" stroke-width="0.28992" stroke-miterlimit="10" stroke-linecap="round"/>
<path d="M82.2044 100.437L80.5371 102.116" stroke="#443D78" stroke-width="0.28992" stroke-miterlimit="10" stroke-linecap="round"/>
<path d="M32.863 115.841C32.863 115.841 29.9777 119.194 28.0049 120.566" stroke="#443D78" stroke-width="0.28992" stroke-miterlimit="10" stroke-linecap="round"/>
<path d="M31.196 116.752C31.196 116.752 26.1849 120.714 24.9717 121.63" stroke="#443D78" stroke-width="0.28992" stroke-miterlimit="10" stroke-linecap="round"/>
<path d="M32.0869 88.545C33.5975 90.6899 34.9666 92.9319 36.1855 95.2565" stroke="#443D78" stroke-width="0.28992" stroke-miterlimit="10" stroke-linecap="round"/>
<path d="M36.6611 96.321L37.7217 98.1484" stroke="#443D78" stroke-width="0.28992" stroke-miterlimit="10" stroke-linecap="round"/>
<path d="M66.3564 95.9917L67.6848 89.198" stroke="#443D78" stroke-width="0.28992" stroke-miterlimit="10" stroke-linecap="round"/>
<path d="M66.8428 96.4746L68.8921 93.5662" stroke="#443D78" stroke-width="0.28992" stroke-miterlimit="10" stroke-linecap="round"/>
<path d="M37.967 100.722L32.1689 97.5667" stroke="#443D78" stroke-width="0.28992" stroke-miterlimit="10" stroke-linecap="round"/>
<path d="M53.5527 90.6523C53.5527 90.6523 55.7386 95.0424 56.4545 98.1759" stroke="#443D78" stroke-width="0.28992" stroke-miterlimit="10" stroke-linecap="round"/>
<path d="M89.4287 83.008C90.0069 82.9651 90.5877 83.0403 91.1362 83.229C91.6847 83.4177 92.1895 83.716 92.6201 84.106" stroke="#443D78" stroke-width="0.28992" stroke-miterlimit="10" stroke-linecap="round"/>
<path d="M23.0371 137.852L24.535 138.412" stroke="#443D78" stroke-width="0.28992" stroke-miterlimit="10" stroke-linecap="round"/>
<path d="M20.9009 141.084C20.9197 143.17 20.8102 145.256 20.573 147.329C20.2123 149.881 20.3325 155.703 20.8134 157.52C21.2943 159.336 21.5403 159.715 22.0212 158.617C22.502 157.52 23.9557 151.099 23.9557 151.099C23.9557 151.099 24.1961 155.341 25.2836 154.979C26.3711 154.617 25.77 152.553 25.77 150.731C25.77 148.909 25.8902 148.306 25.77 146.852C25.6497 145.397 24.0376 141.803 24.0376 141.803" fill="white"/>
<path d="M20.9009 141.084C20.9197 143.17 20.8102 145.256 20.573 147.329C20.2123 149.881 20.3325 155.703 20.8134 157.52C21.2943 159.336 21.5403 159.715 22.0212 158.617C22.502 157.52 23.9557 151.099 23.9557 151.099C23.9557 151.099 24.1961 155.341 25.2836 154.979C26.3711 154.617 25.77 152.553 25.77 150.731C25.77 148.909 25.8902 148.306 25.77 146.852C25.6497 145.397 24.0376 141.803 24.0376 141.803" stroke="#443D78" stroke-width="0.546668" stroke-miterlimit="10" stroke-linecap="round"/>
<path d="M90.839 79.0294C90.7841 77.9563 90.7841 76.8811 90.839 75.8081C90.9374 74.7984 90.5385 73.2893 90.6368 71.9667C90.7352 70.6442 92.0413 70.1558 91.8391 68.4436C91.6369 66.7315 91.2379 66.5284 91.5385 66.1278C91.8391 65.7272 93.7244 66.3254 93.8446 67.4339C93.9517 68.5746 93.9517 69.723 93.8446 70.8637C93.7463 71.1655 94.4458 73.0588 94.0468 73.8819C93.8183 74.3278 93.6492 74.802 93.5441 75.2923" stroke="#443D78" stroke-width="0.481529" stroke-miterlimit="10" stroke-linecap="round"/>
<path d="M94.248 67.3461C94.248 67.3461 96.5542 62.7145 97.8602 62.6102C99.1663 62.5059 98.7619 63.7077 98.3575 64.3224C97.9531 64.937 96.6525 67.143 96.5542 68.054C96.4558 68.9649 95.2481 71.9777 95.2481 71.9777" stroke="#443D78" stroke-width="0.481529" stroke-miterlimit="10" stroke-linecap="round"/>
<path d="M96.5707 68.054C96.5707 68.054 100.085 70.1668 99.3031 71.8954C98.5217 73.624 98.0954 74.3155 97.4943 74.0905C96.9613 73.817 96.4848 73.4446 96.0898 72.9929" stroke="#443D78" stroke-width="0.481529" stroke-miterlimit="10" stroke-linecap="round"/>
<path d="M97.8604 74.096C97.8604 74.096 96.9532 75.6051 96.2537 76.516C95.8515 77.0422 95.3746 77.5062 94.8384 77.8935L94.4121 79.3806" stroke="#443D78" stroke-width="0.481529" stroke-miterlimit="10" stroke-linecap="round"/>
<path d="M55.7266 81.4329C55.7266 81.4329 64.0603 81.3122 65.1478 82.6457C66.2353 83.9792 79.4053 96.1124 80.9955 97.2045C82.5858 98.2965 82.9301 98.538 82.9301 98.538C82.9301 98.538 89.4495 83.7213 89.4495 83.0079C89.4495 82.2945 90.5425 79.0074 90.5425 79.0074C90.5425 79.0074 92.5972 79.2488 93.0836 79.2488C93.5699 79.2488 94.8924 80.8293 94.8924 80.8293C94.8924 80.8293 93.0836 88.2267 93.0836 89.0608C93.0836 89.8949 89.7009 101.435 88.127 104.975C86.5532 108.515 84.3837 108.004 80.8808 106.912C77.3779 105.82 67.8364 100.365 67.8364 100.365" stroke="#443D78" stroke-width="0.57984" stroke-miterlimit="10" stroke-linecap="round"/>
<path d="M41.716 128.139C41.716 128.139 36.8797 140.288 35.5737 148.558C34.2676 156.828 34.825 176.167 34.4479 178.236C34.0709 180.304 28.8356 190.067 28.8356 194.764C28.8356 199.462 26.0322 223.69 26.0322 223.69L27.9012 224.815C27.9012 224.815 34.4589 204.511 36.8797 199.27C39.3006 194.029 42.6778 181.616 43.6123 179.174C44.5468 176.732 51.099 157.196 51.4706 154.754C51.8422 152.312 54.0882 146.303 54.0882 146.303C54.0882 146.303 58.9518 176.167 59.8863 182.368C60.8208 188.569 67.3675 222.186 67.3675 222.186C67.7975 222.292 68.2368 222.354 68.6791 222.373C69.2256 222.373 69.4278 221.435 69.4278 221.435C69.4278 221.435 72.0454 197.58 71.2967 191.192C70.548 184.804 68.3075 176.924 68.3075 174.663C68.3075 172.402 71.6738 152.877 71.6738 146.127C71.6738 139.377 67.302 127.661 67.302 127.661C67.302 127.661 51.7876 135.52 41.716 128.139Z" fill="#443D78"/>
<path d="M68.2366 175.903C68.2366 175.903 66.5698 183.07 64.291 186.879" stroke="white" stroke-width="0.28992" stroke-miterlimit="10" stroke-linecap="round"/>
<path d="M67.7831 183.224C67.7831 183.224 66.4169 188.404 63.6846 190.846" stroke="white" stroke-width="0.28992" stroke-miterlimit="10" stroke-linecap="round"/>
<path d="M35.4482 180.935C35.4482 180.935 36.5084 187.186 37.7216 189.776" stroke="white" stroke-width="0.28992" stroke-miterlimit="10" stroke-linecap="round"/>
<path d="M35.1426 184.596C35.1426 184.596 36.0552 189.019 37.7219 191.609" stroke="white" stroke-width="0.28992" stroke-miterlimit="10" stroke-linecap="round"/>
<path d="M54.5742 146.33L60.6455 141.298" stroke="white" stroke-width="0.28992" stroke-miterlimit="10" stroke-linecap="round"/>
<path d="M57.46 144.195L64.5969 140.991" stroke="white" stroke-width="0.28992" stroke-miterlimit="10" stroke-linecap="round"/>
<path d="M41.8203 135.657C41.8203 135.657 46.5309 138.702 49.2633 141.298" stroke="white" stroke-width="0.28992" stroke-miterlimit="10" stroke-linecap="round"/>
<path d="M26.2292 223.674C26.2292 223.674 19.125 229.71 19.125 232.706C19.125 235.702 21.9284 235.521 24.9231 232.706C27.9178 229.891 28.0708 224.091 28.0708 224.091L26.2292 223.674Z" fill="white" stroke="#443D78" stroke-width="0.57984" stroke-miterlimit="10" stroke-linecap="round"/>
<path d="M67.3672 222.186C67.3672 222.186 69.799 228.195 72.4221 230.829C75.0452 233.463 76.537 234.396 76.537 231.576C76.537 228.755 74.8539 225.567 69.4329 221.435C69.4274 221.435 70.9247 222.559 67.3672 222.186Z" fill="white" stroke="#443D78" stroke-width="0.57984" stroke-miterlimit="10" stroke-linecap="round"/>
<path d="M42.2732 55.8604C41.7868 55.6793 41.3278 55.4598 40.8523 55.2568C40.3769 55.0537 39.508 54.944 39.1801 56.4421C38.6937 58.6372 42.0764 60.4481 40.9889 62.2645C40.3124 63.3695 39.2956 64.223 38.0926 64.6955C37.8968 64.7632 37.6927 64.8038 37.486 64.8163C36.5188 64.937 34.9504 64.8163 35.4313 66.512C35.9122 68.2077 37.486 69.6674 38.4533 69.6674H39.4206C39.4206 69.6674 40.5135 72.96 44.6121 74.7599C48.7106 76.5599 51.4976 76.4611 52.4649 74.1563C53.4322 71.8515 54.159 69.9088 54.159 66.8742C54.159 63.8395 53.066 58.7469 53.066 58.7469C53.066 58.7469 52.0988 60.0859 48.3554 58.3847C45.8799 57.2598 43.5628 56.3488 42.2732 55.8604Z" fill="white"/>
<mask id="mask1_686_3681" style="mask-type:luminance" maskUnits="userSpaceOnUse" x="35" y="55" width="20" height="22">
<path d="M42.2741 55.8604C41.7878 55.6793 41.3287 55.4598 40.8533 55.2568C40.3779 55.0537 39.509 54.944 39.1811 56.4421C38.6947 58.6372 42.0774 60.4481 40.9899 62.2645C40.3134 63.3695 39.2966 64.223 38.0936 64.6955C37.8978 64.7632 37.6937 64.8038 37.487 64.8163C36.5198 64.937 34.9514 64.8163 35.4323 66.512C35.9132 68.2077 37.487 69.6674 38.4543 69.6674H39.4215C39.4215 69.6674 40.5145 72.96 44.613 74.7599C48.7116 76.5599 51.4986 76.4611 52.4659 74.1563C53.4331 71.8515 54.16 69.9088 54.16 66.8742C54.16 63.8395 53.067 58.7469 53.067 58.7469C53.067 58.7469 52.0997 60.0859 48.3564 58.3847C45.8809 57.2598 43.5638 56.3488 42.2741 55.8604Z" fill="white"/>
</mask>
<g mask="url(#mask1_686_3681)">
<g style="mix-blend-mode:multiply" opacity="0.5">
<path d="M48.361 58.3847C48.361 58.3847 42.5848 58.0609 41.7213 58.2036C40.8579 58.3463 41.8634 60.9474 41.5793 63.5486C41.2951 66.1497 41.4317 70.3423 42.5848 71.6429C43.9454 72.9839 45.3872 74.2393 46.9019 75.402C46.9019 75.402 42.47 74.6831 40.8579 72.8008C39.2458 70.9185 38.989 69.9088 38.989 69.9088C38.989 69.9088 35.2456 67.7137 34.956 66.0071C34.6664 64.3004 37.1419 65.2059 38.3277 64.3608C38.9944 63.8998 41.7541 63.0327 41.0601 60.7224C40.3661 58.4121 39.2458 57.9786 39.2021 56.4311C39.1693 55.3335 40.1311 55.0152 40.7213 54.9165C40.9874 54.8715 41.2608 54.9118 41.5027 55.0317L48.361 58.3847Z" fill="#A9E8CB"/>
</g>
</g>
<path d="M42.2732 55.8604C41.7868 55.6793 41.3278 55.4598 40.8523 55.2568C40.3769 55.0537 39.508 54.944 39.1801 56.4421C38.6937 58.6372 42.0764 60.4481 40.9889 62.2645C40.3124 63.3695 39.2956 64.223 38.0926 64.6955C37.8968 64.7632 37.6927 64.8038 37.486 64.8163C36.5188 64.937 34.9504 64.8163 35.4313 66.512C35.9122 68.2077 37.486 69.6674 38.4533 69.6674H39.4206C39.4206 69.6674 40.5135 72.96 44.6121 74.7599C48.7106 76.5599 51.4976 76.4611 52.4649 74.1563C53.4322 71.8515 54.159 69.9088 54.159 66.8742C54.159 63.8395 53.066 58.7469 53.066 58.7469C53.066 58.7469 52.0988 60.0859 48.3554 58.3847C45.8799 57.2598 43.5628 56.3488 42.2732 55.8604Z" stroke="#443D78" stroke-width="0.57984" stroke-miterlimit="10" stroke-linecap="round"/>
<path d="M46.5422 63.0493C46.6187 63.5103 46.493 63.9164 46.2579 63.9548C46.0228 63.9932 45.7823 63.6475 45.7112 63.1865C45.6402 62.7255 45.7659 62.314 45.9955 62.2756C46.2251 62.2371 46.4656 62.6103 46.5422 63.0493Z" fill="#443D78"/>
<path d="M51.5417 62.2097C51.6128 62.6706 51.4871 63.0767 51.2575 63.1151C51.0279 63.1535 50.7819 62.8078 50.7108 62.3469C50.6397 61.8859 50.76 61.4798 50.9896 61.4414C51.2192 61.403 51.4652 61.7487 51.5417 62.2097Z" fill="#443D78"/>
<path d="M43.6455 60.8109C43.9513 60.3543 44.366 59.9819 44.8519 59.7278C45.3378 59.4736 45.8794 59.3458 46.4271 59.3561" stroke="#443D78" stroke-width="0.57984" stroke-miterlimit="10" stroke-linecap="round"/>
<path d="M50.1699 59.7183C50.6341 59.5553 51.1367 59.5379 51.6109 59.6683C52.0852 59.7987 52.5089 60.0708 52.8258 60.4485" stroke="#443D78" stroke-width="0.57984" stroke-miterlimit="10" stroke-linecap="round"/>
<path d="M49.6898 61.7816C49.623 62.5484 49.623 63.3196 49.6898 64.0864C49.8101 65.0577 50.5317 65.2992 50.2911 66.0291C50.0506 66.7589 49.083 66.7534 49.083 66.7534" stroke="#443D78" stroke-width="0.57984" stroke-miterlimit="10" stroke-linecap="round"/>
<path d="M47.8744 69.6677C47.4605 69.7659 47.0304 69.7731 46.6135 69.6887C46.1966 69.6044 45.8028 69.4305 45.459 69.179" stroke="#443D78" stroke-width="0.57984" stroke-miterlimit="10" stroke-linecap="round"/>
</g>
<defs>
<clipPath id="clip0_686_3681">
<rect width="304" height="235" fill="white"/>
</clipPath>
</defs>
</svg>
