<svg width="304" height="235" viewBox="0 0 304 235" fill="none" xmlns="http://www.w3.org/2000/svg">
<g clip-path="url(#clip0_824_17542)">
<path d="M76.0156 36.9732C76.0156 36.9732 45.7685 65.6905 51.5397 105.533C57.3109 145.376 92.7026 176.146 120.556 201.749C148.409 227.352 187.949 230.868 216.473 211.273C244.997 191.679 229.589 166.898 245.705 131.569C261.822 96.241 272.331 88.7572 263.683 52.1982C255.036 15.6393 203.27 -7.45884 151.743 2.20358C100.216 11.866 76.0156 36.9732 76.0156 36.9732Z" fill="#A9E8CB"/>
<path opacity="0.7" d="M76.0156 36.9732C76.0156 36.9732 45.7685 65.6905 51.5397 105.533C57.3109 145.376 92.7026 176.146 120.556 201.749C148.409 227.352 187.949 230.868 216.473 211.273C244.997 191.679 229.589 166.898 245.705 131.569C261.822 96.241 272.331 88.7572 263.683 52.1982C255.036 15.6393 203.27 -7.45884 151.743 2.20358C100.216 11.866 76.0156 36.9732 76.0156 36.9732Z" fill="white"/>
<path d="M206.347 30.8332H161.092L161.549 24.222H206.804L206.347 30.8332Z" fill="#CCCCCC"/>
<path d="M206.347 40.0939H161.092L161.549 33.4828H206.804L206.347 40.0939Z" fill="#CCCCCC"/>
<path d="M206.347 49.3609H161.092L161.549 42.7435H206.804L206.347 49.3609Z" fill="#CCCCCC"/>
<path d="M206.347 58.6214H161.092L161.549 52.004H206.804L206.347 58.6214Z" fill="#CCCCCC"/>
<path d="M206.347 67.8821H161.092L161.549 61.2647H206.804L206.347 67.8821Z" fill="#CCCCCC"/>
<path d="M206.347 77.1424H161.092L161.549 70.5313H206.804L206.347 77.1424Z" fill="#CCCCCC"/>
<path d="M206.347 86.4031H161.092L161.549 79.792H206.804L206.347 86.4031Z" fill="#CCCCCC"/>
<path d="M206.347 95.67H161.092L161.549 89.0526H206.804L206.347 95.67Z" fill="#CCCCCC"/>
<path d="M206.347 104.931H161.092L161.549 98.3132H206.804L206.347 104.931Z" fill="#CCCCCC"/>
<path d="M206.347 114.191H161.092L161.549 107.574H206.804L206.347 114.191Z" fill="#CCCCCC"/>
<path d="M206.347 123.452H161.092L161.549 116.835H206.804L206.347 123.452Z" fill="#CCCCCC"/>
<path d="M254.201 30.8332H208.94L209.398 24.222H254.659L254.201 30.8332Z" fill="#CCCCCC"/>
<path d="M254.201 40.0939H208.94L209.398 33.4828H254.659L254.201 40.0939Z" fill="#CCCCCC"/>
<path d="M254.201 49.3609H208.94L209.398 42.7435H254.659L254.201 49.3609Z" fill="#CCCCCC"/>
<path d="M254.201 58.6214H208.94L209.398 52.004H254.659L254.201 58.6214Z" fill="#CCCCCC"/>
<path d="M254.201 67.882H208.94L209.398 61.2646H254.659L254.201 67.882Z" fill="#CCCCCC"/>
<path d="M254.201 77.1425H208.94L209.398 70.5314H254.659L254.201 77.1425Z" fill="#CCCCCC"/>
<path d="M254.201 86.4031H208.94L209.398 79.792H254.659L254.201 86.4031Z" fill="#CCCCCC"/>
<path d="M254.201 95.6699H208.94L209.398 89.0525H254.659L254.201 95.6699Z" fill="#CCCCCC"/>
<path d="M254.201 104.931H208.94L209.398 98.3132H254.659L254.201 104.931Z" fill="#CCCCCC"/>
<path d="M254.201 114.191H208.94L209.398 107.574H254.659L254.201 114.191Z" fill="#CCCCCC"/>
<path d="M254.201 123.452H208.94L209.398 116.835H254.659L254.201 123.452Z" fill="#CCCCCC"/>
<path d="M154.742 23.8574H61.2373V104.233H154.742V23.8574Z" fill="#A9E8CB"/>
<path d="M150.06 27.8755H65.9111V100.215H150.06V27.8755Z" fill="white"/>
<mask id="mask0_824_17542" style="mask-type:luminance" maskUnits="userSpaceOnUse" x="65" y="27" width="86" height="74">
<path d="M150.058 27.8745H65.9092V100.214H150.058V27.8745Z" fill="white"/>
</mask>
<g mask="url(#mask0_824_17542)">
<path d="M150.058 49.8049C134.926 60.5912 113.251 67.7485 88.1042 78.9931C80.1805 82.4792 72.724 86.9466 65.9092 92.2907V100.22H150.058V49.8049Z" fill="#A9E8CB"/>
<path d="M150.059 27.8745H116.29C112.531 31.0953 108.088 34.6928 102.837 38.5477C83.6181 52.6678 91.946 66.8004 115.012 56.5164C126.849 51.2489 140.027 39.05 150.059 28.4207V27.8745Z" fill="#A9E8CB"/>
<path d="M80.4477 35.9864C80.4477 30.091 73.1225 34.7307 65.9414 40.6575V55.5435C72.9283 48.675 80.4477 41.2602 80.4477 35.9864Z" fill="#A9E8CB"/>
<path d="M87.4648 59.4172C87.4648 60.7508 87.0701 62.0545 86.3306 63.1634C85.5911 64.2722 84.54 65.1365 83.3103 65.6469C82.0805 66.1572 80.7274 66.2907 79.4219 66.0306C78.1164 65.7704 76.9172 65.1282 75.976 64.1852C75.0348 63.2421 74.3939 62.0407 74.1342 60.7327C73.8745 59.4247 74.0078 58.0689 74.5172 56.8367C75.0265 55.6046 75.8891 54.5515 76.9959 53.8106C78.1026 53.0697 79.4038 52.6742 80.7348 52.6742C82.5197 52.6742 84.2315 53.3846 85.4936 54.6492C86.7557 55.9137 87.4648 57.6288 87.4648 59.4172Z" fill="#A9E8CB"/>
<path opacity="0.75" d="M150.058 49.8049C134.926 60.5912 113.251 67.7485 88.1042 78.9931C80.1805 82.4792 72.724 86.9466 65.9092 92.2907V100.22H150.058V49.8049Z" fill="white"/>
<path opacity="0.75" d="M150.059 27.8745H116.29C112.531 31.0953 108.088 34.6928 102.837 38.5477C83.6181 52.6678 91.946 66.8004 115.012 56.5164C126.849 51.2489 140.027 39.05 150.059 28.4207V27.8745Z" fill="white"/>
<g opacity="0.75">
<path d="M80.4487 35.9856C80.4487 30.0903 73.1235 34.73 65.9424 40.6568V55.5428C72.9292 48.6742 80.4487 41.2595 80.4487 35.9856Z" fill="white"/>
</g>
<path opacity="0.75" d="M87.4648 59.4172C87.4648 60.7508 87.0701 62.0545 86.3306 63.1634C85.5911 64.2722 84.54 65.1365 83.3103 65.6469C82.0805 66.1572 80.7274 66.2907 79.4219 66.0306C78.1164 65.7704 76.9172 65.1282 75.976 64.1852C75.0348 63.2421 74.3939 62.0407 74.1342 60.7327C73.8745 59.4247 74.0078 58.0689 74.5172 56.8367C75.0265 55.6046 75.8891 54.5515 76.9959 53.8106C78.1026 53.0697 79.4038 52.6742 80.7348 52.6742C82.5197 52.6742 84.2315 53.3846 85.4936 54.6492C86.7557 55.9137 87.4648 57.6288 87.4648 59.4172Z" fill="white"/>
</g>
<path d="M135.518 80.9218C135.518 82.7002 134.991 84.4387 134.005 85.9174C133.019 87.396 131.617 88.5483 129.977 89.2286C128.337 89.9089 126.532 90.0866 124.792 89.7392C123.051 89.3918 121.452 88.5349 120.197 87.2769C118.943 86.0189 118.088 84.4163 117.743 82.6719C117.397 80.9275 117.576 79.1196 118.256 77.4769C118.936 75.8342 120.087 74.4304 121.564 73.4433C123.04 72.4561 124.776 71.9299 126.551 71.9312C127.729 71.9312 128.895 72.1637 129.984 72.6156C131.072 73.0675 132.061 73.7299 132.894 74.5648C133.726 75.3998 134.387 76.3909 134.837 77.4817C135.287 78.5724 135.519 79.7414 135.518 80.9218Z" fill="white"/>
<path d="M262.01 189.531C260.383 191.421 259.285 193.709 258.827 196.161L252.441 199.746V182.795L252.567 182.964L262.737 175.505C264.021 175.706 268.959 176.271 273.458 173.842C278.684 171.023 282.5 161.366 282.5 161.366C282.5 161.366 270.043 159.954 265.826 165.19C262.405 169.434 262.285 173.547 262.367 174.947L252.441 182.223V169.698C254.3 168.831 255.943 167.56 257.251 165.978C258.56 164.396 259.5 162.542 260.005 160.55C261.809 153.506 252.172 139.625 252.172 139.625C252.172 139.625 242.146 153.914 244.132 161.159C245.837 167.293 250.398 169.24 251.771 169.692V196.846L244.627 190.862C244.79 189.431 244.922 184.954 240.943 180.472C236.118 175.035 223.266 175.449 223.266 175.449C223.266 175.449 228.686 186.317 233.292 189.939C237.327 193.079 242.898 191.823 244.239 191.44L251.758 197.718V205.974H240.573L245.141 234.579H258.845L263.426 205.981H252.441V200.518L259.459 196.576C261.164 197.053 265.932 198.032 270.444 195.772C276.084 192.953 280.689 186.913 280.689 186.913C280.689 186.913 267.236 183.491 262.01 189.531Z" fill="#A9E8CB"/>
<path opacity="0.5" d="M262.01 189.531C260.383 191.421 259.285 193.709 258.827 196.161L252.441 199.746V182.795L252.567 182.964L262.737 175.505C264.021 175.706 268.959 176.271 273.458 173.842C278.684 171.023 282.5 161.366 282.5 161.366C282.5 161.366 270.043 159.954 265.826 165.19C262.405 169.434 262.285 173.547 262.367 174.947L252.441 182.223V169.698C254.3 168.831 255.943 167.56 257.251 165.978C258.56 164.396 259.5 162.542 260.005 160.55C261.809 153.506 252.172 139.625 252.172 139.625C252.172 139.625 242.146 153.914 244.132 161.159C245.837 167.293 250.398 169.24 251.771 169.692V196.846L244.627 190.862C244.79 189.431 244.922 184.954 240.943 180.472C236.118 175.035 223.266 175.449 223.266 175.449C223.266 175.449 228.686 186.317 233.292 189.939C237.327 193.079 242.898 191.823 244.239 191.44L251.758 197.718V205.974H240.573L245.141 234.579H258.845L263.426 205.981H252.441V200.518L259.459 196.576C261.164 197.053 265.932 198.032 270.444 195.772C276.084 192.953 280.689 186.913 280.689 186.913C280.689 186.913 267.236 183.491 262.01 189.531Z" fill="white"/>
<path d="M249.347 103.11L230.905 103.267C230.905 103.267 229.652 103.11 229.383 104.027C229.383 104.027 226.181 112.126 226.03 115.027C225.88 117.927 226.657 117.469 225.404 121.305C224.15 125.141 220.679 134.132 218.699 141.465C216.036 151.315 215.34 161.775 215.171 171.946C215.171 173.579 214.168 187.642 216.706 187.642C218.812 187.642 238.218 190.223 238.45 186.474C239.384 171.532 236.689 156.935 241.865 142.406C243.877 136.756 246.183 130.804 247.893 124.902C249.604 119.001 249.898 112.86 251.026 106.821C251.785 102.652 249.347 103.11 249.347 103.11Z" fill="#443D78"/>
<path d="M251.159 104.943C250.977 102.809 249.348 103.11 249.348 103.11L230.906 103.267C230.906 103.267 229.653 103.11 229.383 104.027C229.383 104.027 226.181 112.126 226.031 115.026C225.986 115.793 226.007 116.561 226.094 117.324L226.482 117.952C226.482 117.952 227.109 123.295 234.409 123.602C241.709 123.91 245.845 120.545 247.368 117.324C248.89 114.103 249.504 108.924 250.72 105.866C250.851 105.551 250.997 105.243 251.159 104.943Z" fill="#A9E8CB"/>
<path d="M246.88 110.908C245.626 115.372 246.385 116.608 245.15 124.293C243.916 131.978 239.46 140.617 237.725 148.584C235.989 156.551 236.741 184.522 236.985 185.765C237.082 186.423 237.118 187.09 237.092 187.755C237.925 187.441 238.426 187.014 238.464 186.43C239.398 171.488 236.703 156.89 241.879 142.362C243.891 136.712 246.197 130.76 247.907 124.858C249.618 118.957 249.912 112.816 251.04 106.776C251.51 104.265 250.771 103.443 250.125 103.198C248.724 105.621 247.633 108.211 246.88 110.908Z" fill="#A9E8CB"/>
<path d="M211.255 223.686L211.13 223.586V206.333H213.605V195.427H204.457V206.333H206.925V223.881L185.031 230.875V232.608C185.031 233.134 185.24 233.639 185.611 234.011C185.983 234.383 186.486 234.592 187.011 234.592C187.537 234.592 188.04 234.383 188.412 234.011C188.783 233.639 188.991 233.134 188.991 232.608V232.363L207.301 230.228V232.859C207.301 233.319 207.484 233.759 207.808 234.084C208.132 234.409 208.572 234.592 209.031 234.592C209.49 234.592 209.93 234.409 210.254 234.084C210.578 233.759 210.76 233.319 210.76 232.859V230.14L229.81 232.363V232.608C229.81 233.134 230.018 233.639 230.39 234.011C230.761 234.383 231.265 234.592 231.79 234.592C232.315 234.592 232.819 234.383 233.19 234.011C233.561 233.639 233.77 233.134 233.77 232.608V230.875L211.255 223.686Z" fill="#443D78"/>
<path d="M237.36 184.792H182.988C181.604 184.792 180.481 185.916 180.481 187.303V194.931C180.481 196.318 181.604 197.442 182.988 197.442H237.36C238.744 197.442 239.867 196.318 239.867 194.931V187.303C239.867 185.916 238.744 184.792 237.36 184.792Z" fill="#443D78"/>
<path d="M23.3314 103.11L41.773 103.267C41.773 103.267 43.0262 103.11 43.3019 104.027C43.3019 104.027 46.504 112.126 46.6544 115.027C46.8047 117.927 46.0277 117.469 47.281 121.305C48.5342 125.141 52.0057 134.132 53.9859 141.465C56.6553 151.316 57.3446 161.775 57.5137 171.946C57.5137 173.579 58.5163 187.642 55.9785 187.642C53.8793 187.642 34.4728 190.223 34.2347 186.474C33.3073 171.532 35.9955 156.935 30.8196 142.407C28.8081 136.756 26.5021 130.804 24.7977 124.902C23.0933 119.001 22.7925 112.861 21.6646 106.821C20.9252 102.652 23.3314 103.11 23.3314 103.11Z" fill="#443D78"/>
<path d="M21.5518 104.943C21.7335 102.809 23.3564 103.11 23.3564 103.11L41.798 103.267C41.798 103.267 43.0512 103.11 43.3269 104.027C43.3269 104.027 46.529 112.126 46.6794 115.026C46.7202 115.793 46.6971 116.561 46.6104 117.324L46.2219 117.952C46.2219 117.952 45.5953 123.295 38.2951 123.603C30.995 123.91 26.8405 120.545 25.3115 117.318C23.7825 114.091 23.181 108.917 21.9591 105.86C21.8412 105.547 21.7052 105.241 21.5518 104.943Z" fill="#A9E8CB"/>
<path d="M25.7997 110.908C27.053 115.372 26.2948 116.608 27.5292 124.293C28.7637 131.978 33.2252 140.617 34.9547 148.584C36.6842 156.551 35.9636 184.522 35.6941 185.765C35.6002 186.424 35.5646 187.09 35.5876 187.755C34.7605 187.441 34.2529 187.014 34.2153 186.43C33.2879 171.488 35.9761 156.89 30.8002 142.362C28.7887 136.712 26.4828 130.76 24.7784 124.858C23.0739 118.957 22.7732 112.816 21.6452 106.777C21.1815 104.265 21.9209 103.443 22.5601 103.198C23.9624 105.62 25.0511 108.21 25.7997 110.908Z" fill="#A9E8CB"/>
<path d="M61.4234 223.686L61.5487 223.586V206.333H59.0422V195.427H68.1972V206.333H65.722V223.881L87.6163 230.875V232.608C87.6163 233.134 87.4077 233.639 87.0363 234.011C86.665 234.383 86.1613 234.592 85.6361 234.592C85.111 234.592 84.6073 234.383 84.236 234.011C83.8646 233.639 83.656 233.134 83.656 232.608V232.363L65.415 230.228V232.859C65.3884 233.301 65.1943 233.717 64.8723 234.021C64.5503 234.324 64.1247 234.494 63.6824 234.494C63.2401 234.494 62.8145 234.324 62.4925 234.021C62.1704 233.717 61.9763 233.301 61.9498 232.859V230.14L42.8565 232.363V232.608C42.8717 232.877 42.8318 233.147 42.7393 233.401C42.6468 233.654 42.5036 233.886 42.3185 234.082C42.1335 234.278 41.9104 234.435 41.663 234.541C41.4155 234.648 41.149 234.703 40.8795 234.703C40.6101 234.703 40.3436 234.648 40.0961 234.541C39.8487 234.435 39.6256 234.278 39.4406 234.082C39.2555 233.886 39.1123 233.654 39.0198 233.401C38.9273 233.147 38.8874 232.877 38.9025 232.608V230.875L61.4234 223.686Z" fill="#443D78"/>
<path d="M35.3176 197.437H89.6898C91.0741 197.437 92.1963 196.312 92.1963 194.925V187.297C92.1963 185.91 91.0741 184.786 89.6898 184.786H35.3176C33.9333 184.786 32.8111 185.91 32.8111 187.297V194.925C32.8111 196.312 33.9333 197.437 35.3176 197.437Z" fill="#443D78"/>
<path d="M226.457 149.263H77.5713V235H226.457V149.263Z" fill="#CCCCCC"/>
<path d="M226.345 151.322H77.6475V153.695H226.345V151.322Z" fill="#443D78"/>
<path d="M227.561 147.856H74.2578V151.604H227.561V147.856Z" fill="#CCCCCC"/>
<path d="M117.209 140.409C117.209 140.409 118.964 148.264 118.864 150.455C118.763 152.646 114.634 158.516 114.527 157.173C114.562 156.034 114.809 154.912 115.254 153.864C115.254 153.864 113.807 155.829 113.293 155.747C112.779 155.666 113.707 152.954 113.707 152.954C113.707 152.954 112.159 154.504 111.639 154.209C111.119 153.914 112.773 151.623 112.773 151.623C112.773 151.623 110.893 153.588 110.818 152.966C110.743 152.345 112.466 149.764 112.466 149.764C112.466 149.764 110.711 146.041 110.586 144.49C110.597 143.407 110.958 142.357 111.614 141.496L117.209 140.409Z" fill="white"/>
<mask id="mask1_824_17542" style="mask-type:luminance" maskUnits="userSpaceOnUse" x="110" y="140" width="9" height="18">
<path d="M117.21 140.408C117.21 140.408 118.965 148.263 118.865 150.454C118.764 152.645 114.635 158.515 114.528 157.172C114.563 156.033 114.81 154.911 115.255 153.863C115.255 153.863 113.808 155.828 113.294 155.747C112.78 155.665 113.708 152.953 113.708 152.953C113.708 152.953 112.16 154.503 111.64 154.208C111.12 153.913 112.774 151.622 112.774 151.622C112.774 151.622 110.894 153.587 110.819 152.965C110.744 152.344 112.467 149.763 112.467 149.763C112.467 149.763 110.712 146.04 110.587 144.489C110.598 143.406 110.959 142.356 111.615 141.495L117.21 140.408Z" fill="white"/>
</mask>
<g mask="url(#mask1_824_17542)">
<path d="M117.21 140.408C117.21 140.408 118.965 148.263 118.865 150.454C118.764 152.645 114.635 158.515 114.528 157.172C114.563 156.033 114.81 154.911 115.255 153.863C115.255 153.863 113.808 155.828 113.294 155.747C112.78 155.665 113.708 152.953 113.708 152.953C113.708 152.953 112.16 154.503 111.64 154.208C111.12 153.913 112.774 151.622 112.774 151.622C112.774 151.622 110.894 153.587 110.819 152.965C110.744 152.344 112.467 149.763 112.467 149.763C112.467 149.763 110.712 146.04 110.587 144.489C110.598 143.406 110.959 142.356 111.615 141.495L117.21 140.408Z" fill="#D9D9D9"/>
</g>
<path d="M117.209 140.409C117.209 140.409 118.964 148.264 118.864 150.455C118.763 152.646 114.634 158.516 114.527 157.173C114.562 156.034 114.809 154.912 115.254 153.864C115.254 153.864 113.807 155.829 113.293 155.747C112.779 155.666 113.707 152.954 113.707 152.954C113.707 152.954 112.159 154.504 111.639 154.209C111.119 153.914 112.773 151.623 112.773 151.623C112.773 151.623 110.893 153.588 110.818 152.966C110.743 152.345 112.466 149.764 112.466 149.764C112.466 149.764 110.711 146.041 110.586 144.49C110.597 143.407 110.958 142.357 111.614 141.496L117.209 140.409Z" stroke="#443D78" stroke-width="0.567123" stroke-linecap="round" stroke-linejoin="round"/>
<path d="M116.795 140.409C116.795 140.409 118.049 145.89 117.936 147.441C117.823 148.992 116.281 153.537 115.147 152.709C114.013 151.88 115.868 148.785 115.868 148.785C115.868 148.785 112.685 146.543 111.952 144.44C111.218 142.337 111.638 141.445 111.638 141.445L116.795 140.409Z" fill="white"/>
<mask id="mask2_824_17542" style="mask-type:luminance" maskUnits="userSpaceOnUse" x="111" y="140" width="7" height="13">
<path d="M116.792 140.408C116.792 140.408 118.046 145.889 117.933 147.44C117.82 148.991 116.279 153.537 115.144 152.708C114.01 151.879 115.865 148.784 115.865 148.784C115.865 148.784 112.682 146.542 111.949 144.439C111.215 142.336 111.635 141.444 111.635 141.444L116.792 140.408Z" fill="white"/>
</mask>
<g mask="url(#mask2_824_17542)">
<path d="M116.792 140.408C116.792 140.408 118.046 145.889 117.933 147.44C117.82 148.991 116.279 153.537 115.144 152.708C114.01 151.879 115.865 148.784 115.865 148.784C115.865 148.784 112.682 146.542 111.949 144.439C111.215 142.336 111.635 141.444 111.635 141.444L116.792 140.408Z" fill="#D9D9D9"/>
</g>
<path d="M116.795 140.409C116.795 140.409 118.049 145.89 117.936 147.441C117.823 148.992 116.281 153.537 115.147 152.709C114.013 151.88 115.868 148.785 115.868 148.785C115.868 148.785 112.685 146.543 111.952 144.44C111.218 142.337 111.638 141.445 111.638 141.445L116.795 140.409Z" stroke="#443D78" stroke-width="0.567123" stroke-linecap="round" stroke-linejoin="round"/>
<path d="M113.016 114.725L117.408 140.937L111.217 142.337L105.026 122.127L113.016 114.725Z" fill="#443D78" stroke="#443D78" stroke-width="0.567123" stroke-linecap="round" stroke-linejoin="round"/>
<path d="M111.218 127.533C111.218 127.533 111.619 158.749 112.215 167.156C112.81 175.563 110.617 186.769 108.624 189.971C106.631 193.173 97.8336 213.201 98.2347 214.388C98.6357 215.575 100.434 219.191 100.434 220.189V224.389C100.434 224.389 110.416 230.994 111.218 230.994C112.02 230.994 113.017 232.595 111.018 233.801C109.019 235.006 86.6484 235 85.6521 234.196C84.9948 233.605 84.5116 232.845 84.2547 231.999C84.2547 231.999 81.0589 233.198 81.2594 230.197C81.4599 227.196 85.0505 214.388 85.0505 214.388C85.0505 214.388 82.8573 200.375 83.6531 191.371C84.4489 182.368 87.2499 171.557 87.2499 169.36C87.2499 167.162 84.4552 152.546 84.0542 150.148C83.6531 147.749 77.8631 140.937 80.4573 135.538C83.0516 130.139 85.0505 121.525 85.8526 120.928C86.6546 120.332 97.4388 119.924 101.831 120.928C106.224 121.933 111.018 121.926 111.218 127.533Z" fill="#443D78" stroke="#443D78" stroke-width="0.567123" stroke-linecap="round" stroke-linejoin="round"/>
<path d="M91.4171 64.6108C91.4171 64.6108 88.002 67.6747 87.4129 68.7357C86.8239 69.7968 79.6553 80.0368 79.5363 87.3574C79.4172 94.6779 84.8375 116.815 84.8375 116.815L76.6914 137.578L79.0475 138.52L81.3973 135.927V139.819C81.3973 139.819 84.1044 142.293 91.1601 144.647C98.2159 147.002 107.277 144.296 107.277 144.296L109.978 127.068V144.064L113.155 141.941L113.412 113.639C113.412 113.639 116 98.4387 116 94.1757C116 89.9127 108.825 76.5962 105.648 72.7288C102.471 68.8613 97.1757 65.6593 95.6217 64.479C94.0677 63.2986 91.4171 64.6108 91.4171 64.6108Z" fill="#443D78"/>
<mask id="mask3_824_17542" style="mask-type:luminance" maskUnits="userSpaceOnUse" x="76" y="63" width="40" height="83">
<path d="M91.4151 64.6097C91.4151 64.6097 88 67.6736 87.411 68.7346C86.822 69.7957 79.6534 80.0357 79.5343 87.3563C79.4153 94.6768 84.8356 116.814 84.8356 116.814L76.6895 137.577L79.0456 138.519L81.3954 135.926V139.818C81.3954 139.818 84.1024 142.292 91.1582 144.646C98.214 147.001 107.275 144.295 107.275 144.295L109.976 127.067V144.062L113.153 141.94L113.41 113.638C113.41 113.638 115.998 98.4376 115.998 94.1746C115.998 89.9116 108.823 76.5951 105.646 72.7277C102.469 68.8602 97.1738 65.6582 95.6198 64.4779C94.0657 63.2975 91.4151 64.6097 91.4151 64.6097Z" fill="white"/>
</mask>
<g mask="url(#mask3_824_17542)">
<path opacity="0.17" d="M91.4151 64.6097C91.4151 64.6097 88 67.6736 87.411 68.7346C86.822 69.7957 79.6534 80.0357 79.5343 87.3563C79.4153 94.6768 84.8356 116.814 84.8356 116.814L76.6895 137.577L79.0456 138.519L81.3954 135.926V139.818C81.3954 139.818 84.1024 142.292 91.1582 144.646C98.214 147.001 107.275 144.295 107.275 144.295L109.976 127.067V144.062L113.153 141.94L113.41 113.638C113.41 113.638 115.998 98.4376 115.998 94.1746C115.998 89.9116 108.823 76.5951 105.646 72.7277C102.469 68.8602 97.1738 65.6582 95.6198 64.4779C94.0657 63.2975 91.4151 64.6097 91.4151 64.6097Z" fill="white"/>
<path d="M81.3633 89.7047C81.3633 89.7047 85.6369 92.7371 88.4817 93.8044" stroke="#443D78" stroke-width="0.567123" stroke-linecap="round" stroke-linejoin="round"/>
<path d="M82.6113 92.9189C82.6113 92.9189 87.4175 94.1746 89.9052 94.1746" stroke="#443D78" stroke-width="0.567123" stroke-linecap="round" stroke-linejoin="round"/>
<path d="M89.5537 121.435L103.076 123.042L102.186 125.892L89.7292 124.467" stroke="#443D78" stroke-width="0.567123" stroke-linecap="round" stroke-linejoin="round"/>
</g>
<path d="M91.4171 64.6108C91.4171 64.6108 88.002 67.6747 87.4129 68.7357C86.8239 69.7968 79.6553 80.0368 79.5363 87.3574C79.4172 94.6779 84.8375 116.815 84.8375 116.815L76.6914 137.578L79.0475 138.52L81.3973 135.927V139.819C81.3973 139.819 84.1044 142.293 91.1601 144.647C98.2159 147.002 107.277 144.296 107.277 144.296L109.978 127.068V144.064L113.155 141.941L113.412 113.639C113.412 113.639 116 98.4387 116 94.1757C116 89.9127 108.825 76.5962 105.648 72.7288C102.471 68.8613 97.1757 65.6593 95.6217 64.479C94.0677 63.2986 91.4171 64.6108 91.4171 64.6108Z" stroke="#443D78" stroke-width="0.567123" stroke-linecap="round" stroke-linejoin="round"/>
<path d="M90.709 65.2952L103.768 79.4403L111.413 94.0564C111.413 94.0564 109.765 83.2136 108.355 80.244C106.945 77.2743 100.591 69.916 99.8765 68.2648C99.1621 66.6136 90.709 65.2952 90.709 65.2952Z" fill="white" stroke="#443D78" stroke-width="0.567123" stroke-linecap="round" stroke-linejoin="round"/>
<path d="M107.797 87.1628L111.412 94.069C111.412 94.069 110.291 86.6793 109.1 82.4414L108.355 80.2754C107.354 78.5158 106.218 76.8366 104.958 75.2527L102.909 74.8446L103.768 79.4655L106.412 81.6315L107.797 87.1628Z" fill="#443D78" stroke="#443D78" stroke-width="0.567123" stroke-linecap="round" stroke-linejoin="round"/>
<path d="M104.314 70.6251L104.991 71.4099L107.115 73.9213L108.368 80.3001L102.923 74.8567C102.923 74.8567 103.637 71.5732 104.314 70.6251Z" fill="white" stroke="#443D78" stroke-width="0.567123" stroke-linecap="round" stroke-linejoin="round"/>
<path d="M110.473 44.3382C110.473 44.3382 113.33 46.5356 113.688 48.6577C114.045 50.7798 112.979 53.1405 113.099 53.9629C113.218 54.7854 115.329 56.6752 115.216 57.617C115.104 58.5587 113.337 58.9103 113.337 58.9103C113.337 58.9103 111.419 65.9044 110.949 67.0722C110.479 68.24 108.123 67.8947 106.362 67.6624L103.185 77.0799L92.7082 64.7304L94.3562 59.7767C94.3562 59.7767 89.8884 54.3585 89.5312 48.5824C89.174 42.8063 93.7672 38.8007 100.353 37.9782C106.939 37.1558 112.472 40.3326 113.174 41.6322C113.876 42.9319 110.473 44.3382 110.473 44.3382Z" fill="white"/>
<mask id="mask4_824_17542" style="mask-type:luminance" maskUnits="userSpaceOnUse" x="89" y="37" width="27" height="41">
<path d="M110.476 44.3391C110.476 44.3391 113.333 46.5365 113.69 48.6586C114.048 50.7807 112.982 53.1413 113.101 53.9638C113.22 54.7863 115.332 56.6761 115.219 57.6178C115.107 58.5596 113.34 58.9112 113.34 58.9112C113.34 58.9112 111.422 65.9053 110.952 67.073C110.482 68.2408 108.126 67.8955 106.365 67.6632L103.188 77.0808L92.7111 64.7312L94.3591 59.7776C94.3591 59.7776 89.8913 54.3593 89.5341 48.5832C89.1769 42.8071 93.7701 38.8015 100.356 37.9791C106.942 37.1566 112.475 40.3335 113.177 41.6331C113.878 42.9327 110.476 44.3391 110.476 44.3391Z" fill="white"/>
</mask>
<g mask="url(#mask4_824_17542)">
<path d="M110.473 44.3391C110.473 44.3391 113.33 46.5365 113.688 48.6586C114.045 50.7807 112.979 53.1413 113.099 53.9638C113.218 54.7863 115.329 56.6761 115.216 57.6178C115.104 58.5596 113.337 58.9112 113.337 58.9112C113.337 58.9112 111.419 65.9053 110.949 67.073C110.479 68.2408 108.123 67.8955 106.362 67.6632L103.185 77.0808L92.7082 64.7312L94.3562 59.7776C94.3562 59.7776 89.8884 54.3593 89.5312 48.5832C89.174 42.8071 93.7672 38.8015 100.353 37.9791C106.939 37.1566 112.472 40.3335 113.174 41.6331C113.876 42.9327 110.473 44.3391 110.473 44.3391Z" fill="#D9D9D9"/>
<path d="M98.2665 71.2983C100.034 70.9405 102.998 70.3252 105.667 69.7225L106.356 67.6757C107.823 67.8703 109.702 68.1466 110.555 67.5502C108.549 66.7214 103.587 65.2711 102.571 63.4064C101.318 61.0897 105.705 54.3467 105.705 50.9753C105.705 47.6038 101.5 43.8116 101.5 43.8116C99.4759 41.8842 95.7851 41.3003 92.5079 41.3003C91.4762 42.2029 90.6685 43.3337 90.1486 44.6032C89.6288 45.8728 89.411 47.2461 89.5126 48.6146C89.8698 54.3907 94.3376 59.8089 94.3376 59.8089L92.6896 64.7626L98.2665 71.2983Z" fill="#B8B8B8"/>
</g>
<path d="M110.473 44.3382C110.473 44.3382 113.33 46.5356 113.688 48.6577C114.045 50.7798 112.979 53.1405 113.099 53.9629C113.218 54.7854 115.329 56.6752 115.216 57.617C115.104 58.5587 113.337 58.9103 113.337 58.9103C113.337 58.9103 111.419 65.9044 110.949 67.0722C110.479 68.24 108.123 67.8947 106.362 67.6624L103.185 77.0799L92.7082 64.7304L94.3562 59.7767C94.3562 59.7767 89.8884 54.3585 89.5312 48.5824C89.174 42.8063 93.7672 38.8007 100.353 37.9782C106.939 37.1558 112.472 40.3326 113.174 41.6322C113.876 42.9319 110.473 44.3382 110.473 44.3382Z" stroke="#443D78" stroke-width="0.567123" stroke-linecap="round" stroke-linejoin="round"/>
<path d="M110.472 44.338C110.472 44.338 113.881 42.9253 113.173 41.632C112.465 40.3386 106.938 37.1492 100.352 37.978C93.7665 38.8067 89.1796 42.806 89.5306 48.5821C89.8815 54.3582 94.3556 59.7765 94.3556 59.7765L94.1049 60.5299C96.5425 61.7228 99.0615 59.7765 99.0615 59.7765C98.6016 60.0089 98.0798 60.0885 97.5716 60.0039C97.0635 59.9192 96.5955 59.6746 96.2354 59.3056C94.8255 58.0123 94.7065 53.8874 96.4735 53.5295C98.2406 53.1716 99.4124 53.8874 99.4124 55.1807C99.4124 56.474 99.7633 55.6516 100.71 55.5323C101.656 55.413 100.822 52.5877 101.411 52.1169C102.364 51.5264 103.2 50.7668 103.88 49.8755C104.939 48.4628 101.881 47.2888 101.53 45.9892C101.179 44.6895 110.472 44.338 110.472 44.338Z" fill="#443D78" stroke="#443D78" stroke-width="0.567123" stroke-linecap="round" stroke-linejoin="round"/>
<path d="M111.313 53.5416L109.133 54.2699H111.107" stroke="#443D78" stroke-width="0.567123" stroke-linecap="round" stroke-linejoin="round"/>
<path d="M112.146 51.357C112.146 51.357 111.212 50.0071 110.172 50.6287C109.132 51.2502 109.031 51.6709 109.031 51.6709" stroke="#443D78" stroke-width="0.567123" stroke-linecap="round" stroke-linejoin="round"/>
<path d="M109.901 60.8252C110.539 61.262 111.318 61.4414 112.082 61.3275" stroke="#443D78" stroke-width="0.567123" stroke-linecap="round" stroke-linejoin="round"/>
<path d="M92.2382 62.4891L105.41 75.454L104.238 80.9915L90.2393 65.9046L92.2382 62.4891Z" fill="white" stroke="#443D78" stroke-width="0.567123" stroke-linecap="round" stroke-linejoin="round"/>
<path d="M142.838 112.057C142.838 112.057 138.201 109.294 137.45 109.545C136.698 109.796 129.429 115.07 129.93 116.326C130.431 117.582 134.316 119.214 136.572 120.093C138.828 120.972 143.465 119.088 143.465 119.088L142.838 112.057Z" fill="white" stroke="#443D78" stroke-width="0.567123" stroke-linecap="round" stroke-linejoin="round"/>
<path d="M129.328 111.052C129.328 111.052 133.339 108.792 133.965 108.792C134.592 108.792 138.226 112.056 138.226 112.056L136.722 114.316C136.722 114.316 141.485 116.702 140.983 117.581C140.482 118.46 138.602 119.841 136.597 120.093C134.592 120.344 128.952 116.702 128.952 116.702L129.328 111.052Z" fill="white"/>
<mask id="mask5_824_17542" style="mask-type:luminance" maskUnits="userSpaceOnUse" x="128" y="108" width="14" height="13">
<path d="M129.329 111.053C129.329 111.053 133.339 108.792 133.966 108.792C134.593 108.792 138.227 112.057 138.227 112.057L136.723 114.317C136.723 114.317 141.486 116.703 140.984 117.582C140.483 118.461 138.603 119.842 136.598 120.094C134.593 120.345 128.953 116.703 128.953 116.703L129.329 111.053Z" fill="white"/>
</mask>
<g mask="url(#mask5_824_17542)">
<path d="M129.329 111.053C129.329 111.053 133.339 108.792 133.966 108.792C134.593 108.792 138.227 112.057 138.227 112.057L136.723 114.317C136.723 114.317 141.486 116.703 140.984 117.582C140.483 118.461 138.603 119.842 136.598 120.094C134.593 120.345 128.953 116.703 128.953 116.703L129.329 111.053Z" fill="#D9D9D9"/>
</g>
<path d="M129.328 111.052C129.328 111.052 133.339 108.792 133.965 108.792C134.592 108.792 138.226 112.056 138.226 112.056L136.722 114.316C136.722 114.316 141.485 116.702 140.983 117.581C140.482 118.46 138.602 119.841 136.597 120.093C134.592 120.344 128.952 116.702 128.952 116.702L129.328 111.052Z" stroke="#443D78" stroke-width="0.567123" stroke-linecap="round" stroke-linejoin="round"/>
<path d="M126.546 110.047L130.055 110.675L128.927 116.702L125.919 115.698L126.546 110.047Z" fill="white" stroke="#443D78" stroke-width="0.567123" stroke-linecap="round" stroke-linejoin="round"/>
<path d="M85.822 75.0144C85.822 75.0144 82.4382 81.5439 82.0622 84.8087C81.6863 88.0734 95.472 114.066 96.4746 114.945C97.4772 115.824 126.797 116.703 126.797 116.703L128.05 110.299L102.985 103.142L94.4631 76.8979" fill="#443D78"/>
<mask id="mask6_824_17542" style="mask-type:luminance" maskUnits="userSpaceOnUse" x="82" y="75" width="47" height="42">
<path d="M85.822 75.0144C85.822 75.0144 82.4382 81.5439 82.0622 84.8087C81.6863 88.0734 95.472 114.066 96.4746 114.945C97.4772 115.824 126.797 116.703 126.797 116.703L128.05 110.299L102.985 103.142L94.4631 76.8979" fill="white"/>
</mask>
<g mask="url(#mask6_824_17542)">
<path opacity="0.17" d="M85.822 75.0144C85.822 75.0144 82.4382 81.5439 82.0622 84.8087C81.6863 88.0734 95.472 114.066 96.4746 114.945C97.4772 115.824 126.797 116.703 126.797 116.703L128.05 110.299L102.985 103.142L94.4631 76.8979" fill="white"/>
</g>
<path d="M85.822 75.0144C85.822 75.0144 82.4382 81.5439 82.0622 84.8087C81.6863 88.0734 95.472 114.066 96.4746 114.945C97.4772 115.824 126.797 116.703 126.797 116.703L128.05 110.299L102.985 103.142L94.4631 76.8979" stroke="#443D78" stroke-width="0.567123" stroke-linecap="round" stroke-linejoin="round"/>
<path d="M138.452 110.173C138.452 110.173 136.697 108.666 136.071 110.424C135.444 112.182 131.559 116.451 133.314 116.577C135.068 116.702 138.327 113.061 138.327 113.061" fill="white"/>
<path d="M138.452 110.173C138.452 110.173 136.697 108.666 136.071 110.424C135.444 112.182 131.559 116.451 133.314 116.577C135.068 116.702 138.327 113.061 138.327 113.061" stroke="#443D78" stroke-width="0.567123" stroke-linecap="round" stroke-linejoin="round"/>
<path d="M130.681 117.205C130.681 117.205 130.229 119.321 131.307 120.219C132.065 120.847 132.492 119.089 132.31 117.833C132.128 116.577 131.057 116.201 130.681 117.205Z" fill="white" stroke="#443D78" stroke-width="0.567123" stroke-linecap="round" stroke-linejoin="round"/>
<path d="M132.461 117.707C132.461 117.707 132.01 119.823 133.088 120.721C133.846 121.349 134.272 119.591 134.09 118.335C133.908 117.08 132.812 116.703 132.461 117.707Z" fill="white" stroke="#443D78" stroke-width="0.567123" stroke-linecap="round" stroke-linejoin="round"/>
<path d="M134.189 118.461C134.189 118.461 133.738 120.577 134.816 121.474C135.574 122.102 136 120.344 135.819 119.089C135.637 117.833 134.565 117.456 134.189 118.461Z" fill="white" stroke="#443D78" stroke-width="0.567123" stroke-linecap="round" stroke-linejoin="round"/>
<path d="M135.926 119.484C135.926 119.484 135.512 120.909 136.502 121.511C137.198 121.938 137.592 120.752 137.423 119.904C137.254 119.057 136.27 118.806 135.926 119.484Z" fill="white" stroke="#443D78" stroke-width="0.567123" stroke-linecap="round" stroke-linejoin="round"/>
<path d="M142.838 112.057L143.214 120.093L145.971 119.34L145.344 111.931L142.838 112.057Z" stroke="#443D78" stroke-width="0.567123" stroke-linecap="round" stroke-linejoin="round"/>
<path d="M144.717 111.304L145.97 120.847L166.899 118.586L167.401 106.155L144.717 111.304Z" fill="#443D78" stroke="#443D78" stroke-width="0.567123" stroke-linecap="round" stroke-linejoin="round"/>
<path d="M108.022 149.344C108.022 149.344 104.225 174.758 104.225 183.366C104.225 191.974 98.4349 206.383 98.2344 214.387" stroke="white" stroke-width="0.567123" stroke-linecap="round" stroke-linejoin="round"/>
<path d="M85.6513 234.184C86.6476 234.987 109.018 234.987 111.017 233.788C113.016 232.589 112.013 230.982 111.218 230.982C110.422 230.982 100.433 224.377 100.433 224.377C100.433 224.377 95.0381 228.583 92.0428 229.582C89.0476 230.58 84.2539 230.781 84.2539 230.781V231.986C84.5108 232.833 84.994 233.593 85.6513 234.184Z" fill="white" stroke="#443D78" stroke-width="0.567123" stroke-linecap="round" stroke-linejoin="round"/>
<path d="M111.018 233.8C112.071 233.172 112.272 232.419 112.146 231.86C109.208 232.442 106.224 232.755 103.229 232.796C97.195 232.959 87.7016 232.588 84.4307 232.45C84.7016 233.125 85.1316 233.724 85.6839 234.196C86.6489 234.999 109.019 234.999 111.018 233.8Z" fill="white" stroke="#443D78" stroke-width="0.567123" stroke-linecap="round" stroke-linejoin="round"/>
<path d="M83.6721 232.156L84.2549 230.793L85.0507 214.388C85.0507 214.388 81.4538 227.196 81.2596 230.197C81.1092 232.382 82.7635 232.338 83.6721 232.156Z" fill="#443D78" stroke="#443D78" stroke-width="0.567123" stroke-linecap="round" stroke-linejoin="round"/>
<path d="M169.939 144.34C169.939 144.34 167.947 174.162 169.939 186.166C171.932 198.171 176.951 218.99 177.728 221.589C178.218 223.14 178.43 224.766 178.355 226.392L189.54 227.993C189.54 227.993 186.144 188.571 186.144 183.969C186.144 179.367 189.941 144.943 189.941 144.943L169.939 144.34Z" fill="#443D78" stroke="#443D78" stroke-width="0.567123" stroke-linecap="round" stroke-linejoin="round"/>
<path d="M178.331 226.392C178.331 226.392 166.15 231.597 164.746 232.595C163.342 233.593 167.748 234.999 173.137 234.999C178.525 234.999 183.927 234.372 183.927 234.372L186.12 233.172L186.321 234.572H192.111C192.111 234.572 193.113 229.77 192.737 228.57C192.453 227.75 192.12 226.947 191.741 226.166L178.331 226.392Z" fill="#443D78" stroke="#443D78" stroke-width="0.567123" stroke-linecap="round" stroke-linejoin="round"/>
<path d="M168.142 141.942C168.142 141.942 169.144 170.559 171.538 180.767C173.932 190.976 178.13 215.788 178.13 218.387C178.145 219.873 177.945 221.354 177.535 222.782L176.733 225.394C176.869 226.017 177.08 226.622 177.359 227.196C177.359 227.196 182.548 228.395 185.944 228.395C188.067 228.376 190.176 228.057 192.21 227.447C192.21 227.447 192.317 221.169 192.517 218.186C192.718 215.204 191.721 195.973 191.721 191.371C191.721 186.769 190.518 184.164 190.518 178.564C190.518 172.963 189.522 157.952 189.723 155.547C189.923 153.142 192.718 150.524 193.319 147.542C193.921 144.56 194.516 141.339 194.516 141.339L168.142 141.942Z" fill="#443D78" stroke="#443D78" stroke-width="0.567123" stroke-linecap="round" stroke-linejoin="round"/>
<path d="M170.534 172.027C170.534 172.027 176.117 210.834 177.515 213.282C178.348 214.845 178.572 216.662 178.141 218.38" stroke="white" stroke-width="0.567123" stroke-linecap="round" stroke-linejoin="round"/>
<path d="M163.347 119.327C163.347 119.327 162.601 126.98 162.601 132.832C162.601 136.096 162.57 140.366 162.538 143.455C162.529 144.726 162.962 145.96 163.762 146.947C164.563 147.933 165.681 148.61 166.925 148.86C168.237 149.149 169.573 149.311 170.916 149.344L166.223 120.225C166.223 120.225 164.099 116.627 163.347 119.327Z" fill="#443D78" stroke="#443D78" stroke-width="0.567123" stroke-linecap="round" stroke-linejoin="round"/>
<path d="M185.523 67.1787C186.668 67.7822 187.712 68.5594 188.619 69.4829C189.418 70.5361 190.127 71.6556 190.737 72.8293C190.737 72.8293 199.228 82.6361 199.428 83.6343C199.629 84.6326 194.634 116.156 194.634 116.156L200.324 145.972C200.324 145.972 191.138 151.077 184.145 151.378C179.226 151.591 171.825 150.016 167.853 149.061C167.062 148.874 166.351 148.442 165.819 147.826C165.287 147.211 164.961 146.444 164.889 145.633C164.5 141.439 163.773 133.076 163.347 125.159C162.858 115.962 164.249 97.7418 165.227 91.3379C166.205 84.934 169.325 76.2321 171.719 72.6283C174.113 69.0246 180.711 65.2952 185.523 67.1787Z" fill="#443D78" stroke="#443D78" stroke-width="0.567123" stroke-linecap="round" stroke-linejoin="round"/>
<path d="M190.737 72.8288C190.133 71.6712 189.433 70.5665 188.645 69.5263C187.738 68.6029 186.693 67.8256 185.549 67.2222C181.564 65.6463 176.35 67.9316 173.324 70.8197C172.923 71.7112 169.764 78.9313 168.267 84.833C166.669 91.1114 166.869 99.0472 166.869 99.0472C166.869 99.0472 172.164 92.2415 179.352 84.2366C182.941 80.2354 186.86 76.5452 191.07 73.2055L190.737 72.8288Z" fill="#443D78"/>
<mask id="mask7_824_17542" style="mask-type:luminance" maskUnits="userSpaceOnUse" x="166" y="66" width="26" height="34">
<path d="M190.738 72.8291C190.134 71.6715 189.434 70.5668 188.646 69.5267C187.739 68.6032 186.694 67.826 185.55 67.2225C181.565 65.6467 176.351 67.932 173.325 70.82C172.924 71.7116 169.765 78.9317 168.268 84.8334C166.67 91.1117 166.87 99.0476 166.87 99.0476C166.87 99.0476 172.165 92.2418 179.353 84.2369C182.942 80.2357 186.861 76.5456 191.071 73.2058L190.738 72.8291Z" fill="white"/>
</mask>
<g mask="url(#mask7_824_17542)">
<path opacity="0.17" d="M190.738 72.8291C190.134 71.6715 189.434 70.5668 188.646 69.5267C187.739 68.6032 186.694 67.826 185.55 67.2225C181.565 65.6467 176.351 67.932 173.325 70.82C172.924 71.7116 169.765 78.9317 168.268 84.8334C166.67 91.1117 166.87 99.0476 166.87 99.0476C166.87 99.0476 172.165 92.2418 179.353 84.2369C182.942 80.2357 186.861 76.5456 191.071 73.2058L190.738 72.8291Z" fill="white"/>
</g>
<path d="M190.737 72.8288C190.133 71.6712 189.433 70.5665 188.645 69.5263C187.738 68.6029 186.693 67.8256 185.549 67.2222C181.564 65.6463 176.35 67.9316 173.324 70.8197C172.923 71.7112 169.764 78.9313 168.267 84.833C166.669 91.1114 166.869 99.0472 166.869 99.0472C166.869 99.0472 172.164 92.2415 179.352 84.2366C182.941 80.2354 186.86 76.5452 191.07 73.2055L190.737 72.8288Z" stroke="#443D78" stroke-width="0.567123" stroke-linecap="round" stroke-linejoin="round"/>
<path d="M172.639 75.4221C172.639 75.4221 169.938 83.9042 169.117 86.3026C168.296 88.7009 168.215 92.4616 168.215 92.4616C168.215 92.4616 178.329 77.2994 180.797 74.7504C183.266 72.2013 186.493 68.2209 186.493 68.2209L184.319 67.593L172.639 75.4221Z" fill="white" stroke="#443D78" stroke-width="0.567123" stroke-linecap="round" stroke-linejoin="round"/>
<path d="M173.386 72.3461C173.386 72.3461 172.189 75.8745 172.189 76.1131C172.189 76.3517 171.889 79.7169 171.889 79.7169L176.156 73.9345L173.386 72.3461Z" fill="white" stroke="#443D78" stroke-width="0.567123" stroke-linecap="round" stroke-linejoin="round"/>
<path d="M184.245 65.2952L172.564 74.8257L174.363 80.0744L186.344 67.8442L184.245 65.2952Z" fill="white" stroke="#443D78" stroke-width="0.567123" stroke-linecap="round" stroke-linejoin="round"/>
<path d="M182.735 140.886C182.735 140.886 181.074 145.024 180.579 146.38C180.084 147.736 180.335 153.047 180.397 153.606C180.46 154.165 181.444 154.284 181.444 154.284C181.444 154.284 181.751 158.541 182.121 158.679C182.505 158.775 182.897 158.836 183.292 158.861C183.292 158.861 183.969 161.027 184.834 160.839C185.094 160.76 185.325 160.606 185.499 160.398C185.674 160.19 185.785 159.935 185.818 159.665C186.102 159.692 186.388 159.643 186.648 159.524C186.907 159.405 187.131 159.22 187.296 158.987C187.649 158.468 187.939 157.91 188.161 157.323C188.161 157.323 189.64 156.582 189.759 156.023C189.878 155.465 190.254 153.512 190.254 153.512C190.254 153.512 190.687 153.386 190.687 152.093C190.687 150.8 189.703 142.833 189.703 142.833L182.735 140.886Z" fill="white" stroke="#443D78" stroke-width="0.567123" stroke-linecap="round" stroke-linejoin="round"/>
<path d="M181.443 154.284L181.625 150.53" stroke="#443D78" stroke-width="0.567123" stroke-linecap="round" stroke-linejoin="round"/>
<path d="M183.293 158.849L183.695 153.292" stroke="#443D78" stroke-width="0.567123" stroke-linecap="round" stroke-linejoin="round"/>
<path d="M185.817 159.653L186.106 153.639" stroke="#443D78" stroke-width="0.567123" stroke-linecap="round" stroke-linejoin="round"/>
<path d="M188.161 157.311L188.519 153.124" stroke="#443D78" stroke-width="0.567123" stroke-linecap="round" stroke-linejoin="round"/>
<path d="M194.91 80.903L199.403 83.6027L197.905 114.725L189.916 144.139L182.327 142.142L184.721 118.912L183.524 95.5002C183.524 95.5002 185.222 90.0443 189.113 87.0432" fill="#443D78"/>
<path d="M194.91 80.903L199.403 83.6027L197.905 114.725L189.916 144.139L182.327 142.142L184.721 118.912L183.524 95.5002C183.524 95.5002 185.222 90.0443 189.113 87.0432" stroke="#443D78" stroke-width="0.567123" stroke-linecap="round" stroke-linejoin="round"/>
<path d="M185.667 86.1582C185.667 86.1582 183.625 91.3567 183.524 95.513" stroke="white" stroke-width="0.567123" stroke-linecap="round" stroke-linejoin="round"/>
<path d="M187.371 88.6316C187.371 88.6316 183.875 94.3512 183.875 96.9379C183.875 99.5246 184.796 121.11 184.796 121.11L182.402 139.744" stroke="white" stroke-width="0.567123" stroke-linecap="round" stroke-linejoin="round"/>
<path d="M165.671 46.2276C165.671 46.2276 163.271 53.0584 163.497 54.0379C163.722 55.0173 163.948 56.5115 163.948 56.5115C163.948 56.5115 160.188 61.1638 160.652 61.6912C161.116 62.2186 163.196 62.815 163.196 62.815C163.196 62.815 164.919 70.0226 165.596 70.6944C166.273 71.3662 170.465 69.8719 170.465 69.8719L174.958 75.5727L184.169 66.7202L183.047 62.0679C183.047 62.0679 187.916 53.5105 187.841 49.4546C187.766 45.3988 179.457 39.9994 173.535 40.0748C167.614 40.1501 162.074 42.3287 163.196 43.9046C163.857 44.8379 164.699 45.628 165.671 46.2276Z" fill="white"/>
<mask id="mask8_824_17542" style="mask-type:luminance" maskUnits="userSpaceOnUse" x="160" y="40" width="28" height="36">
<path d="M165.668 46.2278C165.668 46.2278 163.268 53.0587 163.494 54.0381C163.719 55.0175 163.945 56.5118 163.945 56.5118C163.945 56.5118 160.185 61.164 160.649 61.6914C161.113 62.2188 163.193 62.8153 163.193 62.8153C163.193 62.8153 164.916 70.0228 165.593 70.6946C166.27 71.3664 170.462 69.8721 170.462 69.8721L174.955 75.5729L184.166 66.7204L183.045 62.0681C183.045 62.0681 187.913 53.5107 187.838 49.4549C187.763 45.3991 179.454 39.9997 173.532 40.075C167.611 40.1503 162.071 42.3289 163.193 43.9048C163.854 44.8381 164.696 45.6283 165.668 46.2278Z" fill="white"/>
</mask>
<g mask="url(#mask8_824_17542)">
<path d="M184.931 44.7656C183.789 44.9326 182.675 45.2493 181.616 45.7074L172.787 49.2923C172.787 49.2923 168.582 52.871 169.027 55.6084C169.472 58.3457 173.232 62.1379 172.392 64.8752C171.552 67.6126 166.295 70.5634 166.295 70.5634L167.943 70.6262C169.196 70.3311 170.487 69.8728 170.487 69.8728L171.176 70.7455L179.686 71.0532L184.191 66.7211L183.07 62.0688C183.07 62.0688 187.939 53.5114 187.863 49.4556C187.813 47.9613 186.66 46.285 184.931 44.7656Z" fill="#B8B8B8"/>
</g>
<path d="M165.671 46.2276C165.671 46.2276 163.271 53.0584 163.497 54.0379C163.722 55.0173 163.948 56.5115 163.948 56.5115C163.948 56.5115 160.188 61.1638 160.652 61.6912C161.116 62.2186 163.196 62.815 163.196 62.815C163.196 62.815 164.919 70.0226 165.596 70.6944C166.273 71.3662 170.465 69.8719 170.465 69.8719L174.958 75.5727L184.169 66.7202L183.047 62.0679C183.047 62.0679 187.916 53.5105 187.841 49.4546C187.766 45.3988 179.457 39.9994 173.535 40.0748C167.614 40.1501 162.074 42.3287 163.196 43.9046C163.857 44.8379 164.699 45.628 165.671 46.2276Z" stroke="#443D78" stroke-width="0.567123" stroke-linecap="round" stroke-linejoin="round"/>
<path d="M183.049 62.0679C183.049 62.0679 187.918 53.5105 187.843 49.4546C187.767 45.3988 179.458 39.9994 173.537 40.0748C167.615 40.1501 162.076 42.3287 163.197 43.9046C163.858 44.8379 164.7 45.628 165.673 46.2276C165.673 46.2276 169.345 47.9541 169.345 48.4062C169.345 48.8582 167.17 51.2565 167.922 52.3113C168.674 53.3661 172.265 54.6343 172.265 54.6343C172.265 54.6343 171.638 56.6622 172.565 56.8882C173.493 57.1143 173.913 56.2102 174.508 55.6326C175.103 55.0549 177.209 54.2011 177.51 56.7564C177.686 58.5892 177.207 60.4253 176.156 61.936C175.861 62.1558 179.978 64.9371 181.796 64.1084C182.266 63.8949 182.817 63.6124 183.368 63.3173L183.049 62.0679Z" fill="#443D78" stroke="#443D78" stroke-width="0.567123" stroke-linecap="round" stroke-linejoin="round"/>
<path d="M165.07 58.3886C165.361 58.3886 165.597 57.4807 165.597 56.3607C165.597 55.2407 165.361 54.3328 165.07 54.3328C164.78 54.3328 164.544 55.2407 164.544 56.3607C164.544 57.4807 164.78 58.3886 165.07 58.3886Z" stroke="#443D78" stroke-width="0.567123" stroke-linecap="round" stroke-linejoin="round"/>
<path d="M165.672 55.5389L174.507 55.6143" stroke="#443D78" stroke-width="0.567123" stroke-linecap="round" stroke-linejoin="round"/>
<path d="M164.219 53.0963C164.219 53.0963 165.058 51.7528 165.898 53.4291" stroke="#443D78" stroke-width="0.567123" stroke-linecap="round" stroke-linejoin="round"/>
<path d="M164.049 64.039C164.958 63.668 165.803 63.1575 166.555 62.5259" stroke="#443D78" stroke-width="0.567123" stroke-linecap="round" stroke-linejoin="round"/>
<path d="M26.7324 235H273.353" stroke="#443D78" stroke-width="1.13425" stroke-miterlimit="10"/>
</g>
<defs>
<clipPath id="clip0_824_17542">
<rect width="304" height="235" fill="white"/>
</clipPath>
</defs>
</svg>
