<svg width="220" height="236" viewBox="0 0 220 236" fill="none" xmlns="http://www.w3.org/2000/svg">
<g id="Wind turbine-bro">
<g id="freepik--background-simple--inject-148">
<path id="Vector" d="M186.47 148.255C185.68 149.58 184.879 150.873 184.057 152.14C183.526 152.93 183.023 153.71 182.497 154.485C181.617 155.772 180.722 157.027 179.813 158.248L179.723 158.364C179.315 158.919 178.89 159.468 178.477 160.007C178.063 160.547 177.723 160.971 177.342 161.442C177.177 161.641 177.018 161.845 176.854 162.038L176.652 162.29C176.341 162.677 176.023 163.059 175.697 163.436C175.268 163.96 174.843 164.441 174.408 164.938C173.973 165.436 173.618 165.828 173.22 166.268C173.013 166.498 172.812 166.718 172.599 166.943C172.196 167.388 171.783 167.823 171.369 168.257C170.955 168.692 170.414 169.252 169.931 169.733L169.894 169.775C169.427 170.236 168.961 170.702 168.494 171.152C167.799 171.822 167.104 172.477 166.399 173.12C165.523 173.921 164.638 174.691 163.746 175.466C163.721 175.484 163.698 175.505 163.677 175.528C162.648 176.403 161.609 177.245 160.558 178.067C158.939 179.338 157.298 180.545 155.636 181.69C155.084 182.07 154.527 182.447 153.965 182.82C152.867 183.553 151.753 184.255 150.629 184.914L150.528 184.977C149.997 185.302 149.441 185.626 148.889 185.945L148.777 186.003C147.656 186.659 146.523 187.286 145.377 187.882L144.168 188.511L143.462 188.866C142.932 189.139 142.402 189.39 141.839 189.662C140.651 190.233 139.463 190.772 138.259 191.295C137.654 191.552 137.05 191.819 136.445 192.054C135.84 192.29 135.235 192.546 134.62 192.782C134.005 193.018 133.405 193.248 132.795 193.473C132.185 193.698 131.666 193.881 131.098 194.08L130.483 194.29C130.027 194.452 129.565 194.599 129.104 194.756C128.483 194.954 127.862 195.153 127.242 195.342H127.205C125.436 195.886 123.668 196.38 121.9 196.823C120.028 197.305 118.139 197.718 116.246 198.09C89.5648 203.377 61.303 199.064 37.7781 188.333C37.1681 188.05 36.5634 187.767 35.9641 187.469L35.0676 187.019C34.2985 186.631 33.5346 186.218 32.7814 185.788C32.4366 185.6 32.0919 185.401 31.7524 185.202C31.4129 185.003 31.2219 184.888 30.9461 184.721C30.6703 184.553 30.4899 184.448 30.2671 184.302C30.0444 184.155 29.7367 183.988 29.5033 183.825C27.8837 182.778 26.3119 181.679 24.7877 180.528C24.496 180.308 24.2043 180.083 23.9231 179.852L23.329 179.381L22.5917 178.774C22.0613 178.339 21.5308 177.9 21.0428 177.444C20.889 177.313 20.7458 177.183 20.592 177.041C20.4381 176.9 20.1464 176.643 19.9289 176.439C18.9954 175.577 18.0901 174.691 17.2131 173.78L16.7463 173.288C15.5687 172.047 14.4495 170.759 13.3833 169.44C13.0969 169.095 12.8529 168.744 12.5558 168.393C11.6912 167.289 10.8744 166.153 10.0946 164.996C9.87714 164.666 9.65436 164.336 9.44218 164.007C8.69957 162.86 8.00469 161.703 7.32043 160.52C7.10826 160.143 6.90139 159.761 6.69982 159.379C6.49825 158.997 6.33912 158.693 6.16938 158.332C5.53993 157.097 4.95468 155.839 4.41363 154.558C4.27572 154.228 4.13781 153.893 4.0052 153.553C3.23687 151.642 2.57287 149.692 2.01606 147.711C1.93119 147.407 1.85162 147.104 1.76675 146.805C1.76931 146.776 1.76931 146.746 1.76675 146.716C1.7084 146.481 1.64475 146.256 1.59171 146.02C1.50684 145.669 1.42197 145.324 1.3424 144.973C1.26284 144.622 1.17266 144.209 1.09309 143.832C0.997616 143.361 0.902138 142.879 0.822573 142.398C0.743007 141.916 0.679353 141.576 0.6157 141.157C0.552048 140.738 0.488396 140.304 0.430048 139.875C-1.02335 128.85 1.19918 116.501 7.21965 106.781C8.04788 105.438 8.9547 104.145 9.93549 102.907C11.1169 101.415 12.4133 100.014 13.813 98.719C13.8696 98.6577 13.9317 98.6017 13.9986 98.5515C16.315 96.4343 18.9177 94.6444 21.7324 93.233L23.695 92.2594C24.9575 91.6417 26.1775 91.0501 27.3763 90.49L28.4743 89.9665L28.6387 89.888C29.4697 89.5076 30.2884 89.1412 31.0946 88.7887C32.6011 88.1187 34.0616 87.494 35.476 86.9147C35.8314 86.7629 36.1868 86.6215 36.5369 86.4802C37.5978 86.0457 38.6587 85.627 39.6718 85.2343C40.4463 84.9307 41.2101 84.6376 41.9686 84.3601L42.2338 84.2554C42.9128 84.0042 43.5811 83.732 44.2442 83.5226C46.8592 82.5594 49.3576 81.6904 51.787 80.8476C64.7774 76.3248 75.9856 72.3883 93.7923 59.0973C110.066 46.9684 129.019 36.6664 150.098 38.4305C176.716 40.6605 199.657 56.1868 202.283 83.5959C204.293 104.592 197.164 130.248 186.47 148.255Z" fill="#A9E8CB"/>
<path id="Vector_2" opacity="0.7" d="M186.47 148.255C185.68 149.58 184.879 150.873 184.057 152.14C183.526 152.93 183.023 153.71 182.497 154.485C181.617 155.772 180.722 157.027 179.813 158.248L179.723 158.364C179.315 158.919 178.89 159.468 178.477 160.007C178.063 160.547 177.723 160.971 177.342 161.442C177.177 161.641 177.018 161.845 176.854 162.038L176.652 162.29C176.341 162.677 176.023 163.059 175.697 163.436C175.268 163.96 174.843 164.441 174.408 164.938C173.973 165.436 173.618 165.828 173.22 166.268C173.013 166.498 172.812 166.718 172.599 166.943C172.196 167.388 171.783 167.823 171.369 168.257C170.955 168.692 170.414 169.252 169.931 169.733L169.894 169.775C169.427 170.236 168.961 170.702 168.494 171.152C167.799 171.822 167.104 172.477 166.399 173.12C165.523 173.921 164.638 174.691 163.746 175.466C163.721 175.484 163.698 175.505 163.677 175.528C162.648 176.397 161.603 177.245 160.558 178.067C158.939 179.338 157.298 180.545 155.636 181.69C155.084 182.07 154.527 182.447 153.965 182.82C152.867 183.548 151.753 184.249 150.629 184.914L150.528 184.977C149.997 185.302 149.441 185.626 148.889 185.945L148.777 186.003C147.658 186.657 146.518 187.286 145.377 187.882L144.168 188.511L143.462 188.866C142.932 189.139 142.402 189.39 141.839 189.662C140.651 190.233 139.458 190.772 138.259 191.295C137.654 191.552 137.05 191.819 136.445 192.054C135.84 192.29 135.235 192.546 134.62 192.782C134.005 193.018 133.405 193.248 132.795 193.473C132.185 193.698 131.666 193.881 131.098 194.08L130.483 194.29C130.027 194.452 129.565 194.599 129.104 194.756C128.483 194.954 127.862 195.153 127.242 195.342H127.205C125.436 195.886 123.668 196.38 121.9 196.823C120.028 197.305 118.139 197.718 116.246 198.09C89.5648 203.377 61.303 199.064 37.7781 188.333C37.1681 188.05 36.5634 187.767 35.9641 187.469L35.0676 187.019C34.2985 186.631 33.5346 186.218 32.7814 185.788C32.4366 185.6 32.0919 185.401 31.7524 185.202C31.4129 185.003 31.2219 184.888 30.9461 184.721C30.6703 184.553 30.4899 184.448 30.2671 184.302C30.0444 184.155 29.7367 183.988 29.5033 183.825C27.8837 182.778 26.3119 181.679 24.7877 180.528C24.496 180.308 24.2043 180.083 23.9231 179.852L23.329 179.381L22.5917 178.774C22.0613 178.339 21.5308 177.9 21.0428 177.444C20.889 177.313 20.7458 177.183 20.592 177.041C20.4381 176.9 20.1464 176.643 19.9289 176.439C18.9954 175.577 18.0901 174.691 17.2131 173.78L16.7463 173.288C15.5687 172.047 14.4495 170.759 13.3833 169.44C13.0969 169.095 12.8529 168.744 12.5558 168.393C11.6912 167.289 10.8744 166.153 10.0946 164.996C9.87714 164.666 9.65436 164.336 9.44218 164.007C8.69957 162.86 8.00469 161.703 7.32043 160.52C7.10826 160.143 6.90139 159.761 6.69982 159.379C6.49825 158.997 6.33912 158.693 6.16938 158.332C5.53993 157.097 4.95468 155.839 4.41363 154.558C4.27572 154.228 4.13781 153.893 4.0052 153.553C3.23687 151.642 2.57287 149.692 2.01606 147.711C1.93119 147.407 1.85162 147.104 1.76675 146.805C1.76931 146.776 1.76931 146.746 1.76675 146.716C1.7084 146.481 1.64475 146.256 1.59171 146.02C1.50684 145.669 1.42197 145.324 1.3424 144.973C1.26284 144.622 1.17266 144.209 1.09309 143.832C0.997616 143.361 0.902138 142.879 0.822573 142.398C0.743007 141.916 0.679353 141.576 0.6157 141.157C0.552048 140.738 0.488396 140.304 0.430048 139.875C-1.02335 128.85 1.19918 116.501 7.21965 106.781C8.04788 105.438 8.9547 104.145 9.93549 102.907C11.1169 101.415 12.4133 100.014 13.813 98.719C13.8696 98.6577 13.9317 98.6017 13.9986 98.5515C16.315 96.4343 18.9177 94.6444 21.7324 93.233L23.695 92.2594C24.9575 91.6417 26.1775 91.0501 27.3763 90.49L28.4743 89.9665L28.6387 89.888C29.4697 89.5076 30.2884 89.1412 31.0946 88.7887C32.6011 88.1187 34.0616 87.494 35.476 86.9147C35.8314 86.7629 36.1868 86.6215 36.5369 86.4802C37.5978 86.0457 38.6587 85.627 39.6718 85.2343C40.4463 84.9307 41.2101 84.6376 41.9686 84.3601L42.2338 84.2554C42.9128 84.0042 43.5811 83.732 44.2442 83.5226C46.8592 82.5594 49.3576 81.6904 51.787 80.8476C64.7774 76.3248 75.9856 72.3883 93.7923 59.0973C110.066 46.9684 129.019 36.6664 150.098 38.4305C176.716 40.6605 199.657 56.1868 202.283 83.5959C204.293 104.592 197.164 130.248 186.47 148.255Z" fill="white"/>
<path id="Vector_3" d="M179.803 158.248C165.561 177.365 147.107 189.269 127.231 195.362H127.194C125.426 195.907 123.658 196.401 121.89 196.844C120.019 197.322 118.134 197.744 116.235 198.111C89.5542 203.392 61.2978 199.084 37.7676 188.348C24.4892 182.305 13.5811 172.138 6.71052 159.4C13.516 154.594 26.2306 150.035 48.0422 155.861C85.4486 165.849 114.119 189.437 139.018 172.24C156.644 160.085 169.56 155.856 179.803 158.248Z" fill="#A9E8CB"/>
</g>
<g id="freepik--Shadow--inject-148">
<path id="Vector_4" d="M100.768 236C139.941 236 171.698 232.36 171.698 227.87C171.698 223.381 139.941 219.741 100.768 219.741C61.594 219.741 29.8376 223.381 29.8376 227.87C29.8376 232.36 61.594 236 100.768 236Z" fill="#A9E8CB"/>
<path id="Vector_5" opacity="0.5" d="M100.768 236C139.941 236 171.698 232.36 171.698 227.87C171.698 223.381 139.941 219.741 100.768 219.741C61.594 219.741 29.8376 223.381 29.8376 227.87C29.8376 232.36 61.594 236 100.768 236Z" fill="white"/>
</g>
<g id="freepik--wind-turbine-2--inject-148">
<path id="Vector_6" d="M163.274 153.412L163.243 153.375L163.121 153.213C163.041 153.113 162.972 153.019 162.898 152.935L160.548 150.585L160.495 150.538L152.591 142.639C152.564 142.613 152.539 142.585 152.517 142.555C152.114 142.084 149.154 138.618 147.886 136.676C147.872 136.657 147.86 136.636 147.849 136.614C147.734 136.445 147.628 136.27 147.531 136.09C147.344 135.76 147.124 135.45 146.873 135.163C146.853 135.145 146.835 135.124 146.82 135.101C145.205 133.364 143.315 131.897 141.224 130.756L141.123 130.709C140.704 130.481 140.272 130.277 139.829 130.096L139.739 130.06C140.13 129.852 140.448 129.533 140.654 129.145C140.86 128.757 140.944 128.317 140.895 127.882C140.898 127.838 140.898 127.795 140.895 127.751C140.9 127.72 140.9 127.688 140.895 127.657V127.578C140.561 126.264 138.88 124.485 137.379 123.464L137.002 123.218C136.894 123.148 136.782 123.083 136.668 123.024L136.525 122.946L136.111 118.999H135.384L135.172 116.57C135.172 116.57 135.172 115.612 135.225 114.083C135.225 113.999 135.225 113.921 135.225 113.837C135.32 110.173 135.538 103.561 135.936 98.8396C136.503 91.9612 137.336 84.3185 137.649 80.1254C137.649 80.0783 137.649 80.0364 137.649 79.9946C137.646 79.9702 137.646 79.9456 137.649 79.9213C137.649 79.6805 137.686 79.4449 137.702 79.2094C137.718 78.9738 137.739 78.7906 137.755 78.5864C138.026 75.5817 138.355 72.8282 137.877 71.6138C137.805 71.4018 137.665 71.2183 137.479 71.0903C136.514 70.4935 135.002 74.3201 133.862 78.063C133.644 78.7958 133.437 79.5287 133.252 80.2197C133.225 80.3139 133.199 80.4029 133.167 80.5023C132.345 83.5908 130.361 91.2074 129.258 97.2535C128.783 99.4801 128.529 101.747 128.499 104.022V104.048C128.738 108.885 129.077 109.283 130.276 112.947C130.926 114.844 131.384 116.799 131.644 118.784L131.072 118.889L130.615 118.972L130.244 121.27C129.413 121.252 128.589 121.417 127.831 121.752C127.408 121.939 127.034 122.218 126.738 122.569L126.207 122.454C124.935 122.218 123.645 122.083 122.351 122.05C120.898 122.018 119.445 122.107 118.007 122.317H117.959C113.604 122.977 109.796 124.364 108.411 125.191C108.363 125.216 108.317 125.244 108.273 125.275C108.222 125.303 108.174 125.336 108.13 125.375C108.103 125.389 108.08 125.408 108.061 125.432L108.014 125.469C107.992 125.483 107.972 125.501 107.955 125.521L107.902 125.579C107.462 126.102 107.101 127.311 106.969 128.562C106.877 129.321 106.906 130.089 107.053 130.84C107.077 130.961 107.113 131.081 107.159 131.196L112.384 131.499L114.777 131.64L118.002 131.824L117.524 142.487C117.524 142.487 116.198 143.445 114.607 144.795C113.344 145.855 112.168 147.012 111.09 148.256C110.995 148.36 110.915 148.47 110.825 148.585L110.496 149.02C110.463 149.057 110.434 149.097 110.411 149.14C108.983 151.268 107.669 153.467 106.475 155.731C105.165 158.118 104.03 160.259 103.553 160.918C102.99 161.698 101.961 163.708 100.9 165.546C100.057 167.038 99.2029 168.425 98.5876 168.943C97.2244 170.095 96.3863 171.336 97.0812 171.655C97.7761 171.974 98.9059 171.786 100.985 170.084C101.012 170.072 101.035 170.054 101.054 170.032C103.112 168.357 108.364 161.468 108.687 161.044C109.011 160.62 109.44 160.128 109.828 159.673C109.981 159.484 110.141 159.285 110.305 159.097C111.244 157.982 112.427 156.553 113.488 155.307C113.748 154.982 114.018 154.663 114.294 154.338C114.449 154.15 114.609 153.961 114.771 153.773C115.116 153.354 115.466 152.941 115.832 152.527C116.893 151.307 117.148 151.48 117.148 151.48L117.068 153.391L117.01 154.621L115.068 224.112C116.803 223.772 118.532 224.547 120.251 224.112C121.884 223.699 125.094 224.609 126.706 224.112H126.743L124.139 142.89V142.764L124.213 142.691L125.364 141.435L131.305 134.986C131.321 134.964 131.34 134.946 131.363 134.933C131.449 134.994 131.54 135.048 131.634 135.095C131.787 135.191 131.963 135.245 132.144 135.255C132.325 135.264 132.506 135.227 132.668 135.148C133.199 134.792 134.376 132.3 134.376 132.3L135.909 131.913H135.946L136.694 131.724L137.336 132.316L141.24 136.059L141.405 136.21L163.03 156.045L163.062 156.071C163.195 156.223 164.426 157.537 165.221 157.149C165.874 156.841 164.097 154.448 163.274 153.412ZM124.887 136.582L124.547 136.964L124.505 137.011L124.08 137.482H124.054V132.394H124.547H127.39L127.544 133.017V133.106L127.231 133.567C126.502 134.61 125.719 135.617 124.887 136.582Z" fill="white"/>
<path id="Vector_7" d="M137.994 131.19L137.283 132.447L136.641 131.871L135.872 132.065H135.835L134.302 132.452C134.302 132.452 133.151 134.944 132.594 135.3C132.431 135.379 132.251 135.416 132.07 135.407C131.889 135.397 131.713 135.343 131.56 135.247L131.915 134.316C131.657 133.596 131.166 132.981 130.517 132.566C129.869 132.15 129.1 131.958 128.329 132.018L128.085 133.52C128.085 133.52 127.024 131.766 127.051 131.52C127.077 131.274 125.55 129.667 125.311 127.306C125.072 124.945 126.25 120.328 132.371 121.579C132.371 121.579 130.393 121.768 129.592 124.993C128.791 128.217 133.655 130.499 137.994 131.19Z" fill="#A9E8CB"/>
<path id="Vector_8" d="M116.861 154.846L122.685 148.857L122.128 145.156L117.227 151.124L116.861 154.846Z" fill="#A9E8CB"/>
<path id="Vector_9" d="M121.019 127.625V126.851L124.356 130.101L124.085 132.253V137.671C123.215 138.529 121.741 139.702 121.051 140.236C121.126 132.829 121.126 127.871 121.019 127.625Z" fill="#A9E8CB"/>
<path id="Vector_10" d="M126.669 224.258H126.631C125.04 224.756 121.81 223.845 120.176 224.258C120.351 214.359 120.584 174.104 120.77 161.745C120.823 158.185 120.871 154.699 120.919 151.412C120.919 151.155 120.919 150.888 120.919 150.658C120.919 149.25 120.956 147.878 120.972 146.554V146.528L121.391 146.057L122.128 145.224L124.054 143.047L126.669 224.258Z" fill="#A9E8CB"/>
<path id="Vector_11" d="M165.221 157.165C164.378 157.579 163.051 156.076 163.051 156.076L136.641 131.871L135.872 132.064C137.297 131.65 138.636 130.991 139.829 130.117C142.672 131.248 146.544 134.305 147.531 136.111C148.517 137.917 152.565 142.623 152.565 142.623L162.898 152.946C162.898 152.946 166.059 156.751 165.221 157.165Z" fill="#A9E8CB"/>
<path id="Vector_12" d="M125.465 125.437C125.465 125.437 109.891 124.532 108.225 125.296C106.56 126.06 106.608 129.902 107.111 131.269L127.029 132.426V131.515L127.077 131.269C127.077 131.269 125.04 129.85 125.465 125.437Z" fill="#A9E8CB"/>
<path id="Vector_13" d="M130.249 132.253C130.249 132.253 127.374 138.393 123.582 141.047C119.789 143.701 112.363 148.758 105.971 156.338C105.971 156.338 109.286 149.13 112.946 146.135C116.606 143.141 121.539 140.267 123.025 138.723C124.51 137.179 128.329 132.012 128.329 132.012L130.249 132.253Z" fill="#A9E8CB"/>
<path id="Vector_14" d="M133.804 78.2043C131.571 89.2967 130.961 104.76 132.398 110.199C133.835 115.638 133.358 118.999 133.358 118.999H131.077V118.915L131.645 118.81C131.385 116.804 130.917 114.829 130.25 112.916C129.046 109.252 128.711 108.843 128.467 104.017C128.223 99.1904 132.074 84.465 133.21 80.2406C133.401 79.5392 133.613 78.7958 133.835 78.0525L133.804 78.2043Z" fill="#A9E8CB"/>
<path id="Vector_15" d="M130.249 121.292C128.419 121.36 127.008 121.778 126.138 123.495C124.855 126.018 124.987 129.384 127.093 131.269" stroke="#443D78" stroke-linecap="round" stroke-linejoin="round"/>
<path id="Vector_16" d="M134.302 132.446C137.723 131.776 140.768 129.918 140.89 128.212C141.012 126.505 138.986 124.286 136.206 122.804" stroke="#443D78" stroke-linecap="round" stroke-linejoin="round"/>
<path id="Vector_17" d="M136.471 122.971L136.052 119.019H130.61L130.249 121.312C131.304 121.351 132.349 121.527 133.357 121.835" stroke="#443D78" stroke-linecap="round" stroke-linejoin="round"/>
<path id="Vector_18" d="M131.623 118.998C131.623 118.998 132.101 116.381 129.501 111.387C126.902 106.393 129.501 94.5784 131.623 86.0772C133.745 77.576 135.601 71.4199 137.416 71.0587C139.23 70.6975 135.888 92.6887 135.697 102.226C135.506 111.764 134.822 114.156 135.166 118.978" stroke="#443D78" stroke-linecap="round" stroke-linejoin="round"/>
<path id="Vector_19" d="M131.92 134.31C131.92 134.31 130.509 131.279 128.329 132.012C126.483 134.823 124.293 138.027 121.497 139.974C118.553 142.021 115.466 143.513 112.946 146.135C110.537 148.755 108.475 151.666 106.809 154.799C103.85 160.096 101.404 165.755 97.4683 170.393C97.1342 170.786 96.7735 171.319 97.0387 171.759C97.3039 172.199 98.0996 172.094 98.63 171.817C101.86 170.121 103.834 166.933 106.093 164.221C107.886 162.07 109.668 159.913 111.461 157.767C115.583 152.841 119.72 147.931 123.927 143.078C125.518 141.241 127.109 139.414 128.754 137.618C128.992 137.351 131.995 134.488 131.92 134.31Z" stroke="#443D78" stroke-linecap="round" stroke-linejoin="round"/>
<path id="Vector_20" d="M127.687 132.98C127.396 132.528 127.18 132.034 127.045 131.515C127.045 131.049 128.106 129.557 128.106 129.557" stroke="#443D78" stroke-linecap="round" stroke-linejoin="round"/>
<path id="Vector_21" d="M131.284 135.074C131.284 135.074 132.345 135.556 132.732 135.074C133.119 134.593 134.461 132.148 134.461 132.148C134.461 132.148 132.658 129.85 131.278 129.557" stroke="#443D78" stroke-linecap="round" stroke-linejoin="round"/>
<path id="Vector_22" d="M136.758 131.808C142.062 136.834 163.322 157.165 164.68 157.165C166.24 157.165 164.038 154.37 162.898 152.936C161.757 151.501 150.857 141.943 147.844 136.614C145.929 133.211 142.009 131.018 139.739 130.065" stroke="#443D78" stroke-linecap="round" stroke-linejoin="round"/>
<path id="Vector_23" d="M127.39 132.447L122.844 132.185L120.425 132.038L114.728 131.714L112.341 131.572L107.111 131.269C107.111 131.269 106.22 126.557 108.225 125.296C109.583 124.448 113.694 123.27 116.834 122.574C117.967 122.295 119.12 122.101 120.282 121.993C120.991 121.985 121.699 122.017 122.404 122.087C123.412 122.171 124.494 122.302 125.364 122.412C125.767 122.464 126.456 122.474 126.732 122.516" stroke="#443D78" stroke-linecap="round" stroke-linejoin="round"/>
<path id="Vector_24" d="M117.476 142.565L117.954 131.897" stroke="#443D78" stroke-linecap="round" stroke-linejoin="round"/>
<path id="Vector_25" d="M126.632 224.259H114.994L116.935 154.767V154.762L116.994 153.532L116.999 153.48L117.1 151.082" stroke="#443D78" stroke-linecap="round" stroke-linejoin="round"/>
<path id="Vector_26" d="M126.632 224.259C126.425 214.475 124.563 173.136 124.357 161.442C124.288 157.777 124.229 154.207 124.176 150.936C124.134 148.067 124.091 145.408 124.065 143.083V142.963" stroke="#443D78" stroke-linecap="round" stroke-linejoin="round"/>
<path id="Vector_27" d="M124.106 132.253C124.027 132.253 124.038 134.168 124.064 137.728" stroke="#443D78" stroke-linecap="round" stroke-linejoin="round"/>
<path id="Vector_28" d="M122.409 122.087C121.088 122.5 115.97 124.181 115.418 125.086C114.649 126.369 114.681 130.133 114.729 131.714L112.342 131.572C112.294 129.646 112.315 125.981 113.1 124.688C113.742 123.935 115.301 123.176 116.813 122.595C117.946 122.316 119.099 122.122 120.261 122.014C120.978 121.998 121.695 122.023 122.409 122.087Z" fill="#443D78"/>
<path id="Vector_29" d="M126.759 122.6C126.759 122.6 123.682 123.987 123.125 125.464C122.659 126.694 122.802 130.824 122.866 132.185L120.447 132.038C120.447 130.321 120.5 126.244 120.744 125.181C121.051 123.83 125.39 122.412 125.39 122.412L126.425 122.553L126.759 122.6Z" fill="#443D78"/>
<path id="Vector_30" d="M124.176 150.909C122.769 151.214 121.339 151.405 119.9 151.48V161.672C121.389 161.856 122.899 161.771 124.356 161.421" stroke="#443D78" stroke-linecap="round" stroke-linejoin="round"/>
<path id="Vector_31" d="M117.953 131.897C119.549 133.663 121.731 134.81 124.106 135.132L124.075 132.137L117.953 131.897Z" fill="#443D78"/>
<path id="Vector_32" opacity="0.1" d="M124.064 143.037L122.139 145.214V145.157L121.418 146.042L120.999 146.513V146.549L117.211 151.125L116.845 154.846L120.914 150.659C120.914 150.91 120.914 151.182 120.914 151.407C120.866 154.695 120.818 158.181 120.765 161.741C120.58 174.1 120.346 214.355 120.171 224.254C121.805 223.84 125.014 224.751 126.626 224.254H126.664L124.064 143.026V143.037Z" fill="#443D78"/>
<path id="Vector_33" opacity="0.1" d="M162.898 152.93L152.565 142.607C152.565 142.607 148.528 137.922 147.531 136.095C146.534 134.268 142.672 131.232 139.829 130.102C139.247 130.531 138.628 130.907 137.978 131.227V131.19C133.612 130.499 128.775 128.217 129.576 124.987C130.377 121.757 132.355 121.574 132.355 121.574C127.629 120.606 125.852 123.145 125.396 125.432C124.43 125.38 109.822 124.558 108.21 125.296C106.597 126.034 106.592 129.903 107.096 131.269L121.089 132.08C121.089 134.2 121.089 136.98 121.036 140.236C121.592 139.807 122.664 138.953 123.513 138.189C123.332 138.393 123.168 138.577 123.025 138.713C121.524 140.283 116.596 143.131 112.946 146.125C109.297 149.119 105.971 156.328 105.971 156.328C112.363 148.748 119.789 143.691 123.582 141.037C127.083 138.587 129.793 133.185 130.196 132.352C130.99 132.774 131.6 133.466 131.915 134.3L131.559 135.232C131.713 135.327 131.889 135.382 132.07 135.391C132.251 135.4 132.431 135.363 132.594 135.284C133.151 134.928 134.302 132.436 134.302 132.436L135.835 132.049H135.872L136.641 131.855L163.051 156.076C163.051 156.076 164.378 157.579 165.221 157.165C166.064 156.752 162.898 152.93 162.898 152.93ZM126.711 130.897C126.266 130.361 125.939 129.739 125.751 129.07C126.008 129.709 126.33 130.321 126.711 130.897ZM124.059 137.535V132.253L127.003 132.426V131.515C127.149 131.994 127.368 132.45 127.65 132.865C126.844 134.012 125.284 136.085 124.107 137.535H124.059ZM128.303 132.012C128.802 131.975 129.303 132.037 129.777 132.195L128.303 132.012Z" fill="#443D78"/>
<path id="Vector_34" opacity="0.1" d="M130.25 112.916C130.917 114.829 131.385 116.804 131.645 118.81L131.077 118.915V118.999H133.358C133.358 118.999 133.835 115.638 132.398 110.199C130.96 104.76 131.57 89.2967 133.804 78.2043L133.835 78.0367C133.613 78.7801 133.4 79.5234 133.21 80.2249C132.074 84.4493 128.218 99.1694 128.467 104.001C128.717 108.833 129.046 109.257 130.25 112.916Z" fill="#443D78"/>
</g>
<g id="freepik--wind-turbine-1--inject-148">
<path id="Vector_35" d="M137.235 110.408L130.159 104.713C130.159 104.713 119.635 94.2433 117.959 91.2176C116.283 88.1919 113.673 85.8101 108.942 83.9361L108.793 83.8733C109.441 83.5264 109.969 82.9973 110.311 82.3531C110.653 81.709 110.793 80.979 110.713 80.2561C110.48 77.6387 106.263 73.4928 103.345 72.048L102.651 65.4837H101.452L101.091 61.4477C101.091 61.4477 101.42 43.3826 102.38 31.9604C103.34 20.5382 104.189 14.7957 104.709 7.83349C105.229 0.871288 106.167 2.24279 104.247 1.05974C102.656 0.080843 98.4814 11.4402 98.1684 12.5762C96.2747 19.6012 91.1401 33.625 91.1401 41.6656C91.1401 48.5336 90.1057 51.1457 92.9913 55.3544C96.6142 60.6415 95.3093 65.1486 95.3093 65.1486L94.3652 65.3214L93.596 65.4575L93.2459 67.6247L92.9913 69.2736C92.9913 69.2736 89.0714 69.1009 87.1565 71.446C82.3505 70.4146 77.3931 70.2655 72.5324 71.0063C64.3265 72.226 57.2664 75.0266 55.8872 76.241C54.5081 77.4555 53.4578 82.9939 54.4763 85.8311L72.5111 86.878V86.967L82.669 87.7941V87.7575H83.4912L88.228 87.7836L88.3394 88.2495L89.4003 89.3593C88.1378 91.3014 85.8039 93.4215 84.5149 94.8924C84.0124 95.4602 83.387 95.9092 82.6849 96.2063V96.1173C81.0565 97.7768 78.3088 100.441 76.1287 101.818C74.4419 102.865 72.3414 104.278 70.6758 105.393C68.5541 107.016 65.2017 110.722 62.1888 115.863C59.038 121.244 53.3305 130.421 50.2964 134.142C48.9173 138 56.3752 132.792 56.3752 132.792C56.3752 132.792 67.0158 120.558 69.058 118.135C69.9491 117.088 81.8999 104.074 81.8999 104.074L87.9097 97.6616L94.0363 91.605C94.404 91.8978 94.7864 92.1721 95.182 92.4268C95.4396 92.5843 95.7337 92.6742 96.0363 92.688C96.339 92.7017 96.6402 92.6389 96.9113 92.5054C97.8289 91.9191 99.7491 87.7941 99.7491 87.7941L102.306 87.1502H102.364L104.024 86.7262L104.82 87.6318L139.447 115.664L140.773 115.721L140.206 114.025L137.235 110.408Z" fill="white"/>
<path id="Vector_36" d="M76.6004 110.084L75.5236 134.31L73.8474 171.985L72.0864 211.465H90.2963L87.9146 97.7142L76.6004 110.084Z" fill="white"/>
<path id="Vector_37" d="M87.9097 96.4734V88.145L77.7518 87.3179L76.9615 104.959C76.9615 104.959 76.5636 105.247 75.9006 105.749C77.5662 104.634 79.672 103.242 81.3535 102.179C83.5336 100.803 86.2866 98.1328 87.9097 96.4734Z" fill="white"/>
<path id="Vector_38" d="M105.908 85.7472L104.751 86.4016L103.648 86.8465L102.37 87.1658H102.311L99.7545 87.8097C99.7545 87.8097 97.8343 91.9504 96.9167 92.521C96.3385 92.8874 94.3865 92.2435 93.9409 91.9975L95.633 89.9455C95.633 89.9455 95.1609 86.8046 90.9651 87.1815L89.4057 89.5424C89.4057 89.5424 87.5969 86.6319 87.6764 86.2236C87.756 85.8153 85.1834 83.1403 84.7855 79.2143C84.3877 75.2882 86.3503 67.6193 96.54 69.7028C96.54 69.7028 93.246 70.0168 91.9093 75.3772C90.5726 80.7376 98.6459 84.5903 105.908 85.7472Z" fill="#A9E8CB"/>
<path id="Vector_39" d="M76.1338 116.49L85.8302 106.544L84.9815 100.922L76.7438 110.308L76.1338 116.49Z" fill="#A9E8CB"/>
<path id="Vector_40" d="M83.0511 79.8161V78.5336L88.61 83.9358L88.1592 87.5111V96.5097C86.5506 98.0156 84.8651 99.4396 83.1094 100.776C83.2314 88.4639 83.2632 80.2244 83.0511 79.8161Z" fill="#A9E8CB"/>
<path id="Vector_41" d="M90.2968 224.259H81.237C81.4651 211.931 83.4383 138.98 83.8892 101.986L87.8781 98.2115L90.2968 224.259Z" fill="#A9E8CB"/>
<path id="Vector_42" d="M140.418 115.905C139.017 116.591 104.215 86.6165 104.215 86.6165L103.505 86.2657C105.555 85.8778 107.478 85.0008 109.106 83.7112C113.838 85.5852 117.391 89.7521 119.036 92.7463C120.68 95.7406 129.904 103.478 129.904 103.478L138.604 111.911C138.604 111.911 141.813 115.214 140.418 115.905Z" fill="#A9E8CB"/>
<path id="Vector_43" d="M85.0398 76.1833C85.0398 76.1833 59.1121 74.6757 56.3379 75.9478C53.5637 77.2198 53.6379 83.6062 54.4813 85.8938L87.6496 87.8097V86.2968L87.7291 85.8885C87.7291 85.8885 84.3237 83.5172 85.0398 76.1833Z" fill="#A9E8CB"/>
<path id="Vector_44" d="M93.007 87.5112C93.007 87.5112 89.0658 99.237 81.9049 102.121C68.8243 107.398 63.4457 118.511 52.7945 131.111C52.7945 131.111 60.3745 118.716 64.5968 112.115C70.84 102.341 77.5341 99.5511 80.6372 97.7137C84.924 95.1451 88.4781 91.5423 90.9648 87.2443L93.007 87.5112Z" fill="#A9E8CB"/>
<path id="Vector_45" d="M96.582 50.8681C99.2342 59.8299 98.1734 65.4834 98.1734 65.4834H94.4019V65.3473L95.3461 65.1746C95.3461 65.1746 96.476 62.6881 93.5373 56.9979C92.1317 54.2759 91.6437 55.0506 91.0602 47.0519C90.4767 39.0533 97.6376 10.7647 102.199 2.94403C102.756 1.88662 91.649 34.1954 96.582 50.8681Z" fill="#A9E8CB"/>
<path id="Vector_46" d="M93.0073 69.2997C89.9572 69.4096 87.6127 70.1111 86.1593 72.964C84.0376 77.1518 84.2444 82.7425 87.7506 85.8729" stroke="#443D78" stroke-width="1.02127" stroke-linecap="round" stroke-linejoin="round"/>
<path id="Vector_47" d="M99.7541 87.8309C105.451 86.7212 110.517 83.6431 110.724 80.7954C110.93 77.9477 107.541 74.2729 102.926 71.8126" stroke="#443D78" stroke-width="1.02127" stroke-linecap="round" stroke-linejoin="round"/>
<path id="Vector_48" d="M103.361 72.0478L102.667 65.4834H93.612L93.0073 69.2995C93.0073 69.2995 94.7312 69.2419 98.1843 70.1633" stroke="#443D78" stroke-width="1.02127" stroke-linecap="round" stroke-linejoin="round"/>
<path id="Vector_49" d="M95.5691 65.4836C95.5691 65.4836 96.2799 61.9868 92.4342 55.2601C88.5885 48.5335 92.3918 32.667 95.6168 21.2343C98.8419 9.80166 101.552 1.55695 104.263 1.04918C106.973 0.541411 101.982 30.1177 101.696 42.9271C101.409 55.7365 100.391 58.9559 100.927 65.4626" stroke="#443D78" stroke-width="1.02127" stroke-linecap="round" stroke-linejoin="round"/>
<path id="Vector_50" d="M95.6326 89.9926C95.6326 89.9926 93.7973 86.3283 90.9648 87.2287C88.5725 90.6103 85.7294 94.4526 82.0906 96.7926C78.2714 99.2529 74.2613 101.048 70.9938 104.194C67.8959 107.308 65.2213 110.807 63.0372 114.601C59.1969 120.972 56.0196 127.766 50.9008 133.336C50.4712 133.807 49.9991 134.451 50.3439 134.98C50.6887 135.509 51.7389 135.378 52.4126 135.053C56.6083 133.012 59.1757 129.18 62.109 125.924C64.4376 123.343 66.7503 120.752 69.0789 118.171C74.431 112.251 79.8044 106.351 85.2679 100.525C87.3313 98.3211 89.4106 96.1225 91.5323 93.9606C91.8294 93.6569 95.7281 90.202 95.6326 89.9926Z" stroke="#443D78" stroke-width="1.02127" stroke-linecap="round" stroke-linejoin="round"/>
<path id="Vector_51" d="M88.7425 88.7153C88.7425 88.7153 87.7187 87.0559 87.6816 86.2812C87.6445 85.5064 89.4108 83.0356 89.4108 83.0356" stroke="#443D78" stroke-width="1.02127" stroke-linecap="round" stroke-linejoin="round"/>
<path id="Vector_52" d="M94.7308 92.2017C94.7308 92.2017 96.4759 93.0026 97.139 92.2017C97.802 91.4008 100.025 87.3386 100.025 87.3386C100.025 87.3386 97.0117 83.5225 94.7202 83.0356" stroke="#443D78" stroke-width="1.02127" stroke-linecap="round" stroke-linejoin="round"/>
<path id="Vector_53" d="M104.03 86.6112C110.888 92.5631 138.317 115.926 140.099 115.926C142.12 115.926 139.267 112.617 137.781 110.916C136.296 109.215 122.16 97.9183 118.256 91.6052C116.014 88.1112 112.717 85.3996 108.83 83.8525" stroke="#443D78" stroke-width="1.02127" stroke-linecap="round" stroke-linejoin="round"/>
<path id="Vector_54" d="M88.2434 87.8309L80.674 87.3754L76.6533 87.1346L67.1691 86.6112L63.1855 86.3808L54.481 85.8574C54.481 85.8574 52.9958 78.0053 56.3376 75.9114C58.5972 74.5085 65.4399 72.5507 70.6594 71.3885C72.5433 70.9247 74.4601 70.6027 76.3934 70.4254C77.5747 70.4114 78.7558 70.4621 79.9314 70.5772C81.6129 70.7237 83.4164 70.9384 84.8645 71.1268C85.5381 71.2053 86.6839 71.2263 87.1454 71.2943" stroke="#443D78" stroke-width="1.02127" stroke-linecap="round" stroke-linejoin="round"/>
<path id="Vector_55" d="M77.4284 99.4413L77.9483 87.6683" stroke="#443D78" stroke-width="1.02127" stroke-linecap="round" stroke-linejoin="round"/>
<path id="Vector_56" d="M87.915 97.7142C88.3341 133.049 90.2967 224.259 90.2967 224.259H72.0921L76.6008 110.084" stroke="#443D78" stroke-width="1.02127" stroke-linecap="round" stroke-linejoin="round"/>
<path id="Vector_57" d="M79.9481 70.6242C77.7574 71.3152 69.2333 74.0844 68.3103 75.6129C67.0267 77.7435 67.085 83.9885 67.1699 86.6059L63.1863 86.3755C63.1121 83.1719 63.1492 77.0891 64.4594 74.9376C65.5202 73.6813 68.1194 72.425 70.6761 71.4199C72.56 70.9561 74.4768 70.6341 76.4101 70.4567C77.5917 70.448 78.7728 70.5039 79.9481 70.6242Z" fill="#443D78"/>
<path id="Vector_58" d="M87.1618 71.4719C87.1618 71.4719 82.043 73.7648 81.1413 76.2251C80.3616 78.2666 80.6109 85.1241 80.701 87.396L76.6803 87.1552C76.6803 84.297 76.7599 77.5233 77.1683 75.7644C77.6988 73.5187 84.9074 71.1631 84.9074 71.1631L86.6313 71.3934L87.1618 71.4719Z" fill="#443D78"/>
<path id="Vector_59" d="M88.3128 124.243C85.9708 124.755 83.5898 125.074 81.1943 125.196V142.125C83.6748 142.435 86.1917 142.293 88.6204 141.707" stroke="#443D78" stroke-width="1.02127" stroke-linecap="round" stroke-linejoin="round"/>
<path id="Vector_60" d="M88.1374 91.1444C87.6335 91.6941 87.0765 92.2594 86.5938 92.7567C83.1539 91.8556 80.0826 89.9222 77.8045 87.2236L88.1056 88.0717L88.1374 91.1444Z" fill="#443D78"/>
</g>
<g id="freepik--Plants--inject-148">
<path id="Vector_61" d="M139.643 227.87C140.004 225.107 140.174 220.018 137.378 217.244C133.373 213.292 127.369 219.709 125.868 219.709C124.367 219.709 123.863 215.762 119.359 212.302C114.856 208.842 109.35 213.292 106.348 212.302C103.345 211.313 108.851 196.007 100.343 195.515C91.8349 195.022 88.8326 216.255 82.8387 216.255C76.8448 216.255 75.8316 212.302 69.8271 215.763C65.1221 218.469 62.5707 225.112 61.6849 227.87H139.643Z" fill="#A9E8CB"/>
<path id="Vector_62" opacity="0.2" d="M139.643 227.87C140.004 225.107 140.174 220.018 137.378 217.244C133.373 213.292 127.369 219.709 125.868 219.709C124.367 219.709 123.863 215.762 119.359 212.302C114.856 208.842 109.35 213.292 106.348 212.302C103.345 211.313 108.851 196.007 100.343 195.515C91.8349 195.022 88.8326 216.255 82.8387 216.255C76.8448 216.255 75.8316 212.302 69.8271 215.763C65.1221 218.469 62.5707 225.112 61.6849 227.87H139.643Z" fill="#443D78"/>
<path id="Vector_63" d="M77.9962 227.536L72.9093 219.375" stroke="#443D78" stroke-linecap="round" stroke-linejoin="round"/>
<path id="Vector_64" d="M97.5267 227.321L100.211 202.367" stroke="#443D78" stroke-linecap="round" stroke-linejoin="round"/>
<path id="Vector_65" d="M113.032 227.536L115.652 218.05" stroke="#443D78" stroke-linecap="round" stroke-linejoin="round"/>
<path id="Vector_66" d="M132.079 227.536L134.673 221.359" stroke="#443D78" stroke-linecap="round" stroke-linejoin="round"/>
<path id="Vector_67" d="M78.728 219.594L76.044 224.232L69.7796 221.803" stroke="#443D78" stroke-linecap="round" stroke-linejoin="round"/>
<path id="Vector_68" d="M96.1846 204.356L99.3142 209.879L103.568 204.796" stroke="#443D78" stroke-linecap="round" stroke-linejoin="round"/>
<path id="Vector_69" d="M94.392 213.193L98.4233 218.051L102.449 214.957" stroke="#443D78" stroke-linecap="round" stroke-linejoin="round"/>
<path id="Vector_70" d="M114.532 222.243L119.9 219.155" stroke="#443D78" stroke-linecap="round" stroke-linejoin="round"/>
<path id="Vector_71" d="M114.087 224.013L111.398 217.166" stroke="#443D78" stroke-linecap="round" stroke-linejoin="round"/>
<path id="Vector_72" d="M133.331 224.672L131.984 220.254" stroke="#443D78" stroke-linecap="round" stroke-linejoin="round"/>
<path id="Vector_73" d="M132.88 225.557L136.683 224.013" stroke="#443D78" stroke-linecap="round" stroke-linejoin="round"/>
</g>
<g id="freepik--Clouds--inject-148">
<path id="Vector_74" d="M196.872 63.6776H218.748C218.748 63.6776 219.808 60.4948 215.931 58.4062C212.053 56.3175 210.282 58.0555 208.871 56.3123C207.46 54.5691 212.754 50.0306 202.166 45.513C202.166 45.513 201.455 35.7241 186.98 35.4047C172.504 35.0854 176.371 45.1937 172.509 47.6436C168.648 50.0934 167.55 46.2459 163.678 48.6905C159.805 51.1351 161.556 56.0191 158.373 56.6996C155.191 57.3802 150.947 53.5588 147.075 56.0087C143.203 58.4585 143.187 60.5367 141.42 60.5367C139.654 60.5367 136.116 59.139 133.994 60.5367C131.873 61.9344 129.401 63.6776 129.401 63.6776H192.401" stroke="#443D78" stroke-miterlimit="10"/>
<path id="Vector_75" d="M2.15412 126.112H52.2168C52.2168 126.112 50.843 125.133 49.6389 124.353C48.4348 123.573 46.4562 124.353 45.4696 124.353C44.483 124.353 44.4671 123.181 42.287 121.815C40.1069 120.448 37.7359 122.579 35.9589 122.207C34.1819 121.836 35.1579 119.066 32.9938 117.716C30.8296 116.365 30.2249 118.501 28.0448 117.13C25.8647 115.758 28.0448 110.099 19.9344 110.277C11.824 110.455 11.4474 115.941 11.4474 115.941C5.51179 118.475 8.48224 121.019 7.68658 121.993C6.89092 122.966 5.90431 121.993 3.73482 123.16C1.56533 124.327 2.15412 126.112 2.15412 126.112Z" stroke="#443D78" stroke-miterlimit="10"/>
</g>
<g id="freepik--Wind--inject-148">
<path id="Vector_76" d="M168.579 91.6001C172.941 91.5155 177.294 92.0317 181.511 93.1339C187.436 94.6729 193.117 97.2222 199.185 98.0388C205.253 98.8555 212.149 97.5154 215.873 92.7308" stroke="#443D78" stroke-linecap="round" stroke-linejoin="round"/>
<path id="Vector_77" d="M145.664 99.5777C150.894 95.191 157.418 92.7307 164.229 91.9036" stroke="#443D78" stroke-linecap="round" stroke-linejoin="round"/>
<path id="Vector_78" d="M205.482 105.697C209.561 105.174 213.412 103.519 215.873 100.347" stroke="#443D78" stroke-linecap="round" stroke-linejoin="round"/>
<path id="Vector_79" d="M145.664 107.194C155.286 99.1222 169.3 97.5675 181.511 100.745C187.436 102.284 193.117 104.833 199.185 105.65C200.322 105.804 201.469 105.879 202.617 105.875" stroke="#443D78" stroke-linecap="round" stroke-linejoin="round"/>
<path id="Vector_80" d="M191.191 111.366C193.796 112.223 196.47 112.859 199.185 113.267C205.264 114.073 212.159 112.759 215.872 107.959" stroke="#443D78" stroke-linecap="round" stroke-linejoin="round"/>
<path id="Vector_81" d="M173.173 106.964C175.989 107.183 178.779 107.651 181.511 108.362C184.232 109.068 186.9 109.99 189.574 110.853" stroke="#443D78" stroke-linecap="round" stroke-linejoin="round"/>
<path id="Vector_82" d="M145.664 114.811C151.594 109.838 159.19 107.336 167.003 106.896" stroke="#443D78" stroke-linecap="round" stroke-linejoin="round"/>
</g>
</g>
</svg>
