<?xml version="1.0" encoding="utf-8"?>
<!-- Generator: Adobe Illustrator 26.0.2, SVG Export Plug-In . SVG Version: 6.00 Build 0)  -->
<svg version="1.1" id="Layer_1" xmlns="http://www.w3.org/2000/svg" xmlns:xlink="http://www.w3.org/1999/xlink" x="0px" y="0px"
	 viewBox="0 0 283.46 283.46" style="enable-background:new 0 0 283.46 283.46;" xml:space="preserve">
<style type="text/css">
	.st0{fill:#008D36;}
	.st1{fill:#FFFFFF;}
</style>
<g>
	<g>
		<path class="st0" d="M-850.86,349.76L-850.86,349.76c-1.81,1.44-3.42,3.11-4.78,4.98h0c-2.73,3.76-6.44,6.7-10.72,8.49l0,0
			c-2.13,0.89-4.13,2.07-5.95,3.51l0,0c-3.64,2.89-8.01,4.71-12.62,5.29l0,0c-2.29,0.29-4.54,0.88-6.67,1.78l0,0
			c-4.29,1.8-8.98,2.38-13.58,1.69l0,0c-2.29-0.34-4.61-0.37-6.9-0.09l0,0c-4.61,0.57-9.29-0.13-13.53-2.04l0,0
			c-2.11-0.95-4.34-1.6-6.62-1.95l0,0c-4.59-0.69-8.91-2.63-12.48-5.61l0,0c-1.77-1.48-3.74-2.71-5.85-3.66l0,0
			c-4.24-1.91-7.87-4.94-10.5-8.77h0c-1.31-1.91-2.87-3.62-4.65-5.11l0,0c-3.57-2.98-6.24-6.88-7.74-11.28l0,0
			c-0.75-2.19-1.79-4.26-3.1-6.17l0,0c-2.63-3.83-4.16-8.31-4.41-12.95l0,0c-0.13-2.31-0.57-4.59-1.32-6.78l0,0
			c-1.5-4.4-1.76-9.12-0.76-13.66l0,0c0.5-2.26,0.69-4.57,0.56-6.88l0,0c-0.26-4.64,0.77-9.26,2.96-13.36l0,0
			c1.09-2.04,1.9-4.22,2.4-6.48l0,0c1-4.54,3.24-8.71,6.45-12.06l0,0c1.6-1.67,2.96-3.55,4.05-5.59l0,0
			c2.19-4.1,5.47-7.51,9.47-9.88v0c1.99-1.18,3.81-2.62,5.41-4.29l0,0c3.21-3.35,7.29-5.76,11.78-6.96h0
			c2.23-0.59,4.38-1.49,6.37-2.67l0,0c4-2.36,8.57-3.58,13.22-3.52l0,0c2.31,0.03,4.62-0.26,6.85-0.85l0,0
			c4.49-1.2,9.22-1.13,13.68,0.18h0c2.22,0.65,4.52,1,6.83,1.03h0c4.65,0.06,9.19,1.4,13.12,3.86v0c1.96,1.23,4.08,2.18,6.3,2.83
			l0,0c4.46,1.31,8.47,3.82,11.6,7.26v0c1.56,1.71,3.34,3.2,5.3,4.43v0c3.94,2.47,7.12,5.97,9.21,10.12l0,0
			c1.04,2.07,2.35,3.98,3.91,5.69v0c3.13,3.44,5.25,7.67,6.14,12.23l0,0c0.44,2.27,1.19,4.47,2.23,6.54v0
			c2.08,4.15,2.99,8.8,2.61,13.43v0c-0.19,2.3-0.06,4.62,0.38,6.89l0,0c0.89,4.56,0.5,9.28-1.11,13.63l0,0
			c-0.8,2.17-1.3,4.44-1.49,6.74v0c-0.38,4.63-2.02,9.07-4.75,12.83v0c-1.36,1.87-2.45,3.92-3.26,6.09l0,0
			C-844.44,343.05-847.22,346.88-850.86,349.76z"/>
		<path class="st1" d="M-897.66,296.67c-12.67,0-22.97,10.31-22.97,22.97c0,4.65,1.39,8.98,3.77,12.6
			c-10.66-6.23-18.04-17.47-18.89-30.47c22.66-1.38,40.67-20.26,40.67-43.26c0-1.43-1.16-2.59-2.59-2.59
			c-23.08,0-42,18.13-43.28,40.9c-6.14,0.67-11.55,3.77-15.27,8.31v-5.86c0-1.43-1.16-2.59-2.59-2.59c-1.43,0-2.59,1.16-2.59,2.59
			v20.38c0,1.43,1.16,2.59,2.59,2.59c1.43,0,2.59-1.16,2.59-2.59c0-8.96,6.66-16.39,15.29-17.61c1.42,22.49,20.08,40.38,42.88,40.58
			c0.12,0,0.25,0,0.38,0c0.04,0,0.09,0,0.13,0c12.61-0.07,22.84-10.34,22.84-22.96C-874.69,306.97-885,296.67-897.66,296.67z
			 M-900.35,261.19c-1.32,18.91-16.48,34.07-35.39,35.39C-934.42,277.66-919.26,262.5-900.35,261.19z M-897.66,337.43
			c-9.81,0-17.79-7.98-17.79-17.79c0-9.81,7.98-17.79,17.79-17.79c9.81,0,17.79,7.98,17.79,17.79
			C-879.87,329.45-887.85,337.43-897.66,337.43z"/>
		<path id="SVGID_x5F_1_x5F_" style="fill:none;" d="M-853.65,282.98c9.36,29.85-7.25,61.63-37.09,70.99s-61.63-7.25-70.99-37.09
			c-9.36-29.85,7.25-61.63,37.09-70.99S-863.01,253.13-853.65,282.98z"/>
		<text>		<textPath  xlink:href="#SVGID_x5F_1_x5F_" startOffset="87.2477%">
<tspan  class="st1" style="font-family:'Montserrat-Bold'; font-size:11.313px; letter-spacing:209;">TYLKO ZIELONA ENERGIA OD REO.PL</tspan>		</textPath>
</text>
	</g>
	<g>
		<g>
			<path class="st0" d="M-474.09,349.76L-474.09,349.76c-1.81,1.44-3.42,3.11-4.78,4.98h0c-2.73,3.76-6.44,6.7-10.72,8.49l0,0
				c-2.13,0.89-4.13,2.07-5.95,3.51h0c-3.64,2.89-8.01,4.71-12.62,5.29l0,0c-2.29,0.29-4.54,0.88-6.67,1.78l0,0
				c-4.29,1.8-8.98,2.38-13.58,1.69l0,0c-2.29-0.34-4.61-0.37-6.9-0.09l0,0c-4.61,0.57-9.29-0.13-13.53-2.04l0,0
				c-2.11-0.95-4.34-1.6-6.62-1.95h0c-4.59-0.69-8.91-2.63-12.48-5.61l0,0c-1.77-1.48-3.74-2.71-5.85-3.66h0
				c-4.24-1.91-7.87-4.94-10.5-8.77l0,0c-1.31-1.91-2.87-3.62-4.65-5.11v0c-3.57-2.98-6.24-6.88-7.74-11.28l0,0
				c-0.75-2.19-1.79-4.26-3.1-6.17l0,0c-2.63-3.83-4.16-8.31-4.41-12.95l0,0c-0.13-2.31-0.57-4.59-1.32-6.78l0,0
				c-1.5-4.4-1.76-9.12-0.76-13.66l0,0c0.5-2.26,0.69-4.57,0.56-6.88l0,0c-0.26-4.64,0.77-9.26,2.96-13.36l0,0
				c1.09-2.04,1.9-4.22,2.4-6.48l0,0c1-4.54,3.24-8.71,6.45-12.06l0,0c1.6-1.67,2.96-3.55,4.05-5.59l0,0
				c2.19-4.1,5.47-7.51,9.47-9.88v0c1.99-1.18,3.81-2.62,5.41-4.29l0,0c3.21-3.35,7.29-5.76,11.78-6.96l0,0
				c2.23-0.59,4.38-1.49,6.37-2.67l0,0c4-2.36,8.57-3.58,13.22-3.52l0,0c2.31,0.03,4.62-0.26,6.85-0.85l0,0
				c4.49-1.2,9.22-1.13,13.68,0.18l0,0c2.22,0.65,4.52,1,6.83,1.03l0,0c4.65,0.06,9.19,1.4,13.12,3.86v0
				c1.96,1.23,4.08,2.18,6.3,2.83l0,0c4.46,1.31,8.47,3.82,11.6,7.26v0c1.56,1.71,3.34,3.2,5.3,4.43l0,0
				c3.94,2.47,7.12,5.97,9.21,10.12h0c1.04,2.07,2.35,3.98,3.91,5.69v0c3.13,3.44,5.25,7.67,6.14,12.23l0,0
				c0.44,2.27,1.19,4.47,2.23,6.54v0c2.08,4.15,2.99,8.8,2.61,13.43v0c-0.19,2.3-0.06,4.62,0.38,6.89l0,0
				c0.89,4.56,0.5,9.28-1.11,13.63l0,0c-0.8,2.17-1.3,4.44-1.49,6.74v0c-0.38,4.63-2.02,9.07-4.75,12.83v0
				c-1.36,1.87-2.45,3.92-3.26,6.09l0,0C-467.67,343.05-470.45,346.88-474.09,349.76z"/>
		</g>
		<g>
			<path class="st1" d="M-520.9,296.67c-12.67,0-22.97,10.31-22.97,22.97c0,4.65,1.39,8.98,3.77,12.6
				c-10.66-6.23-18.04-17.47-18.89-30.47c22.66-1.38,40.67-20.26,40.67-43.26c0-1.43-1.16-2.59-2.59-2.59
				c-23.08,0-42,18.13-43.28,40.9c-6.14,0.67-11.55,3.77-15.27,8.31v-5.86c0-1.43-1.16-2.59-2.59-2.59c-1.43,0-2.59,1.16-2.59,2.59
				v20.38c0,1.43,1.16,2.59,2.59,2.59c1.43,0,2.59-1.16,2.59-2.59c0-8.96,6.66-16.39,15.29-17.61
				c1.42,22.49,20.08,40.38,42.88,40.58c0.12,0,0.25,0,0.38,0c0.04,0,0.09,0,0.13,0c12.61-0.07,22.84-10.34,22.84-22.96
				C-497.93,306.97-508.23,296.67-520.9,296.67z M-523.58,261.19c-1.32,18.91-16.48,34.07-35.39,35.39
				C-557.65,277.66-542.49,262.5-523.58,261.19z M-520.9,337.43c-9.81,0-17.79-7.98-17.79-17.79c0-9.81,7.98-17.79,17.79-17.79
				c9.81,0,17.79,7.98,17.79,17.79C-503.11,329.45-511.09,337.43-520.9,337.43z"/>
		</g>
		<g>
			<path class="st1" d="M-578.84,258.95l-1.67,1.9l-1.12-0.99l4.56-5.18l1.12,0.99l-1.67,1.9l4.83,4.24l-1.21,1.38L-578.84,258.95z"
				/>
			<path class="st1" d="M-567.89,253.38l1.78,2.17l-1.42,1.16l-1.79-2.19l-5.6-1.99l1.5-1.23l3.87,1.38l-0.6-4.06l1.39-1.14
				L-567.89,253.38z"/>
			<path class="st1" d="M-565.35,245.27l1.59-0.92l3.21,5.57l3.44-1.99l0.75,1.29l-5.03,2.9L-565.35,245.27z"/>
			<path class="st1" d="M-551.95,244.02l-0.61,1.41l0.69,1.88l-1.71,0.63l-2.74-7.43l1.71-0.63l1.28,3.47l2.01-4.68l1.91-0.71
				l-1.86,4.45l4.78,2.92l-2.01,0.74L-551.95,244.02z"/>
			<path class="st1" d="M-542.51,244.05c-0.71-0.24-1.3-0.63-1.77-1.19c-0.47-0.55-0.77-1.21-0.9-1.98
				c-0.13-0.76-0.06-1.49,0.2-2.16s0.69-1.24,1.28-1.7s1.29-0.76,2.1-0.89c0.81-0.14,1.57-0.08,2.27,0.16
				c0.71,0.24,1.3,0.64,1.77,1.19c0.48,0.55,0.78,1.21,0.91,1.98c0.13,0.77,0.06,1.49-0.21,2.16c-0.27,0.68-0.7,1.24-1.28,1.7
				c-0.59,0.46-1.29,0.76-2.1,0.89C-541.04,244.34-541.8,244.29-542.51,244.05z M-539.29,242.13c0.34-0.28,0.58-0.62,0.73-1.04
				c0.15-0.42,0.18-0.86,0.1-1.35c-0.08-0.48-0.26-0.9-0.54-1.24s-0.62-0.59-1.03-0.74c-0.41-0.15-0.84-0.18-1.3-0.11
				c-0.46,0.08-0.86,0.25-1.2,0.53s-0.58,0.62-0.73,1.03c-0.15,0.42-0.18,0.86-0.1,1.35c0.08,0.48,0.26,0.9,0.54,1.24
				c0.28,0.34,0.62,0.59,1.03,0.74c0.41,0.15,0.84,0.19,1.3,0.11S-539.63,242.41-539.29,242.13z"/>
			<path class="st1" d="M-520.65,242.59l-0.17,1.48l-6.88-0.8l0.14-1.18l4.92-4.7l-4.23-0.49l0.17-1.48l6.62,0.77l-0.14,1.18
				l-4.91,4.7L-520.65,242.59z"/>
			<path class="st1" d="M-515.67,237.18l1.77,0.46l-1.98,7.67l-1.78-0.46L-515.67,237.18z"/>
			<path class="st1" d="M-505.85,247.4l-0.56,1.36l-5.67-2.33l3-7.33l5.54,2.27l-0.56,1.36l-3.85-1.58l-0.65,1.59l3.4,1.39
				l-0.54,1.32l-3.4-1.4l-0.7,1.7L-505.85,247.4z"/>
			<path class="st1" d="M-499.16,243.66l1.56,0.96l-3.37,5.47l3.38,2.08l-0.78,1.27l-4.94-3.04L-499.16,243.66z"/>
			<path class="st1" d="M-494.52,255.94c-0.26-0.7-0.32-1.41-0.18-2.12c0.14-0.71,0.46-1.36,0.98-1.94
				c0.52-0.58,1.12-0.98,1.82-1.19c0.69-0.21,1.4-0.23,2.13-0.06s1.4,0.54,2.01,1.08c0.61,0.55,1.05,1.17,1.3,1.87
				c0.25,0.7,0.31,1.41,0.18,2.12c-0.13,0.72-0.46,1.36-0.98,1.94c-0.52,0.58-1.12,0.98-1.82,1.19c-0.7,0.21-1.41,0.23-2.13,0.06
				c-0.73-0.17-1.39-0.53-2.01-1.08S-494.27,256.64-494.52,255.94z M-491.02,257.25c0.42,0.09,0.84,0.06,1.26-0.08
				c0.42-0.14,0.79-0.4,1.11-0.76s0.54-0.76,0.63-1.19c0.1-0.43,0.07-0.85-0.06-1.26c-0.14-0.41-0.38-0.77-0.73-1.08
				c-0.35-0.31-0.74-0.51-1.16-0.6s-0.84-0.07-1.26,0.08c-0.42,0.14-0.79,0.4-1.12,0.76c-0.33,0.37-0.54,0.77-0.63,1.2
				c-0.1,0.43-0.08,0.85,0.06,1.26c0.14,0.41,0.38,0.77,0.73,1.08C-491.83,256.96-491.44,257.16-491.02,257.25z"/>
			<path class="st1" d="M-476.98,264.21l-6.35,4.74l-0.9-1.21l1.49-6.04l-3.85,2.88l-1.08-1.45l6.35-4.74l0.91,1.21l-1.5,6.03
				l3.85-2.88L-476.98,264.21z"/>
			<path class="st1" d="M-477.55,276.24l-1.59-3.31l-1.83,0.1l-0.81-1.69l8.67-0.25l0.78,1.63l-5.6,6.62l-0.83-1.73L-477.55,276.24z
				 M-476.55,275.11l2.19-2.45l-3.28,0.18L-476.55,275.11z"/>
			<path class="st1" d="M-473.1,293.01l-1.45,0.26l-1.08-6.04l7.8-1.39l1.05,5.89l-1.45,0.26l-0.73-4.1l-1.69,0.3l0.65,3.62
				l-1.4,0.25l-0.65-3.62l-1.8,0.32L-473.1,293.01z"/>
			<path class="st1" d="M-466.35,304.05l-7.92-0.06l0.01-1.5l4.84-3.91l-4.81-0.03l0.01-1.81l7.92,0.06l-0.01,1.51l-4.84,3.9
				l4.81,0.04L-466.35,304.05z"/>
			<path class="st1" d="M-474.45,314.16l-1.44-0.28l1.17-6.02l7.78,1.51l-1.14,5.88l-1.44-0.28l0.79-4.09l-1.69-0.33l-0.7,3.61
				l-1.4-0.27l0.7-3.61l-1.8-0.35L-474.45,314.16z"/>
			<path class="st1" d="M-478.67,321.93l2.61-0.63l0.03-0.08l0.57-1.49l-2.06-0.79l0.66-1.71l7.39,2.84l-1.23,3.2
				c-0.25,0.65-0.58,1.18-0.98,1.58c-0.4,0.4-0.86,0.65-1.36,0.76c-0.5,0.11-1.03,0.05-1.58-0.16c-0.55-0.21-0.97-0.53-1.27-0.94
				c-0.3-0.42-0.46-0.91-0.48-1.48l-3.01,0.74L-478.67,321.93z M-472.84,323.67c0.33-0.18,0.59-0.53,0.78-1.04l0.54-1.39l-2.58-0.99
				l-0.54,1.39c-0.2,0.51-0.24,0.95-0.11,1.3c0.12,0.35,0.39,0.61,0.8,0.77C-473.53,323.86-473.16,323.85-472.84,323.67z"/>
			<path class="st1" d="M-480.2,333.41l-0.88,1.43l-2.74-1.68c-0.05-0.54,0-1.09,0.15-1.66c0.15-0.57,0.37-1.1,0.67-1.59
				c0.43-0.7,0.97-1.24,1.61-1.61c0.64-0.38,1.33-0.56,2.05-0.55c0.73,0.01,1.42,0.22,2.09,0.63c0.67,0.41,1.17,0.94,1.5,1.58
				c0.33,0.64,0.48,1.34,0.43,2.09c-0.05,0.75-0.29,1.48-0.73,2.18c-0.36,0.59-0.79,1.07-1.29,1.42c-0.5,0.36-1.03,0.59-1.61,0.68
				l-0.31-1.57c0.8-0.17,1.42-0.59,1.83-1.28c0.26-0.43,0.41-0.87,0.44-1.31c0.03-0.44-0.07-0.86-0.28-1.25
				c-0.21-0.39-0.53-0.71-0.96-0.97c-0.42-0.26-0.85-0.39-1.29-0.41c-0.44-0.01-0.86,0.09-1.24,0.3c-0.39,0.22-0.71,0.54-0.97,0.96
				c-0.28,0.45-0.43,0.91-0.46,1.39L-480.2,333.41z"/>
			<path class="st1" d="M-480.86,340.74l-1.18,1.4l-6.07-5.09l1.18-1.4L-480.86,340.74z"/>
			<path class="st1" d="M-493.5,344.76l2.75-2.44l-0.6-1.73l1.4-1.25l2.63,8.26l-1.35,1.2l-7.91-3.56l1.44-1.28L-493.5,344.76z
				 M-492.15,345.42l2.95,1.43l-1.08-3.1L-492.15,345.42z"/>
			<path class="st1" d="M-504.77,350.69c0.75,0.04,1.42,0.27,2.02,0.67c0.6,0.41,1.07,0.96,1.39,1.67c0.33,0.7,0.45,1.42,0.38,2.14
				c-0.08,0.72-0.34,1.38-0.79,1.98s-1.05,1.07-1.79,1.42c-0.75,0.35-1.49,0.5-2.24,0.45c-0.74-0.04-1.42-0.27-2.02-0.67
				c-0.6-0.41-1.07-0.96-1.4-1.67s-0.45-1.42-0.37-2.14c0.08-0.72,0.34-1.38,0.79-1.98c0.45-0.6,1.04-1.07,1.79-1.42
				C-506.27,350.8-505.52,350.65-504.77,350.69z M-507.37,353.39c-0.25,0.35-0.39,0.75-0.43,1.19c-0.03,0.44,0.05,0.88,0.26,1.33
				c0.21,0.44,0.49,0.79,0.85,1.05c0.36,0.26,0.75,0.41,1.18,0.44c0.43,0.04,0.86-0.04,1.29-0.24c0.42-0.2,0.76-0.47,1.01-0.83
				c0.25-0.35,0.39-0.75,0.43-1.19c0.03-0.44-0.05-0.88-0.26-1.33c-0.21-0.45-0.49-0.8-0.85-1.05c-0.36-0.26-0.75-0.4-1.18-0.44
				c-0.43-0.04-0.86,0.05-1.29,0.24C-506.78,352.76-507.12,353.03-507.37,353.39z"/>
			<path class="st1" d="M-512.23,361.84l-3.5,0.84c-0.84,0.2-1.61,0.22-2.33,0.05c-0.72-0.16-1.32-0.49-1.82-0.99
				c-0.5-0.49-0.83-1.13-1.02-1.9c-0.19-0.77-0.17-1.49,0.05-2.15s0.61-1.23,1.17-1.71c0.57-0.47,1.27-0.81,2.1-1.01l3.5-0.84
				L-512.23,361.84z M-517.14,356.43c-0.77,0.19-1.33,0.55-1.69,1.09c-0.35,0.54-0.44,1.18-0.27,1.91s0.55,1.26,1.11,1.58
				c0.56,0.32,1.23,0.39,2,0.2l1.63-0.39l-1.15-4.77L-517.14,356.43z"/>
			<path class="st1" d="M-535.6,356.42l1.41,2.28l0.09,0l1.59,0.08l0.11-2.2l1.83,0.09l-0.4,7.91l-3.42-0.17
				c-0.7-0.04-1.3-0.18-1.81-0.44c-0.5-0.26-0.88-0.61-1.14-1.06c-0.26-0.44-0.37-0.96-0.34-1.55s0.2-1.09,0.5-1.5
				c0.3-0.41,0.72-0.72,1.25-0.92l-1.64-2.63L-535.6,356.42z M-535.44,362.5c0.27,0.25,0.69,0.39,1.24,0.42l1.49,0.08l0.14-2.76
				l-1.49-0.08c-0.55-0.03-0.97,0.07-1.27,0.3s-0.46,0.56-0.48,1C-535.84,361.9-535.72,362.25-535.44,362.5z"/>
			<path class="st1" d="M-547.16,355.82l0.33-1.43l5.97,1.39l-1.79,7.71l-5.83-1.35l0.33-1.43l4.06,0.94l0.39-1.68l-3.58-0.83
				l0.32-1.39l3.58,0.83l0.41-1.79L-547.16,355.82z"/>
			<path class="st1" d="M-551.76,353.06c0.46,0.59,0.74,1.24,0.83,1.96s-0.02,1.43-0.33,2.15c-0.31,0.71-0.77,1.28-1.36,1.7
				c-0.59,0.42-1.26,0.66-2.01,0.72c-0.75,0.06-1.5-0.08-2.25-0.41c-0.75-0.33-1.36-0.79-1.82-1.38c-0.46-0.59-0.74-1.24-0.83-1.96
				c-0.1-0.72,0.01-1.44,0.33-2.15c0.31-0.71,0.77-1.28,1.36-1.69c0.6-0.42,1.26-0.66,2.01-0.72c0.74-0.06,1.49,0.07,2.24,0.4
				C-552.83,352.01-552.22,352.47-551.76,353.06z M-555.5,352.89c-0.43,0.04-0.82,0.2-1.17,0.47c-0.35,0.27-0.62,0.62-0.82,1.07
				c-0.2,0.45-0.28,0.89-0.23,1.33c0.04,0.44,0.19,0.83,0.45,1.18c0.26,0.35,0.6,0.62,1.03,0.8c0.43,0.19,0.86,0.26,1.29,0.21
				c0.43-0.05,0.82-0.2,1.18-0.47c0.35-0.27,0.62-0.62,0.82-1.07c0.2-0.45,0.27-0.89,0.23-1.33c-0.04-0.44-0.19-0.83-0.45-1.18
				c-0.26-0.35-0.6-0.62-1.03-0.81C-554.64,352.92-555.07,352.85-555.5,352.89z"/>
			<path class="st1" d="M-560.27,348.63c0.07,0.29,0.02,0.57-0.15,0.84c-0.17,0.27-0.4,0.44-0.68,0.5
				c-0.29,0.06-0.56,0.01-0.82-0.16c-0.26-0.16-0.43-0.39-0.5-0.67s-0.03-0.56,0.15-0.83c0.17-0.27,0.4-0.44,0.69-0.51
				c0.29-0.07,0.57-0.02,0.83,0.14S-560.33,348.34-560.27,348.63z"/>
			<path class="st1" d="M-573.47,348.05c-0.25-0.51-0.34-1.02-0.28-1.53c0.06-0.51,0.28-0.99,0.65-1.44
				c0.37-0.45,0.8-0.75,1.29-0.91c0.49-0.16,1.01-0.16,1.55,0c0.54,0.15,1.09,0.45,1.63,0.9l1.23,1.02l1.39-1.68l1.41,1.17
				l-5.05,6.1l-2.64-2.19C-572.82,349.04-573.22,348.56-573.47,348.05z M-570.69,345.75c-0.37,0-0.7,0.17-0.98,0.51
				c-0.28,0.34-0.39,0.7-0.32,1.06c0.07,0.37,0.32,0.72,0.74,1.07l1.15,0.95l1.75-2.12l-1.15-0.95
				C-569.92,345.93-570.32,345.75-570.69,345.75z"/>
			<path class="st1" d="M-578.19,343.96l-1.2-1.39l4.87-4.2l-2.59-3.01l1.13-0.97l3.79,4.39L-578.19,343.96z"/>
		</g>
	</g>
</g>
<g>
	<path class="st0" d="M156.7,144.61c-14.64,0-26.56,11.91-26.56,26.56c0,14.65,11.92,26.56,26.56,26.56
		c14.65,0,26.56-11.91,26.56-26.56C183.27,156.52,171.35,144.61,156.7,144.61z"/>
	<path class="st0" d="M152.69,83.89c-28.24,1.97-50.87,24.61-52.84,52.84C128.09,134.76,150.73,112.12,152.69,83.89z"/>
	<g>
		<path class="st0" d="M123.97,54.96c0.41,0.51,0.92,0.88,1.53,1.1c0.61,0.22,1.26,0.28,1.95,0.16s1.28-0.38,1.79-0.79
			c0.5-0.41,0.86-0.93,1.08-1.55c0.22-0.62,0.27-1.29,0.15-2.01c-0.12-0.72-0.39-1.34-0.8-1.85s-0.92-0.88-1.53-1.1
			c-0.61-0.22-1.26-0.28-1.95-0.16c-0.69,0.12-1.28,0.38-1.79,0.79c-0.5,0.41-0.86,0.92-1.08,1.54c-0.22,0.62-0.27,1.29-0.15,2.01
			C123.29,53.83,123.56,54.45,123.97,54.96z"/>
		<path class="st0" d="M199.58,77.11c0.52,0.47,1.1,0.77,1.73,0.9c0.63,0.13,1.26,0.09,1.88-0.12c0.62-0.21,1.18-0.59,1.66-1.14
			s0.8-1.14,0.95-1.78c0.14-0.64,0.11-1.27-0.09-1.89c-0.21-0.61-0.57-1.15-1.09-1.62c-0.52-0.46-1.1-0.76-1.73-0.9
			c-0.63-0.14-1.26-0.1-1.88,0.12c-0.62,0.21-1.18,0.59-1.67,1.14c-0.49,0.55-0.8,1.14-0.94,1.78c-0.14,0.64-0.11,1.27,0.09,1.88
			C198.7,76.11,199.06,76.65,199.58,77.11z"/>
		<polygon class="st0" points="199.63,209.66 204.04,211.79 202.44,207.17 		"/>
		<path class="st0" d="M162.31,226.1c-1.15,0.28-1.99,0.82-2.52,1.62c-0.53,0.8-0.66,1.76-0.4,2.85s0.82,1.88,1.65,2.36
			c0.84,0.48,1.83,0.58,2.98,0.3l2.43-0.58l-1.71-7.13L162.31,226.1z"/>
		<polygon class="st0" points="226.19,101.03 221.3,101.3 222.92,104.68 		"/>
		<path class="st0" d="M135.14,232.13c-0.45,0.34-0.69,0.83-0.72,1.49c-0.03,0.66,0.15,1.18,0.56,1.56
			c0.41,0.38,1.03,0.58,1.85,0.63l2.23,0.11l0.21-4.12l-2.23-0.11C136.22,231.64,135.58,231.79,135.14,232.13z"/>
		<path class="st0" d="M106.96,221.14c-0.64-0.28-1.28-0.39-1.93-0.32c-0.64,0.07-1.23,0.3-1.75,0.7c-0.52,0.4-0.93,0.93-1.23,1.6
			c-0.29,0.67-0.41,1.33-0.35,1.99c0.06,0.65,0.29,1.24,0.67,1.76c0.39,0.52,0.9,0.92,1.54,1.2c0.64,0.28,1.28,0.39,1.93,0.32
			c0.65-0.07,1.23-0.3,1.76-0.7c0.52-0.4,0.93-0.93,1.23-1.6c0.29-0.67,0.41-1.33,0.35-1.99c-0.06-0.66-0.29-1.24-0.68-1.76
			C108.11,221.82,107.59,221.42,106.96,221.14z"/>
		<path class="st0" d="M226.81,177.24c0.62,0.24,1.17,0.22,1.66-0.05c0.49-0.27,0.87-0.79,1.17-1.56l0.8-2.08l-3.85-1.48l-0.8,2.08
			c-0.29,0.77-0.35,1.42-0.17,1.94C225.8,176.62,226.2,177,226.81,177.24z"/>
		<path class="st0" d="M254.42,140.94c-0.66-3.39-0.85-6.85-0.57-10.29c0.56-6.91-0.78-13.85-3.9-20.05
			c-1.55-3.09-2.67-6.37-3.33-9.76c-1.32-6.81-4.49-13.13-9.16-18.26h0c-2.32-2.55-4.29-5.41-5.84-8.5
			c-3.11-6.2-7.87-11.43-13.75-15.11v0c-2.93-1.83-5.59-4.06-7.91-6.61v0c-4.67-5.13-10.66-8.88-17.31-10.84
			c-3.31-0.97-6.48-2.4-9.4-4.23v0c-5.88-3.68-12.66-5.68-19.6-5.77c-3.45-0.04-6.88-0.56-10.19-1.54
			c-6.66-1.96-13.72-2.05-20.43-0.26h0c-3.34,0.89-6.78,1.32-10.23,1.27c-6.94-0.09-13.77,1.73-19.74,5.26v0
			c-2.97,1.76-6.17,3.1-9.51,3.98c-6.7,1.78-12.79,5.38-17.59,10.39c-2.39,2.49-5.11,4.65-8.08,6.4
			c-5.97,3.53-10.86,8.63-14.13,14.75c-1.63,3.04-3.67,5.85-6.05,8.34c-4.8,5.01-8.13,11.24-9.63,18.01
			c-0.75,3.37-1.95,6.62-3.58,9.67c-3.27,6.12-4.8,13.02-4.42,19.94c0.19,3.45-0.09,6.9-0.84,10.28c-1.5,6.77-1.11,13.83,1.13,20.4
			c1.11,3.27,1.78,6.67,1.97,10.12c0.38,6.93,2.66,13.62,6.59,19.33c1.95,2.85,3.51,5.95,4.62,9.21
			c2.24,6.57,6.24,12.39,11.56,16.84c2.65,2.21,4.98,4.78,6.94,7.63c3.93,5.72,9.35,10.25,15.68,13.1c3.15,1.42,6.09,3.26,8.74,5.47
			c5.32,4.45,11.77,7.35,18.63,8.38c3.41,0.51,6.74,1.49,9.89,2.91h0c6.33,2.85,13.31,3.9,20.2,3.04c3.43-0.43,6.89-0.38,10.31,0.13
			c6.86,1.03,13.87,0.16,20.27-2.52c3.18-1.33,6.54-2.23,9.96-2.65c6.88-0.86,13.4-3.59,18.84-7.89c2.71-2.14,5.69-3.91,8.88-5.24
			c6.4-2.68,11.94-7.07,16.01-12.68c2.03-2.79,4.43-5.3,7.13-7.44c5.44-4.31,9.59-10.03,12-16.53c1.2-3.24,2.83-6.3,4.86-9.09
			c4.07-5.62,6.53-12.24,7.09-19.16v0c0.28-3.44,1.03-6.83,2.23-10.07v0C255.17,154.8,255.75,147.75,254.42,140.94z M174.35,50.91
			l8.27,3.39l-0.83,2.03l-5.75-2.36l-0.97,2.37l5.08,2.08l-0.81,1.97l-5.08-2.08l-1.04,2.53l5.96,2.44l-0.83,2.03l-8.47-3.47
			L174.35,50.91z M164.51,48.04l2.65,0.68l-2.96,11.45l-2.65-0.69L164.51,48.04z M146.74,55.37l7.35-7.02l-6.31-0.73l0.26-2.21
			l9.88,1.15l-0.21,1.76l-7.33,7.02l6.68,0.78l-0.26,2.21l-10.27-1.2L146.74,55.37z M120.74,50.34c0.4-1.01,1.03-1.86,1.92-2.54
			s1.93-1.13,3.14-1.34c1.21-0.2,2.34-0.13,3.4,0.23c1.05,0.36,1.94,0.95,2.65,1.77c0.71,0.82,1.16,1.81,1.35,2.95
			c0.19,1.14,0.09,2.22-0.31,3.23c-0.4,1.01-1.04,1.86-1.92,2.54c-0.88,0.69-1.92,1.13-3.13,1.33c-1.21,0.21-2.34,0.13-3.4-0.23
			c-1.06-0.36-1.94-0.95-2.65-1.77c-0.7-0.82-1.15-1.81-1.35-2.95C120.24,52.43,120.34,51.35,120.74,50.34z M106.35,52.06l1.91,5.18
			l3-7l2.85-1.05l-2.77,6.64l7.13,4.36l-3,1.1l-5.16-3.05l-0.92,2.1l1.03,2.81l-2.55,0.94L103.8,53L106.35,52.06z M92.69,58.75
			l4.79,8.31l5.14-2.97l1.11,1.93l-7.51,4.33l-5.91-10.24L92.69,58.75z M78.28,69.12l5.78,2.06l-0.89-6.06l2.08-1.7l1.29,8.82
			l2.66,3.24l-2.11,1.74l-2.68-3.26l-8.36-2.97L78.28,69.12z M72.81,74.18l1.67,1.47l-2.5,2.84l7.21,6.33l-1.81,2.06l-7.21-6.33
			l-2.5,2.84L66,81.92L72.81,74.18z M71.15,207.48l-1.79-2.07l7.26-6.27l-3.87-4.49l1.69-1.46l5.66,6.56L71.15,207.48z M83.92,219
			l-3.94-3.26c-0.81-0.67-1.4-1.38-1.77-2.14c-0.37-0.76-0.51-1.52-0.42-2.28c0.09-0.76,0.41-1.48,0.97-2.16
			c0.55-0.67,1.2-1.12,1.93-1.35c0.73-0.23,1.51-0.24,2.32-0.01c0.81,0.23,1.62,0.67,2.43,1.34l1.84,1.52l2.08-2.51l2.11,1.75
			L83.92,219z M97.69,215.71c-0.26,0.41-0.59,0.66-1.02,0.75c-0.43,0.09-0.83,0.01-1.23-0.23c-0.39-0.24-0.64-0.58-0.75-0.99
			c-0.11-0.42-0.04-0.84,0.22-1.25c0.25-0.4,0.59-0.65,1.03-0.76c0.43-0.1,0.85-0.03,1.24,0.21c0.39,0.24,0.64,0.58,0.74,1.02
			C98.02,214.89,97.94,215.3,97.69,215.71z M111.36,227.21c-0.47,1.06-1.14,1.91-2.03,2.53c-0.88,0.63-1.88,0.98-3,1.07
			c-1.12,0.09-2.23-0.12-3.36-0.61c-1.12-0.49-2.03-1.18-2.71-2.06c-0.69-0.88-1.1-1.86-1.24-2.93c-0.14-1.08,0.02-2.15,0.49-3.21
			c0.47-1.06,1.14-1.9,2.03-2.53c0.89-0.63,1.89-0.98,3-1.07c1.11-0.09,2.23,0.11,3.35,0.6c1.12,0.49,2.03,1.18,2.72,2.06
			c0.69,0.88,1.1,1.86,1.24,2.93S111.82,226.14,111.36,227.21z M124.24,236.64l-8.71-2.02l0.5-2.14l6.06,1.4l0.58-2.5l-5.35-1.24
			l0.48-2.07l5.35,1.24l0.62-2.67l-6.27-1.45l0.5-2.14l8.92,2.07L124.24,236.64z M141.68,238.28l-5.11-0.26
			c-1.05-0.05-1.95-0.27-2.7-0.66c-0.75-0.39-1.32-0.91-1.7-1.58c-0.38-0.66-0.55-1.43-0.51-2.31c0.05-0.88,0.29-1.62,0.75-2.24
			c0.45-0.61,1.08-1.07,1.87-1.37l-2.46-3.93l2.94,0.15l2.11,3.4l0.14,0.01l2.38,0.12l0.17-3.29l2.73,0.14L141.68,238.28z
			 M164.41,235.44c-1.25,0.3-2.41,0.33-3.48,0.08c-1.07-0.24-1.98-0.74-2.72-1.47c-0.74-0.74-1.25-1.68-1.52-2.83
			c-0.28-1.15-0.25-2.22,0.07-3.21c0.32-0.99,0.91-1.84,1.75-2.55c0.84-0.71,1.89-1.21,3.14-1.51l5.22-1.26l2.76,11.5L164.41,235.44
			z M186.44,224.22c-0.11,1.08-0.51,2.06-1.18,2.96c-0.67,0.9-1.56,1.6-2.68,2.12c-1.11,0.52-2.23,0.74-3.34,0.68
			c-1.11-0.07-2.12-0.4-3.02-1.01c-0.9-0.61-1.6-1.43-2.09-2.49s-0.67-2.12-0.56-3.2c0.12-1.08,0.51-2.07,1.18-2.96
			c0.66-0.89,1.55-1.6,2.67-2.12c1.11-0.52,2.23-0.74,3.35-0.68c1.12,0.06,2.12,0.4,3.02,1.01c0.9,0.61,1.59,1.44,2.08,2.49
			C186.37,222.08,186.55,223.15,186.44,224.22z M156.9,205.46c-0.07,0-0.13,0-0.2,0c-0.19,0-0.38,0-0.56,0
			c-34.05-0.29-61.91-27-64.03-60.59c-12.89,1.82-22.83,12.92-22.83,26.3c0,2.14-1.73,3.87-3.87,3.87c-2.14,0-3.87-1.73-3.87-3.87
			v-30.43c0-2.14,1.73-3.87,3.87-3.87c2.14,0,3.87,1.73,3.87,3.87v8.75c5.55-6.78,13.64-11.41,22.8-12.41
			c1.9-34,30.16-61.07,64.62-61.07c2.14,0,3.87,1.73,3.87,3.87c0,34.35-26.9,62.54-60.73,64.6c1.26,19.41,12.29,36.2,28.2,45.5
			c-3.56-5.4-5.64-11.87-5.64-18.81c0-18.91,15.39-34.3,34.3-34.3s34.3,15.39,34.3,34.3C191,190.01,175.72,205.36,156.9,205.46z
			 M190.35,72.34l-7.38-4.54l6.2-10.07l2.33,1.43l-5.03,8.17l5.05,3.11L190.35,72.34z M235.95,120.7l1.57,8.8l-2.16,0.39l-1.09-6.12
			l-2.53,0.45l0.97,5.41l-2.1,0.37l-0.97-5.4l-2.69,0.48l1.13,6.34l-2.16,0.38l-1.61-9.01L235.95,120.7z M228.03,98.67l1.17,2.44
			l-8.37,9.89l-1.25-2.59l1.83-2.04l-2.38-4.95l-2.74,0.15l-1.22-2.53L228.03,98.67z M215.79,79.71l1.35,1.81l-2.24,9.01l5.75-4.3
			l1.62,2.17l-9.48,7.08l-1.34-1.8l2.23-9.02l-5.75,4.29l-1.62-2.17L215.79,79.71z M195.81,72.88c0.2-1.06,0.69-2.03,1.46-2.89
			c0.77-0.87,1.68-1.46,2.71-1.78c1.04-0.32,2.1-0.35,3.18-0.09c1.09,0.26,2.09,0.8,3.01,1.62c0.92,0.82,1.56,1.75,1.94,2.8
			c0.38,1.05,0.47,2.11,0.27,3.17c-0.2,1.07-0.69,2.04-1.46,2.9c-0.77,0.86-1.68,1.46-2.72,1.77c-1.04,0.32-2.1,0.35-3.18,0.09
			c-1.08-0.26-2.08-0.79-3-1.61c-0.92-0.82-1.56-1.75-1.95-2.8C195.7,75,195.61,73.94,195.81,72.88z M204.81,214.71L193,209.39
			l2.15-1.91l2.47,1.2l4.1-3.65l-0.9-2.59l2.1-1.86l3.92,12.34L204.81,214.71z M214.73,204.77l-9.06-7.59l1.76-2.1l9.06,7.59
			L214.73,204.77z M224.77,189.69c-0.07,1.12-0.43,2.2-1.08,3.26c-0.54,0.88-1.18,1.59-1.92,2.13c-0.74,0.54-1.54,0.87-2.41,1.02
			l-0.46-2.35c1.2-0.25,2.11-0.89,2.74-1.9c0.4-0.64,0.61-1.3,0.65-1.96c0.04-0.66-0.1-1.28-0.42-1.86
			c-0.32-0.58-0.79-1.06-1.43-1.45c-0.62-0.38-1.27-0.59-1.93-0.61c-0.66-0.02-1.28,0.13-1.86,0.45c-0.58,0.33-1.06,0.81-1.45,1.44
			c-0.41,0.67-0.64,1.36-0.68,2.08l2.95,1.81l-1.31,2.13l-4.09-2.52c-0.08-0.8,0-1.63,0.22-2.48c0.22-0.85,0.56-1.65,1.01-2.38
			c0.64-1.05,1.45-1.85,2.4-2.41c0.96-0.56,1.98-0.84,3.07-0.82c1.08,0.01,2.12,0.33,3.12,0.94c1,0.61,1.75,1.4,2.25,2.36
			C224.63,187.53,224.84,188.57,224.77,189.69z M231.66,176.57c-0.38,0.98-0.86,1.76-1.47,2.36c-0.6,0.59-1.28,0.97-2.03,1.13
			c-0.75,0.16-1.53,0.08-2.35-0.23c-0.82-0.32-1.45-0.78-1.89-1.41c-0.44-0.62-0.68-1.36-0.72-2.2l-4.5,1.11l1.05-2.74l3.89-0.95
			l0.05-0.12l0.85-2.23l-3.08-1.18l0.98-2.55l11.04,4.24L231.66,176.57z M235.55,164.6l-2.16-0.42l1.18-6.1l-2.52-0.49l-1.04,5.39
			l-2.09-0.41l1.05-5.39l-2.69-0.52l-1.22,6.32l-2.16-0.42l1.74-8.99l11.61,2.25L235.55,164.6z M238.21,139.31l-7.22,5.83l7.18,0.05
			l-0.02,2.7l-11.82-0.09l0.02-2.25l7.22-5.84l-7.18-0.05l0.02-2.7l11.82,0.09L238.21,139.31z"/>
		<path class="st0" d="M82.35,210.16c-0.56,0-1.04,0.25-1.46,0.76c-0.42,0.51-0.58,1.04-0.48,1.59c0.1,0.55,0.47,1.08,1.11,1.6
			l1.72,1.42l2.62-3.16l-1.72-1.42C83.5,210.43,82.9,210.16,82.35,210.16z"/>
		<path class="st0" d="M182.1,220.62c-0.53-0.38-1.12-0.6-1.77-0.66c-0.65-0.05-1.28,0.07-1.92,0.36c-0.63,0.29-1.14,0.71-1.51,1.23
			c-0.37,0.53-0.59,1.12-0.64,1.78c-0.05,0.66,0.08,1.32,0.39,1.98c0.31,0.66,0.73,1.19,1.26,1.57c0.53,0.39,1.12,0.61,1.77,0.66
			c0.65,0.05,1.29-0.07,1.92-0.36c0.63-0.29,1.14-0.71,1.51-1.23c0.37-0.53,0.59-1.12,0.64-1.78c0.05-0.66-0.08-1.32-0.39-1.98
			C183.06,221.53,182.64,221.01,182.1,220.62z"/>
	</g>
</g>
</svg>
